<svg width="32" height="32" viewBox="0 0 32 32" fill="none" xmlns="http://www.w3.org/2000/svg">
<g clip-path="url(#clip0_909_1881)">
<path fill-rule="evenodd" clip-rule="evenodd" d="M26.6764 30.5377C26.5827 30.5377 26.5077 30.5377 26.414 30.5377H5.58682C3.58096 30.6315 1.72507 29.5817 0.712768 27.857C-0.243295 26.1886 -0.243295 24.2202 0.731514 22.5518L11.3794 4.10539C12.3355 2.45571 14.0602 1.46216 15.991 1.46216C17.9407 1.46216 19.6653 2.45571 20.6214 4.10539L31.2693 22.5518C32.2254 24.2202 32.2254 26.1886 31.2693 27.857C30.3132 29.5067 28.5511 30.5377 26.6764 30.5377Z" fill="#FCBE37"/>
<path fill-rule="evenodd" clip-rule="evenodd" d="M17.8474 27.2571H14.1544C13.667 27.2571 13.2733 26.8634 13.2733 26.376V23.3203C13.2733 22.8329 13.667 22.4393 14.1544 22.4393H17.8474C18.3348 22.4393 18.7285 22.8329 18.7285 23.3203V26.376C18.7285 26.8634 18.3348 27.2571 17.8474 27.2571ZM17.8474 21.2582H14.1544C13.6858 21.2582 13.2921 20.9021 13.2733 20.4334L12.6547 8.79193C12.636 8.54823 12.7297 8.30453 12.8984 8.13581C13.0484 7.96709 13.2921 7.85461 13.517 7.85461H18.4661C18.7098 7.85461 18.9347 7.96709 19.1034 8.13581C19.2722 8.30453 19.3659 8.54823 19.3472 8.79193L18.7285 20.4334C18.691 20.9021 18.3161 21.2582 17.8474 21.2582Z" fill="#FCAB32"/>
<path fill-rule="evenodd" clip-rule="evenodd" d="M17.8453 26.7509C18.0515 26.7509 18.2202 26.5822 18.2202 26.376V23.3204C18.2202 23.1142 18.0515 22.9454 17.8453 22.9454H14.1523C13.9461 22.9454 13.7773 23.1142 13.7773 23.3204V26.376C13.7773 26.5822 13.9461 26.7509 14.1523 26.7509H17.8453Z" fill="#FBFBFB"/>
<path fill-rule="evenodd" clip-rule="evenodd" d="M17.846 20.7709C18.0522 20.7709 18.2021 20.6022 18.2209 20.4147L18.8395 8.75451C18.8583 8.66078 18.8208 8.5483 18.7458 8.47332C18.6708 8.39833 18.5771 8.36084 18.4646 8.36084H13.5156C13.4218 8.36084 13.3281 8.39833 13.2531 8.47332C13.1781 8.5483 13.1406 8.66078 13.1406 8.75451L13.778 20.4147C13.778 20.6022 13.9467 20.7709 14.1529 20.7709H17.846Z" fill="#FBFBFB"/>
</g>
<defs>
<clipPath id="clip0_909_1881">
<rect width="32" height="32" fill="white"/>
</clipPath>
</defs>
</svg>
