<svg width="78" height="80" viewBox="0 0 78 80" fill="none" xmlns="http://www.w3.org/2000/svg">
<path fill-rule="evenodd" clip-rule="evenodd" d="M27.7494 80C27.2806 80 26.8119 79.6875 26.6556 79.2187C21.8119 64.0625 15.0931 55.7812 10.4056 51.5625C5.2494 47.0312 1.34315 45.9375 1.1869 45.9375C0.718149 45.7812 0.249399 45.1562 0.405649 44.5312C0.561899 44.0625 1.1869 43.5937 1.8119 43.75C1.96815 43.75 6.1869 44.8437 11.6556 49.8437C16.6556 54.2187 23.6869 62.8125 28.8431 78.5937C28.9994 79.0625 28.6869 79.6875 28.0619 80C28.0619 80 27.9056 80 27.7494 80Z" fill="#1D547D"/>
<path fill-rule="evenodd" clip-rule="evenodd" d="M36.3438 80C35.7188 80 35.25 79.5312 35.25 78.9062C35.4062 66.25 25.4062 47.9688 25.25 47.6562C24.9375 47.1875 25.0938 46.5625 25.7188 46.25C26.1875 45.9375 26.8125 46.0938 27.125 46.7188C27.5938 47.3438 37.5938 65.625 37.4375 78.9062C37.4375 79.5312 36.9688 80 36.3438 80Z" fill="#1D547D"/>
<path fill-rule="evenodd" clip-rule="evenodd" d="M42.9062 80C42.2812 80 41.8125 79.5312 41.8125 78.9062V56.4062C41.8125 55.7812 42.2812 55.3125 42.9062 55.3125C43.5312 55.3125 44 55.7812 44 56.4062V78.9062C44 79.5312 43.5312 80 42.9062 80Z" fill="#1D547D"/>
<path fill-rule="evenodd" clip-rule="evenodd" d="M59.625 80C59 80 58.5312 79.375 58.5312 78.9062C59.4688 62.3438 64 52.3438 67.5938 46.7188C71.5 40.625 75.4062 38.4375 75.5625 38.4375C76.0312 38.125 76.6562 38.2812 76.9688 38.9062C77.2812 39.375 77.125 40 76.5 40.3125C76.5 40.3125 72.9062 42.3438 69.3125 48.125C65.875 53.4375 61.6562 63.125 60.7188 78.9062C60.7188 79.5312 60.25 80 59.625 80Z" fill="#1D547D"/>
<path fill-rule="evenodd" clip-rule="evenodd" d="M50.7176 80C50.2489 80 49.7801 79.6875 49.6239 79.0625C47.1239 66.4062 51.6551 48.5937 51.8114 47.8125C51.9676 47.1875 52.5926 46.875 53.2176 47.0312C53.6864 47.1875 54.1551 47.8125 53.9989 48.4375C53.8426 48.5937 49.3114 66.4062 51.8114 78.75C51.9676 79.2187 51.4989 79.8437 50.8739 80H50.7176Z" fill="#1D547D"/>
<path fill-rule="evenodd" clip-rule="evenodd" d="M66.1875 20.625H66.0312C65.5625 20.4687 65.25 20.1562 65.0938 19.6875L64.1562 13.4375L57.9062 12.5C57.4375 12.3437 57.125 12.0312 56.9688 11.5625C56.9688 11.0937 57.125 10.625 57.5938 10.4687L63.2188 7.49999L62.125 1.24999C62.125 0.78124 62.2812 0.31249 62.75 0.15624C63.2188 -0.15626 63.6875 -1.00732e-05 64 0.31249L68.5312 4.84374L74.1562 2.03124C74.625 1.71874 75.0938 1.87499 75.4062 2.18749C75.7188 2.49999 75.875 3.12499 75.5625 3.43749L72.9062 9.06249L77.2812 13.5937C77.5938 13.9062 77.75 14.375 77.4375 14.8437C77.2812 15.3125 76.8125 15.4687 76.3438 15.4687L70.0938 14.5312L67.125 20C66.9688 20.4687 66.6562 20.625 66.1875 20.625Z" fill="#1D547D"/>
<path fill-rule="evenodd" clip-rule="evenodd" d="M11.5 25.1562H11.3438C10.875 25 10.5625 24.6875 10.4062 24.2187L9.3125 17.9687L3.0625 17.0312C2.59375 16.875 2.28125 16.5625 2.125 16.0937C2.125 15.625 2.28125 15.1562 2.75 15L8.375 12.0312L7.4375 5.78124C7.4375 5.31249 7.59375 4.84374 8.0625 4.68749C8.53125 4.37499 9 4.53124 9.3125 4.84374L13.6875 9.37499L19.4688 6.56249C19.9375 6.24999 20.4062 6.40624 20.7188 6.71874C21.0312 7.03124 21.1875 7.65624 20.875 7.96874L18.0625 13.5937L22.4375 18.125C22.75 18.4375 22.9062 19.0625 22.5938 19.375C22.4375 19.8437 21.9688 20 21.5 20L15.4062 19.0625L12.4375 24.5312C12.2812 25 11.9688 25.1562 11.5 25.1562Z" fill="#1D547D"/>
<path fill-rule="evenodd" clip-rule="evenodd" d="M13.5312 44.2188C13.375 44.2188 13.375 44.2188 13.375 44.2188C11.8125 44.2188 10.4062 43.5938 9.46875 42.5C8.375 41.4062 7.75 39.8438 7.75 38.2812C7.75 36.7188 8.375 35.4688 9.46875 34.375C10.4062 33.2812 11.8125 32.6562 13.375 32.6562C14.9375 32.6562 16.5 33.2812 17.5938 34.375C18.6875 35.3125 19.3125 36.7188 19.3125 38.2812C19.3125 39.8438 18.6875 41.4062 17.5938 42.5C16.5 43.5938 14.9375 44.2188 13.5312 44.2188Z" fill="#1D547D"/>
<path fill-rule="evenodd" clip-rule="evenodd" d="M63.375 40.4688C61.8125 40.4688 60.4062 40 59.1562 38.9062C56.9688 36.5625 56.9688 32.9688 59.1562 30.625C61.5 28.4375 65.0938 28.4375 67.4375 30.625C69.625 32.9688 69.625 36.5625 67.4375 38.9062C66.1875 40 64.7812 40.4688 63.375 40.4688Z" fill="#1D547D"/>
<path fill-rule="evenodd" clip-rule="evenodd" d="M48.8422 35.9375C48.686 35.9375 48.5297 35.9375 48.3735 35.7812L40.0922 31.25L32.2797 35.7812C31.811 36.0937 31.186 35.9375 30.8735 35.625C30.561 35.3125 30.4047 34.6875 30.7172 34.2187L35.2485 26.0937L30.7172 18.125C30.4047 17.8125 30.561 17.1875 30.8735 16.875C31.186 16.5625 31.811 16.4062 32.2797 16.7187L40.4047 21.25L48.3735 16.7187C48.686 16.4062 49.311 16.5625 49.6235 16.875C49.936 17.1875 50.0922 17.8125 49.7797 18.125L45.2485 26.4062L49.7797 34.2187C50.0922 34.6875 49.936 35.3125 49.6235 35.625C49.4672 35.7812 49.1547 35.9375 48.8422 35.9375Z" fill="#1D547D"/>
<path fill-rule="evenodd" clip-rule="evenodd" d="M41.1875 50.1562C41.0312 50.1562 41.0312 50.1562 40.875 50.1562L34.625 48.4375C34.3125 48.2812 34.1562 48.125 34 47.8125C33.8438 47.6562 33.8438 47.3437 33.8438 47.0312L35.5625 40.9375C35.7188 40.3125 36.3438 40 36.9688 40.1562L43.2188 41.7187C43.5312 41.875 43.6875 42.0312 43.8438 42.1875C44 42.5 44 42.8125 44 43.125L42.2812 49.375C42.125 49.8437 41.6562 50.1562 41.1875 50.1562Z" fill="#1D547D"/>
<path fill-rule="evenodd" clip-rule="evenodd" d="M13.0615 73.75C12.749 73.75 12.4365 73.5937 12.124 73.4375C11.1865 72.8125 11.0303 71.25 11.6553 67.9687C10.0928 67.3437 8.37403 66.7187 6.96778 66.4062C6.34278 66.25 5.87403 65.625 6.03028 65C6.18653 64.5312 6.81153 64.0625 7.43653 64.2187C8.06153 64.375 10.0928 64.8437 12.124 65.7812C12.4365 64.375 12.749 63.125 12.9053 63.125C13.0615 62.5 13.6865 62.1875 14.1553 62.3437C14.7803 62.5 15.0928 63.125 14.9365 63.75C14.624 64.8437 14.3115 65.9375 14.1553 66.875C15.249 67.6562 16.0303 68.4375 16.3428 69.375C16.499 70.1562 16.499 71.4062 15.0928 72.6562C14.3115 73.4375 13.5303 73.75 13.0615 73.75ZM13.5303 69.2187C13.5303 70 13.374 70.7812 13.374 71.25L13.5303 71.0937C13.999 70.625 14.1553 70.3125 14.1553 70C13.999 69.6875 13.8428 69.5312 13.5303 69.2187Z" fill="#1D547D"/>
<path fill-rule="evenodd" clip-rule="evenodd" d="M69.1551 70.7812C68.6863 70.7812 68.3738 70.4687 68.2176 70.1562C67.4363 68.5937 66.6551 66.875 65.8738 65.1562C65.4051 64.375 64.9363 63.4375 64.6238 62.5C64.3113 61.875 64.6238 61.25 65.0926 61.0937C65.7176 60.7812 66.3426 61.0937 66.4988 61.5625C66.9676 62.5 67.4363 63.4375 67.9051 64.375C68.3738 65.3125 68.8426 66.4062 69.3113 67.3437C69.7801 66.5625 70.2488 65.625 70.5613 65C70.2488 64.8437 70.0926 64.6875 69.9363 64.5312C69.6238 63.9062 69.7801 63.2812 70.2488 62.9687C71.3426 62.3437 72.1238 62.3437 72.7488 62.9687C73.3738 63.5937 73.2176 64.8437 71.8113 67.5C71.0301 68.9062 70.0926 70.3125 70.0926 70.3125C69.9363 70.625 69.4676 70.7812 69.1551 70.7812Z" fill="#1D547D"/>
<path fill-rule="evenodd" clip-rule="evenodd" d="M41.1865 16.7187C40.874 16.7187 40.5615 16.5625 40.249 16.4062C39.3115 15.7812 39.1553 14.2187 39.7803 11.0937C38.2178 10.3125 36.499 9.84374 35.0928 9.53124C34.4678 9.37499 33.999 8.74999 34.1553 8.12499C34.3115 7.65624 34.9365 7.18749 35.5615 7.34374C36.1865 7.49999 38.2178 7.96874 40.249 8.90624C40.5615 7.34374 40.874 6.09374 40.874 6.09374C41.1865 5.46874 41.6553 5.15624 42.2803 5.31249C42.9053 5.46874 43.2178 6.09374 43.0615 6.71874C42.749 7.81249 42.4365 8.90624 42.124 9.84374C43.2178 10.625 44.1553 11.4062 44.4678 12.3437C44.624 13.125 44.624 14.375 43.2178 15.625C42.4365 16.4062 41.6553 16.7187 41.1865 16.7187ZM41.6553 12.1875C41.6553 12.9687 41.499 13.75 41.499 14.2187L41.6553 14.0625C42.124 13.5937 42.2803 13.2812 42.2803 12.9687C42.124 12.8125 41.9678 12.5 41.6553 12.1875Z" fill="#1D547D"/>
</svg>
