<svg width="64" height="62" viewBox="0 0 64 62" fill="none" xmlns="http://www.w3.org/2000/svg">
<path d="M21.7078 40.3426C24.9994 47.2604 34.9838 47.5071 38.1348 40.3846C37.2755 39.5081 36.6348 38.5686 36.0046 37.6343C35.9005 37.4821 35.7963 37.3299 35.6921 37.1724C34.1713 38.3901 32.3223 39.1669 29.9161 39.1617C27.3223 39.1564 25.364 38.1539 23.765 36.6791C23.6713 36.5898 23.5723 36.5006 23.4786 36.4114C23.2494 37.0517 22.9578 37.8233 22.6453 38.5423C22.3432 39.2247 22.0203 39.8755 21.7078 40.3426ZM44.1296 49.6275L46.4942 47.1292L49.9057 50.4358L55.2182 43.3029L57.8588 45.4496C56.614 47.0032 52.1765 53.1389 51.2078 53.9367C50.4109 54.5928 49.265 54.5928 48.5255 53.8737L44.1296 49.6275ZM51.0255 35.3512C54.6088 35.3512 57.8484 36.8155 60.1973 39.1827C62.5463 41.5498 63.9942 44.8145 63.9942 48.4256C63.9942 52.0367 62.5411 55.3013 60.1973 57.6685C57.8484 60.0356 54.6088 61.5 51.0255 61.5C47.4421 61.5 44.2025 60.0356 41.8536 57.6685C39.5046 55.3013 38.0515 52.0367 38.0515 48.4256C38.0515 45.8117 38.8119 43.3764 40.1244 41.3346C39.7494 41.1719 39.3796 40.983 38.9786 40.7573C37.3848 48.1999 24.7963 49.9949 20.9109 41.1824C18.1661 42.5733 15.3796 43.6283 12.1921 44.1269L14.0463 57.6108H2.99942C-2.47975 57.1909 0.900459 49.2129 2.5515 47.0137C3.34317 45.9587 4.32754 45.1819 5.41608 44.5678C8.68692 42.7308 17.2025 42.1219 20.7338 39.6393C20.9942 39.2457 21.2755 38.6736 21.5411 38.0542C21.9473 37.12 22.3171 36.1017 22.5515 35.4089C21.5619 34.2384 20.7182 32.9158 19.9057 31.6089L17.2286 27.3207C16.2494 25.8511 15.739 24.5022 15.7078 23.3999C15.6921 22.8803 15.7807 22.4079 15.9682 21.9933C16.1661 21.5577 16.4734 21.1955 16.89 20.9173C17.0828 20.7861 17.3015 20.6759 17.5411 20.5814C17.3692 18.2563 17.3015 15.3222 17.4161 12.8659C17.4734 12.2833 17.5828 11.7007 17.7442 11.1181C18.4265 8.65644 20.1453 6.67244 22.265 5.30779C23.4369 4.55723 24.7182 3.99038 26.0567 3.60722C26.9057 3.36578 25.3328 0.625981 26.213 0.536753C30.463 0.0958653 37.3432 4.00612 40.3119 7.2393C41.7963 8.86114 42.7286 11.0078 42.9317 13.8526L42.765 20.8543C43.5098 21.08 43.9838 21.5577 44.1765 22.324C44.39 23.1743 44.1557 24.3762 43.4421 26.0085C43.4317 26.04 43.4161 26.0663 43.3953 26.0978L40.3432 31.1627C39.2234 33.0207 38.0828 34.8893 36.5984 36.3589C36.7338 36.5531 36.864 36.7473 36.9994 36.9468C37.6036 37.839 38.213 38.7313 38.9942 39.5291C39.0203 39.5553 39.0411 39.5816 39.0619 39.6131C39.5255 39.9437 40.0828 40.2429 40.7025 40.5158C41.0567 40.0487 41.4421 39.6026 41.8536 39.1879C44.2025 36.8155 47.4473 35.3512 51.0255 35.3512ZM19.0828 21.8201C18.489 21.8411 18.0411 21.9671 17.7338 22.177C17.5567 22.2977 17.4317 22.4447 17.3484 22.6284C17.2546 22.8278 17.213 23.0693 17.2234 23.3527C17.2442 24.1715 17.6713 25.2475 18.4994 26.4809L18.5098 26.4967L21.1869 30.7848C22.2598 32.5064 23.3848 34.2594 24.7859 35.5454C26.1296 36.784 27.765 37.6238 29.9213 37.6291C32.2598 37.6343 33.9682 36.763 35.3536 35.4561C36.7963 34.0967 37.9317 32.2282 39.0567 30.3702L42.0723 25.3629C42.6348 24.0718 42.838 23.2057 42.713 22.6966C42.6348 22.3922 42.3067 22.2452 41.7442 22.219C41.6244 22.2137 41.4994 22.2137 41.3796 22.2137C41.2442 22.219 41.1036 22.2295 40.9578 22.24C40.8796 22.2452 40.8015 22.24 40.7234 22.2242C40.4525 22.24 40.1765 22.219 39.8953 22.177L40.9265 17.5687C33.265 18.7864 27.5307 13.0496 19.4317 16.4192L20.015 21.8463C19.6817 21.8778 19.3692 21.8673 19.0828 21.8201ZM51.0255 37.3771C47.9994 37.3771 45.2546 38.6158 43.2703 40.6156C41.2859 42.6153 40.0567 45.3761 40.0567 48.4308C40.0567 54.535 44.9682 59.4793 51.0255 59.4793C54.0515 59.4793 56.7963 58.2406 58.7807 56.2408C60.765 54.2411 61.9942 51.4803 61.9942 48.4256C61.9942 42.3214 57.0828 37.3771 51.0255 37.3771Z" fill="#1C5540"/>
</svg>
