<svg width="80" height="80" viewBox="0 0 80 80" fill="none" xmlns="http://www.w3.org/2000/svg">
<path d="M25.8425 18.4625L25.7312 24.1125L22.5 28.75L25.73 33.3875L25.8413 39.0375L31.1825 40.8863L34.59 45.3975L40 43.75L45.4087 45.3975L48.8163 40.8863L54.1575 39.0375L54.2688 33.3875L57.5 28.75L54.27 24.1125L54.1587 18.4625L48.8175 16.6138L45.41 12.1025L40 13.75L34.5913 12.1025L31.1838 16.6138L25.8425 18.4625ZM40 18.75C45.5225 18.75 50 23.2275 50 28.75C50 34.2725 45.5225 38.75 40 38.75C34.4775 38.75 30 34.2725 30 28.75C30 23.2275 34.4775 18.75 40 18.75Z" fill="#1D547D"/>
<path d="M55.4883 22.5L55.512 23.71L58.5258 28.035C58.8245 28.465 58.8258 29.035 58.5258 29.4637L55.512 33.79L55.4883 35H76.2495L72.4995 28.75L76.2495 22.5H55.4883Z" fill="#1D547D"/>
<path d="M38.7509 33.75C38.7697 33.75 38.7884 33.75 38.8072 33.7488C39.1584 33.7325 39.4859 33.57 39.7109 33.3L45.9609 25.8L44.0409 24.2L38.6672 30.6488L35.8847 27.8663L34.1172 29.6338L37.8672 33.3838C38.1022 33.6188 38.4197 33.75 38.7509 33.75Z" fill="#1D547D"/>
<path d="M37.9958 54.9087L38.1858 52.4162C37.3995 52.3562 36.6058 52.2562 35.8295 52.1187L35.3945 54.5812C36.2533 54.7325 37.1283 54.8437 37.9958 54.9087Z" fill="#1D547D"/>
<path d="M40.6175 54.9787C41.4887 54.9587 42.3688 54.895 43.2338 54.7887L42.9287 52.3075C42.1475 52.4037 41.35 52.4612 40.5625 52.4787L40.6175 54.9787Z" fill="#1D547D"/>
<path d="M32.8366 53.995L33.5166 51.59C32.7616 51.3763 32.0041 51.1213 31.2678 50.83L30.3516 53.1563C31.1653 53.4763 32.0016 53.7588 32.8366 53.995Z" fill="#1D547D"/>
<path d="M45.2656 51.9025L45.8169 54.34C46.6669 54.1475 47.5169 53.91 48.3444 53.6313L47.5481 51.2613C46.8031 51.5125 46.0344 51.7275 45.2656 51.9025Z" fill="#1D547D"/>
<path d="M27.9628 52.07L29.1103 49.85C28.4091 49.4875 27.7191 49.085 27.0591 48.6562L25.6953 50.75C26.4253 51.225 27.1878 51.6687 27.9628 52.07Z" fill="#1D547D"/>
<path d="M50.7866 52.6725C51.5791 52.315 52.3641 51.9112 53.1191 51.475L51.8691 49.3112C51.1853 49.7062 50.4741 50.0712 49.7578 50.395L50.7866 52.6725Z" fill="#1D547D"/>
<path d="M25.1376 47.2625C24.5238 46.7687 23.9263 46.2375 23.3638 45.685L21.6113 47.4687C22.2326 48.08 22.8926 48.6662 23.5713 49.2112L25.1376 47.2625Z" fill="#1D547D"/>
<path d="M55.3233 50.05C56.0295 49.5413 56.7195 48.9913 57.3733 48.4138L55.7183 46.54C55.127 47.0625 54.5033 47.56 53.8633 48.0213L55.3233 50.05Z" fill="#1D547D"/>
<path d="M21.7534 43.9388C21.2484 43.3325 20.7684 42.695 20.3259 42.0425L18.2559 43.4438C18.7434 44.165 19.2746 44.87 19.8334 45.54L21.7534 43.9388Z" fill="#1D547D"/>
<path d="M57.418 44.8825L59.2517 46.5825C59.8455 45.9412 60.413 45.2663 60.9367 44.5738L58.9455 43.0638C58.4705 43.69 57.9567 44.3025 57.418 44.8825Z" fill="#1D547D"/>
<path d="M15.7637 38.835C16.1012 39.6425 16.4812 40.4375 16.8949 41.2025L19.0937 40.0137C18.7199 39.3225 18.3749 38.6025 18.0712 37.8725L15.7637 38.835Z" fill="#1D547D"/>
<path d="M63.6695 40.1013L61.417 39.0175C61.0745 39.73 60.6932 40.4313 60.2832 41.1025L62.4157 42.4063C62.8682 41.6638 63.2907 40.8875 63.6695 40.1013Z" fill="#1D547D"/>
<path d="M16.9375 17.7475L19.2062 18.7975C19.535 18.085 19.9075 17.3787 20.31 16.6975L18.1575 15.425C17.7137 16.1775 17.3038 16.9587 16.9375 17.7475Z" fill="#1D547D"/>
<path d="M61.5098 17.1963C61.8948 17.8863 62.2498 18.6013 62.5635 19.3238L64.856 18.3275C64.5098 17.53 64.1173 16.7388 63.6923 15.9775L61.5098 17.1963Z" fill="#1D547D"/>
<path d="M23.118 12.8775L21.263 11.2025C20.678 11.85 20.1205 12.535 19.6055 13.2363L21.6192 14.7175C22.0855 14.0825 22.5892 13.4638 23.118 12.8775Z" fill="#1D547D"/>
<path d="M58.793 13.3087C59.308 13.9087 59.7967 14.54 60.248 15.185L62.298 13.7525C61.8005 13.04 61.2592 12.3425 60.6917 11.68L58.793 13.3087Z" fill="#1D547D"/>
<path d="M26.6283 9.68749L25.1395 7.67874C24.4395 8.19749 23.7583 8.75749 23.1133 9.34374L24.7945 11.1937C25.3783 10.665 25.9958 10.1575 26.6283 9.68749Z" fill="#1D547D"/>
<path d="M58.8858 9.7775C58.2533 9.17375 57.5858 8.5975 56.9008 8.06375L55.3633 10.035C55.9833 10.5175 56.587 11.04 57.1595 11.5863L58.8858 9.7775Z" fill="#1D547D"/>
<path d="M30.7017 7.25499L29.6392 4.99249C28.853 5.36124 28.073 5.77499 27.3242 6.22374L28.6067 8.36999C29.2842 7.96374 29.9892 7.58999 30.7017 7.25499Z" fill="#1D547D"/>
<path d="M54.7555 6.55499C54.0167 6.08874 53.248 5.65624 52.4692 5.26749L51.3555 7.50499C52.058 7.85499 52.7542 8.24624 53.4217 8.66749L54.7555 6.55499Z" fill="#1D547D"/>
<path d="M34.5846 3.255C33.7346 3.46 32.8884 3.71125 32.0684 3.99875L32.8984 6.35625C33.6384 6.09625 34.4046 5.87 35.1721 5.68375L34.5846 3.255Z" fill="#1D547D"/>
<path d="M46.9219 5.82751C47.6806 6.02875 48.4394 6.27375 49.1781 6.55375L50.0631 4.215C49.2456 3.90625 48.4044 3.635 47.5644 3.41125L46.9219 5.82751Z" fill="#1D547D"/>
<path d="M39.7759 2.54001C38.9034 2.57251 38.0234 2.64876 37.1621 2.76751L37.5046 5.24376C38.2834 5.13626 39.0784 5.06751 39.8684 5.03876L39.7759 2.54001Z" fill="#1D547D"/>
<path d="M42.3965 2.57251L42.2402 5.06751C43.0327 5.11751 43.8277 5.20501 44.6015 5.33126L45.0002 2.86376C44.1465 2.72501 43.2702 2.62751 42.3965 2.57251Z" fill="#1D547D"/>
<path d="M69.8821 63.9875L77.0734 53.7137C77.8334 52.6287 77.5509 51.13 76.4484 50.3962C75.4546 49.7337 74.1234 49.9175 73.3459 50.8237L71.0284 53.5275L71.2234 51.8087C71.4171 50.6437 70.5184 49.5825 69.3371 49.5825C68.4596 49.5825 67.6946 50.18 67.4821 51.0312L66.6271 54.45C66.6046 54.5387 66.5734 54.6237 66.5321 54.7062L64.3409 59.0875L58.7509 61.25L61.0009 58.3887C61.7796 56.8312 60.6471 55 58.9059 55C58.1459 55 57.4334 55.3687 56.9946 55.9887L50.8884 62.3887C47.5659 67.065 49.1796 72.2087 48.9096 77.5H60.0009C59.9034 76.5975 59.8034 75.695 59.7384 74.79C59.5484 72.1475 62.7596 70.3175 64.5296 68.7687C66.1796 67.325 67.8309 65.88 69.4809 64.4362C69.6321 64.3037 69.7671 64.1525 69.8821 63.9875Z" fill="#1D547D"/>
<path d="M31.0902 77.5C30.8202 72.2087 32.434 67.065 29.1115 62.3887C29.1102 62.3862 23.0052 55.9887 23.0052 55.9887C22.5665 55.3687 21.854 55 21.0952 55C19.354 55 18.2227 56.8312 19.0014 58.3887L21.2502 61.25L15.6577 59.0875L13.4664 54.7062C13.4252 54.625 13.3939 54.5387 13.3714 54.45L12.5164 51.0312C12.3039 50.18 11.539 49.5825 10.6615 49.5825C9.4802 49.5825 8.58145 50.6437 8.7752 51.8087L8.9702 53.5275L6.65395 50.825C5.87645 49.9187 4.5452 49.735 3.55145 50.3975C2.44895 51.1325 2.1677 52.63 2.92645 53.715L10.1177 63.9887C10.2327 64.1537 10.3677 64.3037 10.519 64.4362C12.169 65.88 13.8202 67.325 15.4702 68.7687C17.2402 70.3175 20.4515 72.1475 20.2614 74.79C20.1977 75.695 20.0977 76.5975 20.0002 77.5H31.0902Z" fill="#1D547D"/>
<path d="M24.5112 35L24.4875 33.79L21.4738 29.465C21.175 29.035 21.1738 28.465 21.4738 28.0363L24.4875 23.71L24.5112 22.5H3.75L7.5 28.75L3.75 35H24.5112Z" fill="#1D547D"/>
</svg>
