<svg width="74" height="76" viewBox="0 0 74 76" fill="none" xmlns="http://www.w3.org/2000/svg">
<path d="M55.4375 0.65625H3.8125C1.78125 0.65625 0.125 2.3125 0.125 4.34375V15.4062C0.125 17.4375 1.78125 19.0938 3.8125 19.0938H55.4375C57.4688 19.0938 59.125 17.4375 59.125 15.4062V4.34375C59.125 2.3125 57.4688 0.65625 55.4375 0.65625ZM55.4375 22.7812H3.8125C1.78125 22.7812 0.125 24.4375 0.125 26.4688V37.5312C0.125 39.5625 1.78125 41.2188 3.8125 41.2188H50.0938C52.5 38.8125 59.125 39.5625 59.125 37.5312V26.4688C59.125 24.4375 57.4688 22.7812 55.4375 22.7812ZM48.8125 44.9062H3.8125C1.78125 44.9062 0.125 46.5625 0.125 48.5938V59.6562C0.125 61.6875 1.78125 63.3438 3.8125 63.3438H55.4375C57.4688 63.3438 59.125 61.6875 59.125 59.6562V55.2188C59.125 49.5312 54.5 44.9062 48.8125 44.9062Z" fill="#CDC1DF"/>
<path d="M70.1875 33.8438H44.375C42.3438 33.8438 40.6875 35.5 40.6875 37.5313V59.2813C40.6875 61.6875 41.7812 63.7188 43.625 65.1875L57.2812 75.3438L70.9375 65.1875C72.7812 63.7188 73.875 61.6875 73.875 59.2813V37.5313C73.875 35.5 72.2187 33.8438 70.1875 33.8438Z" fill="#0F9083"/>
</svg>
