<svg width="64" height="58" viewBox="0 0 64 58" fill="none" xmlns="http://www.w3.org/2000/svg">
<path d="M26.334 14.5191H42.6865V16.9327H26.334V14.5191Z" fill="#1C5540"/>
<path d="M26.334 22.4102H35.1747V24.8237H26.334V22.4102Z" fill="#1C5540"/>
<path d="M26.334 30.3014H31.4052V32.7149H26.334V30.3014Z" fill="#1C5540"/>
<path d="M48.8136 54.7627C49.9525 53.3254 51.9593 50.6949 53.939 47.739C58.0339 41.6102 60.122 36.9729 60.122 33.9898C60.122 26.722 54.2102 20.8102 46.9424 20.8102C39.6746 20.8102 33.7627 26.722 33.7627 33.9898C33.7627 36.9729 35.8509 41.6102 39.9458 47.739C41.9254 50.6949 43.9322 53.3254 45.0712 54.7627H38.2644H31.2949V47.6305H36.3932V45.2169H28.9085V54.7627H23.7559V20.539V7.98305H37.6949H45.2339V18.5322H47.6475V5.59661H37.6949V0.82373H21.3695V5.59661V8.01017V15.7661H6.99661V20.539H3.87797V54.7627H0V57.1763H3.85085H21.3695H23.7831H28.9356H38.3186H46.5085H64V54.7627H48.8136ZM23.7831 3.21017H35.3356V5.56949H23.7831V3.21017ZM18.9288 50.1254H8.70508V47.7119H18.9288V50.1254ZM18.9288 43.3458H8.70508V40.9322H18.9288V43.3458ZM18.9288 36.5661H8.70508V34.1525H18.9288V36.5661ZM18.9288 29.9763H8.70508V27.5627H18.9288V29.9763ZM20.9627 20.539H9.41017V18.1525H20.9627V20.539ZM42.3593 33.6915C42.3593 31.1695 44.4203 29.0814 46.9424 29.0814C49.4644 29.0814 51.5525 31.1424 51.5525 33.6915C51.5525 36.2136 49.4915 38.3017 46.9424 38.3017C44.3932 38.3017 42.3593 36.2136 42.3593 33.6915Z" fill="#1C5540"/>
</svg>
