<svg width="32" height="32" viewBox="0 0 32 32" fill="none" xmlns="http://www.w3.org/2000/svg">
<path d="M19 19C18.4 19 18 19.4 18 20V22H6V5C6 4.4 6.4 4 7 4H11C11.6 4 12 3.6 12 3C12 2.4 11.6 2 11 2H7C5.3 2 4 3.3 4 5V27C4 28.7 5.3 30 7 30H17C18.7 30 20 28.7 20 27V20C20 19.4 19.6 19 19 19ZM13 27H11C10.4 27 10 26.6 10 26C10 25.4 10.4 25 11 25H13C13.6 25 14 25.4 14 26C14 26.6 13.6 27 13 27Z" fill="#51596C"/>
<path d="M27 4H15C13.3 4 12 5.3 12 7V20C12 20.4 12.2 20.7 12.6 20.9C12.7 21 12.9 21 13 21C13.2 21 13.5 20.9 13.6 20.8C16.4 18.4 20 17.1 23.7 17.1H27C28.7 17.1 30 15.8 30 14.1V7C30 5.3 28.7 4 27 4ZM19 14H17C16.4 14 16 13.6 16 13C16 12.4 16.4 12 17 12H19C19.6 12 20 12.4 20 13C20 13.6 19.6 14 19 14ZM21 10H17C16.4 10 16 9.6 16 9C16 8.4 16.4 8 17 8H21C21.6 8 22 8.4 22 9C22 9.6 21.6 10 21 10Z" fill="#51596C"/>
</svg>
