<svg width="70" height="53" viewBox="0 0 70 53" fill="none" xmlns="http://www.w3.org/2000/svg">
<path d="M69 8C68.25 7.5 67.5 7.25 66.75 7.75C56 11.25 45 8.5 36.75 0.75C35.75 -0.25 34.25 -0.25 33.25 0.75C25 8.5 14 11.25 3.25 7.75C2.5 7.25 1.75 7.5 1 8C0.5 8.5 0 9.25 0 10C0 30.25 4.5 43.5 11.25 52.5C17.75 46 26 42.5 35 42.5C43.75 42.5 52.25 46.25 58.75 52.5C65.5 43.25 70 30 70 10C70 9.25 69.5 8.5 69 8ZM35 37.5C28 37.5 22.5 32 22.5 25C22.5 18 28 12.5 35 12.5C42 12.5 47.5 18 47.5 25C47.5 32 42 37.5 35 37.5Z" fill="#1D547D"/>
</svg>
