<svg width="21" height="17" viewBox="0 0 21 17" fill="none" xmlns="http://www.w3.org/2000/svg">
<g clip-path="url(#clip0_525_373)">
<path d="M10.2189 15.9802C10.3103 16.4452 10.5501 16.7438 10.8781 16.8956C11.1457 17.0196 11.4557 17.031 11.7788 16.9462C12.0594 16.8727 12.3547 16.7226 12.637 16.5072C13.4022 15.9248 14.1185 14.8267 14.2099 13.4545C14.2376 13.0319 14.2311 12.5815 14.1903 12.1018C14.1642 11.7853 14.1234 11.4524 14.068 11.1065H17.3231L17.3377 11.1049C17.8664 11.0837 18.3787 10.9548 18.8111 10.7296C19.1848 10.5338 19.4997 10.2662 19.7183 9.93339C19.9435 9.59075 20.0658 9.18284 20.0479 8.71619C20.0348 8.37028 19.9418 7.99501 19.7526 7.59363C19.8603 7.1433 19.9108 6.66033 19.8407 6.23611C19.7819 5.87552 19.6416 5.55572 19.3903 5.3175C19.4034 4.72195 19.3234 4.22267 19.1635 3.79029C18.9988 3.34648 18.7524 2.97773 18.4358 2.65141C18.4081 2.36587 18.3624 2.09339 18.2906 1.83885C18.2009 1.51905 18.0687 1.22536 17.8843 0.965928C17.3296 0.182743 16.8858 0.200691 16.1826 0.23006C16.0847 0.233324 15.9802 0.238219 15.8171 0.238219H9.45043C8.87772 0.238219 8.42739 0.321432 8.01622 0.527018C7.60831 0.730972 7.26241 1.04425 6.89202 1.50763L6.79739 1.77848V9.20568L7.12045 9.29216C7.94116 9.51406 8.58729 10.2157 9.08984 11.056C9.60543 11.9207 9.96766 12.9323 10.214 13.7498V15.897L10.2189 15.9802ZM0.652654 9.98071H5.39745C5.75641 9.98071 6.0501 9.68701 6.0501 9.32805V0.652654C6.0501 0.293694 5.75641 0 5.39745 0L0.652654 0C0.293694 0 0 0.293694 0 0.652654L0 9.32805C0 9.68701 0.293694 9.98071 0.652654 9.98071ZM11.242 16.1075C11.1718 16.0749 11.1147 15.9933 11.0804 15.853V13.6878L11.0609 13.5638C10.7982 12.6876 10.4066 11.5781 9.82897 10.6105C9.28563 9.7017 8.58077 8.92015 7.66216 8.55955V1.93349C7.91343 1.6349 8.14512 1.43257 8.39965 1.30531C8.6803 1.16499 9.00989 1.10951 9.44716 1.10951H15.8138C15.928 1.10951 16.0765 1.10298 16.2136 1.09809C16.6313 1.08177 16.8939 1.07035 17.1762 1.46847V1.4701C17.2986 1.64306 17.3883 1.84701 17.452 2.07544C17.5205 2.32018 17.5613 2.5894 17.5809 2.8782L17.7147 3.16374C17.9953 3.4297 18.209 3.72828 18.3461 4.0954C18.4864 4.47394 18.5468 4.92917 18.5125 5.50024L18.4978 5.75804L18.7165 5.89346C18.8666 5.98647 18.9482 6.16268 18.9824 6.37806C19.0379 6.71907 18.9792 7.14003 18.8731 7.52999L18.9074 7.84327C19.0836 8.18102 19.1684 8.48287 19.1799 8.74719C19.1897 9.02131 19.1195 9.25953 18.989 9.45695C18.8519 9.66417 18.6512 9.83386 18.4081 9.96113C18.0948 10.1243 17.7163 10.2206 17.3214 10.2369V10.2352H13.027L13.1232 10.7492C13.2162 11.2469 13.2831 11.7217 13.3223 12.172C13.3598 12.6125 13.3663 13.0221 13.3419 13.3941C13.2685 14.4905 12.7072 15.3586 12.1084 15.8138C11.9175 15.959 11.7282 16.0585 11.5569 16.1026C11.428 16.1401 11.3203 16.1434 11.242 16.1075Z" fill="white"/>
</g>
<defs>
<clipPath id="clip0_525_373">
<rect width="20.0495" height="17" fill="white"/>
</clipPath>
</defs>
</svg>
