<svg width="20" height="20" viewBox="0 0 20 20" fill="none" xmlns="http://www.w3.org/2000/svg">
<path d="M7.24235 2.72656C7.03922 2.8125 7.04704 2.67969 7.04704 5.6875V8.45312H6.05485C5.23454 8.45312 5.03922 8.46094 4.95329 8.50781C4.8361 8.5625 4.78922 8.69531 4.82047 8.82031C4.82829 8.86719 5.96891 10.0313 7.35172 11.4141C9.7111 13.7656 9.87516 13.9219 9.99235 13.9219C10.1095 13.9219 10.2658 13.7656 12.633 11.4062C14.0158 10.0234 15.1564 8.85938 15.1642 8.8125C15.2033 8.67969 15.1486 8.55469 15.0314 8.5C14.9455 8.45313 14.7502 8.44531 13.9298 8.44531H12.9377V5.6875V2.91406L12.8517 2.8125L12.7658 2.71094L10.0314 2.70312C8.54704 2.70312 7.28141 2.71094 7.24235 2.72656Z" fill="white"/>
<path d="M0.875 11.5L0.78125 11.5859V14.3438V17.1016L0.867188 17.2031L0.953125 17.3047H10H19.0469L19.1328 17.2031L19.2188 17.1016V14.3438V11.5859L19.125 11.5L19.0391 11.4062H18.0625H17.0859L17 11.5L16.9062 11.5859V13.2969V15.0078H10H3.08594V13.2969V11.5859L2.99219 11.5L2.90625 11.4062H1.9375H0.960938L0.875 11.5Z" fill="white"/>
</svg>
