<svg width="20" height="20" viewBox="0 0 20 20" fill="none" xmlns="http://www.w3.org/2000/svg">
<path d="M7.00432 0.0381428C6.05518 0.142591 5.26706 0.386302 4.32639 0.856318C2.75014 1.65708 1.55524 2.89305 0.784069 4.5207C0.38577 5.35628 0.148485 6.19186 0.0383174 7.10578C-0.0379526 7.74117 0.00441964 8.95103 0.123062 9.56901C0.521361 11.5796 1.68236 13.4336 3.26708 14.5825L3.60606 14.8262L3.62301 17.0457C3.63996 19.2217 3.63996 19.274 3.73318 19.448C3.95351 19.8658 4.42808 20.0834 4.85181 19.9703C4.9535 19.9442 6.16535 19.1434 7.82634 18.0032L10.6314 16.0796H11.6314C13.0381 16.0796 13.733 15.9839 14.6737 15.6618C18.1906 14.452 20.4109 10.805 19.9363 7.02745C19.4618 3.29343 16.5804 0.429822 12.9195 0.0468468C12.3856 -0.0140812 7.53821 -0.0140811 7.00432 0.0381428ZM13.1568 2.10969C15.4449 2.51008 17.2754 4.25958 17.8516 6.59225C18.0889 7.54098 18.0889 8.54194 17.8431 9.50808C17.5211 10.8311 16.7669 11.9974 15.6906 12.8243C14.8178 13.4945 13.8517 13.8862 12.7669 14.008C12.5297 14.0342 11.8432 14.0603 11.2246 14.0603C10.2331 14.0603 10.0805 14.0777 9.928 14.1473C9.82631 14.1908 8.82632 14.8697 7.69075 15.6444L5.62298 17.0544L5.59756 15.5312C5.57214 13.5903 5.63146 13.7382 4.63147 13.0854C3.30098 12.2063 2.36032 10.7789 2.04676 9.16863C1.92812 8.55935 1.94507 7.43653 2.07219 6.83596C2.33489 5.6174 2.83489 4.66867 3.66538 3.81567C4.52978 2.91916 5.61451 2.336 6.79246 2.1271C7.33482 2.02265 12.6144 2.02265 13.1568 2.10969Z" fill="white"/>
<path d="M5.10674 6.57482C4.64065 6.7315 4.2254 7.1754 4.12371 7.65412C4.06439 7.90654 4.08981 8.32433 4.18303 8.58545C4.31015 8.93361 4.56438 9.21213 4.91183 9.38621C5.16607 9.51677 5.24234 9.53418 5.54742 9.53418C5.95419 9.53418 6.25927 9.41233 6.55588 9.1425C7.30163 8.44618 7.11519 7.13188 6.19147 6.67057C5.90334 6.5139 5.39488 6.47908 5.10674 6.57482Z" fill="white"/>
<path d="M9.56332 6.56614C9.13112 6.74022 8.87689 6.95782 8.66503 7.37561C8.56334 7.5758 8.54639 7.65414 8.54639 8.0023C8.54639 8.35046 8.56334 8.4375 8.65655 8.6551C8.80062 8.97714 9.0718 9.25567 9.38536 9.40364C9.58874 9.49938 9.69044 9.51679 9.99552 9.51679C10.3091 9.51679 10.4023 9.49938 10.6057 9.39494C10.8938 9.25567 11.2243 8.90751 11.3514 8.61158C11.4955 8.28953 11.4785 7.72377 11.326 7.39302C11.0887 6.86208 10.6142 6.54003 10.0294 6.51392C9.84298 6.51392 9.65654 6.53132 9.56332 6.56614Z" fill="white"/>
<path d="M14.0301 6.56612C13.7335 6.67057 13.5979 6.76632 13.3606 7.01873C13.1911 7.21022 13.1149 7.34078 13.0471 7.56708C12.9454 7.91524 12.9369 8.05451 13.0216 8.39396C13.1318 8.84657 13.4538 9.22955 13.8606 9.42103C14.1742 9.569 14.725 9.5603 15.047 9.40363C15.386 9.24695 15.5725 9.05547 15.7504 8.73342C15.886 8.4723 15.8945 8.42878 15.8945 8.0284C15.8945 7.68024 15.8775 7.56708 15.8013 7.393C15.6826 7.12318 15.3521 6.78372 15.0725 6.64446C14.8013 6.52261 14.2928 6.47909 14.0301 6.56612Z" fill="white"/>
</svg>
