<svg width="64" height="64" viewBox="0 0 64 64" fill="none" xmlns="http://www.w3.org/2000/svg">
<path d="M24.875 2.5H26.9V4.525H24.875V2.5Z" fill="#45535E"/>
<path d="M28.9502 2.5H30.9752V4.525H28.9502V2.5Z" fill="#45535E"/>
<path d="M47.25 2.5V16.75H61.5V2.5H47.25ZM59.475 6.575V8.6V10.625V12.65V14.675H49.3V12.65V10.625V8.6V6.575V4.55H59.475V6.575Z" fill="#45535E"/>
<path d="M6.5752 8.60001V10.625V12.65H12.6752V10.625V8.60001V6.57501H6.5752V8.60001Z" fill="#45535E"/>
<path d="M39.1249 8.6H41.1499V6.575H43.1749V8.6H45.1999V6.575V4.55V2.5H43.1749V4.525H41.1499V2.5H39.1249V4.525H33.0249V6.55H39.1249V8.6Z" fill="#45535E"/>
<path d="M41.1499 10.65V12.675V14.7H43.1749V12.675V10.65V8.625H41.1499V10.65Z" fill="#45535E"/>
<path d="M33.0249 10.65H35.0499V12.675H33.0249V10.65Z" fill="#45535E"/>
<path d="M37.0749 12.675H39.0999V10.65V8.625H35.0249V10.65H37.0499V12.675H37.0749Z" fill="#45535E"/>
<path d="M57.4252 10.65V8.62498V6.59998H51.3252V8.62498V10.65V12.675H57.4252V10.65Z" fill="#45535E"/>
<path d="M26.9249 14.7V12.675H28.9499V10.65H33.0249V8.62498V6.59998H24.8749V8.62498H26.8999V10.65H18.7749V12.675H22.8499V14.7V16.75H24.8749V14.725H26.9249V14.7Z" fill="#45535E"/>
<path d="M33.0252 12.675H28.9502V14.7H30.9752V16.75H33.0002V14.725V12.675H33.0252Z" fill="#45535E"/>
<path d="M16.75 2.5H2.5V16.75H16.75V2.5ZM4.525 14.7V12.675V10.65V8.625V6.6V4.575H14.7V6.6V8.625V10.65V12.675V14.7H4.525Z" fill="#45535E"/>
<path d="M26.9248 14.7H28.9498V16.75H26.9248V14.7Z" fill="#45535E"/>
<path d="M39.1248 16.75H37.0998V14.725H35.0748V16.75H33.0498V18.775H41.1998V16.75V14.725H39.1748V16.75H39.1248Z" fill="#45535E"/>
<path d="M43.2002 14.7H45.2252V16.75H43.2002V14.7Z" fill="#45535E"/>
<path d="M24.875 16.75H26.9V18.775H24.875V16.75Z" fill="#45535E"/>
<path d="M30.9752 18.775V16.75H28.9502V18.775H26.9252V20.8H24.9002V18.775H20.8002V16.75V14.725H18.7752V16.75V18.775H14.7002V20.8H16.7502V22.825H20.8252V20.8H22.8502V22.825H24.8752V24.85H26.9002V22.825H30.9752V20.8V18.775Z" fill="#45535E"/>
<path d="M43.2002 18.775H49.3002V20.8H43.2002V18.775Z" fill="#45535E"/>
<path d="M12.6748 20.8H14.6998V22.825H12.6748V20.8Z" fill="#45535E"/>
<path d="M53.3502 20.8V18.775H51.3252V20.8V22.825H57.4252V20.8H53.3502Z" fill="#45535E"/>
<path d="M59.4751 20.8H61.5001V22.825H59.4751V20.8Z" fill="#45535E"/>
<path d="M8.6002 24.875H10.6252V22.85V20.825V18.8H6.5752V20.825H8.6002V22.85V24.875Z" fill="#45535E"/>
<path d="M14.7002 22.85H16.7502V24.875H14.7252V22.85H14.7002Z" fill="#45535E"/>
<path d="M57.4248 22.85H59.4498V24.875H57.4248V22.85Z" fill="#45535E"/>
<path d="M16.7502 26.925H14.7252V24.9H12.7002V26.925V28.95V30.975H14.7252V28.95H16.7502V30.975H18.7752V28.95V26.925H20.8002V28.95H24.8752V26.925V24.9H16.7502V26.925Z" fill="#45535E"/>
<path d="M47.2502 24.875H49.2752V22.85H45.2002V24.875V26.9V28.925H47.2252V26.9V24.875H47.2502Z" fill="#45535E"/>
<path d="M6.575 26.925V24.9V22.875H4.55V20.85H2.5V22.875V24.9V26.925V28.95H6.575V26.925Z" fill="#45535E"/>
<path d="M8.6001 26.925H10.6251V28.95H8.6001V26.925Z" fill="#45535E"/>
<path d="M55.3998 26.925V28.95H53.3748V30.975H51.3498V33H53.3748V35.025V37.05H51.3498V35.025H49.3248V33H47.2498V30.975H45.2248V33H43.1998V30.975V28.95H41.1748V30.975H39.1498V28.95H41.1748V26.925H43.1998V24.9H41.1748V22.875H39.1498V24.9H37.1248V22.875H39.1498V20.85H35.0748V22.875V24.9H32.9998V22.875H30.9748V24.9H28.9498V26.925H26.9248V28.95H32.9998V26.925H37.0748V28.95V30.975V33H41.1498V35.025V37.05H37.0748V35.025H35.0498V37.05H32.9998V39.075V41.1V43.125H35.0248V41.1V39.075H41.1248V41.1V43.125H43.1498V41.1V39.075H45.1748V37.05H47.1998V39.075V41.1H45.1748V43.125H43.1498V45.15V47.175H37.0498V45.15V43.125H35.0248V45.15H32.9998V47.175H35.0248V49.2H39.0998V51.225H43.1748V53.25V55.275H47.2498V53.25H51.3248V55.275H53.3498V57.3H57.4248V55.275H55.3998V53.25H57.4248V51.225H53.3498V49.2V47.25H55.3748V45.225H57.3998V43.2V41.175V39.15H55.3748V37.125V35.1V33V30.975H57.3998V28.95H59.4248V30.975V33H61.4498V30.975V28.95V26.925V24.9H59.4248V26.925H55.3998ZM51.3248 47.25V49.275V51.3H45.2248V49.275V47.25V45.225H51.3248V47.25ZM53.3498 41.15H51.3248V43.175H49.2998V41.15V39.125H53.3748V41.15H53.3498Z" fill="#45535E"/>
<path d="M6.5752 28.95H8.6002V30.975H6.5752V28.95Z" fill="#45535E"/>
<path d="M47.25 28.95H51.325V30.975H47.25V28.95Z" fill="#45535E"/>
<path d="M10.6499 30.975H12.6749V33H10.6499V30.975Z" fill="#45535E"/>
<path d="M14.7002 30.975H16.7502V33H14.7252V30.975H14.7002Z" fill="#45535E"/>
<path d="M22.8501 30.975H24.8751V33H22.8501V30.975Z" fill="#45535E"/>
<path d="M8.6 33.025H4.525V31H2.5V33.025V35.05H6.575V37.075H8.6V35.05V33.025Z" fill="#45535E"/>
<path d="M12.6748 35.05V37.075V39.1H14.6998V37.075H18.7748V39.1H20.7998V37.075V35.05V33.025H18.7748V35.05H14.6998V33.025H12.6748V35.05Z" fill="#45535E"/>
<path d="M59.4751 35.05H61.5001V37.075H59.4751V35.05Z" fill="#45535E"/>
<path d="M4.5249 37.075H6.5499V39.1H4.5249V37.075Z" fill="#45535E"/>
<path d="M2.5 39.125H4.525V41.15H2.5V39.125Z" fill="#45535E"/>
<path d="M14.7002 39.125H16.7502V41.15H14.7252V39.125H14.7002Z" fill="#45535E"/>
<path d="M28.9498 41.15H30.9748V39.125V37.1H32.9998V35.075V33.05H35.0248V31.025V29H32.9998V31.025H30.9748V33.05V35.075H28.9498V33.05V31.025H26.9248V33.05V35.075V37.1V39.125H28.9498V41.15Z" fill="#45535E"/>
<path d="M10.6499 41.15V39.125V37.1H8.6249V39.125V41.15V43.175H4.5249V45.2H16.7499V43.175H10.6499V41.15Z" fill="#45535E"/>
<path d="M37.0752 41.15H39.1002V43.175H37.0752V41.15Z" fill="#45535E"/>
<path d="M28.9499 43.2H26.9249V41.175V39.15H24.8999V37.125H22.8749V39.15V41.175H20.8499V43.2H24.9249V45.225H26.9499V47.25H24.9249V49.275H22.8999V51.3V53.325H18.7749V55.35V57.375H22.8499V59.4H24.8749V57.375V55.35V53.325H28.9499V55.35H39.1249V57.375H41.1499V55.35V53.325H35.0499V51.3H33.0249V53.325H30.9999V51.3V49.275V47.25V45.225H28.9749V43.2H28.9499ZM28.9499 51.325H26.9249V49.3H28.9499V51.325Z" fill="#45535E"/>
<path d="M30.9751 43.2H33.0001V45.225H30.9751V43.2Z" fill="#45535E"/>
<path d="M39.125 43.2H41.15V45.225H39.125V43.2Z" fill="#45535E"/>
<path d="M24.8749 47.25V45.225H20.7999V43.2H18.7749V45.225V47.25V49.275H22.8499V47.25H24.8749Z" fill="#45535E"/>
<path d="M2.5 61.5H16.75V47.25H2.5V61.5ZM14.7 49.3V51.325V53.35V55.375V57.4V59.425H4.525V57.4V55.375V53.35V51.325V49.3H14.7Z" fill="#45535E"/>
<path d="M47.25 47.25H49.275V49.275H47.25V47.25Z" fill="#45535E"/>
<path d="M55.3999 47.25V49.275H59.4749V47.25H61.4999V45.225V43.2H59.4749V45.225H57.4499V47.25H55.3999Z" fill="#45535E"/>
<path d="M59.4751 49.3H61.5001V51.325H59.4751V49.3Z" fill="#45535E"/>
<path d="M57.4248 53.35H59.4498V55.375H57.4248V53.35Z" fill="#45535E"/>
<path d="M12.6752 55.4V53.375V51.35H6.5752V53.375V55.4V57.425H12.6752V55.4Z" fill="#45535E"/>
<path d="M59.4751 55.4H61.5001V57.425H59.4751V55.4Z" fill="#45535E"/>
<path d="M28.9502 59.475V61.5H30.9752V59.475V57.45H28.9502V59.475Z" fill="#45535E"/>
<path d="M33.0249 57.425H37.0999V59.45H33.0249V57.425Z" fill="#45535E"/>
<path d="M41.1499 57.425H43.1749V59.45H41.1499V57.425Z" fill="#45535E"/>
<path d="M51.3252 57.425H53.3502V59.45H51.3252V57.425Z" fill="#45535E"/>
<path d="M57.4249 59.475H55.3999V61.5H59.4749V59.475V57.45H57.4499V59.475H57.4249Z" fill="#45535E"/>
<path d="M20.7998 59.475H22.8248V61.5H20.7998V59.475Z" fill="#45535E"/>
<path d="M39.125 59.475H41.15V61.5H39.125V59.475Z" fill="#45535E"/>
<path d="M47.2502 61.5V59.475V57.45H45.2252V59.475H43.2002V61.5H47.2502Z" fill="#45535E"/>
<path d="M49.2998 59.475H51.3248V61.5H49.2998V59.475Z" fill="#45535E"/>
</svg>
