<svg width="20" height="20" viewBox="0 0 20 20" fill="none" xmlns="http://www.w3.org/2000/svg">
<g clip-path="url(#clip0_525_396)">
<path d="M14.8516 0.890639C13.5859 1.27345 12.5391 2.95314 12.6953 4.32814L12.7656 4.89064L9.75781 6.38283L6.75 7.89064L5.95312 7.32814C5.24219 6.81252 5.03906 6.76564 4.03906 6.76564C3.10938 6.76564 2.8125 6.82814 2.24219 7.21095C1.19531 7.90627 0.78125 8.71876 0.78125 10.0313C0.78125 10.9297 0.867187 11.2266 1.22656 11.7891C2.33594 13.4688 4.48437 13.7969 6.14062 12.5391L6.70312 12.1094L9.71094 13.6172L12.7344 15.125L12.75 16.1016C12.75 17.2969 13.1953 18.125 14.1953 18.7735C14.7578 19.1563 15.0625 19.2188 15.9766 19.2188C16.8906 19.2188 17.1875 19.1563 17.7578 18.7735C18.8047 18.0938 19.2188 17.2813 19.2188 15.9688C19.2188 15.0703 19.1328 14.7735 18.7734 14.211C18.0938 13.1641 17.2812 12.75 15.9531 12.75C14.9766 12.75 14.7734 12.8203 14.0625 13.3125L13.2656 13.875L10.2578 12.3828L7.26562 10.8906V10.0078V9.12502L10.2578 7.63283L13.2656 6.14064L14.0625 6.70314C14.7734 7.21877 14.9766 7.26564 15.9766 7.26564C16.9062 7.26564 17.2031 7.19533 17.7734 6.82033C18.8047 6.14064 19.2344 5.32814 19.2344 4.03126C19.2344 2.75001 18.8047 1.92189 17.8203 1.27345C17.0938 0.796889 15.7344 0.625014 14.8516 0.890639Z" fill="white"/>
</g>
<defs>
<clipPath id="clip0_525_396">
<rect width="20" height="20" fill="white"/>
</clipPath>
</defs>
</svg>
