<svg width="24" height="24" viewBox="0 0 24 24" fill="none" xmlns="http://www.w3.org/2000/svg">
<path d="M10.3967 4.99686C9.55294 6.96561 8.83107 8.59686 8.79357 8.64374C8.75607 8.69061 7.49044 8.83124 4.94982 9.08436C2.86857 9.29061 1.07794 9.47811 0.984191 9.49686C0.815441 9.53436 0.899815 9.60936 3.80607 12.0937C5.85919 13.8469 6.79669 14.6812 6.79669 14.7562C6.80607 14.8219 6.41232 16.5937 5.93419 18.7125C5.45607 20.8312 5.07169 22.5656 5.09044 22.575C5.09982 22.5844 6.63732 21.6562 8.51232 20.5125C10.3873 19.3687 11.9436 18.4312 11.9717 18.4312C11.9998 18.4312 13.5561 19.3687 15.4311 20.5125C17.2967 21.6562 18.8436 22.5844 18.8529 22.575C18.8623 22.5656 18.4779 20.8219 18.0092 18.7125C17.5311 16.5937 17.1373 14.8125 17.1467 14.7562C17.1467 14.6812 18.0842 13.8375 20.1373 12.0937C21.7779 10.6875 23.0998 9.52499 23.0717 9.51561C23.0342 9.50624 21.2436 9.30936 19.0779 9.09374L15.1498 8.69061L13.5654 5.06249C12.7029 3.06561 11.9811 1.42499 11.9623 1.42499C11.9436 1.42499 11.2404 3.03749 10.3967 4.99686Z" fill="#CED4DA"/>
</svg>
