<svg width="15" height="20" viewBox="0 0 15 20" fill="none" xmlns="http://www.w3.org/2000/svg">
<path d="M4.08599 9.98305L4.20463 9.63559L5.29785 6.52542C5.55209 5.79661 6.247 5.30508 7.02667 5.30508C7.80633 5.30508 8.49277 5.79661 8.75548 6.52542L9.8487 9.63559L9.96734 9.98305L10.5521 9.99153L11.2555 10.0085V0.70339C11.2555 0.516949 11.1792 0.338983 11.0521 0.20339C10.9165 0.0677966 10.7385 0 10.5521 0H3.50124C3.11141 0 2.79785 0.313559 2.79785 0.70339V10.0085L3.50124 9.99153L4.08599 9.98305Z" fill="white"/>
<path d="M13.6462 11.4661L11.2564 11.4152L10.553 11.3983L9.84958 11.3813L9.24788 11.3729L8.96822 11.3644L8.81568 10.9407L7.42585 6.99151C7.36653 6.82202 7.20551 6.71185 7.02754 6.71185C6.84958 6.71185 6.68856 6.82202 6.62924 6.99151L5.23941 10.9407L5.08686 11.3644L4.8072 11.3729L4.20551 11.3813L3.50212 11.3983L2.79873 11.4152L0.408898 11.4661C0.230932 11.4661 0.0699153 11.5847 0.0190678 11.7542C-0.0317797 11.9237 0.0190677 12.1102 0.17161 12.2203L3.90042 15.0169L2.54449 19.4491C2.49364 19.6186 2.55297 19.8051 2.69703 19.9152C2.73093 19.9407 2.77331 19.9661 2.81568 19.9746C2.83263 19.9746 2.8411 19.9746 2.85805 19.983C2.88347 19.9915 2.91737 19.9915 2.9428 19.9915C2.96822 19.9915 2.99364 19.983 3.01907 19.983C3.03602 19.983 3.04449 19.983 3.06144 19.9746C3.10381 19.9661 3.13771 19.9407 3.18008 19.9152L7.02754 17.2712L10.875 19.9237C10.9428 19.9746 11.0275 20 11.1123 20C11.197 20 11.2903 19.9746 11.3581 19.9152C11.5021 19.8051 11.5614 19.6271 11.5106 19.4491L10.1547 15.0169L13.8835 12.2203C14.0275 12.1102 14.0869 11.9237 14.036 11.7542C13.9852 11.5847 13.8242 11.4746 13.6462 11.4661Z" fill="white"/>
</svg>
