<svg width="20" height="17" viewBox="0 0 20 17" fill="none" xmlns="http://www.w3.org/2000/svg">
<g clip-path="url(#clip0_525_369)">
<path fill-rule="evenodd" clip-rule="evenodd" d="M19.0335 7.14184H14.6522C14.2983 7.14184 14.0084 7.43168 14.0084 7.78718V16.356C14.0084 16.7099 14.2983 17.0014 14.6522 17.0014H19.0335C19.3874 17.0014 19.6772 16.7115 19.6772 16.356V7.78718C19.6772 7.43168 19.3874 7.14184 19.0335 7.14184ZM9.57909 0.71399C9.23961 -1.00747 6.42122 0.577875 6.23546 3.35303C6.17941 4.20174 6.26749 5.18978 6.47567 6.29312H2.44826C0.773235 6.35877 -0.688803 7.55819 0.34407 9.52786C0.108671 10.3862 0.0734425 11.3934 0.712383 11.7906C0.632317 13.1453 1.00703 13.9844 1.70843 14.6474C1.75487 15.3248 1.89899 15.9269 2.22566 16.3897C2.76692 17.1535 3.2057 16.971 4.05762 16.971H10.8586C11.9363 16.971 12.524 16.6747 13.2286 15.7908V8.21635C11.2013 7.66868 10.1236 4.89513 9.57909 3.07439V0.71399Z" fill="white"/>
</g>
<defs>
<clipPath id="clip0_525_369">
<rect width="19.6775" height="17" fill="white" transform="matrix(-1 0 0 1 19.6772 0)"/>
</clipPath>
</defs>
</svg>
