<svg width="42" height="42" viewBox="0 0 42 42" fill="none" xmlns="http://www.w3.org/2000/svg">
<rect x="0.5" y="0.5" width="41" height="41" rx="7.5" fill="white"/>
<rect x="0.5" y="0.5" width="41" height="41" rx="7.5" stroke="#A2ACC7"/>
<g clip-path="url(#clip0_172_241)">
<path d="M15.9469 14.4172C15.9469 15.268 15.2594 15.9555 14.4086 15.9555H12.3977C11.5469 15.9555 10.8594 15.268 10.8594 14.4172V12.4063C10.8594 11.5555 11.5469 10.868 12.3977 10.868H14.4086C15.2594 10.868 15.9469 11.5555 15.9469 12.4063V14.4172Z" fill="#232323"/>
<path d="M23.5438 14.4172C23.5438 15.268 22.8563 15.9555 22.0055 15.9555H19.9946C19.1438 15.9555 18.4563 15.268 18.4563 14.4172V12.4063C18.4563 11.5555 19.1438 10.868 19.9946 10.868H22.0055C22.8563 10.868 23.5438 11.5555 23.5438 12.4063V14.4172Z" fill="#232323"/>
<path d="M31.1406 14.4172C31.1406 15.268 30.4531 15.9555 29.6023 15.9555H27.5914C26.7406 15.9555 26.0531 15.268 26.0531 14.4172V12.4063C26.0531 11.5555 26.7406 10.868 27.5914 10.868H29.6023C30.4531 10.868 31.1406 11.5555 31.1406 12.4063V14.4172Z" fill="#232323"/>
<path d="M15.9469 22.0055C15.9469 22.8563 15.2594 23.5438 14.4086 23.5438H12.3977C11.5469 23.5438 10.8594 22.8563 10.8594 22.0055V19.9945C10.8594 19.1438 11.5469 18.4563 12.3977 18.4563H14.4086C15.2594 18.4563 15.9469 19.1438 15.9469 19.9945V22.0055Z" fill="#232323"/>
<path d="M23.5438 22.0055C23.5438 22.8563 22.8563 23.5438 22.0055 23.5438H19.9946C19.1438 23.5438 18.4563 22.8563 18.4563 22.0055V19.9945C18.4563 19.1438 19.1438 18.4563 19.9946 18.4563H22.0055C22.8563 18.4563 23.5438 19.1438 23.5438 19.9945V22.0055Z" fill="#232323"/>
<path d="M31.1406 22.0055C31.1406 22.8563 30.4531 23.5438 29.6023 23.5438H27.5914C26.7406 23.5438 26.0531 22.8563 26.0531 22.0055V19.9945C26.0531 19.1438 26.7406 18.4563 27.5914 18.4563H29.6023C30.4531 18.4563 31.1406 19.1438 31.1406 19.9945V22.0055Z" fill="#232323"/>
<path d="M15.9469 29.5938C15.9469 30.4446 15.2594 31.1321 14.4086 31.1321H12.3977C11.5469 31.1321 10.8594 30.4446 10.8594 29.5938V27.5828C10.8594 26.7321 11.5469 26.0446 12.3977 26.0446H14.4086C15.2594 26.0446 15.9469 26.7321 15.9469 27.5828V29.5938Z" fill="#232323"/>
<path d="M23.5438 29.5938C23.5438 30.4446 22.8563 31.1321 22.0055 31.1321H19.9946C19.1438 31.1321 18.4563 30.4446 18.4563 29.5938V27.5828C18.4563 26.7321 19.1438 26.0446 19.9946 26.0446H22.0055C22.8563 26.0446 23.5438 26.7321 23.5438 27.5828V29.5938Z" fill="#232323"/>
<path d="M31.1406 29.5938C31.1406 30.4446 30.4531 31.1321 29.6023 31.1321H27.5914C26.7406 31.1321 26.0531 30.4446 26.0531 29.5938V27.5828C26.0531 26.7321 26.7406 26.0446 27.5914 26.0446H29.6023C30.4531 26.0446 31.1406 26.7321 31.1406 27.5828V29.5938Z" fill="#232323"/>
</g>
<defs>
<clipPath id="clip0_172_241">
<rect width="22" height="22" fill="white" transform="translate(10 10)"/>
</clipPath>
</defs>
</svg>
