<svg width="42" height="42" viewBox="0 0 42 42" fill="none" xmlns="http://www.w3.org/2000/svg">
<rect x="0.5" y="0.5" width="41" height="41" rx="7.5" fill="white"/>
<rect x="0.5" y="0.5" width="41" height="41" rx="7.5" stroke="#A2ACC7"/>
<g clip-path="url(#clip0_172_254)">
<path d="M15.9297 14.4344C15.9297 15.2766 15.2422 15.9641 14.4 15.9641H12.3891C11.5469 15.9641 10.8594 15.2766 10.8594 14.4344V12.432C10.8594 11.5898 11.5469 10.9023 12.3891 10.9023H14.3914C15.2336 10.9023 15.9211 11.5898 15.9211 12.432V14.4344H15.9297Z" fill="#232323"/>
<path d="M15.9297 22.0055C15.9297 22.8477 15.2422 23.5352 14.4 23.5352H12.3891C11.5469 23.5352 10.8594 22.8477 10.8594 22.0055V20.0031C10.8594 19.161 11.5469 18.4734 12.3891 18.4734H14.3914C15.2336 18.4734 15.9211 19.161 15.9211 20.0031V22.0055H15.9297Z" fill="#232323"/>
<path d="M15.9297 29.568C15.9297 30.4102 15.2422 31.0977 14.4 31.0977H12.3891C11.5469 31.0977 10.8594 30.4102 10.8594 29.568V27.5656C10.8594 26.7234 11.5469 26.0359 12.3891 26.0359H14.3914C15.2336 26.0359 15.9211 26.7234 15.9211 27.5656V29.568H15.9297Z" fill="#232323"/>
<path d="M31.1406 13.4547C31.1406 13.9187 30.7625 14.2969 30.2984 14.2969H18.4477C17.9836 14.2969 17.6055 13.9187 17.6055 13.4547C17.6055 12.9906 17.9836 12.6125 18.4477 12.6125H30.2984C30.7625 12.6125 31.1406 12.9906 31.1406 13.4547Z" fill="#232323"/>
<path d="M31.1406 21C31.1406 21.4641 30.7625 21.8422 30.2984 21.8422H18.4477C17.9836 21.8422 17.6055 21.4641 17.6055 21C17.6055 20.5359 17.9836 20.1578 18.4477 20.1578H30.2984C30.7625 20.1578 31.1406 20.5359 31.1406 21Z" fill="#232323"/>
<path d="M31.1406 28.7344C31.1406 29.1984 30.7625 29.5766 30.2984 29.5766H18.4477C17.9836 29.5766 17.6055 29.1984 17.6055 28.7344C17.6055 28.2703 17.9836 27.8922 18.4477 27.8922H30.2984C30.7625 27.9008 31.1406 28.2703 31.1406 28.7344Z" fill="#232323"/>
</g>
<defs>
<clipPath id="clip0_172_254">
<rect width="22" height="22" fill="white" transform="translate(10 10)"/>
</clipPath>
</defs>
</svg>
