<svg width="42" height="43" viewBox="0 0 42 43" fill="none" xmlns="http://www.w3.org/2000/svg">
<path d="M19.4906 1.85097C14.9461 2.27753 10.8609 4.09862 7.64531 7.15019C4.57734 10.0705 2.59219 13.7619 1.8375 17.9619C1.65703 18.9135 1.64062 19.3236 1.64062 21.1939C1.64062 23.5236 1.72266 24.2455 2.18203 26.0994C3.05156 29.5119 5.00391 32.826 7.62891 35.3197C10.5328 38.076 14.175 39.8642 18.2273 40.4877C19.5727 40.701 22.4273 40.701 23.7727 40.4877C27.0867 39.9791 30.1055 38.6994 32.7469 36.7142C36.1594 34.1385 38.7844 30.2174 39.818 26.0994C40.3102 24.1963 40.3594 23.6057 40.3594 21.2432C40.3594 18.8642 40.2938 18.29 39.818 16.3869C38.9484 12.958 37.0125 9.67675 34.3875 7.16659C31.5 4.41034 27.825 2.60565 23.8219 2.01503C23.0016 1.88378 20.2453 1.78534 19.4906 1.85097ZM22.7555 5.00097C29.0883 5.69003 34.5187 10.0705 36.5039 16.0916C39.7359 25.9189 33.2391 36.1728 22.9852 37.4525C13.7484 38.601 5.38125 31.6939 4.725 22.3588C4.2 15.0252 8.72812 8.20019 15.6844 5.78847C16.6852 5.44394 18.1781 5.083 19.1133 4.98456C20.0648 4.90253 21.8039 4.90253 22.7555 5.00097Z" fill="white"/>
<path d="M16.2914 14.5332C15.7828 14.8121 15.7992 14.6316 15.7992 21.391C15.7992 27.3465 15.8156 27.5598 15.9633 27.8223C16.1765 28.1668 16.5867 28.3801 16.9312 28.3308C17.0789 28.298 19.4086 27.0183 22.0992 25.4598C28.2023 21.9324 27.9234 22.1129 28.0383 21.8504C28.2187 21.4566 28.1695 20.9973 27.907 20.7184C27.7758 20.5871 25.2984 19.1105 22.4109 17.4371C16.8 14.1887 16.8492 14.2215 16.2914 14.5332Z" fill="white"/>
</svg>
