<svg width="41" height="42" viewBox="0 0 41 42" fill="none" xmlns="http://www.w3.org/2000/svg">
<path d="M28.1513 16.4605L20.6562 23.9555L13.1612 16.4605L11.0199 18.6018L18.5366 26.0752L18.5149 26.0969L20.6536 28.1798L22.7976 26.0969L22.774 26.0732L30.2926 18.6018L28.1513 16.4605ZM20.6562 0.399414C9.42059 0.399414 0.3125 9.50751 0.3125 20.7432C0.3125 31.9788 9.42059 41.0869 20.6562 41.0869C31.8919 41.0869 41 31.9788 41 20.7432C41 9.50751 31.8919 0.399414 20.6562 0.399414ZM20.6562 38.9456C10.6032 38.9456 2.45384 30.7963 2.45384 20.7432C2.45384 10.6907 10.6032 2.54076 20.6562 2.54076C30.7093 2.54076 38.8587 10.6907 38.8587 20.7432C38.8587 30.7963 30.7093 38.9456 20.6562 38.9456Z" fill="#232323"/>
</svg>
