<svg width="42" height="42" viewBox="0 0 42 42" fill="none" xmlns="http://www.w3.org/2000/svg">
<path d="M28.7368 16.5792L21 24.316L13.2632 16.5792L11.0528 18.7896L18.8119 26.504L18.7896 26.5264L20.9973 28.6765L23.2104 26.5264L23.186 26.502L30.9472 18.7896L28.7368 16.5792ZM21 0C9.4019 0 0 9.4019 0 21C0 32.5981 9.4019 42 21 42C32.5981 42 42 32.5981 42 21C42 9.4019 32.5981 0 21 0ZM21 39.7896C10.6226 39.7896 2.21042 31.3774 2.21042 21C2.21042 10.6233 10.6226 2.21042 21 2.21042C31.3774 2.21042 39.7896 10.6233 39.7896 21C39.7896 31.3774 31.3774 39.7896 21 39.7896Z" fill="#232323"/>
</svg>
