<svg width="70" height="80" viewBox="0 0 70 80" fill="none" xmlns="http://www.w3.org/2000/svg">
<path d="M35.0001 80C40.5189 80 44.9954 75.5234 44.9954 70H25.0048C25.0048 75.5234 29.4814 80 35.0001 80ZM68.6548 56.6078C65.636 53.3641 59.9876 48.4844 59.9876 32.5C59.9876 20.3594 51.4751 10.6406 39.997 8.25625V5C39.997 2.23906 37.7595 0 35.0001 0C32.2407 0 30.0032 2.23906 30.0032 5V8.25625C18.5251 10.6406 10.0126 20.3594 10.0126 32.5C10.0126 48.4844 4.36417 53.3641 1.34542 56.6078C0.407921 57.6156 -0.00770447 58.8203 0.000108029 60C0.0172955 62.5625 2.02823 65 5.01573 65H64.9845C67.972 65 69.9845 62.5625 70.0001 60C70.0079 58.8203 69.5923 57.6141 68.6548 56.6078Z" fill="#1D547D"/>
</svg>
