<svg width="80" height="80" viewBox="0 0 80 80" fill="none" xmlns="http://www.w3.org/2000/svg">
<path d="M73.3567 28.1296H70.4704C69.6808 28.1296 69.6545 27.6127 69.6272 27.3554C68.1137 13.0951 56.0133 1.94806 41.3584 1.94806H38.6416C24.095 1.94806 12.0656 12.9305 10.408 27.0394C10.3657 27.4008 10.3435 28.1296 9.67874 28.1296H6.64307C4.65068 28.1296 0 30.2262 0 40.8139V46.3705C0 54.223 4.65068 56.0342 6.64307 56.0342H16.3012C18.2936 56.0342 19.9237 54.4041 19.9237 52.4117V31.7521C19.9237 29.7597 18.2936 28.1296 16.3012 28.1296C16.3012 28.1296 15.8465 28.0898 15.9624 27.2798C17.5561 16.1292 27.0709 7.48823 38.6416 7.48823H41.3584C52.8505 7.48823 62.3907 16.0016 64.0057 27.0527C64.0578 27.409 64.2519 28.1296 63.6988 28.1296C61.7064 28.1296 60.0763 29.7597 60.0763 31.7521V52.4117C60.0763 54.4041 61.7064 56.0342 63.6988 56.0342H65.5124C66.0109 56.0342 65.9263 56.4326 65.8818 56.6334C64.4044 63.3043 61.087 70.8724 53.6411 70.8724H48.1258C47.5629 70.8724 47.424 70.46 47.3169 70.2645C46.4235 68.632 44.6908 67.5247 42.6986 67.5247H37.6167C34.7098 67.5247 32.3531 69.8812 32.3531 72.7883C32.3531 75.6954 34.7098 78.0517 37.6167 78.0517H42.6986C44.7178 78.0517 46.4709 76.9145 47.3533 75.2458C47.4304 75.1 47.4936 74.7969 48.0892 74.7969H53.6411C58.6987 74.7969 65.4667 72.2837 68.9888 60.3103C69.3642 59.0344 69.6686 57.7628 69.9166 56.5374C69.9507 56.3688 69.972 56.0344 70.4983 56.0344H73.3569C75.3493 56.0344 80 54.223 80 46.3707V40.8141C79.9998 30.3771 75.3491 28.1296 73.3567 28.1296Z" fill="#1D547D"/>
<g clip-path="url(#clip0_1276_2255)">
<path fill-rule="evenodd" clip-rule="evenodd" d="M28.5692 24H45.1164C46.3729 24 47.5152 24.5127 48.344 25.3415C49.1728 26.1703 49.6855 27.3126 49.6855 28.5692V38.7568C49.6855 40.0133 49.1728 41.1556 48.344 41.9844C47.5152 42.8132 46.3729 43.3259 45.1164 43.3259H36.4642L29.5281 49.2897C29.2067 49.566 28.7206 49.5288 28.4443 49.2047C28.3088 49.0453 28.2477 48.8487 28.261 48.6548L28.6303 43.3233H28.5692C27.3126 43.3233 26.1703 42.8106 25.3415 41.9817C24.5127 41.1556 24 40.0133 24 38.7568V28.5692C24 27.3126 24.5127 26.1703 25.3415 25.3415C26.1677 24.5127 27.31 24 28.5692 24ZM40.7677 31.8021C41.9578 31.8021 42.9221 32.7664 42.9221 33.9565C42.9221 35.1466 41.9578 36.1109 40.7677 36.1109C39.5776 36.1109 38.6133 35.1466 38.6133 33.9565C38.6133 32.7664 39.5776 31.8021 40.7677 31.8021ZM32.9497 31.8021C34.1398 31.8021 35.1041 32.7664 35.1041 33.9565C35.1041 35.1466 34.1398 36.1109 32.9497 36.1109C31.7596 36.1109 30.7953 35.1466 30.7953 33.9565C30.7953 32.7664 31.7596 31.8021 32.9497 31.8021ZM52.3686 31.4328C53.2638 31.6055 54.0661 32.0465 54.6877 32.6681C55.4979 33.4783 56.0027 34.5967 56.0027 35.8293V46.0169C56.0027 47.2495 55.5006 48.3679 54.6877 49.1782C53.8775 49.9884 52.7591 50.4931 51.5265 50.4931H51.3644L51.7417 55.923C51.7523 56.093 51.7018 56.2683 51.5823 56.4064C51.3405 56.6907 50.9128 56.7226 50.6312 56.4808L43.6686 50.3178H34.4905L39.0091 45.7221H48.5831C50.6711 45.7221 52.3819 44.0139 52.3819 41.9233V31.733C52.3792 31.6321 52.3766 31.5311 52.3686 31.4328ZM45.1137 25.5408H28.5692C27.7377 25.5408 26.9806 25.8808 26.4307 26.4307C25.8808 26.9806 25.5408 27.735 25.5408 28.5692V38.7568C25.5408 39.5882 25.8808 40.3453 26.4307 40.8952C26.9806 41.4451 27.7377 41.7852 28.5692 41.7852H29.4564V41.7878L29.5069 41.7905C29.9293 41.8197 30.2507 42.1863 30.2215 42.6087L29.9213 46.9281L35.6434 42.0083C35.7815 41.8702 35.9728 41.7852 36.1853 41.7852H45.1137C45.9452 41.7852 46.7023 41.4451 47.2522 40.8952C47.8021 40.3453 48.1421 39.5882 48.1421 38.7568V28.5692C48.1421 27.7377 47.8021 26.9806 47.2522 26.4307C46.7023 25.8808 45.9452 25.5408 45.1137 25.5408Z" fill="#1D547D"/>
</g>
<defs>
<clipPath id="clip0_1276_2255">
<rect width="32" height="32.6429" fill="white" transform="translate(24 24)"/>
</clipPath>
</defs>
</svg>
