<svg width="166" height="142" viewBox="0 0 166 142" fill="none" xmlns="http://www.w3.org/2000/svg">
<path d="M91.1235 65.1922L120.686 51.3947L112.563 39.186L83 52.8999L91.1235 65.1922ZM91.1235 24.1342L120.686 37.9317L112.563 39.186L83 25.3885L91.1235 24.1342ZM74.8764 24.1342L45.3135 37.9317L53.437 39.186L83 25.3885L74.8764 24.1342ZM75.4627 67.1991L53.437 56.9137V68.7043L81.9112 82.0001V57.4154L75.4627 67.1991Z" fill="url(#paint0_linear_59_887)"/>
<path d="M90.5373 67.1989L84.0887 57.4152V81.9999L112.563 68.7041V56.9135L90.5373 67.1989ZM74.8764 65.192L45.3135 51.3945L53.437 39.1858L83 52.8997L74.8764 65.192Z" fill="url(#paint1_linear_59_887)"/>
<path d="M83.2428 0C75.3179 0 68.876 6.43218 68.876 14.3452C68.876 28.8754 83.2428 43.0355 83.2428 43.0355C83.2428 43.0355 97.6097 28.9217 97.6097 14.3452C97.6097 6.43218 91.1678 0 83.2428 0ZM83.2428 25.0809C77.3107 25.0809 72.4909 20.2683 72.4909 14.3452C72.4909 8.42199 77.3107 3.60943 83.2428 3.60943C89.175 3.60943 93.9948 8.42199 93.9948 14.3452C93.9948 20.2683 89.175 25.0809 83.2428 25.0809Z" fill="url(#paint2_linear_59_887)"/>
<path d="M80.0793 12.7612L81.6559 14.3354L78.3384 17.6473L80.0793 19.3856L83.3963 16.0731L84.9728 17.6473L81.6559 20.9598L83.3963 22.6975L86.7132 19.3856L88.4541 17.6473L91.771 14.3354L90.0307 12.5976L86.7132 15.9096L85.1367 14.3354L88.4541 11.0235L86.7132 9.28519L83.3963 12.5976L81.8197 11.0235L85.1367 7.71102L83.3963 5.97327L80.0793 9.28519L78.3384 11.0235L75.0215 14.3354L76.7619 16.0731L80.0793 12.7612Z" fill="#F1EEE6"/>
<path d="M5.6582 106.654C5.6582 107.429 5.66732 108.108 5.68555 108.691C5.71289 109.266 5.74023 109.762 5.76758 110.182C5.80404 110.601 5.84505 110.952 5.89062 111.234C5.94531 111.517 6 111.754 6.05469 111.945V112H2.77344V111.945C2.82812 111.754 2.87826 111.517 2.92383 111.234C2.97852 110.952 3.02409 110.601 3.06055 110.182C3.09701 109.762 3.12435 109.266 3.14258 108.691C3.16081 108.108 3.16992 107.429 3.16992 106.654V97.7539C3.16992 96.9792 3.16081 96.3047 3.14258 95.7305C3.12435 95.1471 3.09701 94.6458 3.06055 94.2266C3.02409 93.7982 2.97852 93.4427 2.92383 93.1602C2.87826 92.8776 2.82812 92.6406 2.77344 92.4492V92.3945C3.52995 92.3945 4.29557 92.3945 5.07031 92.3945C5.84505 92.3854 6.59701 92.3809 7.32617 92.3809C8.05534 92.3717 8.74805 92.3626 9.4043 92.3535C10.0605 92.3353 10.653 92.3216 11.1816 92.3125C11.7103 92.2943 12.1569 92.276 12.5215 92.2578C12.8861 92.2305 13.1458 92.2031 13.3008 92.1758L12.6309 93.9941C12.3301 93.9121 11.9792 93.8392 11.5781 93.7754C11.2318 93.7207 10.8079 93.6706 10.3066 93.625C9.81445 93.5703 9.24479 93.543 8.59766 93.543C8.37891 93.543 8.10547 93.5521 7.77734 93.5703C7.44922 93.5794 7.12565 93.5931 6.80664 93.6113C6.44206 93.6296 6.05924 93.6478 5.6582 93.666V100.57C6.59701 100.561 7.45833 100.534 8.24219 100.488C9.02604 100.443 9.70052 100.397 10.2656 100.352C10.9219 100.297 11.5143 100.233 12.043 100.16L11.6328 102.143C10.9492 102.061 10.2565 101.983 9.55469 101.91C8.95312 101.846 8.30599 101.792 7.61328 101.746C6.92057 101.691 6.26888 101.664 5.6582 101.664V106.654ZM16.0488 103.346C16.0488 102.571 16.0352 101.896 16.0078 101.322C15.9896 100.739 15.9622 100.238 15.9258 99.8184C15.8984 99.3991 15.8574 99.0482 15.8027 98.7656C15.7572 98.4831 15.707 98.2461 15.6523 98.0547V98H18.8105V98.0547C18.7559 98.2461 18.7057 98.4831 18.6602 98.7656C18.6146 99.0482 18.5736 99.3991 18.5371 99.8184C18.5007 100.238 18.4733 100.739 18.4551 101.322C18.4368 101.896 18.4277 102.571 18.4277 103.346V106.654C18.4277 107.429 18.4368 108.108 18.4551 108.691C18.4733 109.266 18.5007 109.762 18.5371 110.182C18.5736 110.601 18.6146 110.952 18.6602 111.234C18.7057 111.517 18.7559 111.754 18.8105 111.945V112H15.6523V111.945C15.707 111.754 15.7572 111.517 15.8027 111.234C15.8574 110.952 15.8984 110.601 15.9258 110.182C15.9622 109.762 15.9896 109.266 16.0078 108.691C16.0352 108.108 16.0488 107.429 16.0488 106.654V103.346ZM15.7617 93.8574C15.7617 93.6569 15.7982 93.4701 15.8711 93.2969C15.9531 93.1146 16.0579 92.9596 16.1855 92.832C16.3132 92.6953 16.4635 92.5905 16.6367 92.5176C16.819 92.4355 17.015 92.3945 17.2246 92.3945C17.4342 92.3945 17.6257 92.4355 17.7988 92.5176C17.9811 92.5905 18.1361 92.6953 18.2637 92.832C18.4004 92.9596 18.5052 93.1146 18.5781 93.2969C18.6602 93.4701 18.7012 93.6569 18.7012 93.8574C18.7012 94.2767 18.5599 94.6276 18.2773 94.9102C17.9948 95.1927 17.6439 95.334 17.2246 95.334C17.015 95.334 16.819 95.2975 16.6367 95.2246C16.4635 95.1426 16.3132 95.0378 16.1855 94.9102C16.0579 94.7734 15.9531 94.6185 15.8711 94.4453C15.7982 94.263 15.7617 94.0671 15.7617 93.8574ZM22.7207 103.346C22.7207 102.571 22.707 101.896 22.6797 101.322C22.6615 100.739 22.6341 100.238 22.5977 99.8184C22.5703 99.3991 22.5293 99.0482 22.4746 98.7656C22.429 98.4831 22.3789 98.2461 22.3242 98.0547V98H25.4824V98.0547C25.4095 98.2643 25.3457 98.5195 25.291 98.8203C25.2454 99.1211 25.209 99.5085 25.1816 99.9824C25.5189 99.6999 25.8698 99.4219 26.2344 99.1484C26.599 98.875 26.9727 98.6335 27.3555 98.4238C27.7383 98.2142 28.1257 98.0456 28.5176 97.918C28.9186 97.7904 29.3197 97.7266 29.7207 97.7266C29.9668 97.7266 30.181 97.7402 30.3633 97.7676C30.5456 97.7858 30.7096 97.8177 30.8555 97.8633C31.0013 97.8997 31.1335 97.9453 31.252 98C31.3704 98.0456 31.4844 98.0911 31.5938 98.1367L30.9238 100.748L30.6914 100.693C30.582 100.292 30.377 99.9733 30.0762 99.7363C29.7754 99.4902 29.3652 99.3672 28.8457 99.3672C28.5632 99.3672 28.2669 99.4173 27.957 99.5176C27.6471 99.6178 27.3327 99.7591 27.0137 99.9414C26.6947 100.115 26.3757 100.32 26.0566 100.557C25.7376 100.785 25.4277 101.026 25.127 101.281C25.1087 101.546 25.0996 101.833 25.0996 102.143C25.0996 102.452 25.0996 102.781 25.0996 103.127V106.654C25.0996 107.429 25.1087 108.108 25.127 108.691C25.1452 109.266 25.1725 109.762 25.209 110.182C25.2454 110.601 25.2865 110.952 25.332 111.234C25.3776 111.517 25.4277 111.754 25.4824 111.945V112H22.3242V111.945C22.3789 111.754 22.429 111.517 22.4746 111.234C22.5293 110.952 22.5703 110.601 22.5977 110.182C22.6341 109.762 22.6615 109.266 22.6797 108.691C22.707 108.108 22.7207 107.429 22.7207 106.654V103.346ZM42.832 102.785C42.832 102.184 42.7682 101.664 42.6406 101.227C42.5221 100.789 42.3444 100.429 42.1074 100.146C41.8796 99.8548 41.6016 99.6406 41.2734 99.5039C40.9453 99.3581 40.5807 99.2852 40.1797 99.2852C39.9062 99.2852 39.6009 99.3398 39.2637 99.4492C38.9264 99.5586 38.5755 99.709 38.2109 99.9004C37.8555 100.083 37.4954 100.297 37.1309 100.543C36.7754 100.789 36.4382 101.053 36.1191 101.336C36.1009 101.628 36.0918 101.942 36.0918 102.279C36.0918 102.607 36.0918 102.963 36.0918 103.346V106.654C36.0918 107.429 36.1009 108.108 36.1191 108.691C36.1374 109.266 36.1647 109.762 36.2012 110.182C36.2376 110.601 36.2786 110.952 36.3242 111.234C36.3698 111.517 36.4199 111.754 36.4746 111.945V112H33.3164V111.945C33.3711 111.754 33.4212 111.517 33.4668 111.234C33.5215 110.952 33.5625 110.601 33.5898 110.182C33.6263 109.762 33.6536 109.266 33.6719 108.691C33.6992 108.108 33.7129 107.429 33.7129 106.654V103.346C33.7129 102.571 33.6992 101.896 33.6719 101.322C33.6536 100.739 33.6263 100.238 33.5898 99.8184C33.5625 99.3991 33.5215 99.0482 33.4668 98.7656C33.4212 98.4831 33.3711 98.2461 33.3164 98.0547V98H36.4746V98.0547C36.4017 98.2643 36.3424 98.5332 36.2969 98.8613C36.2604 99.1803 36.2194 99.5859 36.1738 100.078C36.5384 99.7865 36.9303 99.4993 37.3496 99.2168C37.7689 98.9342 38.1973 98.6836 38.6348 98.4648C39.0814 98.2461 39.528 98.0684 39.9746 97.9316C40.4212 97.7949 40.8633 97.7266 41.3008 97.7266C41.8203 97.7266 42.2806 97.7949 42.6816 97.9316C43.0827 98.0684 43.4336 98.2552 43.7344 98.4922C44.0352 98.7292 44.2858 99.0072 44.4863 99.3262C44.696 99.6452 44.8555 99.987 44.9648 100.352C45.3385 100.033 45.7441 99.7181 46.1816 99.4082C46.6283 99.0892 47.084 98.8066 47.5488 98.5605C48.0228 98.3145 48.5013 98.1139 48.9844 97.959C49.4766 97.804 49.9551 97.7266 50.4199 97.7266C51.1309 97.7266 51.7324 97.8496 52.2246 98.0957C52.7259 98.3418 53.1315 98.6654 53.4414 99.0664C53.7604 99.4674 53.9883 99.9277 54.125 100.447C54.2708 100.958 54.3438 101.477 54.3438 102.006V106.654C54.3438 107.429 54.3529 108.108 54.3711 108.691C54.3893 109.266 54.4167 109.762 54.4531 110.182C54.4896 110.601 54.5306 110.952 54.5762 111.234C54.6309 111.517 54.6855 111.754 54.7402 111.945V112H51.5684V111.945C51.623 111.754 51.6732 111.517 51.7188 111.234C51.7734 110.952 51.819 110.601 51.8555 110.182C51.8919 109.762 51.9193 109.266 51.9375 108.691C51.9557 108.108 51.9648 107.429 51.9648 106.654V102.785C51.9648 101.582 51.7233 100.698 51.2402 100.133C50.7572 99.5677 50.11 99.2852 49.2988 99.2852C49.0163 99.2852 48.7018 99.3398 48.3555 99.4492C48.0182 99.5586 47.6673 99.709 47.3027 99.9004C46.9382 100.092 46.5736 100.315 46.209 100.57C45.8444 100.816 45.5026 101.081 45.1836 101.363C45.2018 101.473 45.2109 101.582 45.2109 101.691C45.2109 101.801 45.2109 101.906 45.2109 102.006V106.654C45.2109 107.429 45.2201 108.108 45.2383 108.691C45.2656 109.266 45.293 109.762 45.3203 110.182C45.3568 110.601 45.3978 110.952 45.4434 111.234C45.498 111.517 45.5527 111.754 45.6074 111.945V112H42.4492V111.945C42.5039 111.754 42.554 111.517 42.5996 111.234C42.6452 110.952 42.6862 110.601 42.7227 110.182C42.7591 109.762 42.7865 109.266 42.8047 108.691C42.8229 108.108 42.832 107.429 42.832 106.654V102.785ZM57.3652 107.967C57.3652 107.247 57.5111 106.622 57.8027 106.094C58.1035 105.565 58.5 105.114 58.9922 104.74C59.4844 104.367 60.0449 104.066 60.6738 103.838C61.3027 103.601 61.9544 103.419 62.6289 103.291C63.3034 103.154 63.9688 103.063 64.625 103.018C65.2812 102.963 65.8828 102.931 66.4297 102.922V102.225C66.4297 101.623 66.3522 101.104 66.1973 100.666C66.0423 100.229 65.8236 99.8685 65.541 99.5859C65.2585 99.2943 64.9167 99.0801 64.5156 98.9434C64.1237 98.7975 63.6908 98.7246 63.2168 98.7246C62.8887 98.7246 62.5651 98.752 62.2461 98.8066C61.9271 98.8613 61.5944 98.9525 61.248 99.0801C60.9108 99.2077 60.5508 99.3809 60.168 99.5996C59.7943 99.8184 59.3887 100.096 58.9512 100.434L58.8145 100.352L59.7441 98.4238C60.0449 98.2871 60.3411 98.1777 60.6328 98.0957C60.9245 98.0046 61.2207 97.9316 61.5215 97.877C61.8223 97.8223 62.1276 97.7858 62.4375 97.7676C62.7565 97.7402 63.0892 97.7266 63.4355 97.7266C64.3926 97.7266 65.2083 97.8451 65.8828 98.082C66.5664 98.3099 67.1224 98.6289 67.5508 99.0391C67.9883 99.4401 68.3073 99.9141 68.5078 100.461C68.7083 100.999 68.8086 101.577 68.8086 102.197V106.654C68.8086 107.429 68.8177 108.108 68.8359 108.691C68.8633 109.266 68.8906 109.762 68.918 110.182C68.9544 110.601 68.9954 110.952 69.041 111.234C69.0957 111.517 69.1504 111.754 69.2051 111.945V112H66.1836V111.945C66.2292 111.799 66.2611 111.635 66.2793 111.453C66.3066 111.271 66.3294 111.052 66.3477 110.797C66.1562 110.961 65.9284 111.13 65.6641 111.303C65.4089 111.476 65.1126 111.635 64.7754 111.781C64.4473 111.918 64.0781 112.027 63.668 112.109C63.2669 112.201 62.8249 112.246 62.3418 112.246C60.7559 112.246 59.5299 111.877 58.6641 111.139C57.7982 110.391 57.3652 109.334 57.3652 107.967ZM66.4297 103.988C65.6003 103.997 64.8027 104.048 64.0371 104.139C63.2715 104.221 62.5924 104.398 62 104.672C61.4167 104.945 60.9473 105.337 60.5918 105.848C60.2454 106.349 60.0723 107.019 60.0723 107.857C60.0723 108.933 60.3411 109.753 60.8789 110.318C61.4167 110.883 62.1595 111.166 63.1074 111.166C63.5449 111.166 63.9414 111.107 64.2969 110.988C64.6615 110.861 64.9805 110.706 65.2539 110.523C65.5365 110.332 65.7734 110.127 65.9648 109.908C66.1562 109.68 66.3021 109.462 66.4023 109.252C66.4206 108.906 66.4297 108.523 66.4297 108.104C66.4297 107.675 66.4297 107.192 66.4297 106.654V103.988ZM81.1953 111.945C81.25 111.754 81.3001 111.517 81.3457 111.234C81.4004 110.952 81.446 110.601 81.4824 110.182C81.5189 109.762 81.5462 109.266 81.5645 108.691C81.5827 108.108 81.5918 107.429 81.5918 106.654V97.7539C81.5918 96.9792 81.5827 96.3047 81.5645 95.7305C81.5462 95.1471 81.5189 94.6458 81.4824 94.2266C81.446 93.7982 81.4004 93.4427 81.3457 93.1602C81.3001 92.8776 81.25 92.6406 81.1953 92.4492V92.3945H84.4766V92.4492C84.4219 92.6406 84.3672 92.8776 84.3125 93.1602C84.2669 93.4427 84.2259 93.7982 84.1895 94.2266C84.1621 94.6458 84.1348 95.1471 84.1074 95.7305C84.0892 96.3047 84.0801 96.9792 84.0801 97.7539V100.803L92.0645 94.2812C92.9577 93.5521 93.4043 92.9232 93.4043 92.3945H97.2461V92.4492C96.7083 92.5768 96.1615 92.8229 95.6055 93.1875C95.0586 93.543 94.4753 93.9805 93.8555 94.5L86.8008 100.406L95.291 109.73C95.6465 110.095 95.9473 110.4 96.1934 110.646C96.4486 110.883 96.6719 111.084 96.8633 111.248C97.0547 111.403 97.2279 111.535 97.3828 111.645C97.5469 111.745 97.7155 111.845 97.8887 111.945V112H93.8828C93.8464 111.918 93.7826 111.813 93.6914 111.686C93.6094 111.558 93.5091 111.426 93.3906 111.289C93.2812 111.152 93.1582 111.011 93.0215 110.865C92.8939 110.719 92.7708 110.583 92.6523 110.455L84.0801 101.049V106.654C84.0801 107.429 84.0892 108.108 84.1074 108.691C84.1348 109.266 84.1621 109.762 84.1895 110.182C84.2259 110.601 84.2669 110.952 84.3125 111.234C84.3672 111.517 84.4219 111.754 84.4766 111.945V112H81.1953V111.945ZM101.17 107.215C101.17 108.418 101.407 109.302 101.881 109.867C102.364 110.432 103.011 110.715 103.822 110.715C104.114 110.715 104.442 110.656 104.807 110.537C105.171 110.41 105.545 110.245 105.928 110.045C106.32 109.835 106.707 109.594 107.09 109.32C107.482 109.047 107.842 108.755 108.17 108.445C108.188 108.181 108.197 107.903 108.197 107.611C108.197 107.311 108.197 106.992 108.197 106.654V103.346C108.197 102.571 108.184 101.896 108.156 101.322C108.138 100.739 108.111 100.238 108.074 99.8184C108.047 99.3991 108.006 99.0482 107.951 98.7656C107.906 98.4831 107.855 98.2461 107.801 98.0547V98H110.959V98.0547C110.904 98.2461 110.854 98.4831 110.809 98.7656C110.763 99.0482 110.722 99.3991 110.686 99.8184C110.649 100.238 110.622 100.739 110.604 101.322C110.585 101.896 110.576 102.571 110.576 103.346V106.654C110.576 107.429 110.585 108.108 110.604 108.691C110.622 109.266 110.649 109.762 110.686 110.182C110.722 110.601 110.763 110.952 110.809 111.234C110.854 111.517 110.904 111.754 110.959 111.945V112H107.801V111.945C107.855 111.717 107.91 111.426 107.965 111.07C108.029 110.715 108.074 110.25 108.102 109.676C107.728 109.995 107.322 110.309 106.885 110.619C106.456 110.929 106.005 111.207 105.531 111.453C105.066 111.699 104.592 111.895 104.109 112.041C103.635 112.196 103.166 112.273 102.701 112.273C101.99 112.273 101.384 112.15 100.883 111.904C100.391 111.658 99.985 111.335 99.666 110.934C99.3561 110.533 99.1283 110.077 98.9824 109.566C98.8457 109.056 98.7773 108.532 98.7773 107.994V103.346C98.7773 102.571 98.7682 101.896 98.75 101.322C98.7318 100.739 98.7044 100.238 98.668 99.8184C98.6315 99.3991 98.5905 99.0482 98.5449 98.7656C98.4993 98.4831 98.4492 98.2461 98.3945 98.0547V98H101.553V98.0547C101.498 98.2461 101.448 98.4831 101.402 98.7656C101.357 99.0482 101.316 99.3991 101.279 99.8184C101.243 100.238 101.215 100.739 101.197 101.322C101.179 101.896 101.17 102.571 101.17 103.346V107.215ZM119.736 111.193C120.01 111.193 120.279 111.143 120.543 111.043C120.816 110.943 121.076 110.806 121.322 110.633C121.577 110.46 121.819 110.264 122.047 110.045C122.284 109.817 122.503 109.58 122.703 109.334L122.84 109.402L121.951 111.604C121.842 111.658 121.705 111.727 121.541 111.809C121.386 111.882 121.195 111.95 120.967 112.014C120.748 112.087 120.488 112.146 120.188 112.191C119.887 112.246 119.531 112.273 119.121 112.273C117.9 112.273 116.947 111.945 116.264 111.289C115.589 110.624 115.252 109.589 115.252 108.186V99.0664L112.955 99.1484V97.9453C113.238 97.9635 113.575 97.9772 113.967 97.9863C114.359 97.9954 114.787 98 115.252 98C115.243 97.3529 115.225 96.7832 115.197 96.291C115.179 95.7897 115.152 95.3568 115.115 94.9922C115.088 94.6185 115.051 94.304 115.006 94.0488C114.96 93.7936 114.915 93.5794 114.869 93.4062V93.3516H118.027V93.4062C117.973 93.5794 117.923 93.7936 117.877 94.0488C117.831 94.304 117.79 94.6139 117.754 94.9785C117.727 95.3431 117.699 95.776 117.672 96.2773C117.654 96.7695 117.64 97.3438 117.631 98C118.205 97.9909 118.766 97.9818 119.312 97.9727C119.868 97.9544 120.37 97.9362 120.816 97.918C121.272 97.8906 121.655 97.8678 121.965 97.8496C122.284 97.8223 122.493 97.7995 122.594 97.7812L122.348 99.1758C121.883 99.1667 121.395 99.153 120.885 99.1348C120.447 99.1165 119.946 99.1029 119.381 99.0938C118.816 99.0846 118.232 99.0755 117.631 99.0664V108.473C117.631 109.038 117.69 109.498 117.809 109.854C117.936 110.2 118.096 110.473 118.287 110.674C118.488 110.874 118.711 111.011 118.957 111.084C119.212 111.157 119.472 111.193 119.736 111.193ZM127.83 107.215C127.83 108.418 128.067 109.302 128.541 109.867C129.024 110.432 129.671 110.715 130.482 110.715C130.774 110.715 131.102 110.656 131.467 110.537C131.831 110.41 132.205 110.245 132.588 110.045C132.98 109.835 133.367 109.594 133.75 109.32C134.142 109.047 134.502 108.755 134.83 108.445C134.848 108.181 134.857 107.903 134.857 107.611C134.857 107.311 134.857 106.992 134.857 106.654V103.346C134.857 102.571 134.844 101.896 134.816 101.322C134.798 100.739 134.771 100.238 134.734 99.8184C134.707 99.3991 134.666 99.0482 134.611 98.7656C134.566 98.4831 134.516 98.2461 134.461 98.0547V98H137.619V98.0547C137.564 98.2461 137.514 98.4831 137.469 98.7656C137.423 99.0482 137.382 99.3991 137.346 99.8184C137.309 100.238 137.282 100.739 137.264 101.322C137.245 101.896 137.236 102.571 137.236 103.346V106.654C137.236 107.429 137.245 108.108 137.264 108.691C137.282 109.266 137.309 109.762 137.346 110.182C137.382 110.601 137.423 110.952 137.469 111.234C137.514 111.517 137.564 111.754 137.619 111.945V112H134.461V111.945C134.516 111.717 134.57 111.426 134.625 111.07C134.689 110.715 134.734 110.25 134.762 109.676C134.388 109.995 133.982 110.309 133.545 110.619C133.117 110.929 132.665 111.207 132.191 111.453C131.727 111.699 131.253 111.895 130.77 112.041C130.296 112.196 129.826 112.273 129.361 112.273C128.65 112.273 128.044 112.15 127.543 111.904C127.051 111.658 126.645 111.335 126.326 110.934C126.016 110.533 125.788 110.077 125.643 109.566C125.506 109.056 125.438 108.532 125.438 107.994V103.346C125.438 102.571 125.428 101.896 125.41 101.322C125.392 100.739 125.365 100.238 125.328 99.8184C125.292 99.3991 125.251 99.0482 125.205 98.7656C125.16 98.4831 125.109 98.2461 125.055 98.0547V98H128.213V98.0547C128.158 98.2461 128.108 98.4831 128.062 98.7656C128.017 99.0482 127.976 99.3991 127.939 99.8184C127.903 100.238 127.876 100.739 127.857 101.322C127.839 101.896 127.83 102.571 127.83 103.346V107.215ZM147.627 100.748L147.436 100.775C147.372 100.566 147.267 100.342 147.121 100.105C146.984 99.8685 146.802 99.6497 146.574 99.4492C146.355 99.2487 146.087 99.0846 145.768 98.957C145.458 98.8203 145.098 98.752 144.688 98.752C144.405 98.752 144.136 98.793 143.881 98.875C143.635 98.957 143.416 99.0801 143.225 99.2441C143.042 99.3991 142.896 99.5951 142.787 99.832C142.678 100.069 142.623 100.347 142.623 100.666C142.623 101.113 142.76 101.541 143.033 101.951C143.316 102.352 143.667 102.753 144.086 103.154C144.505 103.546 144.956 103.943 145.439 104.344C145.932 104.745 146.387 105.164 146.807 105.602C147.226 106.039 147.572 106.508 147.846 107.01C148.128 107.502 148.27 108.035 148.27 108.609C148.27 109.074 148.188 109.53 148.023 109.977C147.859 110.414 147.604 110.806 147.258 111.152C146.921 111.499 146.483 111.781 145.945 112C145.417 112.21 144.783 112.314 144.045 112.314C143.607 112.314 143.197 112.273 142.814 112.191C142.441 112.109 142.094 112.009 141.775 111.891C141.465 111.763 141.183 111.626 140.928 111.48C140.682 111.326 140.463 111.18 140.271 111.043L140.408 108.445H140.627C140.718 108.874 140.855 109.266 141.037 109.621C141.219 109.977 141.443 110.282 141.707 110.537C141.98 110.783 142.29 110.979 142.637 111.125C142.983 111.262 143.361 111.33 143.771 111.33C144.446 111.33 144.979 111.143 145.371 110.77C145.772 110.396 145.973 109.908 145.973 109.307C145.973 108.824 145.836 108.382 145.562 107.98C145.298 107.57 144.961 107.178 144.551 106.805C144.141 106.431 143.699 106.057 143.225 105.684C142.76 105.31 142.322 104.913 141.912 104.494C141.502 104.066 141.16 103.601 140.887 103.1C140.622 102.589 140.49 102.01 140.49 101.363C140.49 100.835 140.586 100.352 140.777 99.9141C140.978 99.4674 141.251 99.0892 141.598 98.7793C141.953 98.4603 142.372 98.2142 142.855 98.041C143.339 97.8678 143.867 97.7812 144.441 97.7812C145.198 97.7812 145.827 97.8633 146.328 98.0273C146.839 98.1823 147.226 98.3327 147.49 98.4785L147.627 100.748ZM153.67 107.215C153.67 108.418 153.907 109.302 154.381 109.867C154.864 110.432 155.511 110.715 156.322 110.715C156.614 110.715 156.942 110.656 157.307 110.537C157.671 110.41 158.045 110.245 158.428 110.045C158.82 109.835 159.207 109.594 159.59 109.32C159.982 109.047 160.342 108.755 160.67 108.445C160.688 108.181 160.697 107.903 160.697 107.611C160.697 107.311 160.697 106.992 160.697 106.654V103.346C160.697 102.571 160.684 101.896 160.656 101.322C160.638 100.739 160.611 100.238 160.574 99.8184C160.547 99.3991 160.506 99.0482 160.451 98.7656C160.406 98.4831 160.355 98.2461 160.301 98.0547V98H163.459V98.0547C163.404 98.2461 163.354 98.4831 163.309 98.7656C163.263 99.0482 163.222 99.3991 163.186 99.8184C163.149 100.238 163.122 100.739 163.104 101.322C163.085 101.896 163.076 102.571 163.076 103.346V106.654C163.076 107.429 163.085 108.108 163.104 108.691C163.122 109.266 163.149 109.762 163.186 110.182C163.222 110.601 163.263 110.952 163.309 111.234C163.354 111.517 163.404 111.754 163.459 111.945V112H160.301V111.945C160.355 111.717 160.41 111.426 160.465 111.07C160.529 110.715 160.574 110.25 160.602 109.676C160.228 109.995 159.822 110.309 159.385 110.619C158.956 110.929 158.505 111.207 158.031 111.453C157.566 111.699 157.092 111.895 156.609 112.041C156.135 112.196 155.666 112.273 155.201 112.273C154.49 112.273 153.884 112.15 153.383 111.904C152.891 111.658 152.485 111.335 152.166 110.934C151.856 110.533 151.628 110.077 151.482 109.566C151.346 109.056 151.277 108.532 151.277 107.994V103.346C151.277 102.571 151.268 101.896 151.25 101.322C151.232 100.739 151.204 100.238 151.168 99.8184C151.132 99.3991 151.09 99.0482 151.045 98.7656C150.999 98.4831 150.949 98.2461 150.895 98.0547V98H154.053V98.0547C153.998 98.2461 153.948 98.4831 153.902 98.7656C153.857 99.0482 153.816 99.3991 153.779 99.8184C153.743 100.238 153.715 100.739 153.697 101.322C153.679 101.896 153.67 102.571 153.67 103.346V107.215Z" fill="#1C5540"/>
<path d="M6.67518 136.478C6.05918 136.478 5.75118 136.163 5.75118 135.533C5.75118 135.085 5.88418 134.525 6.15018 133.853C6.41618 133.167 6.77318 132.418 7.22118 131.606C7.66918 130.794 8.15918 129.968 8.69118 129.128C9.22318 128.274 9.76218 127.448 10.3082 126.65C10.8542 125.852 11.3582 125.131 11.8202 124.487C12.2962 123.843 12.6882 123.325 12.9962 122.933C12.9822 122.779 13.0312 122.632 13.1432 122.492C13.2692 122.352 13.3742 122.233 13.4582 122.135C12.9682 122.107 12.4712 122.086 11.9672 122.072C11.4632 122.044 10.9662 122.03 10.4762 122.03C10.2242 122.03 9.85318 122.037 9.36318 122.051C8.87318 122.065 8.32718 122.1 7.72518 122.156C7.13718 122.198 6.54218 122.275 5.94018 122.387C5.33818 122.485 4.77818 122.632 4.26018 122.828C3.75618 123.01 3.35018 123.248 3.04218 123.542C2.73418 123.822 2.58018 124.165 2.58018 124.571C2.58018 125.061 2.72018 125.516 3.00018 125.936C3.29418 126.342 3.65118 126.699 4.07118 127.007C4.50518 127.315 4.92518 127.56 5.33118 127.742C5.37318 127.756 5.43618 127.791 5.52018 127.847C5.61818 127.889 5.66718 127.938 5.66718 127.994C5.66718 128.022 5.65318 128.043 5.62518 128.057C5.59718 128.057 5.57618 128.057 5.56218 128.057C5.50618 128.057 5.44318 128.05 5.37318 128.036C5.31718 128.008 5.25418 127.987 5.18418 127.973C4.73618 127.819 4.26718 127.609 3.77718 127.343C3.28718 127.063 2.87418 126.72 2.53818 126.314C2.20218 125.894 2.03418 125.411 2.03418 124.865C2.03418 124.655 2.06918 124.431 2.13918 124.193C2.34918 123.521 2.68518 122.982 3.14718 122.576C3.62318 122.156 4.16918 121.834 4.78518 121.61C5.41518 121.386 6.05918 121.239 6.71718 121.169C7.38918 121.085 8.02618 121.043 8.62818 121.043C9.51018 121.043 10.3852 121.106 11.2532 121.232C12.1212 121.344 12.9892 121.477 13.8572 121.631C13.9272 121.533 13.9972 121.428 14.0672 121.316C14.1512 121.204 14.2352 121.106 14.3192 121.022C14.4312 120.91 14.6062 120.826 14.8442 120.77C15.0822 120.714 15.2712 120.686 15.4112 120.686C15.4672 120.686 15.5512 120.7 15.6632 120.728C15.7752 120.742 15.8312 120.791 15.8312 120.875C15.8312 120.903 15.7752 120.987 15.6632 121.127C15.5512 121.267 15.4322 121.407 15.3062 121.547C15.1942 121.687 15.1172 121.778 15.0752 121.82C15.8732 121.946 16.6782 122.065 17.4902 122.177C18.3162 122.275 19.1352 122.324 19.9472 122.324C20.1852 122.324 20.3672 122.275 20.4932 122.177C20.6332 122.079 20.7382 121.988 20.8082 121.904C20.8922 121.806 20.9762 121.757 21.0602 121.757C21.1582 121.757 21.2492 121.806 21.3332 121.904C21.4172 121.988 21.4592 122.079 21.4592 122.177C21.4592 122.247 21.4382 122.303 21.3962 122.345C21.3542 122.373 21.3052 122.401 21.2492 122.429C20.7872 122.653 20.4022 123.003 20.0942 123.479C19.7862 123.955 19.4922 124.396 19.2122 124.802C19.1842 124.844 19.1352 124.914 19.0652 125.012C18.9952 125.096 18.9322 125.138 18.8762 125.138C18.8342 125.138 18.8132 125.103 18.8132 125.033C18.8132 124.851 18.8762 124.641 19.0022 124.403C19.1422 124.151 19.2752 123.906 19.4012 123.668C19.5272 123.416 19.5902 123.213 19.5902 123.059C19.5902 122.975 19.5482 122.926 19.4642 122.912C19.2402 122.842 19.0022 122.786 18.7502 122.744C18.5122 122.702 18.2742 122.66 18.0362 122.618C17.4762 122.534 16.9232 122.464 16.3772 122.408C15.8312 122.338 15.2782 122.275 14.7182 122.219C14.0462 123.017 13.3392 123.906 12.5972 124.886C11.8552 125.852 11.1272 126.867 10.4132 127.931C9.71318 128.995 9.08318 130.066 8.52318 131.144C7.97718 132.222 7.55718 133.258 7.26318 134.252C7.20718 134.434 7.15818 134.63 7.11618 134.84C7.07418 135.064 7.05318 135.274 7.05318 135.47C7.05318 135.596 7.07418 135.729 7.11618 135.869C7.15818 136.009 7.25618 136.079 7.41018 136.079C7.52218 136.079 7.63418 136.058 7.74618 136.016C7.87218 135.988 7.99818 135.974 8.12418 135.974C8.13818 135.974 8.16618 135.974 8.20818 135.974C8.25018 135.974 8.27118 135.988 8.27118 136.016C8.27118 136.072 8.15218 136.135 7.91418 136.205C7.69018 136.289 7.44518 136.352 7.17918 136.394C6.92718 136.45 6.75918 136.478 6.67518 136.478ZM18.1133 134.168C17.7353 134.168 17.4833 134.021 17.3573 133.727C17.2453 133.419 17.1893 133.111 17.1893 132.803C17.1893 132.397 17.2313 131.991 17.3153 131.585C17.3993 131.179 17.4553 130.773 17.4833 130.367C17.3153 130.577 17.0773 130.878 16.7693 131.27C16.4613 131.648 16.1183 132.047 15.7403 132.467C15.3623 132.873 14.9913 133.216 14.6273 133.496C14.2633 133.776 13.9483 133.916 13.6823 133.916C13.1643 133.916 12.9053 133.643 12.9053 133.097C12.9053 132.733 12.9753 132.362 13.1153 131.984C13.2693 131.592 13.4443 131.214 13.6403 130.85C13.8503 130.472 14.0393 130.129 14.2073 129.821H14.1653C14.0813 129.821 14.0393 129.786 14.0393 129.716C14.0393 129.688 14.0393 129.667 14.0393 129.653C14.0533 129.639 14.0603 129.625 14.0603 129.611C14.2563 129.275 14.4173 128.988 14.5433 128.75C14.6693 128.498 14.8373 128.309 15.0473 128.183C15.2573 128.057 15.5793 127.994 16.0133 127.994C16.0833 127.994 16.1183 128.036 16.1183 128.12C16.1183 128.218 16.0413 128.407 15.8873 128.687C15.7333 128.953 15.5653 129.219 15.3833 129.485C15.2013 129.751 15.0753 129.94 15.0053 130.052C14.8933 130.234 14.7533 130.507 14.5853 130.871C14.4173 131.235 14.2633 131.599 14.1233 131.963C13.9973 132.327 13.9343 132.614 13.9343 132.824C13.9343 132.894 13.9413 132.964 13.9553 133.034C13.9833 133.09 14.0393 133.118 14.1233 133.118C14.2633 133.118 14.4243 133.055 14.6063 132.929C14.7883 132.789 14.9283 132.677 15.0263 132.593C15.5723 132.131 16.0763 131.613 16.5383 131.039C17.0003 130.451 17.4203 129.856 17.7983 129.254C17.8403 129.17 17.8613 129.093 17.8613 129.023C17.9033 128.855 17.9663 128.694 18.0503 128.54C18.1343 128.386 18.2463 128.26 18.3863 128.162C18.4983 128.092 18.6523 128.036 18.8483 127.994C19.0443 127.952 19.1983 127.931 19.3103 127.931C19.3663 127.931 19.4363 127.945 19.5203 127.973C19.6043 127.987 19.6463 128.029 19.6463 128.099C19.6463 128.169 19.5833 128.281 19.4573 128.435C19.3453 128.589 19.2193 128.743 19.0793 128.897C18.9533 129.037 18.8623 129.156 18.8063 129.254C18.6803 129.478 18.5683 129.807 18.4703 130.241C18.3723 130.661 18.2953 131.088 18.2393 131.522C18.1833 131.956 18.1553 132.313 18.1553 132.593C18.1553 132.775 18.1763 132.978 18.2183 133.202C18.2603 133.426 18.4003 133.538 18.6383 133.538C18.8763 133.538 19.1143 133.447 19.3523 133.265C19.6043 133.069 19.8213 132.88 20.0033 132.698C20.1853 132.502 20.2903 132.404 20.3183 132.404C20.3323 132.404 20.3393 132.418 20.3393 132.446C20.3393 132.572 20.2693 132.719 20.1293 132.887C19.9893 133.055 19.8353 133.216 19.6673 133.37C19.5133 133.51 19.3943 133.615 19.3103 133.685C19.1423 133.811 18.9533 133.923 18.7433 134.021C18.5333 134.119 18.3233 134.168 18.1133 134.168ZM18.4283 126.86C18.3303 126.86 18.2673 126.804 18.2393 126.692C18.2113 126.58 18.1973 126.496 18.1973 126.44C18.1973 126.328 18.2323 126.195 18.3023 126.041C18.3723 125.887 18.4773 125.775 18.6173 125.705C18.7293 125.649 18.8623 125.621 19.0163 125.621C19.1003 125.621 19.1843 125.628 19.2683 125.642C19.3523 125.656 19.4223 125.677 19.4783 125.705C19.5203 125.817 19.4783 125.971 19.3523 126.167C19.2403 126.349 19.0933 126.51 18.9113 126.65C18.7433 126.79 18.5823 126.86 18.4283 126.86ZM16.4963 126.86C16.3983 126.86 16.3353 126.804 16.3073 126.692C16.2793 126.58 16.2653 126.496 16.2653 126.44C16.2653 126.328 16.3003 126.195 16.3703 126.041C16.4403 125.887 16.5453 125.775 16.6853 125.705C16.7973 125.649 16.9303 125.621 17.0843 125.621C17.1683 125.621 17.2523 125.628 17.3363 125.642C17.4203 125.656 17.4903 125.677 17.5463 125.705C17.5883 125.817 17.5463 125.971 17.4203 126.167C17.3083 126.349 17.1613 126.51 16.9793 126.65C16.8113 126.79 16.6503 126.86 16.4963 126.86ZM19.5473 134.315C19.4493 134.315 19.4073 134.28 19.4213 134.21C19.7853 133.566 20.1073 132.908 20.3873 132.236C20.6673 131.55 20.9403 130.864 21.2063 130.178L21.4373 129.569C21.4373 129.527 21.4023 129.513 21.3323 129.527C21.2623 129.541 21.2273 129.52 21.2273 129.464C21.2273 129.436 21.2833 129.331 21.3953 129.149C21.5073 128.953 21.6263 128.757 21.7523 128.561C21.8783 128.351 21.9553 128.225 21.9833 128.183C22.0393 128.099 22.1653 128.015 22.3613 127.931C22.5573 127.847 22.7043 127.805 22.8023 127.805C22.9563 127.805 23.0333 127.868 23.0333 127.994C23.0333 128.036 23.0263 128.078 23.0123 128.12C22.9983 128.162 22.9843 128.197 22.9703 128.225C22.7603 128.729 22.5293 129.233 22.2773 129.737C22.0393 130.227 21.8433 130.738 21.6893 131.27C22.0953 130.78 22.5363 130.304 23.0123 129.842C23.5023 129.366 23.9993 128.932 24.5033 128.54C24.6433 128.428 24.7973 128.323 24.9653 128.225C25.1473 128.127 25.3293 128.078 25.5113 128.078C25.7353 128.078 25.8753 128.162 25.9313 128.33C25.9873 128.484 26.0153 128.645 26.0153 128.813C26.0153 129.037 25.9453 129.275 25.8053 129.527C25.6653 129.779 25.4623 129.905 25.1963 129.905C25.0843 129.905 25.0283 129.863 25.0283 129.779C25.0283 129.709 25.0353 129.653 25.0493 129.611C25.0633 129.555 25.0703 129.499 25.0703 129.443C25.0703 129.373 25.0423 129.289 24.9863 129.191C24.9303 129.093 24.8673 129.044 24.7973 129.044C24.6153 129.044 24.3703 129.156 24.0623 129.38C23.7543 129.604 23.4323 129.877 23.0963 130.199C22.7743 130.521 22.4803 130.836 22.2143 131.144C21.9623 131.438 21.7803 131.655 21.6683 131.795C21.5143 132.019 21.3813 132.25 21.2693 132.488C21.1573 132.712 21.0663 132.943 20.9963 133.181C20.9683 133.265 20.9403 133.356 20.9123 133.454C20.8843 133.538 20.8563 133.615 20.8283 133.685C20.8003 133.755 20.6953 133.846 20.5133 133.958C20.3313 134.056 20.1423 134.14 19.9463 134.21C19.7643 134.28 19.6313 134.315 19.5473 134.315ZM25.1986 134.315C25.1146 134.315 25.0726 134.28 25.0726 134.21C25.1426 134.098 25.2126 133.986 25.2826 133.874C25.3666 133.762 25.4366 133.657 25.4926 133.559C25.7446 133.069 25.9896 132.579 26.2276 132.089C26.4656 131.599 26.7176 131.116 26.9836 130.64C26.9696 130.556 26.9416 130.444 26.8996 130.304C26.8716 130.164 26.8576 130.059 26.8576 129.989C26.8576 129.807 26.9346 129.681 27.0886 129.611C27.2426 129.527 27.3826 129.471 27.5086 129.443C27.9846 128.365 28.4816 127.301 28.9996 126.251C29.5316 125.201 30.1126 124.186 30.7426 123.206C30.7006 123.122 30.6796 123.024 30.6796 122.912C30.6796 122.884 30.6796 122.856 30.6796 122.828C30.6936 122.8 30.7076 122.772 30.7216 122.744L31.4986 121.547C31.5826 121.463 31.7226 121.4 31.9186 121.358C32.1286 121.316 32.2896 121.295 32.4016 121.295C32.4576 121.295 32.5626 121.309 32.7166 121.337C32.8706 121.351 32.9476 121.407 32.9476 121.505C32.9476 121.519 32.9406 121.533 32.9266 121.547C32.9266 121.561 32.9266 121.568 32.9266 121.568C32.7866 121.792 32.6396 122.009 32.4856 122.219C32.3316 122.429 32.1776 122.639 32.0236 122.849C31.4636 123.689 30.9316 124.55 30.4276 125.432C29.9236 126.3 29.4266 127.175 28.9366 128.057C28.8386 128.253 28.6986 128.519 28.5166 128.855C28.3486 129.177 28.1946 129.506 28.0546 129.842C27.9286 130.164 27.8656 130.437 27.8656 130.661V130.724C28.1316 130.472 28.4746 130.164 28.8946 129.8C29.3286 129.422 29.7626 129.058 30.1966 128.708C30.6446 128.358 31.0156 128.106 31.3096 127.952C31.4216 127.896 31.5476 127.868 31.6876 127.868C31.7436 127.868 31.8136 127.882 31.8976 127.91C31.9956 127.924 32.0446 127.973 32.0446 128.057C32.0446 128.155 31.9816 128.26 31.8556 128.372C31.7296 128.484 31.5896 128.589 31.4356 128.687C31.2816 128.771 31.1696 128.834 31.0996 128.876C30.5816 129.184 30.0426 129.534 29.4826 129.926C28.9226 130.304 28.4186 130.689 27.9706 131.081C28.0126 131.235 28.0826 131.445 28.1806 131.711C28.2926 131.963 28.4256 132.229 28.5796 132.509C28.7336 132.775 28.8946 133.006 29.0626 133.202C29.2446 133.384 29.4266 133.475 29.6086 133.475C29.7906 133.475 29.9446 133.405 30.0706 133.265C30.2106 133.111 30.3296 132.943 30.4276 132.761C30.5396 132.565 30.6306 132.397 30.7006 132.257C30.7706 132.103 30.8266 132.026 30.8686 132.026C30.8966 132.026 30.9106 132.047 30.9106 132.089C30.9246 132.131 30.9316 132.159 30.9316 132.173C30.9316 132.215 30.9176 132.278 30.8896 132.362C30.8056 132.614 30.7076 132.873 30.5956 133.139C30.4836 133.405 30.3296 133.629 30.1336 133.811C29.9516 133.993 29.6996 134.084 29.3776 134.084C29.0416 134.084 28.7336 133.937 28.4536 133.643C28.1876 133.335 27.9706 132.985 27.8026 132.593C27.6346 132.187 27.5226 131.844 27.4666 131.564C27.2846 131.774 27.1096 131.998 26.9416 132.236C26.7736 132.474 26.6126 132.712 26.4586 132.95C26.4586 132.964 26.4586 132.985 26.4586 133.013C26.4726 133.027 26.4796 133.048 26.4796 133.076C26.4796 133.258 26.4096 133.447 26.2696 133.643C26.1436 133.839 25.9826 134 25.7866 134.126C25.5906 134.252 25.3946 134.315 25.1986 134.315ZM33.4697 127.196C33.4277 127.196 33.3997 127.147 33.3857 127.049C33.3857 126.937 33.3857 126.867 33.3857 126.839C33.3857 126.797 33.3927 126.706 33.4067 126.566C33.4207 126.426 33.4627 126.349 33.5327 126.335C33.7287 126.307 33.9247 126.272 34.1207 126.23C34.3167 126.188 34.5127 126.139 34.7087 126.083C34.7367 126.069 34.7787 126.062 34.8347 126.062C34.9047 126.062 34.9397 126.097 34.9397 126.167C34.9397 126.321 34.8417 126.482 34.6457 126.65C34.4637 126.804 34.2537 126.937 34.0157 127.049C33.7917 127.147 33.6097 127.196 33.4697 127.196ZM31.7687 134C31.0827 134 30.7397 133.65 30.7397 132.95C30.7397 132.656 30.7817 132.355 30.8657 132.047C30.9637 131.739 31.0687 131.452 31.1807 131.186C31.3067 130.878 31.4467 130.577 31.6007 130.283C31.7547 129.989 31.9087 129.695 32.0627 129.401C32.1327 129.275 32.1957 129.149 32.2517 129.023C32.3217 128.883 32.3917 128.75 32.4617 128.624C32.5317 128.526 32.6647 128.442 32.8607 128.372C33.0567 128.302 33.2107 128.267 33.3227 128.267C33.3367 128.267 33.3367 128.274 33.3227 128.288C33.3087 128.288 33.3017 128.288 33.3017 128.288C33.3157 128.288 33.3227 128.295 33.3227 128.309C33.3507 128.281 33.3857 128.267 33.4277 128.267C33.4837 128.267 33.5187 128.295 33.5327 128.351C33.5467 128.393 33.5537 128.435 33.5537 128.477C33.5537 128.575 33.5117 128.722 33.4277 128.918C33.3577 129.114 33.2667 129.303 33.1547 129.485C33.0567 129.653 32.9587 129.758 32.8607 129.8C32.7347 130.094 32.5667 130.416 32.3567 130.766C32.1607 131.116 31.9787 131.473 31.8107 131.837C31.6427 132.187 31.5587 132.53 31.5587 132.866C31.5587 133.258 31.7687 133.454 32.1887 133.454C32.3847 133.454 32.5947 133.391 32.8187 133.265C33.0567 133.139 33.2877 132.992 33.5117 132.824C33.7357 132.642 33.9247 132.488 34.0787 132.362C34.2467 132.236 34.3517 132.173 34.3937 132.173C34.4077 132.173 34.4147 132.18 34.4147 132.194C34.4147 132.25 34.3937 132.313 34.3517 132.383C34.3097 132.439 34.2747 132.481 34.2467 132.509C34.0787 132.733 33.8547 132.964 33.5747 133.202C33.2947 133.426 32.9937 133.615 32.6717 133.769C32.3637 133.923 32.0627 134 31.7687 134ZM30.8783 141.014C30.5003 141.014 30.1083 140.944 29.7023 140.804C29.2963 140.678 28.9533 140.468 28.6733 140.174C28.3933 139.894 28.2533 139.53 28.2533 139.082C28.2533 138.676 28.3723 138.305 28.6103 137.969C28.8343 137.633 29.1283 137.325 29.4923 137.045C29.8423 136.779 30.2133 136.541 30.6053 136.331C30.9973 136.121 31.3473 135.953 31.6553 135.827C32.4393 135.505 33.2933 135.26 34.2173 135.092C35.1553 134.924 36.0443 134.812 36.8843 134.756C37.1363 134.112 37.3883 133.468 37.6403 132.824C37.9063 132.18 38.1093 131.515 38.2493 130.829L38.3333 130.43C38.1513 130.668 37.8993 130.99 37.5773 131.396C37.2693 131.802 36.9263 132.215 36.5483 132.635C36.1843 133.055 35.8133 133.412 35.4353 133.706C35.0573 133.986 34.7213 134.126 34.4273 134.126C34.1893 134.126 34.0283 134.028 33.9443 133.832C33.8603 133.622 33.8183 133.419 33.8183 133.223C33.8183 132.691 33.9373 132.187 34.1753 131.711C34.4133 131.221 34.6513 130.752 34.8893 130.304L34.8263 130.325C34.7423 130.325 34.7003 130.283 34.7003 130.199C34.7003 130.185 34.7143 130.15 34.7423 130.094C34.9243 129.758 35.0783 129.471 35.2043 129.233C35.3303 128.995 35.4983 128.813 35.7083 128.687C35.9183 128.561 36.2403 128.498 36.6743 128.498C36.7583 128.498 36.8003 128.533 36.8003 128.603C36.8003 128.715 36.7233 128.904 36.5693 129.17C36.4153 129.436 36.2473 129.709 36.0653 129.989C35.8833 130.255 35.7573 130.444 35.6873 130.556C35.5753 130.724 35.4423 130.969 35.2883 131.291C35.1343 131.613 35.0013 131.935 34.8893 132.257C34.7773 132.565 34.7213 132.817 34.7213 133.013C34.7213 133.083 34.7353 133.153 34.7633 133.223C34.7913 133.279 34.8473 133.307 34.9313 133.307C35.1133 133.307 35.3443 133.202 35.6243 132.992C35.9043 132.768 36.1983 132.488 36.5063 132.152C36.8143 131.816 37.1153 131.466 37.4093 131.102C37.7033 130.724 37.9553 130.381 38.1653 130.073C38.3893 129.751 38.5503 129.499 38.6483 129.317C38.7603 129.121 38.8373 128.918 38.8793 128.708C38.9213 128.484 39.0543 128.302 39.2783 128.162C39.3763 128.106 39.5023 128.05 39.6563 127.994C39.8103 127.924 39.9363 127.889 40.0343 127.889C40.1743 127.889 40.2443 127.959 40.2443 128.099C40.2443 128.295 40.1743 128.498 40.0343 128.708C39.9083 128.904 39.7963 129.086 39.6983 129.254C39.5723 129.492 39.4533 129.779 39.3413 130.115C39.2433 130.437 39.1523 130.738 39.0683 131.018C38.8443 131.634 38.6273 132.257 38.4173 132.887C38.2213 133.503 37.9833 134.119 37.7033 134.735H38.1233C38.2353 134.735 38.3403 134.742 38.4383 134.756C38.5503 134.77 38.6063 134.812 38.6063 134.882C38.6063 134.952 38.5293 134.994 38.3753 135.008C38.2353 135.022 38.0813 135.022 37.9133 135.008C37.7593 135.008 37.6543 135.008 37.5983 135.008C37.3183 135.68 36.9613 136.366 36.5273 137.066C36.1073 137.78 35.6103 138.431 35.0363 139.019C34.4763 139.621 33.8533 140.104 33.1673 140.468C32.4673 140.832 31.7043 141.014 30.8783 141.014ZM30.7943 140.573C31.4803 140.573 32.1313 140.384 32.7473 140.006C33.3493 139.642 33.9023 139.173 34.4063 138.599C34.9243 138.025 35.3793 137.416 35.7713 136.772C36.1773 136.142 36.5063 135.561 36.7583 135.029C35.9743 135.085 35.1343 135.204 34.2383 135.386C33.3423 135.582 32.5443 135.862 31.8443 136.226C31.4943 136.394 31.1093 136.625 30.6893 136.919C30.2553 137.213 29.8843 137.549 29.5763 137.927C29.2543 138.319 29.0933 138.739 29.0933 139.187C29.0933 139.663 29.2753 140.013 29.6393 140.237C29.9893 140.461 30.3743 140.573 30.7943 140.573ZM40.5206 134.147C40.2126 134.147 40.0096 134.098 39.9116 134C39.8136 133.902 39.7646 133.699 39.7646 133.391C39.7646 133.055 39.8416 132.67 39.9956 132.236C40.1636 131.802 40.3176 131.438 40.4576 131.144C40.4576 131.13 40.4506 131.123 40.4366 131.123C40.4366 131.109 40.4366 131.095 40.4366 131.081C40.4366 131.011 40.4576 130.955 40.4996 130.913C40.5556 130.871 40.5976 130.829 40.6256 130.787C40.6956 130.675 40.7586 130.563 40.8146 130.451C40.8706 130.339 40.9266 130.234 40.9826 130.136C41.2206 129.758 41.5076 129.394 41.8436 129.044C42.1936 128.694 42.5856 128.456 43.0196 128.33C43.1736 128.288 43.3206 128.267 43.4606 128.267C43.4886 128.267 43.5166 128.274 43.5446 128.288C43.5866 128.288 43.6076 128.302 43.6076 128.33C43.6076 128.372 43.5656 128.421 43.4816 128.477C43.4116 128.533 43.3626 128.575 43.3346 128.603C43.1106 128.785 42.8656 129.065 42.5996 129.443C42.3476 129.821 42.1446 130.129 41.9906 130.367C42.3126 130.311 42.6276 130.269 42.9356 130.241C43.2576 130.213 43.5726 130.213 43.8806 130.241C44.0346 130.017 44.1746 129.744 44.3006 129.422C44.4406 129.086 44.5106 128.778 44.5106 128.498C44.5106 128.344 44.4896 128.253 44.4476 128.225C44.4196 128.197 44.3426 128.183 44.2166 128.183C44.1886 128.183 44.1466 128.176 44.0906 128.162C44.0346 128.148 44.0066 128.12 44.0066 128.078C44.0066 128.022 44.0696 127.973 44.1956 127.931C44.3216 127.889 44.4546 127.861 44.5946 127.847C44.7346 127.819 44.8256 127.805 44.8676 127.805C45.2456 127.805 45.4346 127.98 45.4346 128.33C45.4346 128.526 45.3716 128.764 45.2456 129.044C45.1336 129.31 44.9866 129.562 44.8046 129.8C44.6366 130.024 44.4686 130.185 44.3006 130.283C44.3426 130.283 44.4266 130.304 44.5526 130.346C44.6926 130.374 44.8186 130.409 44.9306 130.451C45.0566 130.493 45.1196 130.542 45.1196 130.598C45.1196 130.64 45.0776 130.668 44.9936 130.682C44.9096 130.682 44.8536 130.682 44.8256 130.682C44.6996 130.682 44.5736 130.675 44.4476 130.661C44.3216 130.633 44.1956 130.619 44.0696 130.619C43.6776 130.619 43.2786 130.647 42.8726 130.703C42.4806 130.759 42.0886 130.829 41.6966 130.913C41.5566 131.165 41.3956 131.487 41.2136 131.879C41.0456 132.271 40.9616 132.621 40.9616 132.929C40.9616 133.419 41.2136 133.664 41.7176 133.664C42.0816 133.664 42.4316 133.566 42.7676 133.37C43.1176 133.174 43.4396 132.943 43.7336 132.677C44.0276 132.411 44.2656 132.18 44.4476 131.984C44.6296 131.788 44.7346 131.69 44.7626 131.69C44.8046 131.69 44.8256 131.718 44.8256 131.774C44.8256 131.942 44.7276 132.145 44.5316 132.383C44.3356 132.607 44.1746 132.768 44.0486 132.866C43.5586 133.244 43.0056 133.552 42.3896 133.79C41.7876 134.028 41.1646 134.147 40.5206 134.147ZM45.8156 127.868C45.8016 127.868 45.7946 127.861 45.7946 127.847C45.7946 127.791 45.8926 127.644 46.0886 127.406C46.2986 127.168 46.5366 126.881 46.8026 126.545C47.0686 126.209 47.3066 125.866 47.5166 125.516C47.7406 125.166 47.8736 124.858 47.9156 124.592C47.9856 124.522 48.0696 124.487 48.1676 124.487C48.2796 124.487 48.4056 124.536 48.5456 124.634C48.6856 124.718 48.7556 124.816 48.7556 124.928C48.7556 124.998 48.6646 125.145 48.4826 125.369C48.3006 125.579 48.0696 125.831 47.7896 126.125C47.5236 126.405 47.2506 126.678 46.9706 126.944C46.6906 127.21 46.4386 127.434 46.2146 127.616C46.0046 127.784 45.8716 127.868 45.8156 127.868ZM48.4018 134.315C48.3038 134.315 48.2618 134.28 48.2758 134.21C48.6678 133.538 49.0248 132.852 49.3468 132.152C49.6828 131.452 49.9978 130.745 50.2918 130.031C50.2918 130.003 50.3198 129.926 50.3758 129.8C50.4318 129.66 50.4598 129.583 50.4598 129.569C50.4598 129.527 50.4248 129.513 50.3548 129.527C50.2848 129.541 50.2498 129.52 50.2498 129.464C50.2498 129.436 50.3058 129.331 50.4178 129.149C50.5298 128.953 50.6488 128.757 50.7748 128.561C50.9008 128.351 50.9778 128.225 51.0058 128.183C51.0758 128.099 51.2088 128.015 51.4048 127.931C51.6008 127.847 51.7478 127.805 51.8458 127.805C51.9858 127.805 52.0558 127.868 52.0558 127.994C52.0558 128.036 52.0068 128.176 51.9088 128.414C51.8108 128.652 51.6848 128.932 51.5308 129.254C51.3768 129.576 51.2228 129.905 51.0688 130.241C50.9148 130.577 50.7748 130.871 50.6488 131.123C50.5228 131.375 50.4388 131.543 50.3968 131.627C50.5088 131.487 50.6908 131.284 50.9428 131.018C51.2088 130.738 51.5028 130.437 51.8248 130.115C52.1608 129.793 52.4968 129.485 52.8328 129.191C53.1688 128.883 53.4698 128.638 53.7358 128.456C54.0158 128.26 54.2328 128.162 54.3868 128.162C54.4988 128.162 54.5618 128.204 54.5758 128.288C54.6038 128.372 54.6178 128.449 54.6178 128.519C54.6178 128.701 54.5968 128.89 54.5548 129.086C54.5128 129.282 54.4638 129.471 54.4078 129.653C54.2958 130.073 54.1558 130.57 53.9878 131.144C53.8338 131.704 53.7568 132.194 53.7568 132.614C53.7568 132.824 53.7918 133.02 53.8618 133.202C53.9458 133.37 54.1138 133.454 54.3658 133.454C54.5618 133.454 54.7648 133.391 54.9748 133.265C55.1988 133.139 55.4018 132.992 55.5838 132.824C55.7798 132.642 55.9478 132.488 56.0878 132.362C56.2418 132.236 56.3398 132.173 56.3818 132.173C56.3958 132.173 56.4028 132.187 56.4028 132.215C56.4028 132.257 56.3888 132.313 56.3608 132.383C56.3468 132.439 56.3258 132.481 56.2978 132.509C56.0738 132.859 55.7448 133.195 55.3108 133.517C54.8908 133.839 54.4708 134 54.0508 134C53.6168 134 53.2878 133.874 53.0638 133.622C52.8538 133.356 52.7488 133.013 52.7488 132.593C52.7488 132.229 52.8118 131.823 52.9378 131.375C53.0778 130.927 53.1968 130.521 53.2948 130.157C53.3228 130.045 53.3578 129.912 53.3998 129.758C53.4558 129.604 53.4838 129.471 53.4838 129.359C53.4838 129.331 53.4768 129.296 53.4628 129.254C53.4488 129.212 53.4208 129.191 53.3788 129.191C53.3088 129.191 53.2178 129.233 53.1058 129.317C53.0078 129.387 52.9308 129.443 52.8748 129.485C52.6088 129.709 52.3078 129.996 51.9718 130.346C51.6498 130.696 51.3278 131.081 51.0058 131.501C50.6838 131.907 50.3898 132.306 50.1238 132.698C49.8578 133.09 49.6478 133.44 49.4938 133.748C49.4658 133.818 49.3748 133.902 49.2208 134C49.0808 134.084 48.9268 134.154 48.7588 134.21C48.6048 134.28 48.4858 134.315 48.4018 134.315ZM58.4072 127.196C58.3652 127.196 58.3372 127.147 58.3232 127.049C58.3232 126.937 58.3232 126.867 58.3232 126.839C58.3232 126.797 58.3302 126.706 58.3442 126.566C58.3582 126.426 58.4002 126.349 58.4702 126.335C58.6662 126.307 58.8622 126.272 59.0582 126.23C59.2542 126.188 59.4502 126.139 59.6462 126.083C59.6742 126.069 59.7162 126.062 59.7722 126.062C59.8422 126.062 59.8772 126.097 59.8772 126.167C59.8772 126.321 59.7792 126.482 59.5832 126.65C59.4012 126.804 59.1912 126.937 58.9532 127.049C58.7292 127.147 58.5472 127.196 58.4072 127.196ZM56.7062 134C56.0202 134 55.6772 133.65 55.6772 132.95C55.6772 132.656 55.7192 132.355 55.8032 132.047C55.9012 131.739 56.0062 131.452 56.1182 131.186C56.2442 130.878 56.3842 130.577 56.5382 130.283C56.6922 129.989 56.8462 129.695 57.0002 129.401C57.0702 129.275 57.1332 129.149 57.1892 129.023C57.2592 128.883 57.3292 128.75 57.3992 128.624C57.4692 128.526 57.6022 128.442 57.7982 128.372C57.9942 128.302 58.1482 128.267 58.2602 128.267C58.2742 128.267 58.2742 128.274 58.2602 128.288C58.2462 128.288 58.2392 128.288 58.2392 128.288C58.2532 128.288 58.2602 128.295 58.2602 128.309C58.2882 128.281 58.3232 128.267 58.3652 128.267C58.4212 128.267 58.4562 128.295 58.4702 128.351C58.4842 128.393 58.4912 128.435 58.4912 128.477C58.4912 128.575 58.4492 128.722 58.3652 128.918C58.2952 129.114 58.2042 129.303 58.0922 129.485C57.9942 129.653 57.8962 129.758 57.7982 129.8C57.6722 130.094 57.5042 130.416 57.2942 130.766C57.0982 131.116 56.9162 131.473 56.7482 131.837C56.5802 132.187 56.4962 132.53 56.4962 132.866C56.4962 133.258 56.7062 133.454 57.1262 133.454C57.3222 133.454 57.5322 133.391 57.7562 133.265C57.9942 133.139 58.2252 132.992 58.4492 132.824C58.6732 132.642 58.8622 132.488 59.0162 132.362C59.1842 132.236 59.2892 132.173 59.3312 132.173C59.3452 132.173 59.3522 132.18 59.3522 132.194C59.3522 132.25 59.3312 132.313 59.2892 132.383C59.2472 132.439 59.2122 132.481 59.1842 132.509C59.0162 132.733 58.7922 132.964 58.5122 133.202C58.2322 133.426 57.9312 133.615 57.6092 133.769C57.3012 133.923 57.0002 134 56.7062 134ZM58.8608 134.315C58.7628 134.315 58.7208 134.28 58.7348 134.21C59.1268 133.538 59.4838 132.852 59.8058 132.152C60.1418 131.452 60.4568 130.745 60.7508 130.031C60.7508 130.003 60.7788 129.926 60.8348 129.8C60.8908 129.66 60.9188 129.583 60.9188 129.569C60.9188 129.527 60.8838 129.513 60.8138 129.527C60.7438 129.541 60.7088 129.52 60.7088 129.464C60.7088 129.436 60.7648 129.331 60.8768 129.149C60.9888 128.953 61.1078 128.757 61.2338 128.561C61.3598 128.351 61.4368 128.225 61.4648 128.183C61.5348 128.099 61.6678 128.015 61.8638 127.931C62.0598 127.847 62.2068 127.805 62.3048 127.805C62.4448 127.805 62.5148 127.868 62.5148 127.994C62.5148 128.036 62.4658 128.176 62.3678 128.414C62.2698 128.652 62.1438 128.932 61.9898 129.254C61.8358 129.576 61.6818 129.905 61.5278 130.241C61.3738 130.577 61.2338 130.871 61.1078 131.123C60.9818 131.375 60.8978 131.543 60.8558 131.627C60.9678 131.487 61.1498 131.284 61.4018 131.018C61.6678 130.738 61.9618 130.437 62.2838 130.115C62.6198 129.793 62.9558 129.485 63.2918 129.191C63.6278 128.883 63.9288 128.638 64.1948 128.456C64.4748 128.26 64.6918 128.162 64.8458 128.162C64.9578 128.162 65.0208 128.204 65.0348 128.288C65.0628 128.372 65.0768 128.449 65.0768 128.519C65.0768 128.701 65.0558 128.89 65.0138 129.086C64.9718 129.282 64.9228 129.471 64.8668 129.653C64.7548 130.073 64.6148 130.57 64.4468 131.144C64.2928 131.704 64.2158 132.194 64.2158 132.614C64.2158 132.824 64.2508 133.02 64.3208 133.202C64.4048 133.37 64.5728 133.454 64.8248 133.454C65.0208 133.454 65.2238 133.391 65.4338 133.265C65.6578 133.139 65.8608 132.992 66.0428 132.824C66.2388 132.642 66.4068 132.488 66.5468 132.362C66.7008 132.236 66.7988 132.173 66.8408 132.173C66.8548 132.173 66.8618 132.187 66.8618 132.215C66.8618 132.257 66.8478 132.313 66.8198 132.383C66.8058 132.439 66.7848 132.481 66.7568 132.509C66.5328 132.859 66.2038 133.195 65.7698 133.517C65.3498 133.839 64.9298 134 64.5098 134C64.0758 134 63.7468 133.874 63.5228 133.622C63.3128 133.356 63.2078 133.013 63.2078 132.593C63.2078 132.229 63.2708 131.823 63.3968 131.375C63.5368 130.927 63.6558 130.521 63.7538 130.157C63.7818 130.045 63.8168 129.912 63.8588 129.758C63.9148 129.604 63.9428 129.471 63.9428 129.359C63.9428 129.331 63.9358 129.296 63.9218 129.254C63.9078 129.212 63.8798 129.191 63.8378 129.191C63.7678 129.191 63.6768 129.233 63.5648 129.317C63.4668 129.387 63.3898 129.443 63.3338 129.485C63.0678 129.709 62.7668 129.996 62.4308 130.346C62.1088 130.696 61.7868 131.081 61.4648 131.501C61.1428 131.907 60.8488 132.306 60.5828 132.698C60.3168 133.09 60.1068 133.44 59.9528 133.748C59.9248 133.818 59.8338 133.902 59.6798 134C59.5398 134.084 59.3858 134.154 59.2178 134.21C59.0638 134.28 58.9448 134.315 58.8608 134.315ZM76.5579 135.365C76.1799 135.365 75.8019 135.309 75.4239 135.197C75.0459 135.085 74.7239 134.903 74.4579 134.651C74.1919 134.399 74.0309 134.063 73.9749 133.643C73.7089 133.517 73.4219 133.342 73.1139 133.118C72.8199 132.894 72.5679 132.635 72.3579 132.341C72.1479 132.047 72.0429 131.739 72.0429 131.417C72.0429 130.969 72.2389 130.591 72.6309 130.283C73.0369 129.975 73.5689 129.723 74.2269 129.527C74.8849 129.317 75.5989 129.156 76.3689 129.044C77.1529 128.918 77.9299 128.827 78.6999 128.771C79.4699 128.715 80.1699 128.68 80.7999 128.666C81.4439 128.638 81.9409 128.624 82.2909 128.624C82.4869 128.274 82.7249 127.861 83.0049 127.385C83.2989 126.895 83.6209 126.398 83.9709 125.894C84.3349 125.376 84.7129 124.893 85.1049 124.445C85.5109 123.997 85.9239 123.633 86.3439 123.353C86.7639 123.059 87.1909 122.891 87.6249 122.849C86.9529 122.667 86.2249 122.527 85.4409 122.429C84.6709 122.331 83.8939 122.261 83.1099 122.219C82.3259 122.163 81.5839 122.135 80.8839 122.135C80.5759 122.135 80.1629 122.149 79.6449 122.177C79.1409 122.191 78.6019 122.24 78.0279 122.324C77.4539 122.408 76.9079 122.541 76.3899 122.723C75.8859 122.891 75.4659 123.129 75.1299 123.437C74.8079 123.731 74.6469 124.109 74.6469 124.571C74.6469 125.061 74.7869 125.516 75.0669 125.936C75.3609 126.342 75.7249 126.699 76.1589 127.007C76.5929 127.315 77.0129 127.56 77.4189 127.742C77.4609 127.756 77.5239 127.791 77.6079 127.847C77.6919 127.889 77.7339 127.938 77.7339 127.994C77.7339 128.036 77.6989 128.057 77.6289 128.057C77.5729 128.057 77.5099 128.05 77.4399 128.036C77.3839 128.008 77.3279 127.987 77.2719 127.973C76.8239 127.819 76.3549 127.609 75.8649 127.343C75.3749 127.063 74.9619 126.72 74.6259 126.314C74.2899 125.894 74.1219 125.411 74.1219 124.865C74.1219 124.753 74.1289 124.641 74.1429 124.529C74.1569 124.403 74.1849 124.291 74.2269 124.193C74.4089 123.563 74.7029 123.052 75.1089 122.66C75.5289 122.268 76.0119 121.967 76.5579 121.757C77.1179 121.533 77.6989 121.386 78.3009 121.316C78.9169 121.232 79.5049 121.19 80.0649 121.19C80.9889 121.19 81.8989 121.26 82.7949 121.4C83.6909 121.526 84.5869 121.68 85.4829 121.862C86.3789 122.044 87.2749 122.205 88.1709 122.345C89.0669 122.471 89.9699 122.534 90.8799 122.534C91.1179 122.534 91.2999 122.492 91.4259 122.408C91.5659 122.31 91.6709 122.219 91.7409 122.135C91.8249 122.037 91.9019 121.988 91.9719 121.988C92.0839 121.988 92.1819 122.037 92.2659 122.135C92.3499 122.219 92.3919 122.31 92.3919 122.408C92.3919 122.478 92.3709 122.527 92.3289 122.555C92.2869 122.583 92.2309 122.611 92.1609 122.639C91.7129 122.863 91.3349 123.22 91.0269 123.71C90.7189 124.186 90.4249 124.627 90.1449 125.033C90.1169 125.075 90.0679 125.138 89.9979 125.222C89.9279 125.306 89.8649 125.348 89.8089 125.348C89.7669 125.348 89.7459 125.32 89.7459 125.264C89.7459 125.082 89.8089 124.872 89.9349 124.634C90.0749 124.382 90.2079 124.137 90.3339 123.899C90.4599 123.647 90.5229 123.444 90.5229 123.29C90.5229 123.22 90.4809 123.164 90.3969 123.122C90.2009 123.052 89.9839 123.003 89.7459 122.975C89.5219 122.947 89.3049 122.933 89.0949 122.933C88.3389 122.933 87.6809 123.122 87.1209 123.5C86.5609 123.878 86.0639 124.361 85.6299 124.949C85.1959 125.537 84.8039 126.16 84.4539 126.818C84.1179 127.476 83.8029 128.085 83.5089 128.645C83.7609 128.645 84.0129 128.652 84.2649 128.666C84.5169 128.68 84.7619 128.715 84.9999 128.771C85.0139 128.785 85.0629 128.806 85.1469 128.834C85.2309 128.848 85.2729 128.869 85.2729 128.897C85.2729 128.939 85.1819 128.974 84.9999 129.002C84.8179 129.016 84.6989 129.03 84.6429 129.044L83.2569 129.107C83.2009 129.205 83.1449 129.296 83.0889 129.38C83.0469 129.464 82.9979 129.555 82.9419 129.653C82.4379 130.451 81.9479 131.207 81.4719 131.921C81.0099 132.621 80.4709 133.251 79.8549 133.811C79.2389 134.371 78.4689 134.833 77.5449 135.197C77.3909 135.253 77.2299 135.295 77.0619 135.323C76.8939 135.351 76.7259 135.365 76.5579 135.365ZM76.2219 134.966C76.7259 134.966 77.2089 134.826 77.6709 134.546C78.1469 134.28 78.5949 133.93 79.0149 133.496C79.4489 133.048 79.8479 132.565 80.2119 132.047C80.5759 131.529 80.9049 131.018 81.1989 130.514C81.5069 130.01 81.7659 129.569 81.9759 129.191C81.6819 129.205 81.2409 129.233 80.6529 129.275C80.0789 129.303 79.4349 129.352 78.7209 129.422C78.0209 129.492 77.3069 129.59 76.5789 129.716C75.8649 129.828 75.1999 129.975 74.5839 130.157C73.9679 130.339 73.4709 130.563 73.0929 130.829C72.7289 131.081 72.5469 131.382 72.5469 131.732C72.5469 132.096 72.7079 132.397 73.0299 132.635C73.3659 132.873 73.6809 133.062 73.9749 133.202C73.9749 133.118 73.9959 132.943 74.0379 132.677C74.0939 132.411 74.1639 132.159 74.2479 131.921C74.3319 131.669 74.4299 131.543 74.5419 131.543C74.5699 131.543 74.5839 131.571 74.5839 131.627C74.5979 131.669 74.6049 131.697 74.6049 131.711V131.879C74.5769 132.061 74.5489 132.236 74.5209 132.404C74.4929 132.558 74.4789 132.726 74.4789 132.908C74.4789 132.992 74.4789 133.083 74.4789 133.181C74.4929 133.265 74.5069 133.349 74.5209 133.433C74.8989 133.573 75.3609 133.713 75.9069 133.853C76.4529 133.993 76.9289 134.063 77.3349 134.063C77.3769 134.063 77.4189 134.056 77.4609 134.042C77.5169 134.042 77.5729 134.042 77.6289 134.042C77.6429 134.042 77.6639 134.042 77.6919 134.042C77.7199 134.042 77.7339 134.056 77.7339 134.084C77.7339 134.14 77.6639 134.175 77.5239 134.189C77.3839 134.217 77.2999 134.231 77.2719 134.231C76.8379 134.231 76.3899 134.203 75.9279 134.147C75.4799 134.091 75.0459 134 74.6259 133.874C74.7519 134.252 74.9479 134.525 75.2139 134.693C75.4939 134.875 75.8299 134.966 76.2219 134.966ZM87.5283 127.196C87.4863 127.196 87.4583 127.147 87.4443 127.049C87.4443 126.937 87.4443 126.867 87.4443 126.839C87.4443 126.797 87.4513 126.706 87.4653 126.566C87.4793 126.426 87.5213 126.349 87.5913 126.335C87.7873 126.307 87.9833 126.272 88.1793 126.23C88.3753 126.188 88.5713 126.139 88.7673 126.083C88.7953 126.069 88.8373 126.062 88.8933 126.062C88.9633 126.062 88.9983 126.097 88.9983 126.167C88.9983 126.321 88.9003 126.482 88.7043 126.65C88.5223 126.804 88.3123 126.937 88.0743 127.049C87.8503 127.147 87.6683 127.196 87.5283 127.196ZM85.8273 134C85.1413 134 84.7983 133.65 84.7983 132.95C84.7983 132.656 84.8403 132.355 84.9243 132.047C85.0223 131.739 85.1273 131.452 85.2393 131.186C85.3653 130.878 85.5053 130.577 85.6593 130.283C85.8133 129.989 85.9673 129.695 86.1213 129.401C86.1913 129.275 86.2543 129.149 86.3103 129.023C86.3803 128.883 86.4503 128.75 86.5203 128.624C86.5903 128.526 86.7233 128.442 86.9193 128.372C87.1153 128.302 87.2693 128.267 87.3813 128.267C87.3953 128.267 87.3953 128.274 87.3813 128.288C87.3673 128.288 87.3603 128.288 87.3603 128.288C87.3743 128.288 87.3813 128.295 87.3813 128.309C87.4093 128.281 87.4443 128.267 87.4863 128.267C87.5423 128.267 87.5773 128.295 87.5913 128.351C87.6053 128.393 87.6123 128.435 87.6123 128.477C87.6123 128.575 87.5703 128.722 87.4863 128.918C87.4163 129.114 87.3253 129.303 87.2133 129.485C87.1153 129.653 87.0173 129.758 86.9193 129.8C86.7933 130.094 86.6253 130.416 86.4153 130.766C86.2193 131.116 86.0373 131.473 85.8693 131.837C85.7013 132.187 85.6173 132.53 85.6173 132.866C85.6173 133.258 85.8273 133.454 86.2473 133.454C86.4433 133.454 86.6533 133.391 86.8773 133.265C87.1153 133.139 87.3463 132.992 87.5703 132.824C87.7943 132.642 87.9833 132.488 88.1373 132.362C88.3053 132.236 88.4103 132.173 88.4523 132.173C88.4663 132.173 88.4733 132.18 88.4733 132.194C88.4733 132.25 88.4523 132.313 88.4103 132.383C88.3683 132.439 88.3333 132.481 88.3053 132.509C88.1373 132.733 87.9133 132.964 87.6333 133.202C87.3533 133.426 87.0523 133.615 86.7303 133.769C86.4223 133.923 86.1213 134 85.8273 134ZM87.9819 134.315C87.8839 134.315 87.8419 134.28 87.8559 134.21C88.2199 133.566 88.5419 132.908 88.8219 132.236C89.1019 131.55 89.3749 130.864 89.6409 130.178L89.8719 129.569C89.8719 129.527 89.8369 129.513 89.7669 129.527C89.6969 129.541 89.6619 129.52 89.6619 129.464C89.6619 129.436 89.7179 129.331 89.8299 129.149C89.9419 128.953 90.0609 128.757 90.1869 128.561C90.3129 128.351 90.3899 128.225 90.4179 128.183C90.4739 128.099 90.5999 128.015 90.7959 127.931C90.9919 127.847 91.1389 127.805 91.2369 127.805C91.3909 127.805 91.4679 127.868 91.4679 127.994C91.4679 128.036 91.4609 128.078 91.4469 128.12C91.4329 128.162 91.4189 128.197 91.4049 128.225C91.1949 128.729 90.9639 129.233 90.7119 129.737C90.4739 130.227 90.2779 130.738 90.1239 131.27C90.5299 130.78 90.9709 130.304 91.4469 129.842C91.9369 129.366 92.4339 128.932 92.9379 128.54C93.0779 128.428 93.2319 128.323 93.3999 128.225C93.5819 128.127 93.7639 128.078 93.9459 128.078C94.1699 128.078 94.3099 128.162 94.3659 128.33C94.4219 128.484 94.4499 128.645 94.4499 128.813C94.4499 129.037 94.3799 129.275 94.2399 129.527C94.0999 129.779 93.8969 129.905 93.6309 129.905C93.5189 129.905 93.4629 129.863 93.4629 129.779C93.4629 129.709 93.4699 129.653 93.4839 129.611C93.4979 129.555 93.5049 129.499 93.5049 129.443C93.5049 129.373 93.4769 129.289 93.4209 129.191C93.3649 129.093 93.3019 129.044 93.2319 129.044C93.0499 129.044 92.8049 129.156 92.4969 129.38C92.1889 129.604 91.8669 129.877 91.5309 130.199C91.2089 130.521 90.9149 130.836 90.6489 131.144C90.3969 131.438 90.2149 131.655 90.1029 131.795C89.9489 132.019 89.8159 132.25 89.7039 132.488C89.5919 132.712 89.5009 132.943 89.4309 133.181C89.4029 133.265 89.3749 133.356 89.3469 133.454C89.3189 133.538 89.2909 133.615 89.2629 133.685C89.2349 133.755 89.1299 133.846 88.9479 133.958C88.7659 134.056 88.5769 134.14 88.3809 134.21C88.1989 134.28 88.0659 134.315 87.9819 134.315ZM93.8432 134.315C93.7592 134.315 93.7172 134.28 93.7172 134.21C94.0952 133.566 94.4242 132.908 94.7042 132.236C94.9842 131.55 95.2572 130.864 95.5232 130.178L95.7542 129.569C95.7542 129.527 95.7122 129.513 95.6282 129.527C95.5582 129.541 95.5232 129.52 95.5232 129.464C95.5232 129.436 95.5792 129.331 95.6912 129.149C95.8172 128.953 95.9432 128.757 96.0692 128.561C96.1952 128.351 96.2722 128.225 96.3002 128.183C96.3562 128.099 96.4822 128.015 96.6782 127.931C96.8742 127.847 97.0212 127.805 97.1192 127.805C97.2592 127.805 97.3292 127.868 97.3292 127.994C97.3292 128.036 97.2592 128.218 97.1192 128.54C96.9932 128.848 96.8392 129.219 96.6572 129.653C96.4752 130.073 96.3072 130.472 96.1532 130.85C95.9992 131.214 95.9012 131.473 95.8592 131.627C95.9712 131.487 96.1532 131.284 96.4052 131.018C96.6572 130.738 96.9442 130.437 97.2662 130.115C97.5882 129.793 97.9172 129.485 98.2532 129.191C98.5892 128.897 98.8902 128.659 99.1562 128.477C99.4362 128.281 99.6532 128.183 99.8072 128.183C99.9332 128.183 100.01 128.239 100.038 128.351C100.08 128.449 100.101 128.547 100.101 128.645C100.101 128.911 100.038 129.247 99.9122 129.653C99.8002 130.059 99.6672 130.465 99.5132 130.871C99.3592 131.277 99.2262 131.606 99.1142 131.858C99.3942 131.62 99.6952 131.347 100.017 131.039C100.353 130.717 100.675 130.388 100.983 130.052C101.291 129.716 101.543 129.401 101.739 129.107C101.851 128.967 101.984 128.897 102.138 128.897C102.432 128.897 102.579 129.037 102.579 129.317C102.579 129.457 102.53 129.667 102.432 129.947C102.334 130.227 102.222 130.402 102.096 130.472C102.026 130.766 101.963 131.074 101.907 131.396C101.851 131.704 101.823 132.019 101.823 132.341C101.823 132.467 101.837 132.621 101.865 132.803C101.893 132.971 101.949 133.125 102.033 133.265C102.117 133.391 102.243 133.454 102.411 133.454C102.607 133.454 102.81 133.391 103.02 133.265C103.23 133.139 103.433 132.992 103.629 132.824C103.825 132.642 103.993 132.488 104.133 132.362C104.273 132.236 104.364 132.173 104.406 132.173C104.434 132.173 104.448 132.187 104.448 132.215C104.448 132.257 104.434 132.313 104.406 132.383C104.378 132.439 104.35 132.481 104.322 132.509C104.112 132.859 103.79 133.195 103.356 133.517C102.936 133.839 102.509 134 102.075 134C101.613 134 101.291 133.853 101.109 133.559C100.927 133.265 100.836 132.915 100.836 132.509C100.836 132.075 100.899 131.641 101.025 131.207C101.165 130.759 101.305 130.339 101.445 129.947C101.095 130.381 100.717 130.808 100.311 131.228C99.9052 131.634 99.4992 132.026 99.0932 132.404C98.9952 132.712 98.8062 133.034 98.5262 133.37C98.2602 133.706 97.9452 133.874 97.5812 133.874C97.5672 133.874 97.5322 133.867 97.4762 133.853C97.4342 133.839 97.4132 133.811 97.4132 133.769C97.4132 133.769 97.4132 133.762 97.4132 133.748C97.4132 133.734 97.4202 133.727 97.4342 133.727C97.5322 133.461 97.6582 133.139 97.8122 132.761C97.9802 132.383 98.1482 131.984 98.3162 131.564C98.4982 131.144 98.6452 130.745 98.7572 130.367C98.8832 129.989 98.9462 129.674 98.9462 129.422C98.9462 129.38 98.9392 129.331 98.9252 129.275C98.9252 129.219 98.8902 129.191 98.8202 129.191C98.6942 129.191 98.5122 129.296 98.2742 129.506C98.0502 129.702 97.7982 129.961 97.5182 130.283C97.2382 130.591 96.9582 130.913 96.6782 131.249C96.4122 131.585 96.1742 131.893 95.9642 132.173C95.7542 132.439 95.6142 132.628 95.5442 132.74C95.3202 133.062 95.1172 133.398 94.9352 133.748C94.9072 133.818 94.8162 133.902 94.6622 134C94.5222 134.084 94.3682 134.154 94.2002 134.21C94.0462 134.28 93.9272 134.315 93.8432 134.315ZM108.557 134.168C108.179 134.168 107.927 134.021 107.801 133.727C107.675 133.419 107.612 133.111 107.612 132.803C107.612 132.453 107.64 132.103 107.696 131.753C107.752 131.403 107.815 131.06 107.885 130.724C107.745 130.962 107.521 131.27 107.213 131.648C106.905 132.026 106.562 132.411 106.184 132.803C105.806 133.181 105.421 133.503 105.029 133.769C104.651 134.021 104.315 134.147 104.021 134.147C103.853 134.147 103.741 134.091 103.685 133.979C103.643 133.867 103.622 133.741 103.622 133.601C103.622 133.307 103.692 132.936 103.832 132.488C103.972 132.04 104.168 131.571 104.42 131.081C104.672 130.577 104.952 130.115 105.26 129.695C105.582 129.275 105.911 128.939 106.247 128.687C106.597 128.421 106.947 128.302 107.297 128.33C107.451 128.246 107.619 128.169 107.801 128.099C107.983 128.029 108.165 127.994 108.347 127.994C108.487 127.994 108.627 128.008 108.767 128.036C108.921 128.05 109.068 128.071 109.208 128.099C109.278 128.071 109.355 128.043 109.439 128.015C109.523 127.987 109.607 127.973 109.691 127.973C109.845 127.973 109.922 128.043 109.922 128.183C109.922 128.253 109.88 128.393 109.796 128.603C109.726 128.799 109.642 128.988 109.544 129.17C109.46 129.338 109.39 129.436 109.334 129.464C109.208 129.716 109.089 130.045 108.977 130.451C108.865 130.843 108.774 131.249 108.704 131.669C108.634 132.089 108.599 132.446 108.599 132.74C108.599 132.894 108.62 133.069 108.662 133.265C108.718 133.447 108.851 133.538 109.061 133.538C109.299 133.538 109.537 133.447 109.775 133.265C110.027 133.069 110.244 132.88 110.426 132.698C110.608 132.502 110.713 132.404 110.741 132.404C110.769 132.404 110.783 132.418 110.783 132.446C110.783 132.572 110.713 132.719 110.573 132.887C110.433 133.055 110.279 133.216 110.111 133.37C109.943 133.51 109.817 133.615 109.733 133.685C109.565 133.811 109.376 133.923 109.166 134.021C108.97 134.119 108.767 134.168 108.557 134.168ZM104.756 133.433C104.826 133.433 104.91 133.405 105.008 133.349C105.106 133.279 105.183 133.223 105.239 133.181C106.079 132.579 106.737 131.886 107.213 131.102C107.689 130.318 108.151 129.478 108.599 128.582C108.543 128.554 108.48 128.533 108.41 128.519C108.34 128.505 108.27 128.498 108.2 128.498C107.934 128.498 107.668 128.568 107.402 128.708C107.15 128.848 106.94 129.016 106.772 129.212C106.506 129.492 106.233 129.863 105.953 130.325C105.687 130.773 105.442 131.242 105.218 131.732C104.994 132.208 104.826 132.635 104.714 133.013C104.7 133.055 104.686 133.097 104.672 133.139C104.658 133.181 104.651 133.23 104.651 133.286C104.651 133.384 104.686 133.433 104.756 133.433ZM121.884 136.478C121.268 136.478 120.96 136.163 120.96 135.533C120.96 135.169 121.044 134.742 121.212 134.252C121.38 133.776 121.583 133.286 121.821 132.782C122.073 132.264 122.325 131.781 122.577 131.333C122.843 130.871 123.067 130.486 123.249 130.178C123.025 130.108 122.773 130.01 122.493 129.884C122.227 129.744 121.996 129.576 121.8 129.38C121.618 129.17 121.527 128.918 121.527 128.624C121.527 128.414 121.597 128.176 121.737 127.91C121.891 127.63 122.094 127.49 122.346 127.49C122.43 127.49 122.472 127.525 122.472 127.595C122.472 127.693 122.395 127.819 122.241 127.973C122.101 128.113 122.031 128.309 122.031 128.561C122.031 128.785 122.108 128.988 122.262 129.17C122.416 129.352 122.598 129.506 122.808 129.632C123.032 129.744 123.235 129.835 123.417 129.905C123.683 129.485 123.949 129.072 124.215 128.666C124.481 128.246 124.747 127.833 125.013 127.427C124.873 127.357 124.726 127.294 124.572 127.238C124.418 127.182 124.264 127.154 124.11 127.154C123.774 127.154 123.522 127.252 123.354 127.448C123.186 127.63 123.053 127.847 122.955 128.099C122.871 128.351 122.794 128.575 122.724 128.771C122.668 128.953 122.584 129.044 122.472 129.044C122.43 129.044 122.409 129.009 122.409 128.939C122.409 128.589 122.521 128.225 122.745 127.847C122.983 127.455 123.277 127.126 123.627 126.86C123.991 126.594 124.355 126.461 124.719 126.461C125.013 126.461 125.286 126.524 125.538 126.65C125.972 126.02 126.406 125.397 126.84 124.781C127.288 124.151 127.75 123.535 128.226 122.933C128.212 122.779 128.303 122.583 128.499 122.345C128.695 122.107 128.842 121.925 128.94 121.799C128.338 121.659 127.722 121.561 127.092 121.505C126.476 121.435 125.853 121.4 125.223 121.4C124.369 121.4 123.508 121.463 122.64 121.589C121.786 121.715 120.953 121.918 120.141 122.198C119.833 122.296 119.469 122.45 119.049 122.66C118.629 122.87 118.258 123.129 117.936 123.437C117.614 123.731 117.453 124.074 117.453 124.466C117.453 124.774 117.551 125.04 117.747 125.264C117.943 125.474 118.181 125.649 118.461 125.789C118.741 125.929 119 126.048 119.238 126.146C119.252 126.16 119.28 126.181 119.322 126.209C119.378 126.223 119.406 126.244 119.406 126.272C119.406 126.314 119.364 126.342 119.28 126.356C119.196 126.37 119.14 126.377 119.112 126.377C119.042 126.377 118.993 126.37 118.965 126.356C118.755 126.286 118.496 126.195 118.188 126.083C117.88 125.971 117.579 125.831 117.285 125.663C116.991 125.495 116.746 125.299 116.55 125.075C116.354 124.851 116.256 124.599 116.256 124.319C116.256 124.011 116.368 123.731 116.592 123.479C116.816 123.213 117.096 122.982 117.432 122.786C117.768 122.576 118.104 122.401 118.44 122.261C118.79 122.121 119.084 122.009 119.322 121.925C120.204 121.645 121.1 121.435 122.01 121.295C122.934 121.155 123.858 121.085 124.782 121.085C125.51 121.085 126.231 121.127 126.945 121.211C127.673 121.295 128.387 121.428 129.087 121.61C129.157 121.526 129.227 121.428 129.297 121.316C129.381 121.19 129.458 121.092 129.528 121.022C129.64 120.91 129.815 120.826 130.053 120.77C130.291 120.714 130.487 120.686 130.641 120.686C130.697 120.686 130.781 120.7 130.893 120.728C131.005 120.742 131.061 120.791 131.061 120.875C131.061 120.903 130.991 121.001 130.851 121.169C130.725 121.323 130.592 121.477 130.452 121.631C130.312 121.785 130.221 121.89 130.179 121.946C130.529 122.072 130.9 122.24 131.292 122.45C131.698 122.646 132.083 122.884 132.447 123.164C132.811 123.444 133.105 123.766 133.329 124.13C133.567 124.48 133.686 124.872 133.686 125.306C133.686 125.852 133.504 126.356 133.14 126.818C132.79 127.28 132.342 127.7 131.796 128.078C131.264 128.456 130.711 128.785 130.137 129.065C129.563 129.331 129.052 129.541 128.604 129.695C128.856 130.003 129.185 130.423 129.591 130.955C130.011 131.473 130.445 132.019 130.893 132.593C131.355 133.153 131.803 133.664 132.237 134.126C132.671 134.588 133.035 134.917 133.329 135.113C133.399 135.169 133.476 135.218 133.56 135.26C133.658 135.302 133.756 135.323 133.854 135.323C134.064 135.323 134.204 135.232 134.274 135.05C134.344 134.868 134.379 134.665 134.379 134.441C134.393 134.217 134.4 134.042 134.4 133.916C134.4 133.846 134.435 133.811 134.505 133.811C134.561 133.811 134.596 133.874 134.61 134C134.638 134.126 134.652 134.259 134.652 134.399C134.666 134.539 134.673 134.637 134.673 134.693C134.673 134.987 134.61 135.26 134.484 135.512C134.358 135.764 134.12 135.89 133.77 135.89C133.392 135.89 132.972 135.736 132.51 135.428C132.062 135.12 131.6 134.721 131.124 134.231C130.648 133.741 130.186 133.223 129.738 132.677C129.29 132.131 128.884 131.62 128.52 131.144C128.17 130.654 127.883 130.269 127.659 129.989C127.225 130.101 126.784 130.199 126.336 130.283C125.888 130.367 125.44 130.409 124.992 130.409C124.852 130.409 124.712 130.409 124.572 130.409C124.446 130.395 124.313 130.381 124.173 130.367C124.005 130.675 123.809 131.046 123.585 131.48C123.375 131.914 123.165 132.376 122.955 132.866C122.759 133.342 122.591 133.804 122.451 134.252C122.325 134.714 122.262 135.12 122.262 135.47C122.262 135.596 122.283 135.729 122.325 135.869C122.367 136.009 122.465 136.079 122.619 136.079C122.745 136.079 122.864 136.058 122.976 136.016C123.102 135.988 123.221 135.974 123.333 135.974C123.347 135.974 123.375 135.974 123.417 135.974C123.473 135.974 123.501 135.988 123.501 136.016C123.501 136.072 123.382 136.135 123.144 136.205C122.92 136.289 122.675 136.352 122.409 136.394C122.143 136.45 121.968 136.478 121.884 136.478ZM128.268 129.275C128.66 129.107 129.122 128.883 129.654 128.603C130.186 128.309 130.704 127.973 131.208 127.595C131.712 127.203 132.132 126.783 132.468 126.335C132.804 125.873 132.972 125.39 132.972 124.886C132.972 124.396 132.811 123.969 132.489 123.605C132.167 123.241 131.775 122.94 131.313 122.702C130.865 122.45 130.438 122.254 130.032 122.114C129.346 122.912 128.681 123.731 128.037 124.571C127.407 125.397 126.798 126.244 126.21 127.112C126.588 127.434 126.945 127.784 127.281 128.162C127.617 128.526 127.946 128.897 128.268 129.275ZM124.866 130.157C125.272 130.157 125.699 130.101 126.147 129.989C126.595 129.877 127.001 129.758 127.365 129.632C127.099 129.31 126.833 129.002 126.567 128.708C126.301 128.414 126.007 128.141 125.685 127.889C125.447 128.253 125.209 128.624 124.971 129.002C124.747 129.366 124.523 129.737 124.299 130.115C124.397 130.129 124.488 130.143 124.572 130.157C124.67 130.157 124.768 130.157 124.866 130.157ZM133.954 134.147C133.646 134.147 133.443 134.098 133.345 134C133.247 133.902 133.198 133.699 133.198 133.391C133.198 133.055 133.275 132.67 133.429 132.236C133.597 131.802 133.751 131.438 133.891 131.144C133.891 131.13 133.884 131.123 133.87 131.123C133.87 131.109 133.87 131.095 133.87 131.081C133.87 131.011 133.891 130.955 133.933 130.913C133.989 130.871 134.031 130.829 134.059 130.787C134.129 130.675 134.192 130.563 134.248 130.451C134.304 130.339 134.36 130.234 134.416 130.136C134.654 129.758 134.941 129.394 135.277 129.044C135.627 128.694 136.019 128.456 136.453 128.33C136.607 128.288 136.754 128.267 136.894 128.267C136.922 128.267 136.95 128.274 136.978 128.288C137.02 128.288 137.041 128.302 137.041 128.33C137.041 128.372 136.999 128.421 136.915 128.477C136.845 128.533 136.796 128.575 136.768 128.603C136.544 128.785 136.299 129.065 136.033 129.443C135.781 129.821 135.578 130.129 135.424 130.367C135.746 130.311 136.061 130.269 136.369 130.241C136.691 130.213 137.006 130.213 137.314 130.241C137.468 130.017 137.608 129.744 137.734 129.422C137.874 129.086 137.944 128.778 137.944 128.498C137.944 128.344 137.923 128.253 137.881 128.225C137.853 128.197 137.776 128.183 137.65 128.183C137.622 128.183 137.58 128.176 137.524 128.162C137.468 128.148 137.44 128.12 137.44 128.078C137.44 128.022 137.503 127.973 137.629 127.931C137.755 127.889 137.888 127.861 138.028 127.847C138.168 127.819 138.259 127.805 138.301 127.805C138.679 127.805 138.868 127.98 138.868 128.33C138.868 128.526 138.805 128.764 138.679 129.044C138.567 129.31 138.42 129.562 138.238 129.8C138.07 130.024 137.902 130.185 137.734 130.283C137.776 130.283 137.86 130.304 137.986 130.346C138.126 130.374 138.252 130.409 138.364 130.451C138.49 130.493 138.553 130.542 138.553 130.598C138.553 130.64 138.511 130.668 138.427 130.682C138.343 130.682 138.287 130.682 138.259 130.682C138.133 130.682 138.007 130.675 137.881 130.661C137.755 130.633 137.629 130.619 137.503 130.619C137.111 130.619 136.712 130.647 136.306 130.703C135.914 130.759 135.522 130.829 135.13 130.913C134.99 131.165 134.829 131.487 134.647 131.879C134.479 132.271 134.395 132.621 134.395 132.929C134.395 133.419 134.647 133.664 135.151 133.664C135.515 133.664 135.865 133.566 136.201 133.37C136.551 133.174 136.873 132.943 137.167 132.677C137.461 132.411 137.699 132.18 137.881 131.984C138.063 131.788 138.168 131.69 138.196 131.69C138.238 131.69 138.259 131.718 138.259 131.774C138.259 131.942 138.161 132.145 137.965 132.383C137.769 132.607 137.608 132.768 137.482 132.866C136.992 133.244 136.439 133.552 135.823 133.79C135.221 134.028 134.598 134.147 133.954 134.147ZM137.989 134.462C137.975 134.462 137.968 134.455 137.968 134.441C137.968 134.371 138.017 134.217 138.115 133.979C138.227 133.741 138.297 133.594 138.325 133.538C138.843 132.376 139.34 131.207 139.816 130.031C140.292 128.841 140.803 127.672 141.349 126.524C141.909 125.362 142.546 124.256 143.26 123.206C143.232 123.094 143.218 122.996 143.218 122.912C143.218 122.842 143.225 122.786 143.239 122.744L144.016 121.547C144.1 121.463 144.24 121.4 144.436 121.358C144.646 121.316 144.807 121.295 144.919 121.295C144.975 121.295 145.08 121.309 145.234 121.337C145.388 121.351 145.465 121.407 145.465 121.505C145.465 121.547 145.458 121.568 145.444 121.568C145.22 121.876 144.996 122.191 144.772 122.513C144.548 122.835 144.324 123.157 144.1 123.479C142.21 126.307 140.698 129.303 139.564 132.467C140.194 131.865 140.789 131.228 141.349 130.556C141.909 129.884 142.497 129.247 143.113 128.645C143.141 128.617 143.169 128.603 143.197 128.603C143.239 128.589 143.274 128.575 143.302 128.561C143.372 128.519 143.456 128.463 143.554 128.393C143.666 128.323 143.757 128.288 143.827 128.288C143.827 128.288 143.827 128.295 143.827 128.309H143.848C143.862 128.295 143.897 128.288 143.953 128.288C144.023 128.288 144.065 128.33 144.079 128.414C144.093 128.498 144.1 128.568 144.1 128.624C144.1 128.764 144.051 128.981 143.953 129.275C143.869 129.569 143.764 129.751 143.638 129.821C143.498 130.311 143.365 130.759 143.239 131.165C143.127 131.557 143.071 132.026 143.071 132.572C143.071 132.712 143.092 132.894 143.134 133.118C143.176 133.342 143.302 133.454 143.512 133.454C143.708 133.454 143.911 133.391 144.121 133.265C144.331 133.139 144.534 132.992 144.73 132.824C144.926 132.642 145.094 132.488 145.234 132.362C145.374 132.236 145.465 132.173 145.507 132.173C145.535 132.173 145.549 132.194 145.549 132.236C145.549 132.278 145.535 132.327 145.507 132.383C145.479 132.439 145.451 132.481 145.423 132.509C145.199 132.859 144.877 133.195 144.457 133.517C144.037 133.839 143.61 134 143.176 134C142.756 134 142.476 133.86 142.336 133.58C142.196 133.286 142.126 132.964 142.126 132.614C142.126 132.096 142.203 131.55 142.357 130.976C142.525 130.402 142.7 129.877 142.882 129.401C142.798 129.485 142.63 129.667 142.378 129.947C142.126 130.227 141.832 130.549 141.496 130.913C141.16 131.277 140.831 131.641 140.509 132.005C140.187 132.355 139.914 132.656 139.69 132.908C139.48 133.16 139.368 133.314 139.354 133.37C139.34 133.454 139.333 133.545 139.333 133.643C139.333 133.727 139.305 133.811 139.249 133.895C139.221 133.937 139.116 134 138.934 134.084C138.752 134.182 138.563 134.266 138.367 134.336C138.185 134.42 138.059 134.462 137.989 134.462ZM146.213 134.294C146.059 134.294 145.898 134.273 145.73 134.231C145.576 134.189 145.436 134.119 145.31 134.021C145.296 134.049 145.275 134.084 145.247 134.126C145.219 134.168 145.177 134.189 145.121 134.189C145.009 134.189 144.911 134.126 144.827 134C144.743 133.874 144.701 133.762 144.701 133.664C144.701 133.636 144.701 133.615 144.701 133.601C144.715 133.573 144.722 133.552 144.722 133.538C144.834 133.09 145.016 132.586 145.268 132.026C145.534 131.466 145.765 130.976 145.961 130.556C146.535 129.31 147.123 128.071 147.725 126.839C148.341 125.607 148.992 124.396 149.678 123.206C149.636 123.122 149.615 123.024 149.615 122.912C149.615 122.842 149.629 122.786 149.657 122.744C149.699 122.674 149.776 122.555 149.888 122.387C150 122.205 150.112 122.03 150.224 121.862C150.336 121.694 150.406 121.589 150.434 121.547C150.504 121.463 150.637 121.4 150.833 121.358C151.043 121.316 151.204 121.295 151.316 121.295C151.386 121.295 151.491 121.309 151.631 121.337C151.785 121.351 151.862 121.407 151.862 121.505C151.862 121.547 151.855 121.568 151.841 121.568C151.491 122.086 151.134 122.604 150.77 123.122C150.42 123.626 150.084 124.144 149.762 124.676C149.09 125.782 148.467 126.916 147.893 128.078C147.333 129.226 146.808 130.402 146.318 131.606C146.514 131.368 146.78 131.039 147.116 130.619C147.452 130.199 147.823 129.772 148.229 129.338C148.635 128.904 149.041 128.54 149.447 128.246C149.853 127.952 150.21 127.805 150.518 127.805C150.7 127.805 150.819 127.847 150.875 127.931C150.945 128.001 150.98 128.127 150.98 128.309C150.98 128.561 150.931 128.855 150.833 129.191C150.735 129.527 150.637 129.814 150.539 130.052C150.595 130.024 150.686 129.982 150.812 129.926C150.938 129.87 151.029 129.842 151.085 129.842C151.141 129.842 151.169 129.863 151.169 129.905C151.169 130.003 151.064 130.087 150.854 130.157C150.644 130.227 150.497 130.276 150.413 130.304C150.287 130.598 150.126 130.934 149.93 131.312C149.734 131.676 149.517 132.026 149.279 132.362C149.055 132.698 148.817 132.978 148.565 133.202C148.341 133.398 148.089 133.538 147.809 133.622C147.529 133.706 147.256 133.811 146.99 133.937C146.836 134.021 146.717 134.098 146.633 134.168C146.549 134.252 146.409 134.294 146.213 134.294ZM146.507 131.984C146.955 131.648 147.417 131.354 147.893 131.102C148.383 130.836 148.88 130.591 149.384 130.367C149.44 130.255 149.503 130.101 149.573 129.905C149.657 129.709 149.734 129.513 149.804 129.317C149.874 129.121 149.909 128.967 149.909 128.855C149.909 128.715 149.86 128.645 149.762 128.645C149.594 128.645 149.349 128.785 149.027 129.065C148.719 129.345 148.39 129.681 148.04 130.073C147.69 130.451 147.375 130.822 147.095 131.186C146.815 131.55 146.619 131.816 146.507 131.984ZM146.402 133.832C146.71 133.832 147.011 133.713 147.305 133.475C147.599 133.237 147.872 132.943 148.124 132.593C148.376 132.243 148.6 131.893 148.796 131.543C149.006 131.179 149.167 130.878 149.279 130.64C148.901 130.794 148.467 131.025 147.977 131.333C147.501 131.641 147.046 131.977 146.612 132.341C146.192 132.705 145.87 133.062 145.646 133.412C145.856 133.692 146.108 133.832 146.402 133.832ZM151.18 134.147C150.872 134.147 150.669 134.098 150.571 134C150.473 133.902 150.424 133.699 150.424 133.391C150.424 133.055 150.501 132.67 150.655 132.236C150.823 131.802 150.977 131.438 151.117 131.144C151.117 131.13 151.11 131.123 151.096 131.123C151.096 131.109 151.096 131.095 151.096 131.081C151.096 131.011 151.117 130.955 151.159 130.913C151.215 130.871 151.257 130.829 151.285 130.787C151.355 130.675 151.418 130.563 151.474 130.451C151.53 130.339 151.586 130.234 151.642 130.136C151.88 129.758 152.167 129.394 152.503 129.044C152.853 128.694 153.245 128.456 153.679 128.33C153.833 128.288 153.98 128.267 154.12 128.267C154.148 128.267 154.176 128.274 154.204 128.288C154.246 128.288 154.267 128.302 154.267 128.33C154.267 128.372 154.225 128.421 154.141 128.477C154.071 128.533 154.022 128.575 153.994 128.603C153.77 128.785 153.525 129.065 153.259 129.443C153.007 129.821 152.804 130.129 152.65 130.367C152.972 130.311 153.287 130.269 153.595 130.241C153.917 130.213 154.232 130.213 154.54 130.241C154.694 130.017 154.834 129.744 154.96 129.422C155.1 129.086 155.17 128.778 155.17 128.498C155.17 128.344 155.149 128.253 155.107 128.225C155.079 128.197 155.002 128.183 154.876 128.183C154.848 128.183 154.806 128.176 154.75 128.162C154.694 128.148 154.666 128.12 154.666 128.078C154.666 128.022 154.729 127.973 154.855 127.931C154.981 127.889 155.114 127.861 155.254 127.847C155.394 127.819 155.485 127.805 155.527 127.805C155.905 127.805 156.094 127.98 156.094 128.33C156.094 128.526 156.031 128.764 155.905 129.044C155.793 129.31 155.646 129.562 155.464 129.8C155.296 130.024 155.128 130.185 154.96 130.283C155.002 130.283 155.086 130.304 155.212 130.346C155.352 130.374 155.478 130.409 155.59 130.451C155.716 130.493 155.779 130.542 155.779 130.598C155.779 130.64 155.737 130.668 155.653 130.682C155.569 130.682 155.513 130.682 155.485 130.682C155.359 130.682 155.233 130.675 155.107 130.661C154.981 130.633 154.855 130.619 154.729 130.619C154.337 130.619 153.938 130.647 153.532 130.703C153.14 130.759 152.748 130.829 152.356 130.913C152.216 131.165 152.055 131.487 151.873 131.879C151.705 132.271 151.621 132.621 151.621 132.929C151.621 133.419 151.873 133.664 152.377 133.664C152.741 133.664 153.091 133.566 153.427 133.37C153.777 133.174 154.099 132.943 154.393 132.677C154.687 132.411 154.925 132.18 155.107 131.984C155.289 131.788 155.394 131.69 155.422 131.69C155.464 131.69 155.485 131.718 155.485 131.774C155.485 131.942 155.387 132.145 155.191 132.383C154.995 132.607 154.834 132.768 154.708 132.866C154.218 133.244 153.665 133.552 153.049 133.79C152.447 134.028 151.824 134.147 151.18 134.147ZM155.698 134.315C155.6 134.315 155.558 134.28 155.572 134.21C155.936 133.566 156.258 132.908 156.538 132.236C156.818 131.55 157.091 130.864 157.357 130.178L157.588 129.569C157.588 129.527 157.553 129.513 157.483 129.527C157.413 129.541 157.378 129.52 157.378 129.464C157.378 129.436 157.434 129.331 157.546 129.149C157.658 128.953 157.777 128.757 157.903 128.561C158.029 128.351 158.106 128.225 158.134 128.183C158.19 128.099 158.316 128.015 158.512 127.931C158.708 127.847 158.855 127.805 158.953 127.805C159.107 127.805 159.184 127.868 159.184 127.994C159.184 128.036 159.177 128.078 159.163 128.12C159.149 128.162 159.135 128.197 159.121 128.225C158.911 128.729 158.68 129.233 158.428 129.737C158.19 130.227 157.994 130.738 157.84 131.27C158.246 130.78 158.687 130.304 159.163 129.842C159.653 129.366 160.15 128.932 160.654 128.54C160.794 128.428 160.948 128.323 161.116 128.225C161.298 128.127 161.48 128.078 161.662 128.078C161.886 128.078 162.026 128.162 162.082 128.33C162.138 128.484 162.166 128.645 162.166 128.813C162.166 129.037 162.096 129.275 161.956 129.527C161.816 129.779 161.613 129.905 161.347 129.905C161.235 129.905 161.179 129.863 161.179 129.779C161.179 129.709 161.186 129.653 161.2 129.611C161.214 129.555 161.221 129.499 161.221 129.443C161.221 129.373 161.193 129.289 161.137 129.191C161.081 129.093 161.018 129.044 160.948 129.044C160.766 129.044 160.521 129.156 160.213 129.38C159.905 129.604 159.583 129.877 159.247 130.199C158.925 130.521 158.631 130.836 158.365 131.144C158.113 131.438 157.931 131.655 157.819 131.795C157.665 132.019 157.532 132.25 157.42 132.488C157.308 132.712 157.217 132.943 157.147 133.181C157.119 133.265 157.091 133.356 157.063 133.454C157.035 133.538 157.007 133.615 156.979 133.685C156.951 133.755 156.846 133.846 156.664 133.958C156.482 134.056 156.293 134.14 156.097 134.21C155.915 134.28 155.782 134.315 155.698 134.315ZM164.248 127.196C164.206 127.196 164.178 127.147 164.164 127.049C164.164 126.937 164.164 126.867 164.164 126.839C164.164 126.797 164.171 126.706 164.185 126.566C164.199 126.426 164.241 126.349 164.311 126.335C164.507 126.307 164.703 126.272 164.899 126.23C165.095 126.188 165.291 126.139 165.487 126.083C165.515 126.069 165.557 126.062 165.613 126.062C165.683 126.062 165.718 126.097 165.718 126.167C165.718 126.321 165.62 126.482 165.424 126.65C165.242 126.804 165.032 126.937 164.794 127.049C164.57 127.147 164.388 127.196 164.248 127.196ZM162.547 134C161.861 134 161.518 133.65 161.518 132.95C161.518 132.656 161.56 132.355 161.644 132.047C161.742 131.739 161.847 131.452 161.959 131.186C162.085 130.878 162.225 130.577 162.379 130.283C162.533 129.989 162.687 129.695 162.841 129.401C162.911 129.275 162.974 129.149 163.03 129.023C163.1 128.883 163.17 128.75 163.24 128.624C163.31 128.526 163.443 128.442 163.639 128.372C163.835 128.302 163.989 128.267 164.101 128.267C164.115 128.267 164.115 128.274 164.101 128.288C164.087 128.288 164.08 128.288 164.08 128.288C164.094 128.288 164.101 128.295 164.101 128.309C164.129 128.281 164.164 128.267 164.206 128.267C164.262 128.267 164.297 128.295 164.311 128.351C164.325 128.393 164.332 128.435 164.332 128.477C164.332 128.575 164.29 128.722 164.206 128.918C164.136 129.114 164.045 129.303 163.933 129.485C163.835 129.653 163.737 129.758 163.639 129.8C163.513 130.094 163.345 130.416 163.135 130.766C162.939 131.116 162.757 131.473 162.589 131.837C162.421 132.187 162.337 132.53 162.337 132.866C162.337 133.258 162.547 133.454 162.967 133.454C163.163 133.454 163.373 133.391 163.597 133.265C163.835 133.139 164.066 132.992 164.29 132.824C164.514 132.642 164.703 132.488 164.857 132.362C165.025 132.236 165.13 132.173 165.172 132.173C165.186 132.173 165.193 132.18 165.193 132.194C165.193 132.25 165.172 132.313 165.13 132.383C165.088 132.439 165.053 132.481 165.025 132.509C164.857 132.733 164.633 132.964 164.353 133.202C164.073 133.426 163.772 133.615 163.45 133.769C163.142 133.923 162.841 134 162.547 134Z" fill="#45535E"/>
<defs>
<linearGradient id="paint0_linear_59_887" x1="83" y1="24.1342" x2="83" y2="82.0001" gradientUnits="userSpaceOnUse">
<stop stop-color="#3EBB8D"/>
<stop offset="1" stop-color="#1C5540"/>
</linearGradient>
<linearGradient id="paint1_linear_59_887" x1="78.9382" y1="39.1858" x2="78.9382" y2="81.9999" gradientUnits="userSpaceOnUse">
<stop stop-color="#3EBB8D"/>
<stop offset="1" stop-color="#1C5540"/>
</linearGradient>
<linearGradient id="paint2_linear_59_887" x1="83.2428" y1="0" x2="83.2428" y2="43.0355" gradientUnits="userSpaceOnUse">
<stop offset="0.4" stop-color="#A42E2D"/>
<stop offset="1" stop-color="#007356"/>
</linearGradient>
</defs>
</svg>
