<svg width="16" height="14" viewBox="0 0 16 14" fill="none" xmlns="http://www.w3.org/2000/svg">
<path d="M3.66875 13.5375C3.125 13.5375 2.61875 13.4125 2.15625 13.1625C1.69375 12.9125 1.33125 12.5625 1.06875 12.1188C0.775 11.65 0.625 11.125 0.625 10.5375C0.625 10.1063 0.70625 9.68755 0.875 9.27505C1.04375 8.86255 1.2875 8.50005 1.60625 8.1813L7.59375 2.1938C7.8 1.98755 7.95 1.83755 8.05 1.7438C8.15 1.6438 8.28125 1.5313 8.4375 1.40005C8.59375 1.2688 8.74375 1.1563 8.89375 1.0688C9.60625 0.637549 10.375 0.425049 11.2125 0.425049C11.8375 0.425049 12.4312 0.556299 12.9937 0.812549C13.6062 1.0938 14.1062 1.4938 14.5125 2.0188C14.9125 2.5438 15.175 3.1438 15.2937 3.82505C15.35 4.0813 15.375 4.35005 15.375 4.6188C15.375 5.0188 15.325 5.4063 15.225 5.78755C15.125 6.1688 14.975 6.52505 14.7812 6.8688C14.5875 7.21255 14.35 7.52505 14.0688 7.8063L8.41875 13.3813C8.29375 13.5063 8.14375 13.5688 7.975 13.5688C7.8125 13.5688 7.675 13.5125 7.56875 13.4063C7.4375 13.2813 7.36875 13.1375 7.36875 12.975C7.36875 12.825 7.425 12.7 7.53125 12.6L13.025 7.0938C13.8 6.3188 14.1875 5.4938 14.1875 4.61255C14.1875 4.1438 14.0875 3.70005 13.8813 3.2813C13.675 2.86255 13.3937 2.51255 13.025 2.2313C12.6562 1.95005 12.2375 1.7688 11.7688 1.6813C11.6 1.65005 11.4125 1.63755 11.2188 1.63755C10.9563 1.63755 10.6938 1.67505 10.4375 1.7563C10.1812 1.83755 9.9625 1.92505 9.775 2.02505C9.5875 2.12505 9.36875 2.27505 9.125 2.4688C8.88125 2.66255 8.69375 2.82505 8.5625 2.9563C8.43125 3.08755 8.24375 3.2688 7.99375 3.51255L3.4125 8.0813C3.15 8.32505 2.94375 8.51255 2.80625 8.65005C2.66875 8.78755 2.5125 8.96255 2.3375 9.1813C2.1625 9.40005 2.0375 9.6188 1.95625 9.83755C1.875 10.0563 1.8375 10.2813 1.8375 10.5188C1.8375 11.0938 2.01875 11.5375 2.3875 11.85C2.75625 12.1563 3.175 12.3125 3.65625 12.3125C4.23125 12.3125 4.71875 12.1125 5.11875 11.7125L11.5375 5.2938C11.725 5.1063 11.8188 4.90005 11.8188 4.67505C11.8188 4.5938 11.8062 4.51255 11.775 4.4188C11.7375 4.3313 11.6875 4.2563 11.625 4.1938C11.5625 4.1313 11.4875 4.0813 11.4062 4.05005C11.325 4.01255 11.2375 4.00005 11.1438 4.00005C10.9375 4.00005 10.7437 4.08755 10.5562 4.2688C10.4562 4.36255 10.3 4.51255 10.1 4.71255L6.1 8.67505C5.98125 8.7938 5.84375 8.85005 5.68125 8.85005C5.51875 8.85005 5.3875 8.80005 5.28125 8.70005C5.16875 8.60005 5.11875 8.46255 5.11875 8.30005C5.11875 8.13755 5.175 8.00005 5.28125 7.88755C7.8375 5.28755 9.24375 3.8563 9.5125 3.58755C9.64375 3.4563 9.76875 3.3438 9.88125 3.2563C9.99375 3.1688 10.125 3.08755 10.2625 3.01255C10.4 2.93755 10.55 2.8813 10.7063 2.85005C10.8625 2.81255 11.0375 2.80005 11.2188 2.80005C11.3313 2.80005 11.4437 2.8063 11.5562 2.81255C11.9 2.87505 12.1937 3.01255 12.4312 3.22505C12.6687 3.43755 12.8375 3.7063 12.9438 4.02505C13.0063 4.23755 13.0375 4.43755 13.0375 4.63755C13.0375 5.2313 12.8313 5.73755 12.4187 6.15005C12.325 6.23755 12.2 6.36255 12.0437 6.52505C11.8875 6.68755 11.575 7.0063 11.1125 7.47505C10.65 7.9438 10.2 8.3938 9.76875 8.82505C9.3375 9.2563 8.85625 9.73755 8.3125 10.275C7.76875 10.8063 7.2875 11.275 6.875 11.675C6.45625 12.075 6.08125 12.4188 5.74375 12.7188C5.40625 13.0125 5.1875 13.1938 5.075 13.2438C4.6375 13.4313 4.16875 13.5375 3.66875 13.5375Z" fill="#1C5540"/>
</svg>
