<svg width="80" height="80" viewBox="0 0 80 80" fill="none" xmlns="http://www.w3.org/2000/svg">
<path d="M71.5546 57.1232C71.3666 56.3397 70.7398 56.2561 70.4786 56.2561C70.0398 56.2561 69.6115 56.4546 69.3608 56.7784C69.1414 57.0605 69.0683 57.4157 69.1623 57.8126C69.7056 60.0377 68.8071 62.4299 66.4984 64.9057C65.1926 66.3056 63.6987 67.4651 62.1839 68.2695L61.578 68.5933V60.1004L66.6029 55.5458C67.0417 55.1488 67.073 54.4802 66.676 54.0415C66.279 53.6027 65.6105 53.5714 65.1717 53.9683L61.578 57.2276V54.7205L66.3835 50.3748C66.8223 49.9778 66.8536 49.3092 66.4566 48.8705C66.0597 48.4317 65.3911 48.4004 64.9523 48.7974L61.578 51.8582V48.1288C61.578 47.3035 60.9512 46.9379 60.3349 46.9379C59.7185 46.9379 59.0917 47.3035 59.0917 48.1288V54.0937L55.1324 57.6768C54.6937 58.0738 54.6623 58.7424 55.0593 59.1811C55.2682 59.4109 55.5608 59.5258 55.8533 59.5258C56.104 59.5258 56.3651 59.4318 56.5636 59.2542L59.0813 56.9665V59.4736L55.3518 62.8478C54.9131 63.2448 54.8817 63.9133 55.2787 64.3521C55.4876 64.5819 55.7801 64.6968 56.0726 64.6968C56.3234 64.6968 56.5845 64.6028 56.783 64.4252L59.0917 62.3359V70.3065C59.0917 70.8915 59.4051 71.1945 59.6663 71.3303L59.7185 71.3616C59.9066 71.5079 60.1155 71.581 60.3558 71.581C60.4707 71.581 60.5961 71.5601 60.7319 71.5288C63.3749 70.7662 66.1119 68.9694 68.4415 66.4727C70.0294 64.7595 72.5679 61.2704 71.5546 57.1232Z" fill="#1D547D"/>
<path d="M28.0262 6.44273L21.6172 12.8515L21.6511 43.641L21.685 74.4304L22.2276 75.5494C23.2449 77.7196 25.3812 79.4151 27.5853 79.822C28.8061 80.0593 72.889 80.0593 74.1097 79.822C76.3139 79.4151 78.4163 77.7196 79.4675 75.5494L80.01 74.4304V40.0127V5.56109L79.4675 4.44209C78.4502 2.27191 76.3139 0.576454 74.1097 0.169545C73.4993 0.0678182 66.107 0 53.8316 0H34.469L28.0262 6.44273ZM73.9402 3.52654C74.8896 3.79782 76.1443 4.98464 76.5173 5.93409C76.7886 6.68009 76.8225 8.206 76.8225 40.0127C76.8225 71.8194 76.8225 73.3453 76.5173 74.0913C76.1443 75.0408 74.8896 76.2276 73.9402 76.4989C72.9907 76.7702 28.6704 76.7702 27.721 76.4989C26.8393 76.2276 25.5507 75.0408 25.1777 74.1592C24.8725 73.481 24.8725 72.2942 24.8047 43.1663L24.7708 12.9194H29.6538H34.5369V8.13818V3.32309H53.8994C68.3789 3.32309 73.4315 3.357 73.9402 3.52654Z" fill="#1D547D"/>
<path d="M53.8885 8.30503C53.6511 8.5763 53.6172 9.49185 53.6172 17.9013C53.6172 26.1751 53.6511 27.2263 53.8885 27.4298C54.0919 27.5993 56.0248 27.6332 63.4511 27.6332C72.2676 27.6332 72.7763 27.6332 73.0137 27.328C73.1832 27.0907 73.2171 25.2257 73.2171 17.7657V8.50848L72.8441 8.27112C72.505 8.03376 71.3182 7.99985 63.3154 7.99985C54.6345 7.99985 54.1258 7.99985 53.8885 8.30503Z" fill="#1D547D"/>
<path d="M30.1879 31.8406C29.8149 32.2475 29.781 34.7228 30.154 35.028C30.527 35.3332 71.4563 35.3332 71.8293 35.028C72.2362 34.6889 72.1684 32.1797 71.7954 31.8406C71.5241 31.5693 69.8286 31.5693 50.9747 31.5693C31.273 31.5354 30.4253 31.5693 30.1879 31.8406Z" fill="#1D547D"/>
<path d="M30.2636 40.9283C29.9245 41.1657 29.8906 41.3353 29.8906 42.556C29.8906 43.8106 29.9245 43.9802 30.2636 44.1836C30.6027 44.421 32.8408 44.4549 50.9826 44.4549C69.1244 44.4549 71.3624 44.421 71.7015 44.1836C72.0406 43.9463 72.0746 43.7767 72.0746 42.556C72.0746 41.3013 72.0406 41.1318 71.7015 40.9283C71.3624 40.691 69.1244 40.6571 50.9826 40.6571C32.8408 40.6571 30.6027 40.691 30.2636 40.9283Z" fill="#1D547D"/>
<path d="M29.8058 50.8571C29.6343 51.0238 29.6172 51.1428 29.6172 52C29.6172 52.8809 29.6343 53 29.8058 53.1428C29.9773 53.3095 31.1092 53.3333 40.2841 53.3333C49.459 53.3333 50.5909 53.3095 50.7624 53.1428C50.9339 52.9762 50.951 52.8571 50.951 52C50.951 51.119 50.9339 51 50.7624 50.8571C50.5909 50.6905 49.459 50.6667 40.2841 50.6667C31.1092 50.6667 29.9773 50.6905 29.8058 50.8571Z" fill="#1D547D"/>
<path d="M29.7228 58.997C29.5687 59.4375 29.5858 63.157 29.7571 63.5974C29.877 63.94 30.9387 63.989 40.2548 63.989C52.2424 63.989 50.9067 64.3315 50.9067 61.1993C50.9067 60.0248 50.8724 59.1438 50.8039 58.997C50.6841 58.5565 29.877 58.5565 29.7228 58.997Z" fill="#1D547D"/>
<path d="M30.9494 21.8688C30.7953 22.3092 30.8124 26.0287 30.9837 26.4692C31.1035 26.8118 32.1653 26.8607 41.4814 26.8607C53.469 26.8607 52.1332 27.2033 52.1332 24.0711C52.1332 22.8965 52.099 22.0156 52.0305 21.8688C51.9106 21.4283 31.1035 21.4283 30.9494 21.8688Z" fill="#1D547D"/>
<path d="M29.723 69.4815C29.5687 69.7037 29.5858 71.5803 29.7572 71.8025C29.8773 71.9753 30.9402 72 40.2841 72C49.628 72 50.691 71.9753 50.811 71.8025C50.9824 71.5803 50.9996 69.7037 50.8453 69.4815C50.7081 69.284 29.8773 69.284 29.723 69.4815Z" fill="#1D547D"/>
<g clip-path="url(#clip0_1400_3941)">
<rect y="24.5531" width="40.1511" height="55.447" rx="1.5" fill="white"/>
<path d="M3.7807 24.7468C3.40498 24.8407 2.91185 25.0286 2.65354 25.146C1.80816 25.5922 0.79841 26.6723 0.399205 27.5646L0 28.41V52.2678V76.1255L0.375723 76.9004C1.05672 78.3798 2.34826 79.4365 3.85115 79.7887C4.97832 80.0705 35.177 80.0705 36.3041 79.7887C37.807 79.4365 39.0986 78.3798 39.7796 76.9004L40.1553 76.1255V52.2678V28.41L39.7796 27.6351C39.1221 26.2027 37.854 25.146 36.3981 24.7468C35.3883 24.4885 4.81394 24.4885 3.7807 24.7468ZM33.7915 29.8659C34.3786 30.1946 34.8952 30.8286 35.0596 31.4627C35.1535 31.7914 35.2005 33.1064 35.177 34.8676C35.13 38.1551 35.0361 38.4838 34.0028 39.2117L33.4158 39.6109H20.0542H6.69255L6.10548 39.2117C5.07225 38.4838 4.97832 38.1551 4.93135 34.8676C4.88439 31.7679 4.97832 31.1809 5.51842 30.4999C5.91762 30.0303 6.26986 29.8189 6.85693 29.678C7.09176 29.6311 13.1268 29.6076 20.3125 29.6076C32.3591 29.6311 33.3923 29.6545 33.7915 29.8659ZM16.3909 45.1527C17.4711 45.8572 17.4946 45.9746 17.4946 51.0232C17.4946 56.0014 17.4946 55.9779 16.4848 56.7998L15.9682 57.199H11.2717H6.57514L6.082 56.8703C5.80021 56.7059 5.47145 56.2832 5.28359 56.0014C4.97832 55.4848 4.97832 55.3439 4.93135 51.305C4.88439 46.8434 4.95483 46.3503 5.5419 45.6458C6.31683 44.73 6.50469 44.7065 11.4126 44.73L15.8273 44.7535L16.3909 45.1527ZM33.6271 44.9414C34.3081 45.2466 34.8482 45.8806 35.0361 46.5851C35.13 46.9373 35.177 48.6046 35.1535 51.2815C35.1065 55.3204 35.1065 55.4378 34.8013 55.9779C34.6369 56.2832 34.2846 56.6824 34.0028 56.8468L33.5097 57.1755H28.8132H24.1167L23.6 56.7528C22.6138 55.9779 22.6138 55.9545 22.6138 50.9763C22.6138 46.8199 22.6373 46.5147 22.8956 46.0215C23.1774 45.458 23.7644 44.9883 24.3515 44.8005C24.5628 44.73 26.6058 44.6831 28.9071 44.6831C32.6878 44.7065 33.1575 44.73 33.6271 44.9414ZM16.0621 62.5529C16.6022 62.8582 17.1658 63.4452 17.3302 63.9149C17.4241 64.1497 17.4711 65.9108 17.4711 68.6817C17.4711 72.251 17.4241 73.1433 17.2832 73.4486C17.0014 73.9417 16.2265 74.6462 15.7334 74.7636C15.522 74.834 13.4555 74.881 11.1073 74.881C7.04479 74.881 6.83345 74.8575 6.31683 74.5992C6.01155 74.4583 5.61235 74.0591 5.37752 73.7538L4.97832 73.1668L4.93135 68.94C4.90787 66.1457 4.95483 64.5019 5.04877 64.1497C5.26011 63.3983 6.082 62.5764 6.83345 62.412C7.1622 62.3416 9.18171 62.2946 11.53 62.2946C15.0993 62.3181 15.7099 62.3651 16.0621 62.5529ZM33.181 62.412C34.0263 62.5999 34.7778 63.2808 35.0361 64.1027C35.2709 64.8776 35.2709 72.3684 35.0361 73.1198C34.8013 73.9417 34.0263 74.6227 33.181 74.8105C32.3356 74.9749 25.3612 75.0219 24.6098 74.834C23.9053 74.6696 23.2243 74.1765 22.8956 73.5895C22.6138 73.1198 22.6138 72.885 22.6138 68.6113C22.6138 64.9716 22.6607 64.0558 22.8016 63.7505C23.0834 63.2339 23.8818 62.5529 24.3515 62.4355C24.5628 62.3885 24.7742 62.3416 24.8446 62.3181C25.2203 62.2007 32.5469 62.2711 33.181 62.412Z" fill="#1D547D"/>
<path d="M10.0361 48.487L10.0831 49.708H8.79154H7.5V50.9995V52.291H8.76806C9.89523 52.291 10.0361 52.3145 10.0361 52.5259C10.0126 52.6668 10.0361 53.2303 10.0596 53.8174L10.0831 54.8741H11.3042H12.5253V53.5826V52.2676H13.8168H15.1084L15.0614 50.9995L15.0144 49.755L13.7699 49.708L12.5018 49.6611V48.4635V47.2424H11.2572H9.98916L10.0361 48.487Z" fill="#1D547D"/>
<path d="M25.1486 49.7788C25.1017 49.8257 25.0547 50.3893 25.0547 51.0703V52.2679H28.8354H32.6161V50.9764V49.6848H28.9293C26.8863 49.6848 25.1956 49.7318 25.1486 49.7788Z" fill="#1D547D"/>
<path d="M12.1413 65.8166L11.2724 66.7793L10.4035 65.8401L9.53468 64.9008L9.04154 65.3704C8.75975 65.6287 8.36055 66.0514 8.14921 66.3332L7.77348 66.8263L8.64234 67.6951L9.5112 68.564L8.64234 69.4093C8.14921 69.879 7.75 70.3017 7.75 70.3486C7.75 70.3956 8.14921 70.7713 8.64234 71.2175L9.53468 72.0158L10.4035 71.147L11.2724 70.3017L12.1413 71.147L13.0101 72.0158L13.6676 71.4758C14.0199 71.1705 14.4425 70.7948 14.5834 70.6304L14.8652 70.3251L13.9964 69.4563L13.1275 68.5875L13.9729 67.7186C14.4425 67.249 14.8183 66.8028 14.7948 66.7089C14.7713 66.6385 14.3721 66.1923 13.9024 65.6757L13.0571 64.8069L12.1413 65.8166Z" fill="#1D547D"/>
<path d="M25.0547 66.122V67.4136H28.8354H32.6161V66.122V64.8305H28.8354H25.0547V66.122Z" fill="#1D547D"/>
<path d="M25.0547 71.124V72.4155H28.8354H32.6161V71.124V69.8325H28.8354H25.0547V71.124Z" fill="#1D547D"/>
<path d="M3.93262 28.1009V27.5072L3.55469 28.1009H3.93262ZM4.17676 28.5531H3.93262V28.3372H3.30859V28.1009L3.92285 27.1312H4.17676V28.1009H4.29688V28.3372H4.17676V28.5531ZM4.49707 28.097H4.7627V28.1068C4.7627 28.1732 4.7806 28.2266 4.81641 28.2669C4.85221 28.3073 4.89909 28.3275 4.95703 28.3275C5.02083 28.3275 5.07259 28.305 5.1123 28.2601C5.15267 28.2145 5.17285 28.1556 5.17285 28.0833C5.17285 28.0098 5.15072 27.9544 5.10645 27.9173C5.06217 27.8796 4.99642 27.8607 4.90918 27.8607C4.90527 27.8607 4.89876 27.861 4.88965 27.8617C4.88053 27.8623 4.8737 27.8626 4.86914 27.8626V27.6273C4.8737 27.6273 4.88021 27.6276 4.88867 27.6283C4.89714 27.6289 4.90332 27.6292 4.90723 27.6292C4.96647 27.6292 5.00977 27.6175 5.03711 27.5941C5.0651 27.5706 5.0791 27.5335 5.0791 27.4828C5.0791 27.4411 5.06836 27.4089 5.04688 27.3861C5.02539 27.3626 4.99544 27.3509 4.95703 27.3509C4.92253 27.3509 4.89551 27.363 4.87598 27.3871C4.8571 27.4105 4.84668 27.4437 4.84473 27.4867H4.59863C4.59863 27.3714 4.63281 27.2787 4.70117 27.2083C4.77018 27.138 4.86068 27.1029 4.97266 27.1029C5.07227 27.1029 5.1569 27.1377 5.22656 27.2074C5.29622 27.277 5.33105 27.3604 5.33105 27.4574C5.33105 27.5153 5.31966 27.5658 5.29688 27.6087C5.27409 27.6517 5.23861 27.6898 5.19043 27.723C5.27181 27.7595 5.33236 27.8096 5.37207 27.8734C5.41243 27.9365 5.43262 28.0143 5.43262 28.1068C5.43262 28.1686 5.42285 28.2256 5.40332 28.2777C5.38379 28.3291 5.35352 28.3783 5.3125 28.4251C5.26367 28.4811 5.21257 28.5212 5.15918 28.5453C5.10579 28.5693 5.04102 28.5814 4.96484 28.5814C4.81836 28.5814 4.70378 28.5391 4.62109 28.4544C4.53841 28.3698 4.49707 28.2526 4.49707 28.1029V28.097ZM5.65918 28.097H5.9248V28.1068C5.9248 28.1732 5.94271 28.2266 5.97852 28.2669C6.01432 28.3073 6.0612 28.3275 6.11914 28.3275C6.18294 28.3275 6.2347 28.305 6.27441 28.2601C6.31478 28.2145 6.33496 28.1556 6.33496 28.0833C6.33496 28.0098 6.31283 27.9544 6.26855 27.9173C6.22428 27.8796 6.15853 27.8607 6.07129 27.8607C6.06738 27.8607 6.06087 27.861 6.05176 27.8617C6.04264 27.8623 6.03581 27.8626 6.03125 27.8626V27.6273C6.03581 27.6273 6.04232 27.6276 6.05078 27.6283C6.05924 27.6289 6.06543 27.6292 6.06934 27.6292C6.12858 27.6292 6.17188 27.6175 6.19922 27.5941C6.22721 27.5706 6.24121 27.5335 6.24121 27.4828C6.24121 27.4411 6.23047 27.4089 6.20898 27.3861C6.1875 27.3626 6.15755 27.3509 6.11914 27.3509C6.08464 27.3509 6.05762 27.363 6.03809 27.3871C6.01921 27.4105 6.00879 27.4437 6.00684 27.4867H5.76074C5.76074 27.3714 5.79492 27.2787 5.86328 27.2083C5.93229 27.138 6.02279 27.1029 6.13477 27.1029C6.23438 27.1029 6.31901 27.1377 6.38867 27.2074C6.45833 27.277 6.49316 27.3604 6.49316 27.4574C6.49316 27.5153 6.48177 27.5658 6.45898 27.6087C6.4362 27.6517 6.40072 27.6898 6.35254 27.723C6.43392 27.7595 6.49447 27.8096 6.53418 27.8734C6.57454 27.9365 6.59473 28.0143 6.59473 28.1068C6.59473 28.1686 6.58496 28.2256 6.56543 28.2777C6.5459 28.3291 6.51562 28.3783 6.47461 28.4251C6.42578 28.4811 6.37467 28.5212 6.32129 28.5453C6.2679 28.5693 6.20312 28.5814 6.12695 28.5814C5.98047 28.5814 5.86589 28.5391 5.7832 28.4544C5.70052 28.3698 5.65918 28.2526 5.65918 28.1029V28.097ZM7.75293 28.5531H6.81543V28.2874L7.33105 27.805C7.37988 27.7595 7.41667 27.7145 7.44141 27.6703C7.46615 27.626 7.47852 27.5837 7.47852 27.5433C7.47852 27.4899 7.46126 27.446 7.42676 27.4115C7.3929 27.3763 7.34896 27.3587 7.29492 27.3587C7.23763 27.3587 7.19336 27.3773 7.16211 27.4144C7.13086 27.4515 7.11523 27.5036 7.11523 27.5706V27.5951H6.83496V27.5912C6.83496 27.4447 6.8776 27.3272 6.96289 27.2386C7.04818 27.1494 7.16081 27.1048 7.30078 27.1048C7.43034 27.1048 7.53906 27.1475 7.62695 27.2328C7.71484 27.318 7.75879 27.4222 7.75879 27.5453C7.75879 27.613 7.74154 27.679 7.70703 27.7435C7.67253 27.808 7.61914 27.8724 7.54688 27.9369L7.14941 28.2972H7.75293V28.5531ZM8.28711 28.2855V28.5394C8.28711 28.6312 8.26693 28.6986 8.22656 28.7415C8.18685 28.7845 8.1237 28.807 8.03711 28.8089V28.6654C8.06706 28.6615 8.08822 28.6517 8.10059 28.6361C8.11296 28.6211 8.11914 28.5967 8.11914 28.5628V28.5531H8.03711V28.2855H8.28711ZM8.81543 27.6273V28.055C8.81543 28.1475 8.83301 28.2162 8.86816 28.2611C8.90397 28.3053 8.95898 28.3275 9.0332 28.3275C9.10807 28.3275 9.16341 28.3047 9.19922 28.2591C9.23503 28.2136 9.25293 28.1429 9.25293 28.0472V27.6068C9.25293 27.5664 9.25098 27.5361 9.24707 27.516C9.24382 27.4958 9.23796 27.4782 9.22949 27.4632C9.20931 27.4294 9.18229 27.4033 9.14844 27.3851C9.11523 27.3662 9.07747 27.3568 9.03516 27.3568C8.96224 27.3568 8.90723 27.3796 8.87012 27.4251C8.83366 27.4701 8.81543 27.5374 8.81543 27.6273ZM8.53711 27.6292C8.53711 27.5407 8.54395 27.4727 8.55762 27.4251C8.57129 27.377 8.59375 27.333 8.625 27.2933C8.67383 27.2289 8.7321 27.181 8.7998 27.1497C8.86751 27.1185 8.94596 27.1029 9.03516 27.1029C9.11849 27.1029 9.19499 27.1195 9.26465 27.1527C9.33496 27.1852 9.39583 27.2334 9.44727 27.2972C9.47656 27.3337 9.49772 27.3779 9.51074 27.43C9.52441 27.4821 9.53125 27.5498 9.53125 27.6331V28.055C9.53125 28.1436 9.52441 28.2122 9.51074 28.2611C9.49707 28.3093 9.47461 28.3532 9.44336 28.3929C9.39453 28.4567 9.33626 28.5042 9.26855 28.5355C9.2015 28.5661 9.12305 28.5814 9.0332 28.5814C8.94987 28.5814 8.87305 28.5651 8.80273 28.5326C8.73307 28.4994 8.67253 28.4509 8.62109 28.3871C8.5918 28.3506 8.57031 28.3067 8.55664 28.2552C8.54362 28.2031 8.53711 28.1358 8.53711 28.0531V27.6292ZM10.5537 27.1312V27.3773H10.0654L10.0215 27.6214C10.0508 27.6045 10.0817 27.5918 10.1143 27.5833C10.1468 27.5749 10.181 27.5706 10.2168 27.5706C10.3477 27.5706 10.459 27.6195 10.5508 27.7171C10.6432 27.8148 10.6895 27.9326 10.6895 28.0706C10.6895 28.1331 10.6784 28.193 10.6562 28.2503C10.6348 28.307 10.6032 28.3591 10.5615 28.4066C10.5114 28.4652 10.4541 28.5095 10.3896 28.5394C10.3258 28.5687 10.2565 28.5833 10.1816 28.5833C10.0469 28.5833 9.93294 28.5397 9.83984 28.4525C9.7474 28.3646 9.69531 28.2507 9.68359 28.1107H9.95117C9.95898 28.1745 9.98405 28.2262 10.0264 28.266C10.0687 28.3057 10.1198 28.3255 10.1797 28.3255C10.2448 28.3255 10.2988 28.3014 10.3418 28.2533C10.3854 28.2044 10.4072 28.1429 10.4072 28.0687C10.4072 27.9951 10.3854 27.9359 10.3418 27.891C10.2982 27.8454 10.2406 27.8226 10.1689 27.8226C10.126 27.8226 10.0889 27.8314 10.0576 27.849C10.027 27.8659 10.0023 27.8913 9.9834 27.9251L9.74707 27.8714L9.88281 27.1312H10.5537Z" fill="#1D547D"/>
<path d="M10.2979 35.6436V33.8623L9.16406 35.6436H10.2979ZM11.0303 37H10.2979V36.3526H8.42578V35.6436L10.2686 32.7344H11.0303V35.6436H11.3906V36.3526H11.0303V37ZM11.9912 35.6319H12.7881V35.6612C12.7881 35.8604 12.8418 36.0205 12.9492 36.1416C13.0566 36.2627 13.1973 36.3233 13.3711 36.3233C13.5625 36.3233 13.7178 36.2559 13.8369 36.1211C13.958 35.9844 14.0186 35.8076 14.0186 35.5909C14.0186 35.3701 13.9521 35.2041 13.8193 35.0928C13.6865 34.9795 13.4893 34.9229 13.2275 34.9229C13.2158 34.9229 13.1963 34.9239 13.1689 34.9258C13.1416 34.9278 13.1211 34.9287 13.1074 34.9287V34.2227C13.1211 34.2227 13.1406 34.2237 13.166 34.2256C13.1914 34.2276 13.21 34.2285 13.2217 34.2285C13.3994 34.2285 13.5293 34.1934 13.6113 34.1231C13.6953 34.0528 13.7373 33.9414 13.7373 33.7891C13.7373 33.6641 13.7051 33.5674 13.6406 33.4991C13.5762 33.4287 13.4863 33.3936 13.3711 33.3936C13.2676 33.3936 13.1865 33.4297 13.1279 33.502C13.0713 33.5723 13.04 33.6719 13.0342 33.8008H12.2959C12.2959 33.4551 12.3984 33.1768 12.6035 32.9659C12.8105 32.7549 13.082 32.6494 13.418 32.6494C13.7168 32.6494 13.9707 32.7539 14.1797 32.9629C14.3887 33.1719 14.4932 33.4219 14.4932 33.7129C14.4932 33.8867 14.459 34.0381 14.3906 34.167C14.3223 34.2959 14.2158 34.4102 14.0713 34.5098C14.3154 34.6192 14.4971 34.7696 14.6162 34.961C14.7373 35.1504 14.7979 35.3838 14.7979 35.6612C14.7979 35.8467 14.7686 36.0176 14.71 36.1739C14.6514 36.3282 14.5605 36.4756 14.4375 36.6162C14.291 36.7842 14.1377 36.9043 13.9775 36.9766C13.8174 37.0489 13.623 37.085 13.3945 37.085C12.9551 37.085 12.6113 36.958 12.3633 36.7041C12.1152 36.4502 11.9912 36.0987 11.9912 35.6494V35.6319ZM15.4775 35.6319H16.2744V35.6612C16.2744 35.8604 16.3281 36.0205 16.4355 36.1416C16.543 36.2627 16.6836 36.3233 16.8574 36.3233C17.0488 36.3233 17.2041 36.2559 17.3232 36.1211C17.4443 35.9844 17.5049 35.8076 17.5049 35.5909C17.5049 35.3701 17.4385 35.2041 17.3057 35.0928C17.1729 34.9795 16.9756 34.9229 16.7139 34.9229C16.7021 34.9229 16.6826 34.9239 16.6553 34.9258C16.6279 34.9278 16.6074 34.9287 16.5938 34.9287V34.2227C16.6074 34.2227 16.627 34.2237 16.6523 34.2256C16.6777 34.2276 16.6963 34.2285 16.708 34.2285C16.8857 34.2285 17.0156 34.1934 17.0977 34.1231C17.1816 34.0528 17.2236 33.9414 17.2236 33.7891C17.2236 33.6641 17.1914 33.5674 17.127 33.4991C17.0625 33.4287 16.9727 33.3936 16.8574 33.3936C16.7539 33.3936 16.6729 33.4297 16.6143 33.502C16.5576 33.5723 16.5264 33.6719 16.5205 33.8008H15.7822C15.7822 33.4551 15.8848 33.1768 16.0898 32.9659C16.2969 32.7549 16.5684 32.6494 16.9043 32.6494C17.2031 32.6494 17.457 32.7539 17.666 32.9629C17.875 33.1719 17.9795 33.4219 17.9795 33.7129C17.9795 33.8867 17.9453 34.0381 17.877 34.167C17.8086 34.2959 17.7021 34.4102 17.5576 34.5098C17.8018 34.6192 17.9834 34.7696 18.1025 34.961C18.2236 35.1504 18.2842 35.3838 18.2842 35.6612C18.2842 35.8467 18.2549 36.0176 18.1963 36.1739C18.1377 36.3282 18.0469 36.4756 17.9238 36.6162C17.7773 36.7842 17.624 36.9043 17.4639 36.9766C17.3037 37.0489 17.1094 37.085 16.8809 37.085C16.4414 37.085 16.0977 36.958 15.8496 36.7041C15.6016 36.4502 15.4775 36.0987 15.4775 35.6494V35.6319ZM21.7588 37H18.9463V36.2032L20.4932 34.7559C20.6396 34.6192 20.75 34.4844 20.8242 34.3516C20.8984 34.2188 20.9355 34.0918 20.9355 33.9707C20.9355 33.8106 20.8838 33.6787 20.7803 33.5752C20.6787 33.4698 20.5469 33.417 20.3848 33.417C20.2129 33.417 20.0801 33.4727 19.9863 33.584C19.8926 33.6953 19.8457 33.8516 19.8457 34.0528V34.126H19.0049V34.1143C19.0049 33.6748 19.1328 33.3223 19.3887 33.0567C19.6445 32.7891 19.9824 32.6553 20.4023 32.6553C20.791 32.6553 21.1172 32.7832 21.3809 33.0391C21.6445 33.295 21.7764 33.6075 21.7764 33.9766C21.7764 34.1797 21.7246 34.378 21.6211 34.5713C21.5176 34.7647 21.3574 34.958 21.1406 35.1514L19.9482 36.2325H21.7588V37ZM23.3613 36.1973V36.959C23.3613 37.2344 23.3008 37.4366 23.1797 37.5655C23.0605 37.6944 22.8711 37.7617 22.6113 37.7676V37.3369C22.7012 37.3252 22.7646 37.2959 22.8018 37.2491C22.8389 37.2041 22.8574 37.1309 22.8574 37.0293V37H22.6113V36.1973H23.3613ZM24.9463 34.2227V35.5059C24.9463 35.7832 24.999 35.9893 25.1045 36.1241C25.2119 36.2569 25.377 36.3233 25.5996 36.3233C25.8242 36.3233 25.9902 36.2549 26.0977 36.1182C26.2051 35.9815 26.2588 35.7696 26.2588 35.4825V34.1612C26.2588 34.0401 26.2529 33.9492 26.2412 33.8887C26.2314 33.8282 26.2139 33.7754 26.1885 33.7305C26.1279 33.6289 26.0469 33.5508 25.9453 33.4961C25.8457 33.4395 25.7324 33.4112 25.6055 33.4112C25.3867 33.4112 25.2217 33.4795 25.1104 33.6162C25.001 33.751 24.9463 33.9532 24.9463 34.2227ZM24.1113 34.2285C24.1113 33.9629 24.1318 33.7588 24.1729 33.6162C24.2139 33.4717 24.2812 33.3399 24.375 33.2207C24.5215 33.0274 24.6963 32.8838 24.8994 32.7901C25.1025 32.6963 25.3379 32.6494 25.6055 32.6494C25.8555 32.6494 26.085 32.6992 26.2939 32.7989C26.5049 32.8965 26.6875 33.041 26.8418 33.2325C26.9297 33.3418 26.9932 33.4746 27.0322 33.6309C27.0732 33.7871 27.0938 33.9903 27.0938 34.2403V35.5059C27.0938 35.7715 27.0732 35.9776 27.0322 36.1241C26.9912 36.2686 26.9238 36.4004 26.8301 36.5196C26.6836 36.711 26.5088 36.8535 26.3057 36.9473C26.1045 37.0391 25.8691 37.085 25.5996 37.085C25.3496 37.085 25.1191 37.0362 24.9082 36.9385C24.6992 36.8389 24.5176 36.6934 24.3633 36.502C24.2754 36.3926 24.2109 36.2608 24.1699 36.1065C24.1309 35.9502 24.1113 35.7481 24.1113 35.5V34.2285ZM30.1611 32.7344V33.4727H28.6963L28.5645 34.2051C28.6523 34.1543 28.7451 34.1162 28.8428 34.0909C28.9404 34.0655 29.043 34.0528 29.1504 34.0528C29.543 34.0528 29.877 34.1992 30.1523 34.4922C30.4297 34.7852 30.5684 35.1387 30.5684 35.5528C30.5684 35.7403 30.5352 35.92 30.4688 36.0918C30.4043 36.2617 30.3096 36.418 30.1846 36.5606C30.0342 36.7364 29.8623 36.8692 29.6689 36.959C29.4775 37.0469 29.2695 37.0909 29.0449 37.0909C28.6406 37.0909 28.2988 36.96 28.0195 36.6983C27.7422 36.4346 27.5859 36.0928 27.5508 35.6729H28.3535C28.377 35.8643 28.4521 36.0196 28.5791 36.1387C28.7061 36.2578 28.8594 36.3174 29.0391 36.3174C29.2344 36.3174 29.3965 36.2451 29.5254 36.1006C29.6562 35.9541 29.7217 35.7696 29.7217 35.5469C29.7217 35.3262 29.6562 35.1485 29.5254 35.0137C29.3945 34.877 29.2217 34.8086 29.0068 34.8086C28.8779 34.8086 28.7666 34.835 28.6729 34.8877C28.5811 34.9385 28.5068 35.0147 28.4502 35.1162L27.7412 34.9551L28.1484 32.7344H30.1611Z" fill="#1D547D"/>
</g>
<defs>
<clipPath id="clip0_1400_3941">
<rect y="24.5531" width="40.1511" height="55.447" rx="1.5" fill="white"/>
</clipPath>
</defs>
</svg>
