<svg width="24" height="24" viewBox="0 0 24 24" fill="none" xmlns="http://www.w3.org/2000/svg">
<path d="M21.4695 17.1369C21.4131 16.9018 21.2251 16.8768 21.1467 16.8768C21.0151 16.8768 20.8866 16.9363 20.8114 17.0335C20.7456 17.1181 20.7236 17.2246 20.7518 17.3437C20.9148 18.0112 20.6453 18.7289 19.9527 19.4717C19.5609 19.8916 19.1127 20.2395 18.6583 20.4808L18.4765 20.5779V18.03L19.984 16.6637C20.1156 16.5446 20.125 16.344 20.0059 16.2124C19.8868 16.0807 19.6863 16.0713 19.5546 16.1904L18.4765 17.1682V16.4161L19.9182 15.1124C20.0498 14.9933 20.0592 14.7927 19.9401 14.6611C19.821 14.5295 19.6204 14.52 19.4888 14.6391L18.4765 15.5574V14.4386C18.4765 14.191 18.2885 14.0813 18.1036 14.0813C17.9187 14.0813 17.7306 14.191 17.7306 14.4386V16.228L16.5429 17.303C16.4112 17.4221 16.4018 17.6226 16.5209 17.7543C16.5836 17.8232 16.6714 17.8577 16.7591 17.8577C16.8343 17.8577 16.9127 17.8295 16.9722 17.7762L17.7275 17.0899V17.842L16.6087 18.8543C16.477 18.9734 16.4676 19.1739 16.5867 19.3056C16.6494 19.3745 16.7372 19.409 16.8249 19.409C16.9001 19.409 16.9785 19.3808 17.038 19.3275L17.7306 18.7007V21.0919C17.7306 21.2674 17.8247 21.3583 17.903 21.399L17.9187 21.4084C17.9751 21.4523 18.0378 21.4742 18.1099 21.4742C18.1443 21.4742 18.1819 21.468 18.2227 21.4586C19.0156 21.2298 19.8367 20.6908 20.5356 19.9417C21.0119 19.4278 21.7735 18.381 21.4695 17.1369Z" fill="#01A4BD"/>
<path d="M8.39144 1.93282L6.46875 3.85546L6.47892 13.0923L6.4891 22.3291L6.65186 22.6648C6.95705 23.3159 7.59795 23.8245 8.25919 23.9466C8.62542 24.0178 21.8503 24.0178 22.2165 23.9466C22.8778 23.8245 23.5085 23.3159 23.8238 22.6648L23.9866 22.3291V12.0038V1.66833L23.8238 1.33263C23.5187 0.681573 22.8778 0.172936 22.2165 0.0508636C22.0334 0.0203454 19.8157 0 16.1331 0H10.3243L8.39144 1.93282ZM22.1656 1.05796C22.4505 1.13935 22.8269 1.49539 22.9388 1.78023C23.0202 2.00403 23.0303 2.4618 23.0303 12.0038C23.0303 21.5458 23.0303 22.0036 22.9388 22.2274C22.8269 22.5122 22.4505 22.8683 22.1656 22.9497C21.8808 23.031 8.58473 23.031 8.29988 22.9497C8.03539 22.8683 7.64881 22.5122 7.53691 22.2477C7.44536 22.0443 7.44536 21.6882 7.42501 12.9499L7.41484 3.87581H8.87974H10.3447V2.44145V0.996927H16.1534C20.4973 0.996927 22.0131 1.0071 22.1656 1.05796Z" fill="#01A4BD"/>
<path d="M16.1517 2.49152C16.0805 2.5729 16.0703 2.84756 16.0703 5.3704C16.0703 7.85254 16.0805 8.1679 16.1517 8.22893C16.2127 8.2798 16.7926 8.28997 19.0205 8.28997C21.6654 8.28997 21.818 8.28997 21.8893 8.19842C21.9401 8.12721 21.9503 7.56771 21.9503 5.32971V2.55255L21.8384 2.48135C21.7367 2.41014 21.3806 2.39996 18.9798 2.39996C16.3755 2.39996 16.2229 2.39996 16.1517 2.49152Z" fill="#01A4BD"/>
<path d="M9.04231 9.55217C8.93041 9.67424 8.92024 10.4168 9.03214 10.5084C9.14404 10.6 21.4228 10.6 21.5347 10.5084C21.6568 10.4067 21.6365 9.65389 21.5245 9.55217C21.4432 9.47078 20.9345 9.47078 15.2783 9.47078C9.36785 9.46061 9.11352 9.47078 9.04231 9.55217Z" fill="#01A4BD"/>
<path d="M9.06503 12.2785C8.9633 12.3497 8.95312 12.4006 8.95312 12.7668C8.95312 13.1432 8.9633 13.1941 9.06503 13.2551C9.16676 13.3263 9.83817 13.3365 15.2807 13.3365C20.7233 13.3365 21.3947 13.3263 21.4964 13.2551C21.5981 13.1839 21.6083 13.133 21.6083 12.7668C21.6083 12.3904 21.5981 12.3396 21.4964 12.2785C21.3947 12.2073 20.7233 12.1971 15.2807 12.1971C9.83817 12.1971 9.16676 12.2073 9.06503 12.2785Z" fill="#01A4BD"/>
<path d="M8.92378 15.2572C8.87233 15.3072 8.86719 15.3429 8.86719 15.6C8.86719 15.8643 8.87233 15.9 8.92378 15.9429C8.97523 15.9929 9.31479 16 12.0673 16C14.8197 16 15.1593 15.9929 15.2108 15.9429C15.2622 15.8929 15.2673 15.8572 15.2673 15.6C15.2673 15.3357 15.2622 15.3 15.2108 15.2572C15.1593 15.2072 14.8197 15.2 12.0673 15.2C9.31479 15.2 8.97523 15.2072 8.92378 15.2572Z" fill="#01A4BD"/>
<path d="M8.89888 17.6991C8.85264 17.8312 8.85778 18.9471 8.90916 19.0792C8.94512 19.182 9.26365 19.1967 12.0585 19.1967C15.6548 19.1967 15.254 19.2994 15.254 18.3598C15.254 18.0074 15.2438 17.7431 15.2232 17.6991C15.1872 17.5669 8.94512 17.5669 8.89888 17.6991Z" fill="#01A4BD"/>
<path d="M9.26607 6.56065C9.21983 6.69279 9.22497 7.80864 9.27635 7.94078C9.31231 8.04355 9.63084 8.05824 12.4257 8.05824C16.022 8.05824 15.6212 8.16101 15.6212 7.22135C15.6212 6.86898 15.6109 6.6047 15.5904 6.56065C15.5544 6.42851 9.31231 6.42851 9.26607 6.56065Z" fill="#01A4BD"/>
<path d="M8.89892 20.8444C8.85263 20.9111 8.85777 21.4741 8.90921 21.5407C8.94521 21.5926 9.2641 21.6 12.0673 21.6C14.8704 21.6 15.1893 21.5926 15.2253 21.5407C15.2768 21.4741 15.2819 20.9111 15.2356 20.8444C15.1945 20.7852 8.94521 20.7852 8.89892 20.8444Z" fill="#01A4BD"/>
<g clip-path="url(#clip0_1425_3766)">
<rect y="7.36591" width="12.0453" height="16.6341" rx="1.5" fill="white"/>
<path d="M1.13421 7.42402C1.02149 7.4522 0.873554 7.50856 0.796061 7.54378C0.542449 7.67763 0.239523 8.00168 0.119761 8.26938L0 8.52298V15.6803V22.8376L0.112717 23.0701C0.317016 23.5139 0.704479 23.8309 1.15535 23.9366C1.4935 24.0211 10.5531 24.0211 10.8912 23.9366C11.3421 23.8309 11.7296 23.5139 11.9339 23.0701L12.0466 22.8376V15.6803V8.52298L11.9339 8.29051C11.7366 7.86079 11.3562 7.54378 10.9194 7.42402C10.6165 7.34653 1.44418 7.34653 1.13421 7.42402ZM10.1375 8.95975C10.3136 9.05837 10.4686 9.24858 10.5179 9.43878C10.546 9.53741 10.5601 9.93191 10.5531 10.4603C10.539 11.4465 10.5108 11.5451 10.2009 11.7635L10.0247 11.8833H6.01625H2.00776L1.83165 11.7635C1.52167 11.5451 1.4935 11.4465 1.47941 10.4603C1.46532 9.53036 1.4935 9.35425 1.65553 9.14995C1.77529 9.00906 1.88096 8.94566 2.05708 8.90339C2.12753 8.8893 3.93804 8.88226 6.09374 8.88226C9.70772 8.8893 10.0177 8.89635 10.1375 8.95975ZM4.91726 13.5458C5.24132 13.7571 5.24837 13.7924 5.24837 15.307C5.24837 16.8004 5.24837 16.7934 4.94544 17.0399L4.79046 17.1597H3.3815H1.97254L1.8246 17.0611C1.74006 17.0117 1.64144 16.8849 1.58508 16.8004C1.4935 16.6454 1.4935 16.6032 1.47941 15.3915C1.46532 14.053 1.48645 13.9051 1.66257 13.6937C1.89505 13.419 1.95141 13.4119 3.42377 13.419L4.74819 13.426L4.91726 13.5458ZM10.0881 13.4824C10.2924 13.574 10.4545 13.7642 10.5108 13.9755C10.539 14.0812 10.5531 14.5814 10.5461 15.3844C10.532 16.5961 10.532 16.6313 10.4404 16.7934C10.3911 16.8849 10.2854 17.0047 10.2009 17.054L10.0529 17.1526H8.64396H7.235L7.08001 17.0258C6.78413 16.7934 6.78413 16.7863 6.78413 15.2929C6.78413 14.046 6.79118 13.9544 6.86867 13.8064C6.95321 13.6374 7.12933 13.4965 7.30545 13.4401C7.36885 13.419 7.98175 13.4049 8.67214 13.4049C9.80635 13.4119 9.94724 13.419 10.0881 13.4824ZM4.81864 18.7659C4.98067 18.8574 5.14974 19.0336 5.19905 19.1744C5.22723 19.2449 5.24132 19.7732 5.24132 20.6045C5.24132 21.6753 5.22723 21.943 5.18496 22.0346C5.10043 22.1825 4.86795 22.3938 4.72001 22.4291C4.65661 22.4502 4.03666 22.4643 3.33219 22.4643C2.11344 22.4643 2.05003 22.4572 1.89505 22.3797C1.80347 22.3375 1.6837 22.2177 1.61326 22.1261L1.4935 21.95L1.47941 20.682C1.47236 19.8437 1.48645 19.3506 1.51463 19.2449C1.57803 19.0195 1.8246 18.7729 2.05003 18.7236C2.14866 18.7025 2.75451 18.6884 3.45899 18.6884C4.5298 18.6954 4.71296 18.7095 4.81864 18.7659ZM9.95429 18.7236C10.2079 18.7799 10.4333 18.9842 10.5108 19.2308C10.5813 19.4633 10.5813 21.7105 10.5108 21.9359C10.4404 22.1825 10.2079 22.3868 9.95429 22.4431C9.70067 22.4925 7.60837 22.5065 7.38294 22.4502C7.1716 22.4009 6.9673 22.2529 6.86867 22.0768C6.78413 21.9359 6.78413 21.8655 6.78413 20.5834C6.78413 19.4915 6.79822 19.2167 6.84049 19.1251C6.92503 18.9701 7.16455 18.7659 7.30545 18.7306C7.36885 18.7165 7.43225 18.7025 7.45339 18.6954C7.5661 18.6602 9.76408 18.6813 9.95429 18.7236Z" fill="#01A4BD"/>
<path d="M3.01084 14.5461L3.02493 14.9124H2.63746H2.25V15.2999V15.6873H2.63042C2.96857 15.6873 3.01084 15.6944 3.01084 15.7578C3.00379 15.8 3.01084 15.9691 3.01788 16.1452L3.02493 16.4622H3.39126H3.75759V16.0748V15.6803H4.14505H4.53251L4.51842 15.2999L4.50433 14.9265L4.13096 14.9124L3.75054 14.8983V14.539V14.1727H3.37717H2.99675L3.01084 14.5461Z" fill="#01A4BD"/>
<path d="M7.5438 14.9336C7.52971 14.9477 7.51562 15.1168 7.51562 15.3211V15.6804H8.64984H9.78405V15.2929V14.9055H8.67802C8.06512 14.9055 7.55789 14.9195 7.5438 14.9336Z" fill="#01A4BD"/>
<path d="M3.6455 19.7449L3.38484 20.0338L3.12419 19.752L2.86353 19.4702L2.71559 19.6111C2.63105 19.6886 2.51129 19.8154 2.44789 19.8999L2.33517 20.0479L2.59583 20.3085L2.85648 20.5692L2.59583 20.8228C2.44789 20.9637 2.32812 21.0905 2.32812 21.1045C2.32812 21.1186 2.44789 21.2313 2.59583 21.3652L2.86353 21.6047L3.12419 21.3441L3.38484 21.0905L3.6455 21.3441L3.90616 21.6047L4.10341 21.4427C4.20908 21.3511 4.33589 21.2384 4.37816 21.1891L4.4627 21.0975L4.20204 20.8369L3.94138 20.5762L4.19499 20.3155C4.33589 20.1747 4.44861 20.0408 4.44156 20.0126C4.43452 19.9915 4.31476 19.8576 4.17386 19.7027L3.92025 19.442L3.6455 19.7449Z" fill="#01A4BD"/>
<path d="M7.51562 19.8366V20.2241H8.64984H9.78405V19.8366V19.4492H8.64984H7.51562V19.8366Z" fill="#01A4BD"/>
<path d="M7.51562 21.3372V21.7246H8.64984H9.78405V21.3372V20.9497H8.64984H7.51562V21.3372Z" fill="#01A4BD"/>
<path d="M2.93262 10.9138V10.32L2.55469 10.9138H2.93262ZM3.17676 11.3659H2.93262V11.1501H2.30859V10.9138L2.92285 9.94403H3.17676V10.9138H3.29688V11.1501H3.17676V11.3659ZM3.49707 10.9099H3.7627V10.9196C3.7627 10.986 3.7806 11.0394 3.81641 11.0798C3.85221 11.1201 3.89909 11.1403 3.95703 11.1403C4.02083 11.1403 4.07259 11.1179 4.1123 11.0729C4.15267 11.0274 4.17285 10.9684 4.17285 10.8962C4.17285 10.8226 4.15072 10.7673 4.10645 10.7302C4.06217 10.6924 3.99642 10.6735 3.90918 10.6735C3.90527 10.6735 3.89876 10.6738 3.88965 10.6745C3.88053 10.6752 3.8737 10.6755 3.86914 10.6755V10.4401C3.8737 10.4401 3.88021 10.4405 3.88867 10.4411C3.89714 10.4418 3.90332 10.4421 3.90723 10.4421C3.96647 10.4421 4.00977 10.4304 4.03711 10.4069C4.0651 10.3835 4.0791 10.3464 4.0791 10.2956C4.0791 10.2539 4.06836 10.2217 4.04688 10.1989C4.02539 10.1755 3.99544 10.1638 3.95703 10.1638C3.92253 10.1638 3.89551 10.1758 3.87598 10.1999C3.8571 10.2233 3.84668 10.2565 3.84473 10.2995H3.59863C3.59863 10.1843 3.63281 10.0915 3.70117 10.0212C3.77018 9.95087 3.86068 9.91571 3.97266 9.91571C4.07227 9.91571 4.1569 9.95054 4.22656 10.0202C4.29622 10.0899 4.33105 10.1732 4.33105 10.2702C4.33105 10.3281 4.31966 10.3786 4.29688 10.4216C4.27409 10.4645 4.23861 10.5026 4.19043 10.5358C4.27181 10.5723 4.33236 10.6224 4.37207 10.6862C4.41243 10.7494 4.43262 10.8272 4.43262 10.9196C4.43262 10.9815 4.42285 11.0384 4.40332 11.0905C4.38379 11.1419 4.35352 11.1911 4.3125 11.238C4.26367 11.294 4.21257 11.334 4.15918 11.3581C4.10579 11.3822 4.04102 11.3942 3.96484 11.3942C3.81836 11.3942 3.70378 11.3519 3.62109 11.2673C3.53841 11.1826 3.49707 11.0655 3.49707 10.9157V10.9099ZM4.65918 10.9099H4.9248V10.9196C4.9248 10.986 4.94271 11.0394 4.97852 11.0798C5.01432 11.1201 5.0612 11.1403 5.11914 11.1403C5.18294 11.1403 5.2347 11.1179 5.27441 11.0729C5.31478 11.0274 5.33496 10.9684 5.33496 10.8962C5.33496 10.8226 5.31283 10.7673 5.26855 10.7302C5.22428 10.6924 5.15853 10.6735 5.07129 10.6735C5.06738 10.6735 5.06087 10.6738 5.05176 10.6745C5.04264 10.6752 5.03581 10.6755 5.03125 10.6755V10.4401C5.03581 10.4401 5.04232 10.4405 5.05078 10.4411C5.05924 10.4418 5.06543 10.4421 5.06934 10.4421C5.12858 10.4421 5.17188 10.4304 5.19922 10.4069C5.22721 10.3835 5.24121 10.3464 5.24121 10.2956C5.24121 10.2539 5.23047 10.2217 5.20898 10.1989C5.1875 10.1755 5.15755 10.1638 5.11914 10.1638C5.08464 10.1638 5.05762 10.1758 5.03809 10.1999C5.01921 10.2233 5.00879 10.2565 5.00684 10.2995H4.76074C4.76074 10.1843 4.79492 10.0915 4.86328 10.0212C4.93229 9.95087 5.02279 9.91571 5.13477 9.91571C5.23438 9.91571 5.31901 9.95054 5.38867 10.0202C5.45833 10.0899 5.49316 10.1732 5.49316 10.2702C5.49316 10.3281 5.48177 10.3786 5.45898 10.4216C5.4362 10.4645 5.40072 10.5026 5.35254 10.5358C5.43392 10.5723 5.49447 10.6224 5.53418 10.6862C5.57454 10.7494 5.59473 10.8272 5.59473 10.9196C5.59473 10.9815 5.58496 11.0384 5.56543 11.0905C5.5459 11.1419 5.51562 11.1911 5.47461 11.238C5.42578 11.294 5.37467 11.334 5.32129 11.3581C5.2679 11.3822 5.20312 11.3942 5.12695 11.3942C4.98047 11.3942 4.86589 11.3519 4.7832 11.2673C4.70052 11.1826 4.65918 11.0655 4.65918 10.9157V10.9099ZM6.75293 11.3659H5.81543V11.1003L6.33105 10.6179C6.37988 10.5723 6.41667 10.5274 6.44141 10.4831C6.46615 10.4388 6.47852 10.3965 6.47852 10.3561C6.47852 10.3028 6.46126 10.2588 6.42676 10.2243C6.3929 10.1891 6.34896 10.1716 6.29492 10.1716C6.23763 10.1716 6.19336 10.1901 6.16211 10.2272C6.13086 10.2643 6.11523 10.3164 6.11523 10.3835V10.4079H5.83496V10.404C5.83496 10.2575 5.8776 10.14 5.96289 10.0515C6.04818 9.96226 6.16081 9.91766 6.30078 9.91766C6.43034 9.91766 6.53906 9.96031 6.62695 10.0456C6.71484 10.1309 6.75879 10.235 6.75879 10.3581C6.75879 10.4258 6.74154 10.4919 6.70703 10.5563C6.67253 10.6208 6.61914 10.6852 6.54688 10.7497L6.14941 11.11H6.75293V11.3659ZM7.28711 11.0983V11.3522C7.28711 11.444 7.26693 11.5114 7.22656 11.5544C7.18685 11.5974 7.1237 11.6198 7.03711 11.6218V11.4782C7.06706 11.4743 7.08822 11.4645 7.10059 11.4489C7.11296 11.4339 7.11914 11.4095 7.11914 11.3757V11.3659H7.03711V11.0983H7.28711ZM7.81543 10.4401V10.8679C7.81543 10.9603 7.83301 11.029 7.86816 11.0739C7.90397 11.1182 7.95898 11.1403 8.0332 11.1403C8.10807 11.1403 8.16341 11.1175 8.19922 11.072C8.23503 11.0264 8.25293 10.9557 8.25293 10.86V10.4196C8.25293 10.3793 8.25098 10.349 8.24707 10.3288C8.24382 10.3086 8.23796 10.291 8.22949 10.2761C8.20931 10.2422 8.18229 10.2162 8.14844 10.1979C8.11523 10.1791 8.07747 10.1696 8.03516 10.1696C7.96224 10.1696 7.90723 10.1924 7.87012 10.238C7.83366 10.2829 7.81543 10.3503 7.81543 10.4401ZM7.53711 10.4421C7.53711 10.3535 7.54395 10.2855 7.55762 10.238C7.57129 10.1898 7.59375 10.1459 7.625 10.1061C7.67383 10.0417 7.7321 9.99384 7.7998 9.96259C7.86751 9.93134 7.94596 9.91571 8.03516 9.91571C8.11849 9.91571 8.19499 9.93231 8.26465 9.96552C8.33496 9.99807 8.39583 10.0462 8.44727 10.11C8.47656 10.1465 8.49772 10.1908 8.51074 10.2429C8.52441 10.2949 8.53125 10.3627 8.53125 10.446V10.8679C8.53125 10.9564 8.52441 11.0251 8.51074 11.0739C8.49707 11.1221 8.47461 11.166 8.44336 11.2057C8.39453 11.2696 8.33626 11.3171 8.26855 11.3483C8.2015 11.3789 8.12305 11.3942 8.0332 11.3942C7.94987 11.3942 7.87305 11.378 7.80273 11.3454C7.73307 11.3122 7.67253 11.2637 7.62109 11.1999C7.5918 11.1634 7.57031 11.1195 7.55664 11.0681C7.54362 11.016 7.53711 10.9486 7.53711 10.8659V10.4421ZM9.55371 9.94403V10.1901H9.06543L9.02148 10.4343C9.05078 10.4173 9.08171 10.4046 9.11426 10.3962C9.14681 10.3877 9.18099 10.3835 9.2168 10.3835C9.34766 10.3835 9.45898 10.4323 9.55078 10.53C9.64323 10.6276 9.68945 10.7455 9.68945 10.8835C9.68945 10.946 9.67839 11.0059 9.65625 11.0632C9.63477 11.1198 9.60319 11.1719 9.56152 11.2194C9.51139 11.278 9.4541 11.3223 9.38965 11.3522C9.32585 11.3815 9.25651 11.3962 9.18164 11.3962C9.04688 11.3962 8.93294 11.3526 8.83984 11.2653C8.7474 11.1774 8.69531 11.0635 8.68359 10.9235H8.95117C8.95898 10.9873 8.98405 11.0391 9.02637 11.0788C9.06868 11.1185 9.11979 11.1384 9.17969 11.1384C9.24479 11.1384 9.29883 11.1143 9.3418 11.0661C9.38542 11.0173 9.40723 10.9557 9.40723 10.8815C9.40723 10.808 9.38542 10.7487 9.3418 10.7038C9.29818 10.6582 9.24056 10.6354 9.16895 10.6354C9.12598 10.6354 9.08887 10.6442 9.05762 10.6618C9.02702 10.6787 9.00228 10.7041 8.9834 10.738L8.74707 10.6843L8.88281 9.94403H9.55371Z" fill="#01A4BD"/>
</g>
<defs>
<clipPath id="clip0_1425_3766">
<rect y="7.36591" width="12.0453" height="16.6341" rx="1.5" fill="white"/>
</clipPath>
</defs>
</svg>
