<svg width="92" height="80" viewBox="0 0 92 80" fill="none" xmlns="http://www.w3.org/2000/svg">
<path d="M37.9453 19.4424H61.1599V22.8688H37.9453V19.4424Z" fill="#1D547D"/>
<path d="M37.9453 30.6448H50.4958V34.0712H37.9453V30.6448Z" fill="#1D547D"/>
<path d="M37.9453 41.8475H45.1445V45.2738H37.9453V41.8475Z" fill="#1D547D"/>
<path d="M69.8677 76.5736C71.4847 74.5332 74.3336 70.7989 77.144 66.6025C82.9572 57.9018 85.9216 51.3186 85.9216 47.0837C85.9216 36.7661 77.5289 28.3734 67.2113 28.3734C56.8937 28.3734 48.501 36.7661 48.501 47.0837C48.501 51.3186 51.4654 57.9018 57.2787 66.6025C60.0891 70.7989 62.938 74.5332 64.5549 76.5736H54.8918H44.9977V66.4485H52.2354V63.0221H41.6098V76.5736H34.2951V27.9885V10.1636H54.0833H64.7859V25.1396H68.2123V6.77575H54.0833V0H30.9072V6.77575V10.2021V21.2127H10.5029V27.9885H6.07561V76.5736H0.570312V80H6.03711H30.9072H34.3335H41.6483H54.9688H66.5953H91.4269V76.5736H69.8677ZM34.3335 3.38787H50.7339V6.73725H34.3335V3.38787ZM27.4423 69.9904H12.9284V66.564H27.4423V69.9904ZM27.4423 60.3657H12.9284V56.9394H27.4423V60.3657ZM27.4423 50.7411H12.9284V47.3147H27.4423V50.7411ZM27.4423 41.386H12.9284V37.9596H27.4423V41.386ZM30.3297 27.9885H13.9293V24.6006H30.3297V27.9885ZM60.7051 46.6603C60.7051 43.0799 63.631 40.1155 67.2113 40.1155C70.7917 40.1155 73.7561 43.0414 73.7561 46.6603C73.7561 50.2406 70.8302 53.205 67.2113 53.205C63.5925 53.205 60.7051 50.2406 60.7051 46.6603Z" fill="#1D547D"/>
</svg>
