<svg width="74" height="60" viewBox="0 0 74 60" fill="none" xmlns="http://www.w3.org/2000/svg">
<path d="M66.9688 0.03125H7.03125C3.21875 0.03125 0.125 3.125 0.125 6.9375V53.0312C0.125 56.8438 3.21875 59.9375 7.03125 59.9375H66.9375C70.75 59.9375 73.8438 56.8438 73.8438 53.0312V6.9375C73.875 3.125 70.7812 0.03125 66.9688 0.03125ZM68.125 46L53.6562 26.7188C53.6562 26.7188 52.8125 25.1562 49.875 25.1562C46.5312 25.1562 45.5312 26.6563 45.5312 26.6563L32.8438 46.2187C32.8438 46.2187 32.1562 47.5312 30.4688 47.5312C28.6875 47.5312 27.8438 46.2187 27.8438 46.2187L21.1875 38.5938C21.1875 38.5938 19.4688 36.3438 17.25 36.3438C15.0313 36.3438 13.2188 38.8438 13.2188 38.8438L5.90625 47.9688V8.1875C5.90625 6.90625 6.9375 5.875 8.21875 5.875H65.8438C67.125 5.875 68.1562 6.90625 68.1562 8.1875L68.125 46ZM33.5312 20.7812C33.5312 25.2812 29.875 28.9375 25.375 28.9375C20.875 28.9375 17.1875 25.2812 17.1875 20.7812C17.1875 16.2812 20.8438 12.625 25.3438 12.625C29.8437 12.625 33.5312 16.2812 33.5312 20.7812Z" fill="white"/>
</svg>
