<svg width="24" height="18" viewBox="0 0 24 18" fill="none" xmlns="http://www.w3.org/2000/svg">
<path d="M22.5 0H1.5C0.672 0 0 0.672 0 1.5V16.5C0 16.8978 0.158035 17.2794 0.43934 17.5607C0.720644 17.842 1.10218 18 1.5 18H22.5C23.3295 18 24 17.3295 24 16.5V1.5C24 1.10218 23.842 0.720644 23.5607 0.43934C23.2794 0.158035 22.8978 0 22.5 0ZM15 7.5H18V10.5H15V7.5ZM10.5 7.5H13.5V10.5H10.5V7.5ZM15 12V13.5H13.5V12H15ZM10.5 12H12V13.5H10.5V12ZM1.5 3C1.5 2.172 2.172 1.5 3 1.5H6C6.828 1.5 7.5 2.172 7.5 3V4.5C7.5 4.89782 7.34196 5.27936 7.06066 5.56066C6.77936 5.84196 6.39782 6 6 6H3C2.60218 6 2.22064 5.84196 1.93934 5.56066C1.65804 5.27936 1.5 4.89782 1.5 4.5V3ZM9 7.5V10.5H6V7.5H9ZM4.5 16.5H1.5V15H4.5V16.5ZM4.5 10.5H1.5V7.5H4.5V10.5ZM16.5 16.5H6V15H16.5V16.5ZM19.5 13.5H18V12H19.5V13.5ZM22.5 13.5H21V12H22.5V13.5ZM22.5 10.5H19.5V7.5H22.5V10.5Z" fill="#01A4BD"/>
</svg>
