<svg width="242" height="208" viewBox="0 0 242 208" fill="none" xmlns="http://www.w3.org/2000/svg">
<g clip-path="url(#clip0_109_2954)">
<path d="M132.843 95.5338L175.94 75.4205L164.098 57.6234L121 77.6147L132.843 95.5338ZM132.843 35.6816L175.94 55.7949L164.098 57.6234L121 37.5101L132.843 35.6816ZM109.157 35.6816L66.0594 55.7949L77.9021 57.6234L121 37.5101L109.157 35.6816ZM110.012 98.4593L77.9021 83.4658V100.654L119.413 120.035V84.1972L110.012 98.4593Z" fill="white"/>
<path d="M131.988 98.459L122.587 84.1969V120.035L164.098 100.653V83.4655L131.988 98.459ZM109.157 95.5335L66.0594 75.4202L77.9021 57.623L121 77.6144L109.157 95.5335Z" fill="white"/>
<path d="M121.354 0.5C109.801 0.5 100.41 9.87649 100.41 21.4117C100.41 42.593 121.354 63.2348 121.354 63.2348C121.354 63.2348 142.299 42.6605 142.299 21.4117C142.299 9.87649 132.907 0.5 121.354 0.5ZM121.354 37.0616C112.706 37.0616 105.68 30.046 105.68 21.4117C105.68 12.7771 112.706 5.76163 121.354 5.76163C130.002 5.76163 137.029 12.7771 137.029 21.4117C137.029 30.046 130.002 37.0616 121.354 37.0616Z" fill="white"/>
<path d="M116.741 19.1026L119.04 21.3974L114.203 26.2253L116.741 28.7593L121.577 23.9305L123.875 26.2253L119.04 31.0541L121.577 33.5872L126.413 28.7593L128.95 26.2253L133.786 21.3974L131.249 18.8641L126.413 23.6922L124.114 21.3974L128.95 16.5695L126.413 14.0355L121.577 18.8641L119.279 16.5695L124.114 11.7407L121.577 9.20752L116.741 14.0355L114.203 16.5695L109.368 21.3974L111.905 23.9305L116.741 19.1026Z" fill="#F1EEE6"/>
<path d="M8.24871 155.975C8.24871 157.104 8.262 158.094 8.28858 158.944C8.32844 159.782 8.36829 160.505 8.40816 161.118C8.46132 161.728 8.5211 162.24 8.58754 162.651C8.66726 163.064 8.74699 163.409 8.82672 163.688V163.768H4.04321V163.688C4.12293 163.409 4.19602 163.064 4.26246 162.651C4.34219 162.24 4.40862 161.728 4.46177 161.118C4.51492 160.505 4.55478 159.782 4.58136 158.944C4.60793 158.094 4.62121 157.104 4.62121 155.975V143.001C4.62121 141.871 4.60793 140.888 4.58136 140.051C4.55478 139.201 4.51492 138.47 4.46177 137.859C4.40862 137.234 4.34219 136.716 4.26246 136.304C4.19602 135.892 4.12293 135.547 4.04321 135.268V135.188C5.14608 135.188 6.26222 135.188 7.39166 135.188C8.5211 135.175 9.61733 135.168 10.6803 135.168C11.7433 135.155 12.7532 135.141 13.7099 135.128C14.6665 135.102 15.5303 135.082 16.3009 135.068C17.0716 135.042 17.7227 135.015 18.2542 134.989C18.7858 134.949 19.1644 134.909 19.3903 134.869L18.4137 137.52C17.9752 137.4 17.4637 137.294 16.8789 137.201C16.3741 137.121 15.7561 137.048 15.0253 136.982C14.3078 136.902 13.4773 136.862 12.5339 136.862C12.215 136.862 11.8164 136.875 11.3381 136.902C10.8597 136.915 10.388 136.935 9.92294 136.962C9.39144 136.988 8.83335 137.015 8.24871 137.041V147.106C9.61733 147.093 10.873 147.053 12.0157 146.986C13.1584 146.921 14.1417 146.854 14.9655 146.788C15.9223 146.708 16.7859 146.615 17.5567 146.508L16.9587 149.399C15.9621 149.279 14.9523 149.166 13.9291 149.059C13.0521 148.966 12.1087 148.887 11.0989 148.82C10.089 148.74 9.13897 148.701 8.24871 148.701V155.975ZM23.3964 151.152C23.3964 150.023 23.3766 149.039 23.3367 148.202C23.3101 147.352 23.2702 146.622 23.2171 146.01C23.1772 145.399 23.1174 144.887 23.0377 144.475C22.9713 144.064 22.8982 143.718 22.8184 143.439V143.359H27.4225V143.439C27.3429 143.718 27.2698 144.064 27.2034 144.475C27.137 144.887 27.0772 145.399 27.024 146.01C26.9709 146.622 26.931 147.352 26.9044 148.202C26.8777 149.039 26.8645 150.023 26.8645 151.152V155.975C26.8645 157.104 26.8777 158.094 26.9044 158.944C26.931 159.782 26.9709 160.505 27.024 161.118C27.0772 161.728 27.137 162.24 27.2034 162.651C27.2698 163.064 27.3429 163.409 27.4225 163.688V163.768H22.8184V163.688C22.8982 163.409 22.9713 163.064 23.0377 162.651C23.1174 162.24 23.1772 161.728 23.2171 161.118C23.2702 160.505 23.3101 159.782 23.3367 158.944C23.3766 158.094 23.3964 157.104 23.3964 155.975V151.152ZM22.9779 137.32C22.9779 137.028 23.0311 136.756 23.1374 136.503C23.2569 136.238 23.4097 136.012 23.5957 135.826C23.7819 135.626 24.001 135.474 24.2535 135.367C24.5193 135.248 24.805 135.188 25.1106 135.188C25.4161 135.188 25.6953 135.248 25.9477 135.367C26.2134 135.474 26.4394 135.626 26.6254 135.826C26.8247 136.012 26.9775 136.238 27.0837 136.503C27.2034 136.756 27.2632 137.028 27.2632 137.32C27.2632 137.932 27.0572 138.443 26.6452 138.855C26.2334 139.267 25.7218 139.473 25.1106 139.473C24.805 139.473 24.5193 139.42 24.2535 139.314C24.001 139.194 23.7819 139.041 23.5957 138.855C23.4097 138.656 23.2569 138.43 23.1374 138.177C23.0311 137.912 22.9779 137.626 22.9779 137.32ZM33.123 151.152C33.123 150.023 33.103 149.039 33.0632 148.202C33.0366 147.352 32.9967 146.622 32.9436 146.01C32.9037 145.399 32.8439 144.887 32.7642 144.475C32.6977 144.064 32.6247 143.718 32.5449 143.439V143.359H37.149V143.439C37.0428 143.745 36.9498 144.117 36.87 144.555C36.8035 144.994 36.7505 145.558 36.7105 146.249C37.2023 145.837 37.7138 145.432 38.2453 145.033C38.7769 144.635 39.3217 144.283 39.8797 143.977C40.4378 143.672 41.0025 143.426 41.5739 143.24C42.1584 143.054 42.7432 142.961 43.3278 142.961C43.6865 142.961 43.9988 142.981 44.2646 143.021C44.5303 143.047 44.7694 143.094 44.9821 143.16C45.1947 143.213 45.3874 143.28 45.5602 143.359C45.7328 143.426 45.8989 143.492 46.0584 143.559L45.0817 147.365L44.7429 147.285C44.5834 146.701 44.2845 146.236 43.846 145.89C43.4075 145.532 42.8095 145.352 42.0522 145.352C41.6403 145.352 41.2084 145.425 40.7566 145.572C40.3048 145.718 39.8465 145.924 39.3814 146.189C38.9164 146.442 38.4513 146.741 37.9861 147.087C37.5211 147.419 37.0693 147.77 36.6309 148.142C36.6043 148.529 36.591 148.947 36.591 149.399C36.591 149.849 36.591 150.329 36.591 150.833V155.975C36.591 157.104 36.6043 158.094 36.6309 158.944C36.6575 159.782 36.6973 160.505 36.7505 161.118C36.8035 161.728 36.8635 162.24 36.9298 162.651C36.9963 163.064 37.0693 163.409 37.149 163.688V163.768H32.5449V163.688C32.6247 163.409 32.6977 163.064 32.7642 162.651C32.8439 162.24 32.9037 161.728 32.9436 161.118C32.9967 160.505 33.0366 159.782 33.0632 158.944C33.103 158.094 33.123 157.104 33.123 155.975V151.152ZM62.4418 150.335C62.4418 149.459 62.3488 148.701 62.1628 148.063C61.99 147.425 61.731 146.9 61.3855 146.488C61.0534 146.063 60.6481 145.751 60.1697 145.552C59.6913 145.339 59.1598 145.233 58.5752 145.233C58.1765 145.233 57.7314 145.312 57.2398 145.472C56.7481 145.631 56.2366 145.851 55.705 146.13C55.1869 146.396 54.662 146.708 54.1306 147.066C53.6123 147.425 53.1208 147.81 52.6556 148.222C52.629 148.648 52.6158 149.106 52.6158 149.597C52.6158 150.075 52.6158 150.594 52.6158 151.152V155.975C52.6158 157.104 52.629 158.094 52.6556 158.944C52.6822 159.782 52.722 160.505 52.7752 161.118C52.8283 161.728 52.8881 162.24 52.9546 162.651C53.021 163.064 53.0941 163.409 53.1738 163.688V163.768H48.5697V163.688C48.6494 163.409 48.7225 163.064 48.789 162.651C48.8687 162.24 48.9285 161.728 48.9683 161.118C49.0215 160.505 49.0613 159.782 49.088 158.944C49.1278 158.094 49.1477 157.104 49.1477 155.975V151.152C49.1477 150.023 49.1278 149.039 49.088 148.202C49.0613 147.352 49.0215 146.622 48.9683 146.01C48.9285 145.399 48.8687 144.887 48.789 144.475C48.7225 144.064 48.6494 143.718 48.5697 143.439V143.359H53.1738V143.439C53.0675 143.745 52.9811 144.137 52.9148 144.615C52.8615 145.08 52.8018 145.671 52.7353 146.389C53.2668 145.964 53.8382 145.545 54.4494 145.133C55.0607 144.721 55.6852 144.356 56.323 144.037C56.9741 143.718 57.6252 143.459 58.2762 143.26C58.9273 143.06 59.5718 142.961 60.2096 142.961C60.9669 142.961 61.638 143.06 62.2226 143.26C62.8073 143.459 63.3189 143.731 63.7574 144.077C64.1959 144.422 64.5612 144.828 64.8535 145.293C65.1592 145.758 65.3918 146.256 65.5511 146.788C66.0959 146.323 66.6872 145.864 67.325 145.412C67.9762 144.947 68.6405 144.535 69.3181 144.176C70.0091 143.818 70.7067 143.525 71.411 143.3C72.1285 143.074 72.8261 142.961 73.5037 142.961C74.5402 142.961 75.4171 143.14 76.1347 143.499C76.8655 143.858 77.4568 144.329 77.9085 144.914C78.3736 145.498 78.7058 146.169 78.9051 146.926C79.1177 147.671 79.2241 148.428 79.2241 149.199V155.975C79.2241 157.104 79.2374 158.094 79.2639 158.944C79.2904 159.782 79.3304 160.505 79.3834 161.118C79.4366 161.728 79.4964 162.24 79.5629 162.651C79.6426 163.064 79.7222 163.409 79.802 163.688V163.768H75.178V163.688C75.2576 163.409 75.3308 163.064 75.3973 162.651C75.4769 162.24 75.5434 161.728 75.5966 161.118C75.6496 160.505 75.6896 159.782 75.7161 158.944C75.7426 158.094 75.7559 157.104 75.7559 155.975V150.335C75.7559 148.581 75.4038 147.292 74.6996 146.469C73.9954 145.645 73.0519 145.233 71.8693 145.233C71.4575 145.233 70.999 145.312 70.4942 145.472C70.0024 145.631 69.4909 145.851 68.9594 146.13C68.428 146.409 67.8965 146.734 67.3649 147.106C66.8334 147.464 66.3351 147.851 65.8701 148.262C65.8966 148.422 65.9099 148.581 65.9099 148.74C65.9099 148.9 65.9099 149.053 65.9099 149.199V155.975C65.9099 157.104 65.9233 158.094 65.9498 158.944C65.9896 159.782 66.0296 160.505 66.0694 161.118C66.1226 161.728 66.1823 162.24 66.2488 162.651C66.3284 163.064 66.4082 163.409 66.4879 163.688V163.768H61.8838V163.688C61.9635 163.409 62.0366 163.064 62.103 162.651C62.1695 162.24 62.2293 161.728 62.2825 161.118C62.3356 160.505 62.3755 159.782 62.402 158.944C62.4286 158.094 62.4418 157.104 62.4418 155.975V150.335ZM83.6288 157.889C83.6288 156.839 83.8415 155.928 84.2666 155.158C84.7051 154.387 85.2831 153.73 86.0007 153.185C86.7182 152.641 87.5353 152.202 88.4522 151.87C89.369 151.524 90.3191 151.259 91.3024 151.072C92.2857 150.873 93.2557 150.74 94.2123 150.674C95.169 150.594 96.046 150.547 96.8433 150.534V149.518C96.8433 148.641 96.7303 147.884 96.5045 147.246C96.2785 146.609 95.9597 146.083 95.5477 145.671C95.1359 145.246 94.6376 144.934 94.0529 144.735C93.4815 144.522 92.8504 144.416 92.1594 144.416C91.6811 144.416 91.2094 144.456 90.7443 144.535C90.2793 144.615 89.7943 144.748 89.2893 144.934C88.7977 145.12 88.2729 145.372 87.7148 145.691C87.17 146.01 86.5787 146.415 85.9409 146.908L85.7416 146.788L87.0968 143.977C87.5353 143.778 87.9671 143.618 88.3924 143.499C88.8176 143.366 89.2495 143.26 89.688 143.18C90.1265 143.1 90.5716 143.047 91.0233 143.021C91.4884 142.981 91.9734 142.961 92.4783 142.961C93.8736 142.961 95.0627 143.134 96.046 143.479C97.0426 143.811 97.8531 144.276 98.4777 144.874C99.1155 145.459 99.5805 146.15 99.8728 146.947C100.165 147.731 100.311 148.574 100.311 149.478V155.975C100.311 157.104 100.325 158.094 100.351 158.944C100.391 159.782 100.431 160.505 100.471 161.118C100.524 161.728 100.584 162.24 100.65 162.651C100.73 163.064 100.81 163.409 100.889 163.688V163.768H96.4845V163.688C96.551 163.475 96.5975 163.236 96.624 162.97C96.6638 162.705 96.6971 162.386 96.7238 162.014C96.4446 162.253 96.1125 162.5 95.7272 162.752C95.3551 163.004 94.9232 163.236 94.4316 163.449C93.9533 163.648 93.4151 163.807 92.8172 163.927C92.2325 164.061 91.5881 164.126 90.8838 164.126C88.5719 164.126 86.7846 163.589 85.5224 162.513C84.26 161.422 83.6288 159.881 83.6288 157.889ZM96.8433 152.088C95.6342 152.101 94.4714 152.176 93.3553 152.308C92.2392 152.428 91.2492 152.686 90.3855 153.085C89.5352 153.483 88.8509 154.055 88.3326 154.8C87.8276 155.53 87.5753 156.507 87.5753 157.728C87.5753 159.297 87.9671 160.492 88.7512 161.316C89.5352 162.14 90.6181 162.552 91.9999 162.552C92.6377 162.552 93.2158 162.466 93.734 162.293C94.2656 162.107 94.7306 161.881 95.1292 161.615C95.5412 161.336 95.8865 161.037 96.1656 160.718C96.4446 160.386 96.6573 160.068 96.8034 159.762C96.83 159.258 96.8433 158.699 96.8433 158.088C96.8433 157.463 96.8433 156.759 96.8433 155.975V152.088ZM118.369 163.688C118.449 163.409 118.522 163.064 118.588 162.651C118.668 162.24 118.735 161.728 118.788 161.118C118.841 160.505 118.881 159.782 118.907 158.944C118.934 158.094 118.947 157.104 118.947 155.975V143.001C118.947 141.871 118.934 140.888 118.907 140.051C118.881 139.201 118.841 138.47 118.788 137.859C118.735 137.234 118.668 136.716 118.588 136.304C118.522 135.892 118.449 135.547 118.369 135.268V135.188H123.153V135.268C123.073 135.547 122.993 135.892 122.913 136.304C122.847 136.716 122.787 137.234 122.734 137.859C122.694 138.47 122.654 139.201 122.614 140.051C122.588 140.888 122.575 141.871 122.575 143.001V147.445L134.215 137.938C135.517 136.875 136.168 135.959 136.168 135.188H141.768V135.268C140.984 135.454 140.187 135.812 139.377 136.344C138.579 136.862 137.729 137.5 136.825 138.257L126.541 146.867L138.918 160.459C139.436 160.991 139.875 161.435 140.234 161.794C140.606 162.14 140.931 162.433 141.21 162.672C141.489 162.898 141.742 163.09 141.968 163.25C142.207 163.396 142.453 163.542 142.705 163.688V163.768H136.865C136.812 163.648 136.719 163.495 136.586 163.31C136.467 163.123 136.32 162.931 136.148 162.731C135.988 162.532 135.809 162.326 135.61 162.113C135.424 161.9 135.244 161.702 135.071 161.516L122.575 147.804V155.975C122.575 157.104 122.588 158.094 122.614 158.944C122.654 159.782 122.694 160.505 122.734 161.118C122.787 161.728 122.847 162.24 122.913 162.651C122.993 163.064 123.073 163.409 123.153 163.688V163.768H118.369V163.688ZM147.489 156.792C147.489 158.546 147.834 159.835 148.525 160.658C149.229 161.482 150.173 161.895 151.355 161.895C151.781 161.895 152.259 161.809 152.791 161.635C153.322 161.45 153.867 161.209 154.425 160.918C154.997 160.612 155.561 160.26 156.119 159.861C156.691 159.463 157.215 159.037 157.694 158.586C157.72 158.201 157.733 157.795 157.733 157.37C157.733 156.932 157.733 156.467 157.733 155.975V151.152C157.733 150.023 157.714 149.039 157.673 148.202C157.647 147.352 157.608 146.622 157.554 146.01C157.514 145.399 157.455 144.887 157.374 144.475C157.309 144.064 157.234 143.718 157.156 143.439V143.359H161.76V143.439C161.679 143.718 161.606 144.064 161.541 144.475C161.474 144.887 161.414 145.399 161.362 146.01C161.308 146.622 161.268 147.352 161.242 148.202C161.214 149.039 161.201 150.023 161.201 151.152V155.975C161.201 157.104 161.214 158.094 161.242 158.944C161.268 159.782 161.308 160.505 161.362 161.118C161.414 161.728 161.474 162.24 161.541 162.651C161.606 163.064 161.679 163.409 161.76 163.688V163.768H157.156V163.688C157.234 163.355 157.315 162.931 157.395 162.412C157.488 161.895 157.554 161.217 157.594 160.38C157.049 160.845 156.457 161.303 155.82 161.755C155.195 162.207 154.537 162.612 153.846 162.97C153.169 163.329 152.477 163.615 151.773 163.828C151.082 164.054 150.399 164.166 149.721 164.166C148.684 164.166 147.801 163.986 147.07 163.628C146.353 163.269 145.761 162.798 145.296 162.214C144.844 161.629 144.512 160.965 144.3 160.22C144.1 159.476 144.001 158.712 144.001 157.928V151.152C144.001 150.023 143.987 149.039 143.961 148.202C143.934 147.352 143.894 146.622 143.841 146.01C143.788 145.399 143.728 144.887 143.662 144.475C143.595 144.064 143.522 143.718 143.443 143.439V143.359H148.047V143.439C147.967 143.718 147.894 144.064 147.827 144.475C147.761 144.887 147.702 145.399 147.648 146.01C147.595 146.622 147.554 147.352 147.528 148.202C147.502 149.039 147.489 150.023 147.489 151.152V156.792ZM174.555 162.591C174.954 162.591 175.346 162.519 175.731 162.373C176.129 162.227 176.508 162.027 176.867 161.775C177.239 161.523 177.592 161.237 177.924 160.918C178.269 160.586 178.589 160.24 178.88 159.881L179.08 159.981L177.784 163.191C177.625 163.269 177.425 163.37 177.186 163.489C176.96 163.596 176.682 163.695 176.349 163.788C176.03 163.895 175.651 163.981 175.214 164.046C174.775 164.126 174.256 164.166 173.658 164.166C171.878 164.166 170.489 163.688 169.493 162.731C168.509 161.762 168.018 160.253 168.018 158.208V144.914L164.669 145.033V143.28C165.082 143.306 165.573 143.326 166.145 143.339C166.716 143.353 167.34 143.359 168.018 143.359C168.005 142.416 167.979 141.586 167.938 140.868C167.912 140.137 167.872 139.506 167.818 138.975C167.779 138.43 167.725 137.972 167.659 137.6C167.592 137.227 167.527 136.915 167.46 136.663V136.583H172.063V136.663C171.985 136.915 171.912 137.227 171.845 137.6C171.778 137.972 171.718 138.423 171.665 138.955C171.626 139.486 171.585 140.117 171.546 140.848C171.52 141.566 171.499 142.403 171.486 143.359C172.323 143.346 173.141 143.333 173.937 143.32C174.747 143.293 175.479 143.266 176.129 143.24C176.794 143.2 177.352 143.167 177.804 143.14C178.269 143.1 178.574 143.067 178.721 143.04L178.363 145.073C177.685 145.06 176.973 145.04 176.23 145.014C175.591 144.987 174.861 144.967 174.037 144.954C173.214 144.94 172.362 144.927 171.486 144.914V158.626C171.486 159.45 171.572 160.121 171.746 160.639C171.931 161.144 172.164 161.542 172.443 161.835C172.736 162.126 173.061 162.326 173.419 162.433C173.791 162.539 174.17 162.591 174.555 162.591ZM186.355 156.792C186.355 158.546 186.7 159.835 187.391 160.658C188.095 161.482 189.038 161.895 190.221 161.895C190.646 161.895 191.125 161.809 191.657 161.635C192.187 161.45 192.733 161.209 193.291 160.918C193.862 160.612 194.427 160.26 194.985 159.861C195.556 159.463 196.081 159.037 196.559 158.586C196.586 158.201 196.599 157.795 196.599 157.37C196.599 156.932 196.599 156.467 196.599 155.975V151.152C196.599 150.023 196.58 149.039 196.539 148.202C196.513 147.352 196.473 146.622 196.419 146.01C196.38 145.399 196.32 144.887 196.24 144.475C196.175 144.064 196.102 143.718 196.021 143.439V143.359H200.625V143.439C200.545 143.718 200.472 144.064 200.407 144.475C200.34 144.887 200.28 145.399 200.227 146.01C200.173 146.622 200.134 147.352 200.108 148.202C200.08 149.039 200.067 150.023 200.067 151.152V155.975C200.067 157.104 200.08 158.094 200.108 158.944C200.134 159.782 200.173 160.505 200.227 161.118C200.28 161.728 200.34 162.24 200.407 162.651C200.472 163.064 200.545 163.409 200.625 163.688V163.768H196.021V163.688C196.102 163.355 196.18 162.931 196.261 162.412C196.354 161.895 196.419 161.217 196.46 160.38C195.915 160.845 195.323 161.303 194.686 161.755C194.062 162.207 193.403 162.612 192.712 162.97C192.036 163.329 191.345 163.615 190.641 163.828C189.95 164.054 189.264 164.166 188.587 164.166C187.55 164.166 186.667 163.986 185.936 163.628C185.219 163.269 184.627 162.798 184.162 162.214C183.71 161.629 183.378 160.965 183.166 160.22C182.967 159.476 182.867 158.712 182.867 157.928V151.152C182.867 150.023 182.853 149.039 182.827 148.202C182.8 147.352 182.761 146.622 182.707 146.01C182.655 145.399 182.595 144.887 182.528 144.475C182.462 144.064 182.388 143.718 182.309 143.439V143.359H186.913V143.439C186.833 143.718 186.76 144.064 186.693 144.475C186.627 144.887 186.567 145.399 186.513 146.01C186.461 146.622 186.422 147.352 186.394 148.202C186.368 149.039 186.355 150.023 186.355 151.152V156.792ZM215.215 147.365L214.937 147.405C214.844 147.1 214.69 146.773 214.478 146.428C214.278 146.083 214.013 145.764 213.68 145.472C213.361 145.18 212.97 144.94 212.505 144.754C212.053 144.555 211.528 144.456 210.931 144.456C210.518 144.456 210.126 144.515 209.754 144.635C209.396 144.754 209.076 144.934 208.798 145.173C208.531 145.399 208.318 145.685 208.159 146.03C208 146.375 207.92 146.781 207.92 147.246C207.92 147.897 208.12 148.521 208.518 149.119C208.931 149.703 209.442 150.288 210.053 150.873C210.664 151.444 211.321 152.023 212.026 152.607C212.744 153.192 213.408 153.803 214.02 154.441C214.631 155.078 215.135 155.762 215.535 156.494C215.946 157.211 216.153 157.988 216.153 158.825C216.153 159.502 216.033 160.167 215.793 160.819C215.553 161.456 215.182 162.027 214.677 162.532C214.186 163.037 213.548 163.449 212.763 163.768C211.993 164.074 211.069 164.226 209.993 164.226C209.355 164.226 208.757 164.166 208.199 164.046C207.655 163.927 207.149 163.781 206.684 163.609C206.232 163.422 205.821 163.223 205.449 163.01C205.091 162.785 204.771 162.572 204.491 162.373L204.691 158.586H205.01C205.143 159.211 205.343 159.782 205.608 160.3C205.873 160.819 206.2 161.263 206.585 161.635C206.983 161.994 207.435 162.279 207.941 162.492C208.445 162.692 208.996 162.791 209.594 162.791C210.578 162.791 211.355 162.519 211.926 161.975C212.511 161.43 212.804 160.718 212.804 159.842C212.804 159.138 212.604 158.494 212.205 157.908C211.82 157.31 211.329 156.739 210.731 156.195C210.133 155.65 209.489 155.104 208.798 154.561C208.12 154.015 207.481 153.437 206.884 152.826C206.286 152.202 205.787 151.524 205.389 150.794C205.003 150.049 204.811 149.205 204.811 148.262C204.811 147.492 204.951 146.788 205.229 146.15C205.522 145.498 205.92 144.947 206.426 144.495C206.944 144.03 207.554 143.672 208.258 143.419C208.964 143.167 209.734 143.04 210.571 143.04C211.674 143.04 212.591 143.16 213.322 143.399C214.066 143.625 214.631 143.844 215.016 144.057L215.215 147.365ZM224.025 156.792C224.025 158.546 224.37 159.835 225.061 160.658C225.766 161.482 226.709 161.895 227.891 161.895C228.317 161.895 228.795 161.809 229.327 161.635C229.858 161.45 230.403 161.209 230.961 160.918C231.533 160.612 232.097 160.26 232.655 159.861C233.227 159.463 233.752 159.037 234.23 158.586C234.256 158.201 234.269 157.795 234.269 157.37C234.269 156.932 234.269 156.467 234.269 155.975V151.152C234.269 150.023 234.25 149.039 234.209 148.202C234.183 147.352 234.144 146.622 234.09 146.01C234.05 145.399 233.991 144.887 233.91 144.475C233.845 144.064 233.771 143.718 233.692 143.439V143.359H238.296V143.439C238.215 143.718 238.143 144.064 238.077 144.475C238.01 144.887 237.95 145.399 237.898 146.01C237.844 146.622 237.804 147.352 237.778 148.202C237.75 149.039 237.737 150.023 237.737 151.152V155.975C237.737 157.104 237.75 158.094 237.778 158.944C237.804 159.782 237.844 160.505 237.898 161.118C237.95 161.728 238.01 162.24 238.077 162.651C238.143 163.064 238.215 163.409 238.296 163.688V163.768H233.692V163.688C233.771 163.355 233.851 162.931 233.931 162.412C234.024 161.895 234.09 161.217 234.131 160.38C233.585 160.845 232.994 161.303 232.356 161.755C231.731 162.207 231.074 162.612 230.383 162.97C229.705 163.329 229.014 163.615 228.309 163.828C227.618 164.054 226.935 164.166 226.257 164.166C225.22 164.166 224.337 163.986 223.607 163.628C222.889 163.269 222.297 162.798 221.832 162.214C221.38 161.629 221.048 160.965 220.835 160.22C220.637 159.476 220.536 158.712 220.536 157.928V151.152C220.536 150.023 220.523 149.039 220.497 148.202C220.471 147.352 220.43 146.622 220.377 146.01C220.325 145.399 220.264 144.887 220.198 144.475C220.131 144.064 220.058 143.718 219.979 143.439V143.359H224.583V143.439C224.503 143.718 224.43 144.064 224.363 144.475C224.298 144.887 224.238 145.399 224.184 146.01C224.131 146.622 224.091 147.352 224.064 148.202C224.038 149.039 224.025 150.023 224.025 151.152V156.792Z" fill="white"/>
<path d="M9.73067 199.45C8.83265 199.45 8.38363 198.991 8.38363 198.073C8.38363 197.42 8.57752 196.603 8.96531 195.624C9.35309 194.624 9.87354 193.532 10.5266 192.348C11.1798 191.165 11.8941 189.961 12.6697 188.736C13.4452 187.491 14.231 186.287 15.027 185.124C15.823 183.96 16.5578 182.909 17.2313 181.971C17.9252 181.032 18.4967 180.277 18.9457 179.705C18.9253 179.481 18.9967 179.266 19.16 179.062C19.3437 178.858 19.4967 178.685 19.6192 178.542C18.9049 178.501 18.1803 178.471 17.4456 178.45C16.7108 178.409 15.9863 178.389 15.2719 178.389C14.9046 178.389 14.3637 178.399 13.6493 178.42C12.935 178.44 12.139 178.491 11.2614 178.573C10.4042 178.634 9.53678 178.746 8.65916 178.909C7.78155 179.052 6.96516 179.266 6.21001 179.552C5.47526 179.817 4.88338 180.164 4.43437 180.593C3.98536 181.001 3.76085 181.501 3.76085 182.093C3.76085 182.807 3.96495 183.471 4.37314 184.083C4.80174 184.675 5.32219 185.195 5.93448 185.644C6.56718 186.093 7.17946 186.45 7.77134 186.716C7.83257 186.736 7.92442 186.787 8.04687 186.869C8.18974 186.93 8.26118 187.001 8.26118 187.083C8.26118 187.124 8.24077 187.154 8.19995 187.175C8.15913 187.175 8.12851 187.175 8.1081 187.175C8.02646 187.175 7.93462 187.165 7.83257 187.144C7.75093 187.103 7.65909 187.073 7.55704 187.052C6.90393 186.828 6.22021 186.522 5.50587 186.134C4.79154 185.726 4.18945 185.226 3.69962 184.634C3.20979 184.022 2.96487 183.318 2.96487 182.522C2.96487 182.215 3.0159 181.889 3.11795 181.542C3.42409 180.562 3.91392 179.777 4.58744 179.185C5.28137 178.573 6.07734 178.103 6.97537 177.777C7.8938 177.45 8.83265 177.236 9.7919 177.134C10.7716 177.011 11.7002 176.95 12.5778 176.95C13.8636 176.95 15.1393 177.042 16.4047 177.226C17.6701 177.389 18.9355 177.583 20.2009 177.807C20.3029 177.664 20.405 177.511 20.507 177.348C20.6295 177.185 20.7519 177.042 20.8744 176.919C21.0377 176.756 21.2928 176.634 21.6398 176.552C21.9867 176.471 22.2622 176.43 22.4663 176.43C22.548 176.43 22.6704 176.45 22.8337 176.491C22.997 176.511 23.0786 176.583 23.0786 176.705C23.0786 176.746 22.997 176.868 22.8337 177.073C22.6704 177.277 22.497 177.481 22.3133 177.685C22.15 177.889 22.0377 178.022 21.9765 178.083C23.1399 178.266 24.3134 178.44 25.4972 178.603C26.7013 178.746 27.8953 178.817 29.0791 178.817C29.426 178.817 29.6914 178.746 29.875 178.603C30.0791 178.46 30.2322 178.328 30.3343 178.205C30.4567 178.062 30.5792 177.991 30.7016 177.991C30.8445 177.991 30.9772 178.062 31.0996 178.205C31.2221 178.328 31.2833 178.46 31.2833 178.603C31.2833 178.705 31.2527 178.787 31.1915 178.848C31.1302 178.889 31.0588 178.93 30.9772 178.971C30.3036 179.297 29.7424 179.807 29.2934 180.501C28.8444 181.195 28.4158 181.838 28.0076 182.43C27.9667 182.491 27.8953 182.593 27.7933 182.736C27.6912 182.858 27.5994 182.92 27.5177 182.92C27.4565 182.92 27.4259 182.869 27.4259 182.767C27.4259 182.501 27.5177 182.195 27.7014 181.848C27.9055 181.481 28.0994 181.124 28.2831 180.777C28.4668 180.409 28.5586 180.113 28.5586 179.889C28.5586 179.766 28.4974 179.695 28.3749 179.675C28.0484 179.573 27.7014 179.491 27.334 179.43C26.9871 179.369 26.6401 179.307 26.2932 179.246C25.4768 179.124 24.6706 179.022 23.8746 178.94C23.0786 178.838 22.2725 178.746 21.4561 178.664C20.4764 179.828 19.4457 181.124 18.364 182.552C17.2823 183.96 16.221 185.44 15.1801 186.991C14.1596 188.542 13.2411 190.103 12.4247 191.675C11.6288 193.246 11.0165 194.756 10.5879 196.205C10.5062 196.471 10.4348 196.757 10.3736 197.063C10.3123 197.389 10.2817 197.695 10.2817 197.981C10.2817 198.165 10.3123 198.359 10.3736 198.563C10.4348 198.767 10.5777 198.869 10.8022 198.869C10.9655 198.869 11.1287 198.838 11.292 198.777C11.4757 198.736 11.6594 198.716 11.8431 198.716C11.8635 198.716 11.9043 198.716 11.9655 198.716C12.0268 198.716 12.0574 198.736 12.0574 198.777C12.0574 198.859 11.8839 198.95 11.5369 199.052C11.2104 199.175 10.8532 199.267 10.4654 199.328C10.098 199.41 9.85313 199.45 9.73067 199.45ZM26.4055 196.083C25.8545 196.083 25.4871 195.869 25.3034 195.44C25.1402 194.991 25.0585 194.542 25.0585 194.093C25.0585 193.501 25.1197 192.91 25.2422 192.318C25.3647 191.726 25.4463 191.134 25.4871 190.542C25.2422 190.848 24.8952 191.287 24.4462 191.858C23.9972 192.41 23.4972 192.991 22.9461 193.603C22.3951 194.195 21.8542 194.695 21.3235 195.103C20.7929 195.512 20.3337 195.716 19.9459 195.716C19.1907 195.716 18.8132 195.318 18.8132 194.522C18.8132 193.991 18.9152 193.45 19.1193 192.899C19.3438 192.328 19.5989 191.777 19.8847 191.246C20.1908 190.695 20.4663 190.195 20.7113 189.746H20.65C20.5276 189.746 20.4663 189.695 20.4663 189.593C20.4663 189.552 20.4663 189.522 20.4663 189.501C20.4868 189.481 20.497 189.46 20.497 189.44C20.7827 188.95 21.0174 188.532 21.2011 188.185C21.3848 187.818 21.6297 187.542 21.9358 187.358C22.242 187.175 22.7114 187.083 23.3441 187.083C23.4461 187.083 23.4972 187.144 23.4972 187.267C23.4972 187.409 23.3849 187.685 23.1604 188.093C22.9359 188.481 22.691 188.869 22.4257 189.256C22.1603 189.644 21.9767 189.92 21.8746 190.083C21.7113 190.348 21.5072 190.746 21.2623 191.277C21.0174 191.807 20.7929 192.338 20.5888 192.869C20.4051 193.399 20.3133 193.818 20.3133 194.124C20.3133 194.226 20.3235 194.328 20.3439 194.43C20.3847 194.512 20.4663 194.552 20.5888 194.552C20.7929 194.552 21.0276 194.461 21.2929 194.277C21.5583 194.073 21.7624 193.91 21.9052 193.787C22.7012 193.114 23.4359 192.358 24.1095 191.522C24.783 190.665 25.3953 189.797 25.9463 188.92C26.0076 188.797 26.0382 188.685 26.0382 188.583C26.0994 188.338 26.1912 188.103 26.3137 187.879C26.4362 187.654 26.5994 187.471 26.8035 187.328C26.9668 187.226 27.1913 187.144 27.4771 187.083C27.7628 187.022 27.9873 186.991 28.1506 186.991C28.2322 186.991 28.3343 187.011 28.4567 187.052C28.5792 187.073 28.6404 187.134 28.6404 187.236C28.6404 187.338 28.5486 187.501 28.3649 187.726C28.2016 187.95 28.0179 188.175 27.8138 188.399C27.6301 188.603 27.4975 188.777 27.4158 188.92C27.2321 189.246 27.0689 189.726 26.926 190.358C26.7831 190.971 26.6709 191.593 26.5892 192.226C26.5076 192.858 26.4668 193.379 26.4668 193.787C26.4668 194.052 26.4974 194.348 26.5586 194.675C26.6199 195.001 26.8239 195.165 27.1709 195.165C27.5179 195.165 27.8648 195.032 28.2118 194.767C28.5792 194.481 28.8955 194.205 29.1608 193.94C29.4262 193.654 29.5792 193.512 29.6201 193.512C29.6405 193.512 29.6507 193.532 29.6507 193.573C29.6507 193.756 29.5486 193.971 29.3445 194.216C29.1404 194.461 28.9159 194.695 28.671 194.92C28.4465 195.124 28.273 195.277 28.1506 195.379C27.9057 195.563 27.6301 195.726 27.324 195.869C27.0178 196.012 26.7117 196.083 26.4055 196.083ZM26.8648 185.43C26.7219 185.43 26.6301 185.348 26.5892 185.185C26.5484 185.022 26.528 184.899 26.528 184.818C26.528 184.654 26.579 184.46 26.6811 184.236C26.7831 184.011 26.9362 183.848 27.1403 183.746C27.3036 183.664 27.4975 183.624 27.722 183.624C27.8444 183.624 27.9669 183.634 28.0893 183.654C28.2118 183.675 28.3139 183.705 28.3955 183.746C28.4567 183.909 28.3955 184.134 28.2118 184.42C28.0485 184.685 27.8342 184.92 27.5689 185.124C27.324 185.328 27.0893 185.43 26.8648 185.43ZM24.0482 185.43C23.9054 185.43 23.8135 185.348 23.7727 185.185C23.7319 185.022 23.7115 184.899 23.7115 184.818C23.7115 184.654 23.7625 184.46 23.8645 184.236C23.9666 184.011 24.1197 183.848 24.3238 183.746C24.487 183.664 24.6809 183.624 24.9054 183.624C25.0279 183.624 25.1504 183.634 25.2728 183.654C25.3953 183.675 25.4973 183.705 25.579 183.746C25.6402 183.909 25.579 184.134 25.3953 184.42C25.232 184.685 25.0177 184.92 24.7524 185.124C24.5075 185.328 24.2727 185.43 24.0482 185.43ZM28.4961 196.297C28.3532 196.297 28.292 196.246 28.3124 196.144C28.843 195.205 29.3125 194.246 29.7207 193.267C30.1289 192.267 30.5268 191.267 30.9146 190.267L31.2514 189.379C31.2514 189.318 31.2004 189.297 31.0983 189.318C30.9963 189.338 30.9452 189.307 30.9452 189.226C30.9452 189.185 31.0269 189.032 31.1902 188.767C31.3534 188.481 31.5269 188.195 31.7106 187.909C31.8943 187.603 32.0065 187.42 32.0474 187.358C32.129 187.236 32.3127 187.114 32.5984 186.991C32.8842 186.869 33.0985 186.807 33.2413 186.807C33.4658 186.807 33.5781 186.899 33.5781 187.083C33.5781 187.144 33.5679 187.205 33.5475 187.267C33.5271 187.328 33.5066 187.379 33.4862 187.42C33.1801 188.154 32.8433 188.889 32.476 189.624C32.129 190.338 31.8433 191.083 31.6188 191.858C32.2106 191.144 32.8535 190.45 33.5475 189.777C34.2618 189.083 34.9863 188.45 35.7211 187.879C35.9252 187.716 36.1497 187.563 36.3946 187.42C36.6599 187.277 36.9253 187.205 37.1906 187.205C37.5171 187.205 37.7212 187.328 37.8029 187.573C37.8845 187.797 37.9253 188.032 37.9253 188.277C37.9253 188.603 37.8233 188.95 37.6192 189.318C37.4151 189.685 37.1192 189.869 36.7314 189.869C36.5681 189.869 36.4865 189.807 36.4865 189.685C36.4865 189.583 36.4967 189.501 36.5171 189.44C36.5375 189.358 36.5477 189.277 36.5477 189.195C36.5477 189.093 36.5069 188.971 36.4252 188.828C36.3436 188.685 36.2517 188.614 36.1497 188.614C35.8844 188.614 35.5272 188.777 35.0782 189.103C34.6292 189.43 34.1598 189.828 33.6699 190.297C33.2005 190.767 32.7719 191.226 32.3841 191.675C32.0167 192.103 31.7514 192.42 31.5881 192.624C31.3636 192.95 31.1697 193.287 31.0065 193.634C30.8432 193.961 30.7105 194.297 30.6085 194.644C30.5677 194.767 30.5268 194.899 30.486 195.042C30.4452 195.165 30.4044 195.277 30.3636 195.379C30.3227 195.481 30.1697 195.614 29.9043 195.777C29.639 195.92 29.3635 196.042 29.0778 196.144C28.8124 196.246 28.6185 196.297 28.4961 196.297ZM36.7347 196.297C36.6123 196.297 36.551 196.246 36.551 196.144C36.6531 195.981 36.7551 195.818 36.8572 195.654C36.9796 195.491 37.0817 195.338 37.1633 195.195C37.5307 194.481 37.8879 193.767 38.2348 193.052C38.5818 192.338 38.9492 191.634 39.337 190.94C39.3165 190.818 39.2757 190.654 39.2145 190.45C39.1737 190.246 39.1533 190.093 39.1533 189.991C39.1533 189.726 39.2655 189.542 39.49 189.44C39.7145 189.318 39.9186 189.236 40.1023 189.195C40.7962 187.624 41.5208 186.073 42.2759 184.542C43.0515 183.011 43.8985 181.532 44.8169 180.103C44.7557 179.981 44.7251 179.838 44.7251 179.675C44.7251 179.634 44.7251 179.593 44.7251 179.552C44.7455 179.511 44.7659 179.471 44.7863 179.43L45.9191 177.685C46.0415 177.562 46.2456 177.471 46.5313 177.409C46.8375 177.348 47.0722 177.317 47.2355 177.317C47.3171 177.317 47.4702 177.338 47.6947 177.379C47.9192 177.399 48.0315 177.481 48.0315 177.624C48.0315 177.644 48.0213 177.664 48.0008 177.685C48.0008 177.705 48.0008 177.715 48.0008 177.715C47.7967 178.042 47.5824 178.358 47.3579 178.664C47.1334 178.971 46.9089 179.277 46.6844 179.583C45.868 180.807 45.0925 182.062 44.3577 183.348C43.623 184.613 42.8984 185.889 42.1841 187.175C42.0412 187.46 41.8371 187.848 41.5718 188.338C41.3269 188.807 41.1024 189.287 40.8983 189.777C40.7146 190.246 40.6228 190.644 40.6228 190.971V191.063C41.0105 190.695 41.5106 190.246 42.1229 189.716C42.7556 189.165 43.3883 188.634 44.021 188.124C44.6741 187.614 45.2149 187.246 45.6435 187.022C45.8068 186.94 45.9905 186.899 46.1946 186.899C46.2762 186.899 46.3783 186.92 46.5007 186.96C46.6436 186.981 46.715 187.052 46.715 187.175C46.715 187.318 46.6232 187.471 46.4395 187.634C46.2558 187.797 46.0517 187.95 45.8272 188.093C45.6027 188.216 45.4394 188.307 45.3374 188.369C44.5822 188.818 43.7965 189.328 42.9801 189.899C42.1637 190.45 41.4289 191.012 40.7758 191.583C40.8371 191.807 40.9391 192.114 41.082 192.501C41.2453 192.869 41.4391 193.256 41.6637 193.665C41.8882 194.052 42.1229 194.389 42.3678 194.675C42.6331 194.94 42.8984 195.073 43.1638 195.073C43.4291 195.073 43.6536 194.971 43.8373 194.767C44.0414 194.542 44.2149 194.297 44.3577 194.032C44.521 193.746 44.6537 193.501 44.7557 193.297C44.8578 193.073 44.9394 192.961 45.0006 192.961C45.0414 192.961 45.0619 192.991 45.0619 193.052C45.0823 193.114 45.0925 193.154 45.0925 193.175C45.0925 193.236 45.0721 193.328 45.0312 193.45C44.9088 193.818 44.7659 194.195 44.6026 194.583C44.4394 194.971 44.2149 195.297 43.9291 195.563C43.6638 195.828 43.2964 195.961 42.827 195.961C42.3372 195.961 41.8882 195.746 41.48 195.318C41.0922 194.869 40.7758 194.359 40.5309 193.787C40.286 193.195 40.1227 192.695 40.0411 192.287C39.7758 192.593 39.5206 192.92 39.2757 193.267C39.0308 193.614 38.7961 193.961 38.5716 194.307C38.5716 194.328 38.5716 194.359 38.5716 194.399C38.592 194.42 38.6022 194.45 38.6022 194.491C38.6022 194.756 38.5002 195.032 38.2961 195.318C38.1124 195.603 37.8777 195.838 37.5919 196.022C37.3062 196.205 37.0205 196.297 36.7347 196.297ZM48.7926 185.92C48.7314 185.92 48.6905 185.848 48.6701 185.705C48.6701 185.542 48.6701 185.44 48.6701 185.399C48.6701 185.338 48.6803 185.205 48.7007 185.001C48.7212 184.797 48.7824 184.685 48.8844 184.665C49.1702 184.624 49.4559 184.573 49.7416 184.511C50.0274 184.45 50.3131 184.379 50.5988 184.297C50.6397 184.277 50.7009 184.267 50.7825 184.267C50.8846 184.267 50.9356 184.318 50.9356 184.42C50.9356 184.644 50.7927 184.879 50.507 185.124C50.2417 185.348 49.9355 185.542 49.5886 185.705C49.262 185.848 48.9967 185.92 48.7926 185.92ZM46.3128 195.838C45.3127 195.838 44.8127 195.328 44.8127 194.307C44.8127 193.879 44.8739 193.44 44.9964 192.991C45.1393 192.542 45.2923 192.124 45.4556 191.736C45.6393 191.287 45.8434 190.848 46.0679 190.42C46.2924 189.991 46.5169 189.563 46.7414 189.134C46.8435 188.95 46.9353 188.767 47.017 188.583C47.119 188.379 47.2211 188.185 47.3231 188.001C47.4251 187.858 47.619 187.736 47.9048 187.634C48.1905 187.532 48.415 187.481 48.5783 187.481C48.5987 187.481 48.5987 187.491 48.5783 187.511C48.5579 187.511 48.5477 187.511 48.5477 187.511C48.5681 187.511 48.5783 187.522 48.5783 187.542C48.6191 187.501 48.6701 187.481 48.7314 187.481C48.813 187.481 48.864 187.522 48.8844 187.603C48.9048 187.665 48.915 187.726 48.915 187.787C48.915 187.93 48.8538 188.144 48.7314 188.43C48.6293 188.716 48.4967 188.991 48.3334 189.256C48.1905 189.501 48.0476 189.654 47.9048 189.716C47.7211 190.144 47.4762 190.614 47.17 191.124C46.8843 191.634 46.619 192.154 46.3741 192.685C46.1291 193.195 46.0067 193.695 46.0067 194.185C46.0067 194.756 46.3128 195.042 46.9251 195.042C47.2108 195.042 47.517 194.95 47.8435 194.767C48.1905 194.583 48.5273 194.369 48.8538 194.124C49.1804 193.859 49.4559 193.634 49.6804 193.45C49.9253 193.267 50.0784 193.175 50.1396 193.175C50.16 193.175 50.1702 193.185 50.1702 193.205C50.1702 193.287 50.1396 193.379 50.0784 193.481C50.0172 193.563 49.9661 193.624 49.9253 193.665C49.6804 193.991 49.3539 194.328 48.9457 194.675C48.5375 195.001 48.0987 195.277 47.6292 195.501C47.1802 195.726 46.7414 195.838 46.3128 195.838ZM45.0148 206.063C44.4637 206.063 43.8922 205.961 43.3004 205.757C42.7085 205.573 42.2084 205.267 41.8002 204.838C41.3921 204.43 41.188 203.899 41.188 203.246C41.188 202.655 41.3614 202.114 41.7084 201.624C42.035 201.134 42.4636 200.685 42.9942 200.277C43.5045 199.889 44.0453 199.542 44.6168 199.236C45.1882 198.93 45.6985 198.685 46.1475 198.501C47.2904 198.032 48.5354 197.675 49.8825 197.43C51.2499 197.185 52.5459 197.022 53.7705 196.94C54.1379 196.001 54.5052 195.063 54.8726 194.124C55.2604 193.185 55.5563 192.216 55.7604 191.216L55.8829 190.634C55.6176 190.981 55.2502 191.45 54.7808 192.042C54.3318 192.634 53.8317 193.236 53.2807 193.848C52.75 194.461 52.2092 194.981 51.6581 195.41C51.107 195.818 50.6172 196.022 50.1886 196.022C49.8416 196.022 49.6069 195.879 49.4845 195.593C49.362 195.287 49.3008 194.991 49.3008 194.705C49.3008 193.93 49.4743 193.195 49.8212 192.501C50.1682 191.787 50.5152 191.103 50.8621 190.45L50.7703 190.481C50.6478 190.481 50.5866 190.42 50.5866 190.297C50.5866 190.277 50.607 190.226 50.6478 190.144C50.9132 189.654 51.1377 189.236 51.3213 188.889C51.505 188.542 51.75 188.277 52.0561 188.093C52.3622 187.909 52.8317 187.818 53.4644 187.818C53.5868 187.818 53.648 187.869 53.648 187.971C53.648 188.134 53.5358 188.409 53.3113 188.797C53.0868 189.185 52.8419 189.583 52.5765 189.991C52.3112 190.379 52.1275 190.654 52.0255 190.818C51.8622 191.063 51.6683 191.42 51.4438 191.889C51.2193 192.358 51.0254 192.828 50.8621 193.297C50.6989 193.746 50.6172 194.114 50.6172 194.399C50.6172 194.501 50.6376 194.603 50.6784 194.705C50.7193 194.787 50.8009 194.828 50.9234 194.828C51.1887 194.828 51.5254 194.675 51.9336 194.369C52.3418 194.042 52.7704 193.634 53.2194 193.144C53.6685 192.654 54.1073 192.144 54.5359 191.614C54.9645 191.063 55.3318 190.563 55.638 190.114C55.9645 189.644 56.1992 189.277 56.3421 189.012C56.5054 188.726 56.6176 188.43 56.6789 188.124C56.7401 187.797 56.934 187.532 57.2606 187.328C57.4034 187.246 57.5871 187.165 57.8116 187.083C58.0361 186.981 58.2198 186.93 58.3627 186.93C58.5668 186.93 58.6688 187.032 58.6688 187.236C58.6688 187.522 58.5668 187.818 58.3627 188.124C58.179 188.409 58.0157 188.675 57.8728 188.92C57.6892 189.267 57.5157 189.685 57.3524 190.175C57.2095 190.644 57.0769 191.083 56.9544 191.491C56.6279 192.389 56.3115 193.297 56.0054 194.216C55.7196 195.114 55.3727 196.012 54.9645 196.91H55.5768C55.74 196.91 55.8931 196.92 56.036 196.94C56.1992 196.961 56.2809 197.022 56.2809 197.124C56.2809 197.226 56.1686 197.287 55.9441 197.308C55.74 197.328 55.5155 197.328 55.2706 197.308C55.0461 197.308 54.893 197.308 54.8114 197.308C54.4032 198.287 53.8828 199.287 53.2501 200.308C52.6378 201.348 51.9132 202.297 51.0764 203.155C50.26 204.032 49.3518 204.736 48.3517 205.267C47.3313 205.797 46.2189 206.063 45.0148 206.063ZM44.8923 205.42C45.8924 205.42 46.8414 205.144 47.7395 204.593C48.6171 204.063 49.4232 203.379 50.158 202.542C50.9132 201.706 51.5765 200.818 52.1479 199.879C52.7398 198.961 53.2194 198.114 53.5868 197.338C52.4439 197.42 51.2193 197.593 49.9131 197.859C48.6069 198.144 47.4435 198.552 46.423 199.083C45.9128 199.328 45.3515 199.665 44.7392 200.093C44.1065 200.522 43.5657 201.012 43.1167 201.563C42.6472 202.134 42.4125 202.746 42.4125 203.399C42.4125 204.093 42.6779 204.604 43.2085 204.93C43.7188 205.257 44.28 205.42 44.8923 205.42ZM59.0716 196.052C58.6226 196.052 58.3267 195.981 58.1838 195.838C58.0409 195.695 57.9695 195.399 57.9695 194.95C57.9695 194.461 58.0817 193.899 58.3063 193.267C58.5512 192.634 58.7757 192.103 58.9798 191.675C58.9798 191.654 58.9696 191.644 58.9492 191.644C58.9492 191.624 58.9492 191.603 58.9492 191.583C58.9492 191.481 58.9798 191.399 59.041 191.338C59.1226 191.277 59.1839 191.216 59.2247 191.154C59.3267 190.991 59.4186 190.828 59.5002 190.665C59.5819 190.501 59.6635 190.348 59.7451 190.205C60.0921 189.654 60.5105 189.124 61.0003 188.614C61.5106 188.103 62.082 187.756 62.7147 187.573C62.9392 187.511 63.1535 187.481 63.3576 187.481C63.3985 187.481 63.4393 187.491 63.4801 187.511C63.5413 187.511 63.5719 187.532 63.5719 187.573C63.5719 187.634 63.5107 187.705 63.3883 187.787C63.2862 187.869 63.2148 187.93 63.174 187.971C62.8474 188.236 62.4902 188.644 62.1024 189.195C61.7351 189.746 61.4391 190.195 61.2146 190.542C61.684 190.461 62.1433 190.399 62.5923 190.358C63.0617 190.318 63.5209 190.318 63.9699 190.358C64.1944 190.032 64.3985 189.634 64.5822 189.165C64.7863 188.675 64.8884 188.226 64.8884 187.818C64.8884 187.593 64.8577 187.46 64.7965 187.42C64.7557 187.379 64.6434 187.358 64.4598 187.358C64.4189 187.358 64.3577 187.348 64.2761 187.328C64.1944 187.307 64.1536 187.267 64.1536 187.205C64.1536 187.124 64.2455 187.052 64.4291 186.991C64.6128 186.93 64.8067 186.889 65.0108 186.869C65.2149 186.828 65.3476 186.807 65.4088 186.807C65.9599 186.807 66.2354 187.062 66.2354 187.573C66.2354 187.858 66.1436 188.205 65.9599 188.614C65.7966 189.001 65.5823 189.369 65.317 189.716C65.072 190.042 64.8271 190.277 64.5822 190.42C64.6434 190.42 64.7659 190.45 64.9496 190.512C65.1537 190.552 65.3374 190.603 65.5006 190.665C65.6843 190.726 65.7762 190.797 65.7762 190.879C65.7762 190.94 65.715 190.981 65.5925 191.001C65.47 191.001 65.3884 191.001 65.3476 191.001C65.1639 191.001 64.9802 190.991 64.7965 190.971C64.6128 190.93 64.4291 190.909 64.2455 190.909C63.674 190.909 63.0923 190.95 62.5004 191.032C61.929 191.114 61.3575 191.216 60.786 191.338C60.5819 191.705 60.3472 192.175 60.0819 192.746C59.837 193.318 59.7145 193.828 59.7145 194.277C59.7145 194.991 60.0819 195.348 60.8166 195.348C61.3473 195.348 61.8575 195.205 62.3474 194.92C62.8576 194.634 63.327 194.297 63.7556 193.91C64.1842 193.522 64.5312 193.185 64.7965 192.899C65.0618 192.614 65.2149 192.471 65.2557 192.471C65.317 192.471 65.3476 192.512 65.3476 192.593C65.3476 192.838 65.2047 193.134 64.919 193.481C64.6332 193.807 64.3985 194.042 64.2148 194.185C63.5005 194.736 62.6943 195.185 61.7963 195.532C60.9187 195.879 60.0105 196.052 59.0716 196.052ZM66.7908 186.899C66.7704 186.899 66.7602 186.889 66.7602 186.869C66.7602 186.787 66.9031 186.573 67.1888 186.226C67.495 185.879 67.8419 185.46 68.2297 184.971C68.6175 184.481 68.9645 183.981 69.2706 183.471C69.5972 182.96 69.791 182.511 69.8523 182.124C69.9543 182.022 70.0768 181.971 70.2197 181.971C70.3829 181.971 70.5666 182.042 70.7707 182.185C70.9748 182.307 71.0769 182.45 71.0769 182.613C71.0769 182.715 70.9442 182.93 70.6789 183.256C70.4135 183.562 70.0768 183.93 69.6686 184.358C69.2808 184.767 68.8828 185.165 68.4746 185.552C68.0664 185.94 67.6991 186.267 67.3725 186.532C67.0664 186.777 66.8725 186.899 66.7908 186.899ZM70.5611 196.297C70.4182 196.297 70.357 196.246 70.3774 196.144C70.9489 195.165 71.4693 194.165 71.9387 193.144C72.4286 192.124 72.8878 191.093 73.3164 190.052C73.3164 190.012 73.3572 189.899 73.4388 189.716C73.5205 189.512 73.5613 189.399 73.5613 189.379C73.5613 189.318 73.5103 189.297 73.4082 189.318C73.3062 189.338 73.2551 189.307 73.2551 189.226C73.2551 189.185 73.3368 189.032 73.5001 188.767C73.6633 188.481 73.8368 188.195 74.0205 187.909C74.2042 187.603 74.3165 187.42 74.3573 187.358C74.4593 187.236 74.6532 187.114 74.9389 186.991C75.2247 186.869 75.439 186.807 75.5818 186.807C75.7859 186.807 75.888 186.899 75.888 187.083C75.888 187.144 75.8166 187.348 75.6737 187.695C75.5308 188.042 75.3471 188.45 75.1226 188.92C74.8981 189.389 74.6736 189.869 74.4491 190.358C74.2246 190.848 74.0205 191.277 73.8368 191.644C73.6531 192.012 73.5307 192.256 73.4695 192.379C73.6327 192.175 73.8981 191.879 74.2654 191.491C74.6532 191.083 75.0818 190.644 75.5512 190.175C76.0411 189.705 76.5309 189.256 77.0207 188.828C77.5106 188.379 77.9494 188.022 78.3372 187.756C78.7453 187.471 79.0617 187.328 79.2862 187.328C79.4495 187.328 79.5413 187.389 79.5617 187.511C79.6025 187.634 79.623 187.746 79.623 187.848C79.623 188.114 79.5923 188.389 79.5311 188.675C79.4699 188.96 79.3984 189.236 79.3168 189.501C79.1535 190.114 78.9494 190.838 78.7045 191.675C78.48 192.491 78.3678 193.205 78.3678 193.818C78.3678 194.124 78.4188 194.41 78.5208 194.675C78.6433 194.92 78.8882 195.042 79.2556 195.042C79.5413 195.042 79.8373 194.95 80.1434 194.767C80.47 194.583 80.7659 194.369 81.0312 194.124C81.317 193.859 81.5619 193.634 81.766 193.45C81.9905 193.267 82.1333 193.175 82.1946 193.175C82.215 193.175 82.2252 193.195 82.2252 193.236C82.2252 193.297 82.2048 193.379 82.164 193.481C82.1435 193.563 82.1129 193.624 82.0721 193.665C81.7456 194.175 81.2659 194.665 80.6332 195.134C80.0209 195.603 79.4087 195.838 78.7964 195.838C78.1637 195.838 77.684 195.654 77.3575 195.287C77.0513 194.899 76.8983 194.399 76.8983 193.787C76.8983 193.256 76.9901 192.665 77.1738 192.012C77.3779 191.358 77.5514 190.767 77.6942 190.236C77.7351 190.073 77.7861 189.879 77.8473 189.654C77.929 189.43 77.9698 189.236 77.9698 189.073C77.9698 189.032 77.9596 188.981 77.9392 188.92C77.9187 188.858 77.8779 188.828 77.8167 188.828C77.7147 188.828 77.582 188.889 77.4187 189.012C77.2758 189.114 77.1636 189.195 77.082 189.256C76.6942 189.583 76.2554 190.001 75.7655 190.512C75.2961 191.022 74.8267 191.583 74.3573 192.195C73.8878 192.787 73.4592 193.369 73.0715 193.94C72.6837 194.512 72.3775 195.022 72.153 195.471C72.1122 195.573 71.9795 195.695 71.755 195.838C71.5509 195.961 71.3264 196.063 71.0815 196.144C70.857 196.246 70.6835 196.297 70.5611 196.297ZM85.1473 185.92C85.086 185.92 85.0452 185.848 85.0248 185.705C85.0248 185.542 85.0248 185.44 85.0248 185.399C85.0248 185.338 85.035 185.205 85.0554 185.001C85.0758 184.797 85.1371 184.685 85.2391 184.665C85.5248 184.624 85.8106 184.573 86.0963 184.511C86.382 184.45 86.6678 184.379 86.9535 184.297C86.9943 184.277 87.0556 184.267 87.1372 184.267C87.2393 184.267 87.2903 184.318 87.2903 184.42C87.2903 184.644 87.1474 184.879 86.8617 185.124C86.5964 185.348 86.2902 185.542 85.9432 185.705C85.6167 185.848 85.3514 185.92 85.1473 185.92ZM82.6675 195.838C81.6674 195.838 81.1674 195.328 81.1674 194.307C81.1674 193.879 81.2286 193.44 81.3511 192.991C81.4939 192.542 81.647 192.124 81.8103 191.736C81.994 191.287 82.1981 190.848 82.4226 190.42C82.6471 189.991 82.8716 189.563 83.0961 189.134C83.1981 188.95 83.29 188.767 83.3716 188.583C83.4737 188.379 83.5757 188.185 83.6778 188.001C83.7798 187.858 83.9737 187.736 84.2594 187.634C84.5452 187.532 84.7697 187.481 84.933 187.481C84.9534 187.481 84.9534 187.491 84.933 187.511C84.9126 187.511 84.9023 187.511 84.9023 187.511C84.9228 187.511 84.933 187.522 84.933 187.542C84.9738 187.501 85.0248 187.481 85.086 187.481C85.1677 187.481 85.2187 187.522 85.2391 187.603C85.2595 187.665 85.2697 187.726 85.2697 187.787C85.2697 187.93 85.2085 188.144 85.086 188.43C84.984 188.716 84.8513 188.991 84.688 189.256C84.5452 189.501 84.4023 189.654 84.2594 189.716C84.0758 190.144 83.8308 190.614 83.5247 191.124C83.239 191.634 82.9736 192.154 82.7287 192.685C82.4838 193.195 82.3613 193.695 82.3613 194.185C82.3613 194.756 82.6675 195.042 83.2798 195.042C83.5655 195.042 83.8717 194.95 84.1982 194.767C84.5452 194.583 84.8819 194.369 85.2085 194.124C85.535 193.859 85.8106 193.634 86.0351 193.45C86.28 193.267 86.4331 193.175 86.4943 193.175C86.5147 193.175 86.5249 193.185 86.5249 193.205C86.5249 193.287 86.4943 193.379 86.4331 193.481C86.3718 193.563 86.3208 193.624 86.28 193.665C86.0351 193.991 85.7085 194.328 85.3003 194.675C84.8921 195.001 84.4533 195.277 83.9839 195.501C83.5349 195.726 83.0961 195.838 82.6675 195.838ZM85.8085 196.297C85.6657 196.297 85.6044 196.246 85.6248 196.144C86.1963 195.165 86.7168 194.165 87.1862 193.144C87.676 192.124 88.1352 191.093 88.5638 190.052C88.5638 190.012 88.6047 189.899 88.6863 189.716C88.7679 189.512 88.8087 189.399 88.8087 189.379C88.8087 189.318 88.7577 189.297 88.6557 189.318C88.5536 189.338 88.5026 189.307 88.5026 189.226C88.5026 189.185 88.5842 189.032 88.7475 188.767C88.9108 188.481 89.0843 188.195 89.268 187.909C89.4517 187.603 89.5639 187.42 89.6047 187.358C89.7068 187.236 89.9007 187.114 90.1864 186.991C90.4721 186.869 90.6864 186.807 90.8293 186.807C91.0334 186.807 91.1355 186.899 91.1355 187.083C91.1355 187.144 91.064 187.348 90.9212 187.695C90.7783 188.042 90.5946 188.45 90.3701 188.92C90.1456 189.389 89.9211 189.869 89.6966 190.358C89.4721 190.848 89.268 191.277 89.0843 191.644C88.9006 192.012 88.7781 192.256 88.7169 192.379C88.8802 192.175 89.1455 191.879 89.5129 191.491C89.9007 191.083 90.3293 190.644 90.7987 190.175C91.2885 189.705 91.7784 189.256 92.2682 188.828C92.758 188.379 93.1968 188.022 93.5846 187.756C93.9928 187.471 94.3091 187.328 94.5337 187.328C94.6969 187.328 94.7888 187.389 94.8092 187.511C94.85 187.634 94.8704 187.746 94.8704 187.848C94.8704 188.114 94.8398 188.389 94.7786 188.675C94.7173 188.96 94.6459 189.236 94.5643 189.501C94.401 190.114 94.1969 190.838 93.952 191.675C93.7275 192.491 93.6152 193.205 93.6152 193.818C93.6152 194.124 93.6662 194.41 93.7683 194.675C93.8907 194.92 94.1357 195.042 94.503 195.042C94.7888 195.042 95.0847 194.95 95.3909 194.767C95.7174 194.583 96.0134 194.369 96.2787 194.124C96.5644 193.859 96.8093 193.634 97.0134 193.45C97.2379 193.267 97.3808 193.175 97.442 193.175C97.4624 193.175 97.4726 193.195 97.4726 193.236C97.4726 193.297 97.4522 193.379 97.4114 193.481C97.391 193.563 97.3604 193.624 97.3196 193.665C96.993 194.175 96.5134 194.665 95.8807 195.134C95.2684 195.603 94.6561 195.838 94.0438 195.838C93.4111 195.838 92.9315 195.654 92.6049 195.287C92.2988 194.899 92.1457 194.399 92.1457 193.787C92.1457 193.256 92.2376 192.665 92.4213 192.012C92.6254 191.358 92.7988 190.767 92.9417 190.236C92.9825 190.073 93.0335 189.879 93.0948 189.654C93.1764 189.43 93.2172 189.236 93.2172 189.073C93.2172 189.032 93.207 188.981 93.1866 188.92C93.1662 188.858 93.1254 188.828 93.0642 188.828C92.9621 188.828 92.8295 188.889 92.6662 189.012C92.5233 189.114 92.4111 189.195 92.3294 189.256C91.9416 189.583 91.5028 190.001 91.013 190.512C90.5436 191.022 90.0742 191.583 89.6047 192.195C89.1353 192.787 88.7067 193.369 88.3189 193.94C87.9311 194.512 87.625 195.022 87.4005 195.471C87.3597 195.573 87.227 195.695 87.0025 195.838C86.7984 195.961 86.5739 196.063 86.329 196.144C86.1045 196.246 85.931 196.297 85.8085 196.297ZM111.608 197.828C111.057 197.828 110.506 197.746 109.955 197.583C109.404 197.42 108.934 197.154 108.546 196.787C108.159 196.42 107.924 195.93 107.842 195.318C107.455 195.134 107.036 194.879 106.587 194.552C106.159 194.226 105.791 193.848 105.485 193.42C105.179 192.991 105.026 192.542 105.026 192.073C105.026 191.42 105.312 190.869 105.883 190.42C106.475 189.971 107.25 189.603 108.21 189.318C109.169 189.011 110.21 188.777 111.332 188.614C112.475 188.43 113.608 188.297 114.731 188.216C115.853 188.134 116.874 188.083 117.792 188.063C118.731 188.022 119.455 188.001 119.966 188.001C120.251 187.491 120.598 186.889 121.007 186.195C121.435 185.481 121.905 184.756 122.415 184.022C122.945 183.267 123.497 182.562 124.068 181.909C124.66 181.256 125.262 180.726 125.874 180.317C126.487 179.889 127.109 179.644 127.742 179.583C126.762 179.317 125.701 179.113 124.558 178.971C123.435 178.828 122.303 178.726 121.16 178.664C120.017 178.583 118.935 178.542 117.914 178.542C117.465 178.542 116.863 178.562 116.108 178.603C115.373 178.624 114.588 178.695 113.751 178.817C112.914 178.94 112.118 179.134 111.363 179.399C110.628 179.644 110.016 179.991 109.526 180.44C109.057 180.869 108.822 181.42 108.822 182.093C108.822 182.807 109.026 183.471 109.434 184.083C109.863 184.675 110.394 185.195 111.026 185.644C111.659 186.093 112.271 186.45 112.863 186.716C112.924 186.736 113.016 186.787 113.139 186.869C113.261 186.93 113.322 187.001 113.322 187.083C113.322 187.144 113.271 187.175 113.169 187.175C113.088 187.175 112.996 187.165 112.894 187.144C112.812 187.103 112.73 187.073 112.649 187.052C111.996 186.828 111.312 186.522 110.598 186.134C109.883 185.726 109.281 185.226 108.791 184.634C108.302 184.022 108.057 183.318 108.057 182.522C108.057 182.358 108.067 182.195 108.087 182.032C108.108 181.848 108.148 181.685 108.21 181.542C108.475 180.624 108.904 179.879 109.496 179.307C110.108 178.736 110.812 178.297 111.608 177.991C112.424 177.664 113.271 177.45 114.149 177.348C115.047 177.226 115.904 177.164 116.721 177.164C118.068 177.164 119.394 177.266 120.7 177.471C122.007 177.654 123.313 177.879 124.619 178.144C125.925 178.409 127.231 178.644 128.538 178.848C129.844 179.032 131.16 179.124 132.487 179.124C132.834 179.124 133.099 179.062 133.283 178.94C133.487 178.797 133.64 178.664 133.742 178.542C133.865 178.399 133.977 178.328 134.079 178.328C134.242 178.328 134.385 178.399 134.508 178.542C134.63 178.664 134.691 178.797 134.691 178.94C134.691 179.042 134.661 179.113 134.599 179.154C134.538 179.195 134.457 179.236 134.354 179.277C133.701 179.603 133.15 180.124 132.701 180.838C132.252 181.532 131.824 182.175 131.415 182.767C131.375 182.828 131.303 182.92 131.201 183.042C131.099 183.164 131.007 183.226 130.926 183.226C130.864 183.226 130.834 183.185 130.834 183.103C130.834 182.838 130.926 182.532 131.109 182.185C131.313 181.818 131.507 181.46 131.691 181.113C131.875 180.746 131.967 180.45 131.967 180.226C131.967 180.124 131.905 180.042 131.783 179.981C131.497 179.879 131.181 179.807 130.834 179.766C130.507 179.726 130.191 179.705 129.885 179.705C128.783 179.705 127.823 179.981 127.007 180.532C126.191 181.083 125.466 181.787 124.833 182.644C124.201 183.501 123.629 184.409 123.119 185.369C122.629 186.328 122.17 187.216 121.741 188.032C122.109 188.032 122.476 188.042 122.843 188.063C123.211 188.083 123.568 188.134 123.915 188.216C123.935 188.236 124.007 188.267 124.129 188.307C124.252 188.328 124.313 188.358 124.313 188.399C124.313 188.46 124.18 188.511 123.915 188.552C123.65 188.573 123.476 188.593 123.394 188.614L121.374 188.705C121.292 188.848 121.211 188.981 121.129 189.103C121.068 189.226 120.996 189.358 120.915 189.501C120.18 190.665 119.466 191.767 118.772 192.807C118.098 193.828 117.312 194.746 116.414 195.563C115.516 196.379 114.394 197.052 113.047 197.583C112.822 197.665 112.588 197.726 112.343 197.767C112.098 197.808 111.853 197.828 111.608 197.828ZM111.118 197.246C111.853 197.246 112.557 197.042 113.23 196.634C113.924 196.246 114.578 195.736 115.19 195.103C115.823 194.45 116.404 193.746 116.935 192.991C117.465 192.236 117.945 191.491 118.374 190.756C118.823 190.022 119.2 189.379 119.506 188.828C119.078 188.848 118.435 188.889 117.578 188.95C116.741 188.991 115.802 189.063 114.761 189.165C113.741 189.267 112.7 189.409 111.639 189.593C110.598 189.756 109.628 189.971 108.73 190.236C107.832 190.501 107.108 190.828 106.557 191.216C106.026 191.583 105.761 192.022 105.761 192.532C105.761 193.063 105.995 193.501 106.465 193.848C106.955 194.195 107.414 194.471 107.842 194.675C107.842 194.552 107.873 194.297 107.934 193.91C108.016 193.522 108.118 193.154 108.24 192.807C108.363 192.44 108.506 192.256 108.669 192.256C108.71 192.256 108.73 192.297 108.73 192.379C108.751 192.44 108.761 192.481 108.761 192.501V192.746C108.72 193.012 108.679 193.267 108.638 193.512C108.597 193.736 108.577 193.981 108.577 194.246C108.577 194.369 108.577 194.501 108.577 194.644C108.597 194.767 108.618 194.889 108.638 195.012C109.189 195.216 109.863 195.42 110.659 195.624C111.455 195.828 112.149 195.93 112.741 195.93C112.802 195.93 112.863 195.92 112.924 195.899C113.006 195.899 113.088 195.899 113.169 195.899C113.19 195.899 113.22 195.899 113.261 195.899C113.302 195.899 113.322 195.92 113.322 195.961C113.322 196.042 113.22 196.093 113.016 196.114C112.812 196.154 112.69 196.175 112.649 196.175C112.016 196.175 111.363 196.134 110.689 196.052C110.036 195.971 109.404 195.838 108.791 195.654C108.975 196.205 109.261 196.603 109.649 196.848C110.057 197.114 110.547 197.246 111.118 197.246ZM127.601 185.92C127.54 185.92 127.499 185.848 127.478 185.705C127.478 185.542 127.478 185.44 127.478 185.399C127.478 185.338 127.489 185.205 127.509 185.001C127.529 184.797 127.591 184.685 127.693 184.665C127.978 184.624 128.264 184.573 128.55 184.511C128.836 184.45 129.121 184.379 129.407 184.297C129.448 184.277 129.509 184.267 129.591 184.267C129.693 184.267 129.744 184.318 129.744 184.42C129.744 184.644 129.601 184.879 129.315 185.124C129.05 185.348 128.744 185.542 128.397 185.705C128.07 185.848 127.805 185.92 127.601 185.92ZM125.121 195.838C124.121 195.838 123.621 195.328 123.621 194.307C123.621 193.879 123.682 193.44 123.805 192.991C123.948 192.542 124.101 192.124 124.264 191.736C124.448 191.287 124.652 190.848 124.876 190.42C125.101 189.991 125.325 189.563 125.55 189.134C125.652 188.95 125.744 188.767 125.825 188.583C125.927 188.379 126.029 188.185 126.131 188.001C126.233 187.858 126.427 187.736 126.713 187.634C126.999 187.532 127.223 187.481 127.387 187.481C127.407 187.481 127.407 187.491 127.387 187.511C127.366 187.511 127.356 187.511 127.356 187.511C127.376 187.511 127.387 187.522 127.387 187.542C127.427 187.501 127.478 187.481 127.54 187.481C127.621 187.481 127.672 187.522 127.693 187.603C127.713 187.665 127.723 187.726 127.723 187.787C127.723 187.93 127.662 188.144 127.54 188.43C127.438 188.716 127.305 188.991 127.142 189.256C126.999 189.501 126.856 189.654 126.713 189.716C126.529 190.144 126.284 190.614 125.978 191.124C125.693 191.634 125.427 192.154 125.182 192.685C124.937 193.195 124.815 193.695 124.815 194.185C124.815 194.756 125.121 195.042 125.733 195.042C126.019 195.042 126.325 194.95 126.652 194.767C126.999 194.583 127.336 194.369 127.662 194.124C127.989 193.859 128.264 193.634 128.489 193.45C128.734 193.267 128.887 193.175 128.948 193.175C128.968 193.175 128.979 193.185 128.979 193.205C128.979 193.287 128.948 193.379 128.887 193.481C128.825 193.563 128.774 193.624 128.734 193.665C128.489 193.991 128.162 194.328 127.754 194.675C127.346 195.001 126.907 195.277 126.438 195.501C125.989 195.726 125.55 195.838 125.121 195.838ZM128.262 196.297C128.119 196.297 128.058 196.246 128.078 196.144C128.609 195.205 129.079 194.246 129.487 193.267C129.895 192.267 130.293 191.267 130.681 190.267L131.017 189.379C131.017 189.318 130.966 189.297 130.864 189.318C130.762 189.338 130.711 189.307 130.711 189.226C130.711 189.185 130.793 189.032 130.956 188.767C131.12 188.481 131.293 188.195 131.477 187.909C131.66 187.603 131.773 187.42 131.813 187.358C131.895 187.236 132.079 187.114 132.365 186.991C132.65 186.869 132.865 186.807 133.007 186.807C133.232 186.807 133.344 186.899 133.344 187.083C133.344 187.144 133.334 187.205 133.314 187.267C133.293 187.328 133.273 187.379 133.252 187.42C132.946 188.154 132.609 188.889 132.242 189.624C131.895 190.338 131.609 191.083 131.385 191.858C131.977 191.144 132.62 190.45 133.314 189.777C134.028 189.083 134.752 188.45 135.487 187.879C135.691 187.716 135.916 187.563 136.161 187.42C136.426 187.277 136.691 187.205 136.957 187.205C137.283 187.205 137.487 187.328 137.569 187.573C137.651 187.797 137.691 188.032 137.691 188.277C137.691 188.603 137.589 188.95 137.385 189.318C137.181 189.685 136.885 189.869 136.497 189.869C136.334 189.869 136.253 189.807 136.253 189.685C136.253 189.583 136.263 189.501 136.283 189.44C136.304 189.358 136.314 189.277 136.314 189.195C136.314 189.093 136.273 188.971 136.191 188.828C136.11 188.685 136.018 188.614 135.916 188.614C135.65 188.614 135.293 188.777 134.844 189.103C134.395 189.43 133.926 189.828 133.436 190.297C132.967 190.767 132.538 191.226 132.15 191.675C131.783 192.103 131.518 192.42 131.354 192.624C131.13 192.95 130.936 193.287 130.773 193.634C130.609 193.961 130.477 194.297 130.375 194.644C130.334 194.767 130.293 194.899 130.252 195.042C130.211 195.165 130.17 195.277 130.13 195.379C130.089 195.481 129.936 195.614 129.67 195.777C129.405 195.92 129.13 196.042 128.844 196.144C128.579 196.246 128.385 196.297 128.262 196.297ZM136.807 196.297C136.685 196.297 136.623 196.246 136.623 196.144C137.174 195.205 137.654 194.246 138.062 193.267C138.47 192.267 138.868 191.267 139.256 190.267L139.593 189.379C139.593 189.318 139.532 189.297 139.409 189.318C139.307 189.338 139.256 189.307 139.256 189.226C139.256 189.185 139.338 189.032 139.501 188.767C139.685 188.481 139.868 188.195 140.052 187.909C140.236 187.603 140.348 187.42 140.389 187.358C140.471 187.236 140.654 187.114 140.94 186.991C141.226 186.869 141.44 186.807 141.583 186.807C141.787 186.807 141.889 186.899 141.889 187.083C141.889 187.144 141.787 187.409 141.583 187.879C141.399 188.328 141.175 188.869 140.909 189.501C140.644 190.114 140.399 190.695 140.175 191.246C139.95 191.777 139.807 192.154 139.746 192.379C139.909 192.175 140.175 191.879 140.542 191.491C140.909 191.083 141.328 190.644 141.797 190.175C142.267 189.705 142.746 189.256 143.236 188.828C143.726 188.399 144.165 188.052 144.552 187.787C144.961 187.501 145.277 187.358 145.501 187.358C145.685 187.358 145.798 187.44 145.839 187.603C145.9 187.746 145.93 187.889 145.93 188.032C145.93 188.42 145.839 188.909 145.655 189.501C145.491 190.093 145.297 190.685 145.073 191.277C144.848 191.869 144.654 192.348 144.491 192.716C144.899 192.369 145.338 191.971 145.808 191.522C146.298 191.052 146.767 190.573 147.216 190.083C147.665 189.593 148.033 189.134 148.318 188.705C148.482 188.501 148.675 188.399 148.9 188.399C149.329 188.399 149.543 188.603 149.543 189.012C149.543 189.216 149.471 189.522 149.329 189.93C149.186 190.338 149.022 190.593 148.839 190.695C148.737 191.124 148.645 191.573 148.563 192.042C148.482 192.491 148.441 192.95 148.441 193.42C148.441 193.603 148.461 193.828 148.502 194.093C148.543 194.338 148.624 194.563 148.747 194.767C148.869 194.95 149.053 195.042 149.298 195.042C149.584 195.042 149.88 194.95 150.186 194.767C150.492 194.583 150.788 194.369 151.074 194.124C151.359 193.859 151.604 193.634 151.808 193.45C152.012 193.267 152.145 193.175 152.206 193.175C152.247 193.175 152.268 193.195 152.268 193.236C152.268 193.297 152.247 193.379 152.206 193.481C152.166 193.563 152.125 193.624 152.084 193.665C151.778 194.175 151.308 194.665 150.676 195.134C150.063 195.603 149.441 195.838 148.808 195.838C148.135 195.838 147.665 195.624 147.4 195.195C147.135 194.767 147.002 194.256 147.002 193.665C147.002 193.032 147.094 192.399 147.277 191.767C147.482 191.114 147.686 190.501 147.89 189.93C147.379 190.563 146.828 191.185 146.237 191.797C145.644 192.389 145.052 192.961 144.461 193.512C144.318 193.961 144.042 194.43 143.634 194.92C143.246 195.41 142.787 195.654 142.256 195.654C142.236 195.654 142.185 195.644 142.103 195.624C142.042 195.603 142.011 195.563 142.011 195.501C142.011 195.501 142.011 195.491 142.011 195.471C142.011 195.45 142.022 195.44 142.042 195.44C142.185 195.052 142.369 194.583 142.593 194.032C142.838 193.481 143.083 192.899 143.328 192.287C143.593 191.675 143.807 191.093 143.971 190.542C144.154 189.991 144.246 189.532 144.246 189.165C144.246 189.103 144.236 189.032 144.216 188.95C144.216 188.869 144.165 188.828 144.063 188.828C143.879 188.828 143.614 188.981 143.267 189.287C142.94 189.573 142.573 189.95 142.165 190.42C141.756 190.869 141.348 191.338 140.94 191.828C140.552 192.318 140.205 192.767 139.899 193.175C139.593 193.563 139.389 193.838 139.287 194.001C138.96 194.471 138.664 194.961 138.399 195.471C138.358 195.573 138.225 195.695 138.001 195.838C137.797 195.961 137.572 196.063 137.327 196.144C137.103 196.246 136.929 196.297 136.807 196.297ZM158.258 196.083C157.707 196.083 157.339 195.869 157.156 195.44C156.972 194.991 156.88 194.542 156.88 194.093C156.88 193.583 156.921 193.073 157.003 192.563C157.084 192.052 157.176 191.552 157.278 191.063C157.074 191.409 156.747 191.858 156.298 192.41C155.849 192.961 155.349 193.522 154.798 194.093C154.247 194.644 153.686 195.114 153.115 195.501C152.564 195.869 152.074 196.052 151.645 196.052C151.4 196.052 151.237 195.971 151.155 195.808C151.094 195.644 151.063 195.461 151.063 195.256C151.063 194.828 151.165 194.287 151.37 193.634C151.574 192.981 151.859 192.297 152.227 191.583C152.594 190.848 153.002 190.175 153.451 189.563C153.921 188.95 154.4 188.46 154.89 188.093C155.4 187.705 155.911 187.532 156.421 187.573C156.645 187.45 156.89 187.338 157.156 187.236C157.421 187.134 157.686 187.083 157.952 187.083C158.156 187.083 158.36 187.103 158.564 187.144C158.788 187.165 159.003 187.195 159.207 187.236C159.309 187.195 159.421 187.154 159.544 187.114C159.666 187.073 159.789 187.052 159.911 187.052C160.135 187.052 160.248 187.154 160.248 187.358C160.248 187.46 160.187 187.665 160.064 187.971C159.962 188.256 159.84 188.532 159.697 188.797C159.574 189.042 159.472 189.185 159.391 189.226C159.207 189.593 159.033 190.073 158.87 190.665C158.707 191.236 158.574 191.828 158.472 192.44C158.37 193.052 158.319 193.573 158.319 194.001C158.319 194.226 158.35 194.481 158.411 194.767C158.493 195.032 158.686 195.165 158.993 195.165C159.34 195.165 159.686 195.032 160.033 194.767C160.401 194.481 160.717 194.205 160.982 193.94C161.248 193.654 161.401 193.512 161.442 193.512C161.483 193.512 161.503 193.532 161.503 193.573C161.503 193.756 161.401 193.971 161.197 194.216C160.993 194.461 160.768 194.695 160.523 194.92C160.278 195.124 160.095 195.277 159.972 195.379C159.727 195.563 159.452 195.726 159.146 195.869C158.86 196.012 158.564 196.083 158.258 196.083ZM152.717 195.012C152.819 195.012 152.941 194.971 153.084 194.889C153.227 194.787 153.339 194.705 153.421 194.644C154.645 193.767 155.605 192.756 156.298 191.614C156.992 190.471 157.666 189.246 158.319 187.94C158.237 187.899 158.146 187.869 158.044 187.848C157.941 187.828 157.839 187.818 157.737 187.818C157.35 187.818 156.962 187.92 156.574 188.124C156.207 188.328 155.9 188.573 155.656 188.858C155.268 189.267 154.87 189.807 154.462 190.481C154.074 191.134 153.717 191.818 153.39 192.532C153.064 193.226 152.819 193.848 152.655 194.399C152.635 194.461 152.615 194.522 152.594 194.583C152.574 194.644 152.564 194.716 152.564 194.797C152.564 194.94 152.615 195.012 152.717 195.012ZM177.686 199.45C176.788 199.45 176.339 198.991 176.339 198.073C176.339 197.542 176.462 196.92 176.707 196.205C176.952 195.512 177.248 194.797 177.594 194.063C177.962 193.307 178.329 192.603 178.697 191.95C179.084 191.277 179.411 190.716 179.676 190.267C179.35 190.165 178.982 190.022 178.574 189.838C178.186 189.634 177.85 189.389 177.564 189.103C177.299 188.797 177.166 188.43 177.166 188.001C177.166 187.695 177.268 187.348 177.472 186.96C177.697 186.552 177.992 186.348 178.36 186.348C178.482 186.348 178.544 186.399 178.544 186.501C178.544 186.644 178.431 186.828 178.207 187.052C178.003 187.256 177.901 187.542 177.901 187.909C177.901 188.236 178.013 188.532 178.237 188.797C178.462 189.063 178.727 189.287 179.033 189.471C179.36 189.634 179.656 189.767 179.921 189.869C180.309 189.256 180.697 188.654 181.085 188.063C181.472 187.45 181.86 186.848 182.248 186.256C182.044 186.154 181.829 186.062 181.605 185.981C181.38 185.899 181.156 185.858 180.931 185.858C180.442 185.858 180.074 186.001 179.829 186.287C179.584 186.552 179.391 186.869 179.248 187.236C179.125 187.603 179.013 187.93 178.911 188.216C178.829 188.481 178.707 188.614 178.544 188.614C178.482 188.614 178.452 188.563 178.452 188.46C178.452 187.95 178.615 187.42 178.942 186.869C179.288 186.297 179.717 185.818 180.227 185.43C180.758 185.042 181.289 184.848 181.819 184.848C182.248 184.848 182.646 184.94 183.013 185.124C183.646 184.205 184.279 183.297 184.911 182.399C185.564 181.481 186.238 180.583 186.932 179.705C186.911 179.481 187.044 179.195 187.33 178.848C187.616 178.501 187.83 178.236 187.973 178.052C187.095 177.848 186.197 177.705 185.279 177.624C184.381 177.522 183.472 177.471 182.554 177.471C181.309 177.471 180.054 177.562 178.788 177.746C177.543 177.93 176.329 178.226 175.145 178.634C174.696 178.777 174.166 179.001 173.553 179.307C172.941 179.613 172.4 179.991 171.931 180.44C171.461 180.869 171.227 181.369 171.227 181.94C171.227 182.389 171.37 182.777 171.655 183.103C171.941 183.409 172.288 183.664 172.696 183.869C173.104 184.073 173.482 184.246 173.829 184.389C173.849 184.409 173.89 184.44 173.951 184.481C174.033 184.501 174.074 184.532 174.074 184.573C174.074 184.634 174.013 184.675 173.89 184.695C173.768 184.716 173.686 184.726 173.645 184.726C173.543 184.726 173.472 184.716 173.431 184.695C173.125 184.593 172.747 184.46 172.298 184.297C171.849 184.134 171.41 183.93 170.982 183.685C170.553 183.44 170.196 183.154 169.91 182.828C169.625 182.501 169.482 182.134 169.482 181.726C169.482 181.277 169.645 180.869 169.971 180.501C170.298 180.113 170.706 179.777 171.196 179.491C171.686 179.185 172.176 178.93 172.666 178.726C173.176 178.522 173.604 178.358 173.951 178.236C175.237 177.828 176.543 177.522 177.87 177.317C179.217 177.113 180.564 177.011 181.911 177.011C182.972 177.011 184.024 177.073 185.064 177.195C186.126 177.317 187.167 177.511 188.187 177.777C188.289 177.654 188.391 177.511 188.493 177.348C188.616 177.164 188.728 177.022 188.83 176.919C188.993 176.756 189.248 176.634 189.595 176.552C189.942 176.471 190.228 176.43 190.453 176.43C190.534 176.43 190.657 176.45 190.82 176.491C190.983 176.511 191.065 176.583 191.065 176.705C191.065 176.746 190.963 176.889 190.759 177.134C190.575 177.358 190.381 177.583 190.177 177.807C189.973 178.032 189.84 178.185 189.779 178.266C190.289 178.45 190.83 178.695 191.402 179.001C191.993 179.287 192.555 179.634 193.085 180.042C193.616 180.45 194.045 180.92 194.371 181.45C194.718 181.96 194.892 182.532 194.892 183.164C194.892 183.96 194.626 184.695 194.096 185.369C193.585 186.042 192.932 186.654 192.136 187.205C191.361 187.756 190.555 188.236 189.718 188.644C188.881 189.032 188.136 189.338 187.483 189.563C187.85 190.012 188.33 190.624 188.922 191.399C189.534 192.154 190.167 192.95 190.82 193.787C191.493 194.603 192.147 195.348 192.779 196.022C193.412 196.695 193.943 197.175 194.371 197.461C194.473 197.542 194.586 197.614 194.708 197.675C194.851 197.736 194.994 197.767 195.137 197.767C195.443 197.767 195.647 197.634 195.749 197.369C195.851 197.103 195.902 196.808 195.902 196.481C195.922 196.154 195.933 195.899 195.933 195.716C195.933 195.614 195.984 195.563 196.086 195.563C196.167 195.563 196.218 195.654 196.239 195.838C196.279 196.022 196.3 196.216 196.3 196.42C196.32 196.624 196.331 196.767 196.331 196.848C196.331 197.277 196.239 197.675 196.055 198.042C195.871 198.41 195.524 198.593 195.014 198.593C194.463 198.593 193.851 198.369 193.177 197.92C192.524 197.471 191.851 196.889 191.157 196.175C190.463 195.461 189.789 194.705 189.136 193.91C188.483 193.114 187.891 192.369 187.36 191.675C186.85 190.961 186.432 190.399 186.105 189.991C185.473 190.154 184.83 190.297 184.177 190.42C183.523 190.542 182.87 190.603 182.217 190.603C182.013 190.603 181.809 190.603 181.605 190.603C181.421 190.583 181.227 190.563 181.023 190.542C180.778 190.991 180.493 191.532 180.166 192.165C179.86 192.797 179.554 193.471 179.248 194.185C178.962 194.879 178.717 195.552 178.513 196.205C178.329 196.879 178.237 197.471 178.237 197.981C178.237 198.165 178.268 198.359 178.329 198.563C178.39 198.767 178.533 198.869 178.758 198.869C178.942 198.869 179.115 198.838 179.278 198.777C179.462 198.736 179.635 198.716 179.799 198.716C179.819 198.716 179.86 198.716 179.921 198.716C180.003 198.716 180.044 198.736 180.044 198.777C180.044 198.859 179.87 198.95 179.523 199.052C179.197 199.175 178.839 199.267 178.452 199.328C178.064 199.41 177.809 199.45 177.686 199.45ZM186.993 188.95C187.565 188.705 188.238 188.379 189.014 187.971C189.789 187.542 190.544 187.052 191.279 186.501C192.014 185.93 192.626 185.318 193.116 184.665C193.606 183.991 193.851 183.287 193.851 182.552C193.851 181.838 193.616 181.215 193.147 180.685C192.677 180.154 192.106 179.715 191.432 179.369C190.779 179.001 190.157 178.715 189.565 178.511C188.565 179.675 187.595 180.869 186.656 182.093C185.738 183.297 184.85 184.532 183.993 185.797C184.544 186.267 185.064 186.777 185.554 187.328C186.044 187.858 186.524 188.399 186.993 188.95ZM182.034 190.236C182.625 190.236 183.248 190.154 183.901 189.991C184.554 189.828 185.146 189.654 185.677 189.471C185.289 189.001 184.901 188.552 184.513 188.124C184.126 187.695 183.697 187.297 183.228 186.93C182.881 187.46 182.534 188.001 182.187 188.552C181.86 189.083 181.534 189.624 181.207 190.175C181.35 190.195 181.483 190.216 181.605 190.236C181.748 190.236 181.891 190.236 182.034 190.236ZM195.282 196.052C194.833 196.052 194.537 195.981 194.395 195.838C194.252 195.695 194.18 195.399 194.18 194.95C194.18 194.461 194.292 193.899 194.517 193.267C194.762 192.634 194.986 192.103 195.19 191.675C195.19 191.654 195.18 191.644 195.16 191.644C195.16 191.624 195.16 191.603 195.16 191.583C195.16 191.481 195.19 191.399 195.252 191.338C195.333 191.277 195.395 191.216 195.435 191.154C195.537 190.991 195.629 190.828 195.711 190.665C195.793 190.501 195.874 190.348 195.956 190.205C196.303 189.654 196.721 189.124 197.211 188.614C197.721 188.103 198.293 187.756 198.925 187.573C199.15 187.511 199.364 187.481 199.568 187.481C199.609 187.481 199.65 187.491 199.691 187.511C199.752 187.511 199.783 187.532 199.783 187.573C199.783 187.634 199.721 187.705 199.599 187.787C199.497 187.869 199.426 187.93 199.385 187.971C199.058 188.236 198.701 188.644 198.313 189.195C197.946 189.746 197.65 190.195 197.425 190.542C197.895 190.461 198.354 190.399 198.803 190.358C199.272 190.318 199.732 190.318 200.181 190.358C200.405 190.032 200.609 189.634 200.793 189.165C200.997 188.675 201.099 188.226 201.099 187.818C201.099 187.593 201.068 187.46 201.007 187.42C200.966 187.379 200.854 187.358 200.67 187.358C200.63 187.358 200.568 187.348 200.487 187.328C200.405 187.307 200.364 187.267 200.364 187.205C200.364 187.124 200.456 187.052 200.64 186.991C200.824 186.93 201.017 186.889 201.222 186.869C201.426 186.828 201.558 186.807 201.62 186.807C202.171 186.807 202.446 187.062 202.446 187.573C202.446 187.858 202.354 188.205 202.171 188.614C202.007 189.001 201.793 189.369 201.528 189.716C201.283 190.042 201.038 190.277 200.793 190.42C200.854 190.42 200.977 190.45 201.16 190.512C201.364 190.552 201.548 190.603 201.711 190.665C201.895 190.726 201.987 190.797 201.987 190.879C201.987 190.94 201.926 190.981 201.803 191.001C201.681 191.001 201.599 191.001 201.558 191.001C201.375 191.001 201.191 190.991 201.007 190.971C200.824 190.93 200.64 190.909 200.456 190.909C199.885 190.909 199.303 190.95 198.711 191.032C198.14 191.114 197.568 191.216 196.997 191.338C196.793 191.705 196.558 192.175 196.293 192.746C196.048 193.318 195.925 193.828 195.925 194.277C195.925 194.991 196.293 195.348 197.027 195.348C197.558 195.348 198.068 195.205 198.558 194.92C199.068 194.634 199.538 194.297 199.966 193.91C200.395 193.522 200.742 193.185 201.007 192.899C201.273 192.614 201.426 192.471 201.466 192.471C201.528 192.471 201.558 192.512 201.558 192.593C201.558 192.838 201.415 193.134 201.13 193.481C200.844 193.807 200.609 194.042 200.426 194.185C199.711 194.736 198.905 195.185 198.007 195.532C197.129 195.879 196.221 196.052 195.282 196.052ZM201.165 196.512C201.144 196.512 201.134 196.501 201.134 196.481C201.134 196.379 201.206 196.154 201.348 195.808C201.512 195.461 201.614 195.246 201.655 195.165C202.41 193.471 203.134 191.767 203.828 190.052C204.522 188.318 205.267 186.614 206.063 184.94C206.879 183.246 207.808 181.634 208.849 180.103C208.808 179.94 208.788 179.797 208.788 179.675C208.788 179.573 208.798 179.491 208.818 179.43L209.951 177.685C210.074 177.562 210.278 177.471 210.563 177.409C210.869 177.348 211.104 177.317 211.267 177.317C211.349 177.317 211.502 177.338 211.727 177.379C211.951 177.399 212.063 177.481 212.063 177.624C212.063 177.685 212.053 177.715 212.033 177.715C211.706 178.164 211.38 178.624 211.053 179.093C210.727 179.562 210.4 180.032 210.074 180.501C207.318 184.624 205.114 188.991 203.461 193.603C204.379 192.726 205.247 191.797 206.063 190.818C206.879 189.838 207.737 188.909 208.635 188.032C208.675 187.991 208.716 187.971 208.757 187.971C208.818 187.95 208.869 187.93 208.91 187.909C209.012 187.848 209.135 187.767 209.278 187.665C209.441 187.563 209.573 187.511 209.676 187.511C209.676 187.511 209.676 187.522 209.676 187.542H209.706C209.727 187.522 209.778 187.511 209.859 187.511C209.961 187.511 210.022 187.573 210.043 187.695C210.063 187.818 210.074 187.92 210.074 188.001C210.074 188.205 210.002 188.522 209.859 188.95C209.737 189.379 209.584 189.644 209.4 189.746C209.196 190.461 209.002 191.114 208.818 191.705C208.655 192.277 208.573 192.961 208.573 193.756C208.573 193.961 208.604 194.226 208.665 194.552C208.726 194.879 208.91 195.042 209.216 195.042C209.502 195.042 209.798 194.95 210.104 194.767C210.41 194.583 210.706 194.369 210.992 194.124C211.278 193.859 211.523 193.634 211.727 193.45C211.931 193.267 212.063 193.175 212.125 193.175C212.165 193.175 212.186 193.205 212.186 193.267C212.186 193.328 212.165 193.399 212.125 193.481C212.084 193.563 212.043 193.624 212.002 193.665C211.676 194.175 211.206 194.665 210.594 195.134C209.982 195.603 209.359 195.838 208.726 195.838C208.114 195.838 207.706 195.634 207.502 195.226C207.298 194.797 207.196 194.328 207.196 193.818C207.196 193.063 207.308 192.267 207.533 191.43C207.777 190.593 208.033 189.828 208.298 189.134C208.175 189.256 207.93 189.522 207.563 189.93C207.196 190.338 206.767 190.807 206.277 191.338C205.787 191.869 205.308 192.399 204.838 192.93C204.369 193.44 203.971 193.879 203.644 194.246C203.338 194.614 203.175 194.838 203.155 194.92C203.134 195.042 203.124 195.175 203.124 195.318C203.124 195.44 203.083 195.563 203.002 195.685C202.961 195.746 202.808 195.838 202.542 195.961C202.277 196.103 202.001 196.226 201.716 196.328C201.45 196.45 201.267 196.512 201.165 196.512ZM213.154 196.267C212.929 196.267 212.695 196.236 212.45 196.175C212.225 196.114 212.021 196.012 211.837 195.869C211.817 195.91 211.786 195.961 211.746 196.022C211.705 196.083 211.644 196.114 211.562 196.114C211.399 196.114 211.256 196.022 211.133 195.838C211.011 195.654 210.95 195.491 210.95 195.348C210.95 195.308 210.95 195.277 210.95 195.256C210.97 195.216 210.98 195.185 210.98 195.165C211.144 194.512 211.409 193.777 211.776 192.961C212.164 192.144 212.501 191.43 212.787 190.818C213.623 189.001 214.481 187.195 215.358 185.399C216.256 183.603 217.205 181.838 218.205 180.103C218.144 179.981 218.113 179.838 218.113 179.675C218.113 179.573 218.134 179.491 218.175 179.43C218.236 179.328 218.348 179.154 218.511 178.909C218.675 178.644 218.838 178.389 219.001 178.144C219.165 177.899 219.267 177.746 219.307 177.685C219.409 177.562 219.603 177.471 219.889 177.409C220.195 177.348 220.43 177.317 220.593 177.317C220.695 177.317 220.848 177.338 221.052 177.379C221.277 177.399 221.389 177.481 221.389 177.624C221.389 177.685 221.379 177.715 221.359 177.715C220.848 178.471 220.328 179.226 219.797 179.981C219.287 180.715 218.797 181.471 218.328 182.246C217.348 183.858 216.44 185.511 215.603 187.205C214.787 188.879 214.021 190.593 213.307 192.348C213.593 192.001 213.98 191.522 214.47 190.909C214.96 190.297 215.501 189.675 216.093 189.042C216.685 188.409 217.277 187.879 217.869 187.45C218.46 187.022 218.981 186.807 219.43 186.807C219.695 186.807 219.869 186.869 219.95 186.991C220.052 187.093 220.103 187.277 220.103 187.542C220.103 187.909 220.032 188.338 219.889 188.828C219.746 189.318 219.603 189.736 219.46 190.083C219.542 190.042 219.675 189.981 219.858 189.899C220.042 189.818 220.175 189.777 220.256 189.777C220.338 189.777 220.379 189.807 220.379 189.869C220.379 190.012 220.226 190.134 219.92 190.236C219.614 190.338 219.399 190.409 219.277 190.45C219.093 190.879 218.858 191.369 218.573 191.92C218.287 192.45 217.971 192.961 217.624 193.45C217.297 193.94 216.95 194.348 216.583 194.675C216.256 194.961 215.889 195.165 215.481 195.287C215.072 195.41 214.674 195.563 214.287 195.746C214.062 195.869 213.889 195.981 213.766 196.083C213.644 196.205 213.44 196.267 213.154 196.267ZM213.582 192.899C214.236 192.409 214.909 191.981 215.603 191.614C216.317 191.226 217.042 190.869 217.777 190.542C217.858 190.379 217.95 190.154 218.052 189.869C218.175 189.583 218.287 189.297 218.389 189.012C218.491 188.726 218.542 188.501 218.542 188.338C218.542 188.134 218.471 188.032 218.328 188.032C218.083 188.032 217.726 188.236 217.256 188.644C216.807 189.052 216.328 189.542 215.817 190.114C215.307 190.665 214.848 191.205 214.44 191.736C214.032 192.267 213.746 192.654 213.582 192.899ZM213.429 195.593C213.878 195.593 214.317 195.42 214.746 195.073C215.174 194.726 215.572 194.297 215.94 193.787C216.307 193.277 216.634 192.767 216.919 192.256C217.226 191.726 217.46 191.287 217.624 190.94C217.073 191.165 216.44 191.501 215.726 191.95C215.032 192.399 214.368 192.889 213.736 193.42C213.123 193.95 212.654 194.471 212.327 194.981C212.633 195.389 213.001 195.593 213.429 195.593ZM220.395 196.052C219.946 196.052 219.65 195.981 219.507 195.838C219.364 195.695 219.293 195.399 219.293 194.95C219.293 194.461 219.405 193.899 219.63 193.267C219.875 192.634 220.099 192.103 220.303 191.675C220.303 191.654 220.293 191.644 220.272 191.644C220.272 191.624 220.272 191.603 220.272 191.583C220.272 191.481 220.303 191.399 220.364 191.338C220.446 191.277 220.507 191.216 220.548 191.154C220.65 190.991 220.742 190.828 220.824 190.665C220.905 190.501 220.987 190.348 221.068 190.205C221.415 189.654 221.834 189.124 222.324 188.614C222.834 188.103 223.405 187.756 224.038 187.573C224.263 187.511 224.477 187.481 224.681 187.481C224.722 187.481 224.763 187.491 224.803 187.511C224.865 187.511 224.895 187.532 224.895 187.573C224.895 187.634 224.834 187.705 224.712 187.787C224.61 187.869 224.538 187.93 224.497 187.971C224.171 188.236 223.814 188.644 223.426 189.195C223.058 189.746 222.762 190.195 222.538 190.542C223.007 190.461 223.467 190.399 223.916 190.358C224.385 190.318 224.844 190.318 225.293 190.358C225.518 190.032 225.722 189.634 225.906 189.165C226.11 188.675 226.212 188.226 226.212 187.818C226.212 187.593 226.181 187.46 226.12 187.42C226.079 187.379 225.967 187.358 225.783 187.358C225.742 187.358 225.681 187.348 225.599 187.328C225.518 187.307 225.477 187.267 225.477 187.205C225.477 187.124 225.569 187.052 225.752 186.991C225.936 186.93 226.13 186.889 226.334 186.869C226.538 186.828 226.671 186.807 226.732 186.807C227.283 186.807 227.559 187.062 227.559 187.573C227.559 187.858 227.467 188.205 227.283 188.614C227.12 189.001 226.906 189.369 226.64 189.716C226.395 190.042 226.15 190.277 225.906 190.42C225.967 190.42 226.089 190.45 226.273 190.512C226.477 190.552 226.661 190.603 226.824 190.665C227.008 190.726 227.1 190.797 227.1 190.879C227.1 190.94 227.038 190.981 226.916 191.001C226.793 191.001 226.712 191.001 226.671 191.001C226.487 191.001 226.304 190.991 226.12 190.971C225.936 190.93 225.752 190.909 225.569 190.909C224.997 190.909 224.416 190.95 223.824 191.032C223.252 191.114 222.681 191.216 222.109 191.338C221.905 191.705 221.671 192.175 221.405 192.746C221.16 193.318 221.038 193.828 221.038 194.277C221.038 194.991 221.405 195.348 222.14 195.348C222.671 195.348 223.181 195.205 223.671 194.92C224.181 194.634 224.65 194.297 225.079 193.91C225.508 193.522 225.855 193.185 226.12 192.899C226.385 192.614 226.538 192.471 226.579 192.471C226.64 192.471 226.671 192.512 226.671 192.593C226.671 192.838 226.528 193.134 226.242 193.481C225.957 193.807 225.722 194.042 225.538 194.185C224.824 194.736 224.018 195.185 223.12 195.532C222.242 195.879 221.334 196.052 220.395 196.052ZM226.981 196.297C226.839 196.297 226.777 196.246 226.798 196.144C227.328 195.205 227.798 194.246 228.206 193.267C228.614 192.267 229.012 191.267 229.4 190.267L229.737 189.379C229.737 189.318 229.686 189.297 229.584 189.318C229.482 189.338 229.431 189.307 229.431 189.226C229.431 189.185 229.512 189.032 229.675 188.767C229.839 188.481 230.012 188.195 230.196 187.909C230.38 187.603 230.492 187.42 230.533 187.358C230.614 187.236 230.798 187.114 231.084 186.991C231.37 186.869 231.584 186.807 231.727 186.807C231.951 186.807 232.063 186.899 232.063 187.083C232.063 187.144 232.053 187.205 232.033 187.267C232.012 187.328 231.992 187.379 231.972 187.42C231.665 188.154 231.329 188.889 230.961 189.624C230.614 190.338 230.329 191.083 230.104 191.858C230.696 191.144 231.339 190.45 232.033 189.777C232.747 189.083 233.472 188.45 234.206 187.879C234.411 187.716 234.635 187.563 234.88 187.42C235.145 187.277 235.411 187.205 235.676 187.205C236.002 187.205 236.207 187.328 236.288 187.573C236.37 187.797 236.411 188.032 236.411 188.277C236.411 188.603 236.309 188.95 236.105 189.318C235.9 189.685 235.604 189.869 235.217 189.869C235.053 189.869 234.972 189.807 234.972 189.685C234.972 189.583 234.982 189.501 235.002 189.44C235.023 189.358 235.033 189.277 235.033 189.195C235.033 189.093 234.992 188.971 234.911 188.828C234.829 188.685 234.737 188.614 234.635 188.614C234.37 188.614 234.013 188.777 233.564 189.103C233.115 189.43 232.645 189.828 232.155 190.297C231.686 190.767 231.257 191.226 230.869 191.675C230.502 192.103 230.237 192.42 230.074 192.624C229.849 192.95 229.655 193.287 229.492 193.634C229.329 193.961 229.196 194.297 229.094 194.644C229.053 194.767 229.012 194.899 228.971 195.042C228.931 195.165 228.89 195.277 228.849 195.379C228.808 195.481 228.655 195.614 228.39 195.777C228.124 195.92 227.849 196.042 227.563 196.144C227.298 196.246 227.104 196.297 226.981 196.297ZM239.446 185.92C239.385 185.92 239.344 185.848 239.323 185.705C239.323 185.542 239.323 185.44 239.323 185.399C239.323 185.338 239.334 185.205 239.354 185.001C239.374 184.797 239.436 184.685 239.538 184.665C239.823 184.624 240.109 184.573 240.395 184.511C240.681 184.45 240.966 184.379 241.252 184.297C241.293 184.277 241.354 184.267 241.436 184.267C241.538 184.267 241.589 184.318 241.589 184.42C241.589 184.644 241.446 184.879 241.16 185.124C240.895 185.348 240.589 185.542 240.242 185.705C239.915 185.848 239.65 185.92 239.446 185.92ZM236.966 195.838C235.966 195.838 235.466 195.328 235.466 194.307C235.466 193.879 235.527 193.44 235.65 192.991C235.793 192.542 235.946 192.124 236.109 191.736C236.293 191.287 236.497 190.848 236.721 190.42C236.946 189.991 237.17 189.563 237.395 189.134C237.497 188.95 237.589 188.767 237.67 188.583C237.772 188.379 237.874 188.185 237.976 188.001C238.078 187.858 238.272 187.736 238.558 187.634C238.844 187.532 239.068 187.481 239.232 187.481C239.252 187.481 239.252 187.491 239.232 187.511C239.211 187.511 239.201 187.511 239.201 187.511C239.221 187.511 239.232 187.522 239.232 187.542C239.272 187.501 239.323 187.481 239.385 187.481C239.466 187.481 239.517 187.522 239.538 187.603C239.558 187.665 239.568 187.726 239.568 187.787C239.568 187.93 239.507 188.144 239.385 188.43C239.283 188.716 239.15 188.991 238.987 189.256C238.844 189.501 238.701 189.654 238.558 189.716C238.374 190.144 238.129 190.614 237.823 191.124C237.538 191.634 237.272 192.154 237.027 192.685C236.782 193.195 236.66 193.695 236.66 194.185C236.66 194.756 236.966 195.042 237.578 195.042C237.864 195.042 238.17 194.95 238.497 194.767C238.844 194.583 239.181 194.369 239.507 194.124C239.834 193.859 240.109 193.634 240.334 193.45C240.579 193.267 240.732 193.175 240.793 193.175C240.813 193.175 240.824 193.185 240.824 193.205C240.824 193.287 240.793 193.379 240.732 193.481C240.67 193.563 240.619 193.624 240.579 193.665C240.334 193.991 240.007 194.328 239.599 194.675C239.191 195.001 238.752 195.277 238.283 195.501C237.834 195.726 237.395 195.838 236.966 195.838Z" fill="white"/>
</g>
<defs>
<clipPath id="clip0_109_2954">
<rect width="242" height="207" fill="white" transform="translate(0 0.5)"/>
</clipPath>
</defs>
</svg>
