<svg width="244" height="60" viewBox="0 0 244 60" fill="none" xmlns="http://www.w3.org/2000/svg">
<g clip-path="url(#clip0_109_3163)">
<path d="M33.5195 47.7015L55.1509 37.6058L49.2069 28.6726L27.5755 38.7071L33.5195 47.7015ZM33.5195 17.6591L55.1509 27.7548L49.2069 28.6726L27.5755 18.5769L33.5195 17.6591ZM21.6314 17.6591L0 27.7548L5.94405 28.6726L27.5755 18.5769L21.6314 17.6591ZM22.0604 49.17L5.94405 41.6441V50.2714L26.7789 60V42.0112L22.0604 49.17Z" fill="url(#paint0_linear_109_3163)"/>
<path d="M33.0906 49.17L28.3721 42.0112V60L49.2069 50.2714V41.6441L33.0906 49.17ZM21.6314 47.7015L0 37.6058L5.94405 28.6726L27.5755 38.7072L21.6314 47.7015Z" fill="url(#paint1_linear_109_3163)"/>
<path d="M27.7531 0C21.9543 0 17.2407 4.70648 17.2407 10.4965C17.2407 21.1284 27.7531 31.4894 27.7531 31.4894C27.7531 31.4894 38.2654 21.1622 38.2654 10.4965C38.2654 4.70648 33.5518 0 27.7531 0ZM27.7531 18.3519C23.4125 18.3519 19.8858 14.8305 19.8858 10.4965C19.8858 6.16244 23.4125 2.64105 27.7531 2.64105C32.0936 2.64105 35.6204 6.16244 35.6204 10.4965C35.6204 14.8305 32.0936 18.3519 27.7531 18.3519Z" fill="url(#paint2_linear_109_3163)"/>
<path d="M25.4382 9.33753L26.5917 10.4894L24.1643 12.9127L25.4382 14.1846L27.8652 11.7609L29.0188 12.9127L26.5917 15.3365L27.8652 16.608L30.2922 14.1846L31.566 12.9127L33.9931 10.4894L32.7196 9.21783L30.2922 11.6412L29.1386 10.4894L31.566 8.066L30.2922 6.79409L27.8652 9.21783L26.7116 8.066L29.1386 5.64226L27.8652 4.37073L25.4382 6.79409L24.1643 8.066L21.7373 10.4894L23.0108 11.7609L25.4382 9.33753Z" fill="#F1EEE6"/>
<path d="M67.9302 23.7211C67.9302 24.4862 67.9392 25.1567 67.9572 25.7328C67.9842 26.2998 68.0112 26.7903 68.0382 27.2044C68.0742 27.6184 68.1147 27.9649 68.1597 28.2439C68.2137 28.523 68.2677 28.757 68.3218 28.946V29H65.0815V28.946C65.1355 28.757 65.185 28.523 65.23 28.2439C65.284 27.9649 65.329 27.6184 65.365 27.2044C65.401 26.7903 65.428 26.2998 65.446 25.7328C65.464 25.1567 65.473 24.4862 65.473 23.7211V14.932C65.473 14.1669 65.464 13.5009 65.446 12.9338C65.428 12.3578 65.401 11.8628 65.365 11.4487C65.329 11.0257 65.284 10.6747 65.23 10.3957C65.185 10.1166 65.1355 9.88262 65.0815 9.6936V9.6396C65.8286 9.6396 66.5846 9.6396 67.3497 9.6396C68.1147 9.6306 68.8573 9.6261 69.5773 9.6261C70.2974 9.6171 70.9814 9.6081 71.6295 9.5991C72.2775 9.5811 72.8626 9.56759 73.3846 9.55859C73.9067 9.54059 74.3477 9.52259 74.7077 9.50459C75.0677 9.47759 75.3243 9.45059 75.4773 9.42358L74.8157 11.2192C74.5187 11.1382 74.1722 11.0662 73.7761 11.0032C73.4341 10.9492 73.0156 10.8997 72.5206 10.8547C72.0345 10.8007 71.472 10.7737 70.8329 10.7737C70.6169 10.7737 70.3469 10.7827 70.0229 10.8007C69.6989 10.8097 69.3793 10.8232 69.0643 10.8412C68.7043 10.8592 68.3263 10.8772 67.9302 10.8952V17.7132C68.8573 17.7042 69.7079 17.6772 70.4819 17.6322C71.256 17.5872 71.922 17.5422 72.4801 17.4972C73.1281 17.4432 73.7131 17.3802 74.2352 17.3082L73.8302 19.2658C73.1551 19.1848 72.4711 19.1083 71.778 19.0363C71.184 18.9733 70.5449 18.9193 69.8609 18.8743C69.1768 18.8203 68.5333 18.7933 67.9302 18.7933V23.7211ZM78.191 20.4539C78.191 19.6888 78.1775 19.0228 78.1505 18.4557C78.1325 17.8797 78.1055 17.3847 78.0695 16.9706C78.0425 16.5566 78.002 16.2101 77.9479 15.9311C77.9029 15.652 77.8534 15.418 77.7994 15.229V15.175H80.9182V15.229C80.8642 15.418 80.8147 15.652 80.7697 15.9311C80.7246 16.2101 80.6841 16.5566 80.6481 16.9706C80.6121 17.3847 80.5851 17.8797 80.5671 18.4557C80.5491 19.0228 80.5401 19.6888 80.5401 20.4539V23.7211C80.5401 24.4862 80.5491 25.1567 80.5671 25.7328C80.5851 26.2998 80.6121 26.7903 80.6481 27.2044C80.6841 27.6184 80.7246 27.9649 80.7697 28.2439C80.8147 28.523 80.8642 28.757 80.9182 28.946V29H77.7994V28.946C77.8534 28.757 77.9029 28.523 77.9479 28.2439C78.002 27.9649 78.0425 27.6184 78.0695 27.2044C78.1055 26.7903 78.1325 26.2998 78.1505 25.7328C78.1775 25.1567 78.191 24.4862 78.191 23.7211V20.4539ZM77.9074 11.0842C77.9074 10.8862 77.9434 10.7017 78.0155 10.5307C78.0965 10.3507 78.2 10.1976 78.326 10.0716C78.452 9.93662 78.6005 9.83311 78.7715 9.76111C78.9515 9.6801 79.145 9.6396 79.3521 9.6396C79.5591 9.6396 79.7481 9.6801 79.9191 9.76111C80.0991 9.83311 80.2521 9.93662 80.3781 10.0716C80.5131 10.1976 80.6166 10.3507 80.6886 10.5307C80.7697 10.7017 80.8102 10.8862 80.8102 11.0842C80.8102 11.4982 80.6706 11.8448 80.3916 12.1238C80.1126 12.4028 79.7661 12.5423 79.3521 12.5423C79.145 12.5423 78.9515 12.5063 78.7715 12.4343C78.6005 12.3533 78.452 12.2498 78.326 12.1238C78.2 11.9888 78.0965 11.8358 78.0155 11.6647C77.9434 11.4847 77.9074 11.2912 77.9074 11.0842ZM84.7794 20.4539C84.7794 19.6888 84.7659 19.0228 84.7389 18.4557C84.7209 17.8797 84.6939 17.3847 84.6579 16.9706C84.6309 16.5566 84.5904 16.2101 84.5364 15.9311C84.4914 15.652 84.4419 15.418 84.3879 15.229V15.175H87.5066V15.229C87.4346 15.436 87.3716 15.688 87.3176 15.9851C87.2726 16.2821 87.2366 16.6646 87.2096 17.1326C87.5426 16.8536 87.8892 16.5791 88.2492 16.3091C88.6092 16.0391 88.9782 15.8005 89.3563 15.5935C89.7343 15.3865 90.1168 15.22 90.5039 15.094C90.8999 14.968 91.2959 14.905 91.6919 14.905C91.935 14.905 92.1465 14.9185 92.3265 14.9455C92.5065 14.9635 92.6685 14.995 92.8125 15.04C92.9565 15.076 93.087 15.121 93.2041 15.175C93.3211 15.22 93.4336 15.265 93.5416 15.31L92.88 17.8887L92.6505 17.8347C92.5425 17.4387 92.34 17.1236 92.043 16.8896C91.7459 16.6466 91.3409 16.5251 90.8279 16.5251C90.5489 16.5251 90.2563 16.5746 89.9503 16.6736C89.6443 16.7726 89.3338 16.9121 89.0187 17.0921C88.7037 17.2632 88.3887 17.4657 88.0737 17.6997C87.7587 17.9247 87.4526 18.1632 87.1556 18.4152C87.1376 18.6763 87.1286 18.9598 87.1286 19.2658C87.1286 19.5718 87.1286 19.8958 87.1286 20.2379V23.7211C87.1286 24.4862 87.1376 25.1567 87.1556 25.7328C87.1736 26.2998 87.2006 26.7903 87.2366 27.2044C87.2726 27.6184 87.3131 27.9649 87.3581 28.2439C87.4031 28.523 87.4526 28.757 87.5066 28.946V29H84.3879V28.946C84.4419 28.757 84.4914 28.523 84.5364 28.2439C84.5904 27.9649 84.6309 27.6184 84.6579 27.2044C84.6939 26.7903 84.7209 26.2998 84.7389 25.7328C84.7659 25.1567 84.7794 24.4862 84.7794 23.7211V20.4539ZM104.639 19.9003C104.639 19.3063 104.576 18.7933 104.45 18.3612C104.333 17.9292 104.158 17.5737 103.924 17.2947C103.699 17.0066 103.424 16.7951 103.1 16.6601C102.776 16.5161 102.416 16.4441 102.02 16.4441C101.75 16.4441 101.449 16.4981 101.116 16.6061C100.783 16.7141 100.436 16.8626 100.076 17.0516C99.725 17.2316 99.3695 17.4432 99.0095 17.6862C98.6584 17.9292 98.3254 18.1902 98.0104 18.4692C97.9924 18.7573 97.9834 19.0678 97.9834 19.4008C97.9834 19.7248 97.9834 20.0759 97.9834 20.4539V23.7211C97.9834 24.4862 97.9924 25.1567 98.0104 25.7328C98.0284 26.2998 98.0554 26.7903 98.0914 27.2044C98.1274 27.6184 98.1679 27.9649 98.2129 28.2439C98.2579 28.523 98.3074 28.757 98.3614 28.946V29H95.2427V28.946C95.2967 28.757 95.3462 28.523 95.3912 28.2439C95.4452 27.9649 95.4857 27.6184 95.5127 27.2044C95.5487 26.7903 95.5757 26.2998 95.5937 25.7328C95.6207 25.1567 95.6342 24.4862 95.6342 23.7211V20.4539C95.6342 19.6888 95.6207 19.0228 95.5937 18.4557C95.5757 17.8797 95.5487 17.3847 95.5127 16.9706C95.4857 16.5566 95.4452 16.2101 95.3912 15.9311C95.3462 15.652 95.2967 15.418 95.2427 15.229V15.175H98.3614V15.229C98.2894 15.436 98.2309 15.7015 98.1859 16.0256C98.1499 16.3406 98.1094 16.7411 98.0644 17.2271C98.4244 16.9391 98.8115 16.6556 99.2255 16.3766C99.6395 16.0976 100.063 15.85 100.495 15.634C100.936 15.418 101.377 15.2425 101.818 15.1075C102.259 14.9725 102.695 14.905 103.127 14.905C103.64 14.905 104.095 14.9725 104.491 15.1075C104.887 15.2425 105.233 15.427 105.53 15.661C105.827 15.8951 106.075 16.1696 106.273 16.4846C106.48 16.7996 106.638 17.1371 106.746 17.4972C107.115 17.1821 107.515 16.8716 107.947 16.5656C108.388 16.2506 108.838 15.9716 109.297 15.7285C109.765 15.4855 110.238 15.2875 110.715 15.1345C111.201 14.9815 111.673 14.905 112.132 14.905C112.834 14.905 113.429 15.0265 113.915 15.2695C114.41 15.5125 114.81 15.832 115.116 16.2281C115.431 16.6241 115.656 17.0786 115.791 17.5917C115.935 18.0957 116.007 18.6087 116.007 19.1308V23.7211C116.007 24.4862 116.016 25.1567 116.034 25.7328C116.052 26.2998 116.079 26.7903 116.115 27.2044C116.151 27.6184 116.192 27.9649 116.237 28.2439C116.291 28.523 116.345 28.757 116.399 28.946V29H113.267V28.946C113.321 28.757 113.37 28.523 113.415 28.2439C113.469 27.9649 113.514 27.6184 113.55 27.2044C113.586 26.7903 113.613 26.2998 113.631 25.7328C113.649 25.1567 113.658 24.4862 113.658 23.7211V19.9003C113.658 18.7123 113.42 17.8392 112.942 17.2812C112.465 16.7231 111.826 16.4441 111.025 16.4441C110.746 16.4441 110.436 16.4981 110.094 16.6061C109.761 16.7141 109.414 16.8626 109.054 17.0516C108.694 17.2406 108.334 17.4612 107.974 17.7132C107.614 17.9562 107.277 18.2172 106.962 18.4962C106.98 18.6042 106.989 18.7123 106.989 18.8203C106.989 18.9283 106.989 19.0318 106.989 19.1308V23.7211C106.989 24.4862 106.998 25.1567 107.016 25.7328C107.043 26.2998 107.07 26.7903 107.097 27.2044C107.133 27.6184 107.173 27.9649 107.218 28.2439C107.272 28.523 107.326 28.757 107.38 28.946V29H104.261V28.946C104.315 28.757 104.365 28.523 104.41 28.2439C104.455 27.9649 104.495 27.6184 104.531 27.2044C104.567 26.7903 104.594 26.2998 104.612 25.7328C104.63 25.1567 104.639 24.4862 104.639 23.7211V19.9003ZM118.991 25.0172C118.991 24.3062 119.135 23.6896 119.423 23.1676C119.72 22.6455 120.111 22.2 120.598 21.831C121.084 21.462 121.637 21.1649 122.258 20.9399C122.879 20.7059 123.523 20.5259 124.189 20.3999C124.855 20.2649 125.512 20.1749 126.16 20.1299C126.808 20.0759 127.402 20.0444 127.942 20.0354V19.3468C127.942 18.7528 127.866 18.2397 127.713 17.8077C127.56 17.3757 127.344 17.0201 127.065 16.7411C126.785 16.4531 126.448 16.2416 126.052 16.1066C125.665 15.9626 125.237 15.8906 124.769 15.8906C124.445 15.8906 124.126 15.9176 123.811 15.9716C123.496 16.0256 123.167 16.1156 122.825 16.2416C122.492 16.3676 122.137 16.5386 121.759 16.7546C121.39 16.9706 120.989 17.2451 120.557 17.5782L120.422 17.4972L121.34 15.5935C121.637 15.4585 121.93 15.3505 122.218 15.2695C122.506 15.1795 122.798 15.1075 123.095 15.0535C123.392 14.9995 123.694 14.9635 124 14.9455C124.315 14.9185 124.643 14.905 124.985 14.905C125.93 14.905 126.736 15.022 127.402 15.256C128.077 15.481 128.626 15.796 129.049 16.2011C129.481 16.5971 129.796 17.0651 129.994 17.6052C130.192 18.1362 130.291 18.7078 130.291 19.3198V23.7211C130.291 24.4862 130.3 25.1567 130.318 25.7328C130.345 26.2998 130.372 26.7903 130.399 27.2044C130.435 27.6184 130.476 27.9649 130.521 28.2439C130.575 28.523 130.629 28.757 130.683 28.946V29H127.699V28.946C127.744 28.802 127.776 28.64 127.794 28.46C127.821 28.2799 127.843 28.0639 127.861 27.8119C127.672 27.9739 127.447 28.1404 127.186 28.3115C126.934 28.4825 126.641 28.64 126.308 28.784C125.984 28.919 125.62 29.027 125.215 29.108C124.819 29.198 124.382 29.243 123.905 29.243C122.339 29.243 121.129 28.8785 120.274 28.1494C119.418 27.4114 118.991 26.3673 118.991 25.0172ZM127.942 21.0884C127.123 21.0974 126.335 21.1469 125.579 21.2369C124.823 21.3179 124.153 21.4935 123.568 21.7635C122.992 22.0335 122.528 22.4205 122.177 22.9246C121.835 23.4196 121.664 24.0811 121.664 24.9092C121.664 25.9713 121.93 26.7813 122.461 27.3394C122.992 27.8974 123.725 28.1764 124.661 28.1764C125.093 28.1764 125.485 28.1179 125.836 28.0009C126.196 27.8749 126.511 27.7219 126.781 27.5419C127.06 27.3529 127.294 27.1504 127.483 26.9344C127.672 26.7093 127.816 26.4933 127.915 26.2863C127.933 25.9443 127.942 25.5663 127.942 25.1522C127.942 24.7292 127.942 24.2522 127.942 23.7211V21.0884ZM142.523 28.946C142.577 28.757 142.627 28.523 142.672 28.2439C142.726 27.9649 142.771 27.6184 142.807 27.2044C142.843 26.7903 142.87 26.2998 142.888 25.7328C142.906 25.1567 142.915 24.4862 142.915 23.7211V14.932C142.915 14.1669 142.906 13.5009 142.888 12.9338C142.87 12.3578 142.843 11.8628 142.807 11.4487C142.771 11.0257 142.726 10.6747 142.672 10.3957C142.627 10.1166 142.577 9.88262 142.523 9.6936V9.6396H145.763V9.6936C145.709 9.88262 145.655 10.1166 145.601 10.3957C145.556 10.6747 145.516 11.0257 145.48 11.4487C145.453 11.8628 145.426 12.3578 145.399 12.9338C145.381 13.5009 145.372 14.1669 145.372 14.932V17.9427L153.256 11.5027C154.138 10.7827 154.579 10.1616 154.579 9.6396H158.373V9.6936C157.842 9.81961 157.302 10.0626 156.753 10.4227C156.213 10.7737 155.637 11.2057 155.025 11.7188L148.059 17.5512L156.443 26.7588C156.794 27.1189 157.091 27.4204 157.334 27.6634C157.586 27.8974 157.806 28.0954 157.995 28.2574C158.184 28.4105 158.355 28.541 158.508 28.649C158.67 28.748 158.837 28.847 159.008 28.946V29H155.052C155.016 28.919 154.953 28.8155 154.863 28.6895C154.782 28.5635 154.683 28.433 154.566 28.2979C154.458 28.1629 154.336 28.0234 154.201 27.8794C154.075 27.7354 153.954 27.6004 153.837 27.4744L145.372 18.1857V23.7211C145.372 24.4862 145.381 25.1567 145.399 25.7328C145.426 26.2998 145.453 26.7903 145.48 27.2044C145.516 27.6184 145.556 27.9649 145.601 28.2439C145.655 28.523 145.709 28.757 145.763 28.946V29H142.523V28.946ZM162.248 24.2747C162.248 25.4627 162.482 26.3358 162.95 26.8938C163.427 27.4519 164.066 27.7309 164.867 27.7309C165.155 27.7309 165.479 27.6724 165.839 27.5554C166.199 27.4294 166.568 27.2674 166.946 27.0694C167.333 26.8623 167.716 26.6238 168.094 26.3538C168.481 26.0838 168.837 25.7958 169.161 25.4897C169.179 25.2287 169.188 24.9542 169.188 24.6662C169.188 24.3692 169.188 24.0541 169.188 23.7211V20.4539C169.188 19.6888 169.174 19.0228 169.147 18.4557C169.129 17.8797 169.102 17.3847 169.066 16.9706C169.039 16.5566 168.999 16.2101 168.945 15.9311C168.9 15.652 168.85 15.418 168.796 15.229V15.175H171.915V15.229C171.861 15.418 171.811 15.652 171.766 15.9311C171.721 16.2101 171.681 16.5566 171.645 16.9706C171.609 17.3847 171.582 17.8797 171.564 18.4557C171.546 19.0228 171.537 19.6888 171.537 20.4539V23.7211C171.537 24.4862 171.546 25.1567 171.564 25.7328C171.582 26.2998 171.609 26.7903 171.645 27.2044C171.681 27.6184 171.721 27.9649 171.766 28.2439C171.811 28.523 171.861 28.757 171.915 28.946V29H168.796V28.946C168.85 28.721 168.904 28.433 168.958 28.0819C169.021 27.7309 169.066 27.2719 169.093 26.7048C168.724 27.0199 168.323 27.3304 167.891 27.6364C167.468 27.9424 167.023 28.2169 166.555 28.46C166.096 28.703 165.628 28.8965 165.151 29.0405C164.683 29.1935 164.219 29.27 163.76 29.27C163.058 29.27 162.46 29.1485 161.965 28.9055C161.478 28.6625 161.078 28.343 160.763 27.9469C160.457 27.5509 160.232 27.1009 160.088 26.5968C159.953 26.0928 159.885 25.5753 159.885 25.0442V20.4539C159.885 19.6888 159.876 19.0228 159.858 18.4557C159.84 17.8797 159.813 17.3847 159.777 16.9706C159.741 16.5566 159.701 16.2101 159.656 15.9311C159.611 15.652 159.561 15.418 159.507 15.229V15.175H162.626V15.229C162.572 15.418 162.523 15.652 162.478 15.9311C162.433 16.2101 162.392 16.5566 162.356 16.9706C162.32 17.3847 162.293 17.8797 162.275 18.4557C162.257 19.0228 162.248 19.6888 162.248 20.4539V24.2747ZM180.582 28.2034C180.852 28.2034 181.118 28.1539 181.379 28.0549C181.649 27.9559 181.905 27.8209 182.148 27.6499C182.401 27.4789 182.639 27.2854 182.864 27.0694C183.098 26.8443 183.314 26.6103 183.512 26.3673L183.647 26.4348L182.77 28.6085C182.662 28.6625 182.527 28.73 182.365 28.811C182.211 28.883 182.022 28.9505 181.797 29.0135C181.581 29.0855 181.325 29.144 181.028 29.189C180.731 29.243 180.38 29.27 179.975 29.27C178.769 29.27 177.828 28.946 177.153 28.2979C176.487 27.6409 176.154 26.6193 176.154 25.2332V16.2281L173.886 16.3091V15.121C174.165 15.139 174.498 15.1525 174.885 15.1615C175.272 15.1705 175.695 15.175 176.154 15.175C176.145 14.536 176.127 13.9734 176.1 13.4874C176.082 12.9923 176.055 12.5648 176.019 12.2048C175.992 11.8358 175.956 11.5252 175.911 11.2732C175.866 11.0212 175.821 10.8097 175.776 10.6387V10.5847H178.895V10.6387C178.841 10.8097 178.791 11.0212 178.746 11.2732C178.701 11.5252 178.661 11.8313 178.625 12.1913C178.598 12.5513 178.571 12.9788 178.544 13.4739C178.526 13.9599 178.512 14.527 178.503 15.175C179.07 15.166 179.624 15.157 180.164 15.148C180.713 15.13 181.208 15.112 181.649 15.094C182.099 15.067 182.477 15.0445 182.783 15.0265C183.098 14.9995 183.305 14.977 183.404 14.959L183.161 16.3361C182.702 16.3271 182.22 16.3136 181.716 16.2956C181.284 16.2776 180.789 16.2641 180.231 16.2551C179.673 16.2461 179.097 16.2371 178.503 16.2281V25.5167C178.503 26.0748 178.562 26.5293 178.679 26.8803C178.805 27.2224 178.962 27.4924 179.151 27.6904C179.349 27.8884 179.57 28.0234 179.813 28.0954C180.065 28.1674 180.321 28.2034 180.582 28.2034ZM188.575 24.2747C188.575 25.4627 188.809 26.3358 189.277 26.8938C189.754 27.4519 190.393 27.7309 191.194 27.7309C191.482 27.7309 191.806 27.6724 192.166 27.5554C192.526 27.4294 192.895 27.2674 193.273 27.0694C193.66 26.8623 194.043 26.6238 194.421 26.3538C194.808 26.0838 195.163 25.7958 195.487 25.4897C195.505 25.2287 195.514 24.9542 195.514 24.6662C195.514 24.3692 195.514 24.0541 195.514 23.7211V20.4539C195.514 19.6888 195.501 19.0228 195.474 18.4557C195.456 17.8797 195.429 17.3847 195.393 16.9706C195.366 16.5566 195.325 16.2101 195.271 15.9311C195.226 15.652 195.177 15.418 195.123 15.229V15.175H198.242V15.229C198.188 15.418 198.138 15.652 198.093 15.9311C198.048 16.2101 198.008 16.5566 197.972 16.9706C197.936 17.3847 197.909 17.8797 197.891 18.4557C197.873 19.0228 197.864 19.6888 197.864 20.4539V23.7211C197.864 24.4862 197.873 25.1567 197.891 25.7328C197.909 26.2998 197.936 26.7903 197.972 27.2044C198.008 27.6184 198.048 27.9649 198.093 28.2439C198.138 28.523 198.188 28.757 198.242 28.946V29H195.123V28.946C195.177 28.721 195.231 28.433 195.285 28.0819C195.348 27.7309 195.393 27.2719 195.42 26.7048C195.051 27.0199 194.65 27.3304 194.218 27.6364C193.795 27.9424 193.35 28.2169 192.882 28.46C192.423 28.703 191.955 28.8965 191.478 29.0405C191.01 29.1935 190.546 29.27 190.087 29.27C189.385 29.27 188.786 29.1485 188.291 28.9055C187.805 28.6625 187.405 28.343 187.09 27.9469C186.784 27.5509 186.559 27.1009 186.415 26.5968C186.28 26.0928 186.212 25.5753 186.212 25.0442V20.4539C186.212 19.6888 186.203 19.0228 186.185 18.4557C186.167 17.8797 186.14 17.3847 186.104 16.9706C186.068 16.5566 186.028 16.2101 185.983 15.9311C185.938 15.652 185.888 15.418 185.834 15.229V15.175H188.953V15.229C188.899 15.418 188.849 15.652 188.804 15.9311C188.759 16.2101 188.719 16.5566 188.683 16.9706C188.647 17.3847 188.62 17.8797 188.602 18.4557C188.584 19.0228 188.575 19.6888 188.575 20.4539V24.2747ZM208.124 17.8887L207.935 17.9157C207.872 17.7087 207.769 17.4882 207.625 17.2542C207.49 17.0201 207.31 16.8041 207.085 16.6061C206.869 16.4081 206.603 16.2461 206.288 16.1201C205.982 15.9851 205.627 15.9176 205.222 15.9176C204.943 15.9176 204.677 15.9581 204.425 16.0391C204.182 16.1201 203.966 16.2416 203.777 16.4036C203.597 16.5566 203.453 16.7501 203.345 16.9841C203.237 17.2181 203.183 17.4927 203.183 17.8077C203.183 18.2487 203.318 18.6718 203.588 19.0768C203.867 19.4728 204.214 19.8688 204.628 20.2649C205.042 20.6519 205.487 21.0434 205.964 21.4395C206.45 21.8355 206.9 22.2495 207.314 22.6815C207.728 23.1136 208.07 23.5771 208.34 24.0721C208.619 24.5582 208.759 25.0847 208.759 25.6518C208.759 26.1108 208.678 26.5608 208.516 27.0019C208.354 27.4339 208.102 27.8209 207.76 28.1629C207.427 28.505 206.995 28.784 206.464 29C205.942 29.207 205.316 29.3105 204.587 29.3105C204.155 29.3105 203.75 29.27 203.372 29.189C203.003 29.108 202.661 29.009 202.346 28.892C202.04 28.766 201.761 28.631 201.509 28.487C201.266 28.334 201.05 28.1899 200.861 28.0549L200.996 25.4897H201.212C201.302 25.9128 201.437 26.2998 201.617 26.6508C201.797 27.0019 202.017 27.3034 202.278 27.5554C202.548 27.7984 202.854 27.9919 203.197 28.1359C203.539 28.2709 203.912 28.3385 204.317 28.3385C204.983 28.3385 205.51 28.1539 205.897 27.7849C206.293 27.4159 206.491 26.9344 206.491 26.3403C206.491 25.8633 206.356 25.4267 206.086 25.0307C205.825 24.6257 205.492 24.2387 205.087 23.8696C204.682 23.5006 204.245 23.1316 203.777 22.7625C203.318 22.3935 202.886 22.002 202.481 21.588C202.076 21.1649 201.738 20.7059 201.468 20.2109C201.207 19.7068 201.077 19.1353 201.077 18.4962C201.077 17.9742 201.171 17.4972 201.36 17.0651C201.558 16.6241 201.828 16.2506 202.17 15.9446C202.521 15.6295 202.935 15.3865 203.413 15.2155C203.89 15.0445 204.412 14.959 204.979 14.959C205.726 14.959 206.347 15.04 206.842 15.202C207.346 15.355 207.728 15.5035 207.989 15.6475L208.124 17.8887ZM214.092 24.2747C214.092 25.4627 214.326 26.3358 214.794 26.8938C215.271 27.4519 215.91 27.7309 216.711 27.7309C216.999 27.7309 217.323 27.6724 217.683 27.5554C218.043 27.4294 218.412 27.2674 218.79 27.0694C219.177 26.8623 219.56 26.6238 219.938 26.3538C220.325 26.0838 220.68 25.7958 221.004 25.4897C221.022 25.2287 221.031 24.9542 221.031 24.6662C221.031 24.3692 221.031 24.0541 221.031 23.7211V20.4539C221.031 19.6888 221.018 19.0228 220.991 18.4557C220.973 17.8797 220.946 17.3847 220.91 16.9706C220.883 16.5566 220.842 16.2101 220.788 15.9311C220.743 15.652 220.694 15.418 220.64 15.229V15.175H223.758V15.229C223.704 15.418 223.655 15.652 223.61 15.9311C223.565 16.2101 223.524 16.5566 223.488 16.9706C223.452 17.3847 223.425 17.8797 223.407 18.4557C223.389 19.0228 223.38 19.6888 223.38 20.4539V23.7211C223.38 24.4862 223.389 25.1567 223.407 25.7328C223.425 26.2998 223.452 26.7903 223.488 27.2044C223.524 27.6184 223.565 27.9649 223.61 28.2439C223.655 28.523 223.704 28.757 223.758 28.946V29H220.64V28.946C220.694 28.721 220.748 28.433 220.802 28.0819C220.865 27.7309 220.91 27.2719 220.937 26.7048C220.568 27.0199 220.167 27.3304 219.735 27.6364C219.312 27.9424 218.867 28.2169 218.399 28.46C217.94 28.703 217.472 28.8965 216.995 29.0405C216.526 29.1935 216.063 29.27 215.604 29.27C214.902 29.27 214.303 29.1485 213.808 28.9055C213.322 28.6625 212.922 28.343 212.607 27.9469C212.301 27.5509 212.076 27.1009 211.932 26.5968C211.797 26.0928 211.729 25.5753 211.729 25.0442V20.4539C211.729 19.6888 211.72 19.0228 211.702 18.4557C211.684 17.8797 211.657 17.3847 211.621 16.9706C211.585 16.5566 211.545 16.2101 211.5 15.9311C211.455 15.652 211.405 15.418 211.351 15.229V15.175H214.47V15.229C214.416 15.418 214.366 15.652 214.321 15.9311C214.276 16.2101 214.236 16.5566 214.2 16.9706C214.164 17.3847 214.137 17.8797 214.119 18.4557C214.101 19.0228 214.092 19.6888 214.092 20.4539V24.2747Z" fill="#1C5540"/>
<path d="M68.6574 53.7187C67.9816 53.7187 67.6437 53.3731 67.6437 52.6819C67.6437 52.1904 67.7896 51.576 68.0814 50.8387C68.3733 50.0861 68.765 49.2643 69.2565 48.3734C69.748 47.4826 70.2856 46.5763 70.8693 45.6547C71.453 44.7178 72.0443 43.8115 72.6434 42.936C73.2424 42.0605 73.7954 41.2694 74.3022 40.5629C74.8245 39.8563 75.2546 39.288 75.5925 38.8579C75.5771 38.689 75.6309 38.5277 75.7538 38.3741C75.892 38.2205 76.0072 38.0899 76.0994 37.9824C75.5618 37.9517 75.0165 37.9286 74.4635 37.9133C73.9106 37.8826 73.3653 37.8672 72.8277 37.8672C72.5512 37.8672 72.1442 37.8749 71.6066 37.8902C71.069 37.9056 70.4699 37.944 69.8094 38.0054C69.1643 38.0515 68.5115 38.136 67.851 38.2589C67.1906 38.3664 66.5762 38.5277 66.0078 38.7427C65.4549 38.9424 65.0094 39.2035 64.6715 39.5261C64.3336 39.8333 64.1646 40.2096 64.1646 40.655C64.1646 41.1926 64.3182 41.6918 64.6254 42.1526C64.948 42.5981 65.3397 42.9898 65.8005 43.3277C66.2766 43.6656 66.7374 43.9344 67.1829 44.1341C67.229 44.1494 67.2981 44.1878 67.3902 44.2493C67.4978 44.2954 67.5515 44.3491 67.5515 44.4106C67.5515 44.4413 67.5362 44.4643 67.5054 44.4797C67.4747 44.4797 67.4517 44.4797 67.4363 44.4797C67.3749 44.4797 67.3058 44.472 67.229 44.4566C67.1675 44.4259 67.0984 44.4029 67.0216 44.3875C66.5301 44.2186 66.0155 43.9882 65.4779 43.6963C64.9403 43.3891 64.4872 43.0128 64.1186 42.5674C63.7499 42.1066 63.5656 41.5766 63.5656 40.9776C63.5656 40.7472 63.604 40.5014 63.6808 40.2403C63.9112 39.503 64.2798 38.9117 64.7867 38.4662C65.309 38.0054 65.908 37.6522 66.5838 37.4064C67.275 37.1606 67.9816 36.9994 68.7035 36.9226C69.4408 36.8304 70.1397 36.7843 70.8002 36.7843C71.7678 36.7843 72.7278 36.8534 73.6802 36.9917C74.6325 37.1146 75.5848 37.2605 76.5371 37.4294C76.6139 37.3219 76.6907 37.2067 76.7675 37.0838C76.8597 36.961 76.9518 36.8534 77.044 36.7613C77.1669 36.6384 77.3589 36.5462 77.62 36.4848C77.8811 36.4234 78.0885 36.3926 78.2421 36.3926C78.3035 36.3926 78.3957 36.408 78.5186 36.4387C78.6414 36.4541 78.7029 36.5078 78.7029 36.6C78.7029 36.6307 78.6414 36.7229 78.5186 36.8765C78.3957 37.0301 78.2651 37.1837 78.1269 37.3373C78.004 37.4909 77.9195 37.5907 77.8734 37.6368C78.749 37.775 79.6322 37.9056 80.523 38.0285C81.4293 38.136 82.3278 38.1898 83.2187 38.1898C83.4798 38.1898 83.6795 38.136 83.8178 38.0285C83.9714 37.921 84.0866 37.8211 84.1634 37.729C84.2555 37.6214 84.3477 37.5677 84.4398 37.5677C84.5474 37.5677 84.6472 37.6214 84.7394 37.729C84.8315 37.8211 84.8776 37.921 84.8776 38.0285C84.8776 38.1053 84.8546 38.1667 84.8085 38.2128C84.7624 38.2435 84.7086 38.2742 84.6472 38.305C84.1403 38.5507 83.7179 38.9347 83.38 39.457C83.0421 39.9792 82.7195 40.463 82.4123 40.9085C82.3816 40.9546 82.3278 41.0314 82.251 41.1389C82.1742 41.231 82.1051 41.2771 82.0437 41.2771C81.9976 41.2771 81.9746 41.2387 81.9746 41.1619C81.9746 40.9622 82.0437 40.7318 82.1819 40.4707C82.3355 40.1942 82.4814 39.9254 82.6197 39.6643C82.7579 39.3878 82.827 39.1651 82.827 38.9962C82.827 38.904 82.781 38.8502 82.6888 38.8349C82.443 38.7581 82.1819 38.6966 81.9054 38.6506C81.6443 38.6045 81.3832 38.5584 81.1221 38.5123C80.5077 38.4202 79.901 38.3434 79.3019 38.2819C78.7029 38.2051 78.0962 38.136 77.4818 38.0746C76.7445 38.9501 75.9688 39.9254 75.1547 41.0006C74.3406 42.0605 73.5419 43.1741 72.7586 44.3414C71.9906 45.5088 71.2994 46.6838 70.685 47.8666C70.0859 49.0493 69.6251 50.1859 69.3026 51.2765C69.2411 51.4762 69.1874 51.6912 69.1413 51.9216C69.0952 52.1674 69.0722 52.3978 69.0722 52.6128C69.0722 52.751 69.0952 52.897 69.1413 53.0506C69.1874 53.2042 69.2949 53.281 69.4638 53.281C69.5867 53.281 69.7096 53.2579 69.8325 53.2118C69.9707 53.1811 70.109 53.1658 70.2472 53.1658C70.2626 53.1658 70.2933 53.1658 70.3394 53.1658C70.3854 53.1658 70.4085 53.1811 70.4085 53.2118C70.4085 53.2733 70.2779 53.3424 70.0168 53.4192C69.771 53.5114 69.5022 53.5805 69.2104 53.6266C68.9339 53.688 68.7496 53.7187 68.6574 53.7187ZM81.2067 51.1843C80.792 51.1843 80.5155 51.023 80.3772 50.7005C80.2544 50.3626 80.1929 50.0246 80.1929 49.6867C80.1929 49.2413 80.239 48.7958 80.3312 48.3504C80.4233 47.905 80.4848 47.4595 80.5155 47.0141C80.3312 47.2445 80.07 47.5747 79.7321 48.0048C79.3942 48.4195 79.0179 48.8573 78.6032 49.3181C78.1884 49.7635 77.7814 50.1398 77.382 50.447C76.9827 50.7542 76.6371 50.9078 76.3452 50.9078C75.7769 50.9078 75.4928 50.6083 75.4928 50.0093C75.4928 49.6099 75.5696 49.2029 75.7232 48.7882C75.8921 48.3581 76.0841 47.9434 76.2992 47.544C76.5296 47.1293 76.7369 46.753 76.9212 46.415H76.8752C76.783 46.415 76.7369 46.3766 76.7369 46.2998C76.7369 46.2691 76.7369 46.2461 76.7369 46.2307C76.7523 46.2154 76.76 46.2 76.76 46.1846C76.975 45.816 77.1516 45.5011 77.2899 45.24C77.4281 44.9635 77.6124 44.7562 77.8428 44.6179C78.0732 44.4797 78.4265 44.4106 78.9027 44.4106C78.9795 44.4106 79.0179 44.4566 79.0179 44.5488C79.0179 44.6563 78.9334 44.8637 78.7644 45.1709C78.5955 45.4627 78.4112 45.7546 78.2115 46.0464C78.0118 46.3382 77.8736 46.5456 77.7968 46.6685C77.6739 46.8682 77.5203 47.1677 77.336 47.567C77.1516 47.9664 76.9827 48.3658 76.8291 48.7651C76.6908 49.1645 76.6217 49.4794 76.6217 49.7098C76.6217 49.7866 76.6294 49.8634 76.6448 49.9402C76.6755 50.0016 76.7369 50.0323 76.8291 50.0323C76.9827 50.0323 77.1593 49.9632 77.359 49.825C77.5587 49.6714 77.7123 49.5485 77.8198 49.4563C78.4188 48.9494 78.9718 48.3811 79.4787 47.7514C79.9856 47.1062 80.4464 46.4534 80.8611 45.793C80.9072 45.7008 80.9302 45.6163 80.9302 45.5395C80.9763 45.3552 81.0454 45.1786 81.1376 45.0096C81.2297 44.8406 81.3526 44.7024 81.5062 44.5949C81.6291 44.5181 81.798 44.4566 82.0131 44.4106C82.2281 44.3645 82.3971 44.3414 82.52 44.3414C82.5814 44.3414 82.6582 44.3568 82.7504 44.3875C82.8425 44.4029 82.8886 44.449 82.8886 44.5258C82.8886 44.6026 82.8195 44.7254 82.6812 44.8944C82.5584 45.0634 82.4201 45.2323 82.2665 45.4013C82.1283 45.5549 82.0284 45.6854 81.967 45.793C81.8288 46.0387 81.7059 46.3997 81.5984 46.8758C81.4908 47.3366 81.4064 47.8051 81.3449 48.2813C81.2835 48.7574 81.2528 49.1491 81.2528 49.4563C81.2528 49.656 81.2758 49.8787 81.3219 50.1245C81.368 50.3702 81.5216 50.4931 81.7827 50.4931C82.0438 50.4931 82.3049 50.3933 82.566 50.1936C82.8425 49.9786 83.0806 49.7712 83.2803 49.5715C83.48 49.3565 83.5952 49.249 83.6259 49.249C83.6412 49.249 83.6489 49.2643 83.6489 49.295C83.6489 49.4333 83.5721 49.5946 83.4185 49.7789C83.2649 49.9632 83.096 50.1398 82.9116 50.3088C82.7427 50.4624 82.6121 50.5776 82.52 50.6544C82.3356 50.7926 82.1283 50.9155 81.8979 51.023C81.6675 51.1306 81.4371 51.1843 81.2067 51.1843ZM81.5523 43.1664C81.4448 43.1664 81.3756 43.105 81.3449 42.9821C81.3142 42.8592 81.2988 42.767 81.2988 42.7056C81.2988 42.5827 81.3372 42.4368 81.414 42.2678C81.4908 42.0989 81.606 41.976 81.7596 41.8992C81.8825 41.8378 82.0284 41.807 82.1974 41.807C82.2896 41.807 82.3817 41.8147 82.4739 41.8301C82.566 41.8454 82.6428 41.8685 82.7043 41.8992C82.7504 42.0221 82.7043 42.191 82.566 42.4061C82.4432 42.6058 82.2819 42.7824 82.0822 42.936C81.8979 43.0896 81.7212 43.1664 81.5523 43.1664ZM79.4326 43.1664C79.3251 43.1664 79.256 43.105 79.2252 42.9821C79.1945 42.8592 79.1792 42.767 79.1792 42.7056C79.1792 42.5827 79.2176 42.4368 79.2944 42.2678C79.3712 42.0989 79.4864 41.976 79.64 41.8992C79.7628 41.8378 79.9088 41.807 80.0777 41.807C80.1699 41.807 80.262 41.8147 80.3542 41.8301C80.4464 41.8454 80.5232 41.8685 80.5846 41.8992C80.6307 42.0221 80.5846 42.191 80.4464 42.4061C80.3235 42.6058 80.1622 42.7824 79.9625 42.936C79.7782 43.0896 79.6016 43.1664 79.4326 43.1664ZM82.7801 51.3456C82.6725 51.3456 82.6265 51.3072 82.6418 51.2304C83.0412 50.5238 83.3945 49.8019 83.7017 49.0646C84.0089 48.312 84.3084 47.5594 84.6002 46.8067L84.8537 46.1386C84.8537 46.0925 84.8153 46.0771 84.7385 46.0925C84.6617 46.1078 84.6233 46.0848 84.6233 46.0234C84.6233 45.9926 84.6847 45.8774 84.8076 45.6778C84.9305 45.4627 85.061 45.2477 85.1993 45.0326C85.3375 44.8022 85.422 44.664 85.4527 44.6179C85.5141 44.5258 85.6524 44.4336 85.8674 44.3414C86.0825 44.2493 86.2437 44.2032 86.3513 44.2032C86.5202 44.2032 86.6047 44.2723 86.6047 44.4106C86.6047 44.4566 86.597 44.5027 86.5817 44.5488C86.5663 44.5949 86.5509 44.6333 86.5356 44.664C86.3052 45.217 86.0517 45.7699 85.7753 46.3229C85.5141 46.8605 85.2991 47.4211 85.1301 48.0048C85.5756 47.4672 86.0594 46.945 86.5817 46.4381C87.1193 45.9158 87.6645 45.4397 88.2175 45.0096C88.3711 44.8867 88.5401 44.7715 88.7244 44.664C88.9241 44.5565 89.1237 44.5027 89.3234 44.5027C89.5692 44.5027 89.7228 44.5949 89.7842 44.7792C89.8457 44.9482 89.8764 45.1248 89.8764 45.3091C89.8764 45.5549 89.7996 45.816 89.646 46.0925C89.4924 46.369 89.2697 46.5072 88.9778 46.5072C88.8549 46.5072 88.7935 46.4611 88.7935 46.369C88.7935 46.2922 88.8012 46.2307 88.8165 46.1846C88.8319 46.1232 88.8396 46.0618 88.8396 46.0003C88.8396 45.9235 88.8089 45.8314 88.7474 45.7238C88.686 45.6163 88.6169 45.5626 88.5401 45.5626C88.3404 45.5626 88.0716 45.6854 87.7337 45.9312C87.3957 46.177 87.0425 46.4765 86.6738 46.8298C86.3205 47.183 85.998 47.5286 85.7061 47.8666C85.4297 48.1891 85.23 48.4272 85.1071 48.5808C84.9381 48.8266 84.7922 49.08 84.6693 49.3411C84.5465 49.5869 84.4466 49.8403 84.3698 50.1014C84.3391 50.1936 84.3084 50.2934 84.2777 50.401C84.2469 50.4931 84.2162 50.5776 84.1855 50.6544C84.1548 50.7312 84.0396 50.831 83.8399 50.9539C83.6402 51.0614 83.4329 51.1536 83.2178 51.2304C83.0181 51.3072 82.8722 51.3456 82.7801 51.3456ZM88.9803 51.3456C88.8882 51.3456 88.8421 51.3072 88.8421 51.2304C88.9189 51.1075 88.9957 50.9846 89.0725 50.8618C89.1647 50.7389 89.2415 50.6237 89.3029 50.5162C89.5794 49.9786 89.8482 49.441 90.1093 48.9034C90.3704 48.3658 90.6469 47.8358 90.9387 47.3136C90.9234 47.2214 90.8927 47.0986 90.8466 46.945C90.8159 46.7914 90.8005 46.6762 90.8005 46.5994C90.8005 46.3997 90.885 46.2614 91.0539 46.1846C91.2229 46.0925 91.3765 46.031 91.5147 46.0003C92.037 44.8176 92.5823 43.6502 93.1506 42.4982C93.7343 41.3462 94.3717 40.2326 95.0629 39.1574C95.0168 39.0653 94.9938 38.9578 94.9938 38.8349C94.9938 38.8042 94.9938 38.7734 94.9938 38.7427C95.0091 38.712 95.0245 38.6813 95.0399 38.6506L95.8923 37.3373C95.9845 37.2451 96.1381 37.176 96.3531 37.1299C96.5835 37.0838 96.7602 37.0608 96.8831 37.0608C96.9445 37.0608 97.0597 37.0762 97.2287 37.1069C97.3976 37.1222 97.4821 37.1837 97.4821 37.2912C97.4821 37.3066 97.4744 37.3219 97.4591 37.3373C97.4591 37.3526 97.4591 37.3603 97.4591 37.3603C97.3055 37.6061 97.1442 37.8442 96.9752 38.0746C96.8063 38.305 96.6373 38.5354 96.4683 38.7658C95.8539 39.6874 95.2703 40.632 94.7173 41.5997C94.1643 42.552 93.6191 43.512 93.0815 44.4797C92.9739 44.6947 92.8203 44.9866 92.6207 45.3552C92.4363 45.7085 92.2674 46.0694 92.1138 46.4381C91.9755 46.7914 91.9064 47.0909 91.9064 47.3366V47.4058C92.1983 47.1293 92.5746 46.7914 93.0354 46.392C93.5115 45.9773 93.9877 45.5779 94.4639 45.1939C94.9554 44.8099 95.3624 44.5334 95.685 44.3645C95.8079 44.303 95.9461 44.2723 96.0997 44.2723C96.1611 44.2723 96.2379 44.2877 96.3301 44.3184C96.4376 44.3338 96.4914 44.3875 96.4914 44.4797C96.4914 44.5872 96.4223 44.7024 96.284 44.8253C96.1458 44.9482 95.9922 45.0634 95.8232 45.1709C95.6543 45.263 95.5314 45.3322 95.4546 45.3782C94.8863 45.7162 94.2949 46.1002 93.6805 46.5302C93.0661 46.945 92.5131 47.3674 92.0216 47.7974C92.0677 47.9664 92.1445 48.1968 92.252 48.4886C92.3749 48.7651 92.5208 49.057 92.6898 49.3642C92.8587 49.656 93.0354 49.9094 93.2197 50.1245C93.4194 50.3242 93.6191 50.424 93.8187 50.424C94.0184 50.424 94.1874 50.3472 94.3256 50.1936C94.4792 50.0246 94.6098 49.8403 94.7173 49.6406C94.8402 49.4256 94.94 49.2413 95.0168 49.0877C95.0936 48.9187 95.1551 48.8342 95.2011 48.8342C95.2319 48.8342 95.2472 48.8573 95.2472 48.9034C95.2626 48.9494 95.2703 48.9802 95.2703 48.9955C95.2703 49.0416 95.2549 49.1107 95.2242 49.2029C95.132 49.4794 95.0245 49.7635 94.9016 50.0554C94.7787 50.3472 94.6098 50.593 94.3947 50.7926C94.1951 50.9923 93.9186 51.0922 93.5653 51.0922C93.1967 51.0922 92.8587 50.9309 92.5515 50.6083C92.2597 50.2704 92.0216 49.8864 91.8373 49.4563C91.653 49.0109 91.5301 48.6346 91.4687 48.3274C91.269 48.5578 91.077 48.8035 90.8927 49.0646C90.7083 49.3258 90.5317 49.5869 90.3627 49.848C90.3627 49.8634 90.3627 49.8864 90.3627 49.9171C90.3781 49.9325 90.3858 49.9555 90.3858 49.9862C90.3858 50.1859 90.309 50.3933 90.1554 50.6083C90.0171 50.8234 89.8405 51 89.6255 51.1382C89.4104 51.2765 89.1954 51.3456 88.9803 51.3456ZM98.0549 43.535C98.0088 43.535 97.9781 43.4813 97.9627 43.3738C97.9627 43.2509 97.9627 43.1741 97.9627 43.1434C97.9627 43.0973 97.9704 42.9974 97.9857 42.8438C98.0011 42.6902 98.0472 42.6058 98.124 42.5904C98.339 42.5597 98.5541 42.5213 98.7691 42.4752C98.9841 42.4291 99.1992 42.3754 99.4142 42.3139C99.4449 42.2986 99.491 42.2909 99.5525 42.2909C99.6293 42.2909 99.6677 42.3293 99.6677 42.4061C99.6677 42.575 99.5601 42.7517 99.3451 42.936C99.1454 43.105 98.915 43.2509 98.6539 43.3738C98.4081 43.4813 98.2085 43.535 98.0549 43.535ZM96.1886 51C95.436 51 95.0597 50.616 95.0597 49.848C95.0597 49.5254 95.1057 49.1952 95.1979 48.8573C95.3054 48.5194 95.4206 48.2045 95.5435 47.9126C95.6817 47.5747 95.8353 47.2445 96.0043 46.9219C96.1733 46.5994 96.3422 46.2768 96.5112 45.9542C96.588 45.816 96.6571 45.6778 96.7185 45.5395C96.7953 45.3859 96.8721 45.24 96.9489 45.1018C97.0257 44.9942 97.1717 44.9021 97.3867 44.8253C97.6017 44.7485 97.7707 44.7101 97.8936 44.7101C97.9089 44.7101 97.9089 44.7178 97.8936 44.7331C97.8782 44.7331 97.8705 44.7331 97.8705 44.7331C97.8859 44.7331 97.8936 44.7408 97.8936 44.7562C97.9243 44.7254 97.9627 44.7101 98.0088 44.7101C98.0702 44.7101 98.1086 44.7408 98.124 44.8022C98.1393 44.8483 98.147 44.8944 98.147 44.9405C98.147 45.048 98.1009 45.2093 98.0088 45.4243C97.932 45.6394 97.8321 45.8467 97.7093 46.0464C97.6017 46.2307 97.4942 46.3459 97.3867 46.392C97.2485 46.7146 97.0641 47.0678 96.8337 47.4518C96.6187 47.8358 96.419 48.2275 96.2347 48.6269C96.0504 49.0109 95.9582 49.3872 95.9582 49.7558C95.9582 50.1859 96.1886 50.401 96.6494 50.401C96.8645 50.401 97.0949 50.3318 97.3406 50.1936C97.6017 50.0554 97.8552 49.8941 98.1009 49.7098C98.3467 49.5101 98.5541 49.3411 98.723 49.2029C98.9073 49.0646 99.0225 48.9955 99.0686 48.9955C99.084 48.9955 99.0917 49.0032 99.0917 49.0186C99.0917 49.08 99.0686 49.1491 99.0225 49.2259C98.9765 49.2874 98.9381 49.3334 98.9073 49.3642C98.723 49.6099 98.4773 49.8634 98.1701 50.1245C97.8629 50.3702 97.5326 50.5776 97.1793 50.7466C96.8414 50.9155 96.5112 51 96.1886 51ZM95.2118 58.6954C94.797 58.6954 94.367 58.6186 93.9215 58.465C93.4761 58.3267 93.0998 58.0963 92.7926 57.7738C92.4854 57.4666 92.3318 57.0672 92.3318 56.5757C92.3318 56.1302 92.4623 55.7232 92.7234 55.3546C92.9692 54.9859 93.2918 54.648 93.6911 54.3408C94.0751 54.049 94.4822 53.7878 94.9122 53.5574C95.3423 53.327 95.7263 53.1427 96.0642 53.0045C96.9244 52.6512 97.8614 52.3824 98.8751 52.1981C99.9042 52.0138 100.88 51.8909 101.801 51.8294C102.078 51.1229 102.354 50.4163 102.631 49.7098C102.922 49.0032 103.145 48.2736 103.299 47.521L103.391 47.0832C103.191 47.3443 102.915 47.6976 102.562 48.143C102.224 48.5885 101.847 49.0416 101.433 49.5024C101.033 49.9632 100.626 50.3549 100.211 50.6774C99.7967 50.9846 99.4281 51.1382 99.1055 51.1382C98.8444 51.1382 98.6678 51.0307 98.5756 50.8157C98.4834 50.5853 98.4374 50.3626 98.4374 50.1475C98.4374 49.5638 98.5679 49.0109 98.829 48.4886C99.0902 47.951 99.3513 47.4365 99.6124 46.945L99.5433 46.968C99.4511 46.968 99.405 46.9219 99.405 46.8298C99.405 46.8144 99.4204 46.776 99.4511 46.7146C99.6508 46.3459 99.8198 46.031 99.958 45.7699C100.096 45.5088 100.281 45.3091 100.511 45.1709C100.741 45.0326 101.095 44.9635 101.571 44.9635C101.663 44.9635 101.709 45.0019 101.709 45.0787C101.709 45.2016 101.625 45.409 101.456 45.7008C101.287 45.9926 101.102 46.2922 100.903 46.5994C100.703 46.8912 100.565 47.0986 100.488 47.2214C100.365 47.4058 100.219 47.6746 100.05 48.0278C99.8812 48.3811 99.7353 48.7344 99.6124 49.0877C99.4895 49.4256 99.4281 49.7021 99.4281 49.9171C99.4281 49.9939 99.4434 50.0707 99.4742 50.1475C99.5049 50.209 99.5663 50.2397 99.6585 50.2397C99.8582 50.2397 100.112 50.1245 100.419 49.8941C100.726 49.6483 101.049 49.3411 101.386 48.9725C101.724 48.6038 102.055 48.2198 102.377 47.8205C102.7 47.4058 102.976 47.0294 103.207 46.6915C103.452 46.3382 103.629 46.0618 103.737 45.8621C103.859 45.647 103.944 45.4243 103.99 45.1939C104.036 44.9482 104.182 44.7485 104.428 44.5949C104.535 44.5334 104.674 44.472 104.842 44.4106C105.011 44.3338 105.15 44.2954 105.257 44.2954C105.411 44.2954 105.488 44.3722 105.488 44.5258C105.488 44.7408 105.411 44.9635 105.257 45.1939C105.119 45.409 104.996 45.6086 104.889 45.793C104.75 46.0541 104.62 46.369 104.497 46.7376C104.389 47.0909 104.29 47.4211 104.197 47.7283C103.952 48.4042 103.714 49.0877 103.483 49.7789C103.268 50.4547 103.007 51.1306 102.7 51.8064H103.161C103.283 51.8064 103.399 51.8141 103.506 51.8294C103.629 51.8448 103.69 51.8909 103.69 51.9677C103.69 52.0445 103.606 52.0906 103.437 52.1059C103.283 52.1213 103.114 52.1213 102.93 52.1059C102.761 52.1059 102.646 52.1059 102.585 52.1059C102.277 52.8432 101.886 53.5958 101.41 54.3638C100.949 55.1472 100.403 55.8614 99.7737 56.5066C99.1593 57.167 98.4758 57.697 97.7231 58.0963C96.9551 58.4957 96.118 58.6954 95.2118 58.6954ZM95.1196 58.2115C95.8722 58.2115 96.5865 58.0042 97.2623 57.5894C97.9228 57.1901 98.5295 56.6755 99.0825 56.0458C99.6508 55.416 100.15 54.7478 100.58 54.0413C101.026 53.3501 101.386 52.7126 101.663 52.129C100.803 52.1904 99.8812 52.321 98.8982 52.5206C97.9151 52.7357 97.0396 53.0429 96.2716 53.4422C95.8876 53.6266 95.4652 53.88 95.0044 54.2026C94.5282 54.5251 94.1212 54.8938 93.7833 55.3085C93.43 55.7386 93.2534 56.1994 93.2534 56.6909C93.2534 57.2131 93.453 57.5971 93.8524 57.8429C94.2364 58.0886 94.6588 58.2115 95.1196 58.2115ZM105.791 51.1613C105.453 51.1613 105.23 51.1075 105.123 51C105.015 50.8925 104.961 50.6698 104.961 50.3318C104.961 49.9632 105.046 49.5408 105.215 49.0646C105.399 48.5885 105.568 48.1891 105.722 47.8666C105.722 47.8512 105.714 47.8435 105.699 47.8435C105.699 47.8282 105.699 47.8128 105.699 47.7974C105.699 47.7206 105.722 47.6592 105.768 47.6131C105.829 47.567 105.875 47.521 105.906 47.4749C105.983 47.352 106.052 47.2291 106.113 47.1062C106.175 46.9834 106.236 46.8682 106.298 46.7606C106.559 46.3459 106.874 45.9466 107.242 45.5626C107.626 45.1786 108.056 44.9174 108.532 44.7792C108.701 44.7331 108.863 44.7101 109.016 44.7101C109.047 44.7101 109.078 44.7178 109.108 44.7331C109.155 44.7331 109.178 44.7485 109.178 44.7792C109.178 44.8253 109.132 44.879 109.039 44.9405C108.963 45.0019 108.909 45.048 108.878 45.0787C108.632 45.2784 108.364 45.5856 108.072 46.0003C107.795 46.415 107.572 46.753 107.404 47.0141C107.757 46.9526 108.102 46.9066 108.44 46.8758C108.794 46.8451 109.139 46.8451 109.477 46.8758C109.646 46.6301 109.8 46.3306 109.938 45.9773C110.092 45.6086 110.168 45.2707 110.168 44.9635C110.168 44.7946 110.145 44.6947 110.099 44.664C110.068 44.6333 109.984 44.6179 109.846 44.6179C109.815 44.6179 109.769 44.6102 109.708 44.5949C109.646 44.5795 109.615 44.5488 109.615 44.5027C109.615 44.4413 109.684 44.3875 109.823 44.3414C109.961 44.2954 110.107 44.2646 110.26 44.2493C110.414 44.2186 110.514 44.2032 110.56 44.2032C110.975 44.2032 111.182 44.3952 111.182 44.7792C111.182 44.9942 111.113 45.2554 110.975 45.5626C110.852 45.8544 110.691 46.1309 110.491 46.392C110.307 46.6378 110.122 46.8144 109.938 46.9219C109.984 46.9219 110.076 46.945 110.214 46.991C110.368 47.0218 110.506 47.0602 110.629 47.1062C110.767 47.1523 110.836 47.2061 110.836 47.2675C110.836 47.3136 110.79 47.3443 110.698 47.3597C110.606 47.3597 110.545 47.3597 110.514 47.3597C110.376 47.3597 110.237 47.352 110.099 47.3366C109.961 47.3059 109.823 47.2906 109.684 47.2906C109.254 47.2906 108.817 47.3213 108.371 47.3827C107.941 47.4442 107.511 47.521 107.081 47.6131C106.927 47.8896 106.751 48.2429 106.551 48.673C106.367 49.103 106.275 49.487 106.275 49.825C106.275 50.3626 106.551 50.6314 107.104 50.6314C107.503 50.6314 107.887 50.5238 108.256 50.3088C108.64 50.0938 108.993 49.8403 109.316 49.5485C109.638 49.2566 109.9 49.0032 110.099 48.7882C110.299 48.5731 110.414 48.4656 110.445 48.4656C110.491 48.4656 110.514 48.4963 110.514 48.5578C110.514 48.7421 110.406 48.9648 110.191 49.2259C109.976 49.4717 109.8 49.6483 109.661 49.7558C109.124 50.1706 108.517 50.5085 107.841 50.7696C107.181 51.0307 106.497 51.1613 105.791 51.1613ZM111.6 44.2723C111.585 44.2723 111.577 44.2646 111.577 44.2493C111.577 44.1878 111.685 44.0266 111.9 43.7654C112.13 43.5043 112.391 43.1894 112.683 42.8208C112.975 42.4522 113.236 42.0758 113.466 41.6918C113.712 41.3078 113.858 40.9699 113.904 40.6781C113.981 40.6013 114.073 40.5629 114.181 40.5629C114.303 40.5629 114.442 40.6166 114.595 40.7242C114.749 40.8163 114.826 40.9238 114.826 41.0467C114.826 41.1235 114.726 41.2848 114.526 41.5306C114.326 41.761 114.073 42.0374 113.766 42.36C113.474 42.6672 113.174 42.9667 112.867 43.2586C112.56 43.5504 112.284 43.7962 112.038 43.9958C111.807 44.1802 111.661 44.2723 111.6 44.2723ZM114.438 51.3456C114.33 51.3456 114.284 51.3072 114.299 51.2304C114.729 50.4931 115.121 49.7405 115.474 48.9725C115.843 48.2045 116.189 47.4288 116.511 46.6454C116.511 46.6147 116.542 46.5302 116.603 46.392C116.665 46.2384 116.695 46.1539 116.695 46.1386C116.695 46.0925 116.657 46.0771 116.58 46.0925C116.503 46.1078 116.465 46.0848 116.465 46.0234C116.465 45.9926 116.527 45.8774 116.649 45.6778C116.772 45.4627 116.903 45.2477 117.041 45.0326C117.179 44.8022 117.264 44.664 117.295 44.6179C117.371 44.5258 117.517 44.4336 117.732 44.3414C117.947 44.2493 118.109 44.2032 118.216 44.2032C118.37 44.2032 118.447 44.2723 118.447 44.4106C118.447 44.4566 118.393 44.6102 118.285 44.8714C118.178 45.1325 118.039 45.4397 117.871 45.793C117.702 46.1462 117.533 46.5072 117.364 46.8758C117.195 47.2445 117.041 47.567 116.903 47.8435C116.765 48.12 116.672 48.3043 116.626 48.3965C116.749 48.2429 116.949 48.0202 117.225 47.7283C117.517 47.4211 117.84 47.0909 118.193 46.7376C118.562 46.3843 118.93 46.0464 119.299 45.7238C119.668 45.3859 119.998 45.1171 120.29 44.9174C120.597 44.7024 120.835 44.5949 121.004 44.5949C121.127 44.5949 121.196 44.641 121.211 44.7331C121.242 44.8253 121.257 44.9098 121.257 44.9866C121.257 45.1862 121.234 45.3936 121.188 45.6086C121.142 45.8237 121.088 46.031 121.027 46.2307C120.904 46.6915 120.751 47.2368 120.566 47.8666C120.397 48.481 120.313 49.0186 120.313 49.4794C120.313 49.7098 120.351 49.9248 120.428 50.1245C120.52 50.3088 120.704 50.401 120.981 50.401C121.196 50.401 121.419 50.3318 121.649 50.1936C121.895 50.0554 122.118 49.8941 122.317 49.7098C122.532 49.5101 122.717 49.3411 122.87 49.2029C123.039 49.0646 123.147 48.9955 123.193 48.9955C123.208 48.9955 123.216 49.0109 123.216 49.0416C123.216 49.0877 123.2 49.1491 123.17 49.2259C123.154 49.2874 123.131 49.3334 123.101 49.3642C122.855 49.7482 122.494 50.1168 122.018 50.4701C121.557 50.8234 121.096 51 120.635 51C120.159 51 119.798 50.8618 119.552 50.5853C119.322 50.2934 119.207 49.9171 119.207 49.4563C119.207 49.057 119.276 48.6115 119.414 48.12C119.568 47.6285 119.698 47.183 119.806 46.7837C119.837 46.6608 119.875 46.5149 119.921 46.3459C119.983 46.177 120.013 46.031 120.013 45.9082C120.013 45.8774 120.006 45.839 119.99 45.793C119.975 45.7469 119.944 45.7238 119.898 45.7238C119.821 45.7238 119.721 45.7699 119.599 45.8621C119.491 45.9389 119.407 46.0003 119.345 46.0464C119.053 46.2922 118.723 46.607 118.354 46.991C118.001 47.375 117.648 47.7974 117.295 48.2582C116.941 48.7037 116.619 49.1414 116.327 49.5715C116.035 50.0016 115.805 50.3856 115.636 50.7235C115.605 50.8003 115.505 50.8925 115.336 51C115.183 51.0922 115.014 51.169 114.829 51.2304C114.66 51.3072 114.53 51.3456 114.438 51.3456ZM125.415 43.535C125.369 43.535 125.338 43.4813 125.323 43.3738C125.323 43.2509 125.323 43.1741 125.323 43.1434C125.323 43.0973 125.33 42.9974 125.346 42.8438C125.361 42.6902 125.407 42.6058 125.484 42.5904C125.699 42.5597 125.914 42.5213 126.129 42.4752C126.344 42.4291 126.559 42.3754 126.774 42.3139C126.805 42.2986 126.851 42.2909 126.912 42.2909C126.989 42.2909 127.028 42.3293 127.028 42.4061C127.028 42.575 126.92 42.7517 126.705 42.936C126.505 43.105 126.275 43.2509 126.014 43.3738C125.768 43.4813 125.568 43.535 125.415 43.535ZM123.549 51C122.796 51 122.42 50.616 122.42 49.848C122.42 49.5254 122.466 49.1952 122.558 48.8573C122.665 48.5194 122.781 48.2045 122.904 47.9126C123.042 47.5747 123.195 47.2445 123.364 46.9219C123.533 46.5994 123.702 46.2768 123.871 45.9542C123.948 45.816 124.017 45.6778 124.079 45.5395C124.155 45.3859 124.232 45.24 124.309 45.1018C124.386 44.9942 124.532 44.9021 124.747 44.8253C124.962 44.7485 125.131 44.7101 125.254 44.7101C125.269 44.7101 125.269 44.7178 125.254 44.7331C125.238 44.7331 125.231 44.7331 125.231 44.7331C125.246 44.7331 125.254 44.7408 125.254 44.7562C125.284 44.7254 125.323 44.7101 125.369 44.7101C125.43 44.7101 125.469 44.7408 125.484 44.8022C125.499 44.8483 125.507 44.8944 125.507 44.9405C125.507 45.048 125.461 45.2093 125.369 45.4243C125.292 45.6394 125.192 45.8467 125.069 46.0464C124.962 46.2307 124.854 46.3459 124.747 46.392C124.608 46.7146 124.424 47.0678 124.194 47.4518C123.979 47.8358 123.779 48.2275 123.595 48.6269C123.41 49.0109 123.318 49.3872 123.318 49.7558C123.318 50.1859 123.549 50.401 124.009 50.401C124.224 50.401 124.455 50.3318 124.701 50.1936C124.962 50.0554 125.215 49.8941 125.461 49.7098C125.707 49.5101 125.914 49.3411 126.083 49.2029C126.267 49.0646 126.383 48.9955 126.429 48.9955C126.444 48.9955 126.452 49.0032 126.452 49.0186C126.452 49.08 126.429 49.1491 126.383 49.2259C126.336 49.2874 126.298 49.3334 126.267 49.3642C126.083 49.6099 125.837 49.8634 125.53 50.1245C125.223 50.3702 124.893 50.5776 124.539 50.7466C124.201 50.9155 123.871 51 123.549 51ZM125.913 51.3456C125.805 51.3456 125.759 51.3072 125.774 51.2304C126.204 50.4931 126.596 49.7405 126.949 48.9725C127.318 48.2045 127.664 47.4288 127.986 46.6454C127.986 46.6147 128.017 46.5302 128.078 46.392C128.14 46.2384 128.17 46.1539 128.17 46.1386C128.17 46.0925 128.132 46.0771 128.055 46.0925C127.978 46.1078 127.94 46.0848 127.94 46.0234C127.94 45.9926 128.002 45.8774 128.124 45.6778C128.247 45.4627 128.378 45.2477 128.516 45.0326C128.654 44.8022 128.739 44.664 128.77 44.6179C128.846 44.5258 128.992 44.4336 129.207 44.3414C129.422 44.2493 129.584 44.2032 129.691 44.2032C129.845 44.2032 129.922 44.2723 129.922 44.4106C129.922 44.4566 129.868 44.6102 129.76 44.8714C129.653 45.1325 129.514 45.4397 129.346 45.793C129.177 46.1462 129.008 46.5072 128.839 46.8758C128.67 47.2445 128.516 47.567 128.378 47.8435C128.24 48.12 128.147 48.3043 128.101 48.3965C128.224 48.2429 128.424 48.0202 128.7 47.7283C128.992 47.4211 129.315 47.0909 129.668 46.7376C130.037 46.3843 130.405 46.0464 130.774 45.7238C131.143 45.3859 131.473 45.1171 131.765 44.9174C132.072 44.7024 132.31 44.5949 132.479 44.5949C132.602 44.5949 132.671 44.641 132.686 44.7331C132.717 44.8253 132.732 44.9098 132.732 44.9866C132.732 45.1862 132.709 45.3936 132.663 45.6086C132.617 45.8237 132.563 46.031 132.502 46.2307C132.379 46.6915 132.226 47.2368 132.041 47.8666C131.872 48.481 131.788 49.0186 131.788 49.4794C131.788 49.7098 131.826 49.9248 131.903 50.1245C131.995 50.3088 132.179 50.401 132.456 50.401C132.671 50.401 132.894 50.3318 133.124 50.1936C133.37 50.0554 133.593 49.8941 133.792 49.7098C134.007 49.5101 134.192 49.3411 134.345 49.2029C134.514 49.0646 134.622 48.9955 134.668 48.9955C134.683 48.9955 134.691 49.0109 134.691 49.0416C134.691 49.0877 134.675 49.1491 134.645 49.2259C134.629 49.2874 134.606 49.3334 134.576 49.3642C134.33 49.7482 133.969 50.1168 133.493 50.4701C133.032 50.8234 132.571 51 132.11 51C131.634 51 131.273 50.8618 131.027 50.5853C130.797 50.2934 130.682 49.9171 130.682 49.4563C130.682 49.057 130.751 48.6115 130.889 48.12C131.043 47.6285 131.173 47.183 131.281 46.7837C131.312 46.6608 131.35 46.5149 131.396 46.3459C131.458 46.177 131.488 46.031 131.488 45.9082C131.488 45.8774 131.481 45.839 131.465 45.793C131.45 45.7469 131.419 45.7238 131.373 45.7238C131.296 45.7238 131.196 45.7699 131.074 45.8621C130.966 45.9389 130.882 46.0003 130.82 46.0464C130.528 46.2922 130.198 46.607 129.829 46.991C129.476 47.375 129.123 47.7974 128.77 48.2582C128.416 48.7037 128.094 49.1414 127.802 49.5715C127.51 50.0016 127.28 50.3856 127.111 50.7235C127.08 50.8003 126.98 50.8925 126.811 51C126.658 51.0922 126.489 51.169 126.304 51.2304C126.135 51.3072 126.005 51.3456 125.913 51.3456ZM145.329 52.4976C144.914 52.4976 144.499 52.4362 144.085 52.3133C143.67 52.1904 143.317 51.9907 143.025 51.7142C142.733 51.4378 142.556 51.0691 142.495 50.6083C142.203 50.4701 141.888 50.2781 141.55 50.0323C141.228 49.7866 140.951 49.5024 140.721 49.1798C140.49 48.8573 140.375 48.5194 140.375 48.1661C140.375 47.6746 140.59 47.2598 141.02 46.9219C141.466 46.584 142.049 46.3075 142.771 46.0925C143.493 45.8621 144.277 45.6854 145.121 45.5626C145.982 45.4243 146.834 45.3245 147.679 45.263C148.524 45.2016 149.292 45.1632 149.983 45.1478C150.689 45.1171 151.235 45.1018 151.619 45.1018C151.834 44.7178 152.095 44.2646 152.402 43.7424C152.725 43.2048 153.078 42.6595 153.462 42.1066C153.861 41.5382 154.276 41.0083 154.706 40.5168C155.152 40.0253 155.605 39.6259 156.065 39.3187C156.526 38.9962 156.995 38.8118 157.471 38.7658C156.734 38.5661 155.935 38.4125 155.075 38.305C154.23 38.1974 153.377 38.1206 152.517 38.0746C151.657 38.0131 150.843 37.9824 150.075 37.9824C149.737 37.9824 149.284 37.9978 148.716 38.0285C148.163 38.0438 147.571 38.0976 146.942 38.1898C146.312 38.2819 145.713 38.4278 145.144 38.6275C144.592 38.8118 144.131 39.073 143.762 39.4109C143.409 39.7334 143.232 40.1482 143.232 40.655C143.232 41.1926 143.386 41.6918 143.693 42.1526C144.016 42.5981 144.415 42.9898 144.891 43.3277C145.367 43.6656 145.828 43.9344 146.273 44.1341C146.32 44.1494 146.389 44.1878 146.481 44.2493C146.573 44.2954 146.619 44.3491 146.619 44.4106C146.619 44.4566 146.581 44.4797 146.504 44.4797C146.442 44.4797 146.373 44.472 146.296 44.4566C146.235 44.4259 146.174 44.4029 146.112 44.3875C145.621 44.2186 145.106 43.9882 144.568 43.6963C144.031 43.3891 143.578 43.0128 143.209 42.5674C142.84 42.1066 142.656 41.5766 142.656 40.9776C142.656 40.8547 142.664 40.7318 142.679 40.609C142.695 40.4707 142.725 40.3478 142.771 40.2403C142.971 39.5491 143.294 38.9885 143.739 38.5584C144.2 38.1283 144.73 37.7981 145.329 37.5677C145.943 37.3219 146.581 37.1606 147.241 37.0838C147.917 36.9917 148.562 36.9456 149.176 36.9456C150.19 36.9456 151.189 37.0224 152.172 37.176C153.155 37.3142 154.138 37.4832 155.121 37.6829C156.104 37.8826 157.087 38.0592 158.07 38.2128C159.053 38.351 160.044 38.4202 161.042 38.4202C161.303 38.4202 161.503 38.3741 161.641 38.2819C161.795 38.1744 161.91 38.0746 161.987 37.9824C162.079 37.8749 162.163 37.8211 162.24 37.8211C162.363 37.8211 162.471 37.8749 162.563 37.9824C162.655 38.0746 162.701 38.1744 162.701 38.2819C162.701 38.3587 162.678 38.4125 162.632 38.4432C162.586 38.4739 162.524 38.5046 162.448 38.5354C161.956 38.7811 161.541 39.1728 161.203 39.7104C160.865 40.2326 160.543 40.7165 160.236 41.1619C160.205 41.208 160.151 41.2771 160.074 41.3693C159.998 41.4614 159.928 41.5075 159.867 41.5075C159.821 41.5075 159.798 41.4768 159.798 41.4154C159.798 41.2157 159.867 40.9853 160.005 40.7242C160.159 40.4477 160.305 40.1789 160.443 39.9178C160.581 39.6413 160.65 39.4186 160.65 39.2496C160.65 39.1728 160.604 39.1114 160.512 39.0653C160.297 38.9885 160.059 38.9347 159.798 38.904C159.552 38.8733 159.314 38.8579 159.084 38.8579C158.254 38.8579 157.532 39.0653 156.918 39.48C156.304 39.8947 155.758 40.4246 155.282 41.0698C154.806 41.7149 154.376 42.3984 153.992 43.1203C153.623 43.8422 153.278 44.5104 152.955 45.1248C153.232 45.1248 153.508 45.1325 153.784 45.1478C154.061 45.1632 154.33 45.2016 154.591 45.263C154.606 45.2784 154.66 45.3014 154.752 45.3322C154.844 45.3475 154.89 45.3706 154.89 45.4013C154.89 45.4474 154.791 45.4858 154.591 45.5165C154.391 45.5318 154.261 45.5472 154.199 45.5626L152.679 45.6317C152.617 45.7392 152.556 45.839 152.494 45.9312C152.448 46.0234 152.394 46.1232 152.333 46.2307C151.78 47.1062 151.242 47.9357 150.72 48.719C150.213 49.487 149.622 50.1782 148.946 50.7926C148.27 51.407 147.425 51.9139 146.412 52.3133C146.243 52.3747 146.066 52.4208 145.882 52.4515C145.697 52.4822 145.513 52.4976 145.329 52.4976ZM144.96 52.0598C145.513 52.0598 146.043 51.9062 146.55 51.599C147.072 51.3072 147.564 50.9232 148.024 50.447C148.501 49.9555 148.938 49.4256 149.338 48.8573C149.737 48.289 150.098 47.7283 150.421 47.1754C150.759 46.6224 151.043 46.1386 151.273 45.7238C150.951 45.7392 150.467 45.7699 149.822 45.816C149.192 45.8467 148.485 45.9005 147.702 45.9773C146.934 46.0541 146.151 46.1616 145.352 46.2998C144.568 46.4227 143.839 46.584 143.163 46.7837C142.487 46.9834 141.942 47.2291 141.527 47.521C141.128 47.7974 140.928 48.1277 140.928 48.5117C140.928 48.911 141.105 49.2413 141.458 49.5024C141.827 49.7635 142.172 49.9709 142.495 50.1245C142.495 50.0323 142.518 49.8403 142.564 49.5485C142.625 49.2566 142.702 48.9802 142.794 48.719C142.887 48.4426 142.994 48.3043 143.117 48.3043C143.148 48.3043 143.163 48.335 143.163 48.3965C143.178 48.4426 143.186 48.4733 143.186 48.4886V48.673C143.155 48.8726 143.125 49.0646 143.094 49.249C143.063 49.4179 143.048 49.6022 143.048 49.8019C143.048 49.8941 143.048 49.9939 143.048 50.1014C143.063 50.1936 143.079 50.2858 143.094 50.3779C143.509 50.5315 144.016 50.6851 144.615 50.8387C145.214 50.9923 145.736 51.0691 146.181 51.0691C146.227 51.0691 146.273 51.0614 146.32 51.0461C146.381 51.0461 146.442 51.0461 146.504 51.0461C146.519 51.0461 146.542 51.0461 146.573 51.0461C146.604 51.0461 146.619 51.0614 146.619 51.0922C146.619 51.1536 146.542 51.192 146.389 51.2074C146.235 51.2381 146.143 51.2534 146.112 51.2534C145.636 51.2534 145.144 51.2227 144.638 51.1613C144.146 51.0998 143.67 51 143.209 50.8618C143.347 51.2765 143.562 51.576 143.854 51.7603C144.161 51.96 144.53 52.0598 144.96 52.0598ZM157.365 43.535C157.319 43.535 157.288 43.4813 157.273 43.3738C157.273 43.2509 157.273 43.1741 157.273 43.1434C157.273 43.0973 157.28 42.9974 157.296 42.8438C157.311 42.6902 157.357 42.6058 157.434 42.5904C157.649 42.5597 157.864 42.5213 158.079 42.4752C158.294 42.4291 158.509 42.3754 158.724 42.3139C158.755 42.2986 158.801 42.2909 158.862 42.2909C158.939 42.2909 158.978 42.3293 158.978 42.4061C158.978 42.575 158.87 42.7517 158.655 42.936C158.455 43.105 158.225 43.2509 157.964 43.3738C157.718 43.4813 157.518 43.535 157.365 43.535ZM155.499 51C154.746 51 154.37 50.616 154.37 49.848C154.37 49.5254 154.416 49.1952 154.508 48.8573C154.615 48.5194 154.731 48.2045 154.854 47.9126C154.992 47.5747 155.145 47.2445 155.314 46.9219C155.483 46.5994 155.652 46.2768 155.821 45.9542C155.898 45.816 155.967 45.6778 156.029 45.5395C156.105 45.3859 156.182 45.24 156.259 45.1018C156.336 44.9942 156.482 44.9021 156.697 44.8253C156.912 44.7485 157.081 44.7101 157.204 44.7101C157.219 44.7101 157.219 44.7178 157.204 44.7331C157.188 44.7331 157.181 44.7331 157.181 44.7331C157.196 44.7331 157.204 44.7408 157.204 44.7562C157.234 44.7254 157.273 44.7101 157.319 44.7101C157.38 44.7101 157.419 44.7408 157.434 44.8022C157.449 44.8483 157.457 44.8944 157.457 44.9405C157.457 45.048 157.411 45.2093 157.319 45.4243C157.242 45.6394 157.142 45.8467 157.019 46.0464C156.912 46.2307 156.804 46.3459 156.697 46.392C156.558 46.7146 156.374 47.0678 156.144 47.4518C155.929 47.8358 155.729 48.2275 155.545 48.6269C155.36 49.0109 155.268 49.3872 155.268 49.7558C155.268 50.1859 155.499 50.401 155.959 50.401C156.174 50.401 156.405 50.3318 156.651 50.1936C156.912 50.0554 157.165 49.8941 157.411 49.7098C157.657 49.5101 157.864 49.3411 158.033 49.2029C158.217 49.0646 158.333 48.9955 158.379 48.9955C158.394 48.9955 158.402 49.0032 158.402 49.0186C158.402 49.08 158.379 49.1491 158.333 49.2259C158.286 49.2874 158.248 49.3334 158.217 49.3642C158.033 49.6099 157.787 49.8634 157.48 50.1245C157.173 50.3702 156.843 50.5776 156.489 50.7466C156.151 50.9155 155.821 51 155.499 51ZM157.863 51.3456C157.755 51.3456 157.709 51.3072 157.724 51.2304C158.124 50.5238 158.477 49.8019 158.784 49.0646C159.091 48.312 159.391 47.5594 159.683 46.8067L159.936 46.1386C159.936 46.0925 159.898 46.0771 159.821 46.0925C159.744 46.1078 159.706 46.0848 159.706 46.0234C159.706 45.9926 159.767 45.8774 159.89 45.6778C160.013 45.4627 160.144 45.2477 160.282 45.0326C160.42 44.8022 160.504 44.664 160.535 44.6179C160.597 44.5258 160.735 44.4336 160.95 44.3414C161.165 44.2493 161.326 44.2032 161.434 44.2032C161.603 44.2032 161.687 44.2723 161.687 44.4106C161.687 44.4566 161.68 44.5027 161.664 44.5488C161.649 44.5949 161.633 44.6333 161.618 44.664C161.388 45.217 161.134 45.7699 160.858 46.3229C160.597 46.8605 160.382 47.4211 160.213 48.0048C160.658 47.4672 161.142 46.945 161.664 46.4381C162.202 45.9158 162.747 45.4397 163.3 45.0096C163.454 44.8867 163.623 44.7715 163.807 44.664C164.007 44.5565 164.206 44.5027 164.406 44.5027C164.652 44.5027 164.805 44.5949 164.867 44.7792C164.928 44.9482 164.959 45.1248 164.959 45.3091C164.959 45.5549 164.882 45.816 164.728 46.0925C164.575 46.369 164.352 46.5072 164.06 46.5072C163.937 46.5072 163.876 46.4611 163.876 46.369C163.876 46.2922 163.884 46.2307 163.899 46.1846C163.914 46.1232 163.922 46.0618 163.922 46.0003C163.922 45.9235 163.891 45.8314 163.83 45.7238C163.768 45.6163 163.699 45.5626 163.623 45.5626C163.423 45.5626 163.154 45.6854 162.816 45.9312C162.478 46.177 162.125 46.4765 161.756 46.8298C161.403 47.183 161.08 47.5286 160.789 47.8666C160.512 48.1891 160.312 48.4272 160.19 48.5808C160.021 48.8266 159.875 49.08 159.752 49.3411C159.629 49.5869 159.529 49.8403 159.452 50.1014C159.422 50.1936 159.391 50.2934 159.36 50.401C159.329 50.4931 159.299 50.5776 159.268 50.6544C159.237 50.7312 159.122 50.831 158.922 50.9539C158.723 51.0614 158.515 51.1536 158.3 51.2304C158.101 51.3072 157.955 51.3456 157.863 51.3456ZM164.293 51.3456C164.201 51.3456 164.155 51.3072 164.155 51.2304C164.57 50.5238 164.931 49.8019 165.238 49.0646C165.545 48.312 165.845 47.5594 166.136 46.8067L166.39 46.1386C166.39 46.0925 166.344 46.0771 166.252 46.0925C166.175 46.1078 166.136 46.0848 166.136 46.0234C166.136 45.9926 166.198 45.8774 166.321 45.6778C166.459 45.4627 166.597 45.2477 166.735 45.0326C166.874 44.8022 166.958 44.664 166.989 44.6179C167.05 44.5258 167.189 44.4336 167.404 44.3414C167.619 44.2493 167.78 44.2032 167.887 44.2032C168.041 44.2032 168.118 44.2723 168.118 44.4106C168.118 44.4566 168.041 44.6563 167.887 45.0096C167.749 45.3475 167.58 45.7546 167.381 46.2307C167.181 46.6915 166.997 47.1293 166.828 47.544C166.659 47.9434 166.551 48.2275 166.505 48.3965C166.628 48.2429 166.828 48.0202 167.104 47.7283C167.381 47.4211 167.695 47.0909 168.049 46.7376C168.402 46.3843 168.763 46.0464 169.132 45.7238C169.5 45.4013 169.831 45.1402 170.122 44.9405C170.43 44.7254 170.668 44.6179 170.837 44.6179C170.975 44.6179 171.059 44.6794 171.09 44.8022C171.136 44.9098 171.159 45.0173 171.159 45.1248C171.159 45.4166 171.09 45.7853 170.952 46.2307C170.829 46.6762 170.683 47.1216 170.514 47.567C170.345 48.0125 170.199 48.3734 170.076 48.6499C170.383 48.3888 170.714 48.0893 171.067 47.7514C171.436 47.3981 171.789 47.0371 172.127 46.6685C172.465 46.2998 172.741 45.9542 172.956 45.6317C173.079 45.4781 173.225 45.4013 173.394 45.4013C173.717 45.4013 173.878 45.5549 173.878 45.8621C173.878 46.0157 173.824 46.2461 173.717 46.5533C173.609 46.8605 173.486 47.0525 173.348 47.1293C173.271 47.4518 173.202 47.7898 173.141 48.143C173.079 48.481 173.048 48.8266 173.048 49.1798C173.048 49.3181 173.064 49.487 173.095 49.6867C173.125 49.871 173.187 50.04 173.279 50.1936C173.371 50.3318 173.509 50.401 173.694 50.401C173.909 50.401 174.131 50.3318 174.362 50.1936C174.592 50.0554 174.815 49.8941 175.03 49.7098C175.245 49.5101 175.429 49.3411 175.583 49.2029C175.736 49.0646 175.836 48.9955 175.882 48.9955C175.913 48.9955 175.928 49.0109 175.928 49.0416C175.928 49.0877 175.913 49.1491 175.882 49.2259C175.852 49.2874 175.821 49.3334 175.79 49.3642C175.56 49.7482 175.207 50.1168 174.73 50.4701C174.27 50.8234 173.801 51 173.325 51C172.818 51 172.465 50.8387 172.265 50.5162C172.065 50.1936 171.966 49.8096 171.966 49.3642C171.966 48.888 172.035 48.4118 172.173 47.9357C172.327 47.4442 172.48 46.9834 172.634 46.5533C172.25 47.0294 171.835 47.4979 171.39 47.9587C170.944 48.4042 170.499 48.8342 170.053 49.249C169.946 49.5869 169.738 49.9402 169.431 50.3088C169.139 50.6774 168.794 50.8618 168.394 50.8618C168.379 50.8618 168.341 50.8541 168.279 50.8387C168.233 50.8234 168.21 50.7926 168.21 50.7466C168.21 50.7466 168.21 50.7389 168.21 50.7235C168.21 50.7082 168.218 50.7005 168.233 50.7005C168.341 50.4086 168.479 50.0554 168.648 49.6406C168.832 49.2259 169.016 48.7882 169.201 48.3274C169.4 47.8666 169.562 47.4288 169.685 47.0141C169.823 46.5994 169.892 46.2538 169.892 45.9773C169.892 45.9312 169.884 45.8774 169.869 45.816C169.869 45.7546 169.831 45.7238 169.754 45.7238C169.615 45.7238 169.416 45.839 169.155 46.0694C168.909 46.2845 168.632 46.5686 168.325 46.9219C168.018 47.2598 167.711 47.6131 167.404 47.9818C167.112 48.3504 166.851 48.6883 166.62 48.9955C166.39 49.2874 166.236 49.4947 166.159 49.6176C165.914 49.9709 165.691 50.3395 165.491 50.7235C165.461 50.8003 165.361 50.8925 165.192 51C165.038 51.0922 164.869 51.169 164.685 51.2304C164.516 51.3072 164.385 51.3456 164.293 51.3456ZM180.437 51.1843C180.022 51.1843 179.746 51.023 179.607 50.7005C179.469 50.3626 179.4 50.0246 179.4 49.6867C179.4 49.3027 179.431 48.9187 179.492 48.5347C179.554 48.1507 179.623 47.7744 179.7 47.4058C179.546 47.6669 179.3 48.0048 178.962 48.4195C178.624 48.8342 178.248 49.2566 177.833 49.6867C177.419 50.1014 176.996 50.4547 176.566 50.7466C176.151 51.023 175.783 51.1613 175.46 51.1613C175.276 51.1613 175.153 51.0998 175.092 50.977C175.046 50.8541 175.023 50.7158 175.023 50.5622C175.023 50.2397 175.099 49.8326 175.253 49.3411C175.407 48.8496 175.622 48.335 175.898 47.7974C176.175 47.2445 176.482 46.7376 176.82 46.2768C177.173 45.816 177.534 45.4474 177.903 45.1709C178.287 44.879 178.671 44.7485 179.055 44.7792C179.223 44.687 179.408 44.6026 179.607 44.5258C179.807 44.449 180.007 44.4106 180.207 44.4106C180.36 44.4106 180.514 44.4259 180.667 44.4566C180.836 44.472 180.998 44.495 181.151 44.5258C181.228 44.495 181.312 44.4643 181.405 44.4336C181.497 44.4029 181.589 44.3875 181.681 44.3875C181.85 44.3875 181.935 44.4643 181.935 44.6179C181.935 44.6947 181.888 44.8483 181.796 45.0787C181.719 45.2938 181.627 45.5011 181.52 45.7008C181.428 45.8851 181.351 45.9926 181.289 46.0234C181.151 46.2998 181.021 46.6608 180.898 47.1062C180.775 47.5363 180.675 47.9818 180.598 48.4426C180.521 48.9034 180.483 49.295 180.483 49.6176C180.483 49.7866 180.506 49.9786 180.552 50.1936C180.614 50.3933 180.759 50.4931 180.99 50.4931C181.251 50.4931 181.512 50.3933 181.773 50.1936C182.05 49.9786 182.288 49.7712 182.487 49.5715C182.687 49.3565 182.802 49.249 182.833 49.249C182.864 49.249 182.879 49.2643 182.879 49.295C182.879 49.4333 182.802 49.5946 182.649 49.7789C182.495 49.9632 182.326 50.1398 182.142 50.3088C181.958 50.4624 181.819 50.5776 181.727 50.6544C181.543 50.7926 181.335 50.9155 181.105 51.023C180.89 51.1306 180.667 51.1843 180.437 51.1843ZM176.267 50.3779C176.343 50.3779 176.436 50.3472 176.543 50.2858C176.651 50.209 176.735 50.1475 176.797 50.1014C177.718 49.441 178.44 48.6806 178.962 47.8205C179.485 46.9603 179.991 46.0387 180.483 45.0557C180.422 45.025 180.352 45.0019 180.276 44.9866C180.199 44.9712 180.122 44.9635 180.045 44.9635C179.753 44.9635 179.462 45.0403 179.17 45.1939C178.893 45.3475 178.663 45.5318 178.479 45.7469C178.187 46.0541 177.887 46.4611 177.58 46.968C177.288 47.4595 177.019 47.9741 176.774 48.5117C176.528 49.0339 176.343 49.5024 176.221 49.9171C176.205 49.9632 176.19 50.0093 176.175 50.0554C176.159 50.1014 176.151 50.1552 176.151 50.2166C176.151 50.3242 176.19 50.3779 176.267 50.3779ZM195.058 53.7187C194.382 53.7187 194.045 53.3731 194.045 52.6819C194.045 52.2826 194.137 51.8141 194.321 51.2765C194.505 50.7542 194.728 50.2166 194.989 49.6637C195.266 49.0954 195.542 48.5654 195.819 48.0739C196.11 47.567 196.356 47.1446 196.556 46.8067C196.31 46.7299 196.034 46.6224 195.726 46.4842C195.435 46.3306 195.181 46.1462 194.966 45.9312C194.766 45.7008 194.667 45.4243 194.667 45.1018C194.667 44.8714 194.743 44.6102 194.897 44.3184C195.066 44.0112 195.289 43.8576 195.565 43.8576C195.657 43.8576 195.703 43.896 195.703 43.9728C195.703 44.0803 195.619 44.2186 195.45 44.3875C195.296 44.5411 195.22 44.7562 195.22 45.0326C195.22 45.2784 195.304 45.5011 195.473 45.7008C195.642 45.9005 195.842 46.0694 196.072 46.2077C196.318 46.3306 196.541 46.4304 196.74 46.5072C197.032 46.0464 197.324 45.5933 197.616 45.1478C197.908 44.687 198.199 44.2339 198.491 43.7885C198.338 43.7117 198.176 43.6426 198.007 43.5811C197.838 43.5197 197.67 43.489 197.501 43.489C197.132 43.489 196.855 43.5965 196.671 43.8115C196.487 44.0112 196.341 44.2493 196.233 44.5258C196.141 44.8022 196.057 45.048 195.98 45.263C195.918 45.4627 195.826 45.5626 195.703 45.5626C195.657 45.5626 195.634 45.5242 195.634 45.4474C195.634 45.0634 195.757 44.664 196.003 44.2493C196.264 43.8192 196.587 43.4582 196.971 43.1664C197.37 42.8746 197.769 42.7286 198.169 42.7286C198.491 42.7286 198.791 42.7978 199.067 42.936C199.543 42.2448 200.02 41.5613 200.496 40.8854C200.987 40.1942 201.494 39.5184 202.016 38.8579C202.001 38.689 202.101 38.4739 202.316 38.2128C202.531 37.9517 202.692 37.752 202.8 37.6138C202.139 37.4602 201.463 37.3526 200.772 37.2912C200.096 37.2144 199.413 37.176 198.722 37.176C197.785 37.176 196.84 37.2451 195.888 37.3834C194.951 37.5216 194.037 37.7443 193.146 38.0515C192.808 38.159 192.409 38.328 191.948 38.5584C191.487 38.7888 191.08 39.073 190.727 39.4109C190.374 39.7334 190.197 40.1098 190.197 40.5398C190.197 40.8778 190.304 41.1696 190.519 41.4154C190.734 41.6458 190.996 41.8378 191.303 41.9914C191.61 42.145 191.894 42.2755 192.155 42.383C192.171 42.3984 192.201 42.4214 192.247 42.4522C192.309 42.4675 192.34 42.4906 192.34 42.5213C192.34 42.5674 192.294 42.5981 192.201 42.6134C192.109 42.6288 192.048 42.6365 192.017 42.6365C191.94 42.6365 191.886 42.6288 191.856 42.6134C191.625 42.5366 191.341 42.4368 191.003 42.3139C190.665 42.191 190.335 42.0374 190.013 41.8531C189.69 41.6688 189.421 41.4538 189.206 41.208C188.991 40.9622 188.884 40.6858 188.884 40.3786C188.884 40.0406 189.006 39.7334 189.252 39.457C189.498 39.1651 189.805 38.9117 190.174 38.6966C190.542 38.4662 190.911 38.2742 191.28 38.1206C191.664 37.967 191.986 37.8442 192.247 37.752C193.215 37.4448 194.198 37.2144 195.197 37.0608C196.21 36.9072 197.224 36.8304 198.238 36.8304C199.037 36.8304 199.828 36.8765 200.611 36.9686C201.41 37.0608 202.193 37.2067 202.961 37.4064C203.038 37.3142 203.115 37.2067 203.191 37.0838C203.284 36.9456 203.368 36.8381 203.445 36.7613C203.568 36.6384 203.76 36.5462 204.021 36.4848C204.282 36.4234 204.497 36.3926 204.666 36.3926C204.727 36.3926 204.82 36.408 204.942 36.4387C205.065 36.4541 205.127 36.5078 205.127 36.6C205.127 36.6307 205.05 36.7382 204.896 36.9226C204.758 37.0915 204.612 37.2605 204.459 37.4294C204.305 37.5984 204.205 37.7136 204.159 37.775C204.543 37.9133 204.95 38.0976 205.38 38.328C205.826 38.543 206.248 38.8042 206.647 39.1114C207.047 39.4186 207.369 39.7718 207.615 40.1712C207.876 40.5552 208.007 40.9853 208.007 41.4614C208.007 42.0605 207.807 42.6134 207.408 43.1203C207.024 43.6272 206.532 44.088 205.933 44.5027C205.35 44.9174 204.743 45.2784 204.113 45.5856C203.483 45.8774 202.923 46.1078 202.431 46.2768C202.708 46.6147 203.069 47.0755 203.514 47.6592C203.975 48.2275 204.451 48.8266 204.942 49.4563C205.449 50.0707 205.941 50.6314 206.417 51.1382C206.893 51.6451 207.293 52.0061 207.615 52.2211C207.692 52.2826 207.776 52.3363 207.869 52.3824C207.976 52.4285 208.084 52.4515 208.191 52.4515C208.422 52.4515 208.575 52.3517 208.652 52.152C208.729 51.9523 208.767 51.7296 208.767 51.4838C208.782 51.2381 208.79 51.0461 208.79 50.9078C208.79 50.831 208.829 50.7926 208.905 50.7926C208.967 50.7926 209.005 50.8618 209.021 51C209.051 51.1382 209.067 51.2842 209.067 51.4378C209.082 51.5914 209.09 51.6989 209.09 51.7603C209.09 52.0829 209.021 52.3824 208.882 52.6589C208.744 52.9354 208.483 53.0736 208.099 53.0736C207.684 53.0736 207.223 52.9046 206.717 52.5667C206.225 52.2288 205.718 51.791 205.196 51.2534C204.674 50.7158 204.167 50.1475 203.675 49.5485C203.184 48.9494 202.738 48.3888 202.339 47.8666C201.955 47.329 201.64 46.9066 201.394 46.5994C200.918 46.7222 200.434 46.8298 199.943 46.9219C199.451 47.0141 198.96 47.0602 198.468 47.0602C198.315 47.0602 198.161 47.0602 198.007 47.0602C197.869 47.0448 197.723 47.0294 197.57 47.0141C197.385 47.352 197.17 47.759 196.925 48.2352C196.694 48.7114 196.464 49.2182 196.233 49.7558C196.018 50.2781 195.834 50.785 195.68 51.2765C195.542 51.7834 195.473 52.2288 195.473 52.6128C195.473 52.751 195.496 52.897 195.542 53.0506C195.588 53.2042 195.696 53.281 195.865 53.281C196.003 53.281 196.134 53.2579 196.256 53.2118C196.395 53.1811 196.525 53.1658 196.648 53.1658C196.663 53.1658 196.694 53.1658 196.74 53.1658C196.802 53.1658 196.832 53.1811 196.832 53.2118C196.832 53.2733 196.702 53.3424 196.441 53.4192C196.195 53.5114 195.926 53.5805 195.634 53.6266C195.342 53.688 195.15 53.7187 195.058 53.7187ZM202.062 45.816C202.493 45.6317 202.999 45.3859 203.583 45.0787C204.167 44.7562 204.735 44.3875 205.288 43.9728C205.841 43.5427 206.302 43.0819 206.67 42.5904C207.039 42.0835 207.223 41.5536 207.223 41.0006C207.223 40.463 207.047 39.9946 206.694 39.5952C206.34 39.1958 205.91 38.8656 205.403 38.6045C204.912 38.328 204.443 38.113 203.998 37.9594C203.245 38.8349 202.516 39.7334 201.809 40.655C201.118 41.5613 200.45 42.4906 199.805 43.4429C200.219 43.7962 200.611 44.1802 200.98 44.5949C201.348 44.9942 201.709 45.4013 202.062 45.816ZM198.33 46.7837C198.775 46.7837 199.244 46.7222 199.735 46.5994C200.227 46.4765 200.672 46.3459 201.072 46.2077C200.78 45.8544 200.488 45.5165 200.196 45.1939C199.904 44.8714 199.582 44.5718 199.229 44.2954C198.967 44.6947 198.706 45.1018 198.445 45.5165C198.199 45.9158 197.954 46.3229 197.708 46.7376C197.815 46.753 197.915 46.7683 198.007 46.7837C198.115 46.7837 198.222 46.7837 198.33 46.7837ZM208.301 51.1613C207.963 51.1613 207.74 51.1075 207.633 51C207.525 50.8925 207.471 50.6698 207.471 50.3318C207.471 49.9632 207.556 49.5408 207.725 49.0646C207.909 48.5885 208.078 48.1891 208.232 47.8666C208.232 47.8512 208.224 47.8435 208.209 47.8435C208.209 47.8282 208.209 47.8128 208.209 47.7974C208.209 47.7206 208.232 47.6592 208.278 47.6131C208.339 47.567 208.385 47.521 208.416 47.4749C208.493 47.352 208.562 47.2291 208.623 47.1062C208.685 46.9834 208.746 46.8682 208.808 46.7606C209.069 46.3459 209.384 45.9466 209.752 45.5626C210.136 45.1786 210.566 44.9174 211.042 44.7792C211.211 44.7331 211.373 44.7101 211.526 44.7101C211.557 44.7101 211.588 44.7178 211.618 44.7331C211.665 44.7331 211.688 44.7485 211.688 44.7792C211.688 44.8253 211.642 44.879 211.549 44.9405C211.473 45.0019 211.419 45.048 211.388 45.0787C211.142 45.2784 210.874 45.5856 210.582 46.0003C210.305 46.415 210.082 46.753 209.914 47.0141C210.267 46.9526 210.612 46.9066 210.95 46.8758C211.304 46.8451 211.649 46.8451 211.987 46.8758C212.156 46.6301 212.31 46.3306 212.448 45.9773C212.602 45.6086 212.678 45.2707 212.678 44.9635C212.678 44.7946 212.655 44.6947 212.609 44.664C212.578 44.6333 212.494 44.6179 212.356 44.6179C212.325 44.6179 212.279 44.6102 212.218 44.5949C212.156 44.5795 212.125 44.5488 212.125 44.5027C212.125 44.4413 212.194 44.3875 212.333 44.3414C212.471 44.2954 212.617 44.2646 212.77 44.2493C212.924 44.2186 213.024 44.2032 213.07 44.2032C213.485 44.2032 213.692 44.3952 213.692 44.7792C213.692 44.9942 213.623 45.2554 213.485 45.5626C213.362 45.8544 213.201 46.1309 213.001 46.392C212.817 46.6378 212.632 46.8144 212.448 46.9219C212.494 46.9219 212.586 46.945 212.724 46.991C212.878 47.0218 213.016 47.0602 213.139 47.1062C213.277 47.1523 213.346 47.2061 213.346 47.2675C213.346 47.3136 213.3 47.3443 213.208 47.3597C213.116 47.3597 213.055 47.3597 213.024 47.3597C212.886 47.3597 212.747 47.352 212.609 47.3366C212.471 47.3059 212.333 47.2906 212.194 47.2906C211.764 47.2906 211.327 47.3213 210.881 47.3827C210.451 47.4442 210.021 47.521 209.591 47.6131C209.437 47.8896 209.261 48.2429 209.061 48.673C208.877 49.103 208.785 49.487 208.785 49.825C208.785 50.3626 209.061 50.6314 209.614 50.6314C210.013 50.6314 210.397 50.5238 210.766 50.3088C211.15 50.0938 211.503 49.8403 211.826 49.5485C212.148 49.2566 212.41 49.0032 212.609 48.7882C212.809 48.5731 212.924 48.4656 212.955 48.4656C213.001 48.4656 213.024 48.4963 213.024 48.5578C213.024 48.7421 212.916 48.9648 212.701 49.2259C212.486 49.4717 212.31 49.6483 212.171 49.7558C211.634 50.1706 211.027 50.5085 210.351 50.7696C209.691 51.0307 209.007 51.1613 208.301 51.1613ZM212.728 51.5069C212.712 51.5069 212.705 51.4992 212.705 51.4838C212.705 51.407 212.758 51.2381 212.866 50.977C212.989 50.7158 213.066 50.5546 213.096 50.4931C213.665 49.2182 214.21 47.9357 214.732 46.6454C215.254 45.3398 215.815 44.0573 216.414 42.7978C217.028 41.5229 217.727 40.3094 218.511 39.1574C218.48 39.0346 218.465 38.927 218.465 38.8349C218.465 38.7581 218.472 38.6966 218.488 38.6506L219.34 37.3373C219.432 37.2451 219.586 37.176 219.801 37.1299C220.031 37.0838 220.208 37.0608 220.331 37.0608C220.392 37.0608 220.507 37.0762 220.676 37.1069C220.845 37.1222 220.93 37.1837 220.93 37.2912C220.93 37.3373 220.922 37.3603 220.907 37.3603C220.661 37.6982 220.415 38.0438 220.17 38.3971C219.924 38.7504 219.678 39.1037 219.432 39.457C217.359 42.5597 215.7 45.8467 214.456 49.3181C215.147 48.6576 215.8 47.9587 216.414 47.2214C217.028 46.4842 217.674 45.7853 218.349 45.1248C218.38 45.0941 218.411 45.0787 218.442 45.0787C218.488 45.0634 218.526 45.048 218.557 45.0326C218.634 44.9866 218.726 44.9251 218.833 44.8483C218.956 44.7715 219.056 44.7331 219.133 44.7331C219.133 44.7331 219.133 44.7408 219.133 44.7562H219.156C219.171 44.7408 219.21 44.7331 219.271 44.7331C219.348 44.7331 219.394 44.7792 219.409 44.8714C219.425 44.9635 219.432 45.0403 219.432 45.1018C219.432 45.2554 219.379 45.4934 219.271 45.816C219.179 46.1386 219.064 46.3382 218.925 46.415C218.772 46.9526 218.626 47.4442 218.488 47.8896C218.365 48.3197 218.303 48.8342 218.303 49.4333C218.303 49.5869 218.326 49.7866 218.372 50.0323C218.419 50.2781 218.557 50.401 218.787 50.401C219.002 50.401 219.225 50.3318 219.455 50.1936C219.686 50.0554 219.908 49.8941 220.123 49.7098C220.339 49.5101 220.523 49.3411 220.676 49.2029C220.83 49.0646 220.93 48.9955 220.976 48.9955C221.007 48.9955 221.022 49.0186 221.022 49.0646C221.022 49.1107 221.007 49.1645 220.976 49.2259C220.945 49.2874 220.915 49.3334 220.884 49.3642C220.638 49.7482 220.285 50.1168 219.824 50.4701C219.363 50.8234 218.895 51 218.419 51C217.958 51 217.651 50.8464 217.497 50.5392C217.343 50.2166 217.267 49.8634 217.267 49.4794C217.267 48.911 217.351 48.312 217.52 47.6822C217.704 47.0525 217.896 46.4765 218.096 45.9542C218.004 46.0464 217.819 46.2461 217.543 46.5533C217.267 46.8605 216.944 47.2138 216.575 47.6131C216.207 48.0125 215.846 48.4118 215.492 48.8112C215.139 49.1952 214.84 49.5254 214.594 49.8019C214.363 50.0784 214.241 50.2474 214.225 50.3088C214.21 50.401 214.202 50.5008 214.202 50.6083C214.202 50.7005 214.171 50.7926 214.11 50.8848C214.079 50.9309 213.964 51 213.764 51.0922C213.565 51.1997 213.357 51.2918 213.142 51.3686C212.943 51.4608 212.804 51.5069 212.728 51.5069ZM221.751 51.3226C221.582 51.3226 221.405 51.2995 221.221 51.2534C221.052 51.2074 220.899 51.1306 220.76 51.023C220.745 51.0538 220.722 51.0922 220.691 51.1382C220.66 51.1843 220.614 51.2074 220.553 51.2074C220.43 51.2074 220.323 51.1382 220.23 51C220.138 50.8618 220.092 50.7389 220.092 50.6314C220.092 50.6006 220.092 50.5776 220.092 50.5622C220.108 50.5315 220.115 50.5085 220.115 50.4931C220.238 50.0016 220.438 49.4486 220.714 48.8342C221.006 48.2198 221.26 47.6822 221.475 47.2214C222.104 45.8544 222.749 44.495 223.41 43.1434C224.086 41.7917 224.8 40.463 225.553 39.1574C225.507 39.0653 225.484 38.9578 225.484 38.8349C225.484 38.7581 225.499 38.6966 225.53 38.6506C225.576 38.5738 225.66 38.4432 225.783 38.2589C225.906 38.0592 226.029 37.8672 226.152 37.6829C226.275 37.4986 226.351 37.3834 226.382 37.3373C226.459 37.2451 226.605 37.176 226.82 37.1299C227.05 37.0838 227.227 37.0608 227.35 37.0608C227.427 37.0608 227.542 37.0762 227.695 37.1069C227.864 37.1222 227.949 37.1837 227.949 37.2912C227.949 37.3373 227.941 37.3603 227.926 37.3603C227.542 37.9286 227.15 38.497 226.751 39.0653C226.367 39.6182 225.998 40.1866 225.645 40.7702C224.908 41.9837 224.224 43.2278 223.594 44.5027C222.98 45.7622 222.404 47.0525 221.866 48.3734C222.081 48.1123 222.373 47.7514 222.742 47.2906C223.11 46.8298 223.517 46.3613 223.963 45.8851C224.408 45.409 224.854 45.0096 225.299 44.687C225.745 44.3645 226.136 44.2032 226.474 44.2032C226.674 44.2032 226.804 44.2493 226.866 44.3414C226.943 44.4182 226.981 44.5565 226.981 44.7562C226.981 45.0326 226.927 45.3552 226.82 45.7238C226.712 46.0925 226.605 46.4074 226.497 46.6685C226.559 46.6378 226.659 46.5917 226.797 46.5302C226.935 46.4688 227.035 46.4381 227.096 46.4381C227.158 46.4381 227.188 46.4611 227.188 46.5072C227.188 46.6147 227.073 46.7069 226.843 46.7837C226.612 46.8605 226.451 46.9142 226.359 46.945C226.221 47.2675 226.044 47.6362 225.829 48.0509C225.614 48.4502 225.376 48.8342 225.115 49.2029C224.869 49.5715 224.608 49.8787 224.332 50.1245C224.086 50.3395 223.809 50.4931 223.502 50.5853C223.195 50.6774 222.895 50.7926 222.604 50.9309C222.435 51.023 222.304 51.1075 222.212 51.1843C222.12 51.2765 221.966 51.3226 221.751 51.3226ZM222.074 48.7882C222.565 48.4195 223.072 48.097 223.594 47.8205C224.132 47.5286 224.677 47.2598 225.23 47.0141C225.292 46.8912 225.361 46.7222 225.437 46.5072C225.53 46.2922 225.614 46.0771 225.691 45.8621C225.768 45.647 225.806 45.4781 225.806 45.3552C225.806 45.2016 225.752 45.1248 225.645 45.1248C225.46 45.1248 225.192 45.2784 224.838 45.5856C224.5 45.8928 224.14 46.2614 223.756 46.6915C223.372 47.1062 223.026 47.5133 222.719 47.9126C222.412 48.312 222.196 48.6038 222.074 48.7882ZM221.958 50.8157C222.296 50.8157 222.627 50.6851 222.949 50.424C223.272 50.1629 223.571 49.8403 223.848 49.4563C224.124 49.0723 224.37 48.6883 224.585 48.3043C224.815 47.905 224.992 47.5747 225.115 47.3136C224.7 47.4826 224.224 47.736 223.686 48.0739C223.164 48.4118 222.665 48.7805 222.189 49.1798C221.728 49.5792 221.375 49.9709 221.129 50.3549C221.359 50.6621 221.636 50.8157 221.958 50.8157ZM227.201 51.1613C226.863 51.1613 226.64 51.1075 226.533 51C226.425 50.8925 226.371 50.6698 226.371 50.3318C226.371 49.9632 226.456 49.5408 226.625 49.0646C226.809 48.5885 226.978 48.1891 227.132 47.8666C227.132 47.8512 227.124 47.8435 227.109 47.8435C227.109 47.8282 227.109 47.8128 227.109 47.7974C227.109 47.7206 227.132 47.6592 227.178 47.6131C227.239 47.567 227.285 47.521 227.316 47.4749C227.393 47.352 227.462 47.2291 227.523 47.1062C227.585 46.9834 227.646 46.8682 227.708 46.7606C227.969 46.3459 228.284 45.9466 228.652 45.5626C229.036 45.1786 229.466 44.9174 229.942 44.7792C230.111 44.7331 230.273 44.7101 230.426 44.7101C230.457 44.7101 230.488 44.7178 230.518 44.7331C230.565 44.7331 230.588 44.7485 230.588 44.7792C230.588 44.8253 230.542 44.879 230.449 44.9405C230.373 45.0019 230.319 45.048 230.288 45.0787C230.042 45.2784 229.774 45.5856 229.482 46.0003C229.205 46.415 228.982 46.753 228.814 47.0141C229.167 46.9526 229.512 46.9066 229.85 46.8758C230.204 46.8451 230.549 46.8451 230.887 46.8758C231.056 46.6301 231.21 46.3306 231.348 45.9773C231.502 45.6086 231.578 45.2707 231.578 44.9635C231.578 44.7946 231.555 44.6947 231.509 44.664C231.478 44.6333 231.394 44.6179 231.256 44.6179C231.225 44.6179 231.179 44.6102 231.118 44.5949C231.056 44.5795 231.025 44.5488 231.025 44.5027C231.025 44.4413 231.094 44.3875 231.233 44.3414C231.371 44.2954 231.517 44.2646 231.67 44.2493C231.824 44.2186 231.924 44.2032 231.97 44.2032C232.385 44.2032 232.592 44.3952 232.592 44.7792C232.592 44.9942 232.523 45.2554 232.385 45.5626C232.262 45.8544 232.101 46.1309 231.901 46.392C231.717 46.6378 231.532 46.8144 231.348 46.9219C231.394 46.9219 231.486 46.945 231.624 46.991C231.778 47.0218 231.916 47.0602 232.039 47.1062C232.177 47.1523 232.246 47.2061 232.246 47.2675C232.246 47.3136 232.2 47.3443 232.108 47.3597C232.016 47.3597 231.955 47.3597 231.924 47.3597C231.786 47.3597 231.647 47.352 231.509 47.3366C231.371 47.3059 231.233 47.2906 231.094 47.2906C230.664 47.2906 230.227 47.3213 229.781 47.3827C229.351 47.4442 228.921 47.521 228.491 47.6131C228.337 47.8896 228.161 48.2429 227.961 48.673C227.777 49.103 227.685 49.487 227.685 49.825C227.685 50.3626 227.961 50.6314 228.514 50.6314C228.913 50.6314 229.297 50.5238 229.666 50.3088C230.05 50.0938 230.403 49.8403 230.726 49.5485C231.048 49.2566 231.31 49.0032 231.509 48.7882C231.709 48.5731 231.824 48.4656 231.855 48.4656C231.901 48.4656 231.924 48.4963 231.924 48.5578C231.924 48.7421 231.816 48.9648 231.601 49.2259C231.386 49.4717 231.21 49.6483 231.071 49.7558C230.534 50.1706 229.927 50.5085 229.251 50.7696C228.591 51.0307 227.907 51.1613 227.201 51.1613ZM232.158 51.3456C232.05 51.3456 232.004 51.3072 232.019 51.2304C232.419 50.5238 232.772 49.8019 233.079 49.0646C233.386 48.312 233.686 47.5594 233.978 46.8067L234.231 46.1386C234.231 46.0925 234.193 46.0771 234.116 46.0925C234.039 46.1078 234.001 46.0848 234.001 46.0234C234.001 45.9926 234.062 45.8774 234.185 45.6778C234.308 45.4627 234.439 45.2477 234.577 45.0326C234.715 44.8022 234.799 44.664 234.83 44.6179C234.892 44.5258 235.03 44.4336 235.245 44.3414C235.46 44.2493 235.621 44.2032 235.729 44.2032C235.898 44.2032 235.982 44.2723 235.982 44.4106C235.982 44.4566 235.975 44.5027 235.959 44.5488C235.944 44.5949 235.928 44.6333 235.913 44.664C235.683 45.217 235.429 45.7699 235.153 46.3229C234.892 46.8605 234.677 47.4211 234.508 48.0048C234.953 47.4672 235.437 46.945 235.959 46.4381C236.497 45.9158 237.042 45.4397 237.595 45.0096C237.749 44.8867 237.918 44.7715 238.102 44.664C238.302 44.5565 238.501 44.5027 238.701 44.5027C238.947 44.5027 239.1 44.5949 239.162 44.7792C239.223 44.9482 239.254 45.1248 239.254 45.3091C239.254 45.5549 239.177 45.816 239.023 46.0925C238.87 46.369 238.647 46.5072 238.355 46.5072C238.232 46.5072 238.171 46.4611 238.171 46.369C238.171 46.2922 238.179 46.2307 238.194 46.1846C238.209 46.1232 238.217 46.0618 238.217 46.0003C238.217 45.9235 238.186 45.8314 238.125 45.7238C238.063 45.6163 237.994 45.5626 237.918 45.5626C237.718 45.5626 237.449 45.6854 237.111 45.9312C236.773 46.177 236.42 46.4765 236.051 46.8298C235.698 47.183 235.375 47.5286 235.084 47.8666C234.807 48.1891 234.607 48.4272 234.485 48.5808C234.316 48.8266 234.17 49.08 234.047 49.3411C233.924 49.5869 233.824 49.8403 233.747 50.1014C233.717 50.1936 233.686 50.2934 233.655 50.401C233.624 50.4931 233.594 50.5776 233.563 50.6544C233.532 50.7312 233.417 50.831 233.217 50.9539C233.018 51.0614 232.81 51.1536 232.595 51.2304C232.396 51.3072 232.25 51.3456 232.158 51.3456ZM241.537 43.535C241.491 43.535 241.461 43.4813 241.445 43.3738C241.445 43.2509 241.445 43.1741 241.445 43.1434C241.445 43.0973 241.453 42.9974 241.468 42.8438C241.484 42.6902 241.53 42.6058 241.606 42.5904C241.822 42.5597 242.037 42.5213 242.252 42.4752C242.467 42.4291 242.682 42.3754 242.897 42.3139C242.927 42.2986 242.974 42.2909 243.035 42.2909C243.112 42.2909 243.15 42.3293 243.15 42.4061C243.15 42.575 243.043 42.7517 242.828 42.936C242.628 43.105 242.398 43.2509 242.136 43.3738C241.891 43.4813 241.691 43.535 241.537 43.535ZM239.671 51C238.918 51 238.542 50.616 238.542 49.848C238.542 49.5254 238.588 49.1952 238.68 48.8573C238.788 48.5194 238.903 48.2045 239.026 47.9126C239.164 47.5747 239.318 47.2445 239.487 46.9219C239.656 46.5994 239.825 46.2768 239.994 45.9542C240.07 45.816 240.14 45.6778 240.201 45.5395C240.278 45.3859 240.355 45.24 240.431 45.1018C240.508 44.9942 240.654 44.9021 240.869 44.8253C241.084 44.7485 241.253 44.7101 241.376 44.7101C241.391 44.7101 241.391 44.7178 241.376 44.7331C241.361 44.7331 241.353 44.7331 241.353 44.7331C241.368 44.7331 241.376 44.7408 241.376 44.7562C241.407 44.7254 241.445 44.7101 241.491 44.7101C241.553 44.7101 241.591 44.7408 241.606 44.8022C241.622 44.8483 241.63 44.8944 241.63 44.9405C241.63 45.048 241.583 45.2093 241.491 45.4243C241.414 45.6394 241.315 45.8467 241.192 46.0464C241.084 46.2307 240.977 46.3459 240.869 46.392C240.731 46.7146 240.547 47.0678 240.316 47.4518C240.101 47.8358 239.902 48.2275 239.717 48.6269C239.533 49.0109 239.441 49.3872 239.441 49.7558C239.441 50.1859 239.671 50.401 240.132 50.401C240.347 50.401 240.577 50.3318 240.823 50.1936C241.084 50.0554 241.338 49.8941 241.583 49.7098C241.829 49.5101 242.037 49.3411 242.206 49.2029C242.39 49.0646 242.505 48.9955 242.551 48.9955C242.566 48.9955 242.574 49.0032 242.574 49.0186C242.574 49.08 242.551 49.1491 242.505 49.2259C242.459 49.2874 242.421 49.3334 242.39 49.3642C242.206 49.6099 241.96 49.8634 241.653 50.1245C241.345 50.3702 241.015 50.5776 240.662 50.7466C240.324 50.9155 239.994 51 239.671 51Z" fill="#45535E"/>
</g>
<defs>
<linearGradient id="paint0_linear_109_3163" x1="27.5755" y1="17.6591" x2="27.5755" y2="60" gradientUnits="userSpaceOnUse">
<stop stop-color="#3EBB8D"/>
<stop offset="1" stop-color="#1C5540"/>
</linearGradient>
<linearGradient id="paint1_linear_109_3163" x1="24.6035" y1="28.6726" x2="24.6035" y2="60" gradientUnits="userSpaceOnUse">
<stop stop-color="#3EBB8D"/>
<stop offset="1" stop-color="#1C5540"/>
</linearGradient>
<linearGradient id="paint2_linear_109_3163" x1="27.7531" y1="0" x2="27.7531" y2="31.4894" gradientUnits="userSpaceOnUse">
<stop offset="0.4" stop-color="#A42E2D"/>
<stop offset="1" stop-color="#007356"/>
</linearGradient>
<clipPath id="clip0_109_3163">
<rect width="244" height="60" fill="white"/>
</clipPath>
</defs>
</svg>
