<svg width="16" height="12" viewBox="0 0 16 12" fill="none" xmlns="http://www.w3.org/2000/svg">
<path d="M13.9937 0.00622559H2.00625C1.24375 0.00622559 0.625 0.624976 0.625 1.38748V10.6062C0.625 11.3687 1.24375 11.9875 2.00625 11.9875H13.9875C14.75 11.9875 15.3687 11.3687 15.3687 10.6062V1.38748C15.375 0.624976 14.7562 0.00622559 13.9937 0.00622559ZM14.225 9.19998L11.3313 5.34373C11.3313 5.34373 11.1625 5.03123 10.575 5.03123C9.90625 5.03123 9.70625 5.33123 9.70625 5.33123L7.16875 9.24372C7.16875 9.24372 7.03125 9.50623 6.69375 9.50623C6.3375 9.50623 6.16875 9.24372 6.16875 9.24372L4.8375 7.71873C4.8375 7.71873 4.49375 7.26873 4.05 7.26873C3.60625 7.26873 3.24375 7.76873 3.24375 7.76873L1.78125 9.59373V1.63748C1.78125 1.38123 1.9875 1.17498 2.24375 1.17498H13.7688C14.025 1.17498 14.2312 1.38123 14.2312 1.63748L14.225 9.19998ZM7.30625 4.15623C7.30625 5.05623 6.575 5.78748 5.675 5.78748C4.775 5.78748 4.0375 5.05623 4.0375 4.15623C4.0375 3.25623 4.76875 2.52498 5.66875 2.52498C6.56875 2.52498 7.30625 3.25623 7.30625 4.15623Z" fill="#1C5540"/>
</svg>
