<svg width="24" height="24" viewBox="0 0 24 24" fill="none" xmlns="http://www.w3.org/2000/svg">
<g clip-path="url(#clip0_969_1650)">
<path d="M1.0125 21.2568L6.3525 15.9168C6.3741 15.8952 6.3981 15.8808 6.4197 15.8616C4.96788 13.946 4.30085 11.5491 4.55446 9.15896C4.80807 6.76882 5.96325 4.56523 7.78473 2.997C9.6062 1.42877 11.957 0.613848 14.3583 0.718205C16.7596 0.822563 19.0308 1.83835 20.7093 3.55869C22.3879 5.27903 23.3476 7.57452 23.3929 9.97766C23.4382 12.3808 22.5657 14.7108 20.9532 16.4932C19.3406 18.2756 17.1093 19.3762 14.7137 19.571C12.318 19.7658 9.93819 19.0401 8.0589 17.5416C8.0445 17.5584 8.0349 17.5752 8.0181 17.592L2.6781 22.9224C2.45485 23.1314 2.15911 23.2454 1.85336 23.2403C1.54761 23.2353 1.2558 23.1116 1.03957 22.8953C0.823343 22.6791 0.699636 22.3873 0.694586 22.0815C0.689535 21.7758 0.803535 21.48 1.0125 21.2568ZM22.1541 10.1544C22.1536 8.52358 21.6695 6.92954 20.7629 5.57393C19.8563 4.21832 18.5681 3.16205 17.0611 2.53873C15.5541 1.91541 13.8961 1.75306 12.2968 2.0722C10.6975 2.39135 9.22879 3.17766 8.07647 4.33166C6.92415 5.48566 6.13998 6.9555 5.82317 8.55525C5.50635 10.155 5.67112 11.8128 6.29663 13.3188C6.92214 14.8249 7.98029 16.1117 9.33722 17.0163C10.6941 17.9209 12.2889 18.4027 13.9197 18.4008C16.1041 18.3957 18.1974 17.5249 19.7409 15.9791C21.2844 14.4334 22.1522 12.3388 22.1541 10.1544Z" fill="#45535E"/>
</g>
<defs>
<clipPath id="clip0_969_1650">
<rect width="24" height="24" fill="white" transform="matrix(-1 0 0 1 24 0)"/>
</clipPath>
</defs>
</svg>
