<svg width="80" height="80" viewBox="0 0 80 80" fill="none" xmlns="http://www.w3.org/2000/svg">
<path d="M36.4517 3.28083L36.5196 6.59548L33.8731 8.45575C32.4141 9.47044 31.2266 10.316 31.2266 10.3498C31.2266 10.3837 32.6177 10.8572 34.3142 11.3983L37.4018 12.3454L38.3179 15.3218C38.8268 16.9453 39.3018 18.3321 39.3358 18.3997C39.4036 18.4674 40.2519 17.3512 41.2698 15.9306L43.102 13.3263L46.4271 13.3601H49.7522L47.8861 10.891C46.8682 9.53808 45.986 8.35428 45.9181 8.25281C45.8842 8.15134 46.2914 6.73078 46.8342 5.07345C47.4111 3.3823 47.8182 2.02938 47.7843 1.99556C47.7503 1.96173 46.3932 2.40143 44.7306 2.97642C43.068 3.55141 41.643 3.95729 41.5412 3.88964C41.4394 3.822 40.2179 2.90878 38.8608 1.89409L36.35 0L36.4517 3.28083Z" fill="#1D547D"/>
<path d="M17.0074 27.0245C17.0414 30.8127 17.1092 35.5818 17.1432 37.6111L17.1771 41.3655L8.79645 47.3183C4.182 50.5992 0.280084 53.305 0.178295 53.4065C0.0425762 53.4741 -0.0252833 53.5756 0.00864645 53.6094C0.0425762 53.6432 4.62309 55.0976 10.1197 56.7888L20.1629 59.9005L23.2844 69.9121C24.9809 75.3914 26.4399 79.9575 26.4738 79.9913C26.5078 80.0252 26.6096 79.9575 26.6774 79.8222C26.7453 79.6869 29.4936 75.8311 32.7848 71.2312L38.7225 62.8431L42.4208 62.8769C44.4566 62.8769 49.2068 62.9446 53.0408 63.0122L59.9964 63.1137L57.2481 59.4608C55.7552 57.4314 52.8712 53.6094 50.9033 50.9374L47.2728 46.1007L50.6318 36.1906C52.498 30.7451 53.9569 26.2466 53.923 26.2128C53.8891 26.179 53.1087 26.3819 52.2265 26.6863C51.3443 26.9907 46.8656 28.5127 42.2851 30.0348L33.9384 32.8421L27.1185 27.7686C23.3862 24.9613 19.5522 22.1202 18.6021 21.4437L16.9057 20.1923L17.0074 27.0245Z" fill="#1D547D"/>
<path d="M71.8099 32.9774L69.1294 34.9391L65.974 33.8906C64.2435 33.3156 62.7846 32.8421 62.7167 32.8421C62.6488 32.8421 63.0899 34.2965 63.7007 36.0553L64.7864 39.2684L62.7506 41.9405L60.7148 44.6463L64.1417 44.6801L67.5686 44.7139L69.5026 47.4536C70.5545 48.9418 71.4706 50.1594 71.5045 50.1256C71.5384 50.0918 72.0134 48.6374 72.5563 46.9124C73.0992 45.1875 73.5742 43.7669 73.6081 43.7331C73.6421 43.7331 75.0671 43.2596 76.7975 42.7184C78.494 42.1772 79.953 41.7037 79.9869 41.6699C80.0209 41.636 79.9869 41.5346 79.8512 41.4669C79.7155 41.3993 78.494 40.5199 77.1029 39.5728L74.5921 37.7802V34.3979C74.5921 32.5377 74.5582 31.0156 74.5242 31.0156C74.4903 31.0156 73.3028 31.895 71.8099 32.9774Z" fill="#1D547D"/>
</svg>
