<svg width="80" height="80" viewBox="0 0 80 80" fill="none" xmlns="http://www.w3.org/2000/svg">
<path d="M3.125 30.25V58.0312H40H76.875V30.25V2.5H40H3.125V30.25ZM42.1562 21.9062C50.5312 26.6875 57.4688 30.6875 57.5938 30.75C57.75 30.9062 47.6875 36.75 29.5625 47.0312L26.8125 48.5938V30.9062C26.8125 21.1875 26.8438 13.2188 26.875 13.2188C26.875 13.2188 33.7812 17.125 42.1562 21.9062Z" fill="white"/>
<path d="M21.625 61.75C20.6875 62 20.0625 62.4063 19.5312 63.0625C19.0938 63.5938 19.0625 63.75 19.0312 64.9375L18.9688 66.25H11.0312H3.125V69.5625V72.875H11.0312H18.9375L19 74.1875C19.0312 75.4063 19.0938 75.5313 19.5 76.0625C20.75 77.6563 23.5938 78 25.4062 76.8125C26.375 76.1563 26.7812 75.3438 26.7812 73.9688V72.9063H51.8438H76.875V69.5938V66.25H51.8125H26.7812V65.1875C26.7812 63.4688 26.1875 62.5625 24.6562 61.9375C23.9062 61.5938 22.4375 61.5 21.625 61.75Z" fill="white"/>
</svg>
