<svg width="24" height="24" viewBox="0 0 24 24" fill="none" xmlns="http://www.w3.org/2000/svg">
<path d="M4.91395 19.2911L10.3162 16.962L6.99958 13.6567L4.91395 19.2911ZM20.9682 6.40512L17.5396 2.8353L7.62018 12.7413L11.181 16.4739L20.9682 6.40512ZM23.7965 2.13353C23.7965 2.13353 22.8911 1.11649 21.8432 0.343535C20.7953 -0.429419 19.9915 0.343535 19.9915 0.343535L18.2315 2.13353L21.8228 5.74404C21.8228 5.74404 23.3387 4.19814 23.7965 3.66927C24.2543 3.14041 23.7965 2.13353 23.7965 2.13353ZM19.9712 19.9623C19.9712 21.3048 19.2997 21.6201 18.323 21.6201H4.00848C2.76727 21.6201 2.36032 21.0099 2.36032 19.9623V5.58132C2.36032 3.95405 3.10301 3.92353 4.00848 3.92353H13.4396L15.6575 1.54365H2.94023C1.02755 1.54365 0 3.26245 0 4.49308V21.0506C0 22.6473 1.25138 24 2.94023 24H19.4116C20.958 24 22.3518 22.149 22.3518 21.0506V8.19512L19.9813 10.4225V19.9623H19.9712Z" fill="#10069F"/>
</svg>
