<svg width="21" height="20" viewBox="0 0 21 20" fill="none" xmlns="http://www.w3.org/2000/svg">
<path d="M9.96875 5.19531V6.21875H10.5078H11.0469V5.60938C11.0469 5.27344 11.0547 4.8125 11.0703 4.58594L11.0938 4.17188H10.5312H9.96094V5.19531H9.96875Z" fill="#10069F"/>
<path d="M6.12507 4.92964C5.85163 5.02339 5.61726 5.10933 5.61726 5.10933C5.60944 5.12495 6.26569 7.0312 6.28132 7.06245C6.29694 7.07808 7.24226 6.74995 7.28132 6.7187C7.31257 6.69526 6.71101 4.85151 6.65632 4.78901C6.64069 4.77339 6.40632 4.83589 6.12507 4.92964Z" fill="#10069F"/>
<path d="M14.0555 5.78906C13.7743 6.28906 13.5633 6.71094 13.5789 6.71094C13.5946 6.71875 13.8133 6.83594 14.0555 6.96875C14.2977 7.10937 14.5086 7.20312 14.5243 7.19531C14.5946 7.125 15.5086 5.42969 15.4852 5.40625C15.4696 5.39062 15.2508 5.26562 15.0086 5.125L14.5555 4.875L14.0555 5.78906Z" fill="#10069F"/>
<path d="M9.8125 7.05463C7.98437 7.21088 6.59375 7.67963 5.25 8.57806C4.30469 9.21088 3.32813 10.2265 2.78125 11.1328L2.59375 11.4374L2.69531 11.6171C3.125 12.3593 3.92969 13.2656 4.69531 13.8749C6.01562 14.9218 7.53125 15.5546 9.25 15.7656C9.83594 15.8359 10.9922 15.8437 11.5625 15.7812C14.2344 15.4843 16.6719 14.0078 18.1406 11.789L18.3672 11.4453L18.2422 11.2187C18.0781 10.914 17.6016 10.2734 17.2734 9.914C15.8672 8.37494 14.0937 7.44525 11.9766 7.13275C11.4766 7.07025 10.2266 7.01556 9.8125 7.05463ZM11.4297 7.99213C12.6484 8.34369 13.6172 9.32806 13.9453 10.539C14.0703 11.0078 14.0703 11.8906 13.9453 12.3281C13.7578 12.9843 13.4922 13.4609 13.0547 13.9062C12.6016 14.3828 12.0078 14.7343 11.375 14.8984C10.9297 15.0234 10.0391 15.0234 9.60156 14.9062C8.95312 14.7265 8.36719 14.3749 7.89844 13.8906C7.40625 13.3671 7.07031 12.6953 6.95312 11.9999C6.89062 11.6093 6.92188 10.9218 7.02344 10.5234C7.35938 9.24994 8.42969 8.23431 9.75 7.94525C10.1484 7.8515 11.0391 7.87494 11.4297 7.99213Z" fill="#10069F"/>
<path d="M10.0938 9.59375C9.76563 9.66406 9.48438 9.82031 9.21875 10.0703C8.8125 10.4531 8.64062 10.8516 8.64062 11.4062C8.64062 12.1797 9.01563 12.7812 9.71875 13.1172C10.0156 13.2578 10.0234 13.2578 10.5 13.2578C10.9766 13.2578 10.9844 13.2578 11.2813 13.1172C11.8906 12.8281 12.25 12.3359 12.3516 11.6641C12.3906 11.4219 12.3594 10.9453 12.2891 10.8359C12.2812 10.8203 12.1953 10.8437 12.1094 10.8906C12.0078 10.9375 11.8438 10.9766 11.6719 10.9922L11.3984 11.0078V11.1875C11.3906 11.6719 11.0469 12.0156 10.5547 12.0156C9.99219 12.0156 9.625 11.5391 9.74219 10.9453C9.78906 10.6719 10.1953 10.3438 10.4688 10.3359C10.5625 10.3359 10.5703 10.3281 10.5469 10.25C10.5313 10.2031 10.5156 10.0234 10.5234 9.84375C10.5234 9.53125 10.5234 9.53125 10.4297 9.53125C10.375 9.53906 10.2266 9.5625 10.0938 9.59375Z" fill="#10069F"/>
<path d="M1.65625 7.70312L1.28125 8.09375L2.02344 8.79687C2.42969 9.17969 2.77344 9.49219 2.78906 9.49219C2.82812 9.49219 3.52344 8.77344 3.52344 8.73438C3.52344 8.70313 2.41406 7.625 2.13281 7.39062L2.03906 7.3125L1.65625 7.70312Z" fill="#10069F"/>
<path d="M18.1953 8.03906L17.4531 8.73438L17.8203 9.13281C18.0234 9.35156 18.2031 9.52344 18.2188 9.52344C18.2344 9.51562 18.5781 9.20312 18.9766 8.82031L19.7109 8.125L19.3594 7.74219C19.1641 7.53125 18.9844 7.35156 18.9687 7.34375C18.9531 7.34375 18.6016 7.65625 18.1953 8.03906Z" fill="#10069F"/>
</svg>
