<svg width="16" height="16" viewBox="0 0 16 16" fill="none" xmlns="http://www.w3.org/2000/svg">
<path d="M7.57656 4.15627V4.97502H8.00781H8.43906V4.48752C8.43906 4.21877 8.44531 3.85002 8.45781 3.66877L8.47656 3.33752H8.02656H7.57031V4.15627H7.57656Z" fill="#1D547D"/>
<path d="M4.50006 3.94376C4.28131 4.01876 4.09381 4.08751 4.09381 4.08751C4.08756 4.10001 4.61256 5.62501 4.62506 5.65001C4.63756 5.66251 5.39381 5.40001 5.42506 5.37501C5.45006 5.35626 4.96881 3.88126 4.92506 3.83126C4.91256 3.81876 4.72506 3.86876 4.50006 3.94376Z" fill="#1D547D"/>
<path d="M10.8428 4.63127C10.6178 5.03127 10.4491 5.36877 10.4616 5.36877C10.4741 5.37502 10.6491 5.46877 10.8428 5.57502C11.0366 5.68752 11.2053 5.76252 11.2178 5.75627C11.2741 5.70002 12.0053 4.34377 11.9866 4.32502C11.9741 4.31252 11.7991 4.21252 11.6053 4.10002L11.2428 3.90002L10.8428 4.63127Z" fill="#1D547D"/>
<path d="M7.45078 5.6438C5.98828 5.7688 4.87578 6.1438 3.80078 6.86255C3.04453 7.3688 2.26328 8.1813 1.82578 8.9063L1.67578 9.15005L1.75703 9.2938C2.10078 9.88755 2.74453 10.6125 3.35703 11.1C4.41328 11.9375 5.62578 12.4438 7.00078 12.6125C7.46953 12.6688 8.39453 12.675 8.85078 12.625C10.9883 12.3875 12.9383 11.2063 14.1133 9.4313L14.2945 9.1563L14.1945 8.97505C14.0633 8.7313 13.682 8.2188 13.4195 7.9313C12.2945 6.70005 10.8758 5.9563 9.18203 5.7063C8.78203 5.6563 7.78203 5.61255 7.45078 5.6438ZM8.74453 6.3938C9.71953 6.67505 10.4945 7.46255 10.757 8.4313C10.857 8.8063 10.857 9.51255 10.757 9.86255C10.607 10.3875 10.3945 10.7688 10.0445 11.125C9.68203 11.5063 9.20703 11.7875 8.70078 11.9188C8.34453 12.0188 7.63203 12.0188 7.28203 11.925C6.76328 11.7813 6.29453 11.5 5.91953 11.1125C5.52578 10.6938 5.25703 10.1563 5.16328 9.60005C5.11328 9.28755 5.13828 8.73755 5.21953 8.4188C5.48828 7.40005 6.34453 6.58755 7.40078 6.3563C7.71953 6.2813 8.43203 6.30005 8.74453 6.3938Z" fill="#1D547D"/>
<path d="M7.67422 7.675C7.41172 7.73125 7.18672 7.85625 6.97422 8.05625C6.64922 8.3625 6.51172 8.68125 6.51172 9.125C6.51172 9.74375 6.81172 10.225 7.37422 10.4937C7.61172 10.6062 7.61797 10.6062 7.99922 10.6062C8.38047 10.6062 8.38672 10.6062 8.62422 10.4937C9.11172 10.2625 9.39922 9.86875 9.48047 9.33125C9.51172 9.1375 9.48672 8.75625 9.43047 8.66875C9.42422 8.65625 9.35547 8.675 9.28672 8.7125C9.20547 8.75 9.07422 8.78125 8.93672 8.79375L8.71797 8.80625V8.95C8.71172 9.3375 8.43672 9.6125 8.04297 9.6125C7.59297 9.6125 7.29922 9.23125 7.39297 8.75625C7.43047 8.5375 7.75547 8.275 7.97422 8.26875C8.04922 8.26875 8.05547 8.2625 8.03672 8.2C8.02422 8.1625 8.01172 8.01875 8.01797 7.875C8.01797 7.625 8.01797 7.625 7.94297 7.625C7.89922 7.63125 7.78047 7.65 7.67422 7.675Z" fill="#1D547D"/>
<path d="M0.925 6.16248L0.625 6.47498L1.21875 7.03748C1.54375 7.34373 1.81875 7.59373 1.83125 7.59373C1.8625 7.59373 2.41875 7.01873 2.41875 6.98748C2.41875 6.96248 1.53125 6.09998 1.30625 5.91248L1.23125 5.84998L0.925 6.16248Z" fill="#1D547D"/>
<path d="M14.1562 6.43125L13.5625 6.9875L13.8562 7.30625C14.0187 7.48125 14.1625 7.61875 14.175 7.61875C14.1875 7.6125 14.4625 7.3625 14.7812 7.05625L15.3687 6.5L15.0875 6.19375C14.9312 6.025 14.7875 5.88125 14.775 5.875C14.7625 5.875 14.4812 6.125 14.1562 6.43125Z" fill="#1D547D"/>
</svg>
