<svg width="24" height="24" viewBox="0 0 24 24" fill="none" xmlns="http://www.w3.org/2000/svg">
<path d="M3.63858 12.8596C3.03916 9.26588 5.10158 5.62363 8.7997 4.25415C11.5327 3.23432 14.4891 3.71995 16.5719 5.17685L14.7939 7.92554L22.7591 7.8964L19.9144 0L18.4514 2.26305C15.373 0.359369 11.1771 -0.262242 7.50942 1.10724C2.41942 3.00121 -0.506569 7.90611 0.0725328 12.8596H3.63858ZM20.3411 10.8976C20.9405 14.4913 18.8781 18.1335 15.1901 19.503C12.6705 20.4452 9.89695 20.0858 7.77357 18.8231C8.17996 18.1918 9.3788 16.3367 9.3788 16.3367L0.81419 15.8608L4.4412 24L5.96515 21.6495C9.04353 23.5532 12.8128 24.0389 16.4906 22.6694C21.5806 20.7754 24.5066 15.8705 23.9275 10.9073L20.3411 10.8976Z" fill="#10069F"/>
</svg>
