<svg width="20" height="20" viewBox="0 0 20 20" fill="none" xmlns="http://www.w3.org/2000/svg">
<g clip-path="url(#clip0_959_836)">
<path d="M0.667969 8.1333V20H19.3346V8.1333H0.667969ZM10.0013 9.3333C10.3515 9.3333 10.6982 9.40228 11.0218 9.53629C11.3453 9.6703 11.6393 9.86673 11.8869 10.1143C12.1345 10.362 12.331 10.6559 12.465 10.9795C12.599 11.303 12.668 11.6498 12.668 12C12.687 12.466 12.5714 12.9276 12.3349 13.3296C12.0985 13.7316 11.7512 14.0569 11.3346 14.2666V17.6H8.66796V14.1333C8.26337 13.9092 7.92626 13.5807 7.69176 13.182C7.45725 12.7834 7.33393 12.3291 7.33463 11.8666C7.36887 11.1828 7.66486 10.5382 8.1613 10.0666C8.65773 9.59502 9.31656 9.33244 10.0013 9.3333Z" fill="#3D4D66"/>
<path d="M10.0005 1.45574e-05C8.37924 0.0173559 6.82925 0.669112 5.68277 1.8156C4.53628 2.96208 3.88453 4.51206 3.86719 6.13334V13.7333C3.88453 15.3546 4.53628 16.9046 5.68277 18.0511C6.82925 19.1976 8.37924 19.8493 10.0005 19.8667C11.6218 19.8493 13.1718 19.1976 14.3183 18.0511C15.4647 16.9046 16.1165 15.3546 16.1338 13.7333V6.13334C16.1356 5.32741 15.9782 4.52907 15.6706 3.78414C15.3629 3.03922 14.9112 2.36239 14.3414 1.79251C13.7715 1.22262 13.0946 0.770912 12.3497 0.463306C11.6048 0.1557 10.8065 -0.00174321 10.0005 1.45574e-05ZM13.4672 13.8667C13.4586 14.5491 13.2526 15.2145 12.874 15.7824C12.4955 16.3502 11.9605 16.7963 11.3338 17.0667V17.7333H8.66718V17.0667C8.04052 16.7963 7.50558 16.3502 7.127 15.7824C6.74842 15.2145 6.5424 14.5491 6.53385 13.8667V6.26668C6.55094 5.35261 6.92167 4.48074 7.56812 3.83428C8.21458 3.18783 9.08645 2.8171 10.0005 2.80001C10.4568 2.79646 10.9091 2.88371 11.3313 3.05666C11.7535 3.22962 12.1371 3.48484 12.4597 3.80746C12.7824 4.13008 13.0376 4.51365 13.2105 4.93585C13.3835 5.35805 13.4707 5.81044 13.4672 6.26668V13.8667Z" fill="#3D4D66"/>
</g>
<defs>
<clipPath id="clip0_959_836">
<rect width="20" height="20" fill="white"/>
</clipPath>
</defs>
</svg>
