<svg width="24" height="24" viewBox="0 0 24 24" fill="none" xmlns="http://www.w3.org/2000/svg">
<path d="M18.9084 0.0403161C17.3132 0.375772 16.1389 1.38214 15.6736 2.79512C15.585 3.08992 15.5629 3.26273 15.5518 3.92347V4.7062L12.5385 6.12935C10.8768 6.91208 9.03787 7.7863 8.45074 8.06076L7.37616 8.56903L7.0549 8.29456C6.25728 7.61349 5.18271 7.27803 4.01951 7.32886C3.33267 7.35935 2.9671 7.45084 2.3578 7.71514C1.50479 8.10142 0.851187 8.69101 0.430221 9.48391C0.142191 10.0227 0.0424886 10.3581 0.00925445 10.9477C-0.156916 13.2959 1.93684 15.2172 4.50695 15.0748C5.35996 15.024 6.09111 14.78 6.80011 14.3023C7.13245 14.0786 7.13245 14.0685 7.27646 14.1498C7.39832 14.221 15.5185 18.8767 15.6404 18.958C15.6626 18.9682 15.6515 19.1613 15.5961 19.3849C15.5296 19.6899 15.5185 19.9237 15.5407 20.31C15.5739 20.9504 15.6736 21.2757 15.9617 21.845C16.3826 22.6277 17.0362 23.2376 17.8892 23.6137C18.5982 23.9288 18.9084 23.9898 19.7614 24C20.5923 24 20.9246 23.939 21.545 23.6645C22.6307 23.1969 23.395 22.404 23.7938 21.357C23.9379 20.9707 23.96 20.8284 23.9822 20.31C23.9933 19.8932 23.9822 19.6187 23.9268 19.3748C23.5723 17.8296 22.2651 16.6403 20.5701 16.3252C20.0495 16.2337 19.1632 16.254 18.6647 16.376C18.2327 16.4878 17.5791 16.7826 17.2024 17.0367C17.0362 17.1587 16.8701 17.2604 16.859 17.2604C16.8368 17.2604 8.40642 12.4319 8.3178 12.3709C8.3178 12.3709 8.33996 12.2184 8.39535 12.0354C8.46181 11.7914 8.47289 11.5373 8.46181 11.0392L8.45074 10.3785L11.4086 8.97564C13.0371 8.20308 14.876 7.33902 15.4964 7.04423L16.6153 6.51563L17.003 6.82059C17.9003 7.51183 18.9195 7.82696 20.0495 7.7558C21.833 7.65415 23.2953 6.58679 23.8492 4.98067C24.0154 4.51306 24.0486 3.58802 23.9268 3.07975C23.7385 2.27669 23.3286 1.61594 22.686 1.06701C22.2208 0.660401 21.7333 0.385937 21.0908 0.192796C20.6588 0.0504815 20.5258 0.0403161 19.9055 0.0301508C19.4513 -0.0206759 19.0857 -0.000345185 18.9084 0.0403161Z" fill="#10069F"/>
</svg>
