<svg width="24" height="24" viewBox="0 0 24 24" fill="none" xmlns="http://www.w3.org/2000/svg">
<path d="M14.2463 6V0H4.50391V10.2907H19.5039V6H14.2463Z" fill="#10069F"/>
<path d="M19.5051 5.15116H15V0L19.5051 5.15116Z" fill="#10069F"/>
<path d="M13.2297 16.7209C12.8738 16.3023 12.3653 16.1163 11.8569 16.1163H10.7891V20.4651H11.8569C12.9348 20.4651 13.7586 19.5581 13.7586 18.3139V18.2907C13.7484 17.7093 13.5857 17.1395 13.2297 16.7209C13.3925 16.9186 13.0569 16.5349 13.2297 16.7209Z" fill="#10069F"/>
<path d="M5.77483 16.1163H4.70703V18.3256H5.80534C6.37483 18.3256 6.90364 17.9419 6.90364 17.2326V17.2093C6.90364 16.4535 6.37483 16.1163 5.77483 16.1163Z" fill="#10069F"/>
<path d="M0 12V24H24V12H0ZM8.30847 17.1977C8.30847 18.8488 7.0983 19.7326 5.7661 19.7326H4.70847V21.8837H3.32542V14.686H5.8983C7.2 14.686 8.30847 15.6047 8.30847 17.1744V17.1977ZM15.2034 18.2907C15.2034 20.4186 13.6475 21.8953 11.8576 21.8953H9.39661V14.6977H11.8576C13.6475 14.6977 15.2034 16.1512 15.2034 18.2791V18.2907ZM21.2949 16.1163H17.8881V17.6744H20.8881V19.1047H17.8881V21.8953H16.5051V14.6977H21.3051V16.1163H21.2949Z" fill="#10069F"/>
</svg>
