<svg width="16" height="16" viewBox="0 0 16 16" fill="none" xmlns="http://www.w3.org/2000/svg">
<path d="M5.79271 2.18123C5.63021 2.24998 5.63646 2.14373 5.63646 4.54998V6.76248H4.84271C4.18646 6.76248 4.03021 6.76873 3.96146 6.80623C3.86771 6.84998 3.83021 6.95623 3.85521 7.05623C3.86146 7.09373 4.77396 8.02498 5.88021 9.13123C7.76771 11.0125 7.89896 11.1375 7.99271 11.1375C8.08646 11.1375 8.21146 11.0125 10.1052 9.12498C11.2115 8.01873 12.124 7.08748 12.1302 7.04998C12.1615 6.94373 12.1177 6.84373 12.024 6.79998C11.9552 6.76248 11.799 6.75623 11.1427 6.75623H10.349V4.54998V2.33123L10.2802 2.24998L10.2115 2.16873L8.02396 2.16248C6.83646 2.16248 5.82396 2.16873 5.79271 2.18123Z" fill="#1D547D"/>
<path d="M0.7 9.2L0.625 9.26875V11.475V13.6812L0.69375 13.7625L0.7625 13.8438H8H15.2375L15.3062 13.7625L15.375 13.6812V11.475V9.26875L15.3 9.2L15.2312 9.125H14.45H13.6687L13.6 9.2L13.525 9.26875V10.6375V12.0063H8H2.46875V10.6375V9.26875L2.39375 9.2L2.325 9.125H1.55H0.76875L0.7 9.2Z" fill="#1D547D"/>
</svg>
