<svg width="20" height="20" viewBox="0 0 20 20" fill="none" xmlns="http://www.w3.org/2000/svg">
<path d="M7.39192 0.843748C7.0013 0.97656 6.71224 1.25781 6.55599 1.65625C6.49349 1.82031 6.47005 1.99218 6.45442 2.49218L6.4388 3.11719H4.72005C2.80599 3.11719 2.77474 3.125 2.49349 3.39062C2.04817 3.82812 2.14974 4.5625 2.70442 4.85156C2.89974 4.95312 2.97005 4.96875 3.30599 4.96875H3.6888L3.69661 11.8203C3.71224 18.1094 3.71224 18.6797 3.78255 18.7969C3.8763 18.9687 4.00911 19.0859 4.19661 19.1641C4.32942 19.2187 4.99349 19.2266 10.0091 19.2266C15.4154 19.2266 15.681 19.2187 15.8372 19.1484C16.0404 19.0547 16.2122 18.8672 16.2669 18.6562C16.2904 18.5547 16.306 16.2656 16.306 11.7344V4.96094H16.6888C17.0325 4.96094 17.1029 4.94531 17.2904 4.84375C17.6107 4.67187 17.7513 4.46094 17.7747 4.10156C17.7982 3.78906 17.72 3.59375 17.5091 3.38281C17.2513 3.125 17.3138 3.13281 15.3529 3.11719L13.556 3.10156L13.5404 2.45312C13.5247 1.8125 13.5169 1.79687 13.3919 1.53125C13.2435 1.23437 13.0325 1.02344 12.7279 0.874998L12.5404 0.781248H10.0638C7.88411 0.773435 7.55599 0.781248 7.39192 0.843748ZM12.2747 2.05468C12.306 2.08593 12.3216 2.27344 12.3216 2.60937V3.11719H10.0013H7.68099V2.64062C7.68099 2.38281 7.70442 2.13281 7.72005 2.08594C7.75911 2.01562 7.82942 2.00781 9.99349 2.00781C11.6732 2.00781 12.2357 2.01562 12.2747 2.05468ZM14.7513 11.3281V17.6953H10.0013H5.25911V11.3281V4.96094H10.0013H14.7435V11.3281H14.7513Z" fill="#10069F"/>
<path d="M6.85941 6.99997C6.64847 7.14841 6.64847 7.03122 6.64847 11.4531C6.64847 15.875 6.64066 15.7578 6.85941 15.9062C6.98441 15.9922 7.26566 15.9922 7.38285 15.9062C7.6016 15.75 7.59378 15.9453 7.59378 11.4531C7.59378 6.96091 7.6016 7.15622 7.38285 6.99997C7.26566 6.91404 6.98441 6.92185 6.85941 6.99997Z" fill="#10069F"/>
<path d="M9.74222 6.99997C9.53128 7.14841 9.53128 7.03122 9.53128 11.4531C9.53128 15.875 9.52347 15.7578 9.74222 15.9062C9.86722 15.9922 10.1485 15.9922 10.2657 15.9062C10.4844 15.75 10.4766 15.9453 10.4766 11.4531C10.4766 6.96091 10.4844 7.15622 10.2657 6.99997C10.1407 6.91404 9.85941 6.92185 9.74222 6.99997Z" fill="#10069F"/>
<path d="M12.6172 7.00002C12.4063 7.14846 12.4063 7.03127 12.4063 11.4531C12.4063 15.875 12.3985 15.7578 12.6172 15.9063C12.7813 16.0156 13.0391 15.9922 13.1953 15.8516L13.3282 15.7344V11.4531V7.1719L13.1953 7.05471C13.0391 6.91409 12.7735 6.89065 12.6172 7.00002Z" fill="#10069F"/>
</svg>
