<svg width="21" height="17" viewBox="0 0 21 17" fill="none" xmlns="http://www.w3.org/2000/svg">
<path d="M7.44595 0.269198C7.22561 0.362419 7.23409 0.218351 7.23409 3.48106V6.48106H6.15782C5.26798 6.48106 5.05612 6.48954 4.9629 6.54038C4.83578 6.59971 4.78493 6.74377 4.81883 6.87937C4.82731 6.93021 6.06459 8.19293 7.56459 9.69293C10.1239 12.2438 10.3019 12.4133 10.429 12.4133C10.5561 12.4133 10.7256 12.2438 13.2934 9.68445C14.7934 8.18445 16.0307 6.92174 16.0392 6.87089C16.0815 6.72683 16.0222 6.59123 15.8951 6.53191C15.8019 6.48106 15.59 6.47259 14.7002 6.47259H13.6239V3.48106V0.472588L13.5307 0.362419L13.4375 0.252249L10.4714 0.243774C8.8612 0.243774 7.48832 0.252249 7.44595 0.269198Z" fill="#10069F"/>
<path d="M0.539195 9.78614L0.4375 9.87936V12.8709V15.8624L0.53072 15.9726L0.623941 16.0828H10.4375H20.2511L20.3443 15.9726L20.4375 15.8624V12.8709V9.87936L20.3358 9.78614L20.2426 9.68445H19.1833H18.1239L18.0307 9.78614L17.929 9.87936V11.7353V13.5912H10.4375H2.9375V11.7353V9.87936L2.83581 9.78614L2.74258 9.68445H1.69174H0.632415L0.539195 9.78614Z" fill="#10069F"/>
</svg>
