<svg width="21" height="24" viewBox="0 0 21 24" fill="none" xmlns="http://www.w3.org/2000/svg">
<path d="M10.1549 5.78794C9.89939 4.39528 10.5579 2.96208 11.3509 1.99622C12.2249 0.930515 13.7248 0.11325 15.0065 0.0234375C15.223 1.48355 14.6272 2.90616 13.8428 3.91242C13.0014 4.99345 11.5547 5.83177 10.1549 5.78794ZM17.6731 10.8343C18.0697 9.72773 18.8555 8.73215 20.0744 8.06044C18.8426 6.52331 17.1132 5.63091 15.4811 5.63091C13.3218 5.63091 12.4088 6.65967 10.909 6.65967C9.36403 6.65967 8.19192 5.63091 6.32156 5.63091C4.48749 5.63091 2.53519 6.74878 1.29703 8.65795C0.841783 9.36366 0.533392 10.2404 0.365205 11.2169C-0.101483 13.9562 0.595642 17.5242 2.67516 20.6924C3.68625 22.2297 5.03395 23.9613 6.79458 23.9764C8.36297 23.9917 8.80791 22.9736 10.9311 22.9631C13.0575 22.951 13.4604 23.9869 15.0267 23.972C16.7878 23.9571 18.2098 22.0408 19.2209 20.5036C19.9408 19.4006 20.2131 18.8434 20.7729 17.5963C17.9263 16.5228 16.7556 13.3861 17.6731 10.8343Z" fill="black"/>
</svg>
