<svg width="1283" height="80" viewBox="0 0 1283 80" fill="none" xmlns="http://www.w3.org/2000/svg">
<g clip-path="url(#clip0_109_3025)">
<rect width="80" height="80" fill="#1C5540"/>
<path d="M28.6805 80.3287C28.4422 80.0227 28.2449 79.6055 28.1057 79.1131V75.7663C28.0095 75.6023 27.9209 75.4215 27.8409 75.2263C27.792 75.0895 27.7654 74.9263 27.765 74.7583C27.7646 74.5907 27.7903 74.4263 27.8386 74.2887C27.9271 74.0427 28.023 73.8075 28.1258 73.5847V72.4307C27.9907 71.9539 27.8734 71.4575 27.775 70.9463L28.1216 70.1827V69.5263C28.2031 69.3807 28.2928 69.2547 28.3889 69.1503C28.4882 69.0663 28.6156 69.1091 28.7073 69.0099C28.8013 68.8727 28.8853 68.7099 28.9568 68.5263C29.1821 68.4367 29.4123 68.4067 29.6416 68.4359C29.765 68.4407 29.8911 68.4459 30.0208 68.4359C30.2276 68.2071 30.3659 67.5427 30.7253 67.7631C30.8908 67.4483 31.0543 67.1343 31.2122 66.8319C31.332 66.4443 31.2122 65.8835 31.4736 65.6323H32.8516C32.982 65.8775 33.1074 66.1115 33.2365 66.3519H34.268C34.5642 66.9459 34.8485 67.5283 35.142 68.0915C35.2269 68.2279 35.3192 68.3447 35.417 68.4403H35.9713C36.0825 68.6287 36.2096 68.8467 36.3655 69.1107H37.0178C37.1518 69.3507 37.2785 69.5759 37.4175 69.8287H38.0915C38.2199 70.0715 38.3463 70.3079 38.4727 70.5443C38.8179 70.5443 39.1679 70.5331 39.5151 70.5555C39.5579 70.5555 39.6087 70.6955 39.6355 70.7919C39.6415 70.8315 39.6435 70.8739 39.6403 70.9151C39.6375 70.9567 39.6299 70.9959 39.6183 71.0307C39.5423 71.2087 39.4563 71.3647 39.3575 71.5639V72.9327C39.1743 73.4059 38.9471 73.8043 38.6883 74.1059H38.0875C37.8559 74.5683 37.6502 74.9827 37.4288 75.4263H36.4102C36.2762 75.6639 36.1501 75.8923 36.0068 76.1443H35.3356C35.2065 76.3875 35.0824 76.6211 34.9534 76.8627H34.6162C34.4878 77.1055 34.363 77.3419 34.2356 77.5779H32.5101C32.3721 77.8283 32.2453 78.0571 32.1146 78.2935H30.7409C30.3987 78.9775 30.0704 79.6359 29.721 80.3327L28.6805 80.3287ZM50.0187 71.2251C49.8455 70.8747 49.6799 70.5447 49.5095 70.2043V66.0023C49.6175 65.7659 49.7315 65.5131 49.8407 65.2759C49.7335 65.0303 49.6263 64.7895 49.5279 64.5635C49.6503 64.2751 49.7595 64.0199 49.8503 63.8047C49.8803 62.8143 49.8039 61.8843 49.8711 61.2115L50.3559 60.0199C50.8683 59.9847 50.8719 59.9799 50.9071 59.0215C50.8011 58.7851 50.6863 58.5323 50.5671 58.2639C50.5671 58.1571 50.5631 58.0507 50.5539 57.9455C50.5339 57.8339 50.5339 57.7115 50.5551 57.6003C50.5759 57.4887 50.6159 57.3963 50.6683 57.3391C50.7483 57.2415 50.8199 57.3491 50.9191 57.5719C51.0723 57.9227 51.2459 58.2367 51.4111 58.5699C51.4775 58.4203 51.5927 58.2803 51.5999 58.1159C51.6367 57.4339 51.6371 56.7415 51.6631 56.0599C51.6667 55.9667 51.7403 55.8911 51.7823 55.8055H52.1343C52.4627 56.4615 52.7915 57.1259 53.1251 57.7807C53.1463 57.8203 53.2051 57.7859 53.2475 57.7859C53.4531 57.3747 53.6591 56.9623 53.8763 56.5263H54.5583C54.6907 56.2823 54.8159 56.0483 54.9447 55.8055H55.3939C55.5615 56.2307 55.7751 56.7799 55.9595 57.2503H56.6875L57.0875 57.9039C57.2175 57.9183 57.3483 57.9195 57.4787 57.9079C57.7059 57.8667 57.9355 57.9087 58.1555 58.0327C58.2375 58.1983 58.3207 58.3627 58.4235 58.5699H59.5251C59.7079 59.0419 59.9223 59.5879 60.0899 60.0175C60.4287 60.0175 60.6627 60.0175 60.8895 60.0175C61.0179 60.2591 61.1339 60.6603 61.2651 60.6903C61.7339 60.8003 61.7395 60.7611 61.7727 61.7155C61.6659 61.9543 61.5511 62.2099 61.4263 62.4843V63.8883C61.1391 64.4371 60.8435 64.9967 60.5287 65.5967L60.2119 65.6363C60.0935 65.8587 59.9671 66.0943 59.8375 66.3359H59.5327C59.0839 66.9763 58.8175 67.9203 58.3743 68.4423C57.3627 68.4423 56.3699 68.4427 55.3783 68.4487C55.3251 68.4699 55.2743 68.5087 55.2279 68.5631C55.1447 68.7291 55.0623 68.8931 54.9803 69.0611C54.6791 69.1575 54.3731 69.1835 54.0687 69.1383C53.7583 69.0863 53.4459 69.1191 53.1399 69.2359L52.8463 69.8255H52.1659C52.0335 70.0691 51.9087 70.3047 51.7783 70.5455H51.4415C51.3119 70.7911 51.1863 71.0247 51.0775 71.2315L50.0187 71.2251ZM0.25541 62.0803C0.120058 61.8439 -0.00703812 61.6183 -0.13511 61.3947C-0.294762 61.3007 -0.46411 61.2935 -0.625538 61.3747C-0.742118 61.4547 -0.867458 61.4695 -0.987942 61.4171C-1.10843 61.3651 -1.21946 61.2483 -1.30894 61.0791V59.7131C-1.43172 59.4447 -1.54854 59.1915 -1.669 58.9311V57.5727C-1.78582 57.3087 -1.89305 57.0663 -1.99994 56.8247C-1.7802 56.3891 -1.57236 55.9767 -1.37115 55.5547C-1.35262 55.5179 -1.37844 55.3923 -1.38307 55.3019C-1.48752 55.1823 -1.56993 54.9987 -1.61818 54.7787C-1.66644 54.5583 -1.67798 54.3131 -1.65111 54.0787C-1.55911 53.8711 -1.44496 53.6167 -1.32781 53.3567C-1.43701 53.1203 -1.55019 52.8699 -1.65874 52.6303V50.5355C-1.36752 49.9519 -1.07829 49.3703 -0.78773 48.7895H2.36149C2.48561 49.0211 2.61297 49.2555 2.74337 49.5003H5.86809C6.00709 49.7507 6.13281 49.9795 6.26517 50.2183H11.1263C11.2789 50.4827 11.407 50.7003 11.5473 50.9391H12.2045L12.8468 52.2259C13.0458 52.2599 13.2319 52.4355 13.3714 52.7203C13.1653 53.1327 12.9593 53.5459 12.7532 53.9607C12.7115 54.2775 12.6702 54.5931 12.6208 54.9639C12.4633 55.2279 12.2876 55.5143 12.1138 55.8055C11.8451 55.7023 11.721 56.1771 11.5278 56.3655C11.2838 56.6015 10.9807 56.6015 10.8139 57.1387C10.6717 57.1275 10.5305 57.1915 10.4048 57.3243C10.279 57.4571 10.1732 57.6543 10.0981 57.8955H9.05137C8.92097 58.1403 8.79489 58.3767 8.66581 58.6159H8.33189L7.95561 59.3127C7.82721 59.3283 7.71369 59.3475 7.60117 59.3635C7.14681 60.2699 6.69309 61.1795 6.23177 62.1047H3.42545C3.31357 61.8943 3.18813 61.6615 3.05909 61.4211H0.96891C0.839846 61.6615 0.714418 61.8943 0.593298 62.1227C0.470186 62.1071 0.356346 62.0967 0.25541 62.0803ZM70.0247 57.9103C69.8099 57.5019 69.6419 57.1807 69.4823 56.8731V51.0523C69.6971 50.7071 69.9679 50.2771 70.1999 49.9083V47.7695C70.3323 47.4179 70.4803 47.1751 70.5207 46.8703C70.5631 46.5403 70.5499 46.1991 70.7115 45.9783C70.9983 45.9783 70.9983 45.9779 71.1787 45.7363C71.3195 45.2083 71.1371 44.5959 71.3047 44.0863C71.3423 44.0023 71.3855 43.9287 71.4331 43.8683L71.7623 43.9007C71.8907 44.1203 72.0103 44.3279 72.1295 44.5343C72.3067 44.1855 72.4367 43.7951 72.7143 43.8571C72.8735 43.8723 73.0335 43.8563 73.1915 43.8091C73.4211 43.3523 73.6267 42.9391 73.8323 42.5263C73.9451 42.5067 74.0563 42.4855 74.1847 42.4603L74.5687 43.1547H74.8899C75.0223 43.3991 75.1479 43.6327 75.2771 43.8715H75.9607C76.0931 44.1171 76.2195 44.3507 76.3483 44.5871H78.4155C78.5587 44.8439 78.6855 45.0667 78.8211 45.3055H79.8171C79.9767 45.5695 80.1055 45.7907 80.2127 45.9655C80.3259 45.9767 80.4367 45.9739 80.5483 45.9715C80.8343 45.9391 81.1207 45.9971 81.3975 46.1427C81.3975 47.0191 81.3975 47.7163 81.3975 48.4527C81.2427 48.7883 81.0771 49.1023 80.9011 49.3935C80.8243 49.5075 80.6843 49.4595 80.4639 49.5031C80.3023 49.9115 80.0867 50.4523 79.9151 50.8891H79.4747C79.3443 51.1307 79.2179 51.3623 79.1003 51.5847C78.9743 51.5987 78.8595 51.6147 78.7459 51.6307C78.6695 51.8695 78.5631 52.0631 78.4367 52.1927C78.3107 52.3223 78.1695 52.3823 78.0279 52.3671C77.8215 52.7815 77.6159 53.1927 77.4087 53.6047C77.2647 53.5943 77.1219 53.6591 76.9943 53.7931C76.8671 53.9275 76.7595 54.1263 76.6823 54.3691H74.9523C74.8219 54.6055 74.6947 54.8371 74.5575 55.0847H73.1819C73.0527 55.3263 72.9279 55.5627 72.7999 55.8027H72.1071C71.9419 56.1331 71.7763 56.4631 71.6107 56.7931C71.5939 56.8987 71.5851 57.0083 71.5839 57.1191C71.6119 57.5151 71.5219 57.8611 71.3475 57.8827C71.1487 57.9099 70.9503 57.9171 70.7579 57.9171C70.5043 57.9239 70.2551 57.9103 70.0247 57.9103ZM28.6725 46.6359C28.3304 46.1147 28.0284 45.4967 27.776 44.8011C27.776 43.6683 27.773 42.6155 27.776 41.5667C27.776 41.4675 27.8194 41.3687 27.8422 41.2815C27.9485 41.0175 28.1437 40.8591 28.1208 40.4555C28.0878 39.8799 28.3264 39.6755 28.4697 39.3119V37.9543C28.5925 37.6859 28.7093 37.4319 28.8298 37.1683V33.4275C28.9943 33.4803 29.163 33.4359 29.3151 33.2999C29.4672 33.1639 29.596 32.9423 29.6858 32.6623H30.4172L30.8908 31.5059C30.8885 31.3475 30.9036 31.1899 30.9348 31.0439C31.0389 30.7159 31.1538 30.4015 31.2786 30.1031C31.2852 29.8111 31.2845 29.5183 31.2764 29.2267C31.2655 29.1143 31.2684 28.9991 31.2847 28.8895C31.301 28.7799 31.3302 28.6799 31.37 28.5979C31.457 28.4327 31.5133 28.5251 31.6225 28.7515C32.2712 30.0791 32.931 31.3919 33.579 32.6823H34.2822C34.4593 33.0515 34.599 33.4367 34.8726 33.3423C35.0158 33.2763 35.1658 33.3039 35.3006 33.4211C35.4352 33.5383 35.5474 33.7391 35.6206 33.9931C35.787 34.0583 35.9571 34.0751 36.1259 34.0427C36.3517 33.9843 36.5812 34.0411 36.7931 34.2079C36.8781 34.3751 36.9585 34.5419 37.0525 34.7251H39.4859C39.6183 34.9687 39.7435 35.2035 39.8731 35.4455H42.4231C42.5883 35.8767 42.8043 36.4227 42.9723 36.8495C44.6211 36.8495 44.6211 36.8495 44.9675 37.2091C44.7863 37.5215 44.6131 37.8227 44.3863 38.2099H43.0443C42.6859 38.9255 42.3199 39.6575 41.9687 40.3559C41.8267 40.3759 41.7127 40.3871 41.5987 40.4003C41.5259 40.5839 41.4415 40.7487 41.3479 40.8895C41.1159 41.1583 40.7851 41.0503 40.6247 41.6371C40.6055 41.7099 40.5311 41.7447 40.4799 41.7615C40.4007 41.7735 40.3207 41.7735 40.2411 41.7615C40.0939 41.7195 39.9435 41.7607 39.8071 41.8803C39.5987 42.2963 39.3927 42.7111 39.1759 43.1471H37.7927C37.6604 43.3887 37.5356 43.6259 37.4059 43.8675H35.6672C35.5382 44.1107 35.412 44.3443 35.2823 44.5875H31.096C30.9111 45.0231 30.6484 45.2971 30.3636 45.3515C30.1575 45.7659 29.9516 46.1771 29.723 46.6355L28.6725 46.6359ZM51.1019 41.7131C50.8855 41.3243 50.7111 41.0187 50.5627 40.7559V35.8051C50.6867 35.5315 50.8015 35.2727 50.9227 35.0047V33.6627C51.1035 33.2983 51.2687 32.9675 51.4323 32.6371H51.7483V32.6423L53.0159 30.1843V29.4791C53.3107 28.8871 53.5995 28.3059 53.8827 27.7355C54.0055 27.9619 54.1279 28.1823 54.2383 28.3843C54.3831 28.1567 54.5155 27.9415 54.6475 27.7243C54.8459 27.8431 54.9783 27.6107 55.1087 27.3779C55.2391 27.1447 55.3631 26.9267 55.5523 27.0231C55.8807 26.7323 56.0579 26.0991 56.3295 25.6463C56.4507 25.8667 56.5727 26.0919 56.7003 26.3207H57.0355C57.1651 26.5663 57.2907 26.7963 57.4099 27.0227C57.5359 27.0363 57.6495 27.0463 57.7491 27.0611C57.8851 27.2999 58.0139 27.5231 58.1503 27.7651H59.1647C59.2683 27.9699 59.3503 28.1355 59.4455 28.3239C59.7515 28.4503 60.0655 28.4847 60.3767 28.4259C60.6843 28.3687 60.9943 28.4011 61.2971 28.5223L61.5767 29.0823H62.5879C62.7263 29.3251 62.8551 29.5443 63.0047 29.8083H63.6663L64.0571 30.5283H65.7931C65.9215 30.7675 66.0467 31.0043 66.1779 31.2463H67.9055C67.9803 31.3431 68.0371 31.4863 68.0671 31.6543C68.0971 31.8219 68.0983 32.0047 68.0707 32.1743C68.0547 32.2763 68.0271 32.3695 67.9895 32.4459C67.9523 32.5223 67.9063 32.5799 67.8555 32.6143C67.6407 32.6515 67.4251 32.6579 67.2099 32.6339C66.9119 33.1431 66.7311 33.7695 66.3971 34.0367H65.8699C65.5503 34.5271 65.2543 35.0751 64.9851 35.6739C64.6679 36.3743 64.3207 37.0191 63.9479 37.6011H63.3215C63.2123 37.8191 63.1295 37.9863 63.0447 38.1559C62.7435 38.2679 62.4359 38.2971 62.1307 38.2435C61.8179 38.1839 61.5023 38.2203 61.1947 38.3511C61.0903 38.5619 61.0075 38.7247 60.9103 38.9219H59.5375L59.1367 39.6423H56.7147C56.5823 39.8867 56.4555 40.1215 56.3271 40.3579H53.1831C52.9519 40.8751 52.6955 41.3455 52.4175 41.7619C52.2327 41.7407 52.0471 41.7519 51.8651 41.7619C51.7591 41.7679 51.6543 41.7739 51.5519 41.7739C51.4011 41.7799 51.2507 41.7595 51.1019 41.7131ZM14.2566 40.3091C14.091 39.9771 13.926 39.6471 13.7619 39.3187C13.774 39.1527 13.7695 38.9839 13.7484 38.8215C13.7274 38.6591 13.6904 38.5067 13.6394 38.3731C13.5127 38.2475 13.3693 38.2051 13.2298 38.2515C13.1314 38.2995 13.0283 38.2899 12.9326 38.2247C12.8369 38.1591 12.7526 38.0407 12.6897 37.8827C12.4871 37.3131 11.9947 37.6847 11.851 36.8923C11.7342 36.8767 11.6214 36.8603 11.4788 36.8483C11.1286 36.1487 10.7629 35.4171 10.4072 34.7075H9.70065C9.41573 33.7835 9.01365 34.0079 8.73233 34.1135C8.47521 34.5195 8.29485 34.8079 8.21209 34.9367C8.13201 35.4939 8.08669 35.8059 8.04665 36.0831C7.62501 35.2363 7.22225 34.4255 6.75597 33.4955V30.9667C6.44621 30.1279 6.00113 29.5723 5.73009 28.7455C5.85053 28.4543 5.95741 28.1955 6.04281 27.9863C6.01949 27.2699 6.03997 26.5511 6.10373 25.8447C6.27877 25.5503 6.44589 25.2319 6.39625 24.6991C6.62293 24.1827 6.85957 23.6839 7.08889 23.0903C7.15837 22.9115 7.01509 22.4039 7.21661 22.2451C7.39733 22.1063 7.45753 22.5703 7.59421 22.7395C7.82469 22.8307 8.06073 22.8531 8.29453 22.8055C8.56085 22.7411 8.83093 22.7843 9.08873 22.9327C9.19001 23.1367 9.27241 23.3003 9.36441 23.4871C9.48485 23.2655 9.60729 23.0431 9.73505 22.8111H11.1223C11.2471 23.0451 11.3732 23.2819 11.4887 23.4971H12.5265C12.6668 23.2471 12.7939 23.0191 12.912 22.8039C13.0404 22.8303 13.1523 22.8547 13.2652 22.8699C13.5233 23.3107 13.7046 23.9347 14.0356 24.2099C14.1513 24.2223 14.2673 24.2223 14.383 24.2099C14.6095 24.1615 14.8385 24.2095 15.0548 24.3511C15.261 24.7659 15.4665 25.1771 15.6793 25.6023H16.364C16.4938 25.8471 16.6192 26.0811 16.7476 26.3203H17.0822C17.2146 26.5679 17.3416 26.7995 17.4714 27.0411H18.8944C18.9459 27.2743 19.0324 27.4699 19.1419 27.6011C19.2514 27.7323 19.3786 27.7927 19.5059 27.7739C19.7286 28.1555 19.9031 28.4559 20.0758 28.7515C19.768 29.3707 19.4801 29.9463 19.1899 30.5271H18.8368C18.6766 30.8571 18.5142 31.1871 18.345 31.5323C18.3358 31.6187 18.3225 31.7271 18.312 31.8347C18.2481 32.5659 18.2295 32.6163 17.9085 32.6327C17.7397 32.6379 17.5696 32.6327 17.4416 32.6327C17.1401 33.1415 16.9617 33.7707 16.6271 34.0347H16.1032C16.0521 34.0711 16.004 34.1227 15.9606 34.1879C15.5876 34.9247 15.2177 35.6679 14.8066 36.4911V38.4759C14.8066 38.8251 14.8066 39.1755 14.8066 39.5247C14.8066 40.1315 14.7385 40.3171 14.4317 40.3171C14.3817 40.3235 14.3232 40.3183 14.2566 40.3091ZM35.9803 23.4971C35.7423 22.9691 35.4706 22.3643 35.1602 21.6731C35.1566 21.5979 35.146 21.3723 35.1341 21.1087C35.0298 20.8799 34.9157 20.6239 34.7902 20.3471V16.8691C34.9024 16.6262 35.0192 16.3714 35.141 16.11V15.4538C35.2652 15.1788 35.3798 14.9262 35.4849 14.696C35.4968 14.432 35.5074 14.2056 35.516 13.9805C35.7232 13.566 35.9293 13.1515 36.1418 12.7264C36.2132 12.3363 36.1537 11.8225 36.3827 11.538C36.5591 11.3202 36.5386 10.9599 36.5366 10.4596C36.8036 10.0028 37.1108 9.46937 37.5118 8.78417C37.4255 8.82645 37.4788 8.79137 37.531 8.77289C37.9283 8.61909 37.9247 8.61929 37.9419 7.98097C37.9539 7.54269 37.8583 7.04201 38.1103 6.68689H38.7871C38.9195 6.43937 39.0439 6.20529 39.1731 5.96105H39.5111C39.6407 6.20265 39.7663 6.43605 39.8979 6.68689H40.5775C40.8055 7.21669 41.0679 7.68301 41.3579 8.07317C41.4139 8.07317 41.4715 8.07317 41.5287 8.07317C41.8159 8.06061 42.1043 8.04669 42.2811 8.69425C42.4231 8.68893 42.5635 8.75633 42.6891 8.88989C42.8143 9.02349 42.9207 9.21893 42.9975 9.45749H44.4127C44.7771 10.1836 45.1411 10.9098 45.4991 11.6254H46.1731C46.3387 11.9006 46.4711 12.1158 46.5767 12.2855C46.7907 12.2855 46.9663 12.2741 47.1415 12.2906C47.1919 12.2939 47.2687 12.3388 47.2855 12.4147C47.4895 13.2154 48.0775 12.7882 48.2655 13.6437C48.2775 13.6985 48.3731 13.6985 48.4259 13.6846C48.4671 13.6641 48.5099 13.6614 48.5519 13.6763C48.5939 13.6912 48.6335 13.7236 48.6687 13.7713C48.7039 13.8191 48.7335 13.8809 48.7559 13.9531C48.7783 14.0254 48.7927 14.1062 48.7983 14.1903C48.8207 14.3884 48.8095 14.7388 48.7471 14.8253C48.4771 15.1884 48.4823 15.7826 48.3783 16.2876C48.3599 16.3768 48.2935 16.4288 48.2351 16.5139H47.5679C47.2279 17.1978 46.8971 17.8586 46.5607 18.5332C46.2175 18.6185 45.8715 18.6407 45.5263 18.5992C45.1387 18.5436 44.7491 18.5829 44.3663 18.7166L44.0835 19.281H43.0515L42.6659 20.0071H39.5251C39.3967 20.2487 39.2703 20.4823 39.1499 20.7055C39.0259 20.7227 38.9119 20.7327 38.7987 20.7483C38.5391 21.1979 38.3523 21.8147 38.0283 22.1043C37.9235 22.1759 37.8147 22.2199 37.7041 22.2363C37.4973 22.6495 37.2921 23.0647 37.0754 23.5003L35.9803 23.4971ZM15.7366 13.7936C15.534 13.3902 15.3325 12.9862 15.1409 12.5988V10.495C14.7928 9.79533 14.4631 9.13681 14.121 8.44897V7.09301C13.9998 6.82897 13.8844 6.57685 13.7616 6.30817V3.31129C13.9589 3.30345 14.1522 3.19917 14.3246 3.00769C14.497 2.81621 14.6432 2.54329 14.7504 2.21285C14.8292 1.69137 14.8772 1.38437 14.9235 1.07477H16.3538C16.4842 0.833166 16.6102 0.599567 16.743 0.356647H17.7828C17.9056 0.588367 18.0316 0.818808 18.1646 1.06769H19.1856C19.3239 1.31521 19.4503 1.54553 19.5854 1.78581H20.2383C20.3948 2.04985 20.5219 2.26769 20.6338 2.45845C20.838 2.45845 21.0137 2.45253 21.1881 2.45845C21.2414 2.47633 21.2934 2.50809 21.3426 2.55289C21.3808 2.64141 21.4225 2.72357 21.4674 2.79849C21.5554 2.92721 21.6497 3.04005 21.7417 3.15821C22.3321 3.12653 22.3374 3.12657 22.6952 3.85797H23.1694C24.101 3.85797 25.0329 3.84925 25.9645 3.86245C26.0722 3.89073 26.178 3.94285 26.2799 4.01813C26.3629 4.18513 26.4454 4.34817 26.5274 4.51321C27.139 4.64525 27.2224 4.96429 26.9037 5.96105H26.2127C25.9059 6.24093 26.1465 7.10233 25.8156 7.37825H25.0984C25.0481 7.67265 24.9972 7.98013 24.9402 8.31941C25.0872 8.68281 25.2528 9.01465 25.4344 9.30957C25.6635 9.53209 25.9041 9.70489 26.1518 9.82461C25.811 10.3659 25.5399 10.7955 25.3053 11.1638V12.6226C25.1173 13.022 24.9578 13.3618 24.8089 13.6846H22.0025C21.8722 13.9262 21.7467 14.1614 21.6385 14.3647H20.5994C20.4541 14.1092 20.327 13.8839 20.23 13.7143H16.7254C16.4703 14.1849 16.3303 14.416 16.1976 14.416C16.0672 14.4232 15.9451 14.2108 15.7362 13.7923L15.7366 13.7936ZM59.1371 5.26645H58.6767V5.26065C58.6939 4.93245 58.6663 4.60105 58.5975 4.30113C58.5283 4.00121 58.4203 3.74377 58.2843 3.55561V2.12453C58.3719 1.93181 58.4831 1.67873 58.6111 1.39289V-1.39059C58.8911 -1.95299 59.1695 -2.54575 59.4715 -3.08307C59.5375 -3.20583 59.6891 -3.14119 59.8875 -3.17751C60.1071 -3.68711 60.3703 -4.30439 60.6927 -5.05691C60.6367 -5.47939 60.8231 -5.89383 61.0479 -6.25687C61.0555 -6.38031 61.0651 -6.48859 61.0731 -6.60079C61.1087 -7.12887 61.1751 -7.35407 61.3135 -7.36727C61.5403 -7.38971 61.7667 -7.38679 61.9167 -7.39207C62.1483 -7.80663 62.3195 -8.11315 62.4623 -8.37191C62.4955 -8.78511 62.4151 -9.17047 62.6363 -9.42263C62.7459 -9.23715 62.8659 -9.03243 62.9899 -8.82187C63.3127 -9.03967 63.0563 -9.90915 63.3507 -10.1791H63.6987C63.7571 -9.99627 63.8783 -9.79151 63.8643 -9.63439C63.7983 -8.86671 64.3483 -8.61339 64.2251 -7.82591C64.3367 -7.56715 64.4467 -7.30975 64.5595 -7.05363C64.5987 -6.96847 64.6347 -6.84691 64.6843 -6.81191C64.9411 -6.62839 65.2399 -6.62379 65.4067 -6.06931C65.4263 -6.03191 65.4499 -6.00411 65.4759 -5.98775C65.5015 -5.97139 65.5291 -5.96687 65.5559 -5.97487C65.8343 -6.05739 65.9591 -5.62847 66.1379 -5.29511H66.8095C66.9419 -5.05483 67.0699 -4.82719 67.2087 -4.57571H69.2843L69.6651 -3.85983H71.0523C71.1807 -3.62087 71.3059 -3.38463 71.4359 -3.14171H72.1663C72.2139 -2.84071 72.2639 -2.53503 72.2967 -2.33303C71.9767 -1.68879 71.6915 -1.11999 71.3179 -0.372072C71.1323 -0.303513 70.9427 -0.293112 70.7555 -0.341152C70.4843 -0.411512 70.2091 -0.372272 69.9459 -0.226072C69.8547 -0.0439129 69.7723 0.120447 69.6895 0.284126C69.5775 0.306566 69.4655 0.340727 69.3535 0.346006C69.2515 0.350647 69.1495 0.349968 69.0475 0.346006C68.9751 0.346006 68.9023 0.346006 68.8295 0.346006C68.6007 0.350647 68.4243 0.557287 68.4711 0.770529C68.4923 0.881968 68.5343 0.972807 68.5883 1.02385C68.6423 1.07489 68.7043 1.08225 68.7607 1.04449C68.8167 1.00581 68.8771 1.00657 68.9327 1.04673C68.9879 1.08689 69.0347 1.16401 69.0651 1.26493C69.1175 1.42733 69.0719 1.57469 68.9551 1.76677C68.8211 1.97869 68.7035 2.22877 68.5751 2.47233H67.2091C67.0623 2.72909 66.9347 2.95565 66.8051 3.18205H61.5839C61.3647 3.62037 61.1587 4.03141 60.9475 4.45585C60.7575 4.62813 60.5111 4.49957 60.3519 4.93061C60.2011 5.28517 60.0379 5.61733 59.8631 5.92461C59.7491 5.94045 59.6355 5.95237 59.5127 5.96557C59.3903 5.73761 59.2651 5.50413 59.1367 5.26517L59.1371 5.26645ZM32.5395 -6.67139C32.1044 -7.51563 31.688 -8.32155 31.277 -9.12159V-10.5172C31.1529 -10.7898 31.0387 -11.0452 30.9438 -11.2498V-12.6526C31.1052 -13.0156 31.2989 -13.2531 31.2896 -13.8148C31.2803 -14.3766 31.6758 -14.5768 31.6477 -15.2746C31.6298 -15.7241 31.9124 -15.9742 32.0666 -16.3082C32.2652 -16.7327 32.4998 -17.1001 32.6749 -17.5562C32.8404 -17.9859 33.0975 -17.7793 33.2782 -18.0374C33.3818 -18.1853 33.3818 -18.3895 33.3894 -18.6469C33.4049 -19.2245 33.4224 -19.2289 33.8811 -19.3028C33.9953 -19.5088 34.1214 -19.734 34.2637 -19.9868H34.9527C35.0656 -19.7749 35.1903 -19.5412 35.3167 -19.2983H36.3539C36.4823 -19.5412 36.6091 -19.7775 36.7275 -20H43.3643L43.7467 -19.2864H46.5195C46.6599 -19.0342 46.7871 -18.8086 46.9207 -18.5663H47.5731C47.7295 -18.3023 47.8571 -18.0824 47.9591 -17.9114C48.0591 -17.8823 48.1607 -17.8785 48.2615 -17.9001C48.4643 -17.9252 48.6555 -17.9512 48.8015 -17.5472V-16.6086C48.6339 -16.6435 48.4647 -16.5854 48.3127 -16.441C48.1607 -16.2966 48.0315 -16.0713 47.9395 -15.79C47.6203 -15.79 47.2743 -15.8195 46.9319 -15.7687C46.8803 -15.7403 46.8331 -15.6866 46.7943 -15.6124C46.7555 -15.5381 46.7271 -15.4459 46.7111 -15.3439C46.6931 -14.9008 46.6899 -14.4557 46.7015 -14.0118C46.5835 -13.8704 46.4851 -13.6717 46.4155 -13.4342C46.3463 -13.1967 46.3079 -12.928 46.3047 -12.6532C46.1243 -12.2334 45.9735 -11.8815 45.8471 -11.5831C45.6855 -11.5673 45.5715 -11.5582 45.4687 -11.5509C45.3363 -11.308 45.2083 -11.0827 45.0731 -10.8424H44.4251C44.2663 -10.5784 44.1379 -10.362 44.0279 -10.1766C43.3551 -10.1766 42.7151 -10.1766 42.0755 -10.1727C42.0219 -10.1564 41.9699 -10.1245 41.9211 -10.0782C41.8387 -9.91451 41.7555 -9.74791 41.6231 -9.48387C41.4127 -9.45819 41.2015 -9.45551 40.9911 -9.47551C40.7251 -9.50595 40.4587 -9.49123 40.1943 -9.43135L39.8659 -8.77123C38.3983 -8.77123 36.8907 -8.77719 35.3833 -8.77123C35.3343 -8.77123 35.2863 -8.68067 35.2423 -8.63911C35.1099 -8.42587 35.0305 -8.03395 34.8303 -8.08215C34.5447 -8.15279 34.4424 -7.67607 34.2604 -7.38499H33.9294C33.7991 -7.14339 33.673 -6.90563 33.5489 -6.67523L32.5395 -6.67139Z" fill="#008060" fill-opacity="0.2"/>
<path d="M22.6414 32.9814C22.6414 34.1436 22.6551 35.1621 22.6824 36.0371C22.7235 36.8984 22.7645 37.6436 22.8055 38.2725C22.8602 38.9014 22.9217 39.4277 22.9901 39.8516C23.0721 40.2754 23.1541 40.6309 23.2362 40.918V41H18.3143V40.918C18.3963 40.6309 18.4715 40.2754 18.5399 39.8516C18.6219 39.4277 18.6903 38.9014 18.7449 38.2725C18.7996 37.6436 18.8406 36.8984 18.868 36.0371C18.8953 35.1621 18.909 34.1436 18.909 32.9814V19.6309C18.909 18.4688 18.8953 17.457 18.868 16.5957C18.8406 15.7207 18.7996 14.9688 18.7449 14.3398C18.6903 13.6973 18.6219 13.1641 18.5399 12.7402C18.4715 12.3164 18.3963 11.9609 18.3143 11.6738V11.5918C19.449 11.5918 20.5975 11.5918 21.7596 11.5918C22.9217 11.5781 24.0496 11.5713 25.1434 11.5713C26.2371 11.5576 27.2762 11.5439 28.2606 11.5303C29.2449 11.5029 30.1336 11.4824 30.9266 11.4688C31.7196 11.4414 32.3895 11.4141 32.9363 11.3867C33.4832 11.3457 33.8729 11.3047 34.1053 11.2637L33.1004 13.9912C32.6492 13.8682 32.1229 13.7588 31.5213 13.6631C31.0018 13.5811 30.366 13.5059 29.6141 13.4375C28.8758 13.3555 28.0213 13.3145 27.0506 13.3145C26.7225 13.3145 26.3123 13.3281 25.8201 13.3555C25.328 13.3691 24.8426 13.3896 24.3641 13.417C23.8172 13.4443 23.243 13.4717 22.6414 13.499V23.8555C24.0496 23.8418 25.3416 23.8008 26.5174 23.7324C27.6932 23.6641 28.7049 23.5957 29.5526 23.5273C30.5369 23.4453 31.4256 23.3496 32.2186 23.2402L31.6033 26.2139C30.578 26.0908 29.5389 25.9746 28.4862 25.8652C27.5838 25.7695 26.6131 25.6875 25.574 25.6191C24.535 25.5371 23.5574 25.4961 22.6414 25.4961V32.9814ZM40.3987 40.918C40.4808 40.6309 40.556 40.2754 40.6243 39.8516C40.7064 39.4277 40.7747 38.9014 40.8294 38.2725C40.8841 37.6436 40.9251 36.8984 40.9524 36.0371C40.9798 35.1621 40.9935 34.1436 40.9935 32.9814V19.6309C40.9935 18.4688 40.9798 17.457 40.9524 16.5957C40.9251 15.7207 40.8841 14.9688 40.8294 14.3398C40.7747 13.6973 40.7064 13.1641 40.6243 12.7402C40.556 12.3164 40.4808 11.9609 40.3987 11.6738V11.5918H45.3206V11.6738C45.2386 11.9609 45.1565 12.3164 45.0745 12.7402C45.0062 13.1641 44.9446 13.6973 44.8899 14.3398C44.8489 14.9688 44.8079 15.7207 44.7669 16.5957C44.7396 17.457 44.7259 18.4688 44.7259 19.6309V24.2041L56.7024 14.4219C58.0423 13.3281 58.7122 12.3848 58.7122 11.5918H64.4749V11.6738C63.6683 11.8652 62.848 12.2344 62.014 12.7812C61.1937 13.3145 60.3187 13.9707 59.389 14.75L48.8069 23.6094L61.5423 37.5957C62.0755 38.1426 62.5267 38.6006 62.8958 38.9697C63.2786 39.3252 63.6136 39.626 63.9007 39.8721C64.1878 40.1045 64.4476 40.3027 64.68 40.4668C64.9261 40.6172 65.179 40.7676 65.4388 40.918V41H59.43C59.3753 40.877 59.2796 40.7197 59.1429 40.5283C59.0198 40.3369 58.8694 40.1387 58.6917 39.9336C58.5276 39.7285 58.3431 39.5166 58.138 39.2979C57.9466 39.0791 57.762 38.874 57.5843 38.6826L44.7259 24.5732V32.9814C44.7259 34.1436 44.7396 35.1621 44.7669 36.0371C44.8079 36.8984 44.8489 37.6436 44.8899 38.2725C44.9446 38.9014 45.0062 39.4277 45.0745 39.8516C45.1565 40.2754 45.2386 40.6309 45.3206 40.918V41H40.3987V40.918Z" fill="white"/>
<path d="M20.8575 54.8418C20.8575 54.3438 20.8516 53.9102 20.8399 53.541C20.8282 53.166 20.8106 52.8438 20.7872 52.5742C20.7637 52.2988 20.7344 52.0703 20.6993 51.8887C20.67 51.707 20.6378 51.5547 20.6026 51.4316V51.3965C20.7198 51.4023 20.8428 51.4053 20.9717 51.4053C21.0831 51.4111 21.2061 51.4141 21.3409 51.4141C21.4815 51.4141 21.6251 51.4141 21.7715 51.4141C21.9825 51.4141 22.2667 51.3936 22.6241 51.3525C22.9874 51.3115 23.4532 51.291 24.0215 51.291C24.5489 51.291 25.0352 51.3613 25.4805 51.502C25.9258 51.6367 26.3096 51.833 26.6319 52.0908C26.96 52.3486 27.2149 52.668 27.3965 53.0488C27.584 53.4238 27.6778 53.8516 27.6778 54.332C27.6778 54.7363 27.6221 55.0996 27.5108 55.4219C27.3995 55.7383 27.2413 56.0166 27.0362 56.2568C26.837 56.4912 26.5938 56.6904 26.3067 56.8545C26.0255 57.0127 25.7149 57.1387 25.3751 57.2324C25.8731 57.3086 26.3272 57.4375 26.7374 57.6191C27.1475 57.7949 27.4991 58.0176 27.7921 58.2871C28.0909 58.5566 28.3194 58.873 28.4776 59.2363C28.6417 59.5938 28.7237 59.9922 28.7237 60.4316C28.7237 61.668 28.3165 62.5967 27.502 63.2178C26.6876 63.833 25.4688 64.1406 23.8458 64.1406C23.67 64.1406 23.4649 64.1318 23.2305 64.1143C22.9962 64.1025 22.7559 64.0879 22.5098 64.0703C22.2696 64.0527 22.0323 64.0352 21.7979 64.0176C21.5635 64.0059 21.3585 64 21.1827 64H20.6026V63.9648C20.6378 63.8418 20.67 63.6895 20.6993 63.5078C20.7344 63.3262 20.7637 63.1006 20.7872 62.8311C20.8106 62.5615 20.8282 62.2422 20.8399 61.873C20.8516 61.498 20.8575 61.0615 20.8575 60.5635V54.8418ZM24.0831 57.7686C23.6846 57.7686 23.3506 57.7832 23.0811 57.8125C22.8116 57.8418 22.6036 57.8711 22.4571 57.9004V60.5635C22.4571 61.249 22.4688 61.8145 22.4922 62.2598C22.5157 62.7051 22.5479 63.0684 22.5889 63.3496C22.8116 63.3789 23.0342 63.4053 23.2569 63.4287C23.4796 63.4521 23.6583 63.4639 23.793 63.4639C24.8887 63.4639 25.6885 63.2207 26.1924 62.7344C26.7022 62.2422 26.9571 61.4893 26.9571 60.4756C26.9571 60.0771 26.8956 59.7139 26.7725 59.3857C26.6553 59.0518 26.4766 58.7646 26.2364 58.5244C26.002 58.2842 25.7032 58.0996 25.3399 57.9707C24.9825 57.8359 24.5635 57.7686 24.0831 57.7686ZM22.4571 57.1094C22.6212 57.127 22.7676 57.1387 22.8965 57.1445C23.0255 57.1445 23.1631 57.1445 23.3096 57.1445C23.7081 57.1445 24.0714 57.0889 24.3995 56.9775C24.7276 56.8604 25.0059 56.6875 25.2344 56.459C25.4688 56.2305 25.6505 55.9463 25.7794 55.6064C25.9083 55.2607 25.9727 54.8594 25.9727 54.4023C25.9727 54.0215 25.9258 53.6758 25.8321 53.3652C25.7383 53.0547 25.5977 52.791 25.4102 52.5742C25.2286 52.3516 25.003 52.1816 24.7335 52.0645C24.4639 51.9473 24.1563 51.8887 23.8106 51.8887C23.588 51.8887 23.3917 51.8975 23.2217 51.915C23.0577 51.9326 22.9171 51.9531 22.7999 51.9766C22.6651 52 22.5508 52.0293 22.4571 52.0645V57.1094ZM30.7891 63.9648C30.8243 63.8418 30.8565 63.6895 30.8858 63.5078C30.9151 63.3262 30.9415 63.1006 30.9649 62.8311C30.9883 62.5615 31.0059 62.2422 31.0176 61.873C31.0294 61.498 31.0352 61.0615 31.0352 60.5635V54.8418C31.0352 54.3438 31.0294 53.9102 31.0176 53.541C31.0059 53.166 30.9883 52.8438 30.9649 52.5742C30.9415 52.2988 30.9151 52.0703 30.8858 51.8887C30.8565 51.707 30.8243 51.5547 30.7891 51.4316V51.3965H32.8897V51.4316C32.8546 51.5547 32.8194 51.707 32.7842 51.8887C32.7549 52.0703 32.7286 52.2988 32.7051 52.5742C32.6876 52.8438 32.67 53.166 32.6524 53.541C32.6407 53.9102 32.6348 54.3438 32.6348 54.8418V60.5635C32.6348 61.0615 32.6407 61.498 32.6524 61.873C32.67 62.2422 32.6876 62.5615 32.7051 62.8311C32.7286 63.1006 32.7549 63.3262 32.7842 63.5078C32.8194 63.6895 32.8546 63.8418 32.8897 63.9648V64H30.7891V63.9648ZM30.9737 48.8564C30.9737 48.7334 30.9971 48.6162 31.044 48.5049C31.0909 48.3936 31.1524 48.2998 31.2286 48.2236C31.3106 48.1416 31.4044 48.0771 31.5098 48.0303C31.6153 47.9834 31.7296 47.96 31.8526 47.96C32.1046 47.96 32.3155 48.0479 32.4854 48.2236C32.6612 48.3936 32.7491 48.6045 32.7491 48.8564C32.7491 48.9795 32.7256 49.0967 32.6788 49.208C32.6319 49.3135 32.5674 49.4072 32.4854 49.4893C32.4092 49.5654 32.3155 49.627 32.2042 49.6738C32.0928 49.7207 31.9756 49.7441 31.8526 49.7441C31.7296 49.7441 31.6153 49.7207 31.5098 49.6738C31.4044 49.627 31.3106 49.5654 31.2286 49.4893C31.1524 49.4072 31.0909 49.3135 31.044 49.208C30.9971 49.0967 30.9737 48.9795 30.9737 48.8564ZM37.3458 63.2266C38.0372 63.2266 38.6729 63.1973 39.253 63.1387C39.8331 63.0801 40.3399 63.0127 40.7735 62.9365C41.2774 62.8545 41.7374 62.7578 42.1534 62.6465L41.8985 64.0703C41.8282 64.0645 41.7227 64.0586 41.5821 64.0527C41.4415 64.0469 41.2833 64.041 41.1075 64.0352C40.9376 64.0293 40.7559 64.0234 40.5626 64.0176C40.3751 64.0176 40.1964 64.0146 40.0264 64.0088C39.8565 64.0088 39.7042 64.0059 39.5694 64C39.4405 64 39.3467 64 39.2881 64H35.4913V63.9648C35.5264 63.8418 35.5587 63.6895 35.588 63.5078C35.6231 63.3262 35.6524 63.1006 35.6758 62.8311C35.6993 62.5615 35.7169 62.2422 35.7286 61.873C35.7403 61.498 35.7462 61.0615 35.7462 60.5635V54.8418C35.7462 54.3438 35.7403 53.9102 35.7286 53.541C35.7169 53.166 35.6993 52.8438 35.6758 52.5742C35.6524 52.2988 35.6231 52.0703 35.588 51.8887C35.5587 51.707 35.5264 51.5547 35.4913 51.4316V51.3965H37.6006V51.4316C37.5655 51.5547 37.5303 51.707 37.4952 51.8887C37.4659 52.0703 37.4395 52.2988 37.4161 52.5742C37.3985 52.8438 37.3809 53.166 37.3633 53.541C37.3516 53.9102 37.3458 54.3438 37.3458 54.8418V63.2266ZM54.8624 62.5234C54.8624 62.5879 54.8536 62.6553 54.836 62.7256C54.8243 62.7959 54.7921 62.8545 54.7393 62.9014C54.4756 63.1006 54.1885 63.2852 53.878 63.4551C53.5733 63.6191 53.2422 63.7627 52.8848 63.8857C52.5274 64.0088 52.1407 64.1025 51.7247 64.167C51.3145 64.2373 50.8721 64.2725 50.3975 64.2725C49.3311 64.2725 48.3585 64.1172 47.4796 63.8066C46.6006 63.4902 45.8448 63.0449 45.212 62.4707C44.585 61.8965 44.0987 61.208 43.753 60.4053C43.4073 59.5967 43.2344 58.7002 43.2344 57.7158C43.2344 57.1592 43.3047 56.6113 43.4454 56.0723C43.5919 55.5332 43.8028 55.0205 44.0782 54.5342C44.3536 54.0479 44.6934 53.6025 45.0977 53.1982C45.502 52.7881 45.962 52.4336 46.4776 52.1348C46.9991 51.8359 47.5704 51.6045 48.1915 51.4404C48.8184 51.2705 49.4952 51.1855 50.2217 51.1855C50.503 51.1855 50.7901 51.2002 51.0831 51.2295C51.376 51.2529 51.6661 51.291 51.9532 51.3438C52.2403 51.3906 52.5157 51.4492 52.7794 51.5195C53.0489 51.5898 53.3038 51.6689 53.544 51.7568L54.1417 53.3828L54.0714 53.418C53.8428 53.2129 53.5792 53.0225 53.2803 52.8467C52.9815 52.6709 52.6622 52.5186 52.3223 52.3896C51.9825 52.2607 51.6251 52.1611 51.2501 52.0908C50.8809 52.0146 50.5059 51.9766 50.1251 51.9766C49.3868 51.9766 48.71 52.0938 48.0948 52.3281C47.4796 52.5566 46.9493 52.8906 46.504 53.3301C46.0645 53.7695 45.7217 54.3086 45.4756 54.9473C45.2296 55.5859 45.1065 56.3125 45.1065 57.127C45.1065 58.0234 45.2237 58.8555 45.4581 59.623C45.6924 60.3906 46.0411 61.0557 46.504 61.6182C46.9669 62.1807 47.544 62.623 48.2354 62.9453C48.9327 63.2617 49.7442 63.4199 50.67 63.4199C51.0801 63.4199 51.4464 63.3877 51.7686 63.3232C52.0909 63.2588 52.3633 63.1797 52.586 63.0859C52.8087 62.9863 52.9756 62.8809 53.087 62.7695C53.2042 62.6523 53.2628 62.5469 53.2628 62.4531V62.1104C53.2628 61.7002 53.2569 61.3457 53.2452 61.0469C53.2335 60.748 53.2159 60.4902 53.1924 60.2734C53.169 60.0508 53.1426 59.8604 53.1133 59.7021C53.084 59.5439 53.0489 59.3975 53.0079 59.2627V59.2275H55.1172V59.2627C55.0821 59.3857 55.0469 59.5322 55.0118 59.7021C54.9825 59.8662 54.9561 60.0625 54.9327 60.291C54.9092 60.5195 54.8917 60.7891 54.8799 61.0996C54.8682 61.4043 54.8624 61.7588 54.8624 62.1631V62.5234ZM57.209 63.9648C57.2442 63.8418 57.2764 63.6895 57.3057 63.5078C57.335 63.3262 57.3614 63.1006 57.3848 62.8311C57.4083 62.5615 57.4258 62.2422 57.4376 61.873C57.4493 61.498 57.4551 61.0615 57.4551 60.5635V54.8418C57.4551 54.3438 57.4493 53.9102 57.4376 53.541C57.4258 53.166 57.4083 52.8438 57.3848 52.5742C57.3614 52.2988 57.335 52.0703 57.3057 51.8887C57.2764 51.707 57.2442 51.5547 57.209 51.4316V51.3965H59.3096V51.4316C59.2745 51.5547 59.2393 51.707 59.2042 51.8887C59.1749 52.0703 59.1485 52.2988 59.1251 52.5742C59.1075 52.8438 59.0899 53.166 59.0723 53.541C59.0606 53.9102 59.0547 54.3438 59.0547 54.8418V60.5635C59.0547 61.0615 59.0606 61.498 59.0723 61.873C59.0899 62.2422 59.1075 62.5615 59.1251 62.8311C59.1485 63.1006 59.1749 63.3262 59.2042 63.5078C59.2393 63.6895 59.2745 63.8418 59.3096 63.9648V64H57.209V63.9648ZM57.3936 48.8564C57.3936 48.7334 57.4171 48.6162 57.4639 48.5049C57.5108 48.3936 57.5723 48.2998 57.6485 48.2236C57.7305 48.1416 57.8243 48.0771 57.9297 48.0303C58.0352 47.9834 58.1495 47.96 58.2725 47.96C58.5245 47.96 58.7354 48.0479 58.9053 48.2236C59.0811 48.3936 59.169 48.6045 59.169 48.8564C59.169 48.9795 59.1456 49.0967 59.0987 49.208C59.0518 49.3135 58.9874 49.4072 58.9053 49.4893C58.8292 49.5654 58.7354 49.627 58.6241 49.6738C58.5128 49.7207 58.3956 49.7441 58.2725 49.7441C58.1495 49.7441 58.0352 49.7207 57.9297 49.6738C57.8243 49.627 57.7305 49.5654 57.6485 49.4893C57.5723 49.4072 57.5108 49.3135 57.4639 49.208C57.4171 49.0967 57.3936 48.9795 57.3936 48.8564Z" fill="white"/>
</g>
<line x1="88.4999" y1="39.7212" x2="1240.5" y2="39.2789" stroke="#1C5540" stroke-linecap="square"/>
<path d="M1266 0.944336L1252.78 19.8332H1258.44V23.611H1273.56V19.8332H1279.22L1266 0.944336ZM1258.44 29.2777H1273.56V25.4999H1258.44V29.2777ZM1258.44 33.0554H1273.56V31.1666H1258.44V33.0554Z" fill="url(#paint0_linear_109_3025)"/>
<path d="M1266 79.0557L1279.22 60.1668H1273.56V56.389H1258.44V60.1668H1252.78L1266 79.0557ZM1273.56 50.7223H1258.44V54.5001H1273.56V50.7223ZM1273.56 46.9446H1258.44V48.8334H1273.56V46.9446Z" fill="url(#paint1_linear_109_3025)"/>
<defs>
<linearGradient id="paint0_linear_109_3025" x1="1266" y1="0.944336" x2="1266" y2="33.0554" gradientUnits="userSpaceOnUse">
<stop stop-color="#CED4DA"/>
<stop offset="1" stop-color="#007356"/>
</linearGradient>
<linearGradient id="paint1_linear_109_3025" x1="1266" y1="79.0557" x2="1266" y2="46.9446" gradientUnits="userSpaceOnUse">
<stop stop-color="#CED4DA"/>
<stop offset="1" stop-color="#007356"/>
</linearGradient>
<clipPath id="clip0_109_3025">
<rect width="80" height="80" fill="white"/>
</clipPath>
</defs>
</svg>
