<svg width="1283" height="81" viewBox="0 0 1283 81" fill="none" xmlns="http://www.w3.org/2000/svg">
<g clip-path="url(#clip0_109_2799)">
<rect width="80" height="80" transform="translate(0 0.243164)" fill="#1C5540"/>
<path d="M28.6804 80.5719C28.4421 80.2659 28.2448 79.8487 28.1056 79.3563V76.0095C28.0094 75.8455 27.9208 75.6647 27.8409 75.4695C27.7919 75.3327 27.7653 75.1695 27.7649 75.0015C27.7645 74.8339 27.7903 74.6695 27.8385 74.5319C27.9271 74.2859 28.023 74.0507 28.1258 73.8279V72.6739C27.9906 72.1971 27.8734 71.7007 27.775 71.1895L28.1215 70.4259V69.7695C28.2031 69.6239 28.2928 69.4979 28.3889 69.3935C28.4881 69.3095 28.6156 69.3523 28.7073 69.2531C28.8013 69.1159 28.8852 68.9531 28.9567 68.7695C29.182 68.6799 29.4123 68.6499 29.6415 68.6791C29.7649 68.6839 29.891 68.6891 30.0207 68.6791C30.2276 68.4503 30.3659 67.7859 30.7253 68.0063C30.8907 67.6915 31.0542 67.3775 31.2121 67.0751C31.3319 66.6875 31.2121 66.1267 31.4735 65.8755H32.8515C32.9819 66.1207 33.1073 66.3547 33.2364 66.5951H34.268C34.5641 67.1891 34.8484 67.7715 35.1419 68.3347C35.2269 68.4711 35.3191 68.5879 35.4169 68.6835H35.9713C36.0825 68.8719 36.2096 69.0899 36.3654 69.3539H37.0177C37.1517 69.5939 37.2785 69.8191 37.4175 70.0719H38.0914C38.2198 70.3147 38.3462 70.5511 38.4726 70.7875C38.8178 70.7875 39.1678 70.7763 39.515 70.7987C39.5578 70.7987 39.6086 70.9387 39.6354 71.0351C39.6414 71.0747 39.6434 71.1171 39.6402 71.1583C39.6374 71.1999 39.6298 71.2391 39.6182 71.2739C39.5422 71.4519 39.4562 71.6079 39.3574 71.8071V73.1759C39.1742 73.6491 38.947 74.0475 38.6882 74.3491H38.0874C37.8558 74.8115 37.6501 75.2259 37.4287 75.6695H36.4101C36.2761 75.9071 36.15 76.1355 36.0067 76.3875H35.3355C35.2065 76.6307 35.0824 76.8643 34.9533 77.1059H34.6161C34.4877 77.3487 34.3629 77.5851 34.2355 77.8211H32.51C32.372 78.0715 32.2453 78.3003 32.1145 78.5367H30.7408C30.3986 79.2207 30.0704 79.8791 29.7209 80.5759L28.6804 80.5719ZM50.0186 71.4683C49.8454 71.1179 49.6798 70.7879 49.5094 70.4475V66.2455C49.6174 66.0091 49.7314 65.7563 49.8406 65.5191C49.7334 65.2735 49.6262 65.0327 49.5278 64.8067C49.6502 64.5183 49.7594 64.2631 49.8502 64.0479C49.8802 63.0575 49.8038 62.1275 49.871 61.4547L50.3558 60.2631C50.8682 60.2279 50.8718 60.2231 50.907 59.2647C50.801 59.0283 50.6862 58.7755 50.567 58.5071C50.567 58.4003 50.563 58.2939 50.5538 58.1887C50.5338 58.0771 50.5338 57.9547 50.555 57.8435C50.5758 57.7319 50.6158 57.6395 50.6682 57.5823C50.7482 57.4847 50.8198 57.5923 50.919 57.8151C51.0722 58.1659 51.2458 58.4799 51.411 58.8131C51.4774 58.6635 51.5926 58.5235 51.5998 58.3591C51.6366 57.6771 51.637 56.9847 51.663 56.3031C51.6666 56.2099 51.7402 56.1343 51.7822 56.0487H52.1342C52.4626 56.7047 52.7914 57.3691 53.125 58.0239C53.1462 58.0635 53.205 58.0291 53.2474 58.0291C53.453 57.6179 53.659 57.2055 53.8762 56.7695H54.5582C54.6906 56.5255 54.8158 56.2915 54.9446 56.0487H55.3938C55.5614 56.4739 55.775 57.0231 55.9594 57.4935H56.6874L57.0874 58.1471C57.2174 58.1615 57.3482 58.1627 57.4786 58.1511C57.7058 58.1099 57.9354 58.1519 58.1554 58.2759C58.2374 58.4415 58.3206 58.6059 58.4234 58.8131H59.525C59.7078 59.2851 59.9222 59.8311 60.0898 60.2607C60.4286 60.2607 60.6626 60.2607 60.8894 60.2607C61.0178 60.5023 61.1338 60.9035 61.265 60.9335C61.7338 61.0435 61.7394 61.0043 61.7726 61.9587C61.6658 62.1975 61.551 62.4531 61.4262 62.7275V64.1315C61.139 64.6803 60.8434 65.2399 60.5286 65.8399L60.2118 65.8795C60.0934 66.1019 59.967 66.3375 59.8374 66.5791H59.5326C59.0838 67.2195 58.8174 68.1635 58.3742 68.6855C57.3626 68.6855 56.3698 68.6859 55.3782 68.6919C55.325 68.7131 55.2742 68.7519 55.2278 68.8063C55.1446 68.9723 55.0622 69.1363 54.9802 69.3043C54.679 69.4007 54.373 69.4267 54.0686 69.3815C53.7582 69.3295 53.4458 69.3623 53.1398 69.4791L52.8462 70.0687H52.1658C52.0334 70.3123 51.9086 70.5479 51.7782 70.7887H51.4414C51.3118 71.0343 51.1862 71.2679 51.0774 71.4747L50.0186 71.4683ZM0.255349 62.3235C0.119997 62.0871 -0.00709915 61.8615 -0.135171 61.6379C-0.294823 61.5439 -0.464171 61.5367 -0.625599 61.6179C-0.742179 61.6979 -0.867519 61.7127 -0.988003 61.6603C-1.10849 61.6083 -1.21952 61.4915 -1.309 61.3223V59.9563C-1.43178 59.6879 -1.5486 59.4347 -1.66906 59.1743V57.8159C-1.78588 57.5519 -1.89311 57.3095 -2 57.0679C-1.78026 56.6323 -1.57242 56.2199 -1.37122 55.7979C-1.35268 55.7611 -1.3785 55.6355 -1.38313 55.5451C-1.48758 55.4255 -1.56999 55.2419 -1.61824 55.0219C-1.6665 54.8015 -1.67804 54.5563 -1.65117 54.3219C-1.55917 54.1143 -1.44502 53.8599 -1.32787 53.5999C-1.43708 53.3635 -1.55026 53.1131 -1.6588 52.8735V50.7787C-1.36758 50.1951 -1.07836 49.6135 -0.787791 49.0327H2.36142C2.48555 49.2643 2.6129 49.4987 2.7433 49.7435H5.86803C6.00703 49.9939 6.13274 50.2227 6.26511 50.4615H11.1263C11.2788 50.7259 11.4069 50.9435 11.5472 51.1823H12.2044L12.8468 52.4691C13.0457 52.5031 13.2319 52.6787 13.3713 52.9635C13.1653 53.3759 12.9592 53.7891 12.7531 54.2039C12.7115 54.5207 12.6701 54.8363 12.6208 55.2071C12.4633 55.4711 12.2875 55.7575 12.1138 56.0487C11.8451 55.9455 11.721 56.4203 11.5277 56.6087C11.2838 56.8447 10.9806 56.8447 10.8138 57.3819C10.6716 57.3707 10.5305 57.4347 10.4047 57.5675C10.279 57.7003 10.1731 57.8975 10.098 58.1387H9.0513C8.92091 58.3835 8.79482 58.6199 8.66574 58.8591H8.33183L7.95555 59.5559C7.82715 59.5715 7.71362 59.5907 7.6011 59.6067C7.14674 60.5131 6.69302 61.4227 6.2317 62.3479H3.42538C3.3135 62.1375 3.18807 61.9047 3.05902 61.6643H0.968849C0.839785 61.9047 0.714357 62.1375 0.593237 62.3659C0.470125 62.3503 0.356285 62.3399 0.255349 62.3235ZM70.0246 58.1535C69.8098 57.7451 69.6418 57.4239 69.4822 57.1163V51.2955C69.697 50.9503 69.9678 50.5203 70.1998 50.1515V48.0127C70.3322 47.6611 70.4802 47.4183 70.5206 47.1135C70.563 46.7835 70.5498 46.4423 70.7114 46.2215C70.9982 46.2215 70.9982 46.2211 71.1786 45.9795C71.3194 45.4515 71.137 44.8391 71.3046 44.3295C71.3422 44.2455 71.3854 44.1719 71.433 44.1115L71.7622 44.1439C71.8906 44.3635 72.0102 44.5711 72.1294 44.7775C72.3066 44.4287 72.4366 44.0383 72.7142 44.1003C72.8734 44.1155 73.0334 44.0995 73.1914 44.0523C73.421 43.5955 73.6266 43.1823 73.8322 42.7695C73.945 42.7499 74.0562 42.7287 74.1846 42.7035L74.5686 43.3979H74.8898C75.0222 43.6423 75.1478 43.8759 75.277 44.1147H75.9606C76.093 44.3603 76.2194 44.5939 76.3482 44.8303H78.4154C78.5586 45.0871 78.6854 45.3099 78.821 45.5487H79.817C79.9766 45.8127 80.1054 46.0339 80.2126 46.2087C80.3258 46.2199 80.4366 46.2171 80.5482 46.2147C80.8342 46.1823 81.1206 46.2403 81.3974 46.3859C81.3974 47.2623 81.3974 47.9595 81.3974 48.6959C81.2426 49.0315 81.077 49.3455 80.901 49.6367C80.8242 49.7507 80.6842 49.7027 80.4638 49.7463C80.3022 50.1547 80.0866 50.6955 79.915 51.1323H79.4746C79.3442 51.3739 79.2178 51.6055 79.1002 51.8279C78.9742 51.8419 78.8594 51.8579 78.7458 51.8739C78.6694 52.1127 78.563 52.3063 78.4366 52.4359C78.3106 52.5655 78.1694 52.6255 78.0278 52.6103C77.8214 53.0247 77.6158 53.4359 77.4086 53.8479C77.2646 53.8375 77.1218 53.9023 76.9942 54.0363C76.867 54.1707 76.7594 54.3695 76.6822 54.6123H74.9522C74.8218 54.8487 74.6946 55.0803 74.5574 55.3279H73.1818C73.0526 55.5695 72.9278 55.8059 72.7998 56.0459H72.107C71.9418 56.3763 71.7762 56.7063 71.6106 57.0363C71.5938 57.1419 71.585 57.2515 71.5838 57.3623C71.6118 57.7583 71.5218 58.1043 71.3474 58.1259C71.1486 58.1531 70.9502 58.1603 70.7578 58.1603C70.5042 58.1671 70.255 58.1535 70.0246 58.1535ZM28.6725 46.8791C28.3303 46.3579 28.0283 45.7399 27.776 45.0443C27.776 43.9115 27.773 42.8587 27.776 41.8099C27.776 41.7107 27.8193 41.6119 27.8422 41.5247C27.9484 41.2607 28.1436 41.1023 28.1208 40.6987C28.0877 40.1231 28.3263 39.9187 28.4696 39.5551V38.1975C28.5924 37.9291 28.7092 37.6751 28.8297 37.4115V33.6707C28.9943 33.7235 29.1629 33.6791 29.315 33.5431C29.4671 33.4071 29.596 33.1855 29.6858 32.9055H30.4172L30.8907 31.7491C30.8885 31.5907 30.9035 31.4331 30.9348 31.2871C31.0389 30.9591 31.1537 30.6447 31.2786 30.3463C31.2852 30.0543 31.2844 29.7615 31.2763 29.4699C31.2654 29.3575 31.2683 29.2423 31.2846 29.1327C31.3009 29.0231 31.3301 28.9231 31.3699 28.8411C31.457 28.6759 31.5133 28.7683 31.6225 28.9947C32.2711 30.3223 32.931 31.6351 33.5789 32.9255H34.2822C34.4592 33.2947 34.5989 33.6799 34.8726 33.5855C35.0158 33.5195 35.1658 33.5471 35.3005 33.6643C35.4352 33.7815 35.5474 33.9823 35.6205 34.2363C35.7869 34.3015 35.9571 34.3183 36.1259 34.2859C36.3517 34.2275 36.5812 34.2843 36.793 34.4511C36.8781 34.6183 36.9585 34.7851 37.0524 34.9683H39.4858C39.6182 35.2119 39.7434 35.4467 39.873 35.6887H42.423C42.5882 36.1199 42.8042 36.6659 42.9722 37.0927C44.621 37.0927 44.621 37.0927 44.9674 37.4523C44.7862 37.7647 44.613 38.0659 44.3862 38.4531H43.0442C42.6858 39.1687 42.3198 39.9007 41.9686 40.5991C41.8266 40.6191 41.7126 40.6303 41.5986 40.6435C41.5258 40.8271 41.4414 40.9919 41.3478 41.1327C41.1158 41.4015 40.785 41.2935 40.6246 41.8803C40.6054 41.9531 40.531 41.9879 40.4798 42.0047C40.4006 42.0167 40.3206 42.0167 40.241 42.0047C40.0938 41.9627 39.9434 42.0039 39.807 42.1235C39.5986 42.5395 39.3926 42.9543 39.1758 43.3903H37.7926C37.6604 43.6319 37.5356 43.8691 37.4059 44.1107H35.6672C35.5381 44.3539 35.412 44.5875 35.2823 44.8307H31.0959C30.9111 45.2663 30.6483 45.5403 30.3636 45.5947C30.1574 46.0091 29.9515 46.4203 29.7229 46.8787L28.6725 46.8791ZM51.1018 41.9563C50.8854 41.5675 50.711 41.2619 50.5626 40.9991V36.0483C50.6866 35.7747 50.8014 35.5159 50.9226 35.2479V33.9059C51.1034 33.5415 51.2686 33.2107 51.4322 32.8803H51.7482V32.8855L53.0158 30.4275V29.7223C53.3106 29.1303 53.5994 28.5491 53.8826 27.9787C54.0054 28.2051 54.1278 28.4255 54.2382 28.6275C54.383 28.3999 54.5154 28.1847 54.6474 27.9675C54.8458 28.0863 54.9782 27.8539 55.1086 27.6211C55.239 27.3879 55.363 27.1699 55.5522 27.2663C55.8806 26.9755 56.0578 26.3423 56.3294 25.8895C56.4506 26.1099 56.5726 26.3351 56.7002 26.5639H57.0354C57.165 26.8095 57.2906 27.0395 57.4098 27.2659C57.5358 27.2795 57.6494 27.2895 57.749 27.3043C57.885 27.5431 58.0138 27.7663 58.1502 28.0083H59.1646C59.2682 28.2131 59.3502 28.3787 59.4454 28.5671C59.7514 28.6935 60.0654 28.7279 60.3766 28.6691C60.6842 28.6119 60.9942 28.6443 61.297 28.7655L61.5766 29.3255H62.5878C62.7262 29.5683 62.855 29.7875 63.0046 30.0515H63.6662L64.057 30.7715H65.793C65.9214 31.0107 66.0466 31.2475 66.1778 31.4895H67.9054C67.9802 31.5863 68.037 31.7295 68.067 31.8975C68.097 32.0651 68.0982 32.2479 68.0706 32.4175C68.0546 32.5195 68.027 32.6127 67.9894 32.6891C67.9522 32.7655 67.9062 32.8231 67.8554 32.8575C67.6406 32.8947 67.425 32.9011 67.2098 32.8771C66.9118 33.3863 66.731 34.0127 66.397 34.2799H65.8698C65.5502 34.7703 65.2542 35.3183 64.985 35.9171C64.6678 36.6175 64.3206 37.2623 63.9478 37.8443H63.3214C63.2122 38.0623 63.1294 38.2295 63.0446 38.3991C62.7434 38.5111 62.4358 38.5403 62.1306 38.4867C61.8178 38.4271 61.5022 38.4635 61.1946 38.5943C61.0902 38.8051 61.0074 38.9679 60.9102 39.1651H59.5374L59.1366 39.8855H56.7146C56.5822 40.1299 56.4554 40.3647 56.327 40.6011H53.183C52.9518 41.1183 52.6954 41.5887 52.4174 42.0051C52.2326 41.9839 52.047 41.9951 51.865 42.0051C51.759 42.0111 51.6542 42.0171 51.5518 42.0171C51.401 42.0231 51.2506 42.0027 51.1018 41.9563ZM14.2566 40.5523C14.0909 40.2203 13.926 39.8903 13.7618 39.5619C13.774 39.3959 13.7694 39.2271 13.7484 39.0647C13.7274 38.9023 13.6903 38.7499 13.6394 38.6163C13.5127 38.4907 13.3693 38.4483 13.2297 38.4947C13.1314 38.5427 13.0283 38.5331 12.9325 38.4679C12.8369 38.4023 12.7525 38.2839 12.6896 38.1259C12.4871 37.5563 11.9946 37.9279 11.851 37.1355C11.7342 37.1199 11.6213 37.1035 11.4787 37.0915C11.1286 36.3919 10.7629 35.6603 10.4071 34.9507H9.70059C9.41567 34.0267 9.01359 34.2511 8.73226 34.3567C8.47515 34.7627 8.29478 35.0511 8.21202 35.1799C8.13194 35.7371 8.08663 36.0491 8.04659 36.3263C7.62495 35.4795 7.22219 34.6687 6.75591 33.7387V31.2099C6.44615 30.3711 6.00107 29.8155 5.73002 28.9887C5.85046 28.6975 5.95735 28.4387 6.04275 28.2295C6.01943 27.5131 6.03991 26.7943 6.10367 26.0879C6.27871 25.7935 6.44583 25.4751 6.39619 24.9423C6.62287 24.4259 6.85951 23.9271 7.08883 23.3335C7.15831 23.1547 7.01503 22.6471 7.21655 22.4883C7.39727 22.3495 7.45747 22.8135 7.59415 22.9827C7.82463 23.0739 8.06067 23.0963 8.29447 23.0487C8.56079 22.9843 8.83086 23.0275 9.08867 23.1759C9.18995 23.3799 9.27234 23.5435 9.36434 23.7303C9.48479 23.5087 9.60723 23.2863 9.73499 23.0543H11.1223C11.247 23.2883 11.3731 23.5251 11.4886 23.7403H12.5265C12.6667 23.4903 12.7939 23.2623 12.912 23.0471C13.0404 23.0735 13.1523 23.0979 13.2651 23.1131C13.5233 23.5539 13.7046 24.1779 14.0355 24.4531C14.1513 24.4655 14.2673 24.4655 14.383 24.4531C14.6094 24.4047 14.8384 24.4527 15.0548 24.5943C15.261 25.0091 15.4665 25.4203 15.6793 25.8455H16.3639C16.4937 26.0903 16.6191 26.3243 16.7475 26.5635H17.0821C17.2145 26.8111 17.3416 27.0427 17.4713 27.2843H18.8943C18.9458 27.5175 19.0323 27.7131 19.1418 27.8443C19.2513 27.9755 19.3785 28.0359 19.5059 28.0171C19.7286 28.3987 19.903 28.6991 20.0758 28.9947C19.768 29.6139 19.4801 30.1895 19.1899 30.7703H18.8367C18.6765 31.1003 18.5141 31.4303 18.345 31.7755C18.3357 31.8619 18.3225 31.9703 18.3119 32.0779C18.248 32.8091 18.2295 32.8595 17.9084 32.8759C17.7397 32.8811 17.5696 32.8759 17.4415 32.8759C17.1401 33.3847 16.9617 34.0139 16.6271 34.2779H16.1032C16.052 34.3143 16.0039 34.3659 15.9605 34.4311C15.5876 35.1679 15.2176 35.9111 14.8066 36.7343V38.7191C14.8066 39.0683 14.8066 39.4187 14.8066 39.7679C14.8066 40.3747 14.7384 40.5603 14.4316 40.5603C14.3817 40.5667 14.3231 40.5615 14.2566 40.5523ZM35.9802 23.7403C35.7423 23.2123 35.4705 22.6075 35.1601 21.9163C35.1565 21.8411 35.1459 21.6155 35.134 21.3519C35.0297 21.1231 34.9156 20.8671 34.7902 20.5903V17.1123C34.9024 16.8693 35.0192 16.6146 35.1409 16.3532V15.697C35.2652 15.4219 35.3798 15.1694 35.4848 14.9392C35.4967 14.6752 35.5073 14.4488 35.5159 14.2237C35.7231 13.8091 35.9293 13.3947 36.1417 12.9696C36.2132 12.5795 36.1536 12.0657 36.3827 11.7812C36.559 11.5634 36.5385 11.2031 36.5365 10.7027C36.8036 10.2459 37.1107 9.71253 37.5118 9.02733C37.4254 9.06961 37.4787 9.03453 37.531 9.01605C37.9282 8.86225 37.9246 8.86245 37.9418 8.22413C37.9538 7.78585 37.8582 7.28517 38.1102 6.93005H38.787C38.9194 6.68253 39.0438 6.44845 39.173 6.20421H39.511C39.6406 6.44581 39.7662 6.67921 39.8978 6.93005H40.5774C40.8054 7.45985 41.0678 7.92617 41.3578 8.31633C41.4138 8.31633 41.4714 8.31633 41.5286 8.31633C41.8158 8.30377 42.1042 8.28985 42.281 8.93741C42.423 8.93209 42.5634 8.99949 42.689 9.13305C42.8142 9.26665 42.9206 9.46209 42.9974 9.70065H44.4126C44.777 10.4268 45.141 11.153 45.499 11.8685H46.173C46.3386 12.1438 46.471 12.359 46.5766 12.5287C46.7906 12.5287 46.9662 12.5173 47.1414 12.5338C47.1918 12.5371 47.2686 12.582 47.2854 12.6579C47.4894 13.4586 48.0774 13.0314 48.2654 13.8869C48.2774 13.9417 48.373 13.9417 48.4258 13.9278C48.467 13.9072 48.5098 13.9045 48.5518 13.9194C48.5938 13.9343 48.6334 13.9668 48.6686 14.0145C48.7038 14.0623 48.7334 14.1241 48.7558 14.1963C48.7782 14.2685 48.7926 14.3494 48.7982 14.4335C48.8206 14.6315 48.8094 14.982 48.747 15.0685C48.477 15.4315 48.4822 16.0258 48.3782 16.5308C48.3598 16.6199 48.2934 16.6719 48.235 16.757H47.5678C47.2278 17.4409 46.897 18.1017 46.5606 18.7764C46.2174 18.8617 45.8714 18.8839 45.5262 18.8424C45.1386 18.7868 44.749 18.8261 44.3662 18.9598L44.0834 19.5241H43.0514L42.6658 20.2503H39.525C39.3966 20.4919 39.2702 20.7255 39.1498 20.9487C39.0258 20.9659 38.9118 20.9759 38.7986 20.9915C38.539 21.4411 38.3522 22.0579 38.0282 22.3475C37.9234 22.4191 37.8146 22.4631 37.7041 22.4795C37.4972 22.8927 37.2921 23.3079 37.0753 23.7435L35.9802 23.7403ZM15.7365 14.0367C15.534 13.6334 15.3325 13.2294 15.1409 12.8419V10.7382C14.7927 10.0385 14.4631 9.37997 14.1209 8.69213V7.33617C13.9998 7.07213 13.8843 6.82001 13.7615 6.55133V3.55445C13.9588 3.54661 14.1521 3.44233 14.3245 3.25085C14.4969 3.05937 14.6431 2.78645 14.7503 2.45601C14.8291 1.93453 14.8771 1.62753 14.9234 1.31793H16.3537C16.4841 1.07633 16.6102 0.842731 16.7429 0.599812H17.7827C17.9055 0.831532 18.0316 1.06197 18.1646 1.31085H19.1855C19.3239 1.55837 19.4503 1.78869 19.5853 2.02897H20.2382C20.3948 2.29301 20.5219 2.51085 20.6337 2.70161C20.8379 2.70161 21.0136 2.69569 21.188 2.70161C21.2414 2.71949 21.2933 2.75125 21.3426 2.79605C21.3807 2.88457 21.4225 2.96673 21.4673 3.04165C21.5554 3.17037 21.6497 3.28321 21.7417 3.40137C22.3321 3.36969 22.3374 3.36973 22.6951 4.10113H23.1693C24.1009 4.10113 25.0328 4.09241 25.9644 4.10561C26.0721 4.13389 26.1779 4.18601 26.2798 4.26129C26.3629 4.42829 26.4453 4.59133 26.5274 4.75637C27.1389 4.88841 27.2223 5.20745 26.9036 6.20421H26.2126C25.9059 6.48409 26.1465 7.34549 25.8155 7.62141H25.0984C25.0481 7.91581 24.9971 8.22329 24.9402 8.56257C25.0872 8.92597 25.2528 9.25781 25.4343 9.55273C25.6635 9.77525 25.904 9.94805 26.1517 10.0678C25.8109 10.6091 25.5399 11.0387 25.3052 11.407V12.8658C25.1173 13.2651 24.9577 13.605 24.8088 13.9278H22.0025C21.8721 14.1694 21.7467 14.4046 21.6385 14.6079H20.5993C20.454 14.3524 20.3269 14.1271 20.2299 13.9575H16.7253C16.4702 14.4281 16.3302 14.6591 16.1975 14.6591C16.0671 14.6664 15.945 14.454 15.7362 14.0355L15.7365 14.0367ZM59.137 5.50961H58.6766V5.50381C58.6938 5.17561 58.6662 4.84421 58.5974 4.54429C58.5282 4.24437 58.4202 3.98693 58.2842 3.79877V2.36769C58.3718 2.17497 58.483 1.92189 58.611 1.63605V-1.14743C58.891 -1.70983 59.1694 -2.30259 59.4714 -2.83991C59.5374 -2.96267 59.689 -2.89803 59.8874 -2.93435C60.107 -3.44395 60.3702 -4.06123 60.6926 -4.81375C60.6366 -5.23623 60.823 -5.65067 61.0478 -6.01371C61.0554 -6.13715 61.065 -6.24543 61.073 -6.35763C61.1086 -6.88571 61.175 -7.11091 61.3134 -7.12411C61.5402 -7.14655 61.7666 -7.14363 61.9166 -7.14891C62.1482 -7.56347 62.3194 -7.86999 62.4622 -8.12875C62.4954 -8.54195 62.415 -8.92731 62.6362 -9.17947C62.7458 -8.99399 62.8658 -8.78927 62.9898 -8.57871C63.3126 -8.79651 63.0562 -9.66599 63.3506 -9.93595H63.6986C63.757 -9.75311 63.8782 -9.54835 63.8642 -9.39123C63.7982 -8.62355 64.3482 -8.37023 64.225 -7.58275C64.3366 -7.32399 64.4466 -7.06659 64.5594 -6.81047C64.5986 -6.72531 64.6346 -6.60375 64.6842 -6.56875C64.941 -6.38523 65.2398 -6.38063 65.4066 -5.82615C65.4262 -5.78875 65.4498 -5.76095 65.4758 -5.74459C65.5014 -5.72823 65.529 -5.72371 65.5558 -5.73171C65.8342 -5.81423 65.959 -5.38531 66.1378 -5.05195H66.8094C66.9418 -4.81167 67.0698 -4.58403 67.2086 -4.33255H69.2842L69.665 -3.61667H71.0522C71.1806 -3.37771 71.3058 -3.14147 71.4358 -2.89855H72.1662C72.2138 -2.59755 72.2638 -2.29187 72.2966 -2.08987C71.9766 -1.44563 71.6914 -0.876829 71.3178 -0.128908C71.1322 -0.0603485 70.9426 -0.0499477 70.7554 -0.0979881C70.4842 -0.168348 70.209 -0.129108 69.9458 0.0170918C69.8546 0.199251 69.7722 0.363611 69.6894 0.52729C69.5774 0.54973 69.4654 0.583891 69.3534 0.58917C69.2514 0.593811 69.1494 0.593132 69.0474 0.58917C68.975 0.58917 68.9022 0.58917 68.8294 0.58917C68.6006 0.593811 68.4242 0.800451 68.471 1.01369C68.4922 1.12513 68.5342 1.21597 68.5882 1.26701C68.6422 1.31805 68.7042 1.32541 68.7606 1.28765C68.8166 1.24897 68.877 1.24973 68.9326 1.28989C68.9878 1.33005 69.0346 1.40717 69.065 1.50809C69.1174 1.67049 69.0718 1.81785 68.955 2.00993C68.821 2.22185 68.7034 2.47193 68.575 2.71549H67.209C67.0622 2.97225 66.9346 3.19881 66.805 3.42521H61.5838C61.3646 3.86353 61.1586 4.27457 60.9474 4.69901C60.7574 4.87129 60.511 4.74273 60.3518 5.17377C60.201 5.52833 60.0378 5.86049 59.863 6.16777C59.749 6.18361 59.6354 6.19553 59.5126 6.20873C59.3902 5.98077 59.265 5.74729 59.1366 5.50833L59.137 5.50961ZM32.5395 -6.42823C32.1043 -7.27247 31.688 -8.07839 31.277 -8.87843V-10.2741C31.1529 -10.5467 31.0387 -10.802 30.9437 -11.0067V-12.4094C31.1052 -12.7724 31.2988 -13.0099 31.2895 -13.5716C31.2803 -14.1334 31.6757 -14.3337 31.6476 -15.0314C31.6297 -15.4809 31.9124 -15.7311 32.0666 -16.0651C32.2651 -16.4895 32.4998 -16.8569 32.6749 -17.3131C32.8403 -17.7428 33.0975 -17.5362 33.2781 -17.7943C33.3817 -17.9421 33.3817 -18.1463 33.3893 -18.4038C33.4049 -18.9813 33.4224 -18.9857 33.8811 -19.0597C33.9953 -19.2656 34.1213 -19.4908 34.2636 -19.7436H34.9527C35.0655 -19.5317 35.1903 -19.2981 35.3167 -19.0552H36.3539C36.4823 -19.2981 36.609 -19.5344 36.7275 -19.7568H43.3642L43.7466 -19.0432H46.5194C46.6598 -18.7911 46.787 -18.5654 46.9206 -18.3232H47.573C47.7294 -18.0591 47.857 -17.8392 47.959 -17.6682C48.059 -17.6391 48.1606 -17.6353 48.2614 -17.657C48.4642 -17.682 48.6554 -17.708 48.8014 -17.304V-16.3655C48.6338 -16.4003 48.4646 -16.3423 48.3126 -16.1979C48.1606 -16.0534 48.0314 -15.8281 47.9394 -15.5468C47.6202 -15.5468 47.2742 -15.5763 46.9318 -15.5255C46.8802 -15.4971 46.833 -15.4434 46.7942 -15.3692C46.7554 -15.2949 46.727 -15.2027 46.711 -15.1007C46.693 -14.6576 46.6898 -14.2125 46.7014 -13.7686C46.5834 -13.6273 46.485 -13.4285 46.4154 -13.191C46.3462 -12.9535 46.3078 -12.6849 46.3046 -12.41C46.1242 -11.9902 45.9734 -11.6383 45.847 -11.3399C45.6854 -11.3241 45.5714 -11.315 45.4686 -11.3077C45.3362 -11.0648 45.2082 -10.8395 45.073 -10.5993H44.425C44.2662 -10.3352 44.1378 -10.1189 44.0278 -9.93339C43.355 -9.93339 42.715 -9.93347 42.0754 -9.92951C42.0218 -9.91319 41.9698 -9.88135 41.921 -9.83507C41.8386 -9.67135 41.7554 -9.50475 41.623 -9.24071C41.4126 -9.21503 41.2014 -9.21235 40.991 -9.23235C40.725 -9.26279 40.4586 -9.24807 40.1942 -9.18819L39.8658 -8.52807C38.3982 -8.52807 36.8906 -8.53403 35.3832 -8.52807C35.3342 -8.52807 35.2863 -8.43751 35.2422 -8.39595C35.1099 -8.18271 35.0304 -7.79079 34.8302 -7.83899C34.5446 -7.90963 34.4423 -7.43291 34.2603 -7.14183H33.9294C33.799 -6.90023 33.6729 -6.66247 33.5489 -6.43207L32.5395 -6.42823Z" fill="#008060" fill-opacity="0.2"/>
<path d="M22.6414 33.2246C22.6414 34.3867 22.655 35.4053 22.6824 36.2803C22.7234 37.1416 22.7644 37.8867 22.8054 38.5156C22.8601 39.1445 22.9216 39.6709 22.99 40.0947C23.072 40.5186 23.1541 40.874 23.2361 41.1611V41.2432H18.3142V41.1611C18.3962 40.874 18.4714 40.5186 18.5398 40.0947C18.6218 39.6709 18.6902 39.1445 18.7449 38.5156C18.7996 37.8867 18.8406 37.1416 18.8679 36.2803C18.8953 35.4053 18.9089 34.3867 18.9089 33.2246V19.874C18.9089 18.7119 18.8953 17.7002 18.8679 16.8389C18.8406 15.9639 18.7996 15.2119 18.7449 14.583C18.6902 13.9404 18.6218 13.4072 18.5398 12.9834C18.4714 12.5596 18.3962 12.2041 18.3142 11.917V11.835C19.449 11.835 20.5974 11.835 21.7595 11.835C22.9216 11.8213 24.0496 11.8145 25.1433 11.8145C26.2371 11.8008 27.2761 11.7871 28.2605 11.7734C29.2449 11.7461 30.1336 11.7256 30.9265 11.7119C31.7195 11.6846 32.3894 11.6572 32.9363 11.6299C33.4832 11.5889 33.8728 11.5479 34.1052 11.5068L33.1004 14.2344C32.6492 14.1113 32.1228 14.002 31.5212 13.9062C31.0017 13.8242 30.366 13.749 29.614 13.6807C28.8757 13.5986 28.0212 13.5576 27.0505 13.5576C26.7224 13.5576 26.3123 13.5713 25.8201 13.5986C25.3279 13.6123 24.8425 13.6328 24.364 13.6602C23.8171 13.6875 23.2429 13.7148 22.6414 13.7422V24.0986C24.0496 24.085 25.3416 24.0439 26.5173 23.9756C27.6931 23.9072 28.7048 23.8389 29.5525 23.7705C30.5369 23.6885 31.4255 23.5928 32.2185 23.4834L31.6033 26.457C30.5779 26.334 29.5388 26.2178 28.4861 26.1084C27.5837 26.0127 26.613 25.9307 25.574 25.8623C24.5349 25.7803 23.5574 25.7393 22.6414 25.7393V33.2246ZM40.3987 41.1611C40.4807 40.874 40.5559 40.5186 40.6243 40.0947C40.7063 39.6709 40.7746 39.1445 40.8293 38.5156C40.884 37.8867 40.925 37.1416 40.9524 36.2803C40.9797 35.4053 40.9934 34.3867 40.9934 33.2246V19.874C40.9934 18.7119 40.9797 17.7002 40.9524 16.8389C40.925 15.9639 40.884 15.2119 40.8293 14.583C40.7746 13.9404 40.7063 13.4072 40.6243 12.9834C40.5559 12.5596 40.4807 12.2041 40.3987 11.917V11.835H45.3205V11.917C45.2385 12.2041 45.1565 12.5596 45.0745 12.9834C45.0061 13.4072 44.9446 13.9404 44.8899 14.583C44.8489 15.2119 44.8079 15.9639 44.7668 16.8389C44.7395 17.7002 44.7258 18.7119 44.7258 19.874V24.4473L56.7024 14.665C58.0422 13.5713 58.7121 12.6279 58.7121 11.835H64.4748V11.917C63.6682 12.1084 62.8479 12.4775 62.0139 13.0244C61.1936 13.5576 60.3186 14.2139 59.3889 14.9932L48.8069 23.8525L61.5422 37.8389C62.0754 38.3857 62.5266 38.8438 62.8957 39.2129C63.2786 39.5684 63.6135 39.8691 63.9006 40.1152C64.1877 40.3477 64.4475 40.5459 64.6799 40.71C64.926 40.8604 65.1789 41.0107 65.4387 41.1611V41.2432H59.4299C59.3752 41.1201 59.2795 40.9629 59.1428 40.7715C59.0198 40.5801 58.8694 40.3818 58.6916 40.1768C58.5276 39.9717 58.343 39.7598 58.1379 39.541C57.9465 39.3223 57.762 39.1172 57.5842 38.9258L44.7258 24.8164V33.2246C44.7258 34.3867 44.7395 35.4053 44.7668 36.2803C44.8079 37.1416 44.8489 37.8867 44.8899 38.5156C44.9446 39.1445 45.0061 39.6709 45.0745 40.0947C45.1565 40.5186 45.2385 40.874 45.3205 41.1611V41.2432H40.3987V41.1611Z" fill="white"/>
<path d="M18.3789 55.085C18.3789 54.5869 18.373 54.1533 18.3613 53.7842C18.3496 53.4092 18.332 53.0869 18.3086 52.8174C18.2852 52.542 18.2559 52.3135 18.2207 52.1318C18.1914 51.9502 18.1592 51.7979 18.124 51.6748V51.6396C18.2412 51.6455 18.3643 51.6484 18.4932 51.6484C18.6045 51.6543 18.7275 51.6572 18.8623 51.6572C19.0029 51.6572 19.1465 51.6572 19.293 51.6572C19.5039 51.6572 19.7881 51.6367 20.1455 51.5957C20.5088 51.5547 20.9746 51.5342 21.543 51.5342C22.0703 51.5342 22.5566 51.6045 23.002 51.7451C23.4473 51.8799 23.8311 52.0762 24.1533 52.334C24.4814 52.5918 24.7363 52.9111 24.918 53.292C25.1055 53.667 25.1992 54.0947 25.1992 54.5752C25.1992 54.9795 25.1436 55.3428 25.0322 55.665C24.9209 55.9814 24.7627 56.2598 24.5576 56.5C24.3584 56.7344 24.1152 56.9336 23.8281 57.0977C23.5469 57.2559 23.2363 57.3818 22.8965 57.4756C23.3945 57.5518 23.8486 57.6807 24.2588 57.8623C24.6689 58.0381 25.0205 58.2607 25.3135 58.5303C25.6123 58.7998 25.8408 59.1162 25.999 59.4795C26.1631 59.8369 26.2451 60.2354 26.2451 60.6748C26.2451 61.9111 25.8379 62.8398 25.0234 63.4609C24.209 64.0762 22.9902 64.3838 21.3672 64.3838C21.1914 64.3838 20.9863 64.375 20.752 64.3574C20.5176 64.3457 20.2773 64.3311 20.0312 64.3135C19.791 64.2959 19.5537 64.2783 19.3193 64.2607C19.085 64.249 18.8799 64.2432 18.7041 64.2432H18.124V64.208C18.1592 64.085 18.1914 63.9326 18.2207 63.751C18.2559 63.5693 18.2852 63.3438 18.3086 63.0742C18.332 62.8047 18.3496 62.4854 18.3613 62.1162C18.373 61.7412 18.3789 61.3047 18.3789 60.8066V55.085ZM21.6045 58.0117C21.2061 58.0117 20.8721 58.0264 20.6025 58.0557C20.333 58.085 20.125 58.1143 19.9785 58.1436V60.8066C19.9785 61.4922 19.9902 62.0576 20.0137 62.5029C20.0371 62.9482 20.0693 63.3115 20.1104 63.5928C20.333 63.6221 20.5557 63.6484 20.7783 63.6719C21.001 63.6953 21.1797 63.707 21.3145 63.707C22.4102 63.707 23.21 63.4639 23.7139 62.9775C24.2236 62.4854 24.4785 61.7324 24.4785 60.7188C24.4785 60.3203 24.417 59.957 24.2939 59.6289C24.1768 59.2949 23.998 59.0078 23.7578 58.7676C23.5234 58.5273 23.2246 58.3428 22.8613 58.2139C22.5039 58.0791 22.085 58.0117 21.6045 58.0117ZM19.9785 57.3525C20.1426 57.3701 20.2891 57.3818 20.418 57.3877C20.5469 57.3877 20.6846 57.3877 20.8311 57.3877C21.2295 57.3877 21.5928 57.332 21.9209 57.2207C22.249 57.1035 22.5273 56.9307 22.7559 56.7021C22.9902 56.4736 23.1719 56.1895 23.3008 55.8496C23.4297 55.5039 23.4941 55.1025 23.4941 54.6455C23.4941 54.2646 23.4473 53.9189 23.3535 53.6084C23.2598 53.2979 23.1191 53.0342 22.9316 52.8174C22.75 52.5947 22.5244 52.4248 22.2549 52.3076C21.9854 52.1904 21.6777 52.1318 21.332 52.1318C21.1094 52.1318 20.9131 52.1406 20.7432 52.1582C20.5791 52.1758 20.4385 52.1963 20.3213 52.2197C20.1865 52.2432 20.0723 52.2725 19.9785 52.3076V57.3525ZM30.0859 63.4697C30.7773 63.4697 31.4131 63.4404 31.9932 63.3818C32.5732 63.3232 33.0801 63.2559 33.5137 63.1797C34.0176 63.0977 34.4775 63.001 34.8936 62.8896L34.6387 64.3135C34.5684 64.3076 34.4629 64.3018 34.3223 64.2959C34.1816 64.29 34.0234 64.2842 33.8477 64.2783C33.6777 64.2725 33.4961 64.2666 33.3027 64.2607C33.1152 64.2607 32.9365 64.2578 32.7666 64.252C32.5967 64.252 32.4443 64.249 32.3096 64.2432C32.1807 64.2432 32.0869 64.2432 32.0283 64.2432H28.2314V64.208C28.2666 64.085 28.2988 63.9326 28.3281 63.751C28.3633 63.5693 28.3926 63.3438 28.416 63.0742C28.4395 62.8047 28.457 62.4854 28.4688 62.1162C28.4805 61.7412 28.4863 61.3047 28.4863 60.8066V55.085C28.4863 54.5869 28.4805 54.1533 28.4688 53.7842C28.457 53.4092 28.4395 53.0869 28.416 52.8174C28.3926 52.542 28.3633 52.3135 28.3281 52.1318C28.2988 51.9502 28.2666 51.7979 28.2314 51.6748V51.6396H30.3408V51.6748C30.3057 51.7979 30.2705 51.9502 30.2354 52.1318C30.2061 52.3135 30.1797 52.542 30.1562 52.8174C30.1387 53.0869 30.1211 53.4092 30.1035 53.7842C30.0918 54.1533 30.0859 54.5869 30.0859 55.085V63.4697ZM42.2588 51.4287C43.2373 51.4287 44.1396 51.5898 44.9658 51.9121C45.7979 52.2285 46.5156 52.6768 47.1191 53.2568C47.7227 53.8311 48.1943 54.5225 48.5342 55.3311C48.874 56.1396 49.0439 57.0332 49.0439 58.0117C49.0439 58.5684 48.9795 59.1162 48.8506 59.6553C48.7217 60.1943 48.5312 60.7041 48.2793 61.1846C48.0332 61.665 47.7285 62.1104 47.3652 62.5205C47.002 62.9248 46.5859 63.2764 46.1172 63.5752C45.6543 63.8682 45.1416 64.0967 44.5791 64.2607C44.0166 64.4307 43.4102 64.5156 42.7598 64.5156C41.7812 64.5156 40.876 64.3604 40.0439 64.0498C39.2178 63.7334 38.5029 63.2881 37.8994 62.7139C37.2959 62.1396 36.8242 61.4512 36.4844 60.6484C36.1445 59.8398 35.9746 58.9434 35.9746 57.959C35.9746 57.4023 36.0391 56.8545 36.168 56.3154C36.2969 55.7764 36.4844 55.2637 36.7305 54.7773C36.9824 54.291 37.2871 53.8457 37.6445 53.4414C38.0078 53.0312 38.4209 52.6768 38.8838 52.3779C39.3525 52.0791 39.8682 51.8477 40.4307 51.6836C40.999 51.5137 41.6084 51.4287 42.2588 51.4287ZM42.7598 63.7246C43.4102 63.7246 44.0049 63.6074 44.5439 63.373C45.083 63.1387 45.5459 62.7988 45.9326 62.3535C46.3252 61.9082 46.6299 61.3662 46.8467 60.7275C47.0635 60.083 47.1719 59.3535 47.1719 58.5391C47.1719 57.6367 47.0664 56.8018 46.8555 56.0342C46.6504 55.2607 46.3428 54.5928 45.9326 54.0303C45.5225 53.4619 45.0098 53.0195 44.3945 52.7031C43.7852 52.3809 43.0732 52.2197 42.2588 52.2197C41.6084 52.2197 41.0137 52.3369 40.4746 52.5713C39.9355 52.7998 39.4697 53.1338 39.0771 53.5732C38.6904 54.0127 38.3887 54.5518 38.1719 55.1904C37.9551 55.8291 37.8467 56.5557 37.8467 57.3701C37.8467 58.2666 37.9492 59.1045 38.1543 59.8838C38.3594 60.6572 38.667 61.3281 39.0771 61.8965C39.4873 62.4648 40 62.9131 40.6152 63.2412C41.2305 63.5635 41.9453 63.7246 42.7598 63.7246ZM62.1221 62.7666C62.1221 62.8311 62.1133 62.8984 62.0957 62.9688C62.084 63.0391 62.0518 63.0977 61.999 63.1445C61.7354 63.3438 61.4482 63.5283 61.1377 63.6982C60.833 63.8623 60.502 64.0059 60.1445 64.1289C59.7871 64.252 59.4004 64.3457 58.9844 64.4102C58.5742 64.4805 58.1318 64.5156 57.6572 64.5156C56.5908 64.5156 55.6182 64.3604 54.7393 64.0498C53.8604 63.7334 53.1045 63.2881 52.4717 62.7139C51.8447 62.1396 51.3584 61.4512 51.0127 60.6484C50.667 59.8398 50.4941 58.9434 50.4941 57.959C50.4941 57.4023 50.5645 56.8545 50.7051 56.3154C50.8516 55.7764 51.0625 55.2637 51.3379 54.7773C51.6133 54.291 51.9531 53.8457 52.3574 53.4414C52.7617 53.0312 53.2217 52.6768 53.7373 52.3779C54.2588 52.0791 54.8301 51.8477 55.4512 51.6836C56.0781 51.5137 56.7549 51.4287 57.4814 51.4287C57.7627 51.4287 58.0498 51.4434 58.3428 51.4727C58.6357 51.4961 58.9258 51.5342 59.2129 51.5869C59.5 51.6338 59.7754 51.6924 60.0391 51.7627C60.3086 51.833 60.5635 51.9121 60.8037 52L61.4014 53.626L61.3311 53.6611C61.1025 53.4561 60.8389 53.2656 60.54 53.0898C60.2412 52.9141 59.9219 52.7617 59.582 52.6328C59.2422 52.5039 58.8848 52.4043 58.5098 52.334C58.1406 52.2578 57.7656 52.2197 57.3848 52.2197C56.6465 52.2197 55.9697 52.3369 55.3545 52.5713C54.7393 52.7998 54.209 53.1338 53.7637 53.5732C53.3242 54.0127 52.9814 54.5518 52.7354 55.1904C52.4893 55.8291 52.3662 56.5557 52.3662 57.3701C52.3662 58.2666 52.4834 59.0986 52.7178 59.8662C52.9521 60.6338 53.3008 61.2988 53.7637 61.8613C54.2266 62.4238 54.8037 62.8662 55.4951 63.1885C56.1924 63.5049 57.0039 63.6631 57.9297 63.6631C58.3398 63.6631 58.7061 63.6309 59.0283 63.5664C59.3506 63.502 59.623 63.4229 59.8457 63.3291C60.0684 63.2295 60.2354 63.124 60.3467 63.0127C60.4639 62.8955 60.5225 62.79 60.5225 62.6963V62.3535C60.5225 61.9434 60.5166 61.5889 60.5049 61.29C60.4932 60.9912 60.4756 60.7334 60.4521 60.5166C60.4287 60.2939 60.4023 60.1035 60.373 59.9453C60.3438 59.7871 60.3086 59.6406 60.2676 59.5059V59.4707H62.377V59.5059C62.3418 59.6289 62.3066 59.7754 62.2715 59.9453C62.2422 60.1094 62.2158 60.3057 62.1924 60.5342C62.1689 60.7627 62.1514 61.0322 62.1396 61.3428C62.1279 61.6475 62.1221 62.002 62.1221 62.4062V62.7666Z" fill="white"/>
</g>
<line x1="88.4998" y1="39.9642" x2="1240.5" y2="39.5218" stroke="#1C5540" stroke-linecap="square"/>
<path d="M1266 1.1875L1252.78 20.0764H1258.44V23.8542H1273.56V20.0764H1279.22L1266 1.1875ZM1258.44 29.5208H1273.56V25.7431H1258.44V29.5208ZM1258.44 33.2986H1273.56V31.4097H1258.44V33.2986Z" fill="url(#paint0_linear_109_2799)"/>
<path d="M1266 79.2988L1279.22 60.4099H1273.56V56.6322H1258.44V60.4099H1252.78L1266 79.2988ZM1273.56 50.9655H1258.44V54.7433H1273.56V50.9655ZM1273.56 47.1877H1258.44V49.0766H1273.56V47.1877Z" fill="url(#paint1_linear_109_2799)"/>
<defs>
<linearGradient id="paint0_linear_109_2799" x1="1266" y1="1.1875" x2="1266" y2="33.2986" gradientUnits="userSpaceOnUse">
<stop stop-color="#CED4DA"/>
<stop offset="1" stop-color="#007356"/>
</linearGradient>
<linearGradient id="paint1_linear_109_2799" x1="1266" y1="79.2988" x2="1266" y2="47.1877" gradientUnits="userSpaceOnUse">
<stop stop-color="#CED4DA"/>
<stop offset="1" stop-color="#007356"/>
</linearGradient>
<clipPath id="clip0_109_2799">
<rect width="80" height="80" fill="white" transform="translate(0 0.243164)"/>
</clipPath>
</defs>
</svg>
