<svg width="16" height="17" viewBox="0 0 16 17" fill="none" xmlns="http://www.w3.org/2000/svg">
<path d="M7.46875 1.09893C6.01875 1.19268 4.525 1.78018 3.3625 2.71143C2.8375 3.13018 2.21875 3.81143 1.825 4.40518C1.575 4.78643 1.175 5.59268 1.025 6.01143C0.7375 6.86143 0.625 7.54268 0.625 8.46768C0.625 9.23018 0.66875 9.61143 0.8375 10.2864C1.5875 13.2614 4.1625 15.4864 7.23125 15.8114C7.61875 15.8489 8.375 15.8489 8.75625 15.8114C10.1938 15.6552 11.625 15.0489 12.7312 14.1239C13.8938 13.1489 14.7625 11.7802 15.1313 10.3489C15.325 9.59268 15.4 8.93018 15.3687 8.21143C15.325 7.09268 15.075 6.12393 14.5813 5.14893C14.1875 4.38018 13.7812 3.81768 13.175 3.21768C12.5813 2.63643 11.9625 2.19268 11.2375 1.83643C10.35 1.40518 9.48125 1.17393 8.46875 1.09893C8.00625 1.06143 7.99375 1.06143 7.46875 1.09893ZM8.46875 2.57393C8.94375 2.61768 9.425 2.71768 9.85625 2.85518C11.5375 3.41143 12.9 4.71768 13.5188 6.37393C14.325 8.53018 13.8375 10.9052 12.2437 12.5552C11.3 13.5364 10.1312 14.1239 8.775 14.3114C8.31875 14.3739 7.41875 14.3614 6.975 14.2802C5.35 13.9864 3.925 13.0427 3.03125 11.6614C1.70625 9.62393 1.7875 6.91143 3.2375 4.94893C4.4625 3.31143 6.475 2.39268 8.46875 2.57393Z" fill="#232323"/>
<path d="M9.69373 7.32373C8.78748 8.25498 7.77498 9.29248 7.44373 9.62373L6.84373 10.23L5.86248 9.32998L4.87498 8.42373L4.66873 8.61123C4.55623 8.71123 4.34373 8.91123 4.18748 9.05498L3.91248 9.31748L5.39998 10.7925C6.21873 11.605 6.89998 12.2612 6.91248 12.2487C6.91873 12.2362 7.04998 12.0925 7.19373 11.9362C7.33748 11.78 8.59373 10.3112 9.98123 8.67373L12.5062 5.69873L12.2125 5.67998C12.0437 5.67373 11.7875 5.65498 11.625 5.64873L11.3375 5.63623L9.69373 7.32373Z" fill="#232323"/>
</svg>
