<svg width="1283" height="81" viewBox="0 0 1283 81" fill="none" xmlns="http://www.w3.org/2000/svg">
<g clip-path="url(#clip0_109_2843)">
<rect width="80" height="80" transform="translate(0 0.455078)" fill="#1C5540"/>
<path d="M28.6804 80.7838C28.4421 80.4778 28.2448 80.0606 28.1056 79.5682V76.2214C28.0094 76.0574 27.9208 75.8766 27.8409 75.6814C27.7919 75.5446 27.7653 75.3814 27.7649 75.2134C27.7645 75.0458 27.7903 74.8814 27.8385 74.7438C27.9271 74.4978 28.023 74.2626 28.1258 74.0398V72.8858C27.9906 72.409 27.8734 71.9126 27.775 71.4014L28.1215 70.6378V69.9814C28.2031 69.8358 28.2928 69.7098 28.3889 69.6054C28.4881 69.5214 28.6156 69.5642 28.7073 69.465C28.8013 69.3278 28.8852 69.165 28.9567 68.9814C29.182 68.8918 29.4123 68.8618 29.6415 68.891C29.7649 68.8958 29.891 68.901 30.0207 68.891C30.2276 68.6622 30.3659 67.9978 30.7253 68.2182C30.8907 67.9034 31.0542 67.5894 31.2121 67.287C31.3319 66.8994 31.2121 66.3386 31.4735 66.0874H32.8515C32.9819 66.3326 33.1073 66.5666 33.2364 66.807H34.268C34.5641 67.401 34.8484 67.9834 35.1419 68.5466C35.2269 68.683 35.3191 68.7998 35.4169 68.8954H35.9713C36.0825 69.0838 36.2096 69.3018 36.3654 69.5658H37.0177C37.1517 69.8058 37.2785 70.031 37.4175 70.2838H38.0914C38.2198 70.5266 38.3462 70.763 38.4726 70.9994C38.8178 70.9994 39.1678 70.9882 39.515 71.0106C39.5578 71.0106 39.6086 71.1506 39.6354 71.247C39.6414 71.2866 39.6434 71.329 39.6402 71.3702C39.6374 71.4118 39.6298 71.451 39.6182 71.4858C39.5422 71.6638 39.4562 71.8198 39.3574 72.019V73.3878C39.1742 73.861 38.947 74.2594 38.6882 74.561H38.0874C37.8558 75.0234 37.6501 75.4378 37.4287 75.8814H36.4101C36.2761 76.119 36.15 76.3474 36.0067 76.5994H35.3355C35.2065 76.8426 35.0824 77.0762 34.9533 77.3178H34.6161C34.4877 77.5606 34.3629 77.797 34.2355 78.033H32.51C32.372 78.2834 32.2453 78.5122 32.1145 78.7486H30.7408C30.3986 79.4326 30.0704 80.091 29.7209 80.7878L28.6804 80.7838ZM50.0186 71.6802C49.8454 71.3298 49.6798 70.9998 49.5094 70.6594V66.4574C49.6174 66.221 49.7314 65.9682 49.8406 65.731C49.7334 65.4854 49.6262 65.2446 49.5278 65.0186C49.6502 64.7302 49.7594 64.475 49.8502 64.2598C49.8802 63.2694 49.8038 62.3394 49.871 61.6666L50.3558 60.475C50.8682 60.4398 50.8718 60.435 50.907 59.4766C50.801 59.2402 50.6862 58.9874 50.567 58.719C50.567 58.6122 50.563 58.5058 50.5538 58.4006C50.5338 58.289 50.5338 58.1666 50.555 58.0554C50.5758 57.9438 50.6158 57.8514 50.6682 57.7942C50.7482 57.6966 50.8198 57.8042 50.919 58.027C51.0722 58.3778 51.2458 58.6918 51.411 59.025C51.4774 58.8754 51.5926 58.7354 51.5998 58.571C51.6366 57.889 51.637 57.1966 51.663 56.515C51.6666 56.4218 51.7402 56.3462 51.7822 56.2606H52.1342C52.4626 56.9166 52.7914 57.581 53.125 58.2358C53.1462 58.2754 53.205 58.241 53.2474 58.241C53.453 57.8298 53.659 57.4174 53.8762 56.9814H54.5582C54.6906 56.7374 54.8158 56.5034 54.9446 56.2606H55.3938C55.5614 56.6858 55.775 57.235 55.9594 57.7054H56.6874L57.0874 58.359C57.2174 58.3734 57.3482 58.3746 57.4786 58.363C57.7058 58.3218 57.9354 58.3638 58.1554 58.4878C58.2374 58.6534 58.3206 58.8178 58.4234 59.025H59.525C59.7078 59.497 59.9222 60.043 60.0898 60.4726C60.4286 60.4726 60.6626 60.4726 60.8894 60.4726C61.0178 60.7142 61.1338 61.1154 61.265 61.1454C61.7338 61.2554 61.7394 61.2162 61.7726 62.1706C61.6658 62.4094 61.551 62.665 61.4262 62.9394V64.3434C61.139 64.8922 60.8434 65.4518 60.5286 66.0518L60.2118 66.0914C60.0934 66.3138 59.967 66.5494 59.8374 66.791H59.5326C59.0838 67.4314 58.8174 68.3754 58.3742 68.8974C57.3626 68.8974 56.3698 68.8978 55.3782 68.9038C55.325 68.925 55.2742 68.9638 55.2278 69.0182C55.1446 69.1842 55.0622 69.3482 54.9802 69.5162C54.679 69.6126 54.373 69.6386 54.0686 69.5934C53.7582 69.5414 53.4458 69.5742 53.1398 69.691L52.8462 70.2806H52.1658C52.0334 70.5242 51.9086 70.7598 51.7782 71.0006H51.4414C51.3118 71.2462 51.1862 71.4798 51.0774 71.6866L50.0186 71.6802ZM0.255349 62.5354C0.119997 62.299 -0.00709915 62.0734 -0.135171 61.8498C-0.294823 61.7558 -0.464171 61.7486 -0.625599 61.8298C-0.742179 61.9098 -0.867519 61.9246 -0.988003 61.8722C-1.10849 61.8202 -1.21952 61.7034 -1.309 61.5342V60.1682C-1.43178 59.8998 -1.5486 59.6466 -1.66906 59.3862V58.0278C-1.78588 57.7638 -1.89311 57.5214 -2 57.2798C-1.78026 56.8442 -1.57242 56.4318 -1.37122 56.0098C-1.35268 55.973 -1.3785 55.8474 -1.38313 55.757C-1.48758 55.6374 -1.56999 55.4538 -1.61824 55.2338C-1.6665 55.0134 -1.67804 54.7682 -1.65117 54.5338C-1.55917 54.3262 -1.44502 54.0718 -1.32787 53.8118C-1.43708 53.5754 -1.55026 53.325 -1.6588 53.0854V50.9906C-1.36758 50.407 -1.07836 49.8254 -0.787791 49.2446H2.36142C2.48555 49.4762 2.6129 49.7106 2.7433 49.9554H5.86803C6.00703 50.2058 6.13274 50.4346 6.26511 50.6734H11.1263C11.2788 50.9378 11.4069 51.1554 11.5472 51.3942H12.2044L12.8468 52.681C13.0457 52.715 13.2319 52.8906 13.3713 53.1754C13.1653 53.5878 12.9592 54.001 12.7531 54.4158C12.7115 54.7326 12.6701 55.0482 12.6208 55.419C12.4633 55.683 12.2875 55.9694 12.1138 56.2606C11.8451 56.1574 11.721 56.6322 11.5277 56.8206C11.2838 57.0566 10.9806 57.0566 10.8138 57.5938C10.6716 57.5826 10.5305 57.6466 10.4047 57.7794C10.279 57.9122 10.1731 58.1094 10.098 58.3506H9.0513C8.92091 58.5954 8.79482 58.8318 8.66574 59.071H8.33183L7.95555 59.7678C7.82715 59.7834 7.71362 59.8026 7.6011 59.8186C7.14674 60.725 6.69302 61.6346 6.2317 62.5598H3.42538C3.3135 62.3494 3.18807 62.1166 3.05902 61.8762H0.968849C0.839785 62.1166 0.714357 62.3494 0.593237 62.5778C0.470125 62.5622 0.356285 62.5518 0.255349 62.5354ZM70.0246 58.3654C69.8098 57.957 69.6418 57.6358 69.4822 57.3282V51.5074C69.697 51.1622 69.9678 50.7322 70.1998 50.3634V48.2246C70.3322 47.873 70.4802 47.6302 70.5206 47.3254C70.563 46.9954 70.5498 46.6542 70.7114 46.4334C70.9982 46.4334 70.9982 46.433 71.1786 46.1914C71.3194 45.6634 71.137 45.051 71.3046 44.5414C71.3422 44.4574 71.3854 44.3838 71.433 44.3234L71.7622 44.3558C71.8906 44.5754 72.0102 44.783 72.1294 44.9894C72.3066 44.6406 72.4366 44.2502 72.7142 44.3122C72.8734 44.3274 73.0334 44.3114 73.1914 44.2642C73.421 43.8074 73.6266 43.3942 73.8322 42.9814C73.945 42.9618 74.0562 42.9406 74.1846 42.9154L74.5686 43.6098H74.8898C75.0222 43.8542 75.1478 44.0878 75.277 44.3266H75.9606C76.093 44.5722 76.2194 44.8058 76.3482 45.0422H78.4154C78.5586 45.299 78.6854 45.5218 78.821 45.7606H79.817C79.9766 46.0246 80.1054 46.2458 80.2126 46.4206C80.3258 46.4318 80.4366 46.429 80.5482 46.4266C80.8342 46.3942 81.1206 46.4522 81.3974 46.5978C81.3974 47.4742 81.3974 48.1714 81.3974 48.9078C81.2426 49.2434 81.077 49.5574 80.901 49.8486C80.8242 49.9626 80.6842 49.9146 80.4638 49.9582C80.3022 50.3666 80.0866 50.9074 79.915 51.3442H79.4746C79.3442 51.5858 79.2178 51.8174 79.1002 52.0398C78.9742 52.0538 78.8594 52.0698 78.7458 52.0858C78.6694 52.3246 78.563 52.5182 78.4366 52.6478C78.3106 52.7774 78.1694 52.8374 78.0278 52.8222C77.8214 53.2366 77.6158 53.6478 77.4086 54.0598C77.2646 54.0494 77.1218 54.1142 76.9942 54.2482C76.867 54.3826 76.7594 54.5814 76.6822 54.8242H74.9522C74.8218 55.0606 74.6946 55.2922 74.5574 55.5398H73.1818C73.0526 55.7814 72.9278 56.0178 72.7998 56.2578H72.107C71.9418 56.5882 71.7762 56.9182 71.6106 57.2482C71.5938 57.3538 71.585 57.4634 71.5838 57.5742C71.6118 57.9702 71.5218 58.3162 71.3474 58.3378C71.1486 58.365 70.9502 58.3722 70.7578 58.3722C70.5042 58.379 70.255 58.3654 70.0246 58.3654ZM28.6725 47.091C28.3303 46.5698 28.0283 45.9518 27.776 45.2562C27.776 44.1234 27.773 43.0706 27.776 42.0218C27.776 41.9226 27.8193 41.8238 27.8422 41.7366C27.9484 41.4726 28.1436 41.3142 28.1208 40.9106C28.0877 40.335 28.3263 40.1306 28.4696 39.767V38.4094C28.5924 38.141 28.7092 37.887 28.8297 37.6234V33.8826C28.9943 33.9354 29.1629 33.891 29.315 33.755C29.4671 33.619 29.596 33.3974 29.6858 33.1174H30.4172L30.8907 31.961C30.8885 31.8026 30.9035 31.645 30.9348 31.499C31.0389 31.171 31.1537 30.8566 31.2786 30.5582C31.2852 30.2662 31.2844 29.9734 31.2763 29.6818C31.2654 29.5694 31.2683 29.4542 31.2846 29.3446C31.3009 29.235 31.3301 29.135 31.3699 29.053C31.457 28.8878 31.5133 28.9802 31.6225 29.2066C32.2711 30.5342 32.931 31.847 33.5789 33.1374H34.2822C34.4592 33.5066 34.5989 33.8918 34.8726 33.7974C35.0158 33.7314 35.1658 33.759 35.3005 33.8762C35.4352 33.9934 35.5474 34.1942 35.6205 34.4482C35.7869 34.5134 35.9571 34.5302 36.1259 34.4978C36.3517 34.4394 36.5812 34.4962 36.793 34.663C36.8781 34.8302 36.9585 34.997 37.0524 35.1802H39.4858C39.6182 35.4238 39.7434 35.6586 39.873 35.9006H42.423C42.5882 36.3318 42.8042 36.8778 42.9722 37.3046C44.621 37.3046 44.621 37.3046 44.9674 37.6642C44.7862 37.9766 44.613 38.2778 44.3862 38.665H43.0442C42.6858 39.3806 42.3198 40.1126 41.9686 40.811C41.8266 40.831 41.7126 40.8422 41.5986 40.8554C41.5258 41.039 41.4414 41.2038 41.3478 41.3446C41.1158 41.6134 40.785 41.5054 40.6246 42.0922C40.6054 42.165 40.531 42.1998 40.4798 42.2166C40.4006 42.2286 40.3206 42.2286 40.241 42.2166C40.0938 42.1746 39.9434 42.2158 39.807 42.3354C39.5986 42.7514 39.3926 43.1662 39.1758 43.6022H37.7926C37.6604 43.8438 37.5356 44.081 37.4059 44.3226H35.6672C35.5381 44.5658 35.412 44.7994 35.2823 45.0426H31.0959C30.9111 45.4782 30.6483 45.7522 30.3636 45.8066C30.1574 46.221 29.9515 46.6322 29.7229 47.0906L28.6725 47.091ZM51.1018 42.1682C50.8854 41.7794 50.711 41.4738 50.5626 41.211V36.2602C50.6866 35.9866 50.8014 35.7278 50.9226 35.4598V34.1178C51.1034 33.7534 51.2686 33.4226 51.4322 33.0922H51.7482V33.0974L53.0158 30.6394V29.9342C53.3106 29.3422 53.5994 28.761 53.8826 28.1906C54.0054 28.417 54.1278 28.6374 54.2382 28.8394C54.383 28.6118 54.5154 28.3966 54.6474 28.1794C54.8458 28.2982 54.9782 28.0658 55.1086 27.833C55.239 27.5998 55.363 27.3818 55.5522 27.4782C55.8806 27.1874 56.0578 26.5542 56.3294 26.1014C56.4506 26.3218 56.5726 26.547 56.7002 26.7758H57.0354C57.165 27.0214 57.2906 27.2514 57.4098 27.4778C57.5358 27.4914 57.6494 27.5014 57.749 27.5162C57.885 27.755 58.0138 27.9782 58.1502 28.2202H59.1646C59.2682 28.425 59.3502 28.5906 59.4454 28.779C59.7514 28.9054 60.0654 28.9398 60.3766 28.881C60.6842 28.8238 60.9942 28.8562 61.297 28.9774L61.5766 29.5374H62.5878C62.7262 29.7802 62.855 29.9994 63.0046 30.2634H63.6662L64.057 30.9834H65.793C65.9214 31.2226 66.0466 31.4594 66.1778 31.7014H67.9054C67.9802 31.7982 68.037 31.9414 68.067 32.1094C68.097 32.277 68.0982 32.4598 68.0706 32.6294C68.0546 32.7314 68.027 32.8246 67.9894 32.901C67.9522 32.9774 67.9062 33.035 67.8554 33.0694C67.6406 33.1066 67.425 33.113 67.2098 33.089C66.9118 33.5982 66.731 34.2246 66.397 34.4918H65.8698C65.5502 34.9822 65.2542 35.5302 64.985 36.129C64.6678 36.8294 64.3206 37.4742 63.9478 38.0562H63.3214C63.2122 38.2742 63.1294 38.4414 63.0446 38.611C62.7434 38.723 62.4358 38.7522 62.1306 38.6986C61.8178 38.639 61.5022 38.6754 61.1946 38.8062C61.0902 39.017 61.0074 39.1798 60.9102 39.377H59.5374L59.1366 40.0974H56.7146C56.5822 40.3418 56.4554 40.5766 56.327 40.813H53.183C52.9518 41.3302 52.6954 41.8006 52.4174 42.217C52.2326 42.1958 52.047 42.207 51.865 42.217C51.759 42.223 51.6542 42.229 51.5518 42.229C51.401 42.235 51.2506 42.2146 51.1018 42.1682ZM14.2566 40.7642C14.0909 40.4322 13.926 40.1022 13.7618 39.7738C13.774 39.6078 13.7694 39.439 13.7484 39.2766C13.7274 39.1142 13.6903 38.9618 13.6394 38.8282C13.5127 38.7026 13.3693 38.6602 13.2297 38.7066C13.1314 38.7546 13.0283 38.745 12.9325 38.6798C12.8369 38.6142 12.7525 38.4958 12.6896 38.3378C12.4871 37.7682 11.9946 38.1398 11.851 37.3474C11.7342 37.3318 11.6213 37.3154 11.4787 37.3034C11.1286 36.6038 10.7629 35.8722 10.4071 35.1626H9.70059C9.41567 34.2386 9.01359 34.463 8.73226 34.5686C8.47515 34.9746 8.29478 35.263 8.21202 35.3918C8.13194 35.949 8.08663 36.261 8.04659 36.5382C7.62495 35.6914 7.22219 34.8806 6.75591 33.9506V31.4218C6.44615 30.583 6.00107 30.0274 5.73002 29.2006C5.85046 28.9094 5.95735 28.6506 6.04275 28.4414C6.01943 27.725 6.03991 27.0062 6.10367 26.2998C6.27871 26.0054 6.44583 25.687 6.39619 25.1542C6.62287 24.6378 6.85951 24.139 7.08883 23.5454C7.15831 23.3666 7.01503 22.859 7.21655 22.7002C7.39727 22.5614 7.45747 23.0254 7.59415 23.1946C7.82463 23.2858 8.06067 23.3082 8.29447 23.2606C8.56079 23.1962 8.83086 23.2394 9.08867 23.3878C9.18995 23.5918 9.27234 23.7554 9.36434 23.9422C9.48479 23.7206 9.60723 23.4982 9.73499 23.2662H11.1223C11.247 23.5002 11.3731 23.737 11.4886 23.9522H12.5265C12.6667 23.7022 12.7939 23.4742 12.912 23.259C13.0404 23.2854 13.1523 23.3098 13.2651 23.325C13.5233 23.7658 13.7046 24.3898 14.0355 24.665C14.1513 24.6774 14.2673 24.6774 14.383 24.665C14.6094 24.6166 14.8384 24.6646 15.0548 24.8062C15.261 25.221 15.4665 25.6322 15.6793 26.0574H16.3639C16.4937 26.3022 16.6191 26.5362 16.7475 26.7754H17.0821C17.2145 27.023 17.3416 27.2546 17.4713 27.4962H18.8943C18.9458 27.7294 19.0323 27.925 19.1418 28.0562C19.2513 28.1874 19.3785 28.2478 19.5059 28.229C19.7286 28.6106 19.903 28.911 20.0758 29.2066C19.768 29.8258 19.4801 30.4014 19.1899 30.9822H18.8367C18.6765 31.3122 18.5141 31.6422 18.345 31.9874C18.3357 32.0738 18.3225 32.1822 18.3119 32.2898C18.248 33.021 18.2295 33.0714 17.9084 33.0878C17.7397 33.093 17.5696 33.0878 17.4415 33.0878C17.1401 33.5966 16.9617 34.2258 16.6271 34.4898H16.1032C16.052 34.5262 16.0039 34.5778 15.9605 34.643C15.5876 35.3798 15.2176 36.123 14.8066 36.9462V38.931C14.8066 39.2802 14.8066 39.6306 14.8066 39.9798C14.8066 40.5866 14.7384 40.7722 14.4316 40.7722C14.3817 40.7786 14.3231 40.7734 14.2566 40.7642ZM35.9802 23.9522C35.7423 23.4242 35.4705 22.8194 35.1601 22.1282C35.1565 22.053 35.1459 21.8274 35.134 21.5638C35.0297 21.335 34.9156 21.079 34.7902 20.8022V17.3242C34.9024 17.0812 35.0192 16.8265 35.1409 16.5651V15.9089C35.2652 15.6338 35.3798 15.3813 35.4848 15.1511C35.4967 14.8871 35.5073 14.6607 35.5159 14.4356C35.7231 14.021 35.9293 13.6066 36.1417 13.1815C36.2132 12.7914 36.1536 12.2776 36.3827 11.9931C36.559 11.7753 36.5385 11.415 36.5365 10.9146C36.8036 10.4578 37.1107 9.92445 37.5118 9.23925C37.4254 9.28153 37.4787 9.24645 37.531 9.22797C37.9282 9.07417 37.9246 9.07437 37.9418 8.43604C37.9538 7.99776 37.8582 7.49709 38.1102 7.14197H38.787C38.9194 6.89445 39.0438 6.66037 39.173 6.41613H39.511C39.6406 6.65773 39.7662 6.89112 39.8978 7.14197H40.5774C40.8054 7.67176 41.0678 8.13808 41.3578 8.52824C41.4138 8.52824 41.4714 8.52824 41.5286 8.52824C41.8158 8.51568 42.1042 8.50177 42.281 9.14933C42.423 9.14401 42.5634 9.2114 42.689 9.34496C42.8142 9.47857 42.9206 9.674 42.9974 9.91257H44.4126C44.777 10.6387 45.141 11.3649 45.499 12.0804H46.173C46.3386 12.3557 46.471 12.5709 46.5766 12.7406C46.7906 12.7406 46.9662 12.7292 47.1414 12.7457C47.1918 12.749 47.2686 12.7939 47.2854 12.8698C47.4894 13.6705 48.0774 13.2433 48.2654 14.0988C48.2774 14.1536 48.373 14.1536 48.4258 14.1397C48.467 14.1192 48.5098 14.1164 48.5518 14.1313C48.5938 14.1462 48.6334 14.1787 48.6686 14.2264C48.7038 14.2742 48.7334 14.336 48.7558 14.4082C48.7782 14.4804 48.7926 14.5613 48.7982 14.6454C48.8206 14.8434 48.8094 15.1939 48.747 15.2804C48.477 15.6434 48.4822 16.2377 48.3782 16.7427C48.3598 16.8318 48.2934 16.8838 48.235 16.969H47.5678C47.2278 17.6528 46.897 18.3136 46.5606 18.9883C46.2174 19.0736 45.8714 19.0958 45.5262 19.0543C45.1386 18.9987 44.749 19.038 44.3662 19.1717L44.0834 19.736H43.0514L42.6658 20.4622H39.525C39.3966 20.7038 39.2702 20.9374 39.1498 21.1606C39.0258 21.1778 38.9118 21.1878 38.7986 21.2034C38.539 21.653 38.3522 22.2698 38.0282 22.5594C37.9234 22.631 37.8146 22.675 37.7041 22.6914C37.4972 23.1046 37.2921 23.5198 37.0753 23.9554L35.9802 23.9522ZM15.7365 14.2486C15.534 13.8453 15.3325 13.4413 15.1409 13.0538V10.9501C14.7927 10.2504 14.4631 9.59188 14.1209 8.90404V7.54809C13.9998 7.28405 13.8843 7.03193 13.7615 6.76324V3.76637C13.9588 3.75853 14.1521 3.65425 14.3245 3.46277C14.4969 3.27129 14.6431 2.99837 14.7503 2.66792C14.8291 2.14644 14.8771 1.83945 14.9234 1.52984H16.3537C16.4841 1.28824 16.6102 1.05465 16.7429 0.811726H17.7827C17.9055 1.04345 18.0316 1.27389 18.1646 1.52276H19.1855C19.3239 1.77028 19.4503 2.0006 19.5853 2.24088H20.2382C20.3948 2.50492 20.5219 2.72276 20.6337 2.91353C20.8379 2.91353 21.0136 2.90761 21.188 2.91353C21.2414 2.93141 21.2933 2.96317 21.3426 3.00797C21.3807 3.09649 21.4225 3.17864 21.4673 3.25356C21.5554 3.38228 21.6497 3.49513 21.7417 3.61329C22.3321 3.58161 22.3374 3.58165 22.6951 4.31305H23.1693C24.1009 4.31305 25.0328 4.30433 25.9644 4.31753C26.0721 4.3458 26.1779 4.39793 26.2798 4.47321C26.3629 4.64021 26.4453 4.80325 26.5274 4.96828C27.1389 5.10032 27.2223 5.41936 26.9036 6.41613H26.2126C25.9059 6.69601 26.1465 7.55741 25.8155 7.83333H25.0984C25.0481 8.12773 24.9971 8.43521 24.9402 8.77448C25.0872 9.13788 25.2528 9.46973 25.4343 9.76465C25.6635 9.98717 25.904 10.16 26.1517 10.2797C25.8109 10.821 25.5399 11.2506 25.3052 11.6189V13.0777C25.1173 13.477 24.9577 13.8169 24.8088 14.1397H22.0025C21.8721 14.3813 21.7467 14.6165 21.6385 14.8198H20.5993C20.454 14.5643 20.3269 14.339 20.2299 14.1694H16.7253C16.4702 14.64 16.3302 14.871 16.1975 14.871C16.0671 14.8783 15.945 14.6659 15.7362 14.2474L15.7365 14.2486ZM59.137 5.72153H58.6766V5.71573C58.6938 5.38753 58.6662 5.05613 58.5974 4.75621C58.5282 4.45629 58.4202 4.19885 58.2842 4.01069V2.57961C58.3718 2.38688 58.483 2.1338 58.611 1.84797V-0.935514C58.891 -1.49792 59.1694 -2.09068 59.4714 -2.62799C59.5374 -2.75076 59.689 -2.68612 59.8874 -2.72243C60.107 -3.23203 60.3702 -3.84932 60.6926 -4.60184C60.6366 -5.02432 60.823 -5.43875 61.0478 -5.80179C61.0554 -5.92523 61.065 -6.03351 61.073 -6.14571C61.1086 -6.67379 61.175 -6.89899 61.3134 -6.91219C61.5402 -6.93463 61.7666 -6.93172 61.9166 -6.93699C62.1482 -7.35155 62.3194 -7.65807 62.4622 -7.91683C62.4954 -8.33004 62.415 -8.71539 62.6362 -8.96756C62.7458 -8.78207 62.8658 -8.57735 62.9898 -8.36679C63.3126 -8.58459 63.0562 -9.45407 63.3506 -9.72403H63.6986C63.757 -9.54119 63.8782 -9.33644 63.8642 -9.17931C63.7982 -8.41164 64.3482 -8.15831 64.225 -7.37084C64.3366 -7.11207 64.4466 -6.85467 64.5594 -6.59855C64.5986 -6.51339 64.6346 -6.39183 64.6842 -6.35683C64.941 -6.17331 65.2398 -6.16871 65.4066 -5.61423C65.4262 -5.57683 65.4498 -5.54904 65.4758 -5.53267C65.5014 -5.51631 65.529 -5.5118 65.5558 -5.5198C65.8342 -5.60231 65.959 -5.17339 66.1378 -4.84003H66.8094C66.9418 -4.59975 67.0698 -4.37211 67.2086 -4.12063H69.2842L69.665 -3.40475H71.0522C71.1806 -3.16579 71.3058 -2.92955 71.4358 -2.68663H72.1662C72.2138 -2.38564 72.2638 -2.07996 72.2966 -1.87795C71.9766 -1.23372 71.6914 -0.664915 71.3178 0.0830059C71.1322 0.151566 70.9426 0.161966 70.7554 0.113926C70.4842 0.0435658 70.209 0.0828056 69.9458 0.229006C69.8546 0.411165 69.7722 0.575525 69.6894 0.739204C69.5774 0.761644 69.4654 0.795805 69.3534 0.801085C69.2514 0.805725 69.1494 0.805046 69.0474 0.801085C68.975 0.801085 68.9022 0.801085 68.8294 0.801085C68.6006 0.805725 68.4242 1.01237 68.471 1.22561C68.4922 1.33705 68.5342 1.42789 68.5882 1.47893C68.6422 1.52996 68.7042 1.53732 68.7606 1.49957C68.8166 1.46089 68.877 1.46165 68.9326 1.50181C68.9878 1.54197 69.0346 1.61909 69.065 1.72001C69.1174 1.88241 69.0718 2.02976 68.955 2.22185C68.821 2.43377 68.7034 2.68385 68.575 2.9274H67.209C67.0622 3.18417 66.9346 3.41072 66.805 3.63713H61.5838C61.3646 4.07545 61.1586 4.48649 60.9474 4.91092C60.7574 5.08321 60.511 4.95465 60.3518 5.38569C60.201 5.74025 60.0378 6.0724 59.863 6.37968C59.749 6.39552 59.6354 6.40745 59.5126 6.42064C59.3902 6.19269 59.265 5.95921 59.1366 5.72025L59.137 5.72153ZM32.5395 -6.21631C32.1043 -7.06055 31.688 -7.86647 31.277 -8.66651V-10.0622C31.1529 -10.3348 31.0387 -10.5901 30.9437 -10.7948V-12.1975C31.1052 -12.5605 31.2988 -12.798 31.2895 -13.3597C31.2803 -13.9215 31.6757 -14.1218 31.6476 -14.8195C31.6297 -15.269 31.9124 -15.5192 32.0666 -15.8531C32.2651 -16.2776 32.4998 -16.645 32.6749 -17.1011C32.8403 -17.5309 33.0975 -17.3243 33.2781 -17.5824C33.3817 -17.7302 33.3817 -17.9344 33.3893 -18.1919C33.4049 -18.7694 33.4224 -18.7738 33.8811 -18.8478C33.9953 -19.0537 34.1213 -19.2789 34.2636 -19.5317H34.9527C35.0655 -19.3198 35.1903 -19.0862 35.3167 -18.8432H36.3539C36.4823 -19.0862 36.609 -19.3225 36.7275 -19.5449H43.3642L43.7466 -18.8313H46.5194C46.6598 -18.5792 46.787 -18.3535 46.9206 -18.1113H47.573C47.7294 -17.8472 47.857 -17.6273 47.959 -17.4563C48.059 -17.4272 48.1606 -17.4234 48.2614 -17.4451C48.4642 -17.4701 48.6554 -17.4961 48.8014 -17.0921V-16.1535C48.6338 -16.1884 48.4646 -16.1303 48.3126 -15.9859C48.1606 -15.8415 48.0314 -15.6162 47.9394 -15.3349C47.6202 -15.3349 47.2742 -15.3644 46.9318 -15.3136C46.8802 -15.2852 46.833 -15.2315 46.7942 -15.1573C46.7554 -15.083 46.727 -14.9908 46.711 -14.8888C46.693 -14.4457 46.6898 -14.0006 46.7014 -13.5567C46.5834 -13.4154 46.485 -13.2166 46.4154 -12.9791C46.3462 -12.7416 46.3078 -12.473 46.3046 -12.1981C46.1242 -11.7783 45.9734 -11.4264 45.847 -11.128C45.6854 -11.1122 45.5714 -11.1031 45.4686 -11.0958C45.3362 -10.8529 45.2082 -10.6276 45.073 -10.3874H44.425C44.2662 -10.1233 44.1378 -9.90695 44.0278 -9.72147C43.355 -9.72147 42.715 -9.72155 42.0754 -9.7176C42.0218 -9.70127 41.9698 -9.66944 41.921 -9.62315C41.8386 -9.45944 41.7554 -9.29283 41.623 -9.02879C41.4126 -9.00311 41.2014 -9.00043 40.991 -9.02043C40.725 -9.05087 40.4586 -9.03615 40.1942 -8.97627L39.8658 -8.31616C38.3982 -8.31616 36.8906 -8.32211 35.3832 -8.31616C35.3342 -8.31616 35.2863 -8.22559 35.2422 -8.18403C35.1099 -7.97079 35.0304 -7.57887 34.8302 -7.62708C34.5446 -7.69771 34.4423 -7.22099 34.2603 -6.92991H33.9294C33.799 -6.68831 33.6729 -6.45055 33.5489 -6.22015L32.5395 -6.21631Z" fill="#008060" fill-opacity="0.2"/>
<path d="M22.6414 33.4365C22.6414 34.5986 22.655 35.6172 22.6824 36.4922C22.7234 37.3535 22.7644 38.0986 22.8054 38.7275C22.8601 39.3564 22.9216 39.8828 22.99 40.3066C23.072 40.7305 23.1541 41.0859 23.2361 41.373V41.4551H18.3142V41.373C18.3962 41.0859 18.4714 40.7305 18.5398 40.3066C18.6218 39.8828 18.6902 39.3564 18.7449 38.7275C18.7996 38.0986 18.8406 37.3535 18.8679 36.4922C18.8953 35.6172 18.9089 34.5986 18.9089 33.4365V20.0859C18.9089 18.9238 18.8953 17.9121 18.8679 17.0508C18.8406 16.1758 18.7996 15.4238 18.7449 14.7949C18.6902 14.1523 18.6218 13.6191 18.5398 13.1953C18.4714 12.7715 18.3962 12.416 18.3142 12.1289V12.0469C19.449 12.0469 20.5974 12.0469 21.7595 12.0469C22.9216 12.0332 24.0496 12.0264 25.1433 12.0264C26.2371 12.0127 27.2761 11.999 28.2605 11.9854C29.2449 11.958 30.1336 11.9375 30.9265 11.9238C31.7195 11.8965 32.3894 11.8691 32.9363 11.8418C33.4832 11.8008 33.8728 11.7598 34.1052 11.7188L33.1004 14.4463C32.6492 14.3232 32.1228 14.2139 31.5212 14.1182C31.0017 14.0361 30.366 13.9609 29.614 13.8926C28.8757 13.8105 28.0212 13.7695 27.0505 13.7695C26.7224 13.7695 26.3123 13.7832 25.8201 13.8105C25.3279 13.8242 24.8425 13.8447 24.364 13.8721C23.8171 13.8994 23.2429 13.9268 22.6414 13.9541V24.3105C24.0496 24.2969 25.3416 24.2559 26.5173 24.1875C27.6931 24.1191 28.7048 24.0508 29.5525 23.9824C30.5369 23.9004 31.4255 23.8047 32.2185 23.6953L31.6033 26.6689C30.5779 26.5459 29.5388 26.4297 28.4861 26.3203C27.5837 26.2246 26.613 26.1426 25.574 26.0742C24.5349 25.9922 23.5574 25.9512 22.6414 25.9512V33.4365ZM40.3987 41.373C40.4807 41.0859 40.5559 40.7305 40.6243 40.3066C40.7063 39.8828 40.7746 39.3564 40.8293 38.7275C40.884 38.0986 40.925 37.3535 40.9524 36.4922C40.9797 35.6172 40.9934 34.5986 40.9934 33.4365V20.0859C40.9934 18.9238 40.9797 17.9121 40.9524 17.0508C40.925 16.1758 40.884 15.4238 40.8293 14.7949C40.7746 14.1523 40.7063 13.6191 40.6243 13.1953C40.5559 12.7715 40.4807 12.416 40.3987 12.1289V12.0469H45.3205V12.1289C45.2385 12.416 45.1565 12.7715 45.0745 13.1953C45.0061 13.6191 44.9446 14.1523 44.8899 14.7949C44.8489 15.4238 44.8079 16.1758 44.7668 17.0508C44.7395 17.9121 44.7258 18.9238 44.7258 20.0859V24.6592L56.7024 14.877C58.0422 13.7832 58.7121 12.8398 58.7121 12.0469H64.4748V12.1289C63.6682 12.3203 62.8479 12.6895 62.0139 13.2363C61.1936 13.7695 60.3186 14.4258 59.3889 15.2051L48.8069 24.0645L61.5422 38.0508C62.0754 38.5977 62.5266 39.0557 62.8957 39.4248C63.2786 39.7803 63.6135 40.0811 63.9006 40.3271C64.1877 40.5596 64.4475 40.7578 64.6799 40.9219C64.926 41.0723 65.1789 41.2227 65.4387 41.373V41.4551H59.4299C59.3752 41.332 59.2795 41.1748 59.1428 40.9834C59.0198 40.792 58.8694 40.5938 58.6916 40.3887C58.5276 40.1836 58.343 39.9717 58.1379 39.7529C57.9465 39.5342 57.762 39.3291 57.5842 39.1377L44.7258 25.0283V33.4365C44.7258 34.5986 44.7395 35.6172 44.7668 36.4922C44.8079 37.3535 44.8489 38.0986 44.8899 38.7275C44.9446 39.3564 45.0061 39.8828 45.0745 40.3066C45.1565 40.7305 45.2385 41.0859 45.3205 41.373V41.4551H40.3987V41.373Z" fill="white"/>
<path d="M12.6396 52.6074C12.6279 53.2637 12.6162 53.8994 12.6045 54.5146C12.5986 54.7783 12.5928 55.0479 12.5869 55.3232C12.5869 55.5986 12.584 55.8711 12.5781 56.1406C12.5781 56.4043 12.5752 56.6592 12.5693 56.9053C12.5693 57.1455 12.5693 57.3594 12.5693 57.5469C12.5693 57.9395 12.5723 58.4141 12.5781 58.9707C12.584 59.5273 12.5898 60.0986 12.5957 60.6846C12.6074 61.2705 12.6221 61.833 12.6396 62.3721C12.6572 62.9111 12.6777 63.3594 12.7012 63.7168C12.7832 63.7285 12.8916 63.7432 13.0264 63.7607C13.167 63.7725 13.3135 63.7842 13.4658 63.7959C13.6182 63.8018 13.7676 63.8076 13.9141 63.8135C14.0605 63.8193 14.1836 63.8223 14.2832 63.8223C14.6934 63.8223 15.1123 63.7959 15.54 63.7432C15.9736 63.6846 16.3896 63.5791 16.7881 63.4268C17.1924 63.2744 17.5703 63.0664 17.9219 62.8027C18.2793 62.5332 18.5898 62.1875 18.8535 61.7656C19.123 61.3438 19.334 60.8369 19.4863 60.2451C19.6387 59.6475 19.7148 58.9443 19.7148 58.1357C19.7148 57.2393 19.6064 56.4424 19.3896 55.7451C19.1729 55.042 18.8535 54.4502 18.4316 53.9697C18.0156 53.4893 17.4971 53.126 16.876 52.8799C16.2607 52.6279 15.5518 52.502 14.749 52.502C14.5908 52.502 14.4121 52.5078 14.2129 52.5195C14.0137 52.5254 13.8145 52.5342 13.6152 52.5459C13.4219 52.5518 13.2373 52.5635 13.0615 52.5811C12.8916 52.5928 12.751 52.6016 12.6396 52.6074ZM10.7148 51.8164C10.8496 51.8223 10.9756 51.8281 11.0928 51.834C11.1924 51.8398 11.2949 51.8457 11.4004 51.8516C11.5059 51.8516 11.5908 51.8516 11.6553 51.8516C11.7666 51.8516 11.9512 51.8457 12.209 51.834C12.4727 51.8223 12.7715 51.8105 13.1055 51.7988C13.4395 51.7871 13.7852 51.7754 14.1426 51.7637C14.5059 51.752 14.8457 51.7461 15.1621 51.7461C16.0117 51.7461 16.8203 51.8516 17.5879 52.0625C18.3555 52.2734 19.0293 52.6191 19.6094 53.0996C20.1895 53.5801 20.6494 54.21 20.9893 54.9893C21.3291 55.7686 21.499 56.7266 21.499 57.8633C21.499 58.6777 21.4082 59.4102 21.2266 60.0605C21.0508 60.7109 20.8018 61.2852 20.4795 61.7832C20.1572 62.2812 19.7705 62.709 19.3193 63.0664C18.874 63.418 18.3789 63.708 17.834 63.9365C17.2949 64.165 16.7178 64.332 16.1025 64.4375C15.4873 64.543 14.8516 64.5957 14.1953 64.5957C13.9609 64.5957 13.6768 64.5869 13.3428 64.5693C13.0146 64.5576 12.6836 64.543 12.3496 64.5254C12.0156 64.5078 11.6992 64.4902 11.4004 64.4727C11.1074 64.4609 10.8789 64.4551 10.7148 64.4551V64.4199C10.75 64.2969 10.7822 64.1445 10.8115 63.9629C10.8467 63.7812 10.876 63.5557 10.8994 63.2861C10.9229 63.0166 10.9404 62.6973 10.9521 62.3281C10.9639 61.9531 10.9697 61.5166 10.9697 61.0186V55.2969C10.9697 54.7988 10.9639 54.3623 10.9521 53.9873C10.9404 53.6064 10.9229 53.2812 10.8994 53.0117C10.876 52.7363 10.8467 52.5049 10.8115 52.3174C10.7822 52.1299 10.75 51.9746 10.7148 51.8516V51.8164ZM23.5645 51.8516C24.2969 51.8516 25.0234 51.8486 25.7441 51.8428C26.4707 51.8369 27.1357 51.8311 27.7393 51.8252C28.3428 51.8135 28.8584 51.7988 29.2861 51.7812C29.7139 51.7637 30.0039 51.7402 30.1562 51.7109L29.7256 52.8799C29.5322 52.8271 29.3066 52.7803 29.0488 52.7393C28.8262 52.7041 28.5537 52.6719 28.2314 52.6426C27.915 52.6074 27.5488 52.5898 27.1328 52.5898C26.9922 52.5898 26.8223 52.5957 26.623 52.6074C26.4297 52.6133 26.2422 52.6221 26.0605 52.6338C25.8496 52.6455 25.6357 52.6572 25.4189 52.6689V57.4678C26.0225 57.4619 26.5674 57.4443 27.0537 57.415C27.54 57.3857 27.9531 57.3564 28.293 57.3271C28.6914 57.292 29.043 57.251 29.3477 57.2041L29.0752 58.4785C28.6709 58.4258 28.2578 58.376 27.8359 58.3291C27.4727 58.2881 27.0771 58.2529 26.6494 58.2236C26.2217 58.1885 25.8115 58.1709 25.4189 58.1709V63.6816C26.1104 63.6816 26.7461 63.6523 27.3262 63.5938C27.9062 63.5352 28.4131 63.4678 28.8467 63.3916C29.3506 63.3096 29.8105 63.2129 30.2266 63.1016L29.9717 64.5254C29.9014 64.5195 29.7959 64.5137 29.6553 64.5078C29.5146 64.502 29.3564 64.4961 29.1807 64.4902C29.0107 64.4844 28.8291 64.4785 28.6357 64.4727C28.4482 64.4727 28.2695 64.4697 28.0996 64.4639C27.9297 64.4639 27.7773 64.4609 27.6426 64.4551C27.5137 64.4551 27.4199 64.4551 27.3613 64.4551H23.5645V64.4199C23.5996 64.2969 23.6318 64.1445 23.6611 63.9629C23.6963 63.7812 23.7256 63.5557 23.749 63.2861C23.7725 63.0166 23.79 62.6973 23.8018 62.3281C23.8135 61.9531 23.8193 61.5166 23.8193 61.0186V55.2969C23.8193 54.7988 23.8135 54.3652 23.8018 53.9961C23.79 53.6211 23.7725 53.2988 23.749 53.0293C23.7256 52.7539 23.6963 52.5254 23.6611 52.3438C23.6318 52.1621 23.5996 52.0098 23.5645 51.8867V51.8516ZM37.6445 53.8555H37.4512C37.4043 53.7207 37.3281 53.5684 37.2227 53.3984C37.123 53.2285 36.9883 53.0703 36.8184 52.9238C36.6543 52.7715 36.4521 52.6455 36.2119 52.5459C35.9775 52.4463 35.6992 52.3965 35.377 52.3965C35.0898 52.3965 34.835 52.4404 34.6123 52.5283C34.3896 52.6162 34.2021 52.7393 34.0498 52.8975C33.9033 53.0557 33.792 53.2432 33.7158 53.46C33.6396 53.6768 33.6016 53.917 33.6016 54.1807C33.6016 54.6025 33.7188 55.0068 33.9531 55.3936C34.1934 55.7744 34.4922 56.1523 34.8496 56.5273C35.207 56.9023 35.5938 57.2773 36.0098 57.6523C36.4258 58.0273 36.8125 58.417 37.1699 58.8213C37.5273 59.2256 37.8232 59.6504 38.0576 60.0957C38.2979 60.5352 38.418 61.0098 38.418 61.5195C38.418 61.9004 38.3506 62.2842 38.2158 62.6709C38.0869 63.0518 37.8848 63.3945 37.6094 63.6992C37.334 64.0039 36.9795 64.2529 36.5459 64.4463C36.1123 64.6338 35.5967 64.7275 34.999 64.7275C34.665 64.7275 34.3457 64.6953 34.041 64.6309C33.7422 64.5723 33.4639 64.499 33.2061 64.4111C32.9541 64.3174 32.7256 64.2178 32.5205 64.1123C32.3213 64.0068 32.1572 63.9102 32.0283 63.8223L32.2305 61.8799H32.4502C32.5146 62.1553 32.6201 62.4189 32.7666 62.6709C32.9131 62.917 33.0918 63.1367 33.3027 63.3301C33.5195 63.5176 33.7656 63.6699 34.041 63.7871C34.3164 63.8984 34.6182 63.9541 34.9463 63.9541C35.2451 63.9541 35.5117 63.9102 35.7461 63.8223C35.9863 63.7285 36.1914 63.6025 36.3613 63.4443C36.5312 63.2803 36.6602 63.0869 36.748 62.8643C36.8418 62.6416 36.8887 62.3984 36.8887 62.1348C36.8887 61.7656 36.8213 61.4258 36.6865 61.1152C36.5518 60.7988 36.373 60.5 36.1504 60.2188C35.9336 59.9375 35.6846 59.665 35.4033 59.4014C35.1279 59.1377 34.8438 58.874 34.5508 58.6104C34.2578 58.3408 33.9707 58.0654 33.6895 57.7842C33.4141 57.5029 33.165 57.2041 32.9424 56.8877C32.7256 56.5654 32.5498 56.2227 32.415 55.8594C32.2803 55.4902 32.2129 55.0859 32.2129 54.6465C32.2129 54.1836 32.3008 53.7676 32.4766 53.3984C32.6582 53.0234 32.8955 52.7041 33.1885 52.4404C33.4873 52.1768 33.8242 51.9746 34.1992 51.834C34.5742 51.6934 34.9609 51.623 35.3594 51.623C35.6523 51.623 35.9219 51.6465 36.168 51.6934C36.4141 51.7402 36.6338 51.7959 36.8271 51.8604C37.0264 51.9248 37.1992 51.9893 37.3457 52.0537C37.4922 52.1182 37.6123 52.1709 37.7061 52.2119L37.6445 53.8555ZM43.8936 52.625C43.2021 52.625 42.5781 52.6572 42.0215 52.7217C41.4648 52.7803 40.9844 52.8447 40.5801 52.915C40.1113 53.0029 39.6924 53.0996 39.3232 53.2051L39.5781 51.7812C39.6484 51.7871 39.7539 51.793 39.8945 51.7988C40.0352 51.8047 40.1904 51.8105 40.3604 51.8164C40.5361 51.8223 40.7178 51.8281 40.9053 51.834C41.0986 51.834 41.2803 51.8369 41.4502 51.8428C41.6201 51.8428 41.7695 51.8457 41.8984 51.8516C42.0332 51.8516 42.1299 51.8516 42.1885 51.8516H47.207C47.2656 51.8516 47.3594 51.8516 47.4883 51.8516C47.623 51.8457 47.7754 51.8428 47.9453 51.8428C48.1152 51.8369 48.2939 51.834 48.4814 51.834C48.6748 51.8281 48.8564 51.8223 49.0264 51.8164C49.2021 51.8105 49.3604 51.8047 49.501 51.7988C49.6416 51.793 49.7471 51.7871 49.8174 51.7812L50.0723 53.2051C49.6973 53.0996 49.2754 53.0029 48.8066 52.915C48.4023 52.8447 47.9219 52.7803 47.3652 52.7217C46.8086 52.6572 46.1846 52.625 45.4932 52.625V61.0186C45.4932 61.5166 45.499 61.9531 45.5107 62.3281C45.5283 62.6973 45.5459 63.0166 45.5635 63.2861C45.5869 63.5557 45.6133 63.7812 45.6426 63.9629C45.6777 64.1445 45.7129 64.2969 45.748 64.4199V64.4551H43.6475V64.4199C43.6826 64.2969 43.7148 64.1445 43.7441 63.9629C43.7734 63.7812 43.7998 63.5557 43.8232 63.2861C43.8467 63.0166 43.8643 62.6973 43.876 62.3281C43.8877 61.9531 43.8936 61.5166 43.8936 61.0186V52.625ZM51.3379 51.8516C52.0703 51.8516 52.7969 51.8486 53.5176 51.8428C54.2441 51.8369 54.9092 51.8311 55.5127 51.8252C56.1162 51.8135 56.6318 51.7988 57.0596 51.7812C57.4873 51.7637 57.7773 51.7402 57.9297 51.7109L57.499 52.8799C57.3057 52.8271 57.0801 52.7803 56.8223 52.7393C56.5996 52.7041 56.3271 52.6719 56.0049 52.6426C55.6885 52.6074 55.3223 52.5898 54.9062 52.5898C54.7656 52.5898 54.5957 52.5957 54.3965 52.6074C54.2031 52.6133 54.0156 52.6221 53.834 52.6338C53.623 52.6455 53.4092 52.6572 53.1924 52.6689V57.4678C53.7959 57.4619 54.3408 57.4443 54.8271 57.415C55.3135 57.3857 55.7266 57.3564 56.0664 57.3271C56.4648 57.292 56.8164 57.251 57.1211 57.2041L56.8486 58.4785C56.4443 58.4258 56.0312 58.376 55.6094 58.3291C55.2461 58.2881 54.8506 58.2529 54.4229 58.2236C53.9951 58.1885 53.585 58.1709 53.1924 58.1709V63.6816C53.8838 63.6816 54.5195 63.6523 55.0996 63.5938C55.6797 63.5352 56.1865 63.4678 56.6201 63.3916C57.124 63.3096 57.584 63.2129 58 63.1016L57.7451 64.5254C57.6748 64.5195 57.5693 64.5137 57.4287 64.5078C57.2881 64.502 57.1299 64.4961 56.9541 64.4902C56.7842 64.4844 56.6025 64.4785 56.4092 64.4727C56.2217 64.4727 56.043 64.4697 55.873 64.4639C55.7031 64.4639 55.5508 64.4609 55.416 64.4551C55.2871 64.4551 55.1934 64.4551 55.1348 64.4551H51.3379V64.4199C51.373 64.2969 51.4053 64.1445 51.4346 63.9629C51.4697 63.7812 51.499 63.5557 51.5225 63.2861C51.5459 63.0166 51.5635 62.6973 51.5752 62.3281C51.5869 61.9531 51.5928 61.5166 51.5928 61.0186V55.2969C51.5928 54.7988 51.5869 54.3652 51.5752 53.9961C51.5635 53.6211 51.5459 53.2988 51.5225 53.0293C51.499 52.7539 51.4697 52.5254 51.4346 52.3438C51.4053 52.1621 51.373 52.0098 51.3379 51.8867V51.8516ZM60.1621 64.4199C60.1973 64.2969 60.2295 64.1445 60.2588 63.9629C60.2939 63.7812 60.3232 63.5557 60.3467 63.2861C60.3701 63.0166 60.3877 62.6973 60.3994 62.3281C60.4111 61.9531 60.417 61.5166 60.417 61.0186V55.2969C60.417 54.7988 60.4111 54.3652 60.3994 53.9961C60.3877 53.6211 60.3701 53.2988 60.3467 53.0293C60.3232 52.7539 60.2939 52.5254 60.2588 52.3438C60.2295 52.1621 60.1973 52.0098 60.1621 51.8867V51.8516H62.2715V51.8867C62.2363 52.0098 62.2012 52.1621 62.166 52.3438C62.1367 52.5254 62.1104 52.7539 62.0869 53.0293C62.0693 53.2988 62.0518 53.6211 62.0342 53.9961C62.0225 54.3652 62.0166 54.7988 62.0166 55.2969V57.2568L67.1494 53.0645C67.7236 52.5957 68.0107 52.1914 68.0107 51.8516H70.4805V51.8867C70.1348 51.9688 69.7832 52.127 69.4258 52.3613C69.0742 52.5898 68.6992 52.8711 68.3008 53.2051L63.7656 57.002L69.2236 62.9961C69.4521 63.2305 69.6455 63.4268 69.8037 63.585C69.9678 63.7373 70.1113 63.8662 70.2344 63.9717C70.3574 64.0713 70.4688 64.1562 70.5684 64.2266C70.6738 64.291 70.7822 64.3555 70.8936 64.4199V64.4551H68.3184C68.2949 64.4023 68.2539 64.335 68.1953 64.2529C68.1426 64.1709 68.0781 64.0859 68.002 63.998C67.9316 63.9102 67.8525 63.8193 67.7646 63.7256C67.6826 63.6318 67.6035 63.5439 67.5273 63.4619L62.0166 57.415V61.0186C62.0166 61.5166 62.0225 61.9531 62.0342 62.3281C62.0518 62.6973 62.0693 63.0166 62.0869 63.2861C62.1104 63.5557 62.1367 63.7812 62.166 63.9629C62.2012 64.1445 62.2363 64.2969 62.2715 64.4199V64.4551H60.1621V64.4199Z" fill="white"/>
</g>
<line x1="88.4998" y1="40.1761" x2="1240.5" y2="39.7337" stroke="#1C5540" stroke-linecap="square"/>
<path d="M1266 1.39941L1252.78 20.2883H1258.44V24.0661H1273.56V20.2883H1279.22L1266 1.39941ZM1258.44 29.7327H1273.56V25.955H1258.44V29.7327ZM1258.44 33.5105H1273.56V31.6216H1258.44V33.5105Z" fill="url(#paint0_linear_109_2843)"/>
<path d="M1266 79.5107L1279.22 60.6219H1273.56V56.8441H1258.44V60.6219H1252.78L1266 79.5107ZM1273.56 51.1774H1258.44V54.9552H1273.56V51.1774ZM1273.56 47.3996H1258.44V49.2885H1273.56V47.3996Z" fill="url(#paint1_linear_109_2843)"/>
<defs>
<linearGradient id="paint0_linear_109_2843" x1="1266" y1="1.39941" x2="1266" y2="33.5105" gradientUnits="userSpaceOnUse">
<stop stop-color="#CED4DA"/>
<stop offset="1" stop-color="#007356"/>
</linearGradient>
<linearGradient id="paint1_linear_109_2843" x1="1266" y1="79.5107" x2="1266" y2="47.3996" gradientUnits="userSpaceOnUse">
<stop stop-color="#CED4DA"/>
<stop offset="1" stop-color="#007356"/>
</linearGradient>
<clipPath id="clip0_109_2843">
<rect width="80" height="80" fill="white" transform="translate(0 0.455078)"/>
</clipPath>
</defs>
</svg>
