<svg width="24" height="24" viewBox="0 0 24 24" fill="none" xmlns="http://www.w3.org/2000/svg">
<g clip-path="url(#clip0_124_7390)">
<path d="M14.7562 23.9437C14.25 23.9437 13.8375 23.5312 13.8375 23.025V9.24374C13.8375 9.01874 13.9218 8.79374 14.0718 8.62499L20.0718 1.89374H3.90933L9.9187 8.63437C10.0687 8.80312 10.1531 9.01874 10.1531 9.24374V17.5406L11.6156 18.7219C12.0093 19.0406 12.075 19.6219 11.7562 20.0156C11.4375 20.4094 10.8562 20.475 10.4625 20.1469L8.66245 18.6937C8.44683 18.5156 8.32495 18.2531 8.32495 17.9812V9.59999L1.17183 1.58437C0.92808 1.31249 0.87183 0.928119 1.02183 0.599994C1.17183 0.271869 1.49995 0.0562439 1.86558 0.0562439H22.1531C22.5187 0.0562439 22.8468 0.271869 22.9968 0.599994C23.1468 0.928119 23.0812 1.32187 22.8375 1.58437L15.6937 9.59062V23.025C15.675 23.5406 15.2625 23.9437 14.7562 23.9437Z" fill="black"/>
</g>
<defs>
<clipPath id="clip0_124_7390">
<rect width="24" height="24" fill="white"/>
</clipPath>
</defs>
</svg>
