<svg width="24" height="24" viewBox="0 0 24 24" fill="none" xmlns="http://www.w3.org/2000/svg">
<g clip-path="url(#clip0_124_7419)">
<path d="M7.53745 0.975027C4.2937 1.42503 1.73432 3.84378 1.04057 7.11565C0.890575 7.86565 0.89995 9.3469 1.0687 10.125C1.75307 13.1907 4.0687 15.4688 7.1437 16.0782C7.82807 16.2188 9.27182 16.2188 9.9562 16.0782C10.9781 15.8719 11.9812 15.4594 12.8437 14.8782L13.3218 14.55L13.6781 14.9157L14.0437 15.2719L13.9781 15.5719C13.8937 15.9282 13.9687 16.35 14.1749 16.6875C14.3812 17.0438 20.1468 22.7625 20.4562 22.9219C20.8406 23.1188 21.5156 23.1188 21.9093 22.9032C22.2562 22.725 22.7343 22.2375 22.9124 21.8907C23.1093 21.525 23.1093 20.8313 22.9124 20.4657C22.7531 20.1563 17.0343 14.3907 16.6781 14.1844C16.3406 13.9782 15.9187 13.9032 15.5625 13.9875L15.2625 14.0532L14.9062 13.6875L14.5406 13.3313L14.8687 12.8532C15.45 11.9907 15.8624 10.9875 16.0687 9.96565C16.2093 9.28128 16.2093 7.83753 16.0687 7.15315C15.4687 4.12503 13.2281 1.80003 10.2374 1.10628C9.55307 0.946902 8.21245 0.881277 7.53745 0.975027ZM9.98432 2.8219C11.6999 3.26253 13.0687 4.3594 13.8468 5.94378C14.2031 6.67503 14.3625 7.19065 14.4468 7.9594C14.5687 9.03753 14.3624 10.125 13.8468 11.175C12.6093 13.7063 9.71245 15.0094 6.98432 14.2688C6.75932 14.2032 6.29058 14.0157 5.9437 13.8469C4.32183 13.0594 3.22495 11.6719 2.77495 9.85315C2.59682 9.11253 2.6062 7.91253 2.80307 7.16253C3.36557 5.00628 4.92182 3.4219 7.02182 2.84065C7.95932 2.58753 9.03745 2.57815 9.98432 2.8219Z" fill="white"/>
</g>
<defs>
<clipPath id="clip0_124_7419">
<rect width="24" height="24" fill="white"/>
</clipPath>
</defs>
</svg>
