<svg width="24" height="24" viewBox="0 0 24 24" fill="none" xmlns="http://www.w3.org/2000/svg">
<g clip-path="url(#clip0_59_875)">
<path d="M23.7138 12.2245C23.7138 11.2413 23.634 10.5238 23.4614 9.77966H12.2334V14.2176H18.824C18.6911 15.3205 17.9736 16.9815 16.3791 18.0976L16.3567 18.2462L19.9068 20.9964L20.1528 21.0209C22.4116 18.9347 23.7138 15.8653 23.7138 12.2245Z" fill="#4285F4"/>
<path d="M12.234 23.9176C15.4628 23.9176 18.1734 22.8545 20.1533 21.0209L16.3797 18.0976C15.3698 18.8018 14.0145 19.2934 12.234 19.2934C9.07158 19.2934 6.38751 17.2074 5.43072 14.324L5.29048 14.3359L1.59906 17.1927L1.55078 17.3269C3.51732 21.2334 7.55674 23.9176 12.234 23.9176Z" fill="#34A853"/>
<path d="M5.42992 14.324C5.17747 13.5799 5.03136 12.7826 5.03136 11.9588C5.03136 11.1349 5.17747 10.3377 5.41664 9.5936L5.40996 9.43513L1.67228 6.53241L1.54999 6.59058C0.739483 8.21168 0.274414 10.0321 0.274414 11.9588C0.274414 13.8855 0.739483 15.7058 1.54999 17.3269L5.42992 14.324Z" fill="#FBBC05"/>
<path d="M12.234 4.62403C14.4795 4.62403 15.9943 5.59402 16.858 6.40461L20.233 3.10928C18.1602 1.1826 15.4628 0 12.234 0C7.55673 0 3.51732 2.68406 1.55078 6.59056L5.41744 9.59359C6.38751 6.7102 9.07157 4.62403 12.234 4.62403Z" fill="#EB4335"/>
</g>
<defs>
<clipPath id="clip0_59_875">
<rect width="24" height="24" fill="white"/>
</clipPath>
</defs>
</svg>
