<svg width="22" height="16" viewBox="0 0 22 16" fill="none" xmlns="http://www.w3.org/2000/svg">
<path d="M11 15.25C13.3472 15.25 15.25 13.3472 15.25 11C15.25 8.65279 13.3472 6.75 11 6.75C8.65279 6.75 6.75 8.65279 6.75 11C6.75 13.3472 8.65279 15.25 11 15.25Z" fill="#232323"/>
<path fill-rule="evenodd" clip-rule="evenodd" d="M21.5298 8.97002C21.5298 8.97002 20.9258 8.36601 20.0158 7.45501C15.0358 2.47601 6.96375 2.47601 1.98375 7.45501C1.07375 8.36601 0.46975 8.97002 0.46975 8.97002C0.17675 9.26202 0.17675 9.73801 0.46975 10.03C0.76175 10.323 1.23775 10.323 1.52975 10.03C1.52975 10.03 2.13375 9.42601 3.04475 8.51601C7.43775 4.12201 14.5618 4.12201 18.9548 8.51601C19.8657 9.42601 20.4697 10.03 20.4697 10.03C20.7617 10.323 21.2378 10.323 21.5298 10.03C21.8228 9.73801 21.8228 9.26202 21.5298 8.97002Z" fill="#232323"/>
<path fill-rule="evenodd" clip-rule="evenodd" d="M17.8498 2.86701L16.3498 5.46501C16.1438 5.82301 16.2668 6.28201 16.6248 6.48901C16.9828 6.69601 17.4428 6.57301 17.6498 6.21501L19.1498 3.61701C19.3558 3.25801 19.2328 2.79901 18.8748 2.59201C18.5168 2.38501 18.0568 2.50801 17.8498 2.86701Z" fill="#232323"/>
<path fill-rule="evenodd" clip-rule="evenodd" d="M10.25 1.5V4.5C10.25 4.914 10.586 5.25 11 5.25C11.414 5.25 11.75 4.914 11.75 4.5V1.5C11.75 1.086 11.414 0.75 11 0.75C10.586 0.75 10.25 1.086 10.25 1.5Z" fill="#232323"/>
<path fill-rule="evenodd" clip-rule="evenodd" d="M2.84984 3.61701L4.34984 6.21501C4.55684 6.57301 5.01684 6.69601 5.37484 6.48901C5.73284 6.28201 5.85584 5.82301 5.64984 5.46501L4.14984 2.86701C3.94284 2.50801 3.48284 2.38501 3.12484 2.59201C2.76684 2.79901 2.64384 3.25801 2.84984 3.61701Z" fill="#232323"/>
</svg>
