<svg width="90" height="26" viewBox="0 0 90 26" fill="none" xmlns="http://www.w3.org/2000/svg">
<g clip-path="url(#clip0_670_10)">
<path d="M0.028656 4.8299H3.14377V11.7508H9.71374V4.8299H12.8329V21.8185H9.71374V14.7523H3.14377V21.8185H0.028656V4.8299Z" fill="#45535E"/>
<path d="M22.7015 16.2851C22.7015 17.7072 21.5429 18.8645 20.1211 18.8645C18.6988 18.8645 17.5408 17.7072 17.5408 16.2851V8.97089H14.5866V16.2851C14.5866 19.3365 17.0695 21.8186 20.1211 21.8186C23.172 21.8186 25.6547 19.3365 25.6547 16.2851V8.97089H22.7015V16.2851Z" fill="#45535E"/>
<path d="M33.9018 9.05655C32.4363 9.05655 31.4134 9.4818 30.4256 10.4515V4.8299H27.4618V15.2482C27.4618 19.1479 30.2813 21.8185 33.4489 21.8185C36.9705 21.8185 40.0559 19.1002 40.0559 15.4377C40.0559 11.8216 37.2107 9.05655 33.9018 9.05655ZM33.9754 19.0767C31.9671 19.0767 30.4314 17.3994 30.4314 15.4377C30.4314 13.4757 31.9671 11.7979 33.9754 11.7979C35.6771 11.7979 37.2137 13.4757 37.2137 15.4377C37.2137 17.3994 35.6771 19.0767 33.9754 19.0767Z" fill="#45535E"/>
<path d="M45.0338 9.80323C45.0338 8.31337 46.0265 7.84101 47.1133 7.84101C47.9882 7.84101 49.146 8.5027 49.9015 9.30643L51.839 7.0378C50.8707 5.73815 48.9095 4.83984 47.3024 4.83984C44.088 4.83984 41.7719 6.70696 41.7719 9.80323C41.7719 15.5459 48.8385 13.7256 48.8385 16.9405C48.8385 17.932 47.8699 18.8073 46.7597 18.8073C45.0102 18.8073 44.4428 17.9564 43.6396 17.0581L41.4885 19.2793C42.8601 20.9574 44.5611 21.8086 46.5938 21.8086C49.6422 21.8086 52.1002 19.9179 52.1002 16.9633C52.1002 10.5827 45.0338 12.5681 45.0338 9.80323Z" fill="#45535E"/>
<path d="M59.9027 8.89008C56.7354 8.89008 53.9155 11.5592 53.9155 15.4597V25.9049H56.8791V20.2566C57.8671 21.2256 58.8895 21.6515 60.3555 21.6515C63.6643 21.6515 66.5098 18.8868 66.5098 15.2707C66.5098 11.6077 63.4235 8.89008 59.9027 8.89008ZM60.4293 18.9105C58.4212 18.9105 56.8853 17.231 56.8853 15.2707C56.8853 13.3087 58.4212 11.6309 60.4293 11.6309C62.1306 11.6309 63.6674 13.3087 63.6674 15.2707C63.6674 17.231 62.1306 18.9105 60.4293 18.9105Z" fill="#45535E"/>
<path d="M88.3255 19.0767C86.5774 19.0767 86.0812 18.3208 86.0812 17.1623V12.0342H88.7984V9.43487H86.0812V6.00775L83.0807 7.35452V17.8004C83.0807 20.4713 84.9234 21.8185 87.451 21.8185C87.8291 21.8185 88.3496 21.7941 88.6335 21.7241L89.3662 19.0303C89.0354 19.0531 88.6574 19.0767 88.3255 19.0767Z" fill="#45535E"/>
<path d="M80.5096 12.1853C79.9415 11.2078 79.1423 10.4241 78.1431 9.83412C77.3965 9.39945 76.6222 9.12357 75.7497 9.00509V5.89905C76.6222 5.52859 77.1637 4.70863 77.1637 3.75204C77.1637 2.44821 76.1181 1.39163 74.8153 1.39163C73.5115 1.39163 72.4476 2.44821 72.4476 3.75204C72.4476 4.70863 72.9578 5.52859 73.8303 5.89905V9.00649C73.1323 9.10735 72.4085 9.32494 71.7475 9.65928C70.3974 8.63394 65.9704 5.27016 63.3807 3.30551C63.4421 3.08407 63.4894 2.85583 63.4894 2.61502C63.4894 1.17089 62.3199 0.000366211 60.8753 0.000366211C59.4306 0.000366211 58.2617 1.17089 58.2617 2.61502C58.2617 4.05898 59.4319 5.22986 60.8765 5.22986C61.3693 5.22986 61.8251 5.08572 62.2184 4.84876L62.7649 5.26336L70.2745 10.6742C69.8776 11.0387 69.5078 11.4533 69.212 11.9185C68.6126 12.8669 68.2464 13.9104 68.2464 15.0486V15.2861C68.2464 16.0851 68.3982 16.8395 68.6568 17.5481C68.8845 18.1669 69.2174 18.7294 69.6298 19.2381L67.1374 21.7365C66.9164 21.6551 66.6841 21.6104 66.4417 21.6104C65.9022 21.6104 65.3961 21.8212 65.0145 22.2021C64.6325 22.5841 64.4233 23.0913 64.4233 23.6312C64.4235 24.1709 64.6338 24.6782 65.0156 25.0598C65.3972 25.4416 65.9045 25.6521 66.4443 25.6521C66.9842 25.6521 67.4917 25.4416 67.8736 25.0598C68.2547 24.6782 68.4652 24.1708 68.4652 23.6312C68.4652 23.4224 68.4329 23.2185 68.3722 23.0249L70.9483 20.4484C71.3015 20.6924 71.6829 20.8977 72.093 21.0749C72.9018 21.4245 73.7945 21.6376 74.7715 21.6376H74.9505C76.0307 21.6376 77.0496 21.3839 78.0074 20.8649C79.0167 20.3165 79.8066 19.5665 80.4034 18.609C81.0033 17.649 81.3336 16.5882 81.3336 15.4212V15.3629C81.3336 14.2149 81.0679 13.1557 80.5096 12.1853ZM77.3621 17.59C76.6629 18.367 75.8591 18.8457 74.9505 18.8457H74.8008C74.2819 18.8457 73.7743 18.7022 73.2773 18.4413C72.7171 18.1541 72.2914 17.7444 71.9429 17.2256C71.5827 16.7164 71.3873 16.1605 71.3873 15.5711V15.392C71.3873 14.8125 71.4985 14.263 71.7787 13.7441C72.0783 13.1768 72.483 12.7357 73.0211 12.3849C73.5495 12.0366 74.1138 11.8658 74.7424 11.8658H74.8008C75.3707 11.8658 75.9103 11.9782 76.4194 12.2387C76.9382 12.5165 77.3621 12.896 77.6907 13.3953C78.0098 13.8947 78.1997 14.4333 78.2607 15.0202C78.2703 15.1421 78.2752 15.2671 78.2752 15.3864C78.2752 16.1828 77.9709 16.9204 77.3621 17.59Z" fill="#F8761F"/>
</g>
<defs>
<clipPath id="clip0_670_10">
<rect width="89.3423" height="26" fill="white" transform="translate(0.0181885)"/>
</clipPath>
</defs>
</svg>
