<svg width="77" height="26" viewBox="0 0 77 26" fill="none" xmlns="http://www.w3.org/2000/svg">
<g clip-path="url(#clip0_670_22)">
<path d="M26.1032 0V9.39891H27.4487L29.9499 16.3507L32.4715 9.39891H35.3664L31.2301 19.719H28.6309L26.1032 13.4119V25.9628H0.141418V0H26.1032ZM44.9806 9.16226C48.0724 9.16226 49.1363 11.132 49.2149 12.6489H46.5168C46.4576 11.9991 45.965 11.4074 44.9612 11.4074C44.0533 11.4074 43.5433 11.841 43.5433 12.4122C43.5433 14.1453 49.2547 12.4122 49.2547 16.6465C49.2547 18.4979 47.6787 19.9546 44.8827 19.9546C41.6521 19.9546 40.5494 18.3011 40.4117 16.3701H43.2475C43.2873 17.0596 43.7993 17.7094 44.9612 17.7094C46.0241 17.7094 46.576 17.3351 46.576 16.7648C46.576 15.0317 40.8452 16.6659 40.8452 12.5693C40.8452 10.6985 42.4406 9.16226 44.9806 9.16226ZM60.1062 9.16226C63.4153 9.16226 65.5227 11.6237 65.5227 14.5584C65.5227 17.4932 63.4142 19.9546 60.1062 19.9546C56.7981 19.9546 54.6906 17.4921 54.6906 14.5584C54.6906 11.6247 56.7981 9.16226 60.1062 9.16226ZM72.4092 9.16226C74.891 9.16226 76.21 10.8168 76.21 13.2782V19.72H73.414V13.5945C73.414 12.3938 72.9019 11.5666 71.6605 11.5666C70.3018 11.5666 69.554 12.4316 69.554 13.8107V19.719H66.757V9.39891H69.3368V10.6597C69.8101 9.7743 70.873 9.16226 72.4092 9.16226ZM39.0509 9.39891V19.719H36.2539V9.39891H39.0509ZM53.4655 9.39891V19.719H50.6685V9.39891H53.4655ZM60.1062 11.6247C58.6281 11.6247 57.4876 12.707 57.4876 14.5584C57.4876 16.4098 58.6301 17.4932 60.1062 17.4932C61.5863 17.4932 62.7257 16.4088 62.7257 14.5584C62.7257 12.708 61.5842 11.6247 60.1062 11.6247Z" fill="#FF0066"/>
<path d="M9.23192 8.17276C10.0529 8.16321 10.7117 7.4916 10.7053 6.67055C10.699 5.84951 10.0299 5.18816 9.20887 5.1913C8.38781 5.19445 7.72386 5.86091 7.7238 6.68198C7.72514 7.07995 7.88502 7.46099 8.16806 7.74077C8.45109 8.02055 8.83395 8.17601 9.23192 8.17276Z" fill="white"/>
<path d="M6.09231 16.159C6.00669 16.5268 5.96189 16.903 5.95873 17.2806C5.95873 18.594 6.67251 19.4658 8.1847 19.4658C9.43994 19.4658 10.4576 18.7204 11.1897 17.5162L10.7431 19.3118H13.2352L14.6628 13.6016C15.0166 12.1506 15.7069 11.396 16.7531 11.396C17.576 11.396 18.0879 11.9059 18.0879 12.7532C18.0917 13.0245 18.0542 13.2947 17.9767 13.5547L17.2426 16.1885C17.1378 16.55 17.0853 16.9246 17.0866 17.301C17.0866 18.5481 17.8207 19.4597 19.3564 19.4597C20.6697 19.4597 21.7159 18.6144 22.2941 16.5893L21.3152 16.211C20.8258 17.5682 20.3975 17.8129 20.0691 17.8129C19.7408 17.8129 19.5593 17.5906 19.5593 17.146C19.5689 16.9123 19.6062 16.6806 19.6704 16.4557L20.3842 13.8973C20.5449 13.3711 20.6277 12.8242 20.63 12.274C20.63 10.36 19.4726 9.36072 18.0695 9.36072C16.7572 9.36072 15.4184 10.5456 14.7535 11.7916L15.244 9.55446H11.4334L10.8991 11.5255H12.6805L11.5833 15.9153C10.7227 17.8292 9.13607 17.8598 8.94233 17.816C8.61603 17.7425 8.40801 17.6181 8.40801 17.195C8.41796 16.85 8.47036 16.5075 8.56403 16.1753L10.2333 9.55344H6.00461L5.4703 11.5245H7.22824L6.09231 16.159Z" fill="white"/>
</g>
<defs>
<clipPath id="clip0_670_22">
<rect width="76.0686" height="26" fill="white" transform="translate(0.141418)"/>
</clipPath>
</defs>
</svg>
