<svg width="101" height="26" viewBox="0 0 101 26" fill="none" xmlns="http://www.w3.org/2000/svg">
<g clip-path="url(#clip0_670_27)">
<path d="M32.7872 7.47702C32.4718 7.15828 32.314 6.77436 32.314 6.32524C32.314 5.87611 32.4718 5.49219 32.7872 5.17345C33.1027 4.85472 33.4915 4.69536 33.9537 4.69536C34.4012 4.69536 34.7845 4.85472 35.1037 5.17345C35.4228 5.49219 35.5824 5.87611 35.5824 6.32524C35.5824 6.77436 35.4228 7.15647 35.1037 7.47158C34.7845 7.7867 34.4012 7.94425 33.9537 7.94425C33.4915 7.94425 33.1027 7.78851 32.7872 7.47702ZM32.4681 20.5812V10.3456C32.4681 10.2514 32.5011 10.1718 32.5671 10.1066C32.6332 10.0414 32.7139 10.0088 32.8092 10.0088H35.1092C35.2119 10.0088 35.2944 10.0414 35.3568 10.1066C35.4191 10.1718 35.4503 10.2514 35.4503 10.3456V20.5812C35.4503 20.6754 35.4191 20.7551 35.3568 20.8203C35.2944 20.8855 35.2119 20.9181 35.1092 20.9181H32.8092C32.7139 20.9181 32.6332 20.8855 32.5671 20.8203C32.5011 20.7551 32.4681 20.6754 32.4681 20.5812ZM37.035 12.0841V10.3456C37.035 10.2514 37.0662 10.1718 37.1285 10.1066C37.1909 10.0414 37.2734 10.0088 37.3761 10.0088H38.9498V7.00978C38.9498 6.90837 38.981 6.82688 39.0433 6.7653C39.1057 6.70373 39.1882 6.67294 39.2909 6.67294H41.5909C41.6862 6.67294 41.7669 6.70373 41.833 6.7653C41.899 6.82688 41.932 6.90837 41.932 7.00978V10.0088H43.5057C43.601 10.0088 43.6817 10.0414 43.7478 10.1066C43.8138 10.1718 43.8468 10.2514 43.8468 10.3456V12.0841C43.8468 12.1783 43.8138 12.258 43.7478 12.3232C43.6817 12.3884 43.601 12.421 43.5057 12.421H41.932V20.5812C41.932 20.6754 41.899 20.7551 41.833 20.8203C41.7669 20.8855 41.6862 20.9181 41.5909 20.9181H39.2909C39.1882 20.9181 39.1057 20.8855 39.0433 20.8203C38.981 20.7551 38.9498 20.6754 38.9498 20.5812V12.421H37.3761C37.2734 12.421 37.1909 12.3884 37.1285 12.3232C37.0662 12.258 37.035 12.1783 37.035 12.0841ZM45.0463 19.386C44.9876 19.3208 44.9601 19.252 44.9638 19.1796C44.9674 19.1071 44.9949 19.0274 45.0463 18.9405L45.9267 17.7127C46.044 17.5605 46.2091 17.5678 46.4219 17.7344C47.4636 18.4008 48.3807 18.7341 49.173 18.7341C49.5838 18.7341 49.9231 18.6616 50.1909 18.5167C50.4587 18.3719 50.5926 18.1401 50.5926 17.8213C50.5926 17.6185 50.5156 17.4356 50.3615 17.2726C50.2074 17.1096 50.0057 16.9738 49.7562 16.8651C49.5068 16.7565 49.2225 16.6424 48.9034 16.5228C48.5843 16.4033 48.2578 16.2892 47.924 16.1806C47.5902 16.0719 47.2637 15.9252 46.9446 15.7405C46.6255 15.5558 46.3412 15.353 46.0917 15.132C45.8423 14.9111 45.6405 14.6249 45.4865 14.2736C45.3324 13.9223 45.2554 13.5257 45.2554 13.0838C45.2554 12.0769 45.6332 11.2728 46.3889 10.6716C47.1445 10.0703 48.0432 9.76971 49.085 9.76971C49.8039 9.76971 50.5009 9.91459 51.1758 10.2043C51.8508 10.4941 52.4157 10.8998 52.8705 11.4213C52.9953 11.5662 52.9879 11.7219 52.8485 11.8886L51.9902 12.9969C51.8728 13.149 51.7077 13.1418 51.495 12.9751C51.0034 12.6637 50.6128 12.4445 50.323 12.3178C50.0332 12.191 49.7049 12.1276 49.3381 12.1276C48.9859 12.1276 48.6943 12.2145 48.4632 12.3884C48.2321 12.5622 48.1166 12.7868 48.1166 13.0621C48.1166 13.3011 48.2156 13.5058 48.4137 13.676C48.6118 13.8462 48.8685 13.9875 49.184 14.0998C49.4995 14.212 49.8479 14.3243 50.2294 14.4366C50.6109 14.5489 50.9906 14.6901 51.3684 14.8604C51.7462 15.0306 52.0929 15.2334 52.4083 15.4689C52.7238 15.7043 52.9806 16.0266 53.1787 16.4359C53.3767 16.8452 53.4758 17.3215 53.4758 17.8648C53.4758 18.5385 53.263 19.1361 52.8375 19.6576C52.412 20.1792 51.8838 20.5686 51.2529 20.8257C50.6219 21.0829 49.958 21.2115 49.261 21.2115C48.3807 21.2115 47.5682 21.034 46.8235 20.679C46.0789 20.3241 45.4865 19.8931 45.0463 19.386ZM55.3906 18.3755C54.9357 17.499 54.7083 16.5355 54.7083 15.4852C54.7083 14.4348 54.9376 13.4732 55.3961 12.6003C55.8546 11.7274 56.4929 11.0374 57.3109 10.5303C58.1289 10.0232 59.0441 9.76971 60.0565 9.76971C61.3404 9.76971 62.4592 10.3021 63.4129 11.367L63.4789 10.3456C63.5009 10.121 63.6147 10.0088 63.8201 10.0088H65.8889C65.9843 10.0088 66.065 10.0414 66.131 10.1066C66.1971 10.1718 66.2301 10.2514 66.2301 10.3456V20.5812C66.2301 20.6754 66.1971 20.7551 66.131 20.8203C66.065 20.8855 65.9843 20.9181 65.8889 20.9181H63.8201C63.6147 20.9181 63.5009 20.8058 63.4789 20.5812L63.3909 19.6468C62.4885 20.6899 61.3771 21.2115 60.0565 21.2115C59.0441 21.2115 58.1289 20.9561 57.3109 20.4454C56.4929 19.9347 55.8528 19.2447 55.3906 18.3755ZM57.5805 15.4634C57.5805 16.3472 57.8483 17.0806 58.3838 17.6638C58.9194 18.2469 59.598 18.5385 60.4197 18.5385C61.2193 18.5385 61.8888 18.236 62.428 17.6312C62.9672 17.0263 63.2368 16.3037 63.2368 15.4634C63.2368 14.6304 62.9672 13.9187 62.428 13.3283C61.8888 12.7379 61.2193 12.4427 60.4197 12.4427C59.598 12.4427 58.9194 12.7288 58.3838 13.3011C57.8483 13.8734 57.5805 14.5942 57.5805 15.4634ZM68.2549 20.5812V5.01047C68.2549 4.90905 68.2879 4.82756 68.354 4.76598C68.42 4.70441 68.5007 4.67362 68.5961 4.67362H70.896C70.9914 4.67362 71.0702 4.70441 71.1326 4.76598C71.195 4.82756 71.2261 4.90905 71.2261 5.01047V20.5812C71.2261 20.6827 71.195 20.7642 71.1326 20.8257C71.0702 20.8873 70.9914 20.9181 70.896 20.9181H68.5961C68.5007 20.9181 68.42 20.8855 68.354 20.8203C68.2879 20.7551 68.2549 20.6754 68.2549 20.5812ZM73.6361 7.47702C73.3207 7.15828 73.1629 6.77436 73.1629 6.32524C73.1629 5.87611 73.3207 5.49219 73.6361 5.17345C73.9516 4.85472 74.3404 4.69536 74.8026 4.69536C75.2501 4.69536 75.6335 4.85472 75.9526 5.17345C76.2717 5.49219 76.4313 5.87611 76.4313 6.32524C76.4313 6.77436 76.2717 7.15647 75.9526 7.47158C75.6335 7.7867 75.2501 7.94425 74.8026 7.94425C74.3404 7.94425 73.9516 7.78851 73.6361 7.47702ZM73.317 20.5812V10.3456C73.317 10.2514 73.35 10.1718 73.416 10.1066C73.4821 10.0414 73.5628 10.0088 73.6581 10.0088H75.9581C76.0608 10.0088 76.1433 10.0414 76.2057 10.1066C76.2681 10.1718 76.2992 10.2514 76.2992 10.3456V20.5812C76.2992 20.6754 76.2681 20.7551 76.2057 20.8203C76.1433 20.8855 76.0608 20.9181 75.9581 20.9181H73.6581C73.5628 20.9181 73.4821 20.8855 73.416 20.8203C73.35 20.7551 73.317 20.6754 73.317 20.5812ZM77.8179 10.3891C77.7959 10.3239 77.7849 10.2695 77.7849 10.2261C77.7849 10.0812 77.8876 10.0088 78.093 10.0088H80.4149C80.613 10.0088 80.7451 10.0993 80.8111 10.2804L83.5182 17.4953L86.2033 10.2804C86.2694 10.0993 86.4051 10.0088 86.6105 10.0088H88.9325C89.1306 10.0088 89.2296 10.0812 89.2296 10.2261C89.2296 10.2768 89.2186 10.3311 89.1966 10.3891L85.0809 20.6464C85.0149 20.8275 84.8791 20.9181 84.6737 20.9181H82.3738C82.1683 20.9181 82.0326 20.8275 81.9666 20.6464L77.8179 10.3891ZM89.4827 15.4852C89.4827 14.6956 89.6239 13.9476 89.9064 13.2414C90.1888 12.5351 90.574 11.9284 91.0619 11.4213C91.5497 10.9142 92.1403 10.5122 92.8336 10.2152C93.5269 9.91821 94.266 9.76971 95.051 9.76971C96.0854 9.76971 97.008 10.0214 97.8187 10.5249C98.6293 11.0283 99.2456 11.693 99.6674 12.5188C100.089 13.3446 100.3 14.2537 100.3 15.2461C100.3 15.717 100.249 16.0538 100.146 16.2566C100.043 16.4595 99.8343 16.5609 99.5189 16.5609H92.4429C92.5897 17.2853 92.9345 17.843 93.4774 18.2342C94.0203 18.6254 94.7245 18.821 95.5902 18.821C96.4266 18.821 97.2079 18.5711 97.9342 18.0712C98.125 17.9481 98.29 17.9553 98.4294 18.093L99.4308 19.0492C99.5849 19.2085 99.5776 19.3715 99.4088 19.5381C98.8733 20.0669 98.2515 20.478 97.5435 20.7714C96.8356 21.0648 96.0891 21.2115 95.3041 21.2115C94.4604 21.2115 93.6736 21.063 92.9436 20.766C92.2137 20.469 91.5974 20.0651 91.0949 19.5544C90.5923 19.0437 90.198 18.4371 89.9119 17.7344C89.6258 17.0317 89.4827 16.282 89.4827 15.4852ZM92.3989 14.6376H97.6701C97.5747 13.8915 97.2886 13.3084 96.8117 12.8882C96.3349 12.4681 95.7553 12.258 95.073 12.258C94.3834 12.258 93.7965 12.4663 93.3123 12.8828C92.8281 13.2993 92.5236 13.8842 92.3989 14.6376ZM9.24244 25.2285L5.27574 25.8452C4.81425 25.9342 4.36705 25.6369 4.2769 25.1813C4.25562 25.0737 4.25585 24.9631 4.27759 24.8556L4.74059 22.7139C1.9656 20.3427 0.209961 16.8396 0.209961 12.9316C0.209961 5.78969 6.07355 0 13.3067 0C20.5398 0 26.4034 5.78969 26.4034 12.9316C26.4034 20.0736 20.5398 25.8633 13.3067 25.8633C11.8879 25.8633 10.5219 25.6405 9.24244 25.2285ZM14.5426 11.8177L16.499 8.15976C16.556 8.053 16.5859 7.9341 16.5859 7.81338C16.5859 7.4037 16.2495 7.0716 15.8346 7.0716H11.0752C10.718 7.0716 10.4102 7.31997 10.339 7.66562L9.18987 13.248C9.17992 13.2963 9.17481 13.3455 9.17481 13.3948C9.17426 13.8044 9.51016 14.137 9.92506 14.1375L11.3208 14.1394L11.5654 18.2418C11.5782 18.4571 11.6853 18.6561 11.8587 18.7872C12.1881 19.0362 12.6596 18.9744 12.9118 18.6491L17.2838 13.0104C17.3841 12.881 17.4385 12.7225 17.4385 12.5595C17.4385 12.1498 17.1022 11.8177 16.6873 11.8177H14.5426Z" fill="#5146F9"/>
</g>
<defs>
<clipPath id="clip0_670_27">
<rect width="100.09" height="26" fill="white" transform="translate(0.209961)"/>
</clipPath>
</defs>
</svg>
