<svg width="21" height="20" viewBox="0 0 21 20" fill="none" xmlns="http://www.w3.org/2000/svg">
<g clip-path="url(#clip0_59_840)">
<path d="M7.83366 0C5.25655 0 3.16699 2.08756 3.16699 4.66405C3.16699 7.24055 5.25655 9.32812 7.83366 9.32812C10.4108 9.32812 12.5003 7.24055 12.5003 4.66405C12.5003 2.08756 10.4108 0 7.83366 0Z" fill="#1C5540"/>
<path d="M16.4997 6.66666V9.33332H13.833V10.6667H16.4997V13.3333H17.833V10.6667H20.4997V9.33332H17.833V6.66666H16.4997Z" fill="#1C5540"/>
<path d="M10.5 11.9922H5.16667C2.58948 11.9922 0.5 14.0807 0.5 16.6581V19.9879H15.1667V16.6581C15.1667 14.0807 13.0772 11.9922 10.5 11.9922Z" fill="#1C5540"/>
</g>
<defs>
<clipPath id="clip0_59_840">
<rect width="20" height="20" fill="white" transform="translate(0.5)"/>
</clipPath>
</defs>
</svg>
