<svg width="27" height="24" viewBox="0 0 27 24" fill="none" xmlns="http://www.w3.org/2000/svg">
<path d="M17.2488 2.95017V22.3997L23.1467 24L23.7111 23.9317V1.23037H22.7816L17.2488 2.95017ZM10.0015 17.4403V23.9888H11.6833L11.7139 16.0898L10.0015 17.4403ZM10.0015 0V6.56771L11.7455 7.95662L11.772 1.14671H23.3241L24.3418 1.14831V23.9888H25.6696V0H10.0015ZM7.10389 18.357C7.0043 18.357 6.90366 18.3339 6.8131 18.2906C6.58232 18.178 6.4344 17.9419 6.4344 17.6875V14.8223H0.669492C0.300355 14.8223 0 14.5219 0 14.1525V9.8363C0 9.4669 0.300355 9.16681 0.669492 9.16681H6.43413V6.30188C6.43413 6.04667 6.58285 5.80979 6.8131 5.69852C7.03803 5.5899 7.32458 5.6215 7.5211 5.77792L14.7047 11.4987C14.8653 11.627 14.9572 11.8185 14.9569 12.0243C14.9564 12.2301 14.8635 12.4213 14.7017 12.5491L7.51871 18.2136C7.40133 18.306 7.25394 18.357 7.10389 18.357Z" fill="#232323"/>
</svg>
