<svg width="32" height="33" viewBox="0 0 32 33" fill="none" xmlns="http://www.w3.org/2000/svg">
<path d="M4.29999 5.28008C4.09999 5.33008 3.81249 5.43008 3.64999 5.50508L3.36249 5.63008L5.74999 7.96758C13.675 15.7801 14.3875 16.4676 14.85 16.6801C15.6375 17.0551 16.4625 17.0301 17.25 16.6426C17.6 16.4676 19.2375 14.8801 26.4 7.83008L28.6375 5.61758L28.35 5.50508C27.5375 5.15508 27.9875 5.18008 15.9625 5.18008C6.64999 5.18008 4.59999 5.19258 4.29999 5.28008Z" fill="#1C5540"/>
<path d="M1.65002 7.45518C1.58752 7.56768 1.48752 7.84268 1.41252 8.05518C1.28752 8.43018 1.27502 8.90518 1.25002 16.0427C1.23752 20.7177 1.26252 23.8677 1.30002 24.2177C1.37502 24.8177 1.62502 25.6177 1.75002 25.6177C1.78752 25.6177 3.90002 23.5427 6.45002 21.0052L11.075 16.3927L9.36252 14.7177C8.42502 13.7927 6.32502 11.7427 4.70002 10.1427L1.75002 7.24268L1.65002 7.45518Z" fill="#1C5540"/>
<path d="M25.6125 11.7802C23.0875 14.2677 21 16.3427 20.9875 16.3677C20.9625 16.4427 30.1625 25.6052 30.2625 25.6052C30.375 25.6052 30.625 24.7802 30.7 24.2052C30.7375 23.8427 30.7625 20.6927 30.75 16.0302L30.725 8.43015L30.5625 7.96765C30.475 7.70515 30.3625 7.44266 30.3125 7.38016C30.225 7.28016 29.6875 7.79265 25.6125 11.7802Z" fill="#1C5540"/>
<path d="M8.0125 22.63C5.1 25.5425 3.4 27.2925 3.4375 27.3425C3.475 27.38 3.7125 27.48 3.975 27.5675L4.4375 27.7425H16.025H27.625L28.0875 27.555C28.35 27.455 28.5625 27.3425 28.575 27.305C28.5875 27.2675 26.5125 25.155 23.9625 22.605L19.325 17.98L18.9375 18.2675C18.0625 18.9175 17.125 19.2175 16 19.2175C14.8875 19.2175 13.8875 18.8925 13.075 18.28C12.8625 18.1175 12.6875 17.9925 12.675 17.9925C12.6625 17.98 10.5625 20.0675 8.0125 22.63Z" fill="#1C5540"/>
</svg>
