<svg width="14" height="14" viewBox="0 0 14 14" fill="none" xmlns="http://www.w3.org/2000/svg">
<path d="M11.998 13.252H2.00195C1.31055 13.252 0.753906 12.6895 0.753906 12.0039C0.753906 11.3125 1.31055 10.7559 2.00195 10.7559H12.0039C12.6953 10.7559 13.252 11.3184 13.252 12.0039C13.252 12.6895 12.6895 13.252 11.998 13.252Z" fill="#FAFAFA"/>
<path d="M11.998 8.24805H2.00195C1.31055 8.24805 0.753906 7.68555 0.753906 7C0.753906 6.31445 1.31055 5.75195 2.00195 5.75195H12.0039C12.6953 5.75195 13.252 6.31445 13.252 7C13.252 7.68555 12.6895 8.24805 11.998 8.24805Z" fill="#FAFAFA"/>
<path d="M11.998 3.25H2.00195C1.31055 3.25 0.753906 2.6875 0.753906 2.00195C0.753906 1.31055 1.31055 0.753906 2.00195 0.753906H12.0039C12.6953 0.753906 13.252 1.31641 13.252 2.00195C13.252 2.6875 12.6895 3.25 11.998 3.25Z" fill="#FAFAFA"/>
</svg>
