<svg width="212" height="258" viewBox="0 0 212 258" fill="none" xmlns="http://www.w3.org/2000/svg">
<path d="M47.4934 234.498C56.4837 234.498 64.8418 239.899 73.6471 241.663C82.2057 243.36 90.6717 240.56 99.0915 238.665C103.332 237.717 107.619 236.967 111.922 237.276C116.363 237.607 120.48 239.326 124.52 241.883C128.175 244.22 131.753 246.931 135.623 248.496C139.309 249.995 143.103 250.061 146.865 249.113C155.717 246.887 163.859 239.987 173.004 240.053C173.297 240.053 173.297 239.392 173.004 239.392C165 239.326 157.706 244.55 150.119 247.394C146.171 248.871 142.054 249.665 138.014 248.606C133.927 247.548 130.164 244.859 126.433 242.39C122.732 239.943 118.984 237.805 114.913 237.011C110.719 236.196 106.478 236.548 102.299 237.342C93.8176 238.907 85.3824 242.214 76.7775 241.464C66.8311 240.582 57.5632 233.859 47.5242 233.859C47.2004 233.837 47.2004 234.498 47.4934 234.498Z" fill="#191D23"/>
<path d="M35.0943 237.144C36.9294 236.152 38.8107 235.446 40.7537 235.027C41.0467 234.961 40.9234 234.322 40.6304 234.388C38.6873 234.785 36.806 235.49 34.9709 236.504C34.6933 236.659 34.8167 237.298 35.0943 237.144Z" fill="#191D23"/>
<path d="M31.7948 242.875C42.1268 236.372 53.276 243.713 63.3767 247.438C66.3375 248.54 69.36 249.356 72.4287 249.598C72.7217 249.62 72.7217 248.959 72.4287 248.937C61.2949 248.077 51.1788 239.194 39.9062 239.723C37.0379 239.855 34.2005 240.671 31.5789 242.324C31.3014 242.478 31.5327 243.051 31.7948 242.875Z" fill="#191D23"/>
<path d="M79.6303 254.999C82.0051 254.492 84.2565 253.368 86.5234 252.266C88.7748 251.186 91.0417 250.26 93.3548 249.576C98.1353 248.188 103.039 247.725 107.897 248.21C110.719 248.496 113.525 249.113 116.27 250.017C116.563 250.105 116.687 249.466 116.394 249.378C106.863 246.226 96.7782 246.799 87.464 251.119C84.8271 252.332 82.2518 253.765 79.4915 254.36C79.2139 254.426 79.3373 255.065 79.6303 254.999Z" fill="#191D23"/>
<path d="M134.882 255.903C138.09 258.262 141.76 258.306 145.261 257.622C149.316 256.851 153.295 255.308 157.227 253.632C165.046 250.304 172.833 246.248 181.052 245.542C185.571 245.146 190.12 245.829 194.361 248.144C194.638 248.298 194.762 247.659 194.484 247.504C178.955 238.995 163.226 252.023 148.144 256.256C143.873 257.446 139.139 258.262 135.129 255.308C134.852 255.131 134.62 255.705 134.882 255.903Z" fill="#191D23"/>
<path d="M182.21 240.34C185.71 240.207 189.18 241.177 192.388 243.249C192.65 243.426 192.896 242.853 192.619 242.676C189.35 240.56 185.803 239.546 182.21 239.678C181.901 239.7 181.901 240.362 182.21 240.34Z" fill="#191D23"/>
<path d="M73.201 240.781C71.9982 238.974 71.0575 236.835 70.4561 234.477C70.194 233.419 69.9935 232.338 69.8701 231.236C69.793 230.575 69.4846 228.723 70.5486 229.142C70.965 229.318 71.4431 230.244 71.6744 230.729C71.844 231.082 72.2449 230.751 72.0753 230.399C71.2734 228.745 70.672 226.916 70.3019 224.976C70.1169 224.006 69.9935 222.992 69.9164 221.978C69.8855 221.493 69.8701 221.008 69.8701 220.501C69.8701 220.258 69.8701 220.016 69.8855 219.773C69.8547 219.288 70.0089 218.914 70.379 218.649C70.5332 218.583 70.672 218.539 70.8262 218.473C70.5795 217.569 70.3944 216.643 70.2711 215.695C70.2094 215.166 70.1631 214.615 70.1323 214.064C70.1323 213.998 70.1631 211.97 70.4099 212.345C70.5641 212.587 70.8725 212.345 70.7954 212.014C70.0089 208.465 69.8547 204.695 70.4099 201.036C70.5178 200.331 70.6103 199.295 70.965 198.722C71.4276 197.972 72.0907 198.369 72.43 199.074C72.6459 199.515 72.7847 200.022 72.908 200.529C73.2936 202.204 73.4323 204.012 73.6637 205.731C74.666 213.248 75.6221 220.787 76.1772 228.415C76.4857 232.691 76.6707 236.99 76.6707 241.288C76.6707 241.707 77.1333 241.707 77.1333 241.288C77.1333 232.361 76.3315 223.477 75.2828 214.681C74.7585 210.339 74.2342 205.952 73.5865 201.631C73.3707 200.22 73.016 198.192 71.9519 197.619C71.1655 197.2 70.5949 198.104 70.3328 199.074C69.2379 203.13 69.4692 208.09 70.3636 212.168C70.487 212.058 70.6257 211.948 70.7491 211.838C70.1785 211 69.7159 212.08 69.6697 212.852C69.5617 214.769 69.901 216.82 70.379 218.583C70.487 218.98 70.9187 218.826 70.8262 218.407C70.6874 217.767 70.1477 217.569 69.7776 218.01C69.1608 218.737 69.3921 220.787 69.4538 221.735C69.6234 224.954 70.4099 228.018 71.6744 230.663C71.8132 230.553 71.9365 230.443 72.0753 230.332C71.6744 229.517 70.7337 227.819 69.901 228.282C69.0528 228.745 69.3458 230.619 69.4538 231.545C69.8855 235.182 71.1038 238.533 72.8772 241.2C73.0777 241.553 73.4169 241.09 73.201 240.781Z" fill="#E8E8E8"/>
<path d="M76.4995 224.623C76.4995 222.463 76.6383 220.324 76.9313 218.23C77.0547 217.414 77.7949 212.146 78.458 212.3C78.5659 212.322 78.7201 212.256 78.7356 212.08C79.044 209.743 79.4757 207.451 80.0463 205.224C80.6015 203.108 81.2183 200.375 82.4982 198.92C82.3903 198.92 82.2823 198.92 82.1744 198.92C82.9917 200.198 82.7604 202.513 82.7758 204.122C82.7758 205.886 82.745 207.649 82.6679 209.435C82.5137 213.16 82.2052 216.863 81.7889 220.523C80.987 227.687 79.7842 234.763 78.5659 241.817C78.4888 242.236 78.936 242.412 79.0131 241.993C80.3393 234.388 81.6192 226.783 82.4211 219.024C82.8066 215.342 83.0688 211.661 83.1767 207.958C83.2384 205.974 83.2539 203.99 83.2076 202.006C83.1767 200.727 83.1305 199.449 82.4982 198.479C82.4057 198.346 82.2669 198.369 82.1744 198.479C80.9407 199.868 80.3547 202.292 79.7996 204.32C79.1211 206.789 78.6276 209.324 78.2883 211.926C78.3809 211.859 78.4734 211.771 78.5659 211.705C78.0879 211.595 77.8411 211.992 77.6407 212.587C77.2397 213.821 76.9622 215.188 76.7308 216.511C76.2374 219.178 76.0215 221.933 76.0215 224.689C76.0369 225.042 76.4995 225.042 76.4995 224.623Z" fill="#E8E8E8"/>
<path d="M145.895 248.805C145.124 246.997 144.477 245.102 143.968 243.096C143.736 242.192 143.536 241.266 143.366 240.318C143.274 239.811 143.197 239.304 143.12 238.797C143.089 238.555 143.043 238.29 143.012 238.026C142.857 237.496 143.012 237.144 143.459 236.967C143.613 236.945 143.767 236.901 143.906 236.879C143.49 235.248 143.197 233.573 143.043 231.831C142.965 230.971 142.919 230.134 142.919 229.274C142.919 228.855 143.135 226.827 142.965 226.563C143.104 226.783 143.366 226.607 143.366 226.32C143.336 224.226 143.413 222.154 143.659 220.082C143.767 219.134 143.922 218.208 144.091 217.282C144.184 216.819 144.276 216.356 144.369 215.893C144.43 215.629 144.492 215.364 144.554 215.122C144.615 214.549 144.862 214.306 145.325 214.417C145.417 214.747 145.787 214.725 145.772 214.328C145.757 212.146 145.988 210.008 146.528 207.958C146.666 207.451 147.114 205.401 147.638 205.356C148.316 205.312 148.332 207.936 148.363 208.465C148.625 212.807 148.825 217.172 148.933 221.537C149.165 230.42 149.103 239.304 148.733 248.166C148.717 248.585 149.18 248.585 149.195 248.166C149.519 240.384 149.612 232.603 149.473 224.821C149.396 220.964 149.273 217.106 149.088 213.27C148.995 211.374 148.902 209.501 148.764 207.605C148.687 206.437 148.532 205.356 147.823 204.651C147.746 204.585 147.669 204.607 147.592 204.651C146.589 205.334 146.204 207.098 145.895 208.531C145.479 210.405 145.294 212.366 145.309 214.35C145.464 214.328 145.618 214.284 145.757 214.262C145.602 213.667 145.155 213.402 144.739 213.689C144.06 214.13 143.891 215.871 143.706 216.731C143.089 219.861 142.827 223.102 142.888 226.342C143.027 226.254 143.15 226.188 143.289 226.1C143.258 226.056 143.243 226.034 143.212 225.99C143.166 225.901 143.058 225.857 142.981 225.901C142.642 226.078 142.565 226.386 142.503 226.871C142.364 228.04 142.41 229.318 142.472 230.487C142.58 232.735 142.919 234.939 143.459 237.056C143.536 237.386 143.937 237.364 143.906 236.967C143.86 236.284 143.351 235.909 142.904 236.262C142.179 236.813 142.58 238.51 142.703 239.348C143.243 242.809 144.199 246.094 145.479 249.114C145.649 249.488 146.05 249.158 145.895 248.805Z" fill="#E8E8E8"/>
<path d="M149.61 232.272C149.595 231.082 149.672 229.913 149.841 228.745C149.918 228.216 150.026 227.687 150.15 227.18C150.196 227.004 150.689 224.976 150.982 225.593C151.106 225.857 151.399 225.769 151.414 225.417C151.46 224.447 151.553 223.499 151.738 222.573C151.815 222.176 152.494 219.421 152.802 219.685C152.956 219.839 153.141 219.641 153.157 219.399C153.249 217.459 153.558 215.563 154.113 213.799C154.375 212.94 154.699 212.102 155.069 211.33C155.362 210.691 155.809 209.611 156.272 209.192C157.475 208.09 157.259 210.779 157.243 211.573C157.212 212.565 157.166 213.557 157.12 214.571C157.012 216.709 156.858 218.825 156.657 220.942C155.855 229.561 154.437 238.026 153.033 246.468C152.972 246.887 153.404 247.064 153.481 246.645C154.807 238.731 156.133 230.795 156.95 222.727C157.336 218.892 157.613 215.034 157.721 211.154C157.752 210.228 157.845 208.729 157.135 208.222C156.395 207.693 155.778 208.994 155.377 209.677C153.789 212.455 152.864 215.849 152.694 219.443C152.818 219.354 152.925 219.244 153.049 219.156C151.723 217.944 150.998 224.469 150.967 225.461C151.106 225.394 151.26 225.35 151.399 225.284C150.875 224.182 150.211 225.262 149.965 226.078C149.394 228.04 149.147 230.178 149.163 232.294C149.147 232.691 149.61 232.691 149.61 232.272Z" fill="#E8E8E8"/>
<path d="M38.8903 234.256C38.2734 233.903 37.6874 233.396 37.3019 232.603C37.1169 232.228 36.9935 231.809 36.8856 231.39C36.8547 231.302 36.5617 229.958 36.9318 230.222C37.1786 230.399 37.379 230.002 37.2094 229.693C36.3767 228.172 35.7753 226.431 35.4823 224.535C35.4052 224.028 35.2201 223.3 35.2972 222.793C35.4514 221.779 36.1608 221.647 36.6234 222.286C37.1169 222.97 37.5487 223.807 37.9342 224.623C39.3683 227.599 40.2473 231.038 40.5095 234.631C40.5403 235.05 41.0029 235.05 40.9721 234.631C40.8025 232.184 40.3553 229.825 39.6459 227.577C38.9828 225.505 38.0113 222.992 36.7468 221.559C36.3304 221.096 35.7444 220.787 35.2664 221.228C34.7112 221.713 34.8346 222.793 34.8963 223.565C35.1122 226.012 35.8215 228.26 36.8856 230.2C36.9781 230.024 37.0706 229.847 37.1631 229.671C36.901 229.495 36.6234 229.473 36.4075 229.825C36.0837 230.332 36.2842 231.038 36.4384 231.589C36.8701 233.242 37.6103 234.278 38.7515 234.94C39.0445 235.05 39.1678 234.41 38.8903 234.256Z" fill="#E8E8E8"/>
<path d="M39.3979 227.114C38.7657 223.675 38.1488 220.324 37.8404 216.797C37.7633 215.96 37.6862 215.1 37.64 214.262C37.5937 213.403 37.4395 212.146 37.5937 211.309C37.5937 211.176 37.6091 211.022 37.6091 210.89C38.0872 210.14 38.4418 210.096 38.6732 210.801C38.8119 211.088 38.9353 211.419 39.0433 211.749C39.3362 212.477 39.5984 213.226 39.8451 213.998C41.9115 220.192 42.8676 227.048 42.6671 233.904C42.6517 234.322 43.1144 234.322 43.1298 233.904C43.3765 225.946 42.0812 217.591 39.182 210.757C38.8274 209.92 37.9638 208.773 37.3624 209.92C37.1002 210.405 37.1311 211.198 37.1311 211.771C37.1002 212.896 37.1619 214.042 37.2544 215.166C37.4086 217.15 37.5474 219.178 37.8558 221.14C38.1797 223.234 38.596 225.284 38.9816 227.356C39.0278 227.687 39.475 227.511 39.3979 227.114Z" fill="#E8E8E8"/>
<path d="M29.8368 175.443C40.03 175.09 49.961 178.772 59.6298 183.026C69.2987 187.281 78.8905 192.218 88.914 194.577C93.9412 195.767 99.0455 196.23 104.134 195.679C109.732 195.084 115.237 193.453 120.666 191.469C126.202 189.441 131.676 187.082 137.212 184.988C142.764 182.872 148.346 180.954 153.975 179.301C165.34 175.95 176.89 173.702 188.517 173.305C189.92 173.261 191.339 173.239 192.742 173.239C193.035 173.239 193.035 172.577 192.742 172.577C181.346 172.533 169.981 174.341 158.77 177.295C147.467 180.293 136.426 184.635 125.353 189C119.864 191.182 114.328 193.188 108.684 194.335C103.302 195.415 97.8735 195.547 92.4762 194.643C82.3293 192.968 72.5988 188.206 62.9145 183.82C53.3536 179.499 43.5922 175.377 33.5224 174.826C32.2887 174.76 31.055 174.76 29.8214 174.804C29.5284 174.804 29.5284 175.465 29.8368 175.443Z" fill="#E8E8E8"/>
<path d="M130.227 178.838C140.76 174.693 151.03 169.381 161.454 164.707C171.848 160.034 182.457 155.956 193.329 154.369C199.389 153.487 205.512 153.377 211.572 154.369C211.865 154.413 211.865 153.752 211.572 153.707C200.808 151.966 189.937 153.663 179.404 156.992C168.717 160.365 158.355 165.413 147.976 170.307C142.055 173.106 136.133 175.84 130.119 178.198C129.811 178.308 129.934 178.948 130.227 178.838Z" fill="#E8E8E8"/>
<path d="M96.317 213.843C100.265 215.144 104.336 214.549 108.284 213.512C112.416 212.432 116.472 210.889 120.528 209.258C128.701 205.996 136.827 202.667 145.324 201.741C150.12 201.234 154.947 201.366 159.727 202.094C160.02 202.138 160.02 201.477 159.727 201.432C151.431 200.154 143.042 200.749 134.869 203.218C126.742 205.665 118.878 209.633 110.766 212.124C106.094 213.557 101.19 214.769 96.4557 213.204C96.1473 213.116 96.024 213.755 96.317 213.843Z" fill="#E8E8E8"/>
<path d="M172.974 218.12C183.306 217.327 192.866 223.918 202.782 226.916C205.558 227.753 208.364 228.304 211.202 228.371C211.495 228.371 211.495 227.709 211.202 227.709C200.885 227.467 191.432 220.699 181.378 218.252C178.602 217.569 175.796 217.238 172.974 217.459C172.681 217.503 172.665 218.164 172.974 218.12Z" fill="#E8E8E8"/>
<path d="M22.4815 150.093C33.1681 149.916 43.8393 152.694 53.7858 158.271C56.6386 159.88 59.4298 161.732 62.1438 163.782C62.406 163.98 62.6373 163.407 62.3752 163.209C52.8913 156.022 42.4514 151.525 31.7802 150.004C28.6961 149.563 25.5811 149.365 22.4815 149.431C22.1885 149.431 22.1885 150.093 22.4815 150.093Z" fill="#E8E8E8"/>
<path d="M33.2463 124.235C41.6815 127.255 49.3765 133.185 57.3491 138.012C65.3987 142.884 73.8493 146.257 82.5004 147.932C87.3734 148.88 92.3081 149.299 97.2273 149.189C97.5203 149.189 97.5203 148.527 97.2273 148.527C88.3604 148.726 79.478 147.183 70.904 143.964C66.6941 142.377 62.5767 140.393 58.5519 138.012C54.5579 135.654 50.641 132.964 46.6933 130.473C42.36 127.74 37.9651 125.227 33.3697 123.596C33.0921 123.485 32.9687 124.125 33.2463 124.235Z" fill="#E8E8E8"/>
<path d="M90.719 162.305C98.7224 166.714 107.512 164.311 115.361 160.431C119.587 158.337 123.689 155.824 127.883 153.641C132.001 151.503 136.18 149.652 140.42 148.086C145.324 146.279 150.305 144.868 155.317 143.854C155.61 143.788 155.486 143.149 155.193 143.215C146.512 144.978 137.968 147.932 129.687 152.032C121.545 156.066 113.665 161.776 105.045 163.517C100.28 164.487 95.3606 164.156 90.8423 161.665C90.5648 161.511 90.4414 162.15 90.719 162.305Z" fill="#E8E8E8"/>
<ellipse cx="61.5104" cy="120.928" rx="1.57292" ry="2.20439" fill="#064E3B"/>
<ellipse cx="121.636" cy="150.533" rx="1.20282" ry="1.67534" fill="#064E3B"/>
<ellipse cx="148.946" cy="30.394" rx="0.801883" ry="1.12424" fill="#064E3B"/>
<ellipse cx="62.6663" cy="182.629" rx="1.15656" ry="1.60921" fill="#064E3B"/>
<ellipse cx="162.424" cy="107.79" rx="0.277575" ry="0.39679" fill="#064E3B"/>
<ellipse cx="58.3958" cy="117.599" rx="1.52666" ry="2.13826" fill="#047857"/>
<ellipse cx="64.3485" cy="176.412" rx="0.524308" ry="0.727449" fill="#047857"/>
<ellipse cx="36.2193" cy="56.3171" rx="1.14114" ry="1.58716" fill="#047857"/>
<ellipse cx="152.77" cy="92.3589" rx="1.14114" ry="1.58716" fill="#047857"/>
<ellipse cx="157.38" cy="86.6936" rx="0.956091" ry="1.32263" fill="#047857"/>
<path d="M53.2911 151.922C51.8724 151.966 51.2709 154.788 51.7336 156.463C51.9495 157.235 52.4275 157.433 52.9672 157.301C53.1369 157.257 53.3528 157.102 53.5378 157.102C54.2626 157.168 54.2472 157.808 54.0313 158.425C53.8771 158.866 53.7074 159.218 53.6303 159.703C53.5378 160.321 53.6149 161.004 54.0621 161.269C54.3088 161.423 54.6018 161.158 54.8177 161.269C55.5888 161.621 54.9719 163.01 54.9103 163.693C54.8486 164.443 54.9874 165.303 55.4963 165.655C55.9435 165.964 56.4832 165.766 56.7145 165.126C56.8533 164.751 56.4523 164.421 56.3136 164.796C55.7892 165.391 55.4808 165.17 55.3575 164.09C55.3575 163.782 55.3883 163.495 55.45 163.208C55.5271 162.723 55.6813 162.283 55.7121 161.776C55.7276 161.423 55.7121 161.048 55.5271 160.784C55.157 160.299 54.2626 161.004 54.0621 160.144C53.9387 159.615 54.4939 158.733 54.6018 158.249C54.8177 157.301 54.5556 156.353 53.7691 156.375C53.1214 156.397 52.3504 157.345 52.1191 155.691C51.9495 154.545 52.335 152.583 53.3219 152.561C53.5841 152.561 53.5995 151.9 53.2911 151.922Z" fill="#047857"/>
<path d="M139.231 130.098C137.673 130.142 136.224 131.685 135.854 133.89C135.53 135.807 136.363 138.1 137.889 136.91C138.429 136.491 138.969 135.741 139.061 134.815C139.123 134.088 138.799 133.471 138.259 133.537C137.504 133.625 136.81 134.904 136.409 135.697C135.946 136.601 135.468 137.857 135.545 139.026C135.7 141.032 137.72 141.429 138.429 139.841C138.552 139.577 138.306 139.18 138.105 139.378C137.041 140.547 135.931 142.465 136.347 144.537C136.671 146.168 137.905 147.336 139.061 146.763C139.339 146.631 139.216 145.992 138.938 146.124C137.905 146.631 136.825 145.396 136.733 143.897C136.64 142.288 137.488 140.877 138.337 139.952C138.229 139.797 138.121 139.643 138.013 139.489C137.704 140.194 137.01 140.348 136.501 139.974C135.777 139.423 135.977 138.232 136.255 137.35C136.486 136.601 136.825 135.918 137.211 135.322C137.365 135.08 137.766 134.419 137.982 134.375C138.182 134.441 138.398 134.529 138.599 134.595C138.583 134.882 138.522 135.124 138.414 135.367C137.997 136.336 136.949 137.108 136.378 135.984C135.993 135.256 136.239 133.89 136.501 133.162C137.026 131.707 138.074 130.781 139.2 130.759C139.524 130.737 139.524 130.076 139.231 130.098Z" fill="#047857"/>
<path d="M18.1157 96.7017C18.6091 95.842 19.4573 96.1286 19.704 97.1206C19.8582 97.7157 19.8428 98.2227 20.2283 98.6416C20.9223 99.3911 21.8475 98.8179 22.5877 98.5975C24.5153 98.0464 23.8831 100.802 24.9779 101.882C25.456 102.367 26.1808 102.235 26.4275 101.441C26.5509 101.066 26.1499 100.714 26.0265 101.11C25.6256 102.389 24.8854 100.736 24.762 100.229C24.6849 99.9201 24.6387 99.6115 24.5461 99.3249C24.4074 98.862 24.2223 98.4211 23.9139 98.1346C23.0503 97.363 22.0942 98.3109 21.2152 98.333C20.2746 98.3771 20.3671 97.4512 20.0433 96.5474C19.9045 96.1506 19.6732 95.864 19.3802 95.6877C18.8096 95.3791 18.1619 95.5554 17.7918 96.2388C17.5914 96.5695 17.9306 97.0324 18.1157 96.7017Z" fill="#047857"/>
<path d="M19.7658 102.94C20.7373 101.441 22.1406 102.147 22.7112 103.778C23.0659 104.792 23.3126 105.894 24.0837 106.401C25.2556 107.173 26.7823 106.313 27.1832 104.571C27.2758 104.175 26.8286 103.998 26.736 104.395C26.443 105.674 25.3636 106.291 24.5 105.916C23.436 105.475 23.3589 103.734 22.7729 102.632C21.971 101.111 20.3364 101.089 19.442 102.477C19.2415 102.786 19.5654 103.249 19.7658 102.94Z" fill="#047857"/>
<path d="M129.207 199.735C129.778 198.787 130.549 198.809 131.243 199.47C131.474 199.691 131.705 199.911 131.998 199.757C132.368 199.558 132.43 198.853 132.692 198.5C133.232 197.773 134.126 197.773 134.682 198.434C134.913 198.699 135.237 198.236 135.005 197.971C134.173 196.979 132.8 197.067 132.137 198.39C132.075 198.522 131.998 198.875 131.921 198.941C131.567 199.272 131.428 198.765 131.196 198.633C130.95 198.5 130.718 198.346 130.456 198.324C129.839 198.258 129.269 198.61 128.868 199.272C128.698 199.58 129.022 200.043 129.207 199.735Z" fill="#064E3B"/>
<path d="M133.725 200.859C134.774 198.633 138.567 201.653 138.953 198.082C138.999 197.663 138.552 197.487 138.506 197.905C138.305 199.779 136.485 199.338 135.56 199.294C134.697 199.272 133.833 199.449 133.324 200.529C133.155 200.881 133.556 201.212 133.725 200.859Z" fill="#064E3B"/>
<path d="M51.9962 210.117C52.5976 208.64 53.3995 207.406 54.3864 206.458C54.6331 206.216 54.4018 205.642 54.1551 205.885C53.1065 206.921 52.2429 208.222 51.5952 209.787C51.441 210.139 51.842 210.47 51.9962 210.117Z" fill="#064E3B"/>
<path d="M54.1845 209.059C55.0018 208.266 55.8191 207.45 56.6364 206.657C56.8831 206.414 56.6518 205.841 56.4051 206.083C55.5877 206.877 54.7704 207.693 53.9531 208.486C53.7064 208.729 53.9377 209.302 54.1845 209.059Z" fill="#064E3B"/>
<path d="M21.0882 5.9986C20.9118 22.3746 16.9914 38.624 9.79744 53.0585C7.77843 57.1314 5.48499 61.0354 2.97593 64.7707C2.7603 65.1083 3.26996 65.4249 3.48558 65.0872C12.4633 51.729 18.4027 36.0705 20.657 19.7367C21.2842 15.1784 21.6175 10.578 21.6763 5.9775C21.6959 5.59764 21.1078 5.59764 21.0882 5.9986Z" fill="#E8E8E8"/>
<path d="M23.5384 6.69525C33.1042 13.0051 44.9438 14.9465 55.8622 12.3087C58.9593 11.5701 61.9584 10.4305 64.8007 8.97438C65.1339 8.80555 64.8399 8.25687 64.5067 8.4257C54.5684 13.5326 42.8268 14.1657 32.3985 10.4516C29.3994 9.37534 26.5179 7.94033 23.8324 6.16767C23.5188 5.93553 23.2247 6.48421 23.5384 6.69525Z" fill="#E8E8E8"/>
<path d="M69.6613 8.8265C73.8365 15.9593 80.4816 21.2351 87.9696 23.6409C97.0061 26.5531 106.748 24.6327 115.648 22.0581C120.607 20.6231 125.449 18.6605 129.761 15.6639C130.075 15.4529 129.781 14.9042 129.467 15.1152C125.664 17.732 121.489 19.568 117.177 20.9397C112.668 22.3536 108.003 23.4509 103.338 24.0629C98.8487 24.6538 94.2814 24.6538 89.871 23.5353C86.1466 22.5857 82.579 20.8975 79.3839 18.6183C75.6987 15.9804 72.5428 12.5406 70.1709 8.50995C69.9749 8.1723 69.4653 8.48885 69.6613 8.8265Z" fill="#E8E8E8"/>
<path d="M132.073 16.0861C130.701 24.1475 129.642 32.5887 130.015 40.7978C130.309 47.5297 132.014 54.557 137.111 58.9042C140.149 61.4999 143.854 62.9349 147.48 64.3277C147.833 64.4754 147.99 63.8635 147.637 63.7157C144.442 62.4707 141.168 61.2256 138.365 59.1153C135.68 57.1105 133.7 54.3038 132.465 51.0539C130.054 44.6808 130.368 37.4424 130.858 30.7105C131.211 25.8568 131.818 21.0242 132.622 16.2338C132.7 15.854 132.132 15.6851 132.073 16.0861Z" fill="#E8E8E8"/>
<path d="M4.48444 68.6959C19.1076 71.1649 32.5938 80.1759 41.1991 93.1543C43.6101 96.8052 45.6291 100.751 47.1581 104.909C47.2953 105.289 47.8638 105.12 47.7266 104.74C42.238 89.8411 30.7708 77.939 17.069 71.8402C13.0701 70.0676 8.8949 68.8014 4.64126 68.0839C4.26882 68.0206 4.112 68.6326 4.48444 68.6959Z" fill="#E8E8E8"/>
<path d="M50.9405 105.437C57.8601 99.6543 67.0338 98.2193 75.5215 99.5699C84.5776 101.005 92.7909 105.69 100.2 111.303C104.67 114.68 108.884 118.415 113.099 122.15C113.393 122.403 113.804 121.96 113.51 121.707C105.905 114.954 98.1815 108.117 89.2233 103.537C81.2257 99.4432 72.2088 97.3962 63.3878 99.0212C58.7225 99.8864 54.2925 101.849 50.5289 104.972C50.2349 105.247 50.6465 105.69 50.9405 105.437Z" fill="#E8E8E8"/>
<path d="M112.843 118.246C116.215 102.566 125.408 88.6383 137.718 79.585C141.247 76.9894 145.03 74.7946 148.99 73.0642C149.342 72.9165 149.186 72.3045 148.833 72.4522C134.798 78.6143 123.056 90.4531 116.489 105.162C114.647 109.298 113.235 113.624 112.275 118.077C112.197 118.478 112.765 118.647 112.843 118.246Z" fill="#E8E8E8"/>
<path d="M24.4189 80.7247C27.3593 82.0753 29.5743 84.7554 31.6717 87.2667C33.8475 89.8623 35.8469 92.6268 37.6895 95.518C41.2571 101.152 44.0994 107.272 46.138 113.73C46.2556 114.11 46.8241 113.941 46.7065 113.561C44.6091 106.956 41.6687 100.667 38.0032 94.906C36.1998 92.0782 34.22 89.377 32.0833 86.8235C29.9467 84.2911 27.6925 81.5477 24.713 80.1971C24.3797 80.0072 24.0661 80.5559 24.4189 80.7247Z" fill="#191D23"/>
<path d="M69.0343 12.203C72.2687 17.8164 77.3456 21.9315 83.187 23.873C83.5594 23.9996 83.6967 23.3876 83.3438 23.261C77.6396 21.3828 72.6803 17.3521 69.544 11.8864C69.348 11.5277 68.8383 11.8653 69.0343 12.203Z" fill="#191D23"/>
<path d="M21.4388 1.5038C27.7114 6.08317 35.6503 7.56038 43.001 5.6611C43.3735 5.55559 43.2166 4.9647 42.8442 5.04911C35.6307 6.92729 27.8682 5.42897 21.7328 0.955118C21.4192 0.744087 21.1251 1.29277 21.4388 1.5038Z" fill="#191D23"/>
<path d="M0.661749 60.6346C3.79808 56.8994 6.52276 52.8054 8.777 48.3948C8.95341 48.0361 8.44376 47.7195 8.26734 48.0783C6.03271 52.4466 3.34723 56.4984 0.250106 60.1914C-0.00472103 60.4869 0.406922 60.9301 0.661749 60.6346Z" fill="#191D23"/>
<path d="M19.6948 35.9017C19.4204 38.8983 17.9503 41.7262 16.8133 44.4273C15.6372 47.1919 14.4219 49.9141 13.187 52.6364C13.0105 52.9952 13.5202 53.3117 13.6966 52.953C15.0688 49.9986 16.3821 47.0019 17.6562 43.9842C18.7539 41.3885 20.0477 38.7506 20.3025 35.8806C20.3221 35.5007 19.7341 35.5007 19.6948 35.9017Z" fill="#191D23"/>
<path d="M110.963 107.146C114.04 98.5992 119 90.9388 125.351 84.84C125.625 84.5657 125.213 84.1225 124.939 84.3969C118.509 90.5801 113.511 98.3249 110.394 106.977C110.257 107.357 110.825 107.505 110.963 107.146Z" fill="#191D23"/>
<path d="M18.7345 10.4727C18.4013 12.7307 18.0484 14.9888 17.7152 17.2468C17.6564 17.6477 18.2249 17.8166 18.2837 17.4156C18.6169 15.1576 18.9697 12.8996 19.303 10.6415C19.3618 10.2406 18.7933 10.0717 18.7345 10.4727Z" fill="#047857"/>
<path d="M68.8769 3.2764C73.1109 8.72099 78.3643 13.1526 84.2841 16.2759C84.6173 16.4447 84.9114 15.9171 84.5781 15.7272C78.6975 12.6251 73.4834 8.23562 69.2885 2.83323C69.0533 2.51669 68.6417 2.95985 68.8769 3.2764Z" fill="#047857"/>
<path d="M103.593 27.8617C108.533 28.1149 113.453 27.0808 117.922 24.8017C118.256 24.6329 117.962 24.0842 117.628 24.253C113.238 26.4689 108.435 27.4818 103.593 27.2286C103.201 27.2075 103.221 27.8406 103.593 27.8617Z" fill="#047857"/>
<path d="M121.097 18.1962C125.272 16.0015 129.036 13.0471 132.25 9.41737C132.505 9.12192 132.094 8.67876 131.839 8.9742C128.663 12.5617 124.939 15.4739 120.803 17.6476C120.47 17.8164 120.764 18.3651 121.097 18.1962Z" fill="#047857"/>
<path d="M52.1369 101.385C57.0766 95.7924 64.6038 93.2178 71.6605 94.5684C72.033 94.6317 72.1898 94.0197 71.8174 93.9564C64.545 92.5636 56.8218 95.1593 51.7253 100.942C51.4508 101.216 51.8625 101.68 52.1369 101.385Z" fill="#047857"/>
<path d="M8.44343 66.0581C12.5991 66.9866 16.5979 68.485 20.3811 70.5531C20.7143 70.743 21.0083 70.1943 20.6751 70.0044C16.8527 67.9152 12.7951 66.3746 8.60024 65.4461C8.2278 65.3617 8.07099 65.9737 8.44343 66.0581Z" fill="#064E3B"/>
<path d="M23.871 14.6302C24.1062 17.0992 24.1454 19.5894 24.0082 22.0584C23.9886 22.4594 24.5767 22.4594 24.5963 22.0584C24.7335 19.5683 24.6747 17.0992 24.4591 14.6302C24.4199 14.2292 23.8318 14.2292 23.871 14.6302Z" fill="#064E3B"/>
<path d="M100.437 99.5909C102.75 94.7372 106.494 90.8754 111.042 88.4907C111.375 88.3219 111.081 87.7732 110.748 87.942C106.102 90.3689 102.279 94.3363 99.9272 99.2744C99.7508 99.6331 100.26 99.9708 100.437 99.5909Z" fill="#064E3B"/>
<path d="M88.1664 54.0928C89.8914 52.8055 91.8908 52.2146 93.9882 52.3412C94.3606 52.3623 94.3606 51.7292 93.9882 51.7081C91.7928 51.5815 89.6758 52.2146 87.8724 53.5652C87.5587 53.7762 87.8528 54.3249 88.1664 54.0928Z" fill="#047857"/>
<path d="M92.9298 48.3948C94.6351 48.7747 96.2817 49.3023 97.8891 49.9987C98.2419 50.1464 98.3987 49.5344 98.0459 49.3867C96.4385 48.6903 94.7919 48.1627 93.0866 47.7828C92.7141 47.6984 92.5573 48.3104 92.9298 48.3948Z" fill="#047857"/>
<path d="M50.195 32.1241C50.8027 29.1697 52.1944 26.5318 54.1938 24.4004C54.4683 24.105 54.0566 23.6618 53.7822 23.9572C51.7044 26.152 50.2538 28.8954 49.6265 31.9553C49.5285 32.3563 50.097 32.5251 50.195 32.1241Z" fill="#047857"/>
<path d="M54.5089 32.7996C57.4296 30.3516 60.7227 28.5157 64.2707 27.3339C64.6235 27.2073 64.4863 26.5953 64.1139 26.7219C60.4679 27.9248 57.0964 29.824 54.0972 32.3353C53.8032 32.6096 54.2149 33.0528 54.5089 32.7996Z" fill="#047857"/>
<path d="M48.6091 74.5416C49.3344 76.5675 49.4128 78.6778 48.8639 80.767C48.7659 81.1679 49.3344 81.3368 49.4324 80.9358C50.0204 78.7411 49.9224 76.5042 49.1776 74.3727C49.0403 73.9929 48.4719 74.1617 48.6091 74.5416Z" fill="#064E3B"/>
<path d="M53.6269 75.2384C54.6658 76.589 55.9595 77.6863 57.4101 78.4671C57.7433 78.6571 58.0373 78.1084 57.7041 77.9185C56.2732 77.1588 55.0382 76.1036 54.0385 74.7741C53.8033 74.4787 53.3917 74.9218 53.6269 75.2384Z" fill="#064E3B"/>
<path d="M117.549 71.0806C118.431 72.1358 118.823 73.5075 118.607 74.9214C118.549 75.3223 119.117 75.4912 119.176 75.0902C119.431 73.4442 118.999 71.8614 117.961 70.6375C117.706 70.3209 117.294 70.7641 117.549 71.0806Z" fill="#064E3B"/>
<path d="M122.43 70.1096C123.155 70.9959 123.861 71.8612 124.586 72.7475C124.841 73.0641 125.252 72.5998 124.997 72.3043C124.272 71.418 123.567 70.5528 122.841 69.6665C122.606 69.3499 122.194 69.7931 122.43 70.1096Z" fill="#064E3B"/>
<path d="M93.9876 77.6647C95.3402 75.1112 97.124 72.8954 99.2998 71.1227C99.5938 70.8695 99.2998 70.3208 99.0058 70.5741C96.7515 72.4311 94.8893 74.6892 93.478 77.3481C93.3016 77.7069 93.8112 78.0234 93.9876 77.6647Z" fill="#064E3B"/>
<ellipse cx="165.104" cy="29.0431" rx="2.8619" ry="2.99664" fill="#047857"/>
<ellipse cx="170.376" cy="36.303" rx="2.41105" ry="2.51127" fill="#064E3B"/>
<path d="M25.7539 53.0584C26.0283 54.5989 26.3616 56.2238 26.7928 57.9121C28.2238 63.42 30.2624 68.0205 32.2814 71.6924C32.8694 71.8401 33.7123 72.0512 34.7512 72.1778C36.1822 72.3677 38.4952 72.6842 41.1023 71.8823C41.7296 71.6924 41.4551 71.7135 44.219 70.4895C46.9829 69.2655 47.1397 69.3078 48.1983 68.8013C50.0016 67.9572 51.6286 66.7332 54.8237 64.3485C55.745 63.6521 57.0192 62.6814 58.5089 61.4785C58.6069 60.8032 58.7246 59.8114 58.705 58.6085C58.6657 56.7092 58.2933 55.3375 57.7641 53.3538C56.9212 50.2517 56.3331 48.1414 55.9607 46.8119C55.2158 46.3054 54.4121 45.7989 53.4908 45.3347C50.4525 43.7519 47.571 43.1188 45.356 42.8656C43.0821 43.0555 41.2787 43.4987 40.0634 43.8574C34.7316 45.4402 31.0661 48.4157 28.7922 50.2939C27.4397 51.3912 26.4008 52.3831 25.7539 53.0584Z" fill="white"/>
<path d="M108.591 45.314C107.023 47.1289 105.357 49.3025 103.769 51.8559C102.985 53.1221 102.299 54.3461 101.691 55.5279C102.887 57.4483 104.083 59.3686 105.298 61.2679C107.984 62.3864 110.669 63.5048 113.355 64.6444C115.903 61.7744 118.471 58.9044 121.019 56.0133C120.353 53.6919 119.686 51.3917 119.039 49.0703C117.726 48.3528 116.217 47.6353 114.492 46.9811C112.296 46.1792 110.316 45.6516 108.591 45.314Z" fill="white"/>
<path d="M25.5566 53.2486C26.223 60.0438 29.0065 66.227 32.0252 72.157C32.2017 72.5157 32.7113 72.1992 32.5349 71.8404C29.575 66.0371 26.7915 59.9383 26.1446 53.2486C26.1054 52.8477 25.5174 52.8266 25.5566 53.2486Z" fill="#191D23"/>
<path d="M26.1048 53.4174C30.9073 47.7829 37.4936 44.1321 44.5307 43.1402C44.9032 43.098 44.9032 42.4649 44.5307 42.5071C37.3368 43.5201 30.5937 47.192 25.6736 52.9532C25.4383 53.2697 25.85 53.7129 26.1048 53.4174Z" fill="#191D23"/>
<path d="M44.5716 43.0558C47.7668 48.2261 49.2565 54.2405 50.6875 60.1704C50.7855 60.5714 51.3539 60.4026 51.2559 60.0016C49.8054 54.0083 48.296 47.9518 45.0813 42.7393C44.8657 42.4016 44.356 42.7182 44.5716 43.0558Z" fill="#191D23"/>
<path d="M32.7108 72.1359C36.298 70.9753 39.7479 69.4348 43.0411 67.5144C44.6681 66.5647 46.2362 65.5096 47.7652 64.37C49.1373 63.3571 50.5683 62.3019 51.3132 60.6559C51.4896 60.2971 50.9799 59.9806 50.8035 60.3393C49.9998 62.0909 48.3532 63.1882 46.9027 64.2434C45.4717 65.2775 43.982 66.2482 42.453 67.1345C39.2971 68.9494 35.9844 70.4055 32.5736 71.524C32.2012 71.6506 32.358 72.2626 32.7108 72.1359Z" fill="#191D23"/>
<path d="M44.8848 43.0981C48.766 43.267 52.4904 44.6598 55.6267 47.1499C55.9404 47.3821 56.2344 46.8334 55.9208 46.6013C52.706 44.0478 48.8836 42.6339 44.8848 42.4651C44.5124 42.444 44.5124 43.077 44.8848 43.0981Z" fill="#191D23"/>
<path d="M55.5865 46.8753C57.3703 51.2859 58.3112 56.013 58.3308 60.8456C58.3308 61.2465 58.9188 61.2465 58.9188 60.8456C58.8796 55.9075 57.9191 51.0749 56.0765 46.5588C55.9393 46.1789 55.4493 46.4955 55.5865 46.8753Z" fill="#191D23"/>
<path d="M50.9402 60.7189C53.3708 62.4071 56.2523 61.9429 58.8986 61.1832C59.2711 61.0776 59.1142 60.4656 58.7418 60.5712C56.2523 61.2887 53.5473 61.7529 51.2538 60.1702C50.9206 59.9592 50.6266 60.5079 50.9402 60.7189Z" fill="#191D23"/>
<path d="M32.3966 72.2412C35.8857 73.0853 39.5121 72.811 42.8444 71.3971C43.1973 71.2493 43.0405 70.6373 42.6876 70.7851C39.4533 72.1568 35.9445 72.4733 32.5534 71.6292C32.1809 71.5448 32.0241 72.1568 32.3966 72.2412Z" fill="#191D23"/>
<path d="M43.0038 71.355C48.8256 68.9915 54.2358 65.5939 58.9795 61.2467C59.2735 60.9723 58.8422 60.5291 58.5678 60.8035C53.9025 65.0663 48.5904 68.4217 42.8666 70.743C42.4941 70.8908 42.6509 71.5027 43.0038 71.355Z" fill="#191D23"/>
<path d="M108.141 45.2506C105.651 48.4161 103.378 51.7715 101.339 55.2746C101.143 55.6122 101.653 55.9288 101.849 55.5911C103.868 52.1302 106.122 48.8171 108.553 45.6938C108.807 45.3984 108.396 44.9341 108.141 45.2506Z" fill="#191D23"/>
<path d="M108.415 45.7993C111.944 46.4112 115.335 47.6141 118.491 49.3657C118.824 49.5556 119.118 49.0069 118.785 48.817C115.57 47.0232 112.14 45.8204 108.553 45.1873C108.2 45.124 108.043 45.7359 108.415 45.7993Z" fill="#191D23"/>
<path d="M101.358 55.9498C104.416 57.4481 107.435 59.0097 110.434 60.6557C110.767 60.8457 111.062 60.297 110.728 60.1071C107.729 58.4821 104.71 56.9205 101.653 55.4011C101.3 55.2323 101.006 55.7809 101.358 55.9498Z" fill="#191D23"/>
<path d="M118.647 49.0702C116.02 52.8476 113.472 56.6884 111.002 60.5924C111.139 60.5502 111.277 60.508 111.414 60.4869C111.198 60.3603 110.982 60.2126 110.747 60.086C110.414 59.8749 110.12 60.4236 110.453 60.6347C110.669 60.7613 110.884 60.909 111.12 61.0356C111.257 61.12 111.433 61.0567 111.531 60.9301C113.982 57.026 116.53 53.1642 119.176 49.4078C119.372 49.0702 118.863 48.7536 118.647 49.0702Z" fill="#191D23"/>
<path d="M118.588 49.4291C119.47 51.645 120.117 53.9241 120.548 56.2876C120.626 56.6886 121.195 56.5198 121.116 56.1188C120.685 53.7131 119.999 51.3706 119.097 49.1126C118.96 48.7538 118.45 49.0704 118.588 49.4291Z" fill="#191D23"/>
<path d="M111.199 61.0777C111.963 62.1751 112.63 63.3146 113.218 64.5386C113.394 64.8974 113.904 64.5808 113.727 64.2221C113.139 62.9981 112.473 61.8585 111.708 60.7612C111.493 60.4446 110.983 60.7612 111.199 61.0777Z" fill="#191D23"/>
<path d="M113.727 64.4964C116.275 61.9641 118.666 59.3051 120.94 56.4984C121.195 56.1818 120.764 55.7387 120.529 56.0552C118.255 58.8619 115.863 61.542 113.315 64.0533C113.041 64.3276 113.452 64.7708 113.727 64.4964Z" fill="#191D23"/>
<path d="M101.416 56.1186C102.671 57.8702 103.925 59.6428 105.18 61.3944C105.415 61.7109 105.925 61.3944 105.689 61.0778C104.435 59.3263 103.18 57.5536 101.926 55.8021C101.69 55.4855 101.181 55.781 101.416 56.1186Z" fill="#191D23"/>
<path d="M105.297 61.6265C107.923 62.7028 110.55 63.779 113.177 64.8553C113.529 65.003 113.686 64.391 113.333 64.2433C110.707 63.167 108.08 62.0908 105.453 61.0145C105.101 60.8668 104.944 61.4788 105.297 61.6265Z" fill="#191D23"/>
<path d="M31.752 47.5504C34.2414 54.641 36.7505 61.7316 39.2399 68.8434C41.1021 69.4132 42.9839 69.9618 44.8461 70.5316C46.2379 69.8563 47.6296 69.1599 49.0214 68.4846C47.4336 67.746 45.8458 67.0074 44.2581 66.2688C41.7098 59.0938 39.1615 51.8976 36.6133 44.7226C35.9076 45.0602 35.1627 45.4401 34.3982 45.8832C33.3985 46.4108 32.536 47.0017 31.752 47.5504Z" fill="#047857"/>
<path d="M49.6867 43.3723C51.2941 46.4955 53.0387 50.8639 53.764 56.2874C53.9992 58.06 54.0972 59.7483 54.0972 61.2677C50.9805 63.8423 47.1777 66.5646 42.6104 69.0969C40.0621 70.5108 37.5923 71.6926 35.2988 72.6634C36.573 72.6634 37.8471 72.6634 39.1212 72.6634C41.8459 71.4394 44.8646 69.8988 48.0598 67.9363C51.5293 65.8049 54.5088 63.589 56.9983 61.5209C56.5278 58.9886 56.0182 56.3929 55.4693 53.7761C54.8617 50.885 54.2344 48.0783 53.6071 45.3138C53.2543 44.9339 52.6662 44.4063 51.8234 43.9843C50.9609 43.5622 50.1964 43.4145 49.6867 43.3723Z" fill="#047857"/>
<path d="M34.1219 45.9471C33.6907 45.5672 34.2592 43.2881 35.8273 42.5706C37.023 42.0219 38.5716 42.4651 39.6497 43.7313C39.0421 43.9212 38.1208 44.2166 37.023 44.702C35.0628 45.5672 34.416 46.2003 34.1219 45.9471Z" fill="#047857"/>
<path d="M36.8477 43.7312C37.769 43.0981 39.1019 42.0007 40.2584 40.2492C42.2382 37.2314 42.395 34.1504 42.3754 32.8631C42.7087 32.7576 44.6885 32.1034 45.7862 33.1374C47.2759 34.5302 45.9038 37.8645 45.6098 38.5609C44.7473 40.6501 43.3359 41.7897 42.8851 42.1273C40.376 44.0266 37.6317 43.8156 36.8477 43.7312Z" fill="#047857"/>
<path d="M26.8111 38.1176C27.7912 37.9488 28.3401 39.8269 30.3787 41.684C32.2017 43.33 34.2403 44.0687 35.8281 44.4485C35.1616 44.9972 33.9071 45.9046 32.1625 46.1368C29.6338 46.4744 26.1839 45.4404 25.3606 42.8447C24.7529 40.8821 25.7134 38.2864 26.8111 38.1176Z" fill="#047857"/>
<path d="M112.197 46.1158C109.669 49.7455 107.12 53.3752 104.592 57.005C105.493 58.7776 106.395 60.5503 107.316 62.3229C108.101 62.6606 108.885 63.0193 109.669 63.357C109.1 61.8798 108.532 60.3815 107.944 58.9042C110.198 54.9158 112.472 50.9484 114.726 46.9599C113.883 46.6856 113.04 46.4112 112.197 46.1158Z" fill="#064E3B"/>
<path d="M119.881 51.9824C117.294 55.0845 114.687 58.1656 112.099 61.2677C109.08 60.3181 106.062 59.3684 103.043 58.4188C103.553 59.1152 104.062 59.8116 104.572 60.508C107.414 61.5209 110.237 62.5339 113.079 63.5468C115.529 60.5713 117.96 57.6169 120.41 54.6413C120.254 53.755 120.077 52.8687 119.881 51.9824Z" fill="#064E3B"/>
<path d="M114.725 46.8755C114.823 46.4324 116.274 45.9892 117.254 46.7911C117.881 47.2976 118.254 48.2894 117.979 48.5849C117.47 49.1336 114.588 47.5508 114.725 46.8755Z" fill="#064E3B"/>
<path d="M113.197 40.0591C113.628 39.8059 114.491 40.6078 114.726 40.8188C114.961 41.0299 115.785 41.8318 116.353 44.132C116.647 45.2927 117.078 47.0231 116.627 47.2553C116.118 47.5296 114.569 45.7992 113.726 43.9421C113.079 42.4649 112.629 40.3968 113.197 40.0591Z" fill="#064E3B"/>
<path d="M124.567 47.5507C124.606 47.0442 123.547 46.6433 123.253 46.5378C122.979 46.4323 121.94 46.0735 119.725 46.6011C118.608 46.8754 116.961 47.2764 116.942 47.7829C116.922 48.3737 119.078 48.9435 121.019 48.838C122.567 48.7536 124.508 48.2049 124.567 47.5507Z" fill="#064E3B"/>
<path opacity="0.09" d="M32.5547 72.0515C33.7112 71.6084 35.4166 70.9542 37.4552 70.0257C40.9248 68.464 43.375 67.3667 46.0997 65.383C47.4522 64.3911 49.2752 62.8717 51.2158 60.6559C52.1763 58.5878 53.3525 55.5067 53.8033 51.5816C54.0777 49.1969 54.0385 47.0866 53.8817 45.3773C54.5874 45.8204 55.2735 46.2636 55.9791 46.6856C56.6848 48.6693 57.4101 51.0962 57.9197 53.9029C58.4294 56.6252 58.645 59.0943 58.7038 61.1835C56.5868 63.1672 54.705 64.6444 53.2937 65.6784C46.4917 70.6798 41.8069 71.8616 40.7679 72.1149C39.1606 72.4947 37.9256 72.558 37.3768 72.5791C35.3186 72.6635 33.6524 72.3259 32.5547 72.0515Z" fill="#353535"/>
<path opacity="0.09" d="M101.75 55.6121C103.005 57.5325 104.239 59.4529 105.494 61.3521C108.101 62.4495 110.728 63.5258 113.335 64.6231C115.824 61.7109 118.314 58.8198 120.803 55.9076C120.196 53.6706 119.568 51.4337 118.961 49.1968C116.412 52.9109 113.864 56.6251 111.316 60.3392C108.121 58.7776 104.926 57.1948 101.75 55.6121Z" fill="#353535"/>
<path d="M69.5621 217.979C70.3462 216.924 70.8166 216.439 70.993 216.565C71.4439 216.861 69.8365 221.123 66.1513 229.375C57.1148 229.839 52.5279 229.607 52.4103 228.657C52.3123 227.834 55.6642 226.462 62.4661 224.563C63.9559 221.166 65.4457 217.768 66.9354 214.37C67.8175 215.573 68.68 216.776 69.5621 217.979Z" fill="#191D23"/>
<path d="M74.1487 150.703C73.4038 156.379 72.5413 162.162 71.6004 168.028C68.8169 185.248 65.4258 201.561 61.6426 216.903C62.1914 217.557 63.6224 219.055 65.9746 219.752C68.9345 220.617 71.3848 219.667 72.0905 219.372C76.5205 202.701 80.931 186.008 85.3611 169.337C91.1829 162.499 90.0656 153.657 85.6159 150.449C82.6756 148.339 78.1279 148.634 74.1487 150.703Z" fill="#047857"/>
<path opacity="0.15" d="M74.3835 151.061C74.9519 151.125 74.5991 160.6 74.1483 169.126C73.129 188.477 69.777 205.465 65.7978 219.625C65.3665 219.499 64.8569 219.309 64.3472 219.034C63.0927 218.359 62.2498 217.473 61.7598 216.84C62.9555 212.239 64.6805 205.317 66.4643 196.834C72.0508 170.265 73.5798 150.998 74.3835 151.061Z" fill="#353535"/>
<path opacity="0.13" d="M71.0724 173.198C70.6412 178.77 70.0139 184.636 69.1318 190.756C67.7009 200.822 65.7995 210.066 63.702 218.443C63.4668 218.401 63.114 218.296 62.7219 218.021C62.1927 217.642 61.9379 217.156 61.8398 216.924C63.408 209.897 64.937 202.806 66.4659 195.652C68.0537 188.097 69.5827 180.606 71.0724 173.198Z" fill="#353535"/>
<path d="M107.101 217.346C106.239 216.291 105.709 215.805 105.513 215.932C105.023 216.227 106.788 220.49 110.826 228.742C120.764 229.206 125.782 228.974 125.919 228.024C126.037 227.201 122.352 225.829 114.864 223.93C113.217 220.532 111.59 217.135 109.944 213.737C109.003 214.94 108.062 216.143 107.101 217.346Z" fill="#191D23"/>
<path d="M81.6772 155.747C80.952 159.503 82.5985 162.605 83.2062 163.639C89.6749 182.252 96.1239 200.886 102.593 219.499C103.69 219.668 105.964 219.837 108.591 218.845C111.551 217.727 113.276 215.722 113.942 214.835C110.081 205.972 107.65 198.544 106.16 193.5C102.259 180.311 97.006 167.565 93.2816 154.312C92.6544 152.096 91.5959 148.213 89.2044 147.728C86.4209 147.179 82.5201 151.315 81.6772 155.747Z" fill="#047857"/>
<path opacity="0.1" d="M87.7529 147.853C86.4003 148.909 88.9094 154.543 90.1051 157.35C92.9866 164.124 94.4764 171.489 97.2403 178.326C100.22 185.691 104.591 197.615 110.766 217.62C111.197 217.388 111.746 217.072 112.295 216.586C113.02 215.953 113.51 215.299 113.824 214.792C112.275 211.184 110.04 205.718 107.688 198.902C106.845 196.475 106.747 196.032 105.826 192.993C104.846 189.764 103.317 184.868 103.003 183.876C101.533 179.318 101.533 179.93 98.7692 171.848C98.1812 170.138 97.3775 167.775 96.417 164.694C95.9465 163.195 95.5937 161.993 95.3389 161.127C95.2997 161.001 94.0059 156.675 92.1829 151.547C91.7125 150.196 91.2028 148.866 89.9287 148.17C89.8503 148.107 88.4193 147.326 87.7529 147.853Z" fill="#353535"/>
<path opacity="0.12" d="M97.3201 167.501C97.2025 167.543 99.8292 176.343 112.394 216.481C112.904 215.953 113.413 215.426 113.923 214.877C113.159 213.041 111.963 210.129 110.591 206.499C107.435 198.206 106.082 193.373 102.554 182.716C100.594 176.786 97.4377 167.458 97.3201 167.501Z" fill="#353535"/>
<path d="M102.868 88.9126C102.417 88.9548 102.103 87.5198 101.613 87.5409C101.221 87.562 100.947 88.5117 100.927 88.6383C100.692 89.5035 100.809 90.3899 101.613 92.7112C101.848 93.3865 102.162 94.2517 102.574 95.2436C102.358 96.8896 101.966 99.1687 101.26 101.849C100.378 105.162 98.8884 110.607 94.9484 116.22C93.7331 117.95 91.9101 120.251 89.2638 122.614C88.3817 124.893 88.2641 126.793 88.3033 127.974C88.3229 128.671 88.4013 131.815 89.4795 132.111C90.2047 132.301 91.0672 131.161 91.4985 130.591C95.8893 124.619 98.1044 121.644 98.9865 119.913C101.045 115.946 102.711 112.717 104.122 107.863C105.161 104.318 105.651 101.216 105.926 98.9366C106.376 98.1347 107.004 96.9951 107.729 95.6023C109.709 91.8038 110.414 90.0944 110.846 88.1951C111.297 86.2326 111.375 84.5443 110.924 84.3544C110.591 84.2278 110.179 84.882 109.807 84.7131C109.258 84.4599 109.846 82.7083 109.258 82.3285C109.042 82.1808 108.611 82.2019 107.729 82.835C107.121 81.4633 106.729 81.21 106.474 81.2311C105.945 81.3155 105.69 82.8772 105.573 84.6498C105.416 83.7846 105.024 81.9697 104.534 81.9697C104.122 81.9697 103.691 83.2992 103.573 84.3544C103.397 85.8105 103.789 86.8656 103.299 88.3429C103.201 88.5539 103.064 88.8704 102.868 88.9126Z" fill="white"/>
<path d="M102.183 94.9693C102.124 97.7549 101.3 100.435 100.516 103.073C99.7519 105.563 98.8894 108.032 97.8309 110.396C95.8707 114.785 93.2244 118.795 89.7548 121.939C89.4608 122.192 89.892 122.657 90.1665 122.382C93.7733 119.132 96.4783 114.933 98.4777 110.375C99.5167 108.011 100.379 105.563 101.124 103.073C101.908 100.456 102.712 97.776 102.751 94.9904C102.79 94.5683 102.202 94.5683 102.183 94.9693Z" fill="#191D23"/>
<path d="M105.67 98.641C105.141 105.31 102.436 111.577 99.6914 117.486C97.1823 122.888 94.144 128.143 89.6159 131.836C89.3219 132.089 89.6159 132.638 89.91 132.385C94.536 128.607 97.6528 123.31 100.201 117.803C103.004 111.788 105.709 105.415 106.258 98.641C106.278 98.24 105.69 98.24 105.67 98.641Z" fill="#191D23"/>
<path d="M102.671 94.6316C102.005 93.0911 101.377 91.2973 101.279 89.5879C101.26 89.3558 101.22 88.364 101.377 88.2373C101.867 87.8786 102.005 88.4906 102.122 88.7438C102.338 89.187 102.495 89.5035 102.906 89.7568C103.239 89.9467 103.533 89.4191 103.2 89.2081C102.514 88.786 102.573 87.6254 101.789 87.3088C101.122 87.0345 100.887 87.6254 100.75 88.2373C100.28 90.411 101.299 93.0066 102.122 94.9481C102.338 95.328 102.828 94.9903 102.671 94.6316Z" fill="#191D23"/>
<path d="M103.338 89.567C104.005 87.9209 103.848 86.2327 103.907 84.4811C103.926 84.0802 103.848 83.1516 104.063 82.8351C104.455 82.3075 104.749 83.426 104.847 83.7847C105.122 84.9243 105.181 86.0638 105.102 87.2245C105.063 87.6255 105.651 87.6255 105.69 87.2245C105.749 86.4226 105.671 80.8303 104.005 81.7377C103.318 82.1176 103.358 83.6159 103.338 84.2701C103.279 85.9372 103.495 87.6466 102.848 89.2293C102.691 89.6092 103.201 89.9468 103.338 89.567Z" fill="#191D23"/>
<path d="M105.749 87.2668C105.866 86.5071 105.964 85.7474 106.023 84.9665C106.082 84.1013 105.964 83.1306 106.219 82.3076C106.435 81.5478 106.552 81.4001 106.846 82.0754C107.062 82.5608 107.14 83.0673 107.199 83.5737C107.297 84.5234 107.375 85.6418 107.101 86.5704C106.983 86.9713 107.552 87.1191 107.67 86.7392C107.983 85.6207 107.905 84.249 107.728 83.1095C107.63 82.4975 107.317 80.8936 106.552 80.8936C105.886 80.8936 105.611 82.0965 105.552 82.603C105.356 84.0802 105.396 85.5996 105.18 87.0768C105.121 87.4989 105.69 87.6677 105.749 87.2668Z" fill="#191D23"/>
<path d="M107.885 86.7181C107.963 86.0639 107.963 85.3886 107.963 84.7344C107.983 84.1647 107.944 82.6452 108.61 82.7085C109.1 82.7508 109.061 83.1939 109.1 83.6582C109.12 83.9747 109.12 84.3124 109.12 84.6289C109.12 85.4097 109.081 86.1694 108.943 86.9503C108.865 87.3512 109.433 87.52 109.512 87.1191C109.708 86.085 110.374 81.8433 108.61 81.8011C106.983 81.7589 107.414 85.7685 107.297 86.7392C107.258 87.1191 107.846 87.1191 107.885 86.7181Z" fill="#191D23"/>
<path d="M109.984 84.8611C110.219 84.84 110.434 84.8189 110.67 84.7978C110.709 84.9877 110.748 85.1776 110.768 85.3887C110.807 85.7685 110.826 86.1273 110.826 86.5071C110.807 87.1824 110.709 87.8788 110.532 88.533C110.219 89.8203 109.689 91.0443 109.101 92.2261C108.023 94.4208 106.867 96.5944 105.749 98.768C105.573 99.1268 106.083 99.4433 106.259 99.0846C107.2 97.2486 108.161 95.4126 109.101 93.5767C109.984 91.8673 110.866 90.0736 111.238 88.1321C111.434 87.0769 111.846 84.6501 110.826 83.9115C110.18 83.4261 109.337 84.0803 109.415 84.8822C109.435 85.2621 110.023 85.2621 109.984 84.8611Z" fill="#191D23"/>
<path opacity="0.08" d="M108.984 82.4761C108.69 82.4972 108.612 83.8056 108.416 85.3672C108.102 88.1106 107.749 91.1917 106.534 93.7662C106.142 94.6103 105.436 95.8554 104.162 97.206C103.966 98.7043 103.594 100.857 102.967 103.389C101.869 107.821 100.261 114.11 95.7138 119.997C94.4788 121.58 92.5775 123.775 89.7744 125.906C89.6959 127.974 89.6175 130.021 89.5195 132.089C90.7349 131.098 92.499 129.515 94.322 127.257C96.7135 124.281 98.262 120.905 101.261 114.278C103.653 108.982 104.299 106.935 104.692 105.457C105.436 102.756 105.809 100.414 106.005 98.7254C107.338 96.4674 108.318 94.4626 109.004 92.8799C110.2 90.1365 112.121 85.7049 110.945 84.6075C110.611 84.312 110.121 84.3332 109.749 84.3965C109.572 83.5101 109.259 82.455 108.984 82.4761Z" fill="#353535"/>
<path opacity="0.1" d="M108.238 94.8424C107.199 96.0242 106.161 97.2271 105.122 98.4088C105.024 99.4218 104.847 100.92 104.436 102.714C103.651 106.09 102.515 108.454 102.064 109.446C100.907 111.936 99.3978 115.734 97.9473 121.411C98.5941 120.208 102.024 113.793 103.945 108.306C104.671 106.196 105.063 105.099 105.376 103.389C105.768 101.342 105.67 100.393 106.18 98.7465C106.749 96.9527 107.611 95.6443 108.238 94.8424Z" fill="#353535"/>
<path d="M53.7823 84.2912C53.1551 84.4811 53.1355 86.3171 53.2335 87.3512C53.3903 89.1871 54.0568 90.5588 54.3508 91.1497C55.6053 93.6399 56.8207 95.9823 58.0556 98.2403C58.2124 99.7598 58.4868 101.828 59.0357 104.234C59.9962 108.454 61.2311 111.324 62.9365 115.271C65.6416 121.496 67.2489 125.062 70.6793 128.861C71.973 130.275 73.1492 131.33 73.9528 132.005C74.2469 131.647 76.0503 129.41 75.6974 126.223C75.423 123.627 73.894 122.045 73.4628 121.623C72.5219 120.778 71.0909 119.407 69.6208 117.465C66.5237 113.329 65.2299 109.193 63.3481 102.989C62.8385 101.3 62.1524 98.9156 61.4663 95.9823C61.8388 94.6739 62.1524 93.6399 62.368 92.9857C63.0149 90.9809 63.4265 89.9679 63.1325 88.6807C63.0541 88.343 62.8973 87.7099 62.5052 87.5833C62.0544 87.4567 61.3683 88.0476 60.8391 89.1238C60.545 87.3934 60.4078 85.9584 60.349 84.8821C60.2706 83.3205 60.3098 82.1809 59.9962 82.0965C59.663 82.0121 59.1533 83.2783 59.0945 83.4049C58.6044 84.5867 58.6044 85.7051 58.6828 86.4015C58.8397 82.4763 58.428 81.4845 57.9772 81.3579C57.6047 81.2524 57.1343 81.7799 56.9971 81.9488C56.0758 83.0039 56.5462 84.5444 56.5854 84.65C56.1738 82.3075 55.7425 82.1598 55.6053 82.1598C55.2525 82.1387 54.8997 82.9828 54.7624 83.4682C54.6056 84.0591 54.7036 84.5867 54.7624 84.861C54.4488 84.5444 54.0764 84.2068 53.7823 84.2912Z" fill="white"/>
<path d="M61.2895 95.012C61.3483 97.7132 62.0736 100.33 62.8185 102.905C63.5634 105.458 64.4063 107.969 65.4452 110.396C67.3858 114.933 70.0125 119.133 73.5212 122.404C73.8153 122.678 74.2269 122.214 73.9329 121.961C70.5417 118.795 67.9934 114.786 66.092 110.417C65.0531 108.054 64.2102 105.585 63.485 103.094C62.7009 100.457 61.9168 97.7765 61.858 94.9909C61.858 94.611 61.2699 94.611 61.2895 95.012Z" fill="#191D23"/>
<path d="M57.9179 98.7048C58.4275 105.373 61.015 111.641 63.6809 117.613C66.1508 123.163 69.1891 128.566 73.7367 132.406C74.0308 132.66 74.4424 132.216 74.1484 131.963C69.6987 128.228 66.7584 122.994 64.3082 117.613C61.6227 111.662 58.996 105.373 58.4864 98.7259C58.4667 98.3038 57.8787 98.3038 57.9179 98.7048Z" fill="#191D23"/>
<path d="M61.8965 95.0117C62.7198 93.0281 63.7587 90.348 63.1902 88.1321C63.053 87.5835 62.7982 87.1403 62.2101 87.3935C61.4457 87.7101 61.5241 88.8708 60.838 89.2928C60.5048 89.5038 60.7988 90.0525 61.132 89.8415C61.4457 89.6516 61.6221 89.3983 61.7985 89.0607C61.8769 88.8919 61.9553 88.512 62.0925 88.3854C62.857 87.7734 62.7198 89.1029 62.7198 89.4827C62.6806 91.2554 62.0337 93.1125 61.3672 94.7163C61.23 95.054 61.7397 95.3705 61.8965 95.0117Z" fill="#191D23"/>
<path d="M61.2311 89.2929C60.6235 87.7735 60.7999 86.1275 60.7607 84.5236C60.7411 83.8484 60.8195 82.2023 60.0942 81.8014C58.4672 80.8939 58.3692 86.5073 58.428 87.2882C58.4672 87.6891 59.0553 87.6891 59.0161 87.2882C58.9377 86.1908 58.9769 85.0934 59.2121 84.0172C59.2709 83.7428 59.4866 82.4767 59.9766 82.7088C60.1922 82.8143 60.1726 84.2704 60.1726 84.5236C60.2118 86.2752 60.0746 87.9635 60.7215 89.6095C60.8783 89.9893 61.388 89.6728 61.2311 89.2929Z" fill="#191D23"/>
<path d="M58.9561 87.1401C58.7405 85.6629 58.7797 84.1646 58.5836 82.7085C58.5248 82.1809 58.27 80.978 57.5839 80.9569C56.8783 80.9358 56.5646 82.4553 56.4666 83.0039C56.251 84.2068 56.1726 85.6207 56.4862 86.8025C56.5842 87.1824 57.1527 87.0346 57.0547 86.6337C56.8195 85.7895 56.8783 84.8188 56.9371 83.9325C56.9763 83.4049 57.0547 82.8562 57.2311 82.3497C57.5251 81.5478 57.6427 81.379 57.9172 82.3497C58.1328 83.1306 58.0348 84.038 58.0936 84.8399C58.1524 85.6629 58.2504 86.4859 58.3876 87.309C58.4464 87.7099 59.0149 87.5411 58.9561 87.1401Z" fill="#191D23"/>
<path d="M56.8994 86.7604C56.7818 85.8107 57.213 81.7589 55.6057 81.8222C53.8807 81.8855 54.5471 86.1273 54.7236 87.1402C54.802 87.5412 55.3704 87.3723 55.292 86.9714C55.1548 86.2117 55.1156 85.4309 55.1156 84.65C55.1156 84.0803 54.9588 82.793 55.5861 82.7297C56.2329 82.6664 56.1937 84.2069 56.2133 84.7556C56.2329 85.4309 56.2133 86.0851 56.2917 86.7393C56.3505 87.1613 56.9582 87.1824 56.8994 86.7604Z" fill="#191D23"/>
<path d="M54.8799 84.9035C54.9583 84.1227 54.1546 83.4474 53.5077 83.9328C52.5472 84.6503 52.9001 86.9505 53.0765 87.9634C53.3901 89.8416 54.1742 91.5721 55.0171 93.2603C55.9776 95.2229 56.9773 97.1644 57.9378 99.1059C58.1142 99.4646 58.6239 99.1481 58.4474 98.7893C57.3301 96.5524 56.1736 94.3366 55.0955 92.0785C54.5662 90.9601 54.0762 89.7994 53.8017 88.5543C53.6449 87.9001 53.5469 87.2248 53.5273 86.5284C53.5273 86.2752 53.5273 86.022 53.5469 85.7476C53.5469 85.4733 53.5861 85.1989 53.6449 84.9457C53.6645 84.6292 53.8998 84.6081 54.3114 84.8824C54.2526 85.3045 54.8407 85.3045 54.8799 84.9035Z" fill="#191D23"/>
<path opacity="0.09" d="M55.7621 82.35C56.311 82.561 55.919 85.0934 55.8209 86.043C55.6053 88.2166 56.0562 91.5087 59.2513 96.1936C60.0942 100.71 61.7016 106.872 64.9947 113.54C67.7782 119.196 70.9341 123.501 73.5608 126.582C73.7568 128.439 73.9332 130.296 74.1293 132.174C72.9139 131.267 71.2282 129.832 69.562 127.743C68.1114 125.907 67.2489 124.303 65.9944 121.749C62.7601 115.144 61.1331 111.831 59.9962 107.821C59.3689 105.627 58.624 102.461 58.1928 98.536C56.6442 96.3835 55.5857 94.3998 54.88 92.8804C53.5079 89.9471 53.1551 88.09 53.1943 86.4228C53.2335 84.5236 53.5471 84.2703 53.6843 84.207C53.9784 84.0804 54.3704 84.3336 54.6252 84.5447C54.6056 84.4392 54.4096 83.4895 54.9977 82.7931C55.0957 82.7087 55.4877 82.2444 55.7621 82.35Z" fill="#353535"/>
<path opacity="0.09" d="M54.195 89.8836C54.391 89.7781 55.5867 91.593 56.4492 93.1124C58.4682 96.6788 59.2915 99.8654 59.5071 100.646C60.8009 105.479 62.467 109.573 65.819 117.74C66.8383 120.209 68.3869 123.796 70.5627 128.038C69.9354 127.405 69.0337 126.455 68.0732 125.21C67.2303 124.134 64.4665 120.483 61.5849 112.105C60.4676 108.834 59.1543 104.424 58.2134 99.0001C57.5469 97.7762 56.6256 96.0246 55.6455 93.8299C55.2143 92.838 53.9794 90.0102 54.195 89.8836Z" fill="#353535"/>
<path d="M82.0292 119.787C81.3431 119.723 80.1278 119.618 78.54 119.787C76.6974 119.998 75.0508 120.166 73.8159 121.327C72.8946 122.192 72.6202 123.269 72.1105 125.4C71.8165 126.645 71.4245 128.333 71.4637 130.612C71.5421 134.833 73.0318 135.382 73.8159 140.489C74.2079 142.958 74.1687 144.878 74.1491 147.178C74.1099 150.238 73.8159 152.834 73.5023 154.839C74.3452 155.556 75.6389 156.527 77.4031 157.287C78.4812 157.751 81.5391 158.996 85.4595 158.257C89.576 157.498 92.1046 155.008 92.9475 154.1C91.5754 150.112 91.4382 146.904 91.5558 144.73C91.7126 142.093 92.2222 141.523 92.9475 135.846C93.4964 131.625 93.4768 129.874 93.4376 128.924C93.3003 125.126 93.2219 123.205 92.0458 121.918C90.8893 120.652 87.9294 120.356 82.0292 119.787Z" fill="white"/>
<path d="M81.0486 119.639C79.5981 119.533 78.1475 119.618 76.7166 119.892C75.5012 120.124 74.2467 120.356 73.443 121.433C71.9729 123.374 71.3456 126.054 71.228 128.502C70.934 134.749 73.8155 140.446 74.7956 146.482C74.8544 146.883 75.4228 146.714 75.364 146.313C74.4819 140.869 72.0513 135.783 71.816 130.211C71.718 127.658 72.0709 125.041 73.2862 122.804C73.6978 122.045 74.1487 121.306 74.9524 120.989C75.5012 120.778 76.1089 120.652 76.6774 120.525C78.1083 120.23 79.5785 120.166 81.029 120.251C81.421 120.293 81.421 119.66 81.0486 119.639Z" fill="#191D23"/>
<path d="M73.4444 140.404C74.0129 145.047 73.9541 149.732 73.2484 154.353C73.1896 154.754 73.7581 154.923 73.8169 154.522C74.5421 149.837 74.6205 145.11 74.0325 140.404C73.9737 140.003 73.3856 140.003 73.4444 140.404Z" fill="#191D23"/>
<path d="M83.46 120.209C86.0867 120.04 89.3211 120.377 91.5557 122.066C92.9082 123.1 92.967 124.83 93.1043 126.455C93.2415 127.911 93.3003 129.367 93.2023 130.845C92.8102 136.606 90.654 142.071 90.6736 147.896C90.6736 148.297 91.2617 148.297 91.2617 147.896C91.2421 141.333 94.0256 135.15 93.8295 128.565C93.7511 126.054 93.8295 122.825 91.5949 121.348C89.2623 119.808 86.1455 119.407 83.46 119.575C83.068 119.597 83.068 120.23 83.46 120.209Z" fill="#191D23"/>
<path d="M91.2816 141.565C91.2424 145.701 91.7128 149.795 92.6537 153.805C92.7517 154.206 93.3202 154.037 93.2222 153.636C92.3009 149.69 91.8304 145.638 91.8696 141.565C91.8696 141.164 91.2816 141.164 91.2816 141.565Z" fill="#191D23"/>
<path d="M73.2864 154.944C75.9523 157.329 79.3435 158.764 82.8326 158.785C86.7726 158.806 90.0658 156.738 93.1041 154.226C93.3981 153.973 93.1041 153.425 92.8101 153.678C89.9286 156.041 86.851 158.067 83.1463 158.131C79.7159 158.194 76.3443 156.822 73.7177 154.48C73.404 154.226 72.9924 154.67 73.2864 154.944Z" fill="#191D23"/>
<path opacity="0.11" d="M88.1242 120.061C88.7318 121.643 89.5159 124.028 89.908 127.004C90.6724 132.976 89.3787 137.555 87.8301 142.852C86.6736 146.798 84.733 152.243 81.3223 158.342C82.4004 158.447 83.7333 158.447 85.2231 158.152C89.1043 157.392 91.6918 155.113 92.8483 153.952C92.7111 152.897 92.4758 151.251 92.1426 149.267C91.6133 146.165 91.4369 145.933 91.3781 144.815C91.2997 143.443 91.5153 143.612 92.6719 137.808C93.1227 135.529 93.4559 133.461 93.652 130.76C93.6716 130.528 93.6716 130.296 93.6912 130.063C93.7892 126.581 93.8284 124.45 92.4562 122.635C91.1429 120.905 89.2415 120.293 88.1242 120.061Z" fill="#353535"/>
<path opacity="0.08" d="M93.7908 130.169C93.6536 130.127 92.9675 131.288 91.3602 135.909C89.596 140.995 87.4202 148.318 85.7344 157.793C86.5969 157.667 87.7926 157.392 89.1059 156.759C90.8701 155.894 92.0462 154.733 92.7127 153.952C92.1246 151.737 91.4582 148.444 91.4778 144.435C91.4974 136.542 94.1045 130.275 93.7908 130.169Z" fill="#353535"/>
<path d="M74.9544 104.424C74.1899 106.112 74.4055 107.821 74.5819 108.623C74.5035 108.623 73.5822 108.581 73.0922 109.298C72.5041 110.143 73.053 111.198 73.151 111.367C73.2882 111.62 73.4646 111.979 73.837 112.084C74.4251 112.274 74.974 111.725 75.0132 111.683C75.3072 112.485 75.7972 113.498 76.5617 114.532C77.7379 116.136 79.0512 117.086 79.9333 117.613C79.9725 118.626 80.0117 119.618 80.0313 120.631C80.2469 120.842 80.6978 121.222 81.3642 121.348C82.6776 121.623 83.6969 120.694 83.8145 120.568C83.7949 119.301 83.7753 118.035 83.7557 116.769C84.2653 116.347 84.8534 115.756 85.4219 114.975C86.5588 113.371 86.9704 111.746 87.1272 110.776C87.3429 110.86 87.6957 110.945 88.1465 110.945C88.5778 110.945 89.1266 110.923 89.3815 110.544C89.6559 110.121 89.3619 109.509 89.0678 108.855C88.7738 108.243 88.5582 108.159 88.4798 108.138C88.1465 108.032 87.8329 108.243 87.7349 108.307C87.8133 107.631 87.8525 106.365 87.3625 104.951C87.2252 104.55 86.4412 102.398 84.5398 101.258C81.423 99.4433 76.5225 100.984 74.9544 104.424Z" fill="white"/>
<path d="M74.6019 104.466C73.4454 109.931 75.3272 116.98 81.0902 118.162C81.4626 118.246 81.6195 117.634 81.247 117.55C75.7976 116.431 74.0923 109.784 75.1704 104.635C75.2488 104.234 74.6803 104.065 74.6019 104.466Z" fill="#191D23"/>
<path d="M81.168 118.141C81.9717 118.394 83.0694 117.571 83.7163 117.107C84.5788 116.495 85.3433 115.714 85.9509 114.807C87.4603 112.633 88.0288 109.889 87.7935 107.23C87.7543 106.83 87.1663 106.83 87.2055 107.23C87.4211 109.531 87.029 111.873 85.8725 113.836C85.3825 114.659 84.7748 115.397 84.0691 116.03C83.5007 116.537 82.1089 117.761 81.3249 117.529C80.9524 117.423 80.7956 118.035 81.168 118.141Z" fill="#191D23"/>
<path d="M79.4437 117.634C79.7377 118.499 79.8161 119.407 79.6789 120.314C79.6201 120.715 80.1885 120.884 80.2473 120.483C80.4042 119.449 80.3454 118.457 80.0121 117.465C79.8945 117.086 79.326 117.233 79.4437 117.634Z" fill="#191D23"/>
<path d="M83.4998 116.917C83.4018 117.993 83.4802 119.048 83.735 120.103C83.8331 120.504 84.4015 120.335 84.3035 119.934C84.0683 118.942 84.0095 117.93 84.0879 116.917C84.1271 116.516 83.539 116.516 83.4998 116.917Z" fill="#191D23"/>
<path d="M79.6974 120.715C81.0499 122.34 83.8726 122.298 84.3627 119.829C84.4411 119.428 83.8726 119.259 83.7942 119.66C83.3826 121.665 81.1871 121.538 80.109 120.272C79.8542 119.977 79.4425 120.42 79.6974 120.715Z" fill="#191D23"/>
<path d="M79.8151 118.056C80.952 119.175 82.7358 118.921 83.4611 117.423C83.6375 117.064 83.1279 116.748 82.9514 117.106C82.4026 118.225 81.0892 118.478 80.2268 117.613C79.9523 117.339 79.5407 117.782 79.8151 118.056Z" fill="#191D23"/>
<path d="M80.9922 118.52C81.2666 118.499 81.5215 118.52 81.7763 118.605C82.1487 118.71 82.3056 118.098 81.9331 117.993C81.6195 117.908 81.3059 117.866 80.9922 117.887C80.6198 117.908 80.6198 118.542 80.9922 118.52Z" fill="#191D23"/>
<path d="M74.6594 111.746C73.8557 112.443 73.1501 111.472 73.0717 110.649C72.9736 109.847 73.6205 108.855 74.4438 109.404C74.7574 109.615 75.0515 109.066 74.7378 108.855C73.5225 108.032 72.3464 109.425 72.4836 110.733C72.6404 112.126 73.9145 113.202 75.0711 112.19C75.3651 111.936 74.9535 111.493 74.6594 111.746Z" fill="#191D23"/>
<path d="M87.8921 108.665C88.5193 108.032 89.127 109.235 89.1074 109.784C89.1074 110.121 88.9506 110.459 88.6761 110.649C88.4605 110.796 87.9509 110.986 87.7744 110.691C87.5784 110.353 87.0688 110.67 87.2648 111.008C87.5588 111.535 88.2253 111.556 88.7153 111.345C89.2838 111.092 89.6562 110.522 89.6758 109.868C89.7346 108.707 88.4997 107.167 87.4608 108.222C87.206 108.496 87.6176 108.961 87.8921 108.665Z" fill="#191D23"/>
<path d="M80.0104 104.403C80.1672 105.88 80.0888 107.273 79.9516 108.75C79.8732 109.742 80.3632 110.164 81.0885 110.797C81.3825 111.05 81.7942 110.607 81.5001 110.354C80.9905 109.889 80.5396 109.573 80.5592 108.729C80.5592 108.328 80.6573 107.885 80.6965 107.484C80.7749 106.45 80.7357 105.416 80.6181 104.403C80.5592 104.002 79.9712 104.002 80.0104 104.403Z" fill="#191D23"/>
<path d="M76.7389 107.399C76.7193 106.935 77.3466 106.639 77.6994 106.66C78.1111 106.66 78.3267 107.019 78.5423 107.357C78.7579 107.694 79.2676 107.378 79.052 107.04C78.6599 106.428 78.2091 105.922 77.4642 106.048C76.8369 106.175 76.1116 106.66 76.1312 107.42C76.1509 107.821 76.7389 107.821 76.7389 107.399Z" fill="#191D23"/>
<path d="M83.4601 106.829C83.9893 105.753 85.4203 105.922 85.6751 107.125C85.7535 107.526 86.322 107.357 86.2436 106.956C85.8907 105.225 83.7149 104.951 82.9504 106.492C82.7936 106.85 83.2837 107.188 83.4601 106.829Z" fill="#191D23"/>
<path d="M76.1692 105.162C76.5024 104.613 77.0709 104.255 77.6785 104.17C78.051 104.128 78.051 103.495 77.6785 103.537C76.8356 103.643 76.13 104.086 75.6595 104.846C75.4439 105.183 75.9535 105.5 76.1692 105.162Z" fill="#191D23"/>
<path d="M83.4606 103.98C84.1663 103.938 84.8131 104.17 85.3228 104.677C85.5972 104.951 86.0285 104.508 85.7344 104.234C85.1072 103.622 84.3035 103.305 83.441 103.347C83.0685 103.368 83.0685 104.002 83.4606 103.98Z" fill="#191D23"/>
<path d="M76.8947 109.024C76.8947 109.003 76.8947 109.003 76.8947 108.982C76.8947 108.813 76.7575 108.665 76.6007 108.665C76.4439 108.665 76.3066 108.813 76.3066 108.982C76.3066 109.003 76.3066 109.003 76.3066 109.024C76.3066 109.193 76.4439 109.341 76.6007 109.341C76.7575 109.341 76.8947 109.214 76.8947 109.024Z" fill="#191D23"/>
<path d="M77.796 108.876C77.8156 108.876 77.8352 108.876 77.8352 108.876C77.992 108.876 78.1292 108.728 78.1292 108.56C78.1292 108.391 77.992 108.243 77.8352 108.243C77.8156 108.243 77.796 108.243 77.796 108.243C77.6392 108.243 77.502 108.391 77.502 108.56C77.5216 108.728 77.6392 108.876 77.796 108.876Z" fill="#191D23"/>
<path d="M77.7569 110.269C77.7765 110.269 77.7961 110.269 77.7961 110.269C77.9529 110.269 78.0902 110.122 78.0902 109.953C78.0902 109.784 77.9529 109.636 77.7961 109.636C77.7765 109.636 77.7569 109.636 77.7569 109.636C77.6001 109.636 77.4629 109.784 77.4629 109.953C77.4629 110.122 77.6001 110.269 77.7569 110.269Z" fill="#191D23"/>
<path d="M84.1085 108.412C84.1281 108.412 84.1477 108.412 84.1477 108.412C84.3045 108.412 84.4417 108.264 84.4417 108.096C84.4417 107.927 84.3045 107.779 84.1477 107.779C84.1281 107.779 84.1085 107.779 84.1085 107.779C83.9517 107.779 83.8145 107.927 83.8145 108.096C83.8341 108.264 83.9517 108.412 84.1085 108.412Z" fill="#191D23"/>
<path d="M85.8321 108.37C86.2045 108.37 86.2045 107.737 85.8321 107.737C85.4596 107.737 85.4596 108.37 85.8321 108.37Z" fill="#191D23"/>
<path d="M85.1866 109.383C85.559 109.383 85.559 108.75 85.1866 108.75C84.7946 108.75 84.7946 109.383 85.1866 109.383Z" fill="#191D23"/>
<path d="M78.6987 112.147C79.8944 114.469 83.0307 114.131 83.7952 111.62C83.9128 111.24 83.3444 111.071 83.2268 111.451C82.6191 113.477 80.1492 113.646 79.2083 111.831C79.0319 111.472 78.5223 111.789 78.6987 112.147Z" fill="#191D23"/>
<path d="M71.6997 106.977C70.9745 108.138 69.9356 110.142 69.5239 112.823C69.2299 114.743 68.7202 118.098 70.6804 120.757C71.2097 121.475 73.1503 123.817 75.8162 123.437C77.6 123.184 79.5014 121.749 79.8542 119.744C80.0306 118.816 79.8346 118.014 79.6582 117.55C78.8153 117.106 77.3059 116.178 76.1298 114.363C75.5417 113.477 75.1889 112.612 74.9929 111.936C74.8949 112.021 74.5812 112.274 74.15 112.253C73.6403 112.232 73.3267 111.852 73.2483 111.746C72.6406 111.008 72.6994 109.488 73.5031 108.982C73.9148 108.729 74.3852 108.813 74.64 108.876C74.5224 108.095 74.4048 106.428 75.2281 104.677C75.777 103.495 76.6198 102.63 78.5605 101.321C80.1678 100.245 80.8735 100.33 81.1283 100.372C81.9908 100.541 82.5201 101.279 82.7945 101.659C84.0294 103.347 85.6368 105.521 87.5578 108.201C87.6362 108.159 88.1655 107.884 88.6947 108.138C89.0672 108.328 89.2436 108.686 89.3612 108.961C89.4592 109.193 89.616 109.53 89.5376 109.931C89.4592 110.438 89.0868 110.902 88.5771 111.071C87.9498 111.282 87.4402 110.923 87.3618 110.86C87.205 111.662 86.8913 112.865 86.1464 114.152C85.382 115.46 84.4999 116.326 83.8922 116.832C83.8138 117.339 83.7158 118.267 84.0882 119.322C84.6763 121.053 86.2053 122.15 87.6166 122.488C90.2629 123.1 92.3995 120.968 92.9484 120.399C94.8302 118.499 95.9671 115.313 95.0066 112.253C94.2813 109.974 92.6739 108.729 92.0467 108.285C91.2822 106.386 90.4981 104.909 89.8708 103.854C88.1066 100.878 86.8913 98.8734 84.6763 98.1348C83.3237 97.6917 82.0888 97.8605 81.2655 98.0715C79.9326 97.755 78.8937 97.8816 78.188 98.0715C74.9341 98.9367 72.4642 102.44 71.6997 106.977Z" fill="#064E3B"/>
<path opacity="0.08" d="M85.1471 104.635C84.9903 104.698 85.3039 105.795 85.4607 106.893C85.4803 107.04 85.8135 109.763 84.8726 112.358C83.8141 115.271 81.6187 116.832 80.6582 117.423C81.2659 117.571 81.8931 117.719 82.5008 117.887C82.6772 119.027 82.834 120.188 83.0104 121.327C83.4025 120.821 83.8141 120.314 84.2062 119.808C84.3826 120.166 84.6962 120.694 85.1863 121.179C85.3431 121.348 86.48 122.446 88.1658 122.593C90.0476 122.783 91.4393 121.686 92.2234 121.074C92.7527 120.673 94.3208 119.407 95.0461 116.98C95.8302 114.342 95.0657 112.126 94.8305 111.514C94.5757 112.569 94.0464 114.152 92.9095 115.693C92.6351 116.072 90.1652 119.386 88.6362 118.816C87.3229 118.33 86.8721 114.996 87.5189 110.628C87.5581 110.67 87.8718 111.071 88.3226 111.05C88.8911 111.029 89.1459 110.417 89.1851 110.354C89.4595 109.72 89.1263 109.024 88.7931 108.644C88.3618 108.138 87.7737 108.053 87.5973 108.053C87.3425 107.779 86.9701 107.357 86.578 106.808C85.6371 105.563 85.2843 104.592 85.1471 104.635Z" fill="#353535"/>
<path opacity="0.09" d="M80.4024 109.319C80.5593 109.045 81.4218 108.982 81.6766 109.551C81.8726 109.995 81.6178 110.585 81.3433 110.649C80.9121 110.775 80.1868 109.678 80.4024 109.319Z" fill="#353535"/>
<path opacity="0.09" d="M75.8755 118.246C75.4639 119.006 74.6406 119.702 73.8173 119.618C73.3273 119.575 72.7784 119.259 70.877 115.988C70.2497 114.912 69.7597 113.983 69.4265 113.371C69.25 114.068 69.0148 115.313 69.2108 116.811C69.2892 117.402 69.4853 118.415 70.0145 119.512C70.3477 120.209 71.1318 121.749 72.798 122.72C73.2881 123.015 74.1505 123.501 75.3071 123.501C77.2477 123.48 78.5022 122.087 78.757 121.791C79.2079 121.306 79.8547 120.567 79.9528 119.407C80.0508 118.288 79.5607 117.423 79.4431 117.254C78.855 116.283 78.2278 116.389 77.2281 115.46C75.9539 114.279 75.6011 112.822 75.4443 112.886C75.2091 113.034 76.9928 116.178 75.8755 118.246Z" fill="#353535"/>
<path opacity="0.13" d="M87.4397 109.362C87.3221 109.32 86.9693 110.649 85.9499 112.443C84.4994 114.996 82.7156 116.663 81.4219 117.676C82.3236 117.402 83.9309 116.769 85.2639 115.207C87.3809 112.759 87.6161 109.425 87.4397 109.362Z" fill="#353535"/>
</svg>
