<svg width="32" height="33" viewBox="0 0 32 33" fill="none" xmlns="http://www.w3.org/2000/svg">
<path d="M16 8.89277C15.825 8.89277 15.6625 8.90527 15.4875 8.91777V11.9928C15.6625 11.9803 15.825 11.9428 16 11.9428C19.0875 11.9428 21.5875 14.4428 21.5875 17.5303C21.5875 18.0678 21.4875 18.5678 21.35 19.0553H24.5C24.5875 18.5553 24.6375 18.0553 24.6375 17.5303C24.65 12.7553 20.775 8.89277 16 8.89277ZM16 2.78027C15.825 2.78027 15.6625 2.80527 15.4875 2.80527V5.85527C15.65 5.85527 15.825 5.83027 16 5.83027C22.4625 5.83027 27.7 11.0678 27.7 17.5303C27.7 18.0428 27.65 18.5553 27.5875 19.0553H30.675C30.725 18.5553 30.75 18.0428 30.75 17.5303C30.75 9.39277 24.15 2.78027 16 2.78027ZM21.3625 23.5553C19.6625 22.9053 18.0625 22.0803 16.2 23.8053C15.05 24.8803 14.225 24.7553 13.475 24.3553C12.725 23.9553 8.1 19.2428 7.475 17.6928C6.8375 16.1428 7.1875 15.9428 7.475 15.4803C7.7625 15.0053 9.775 13.9178 8.5625 10.4803C7.35 7.04277 6.4 4.46777 1.475 10.4803C0.962501 11.1053 1.475 13.8053 1.475 13.8053C1.475 13.8053 4.95 25.1803 16.75 29.9053C18.575 30.6428 22.725 29.4803 24.3875 26.5803C25.2125 25.1553 24.025 24.5678 21.3625 23.5553Z" fill="#1C5540"/>
</svg>
