<svg width="128" height="26" viewBox="0 0 128 26" fill="none" xmlns="http://www.w3.org/2000/svg">
<g clip-path="url(#clip0_670_19)">
<path d="M23.2365 13.901L23.2533 13.9023L25.0057 14.0855C25.1287 14.0988 25.2417 14.1588 25.3215 14.2527L25.3345 14.2687L25.3179 14.2769C25.3998 14.3803 25.4359 14.5126 25.4177 14.6432C25.0349 17.6871 23.5922 20.4988 21.3429 22.585C19.0089 24.7496 15.9433 25.9523 12.76 25.9523C11.214 25.9548 9.68105 25.6702 8.23927 25.113L8.16072 25.0824C8.04271 25.0388 7.94789 24.949 7.8977 24.8343L7.89015 24.816C7.84099 24.7018 7.83826 24.5733 7.88195 24.4575L8.57365 22.7699C8.66737 22.5314 8.93299 22.4112 9.17288 22.4958L9.18883 22.5017C12.7243 23.8669 16.7287 23.098 19.5072 20.5205C21.2758 18.8954 22.4162 16.7 22.7289 14.3186C22.762 14.0727 22.9753 13.8938 23.2198 13.9003L23.2365 13.901ZM64.6228 6.739C66.117 6.739 67.2855 7.19489 68.0318 8.07041L68.0568 8.10008V7.35918C68.0668 7.15238 68.2269 6.98524 68.4313 6.96505L68.448 6.96374H70.4417C70.6469 6.97792 70.8101 7.13938 70.8278 7.34261L70.8289 7.35918V18.4268C70.8934 19.9875 70.4137 21.522 69.472 22.7682C68.398 24.0751 66.7664 24.7369 64.6228 24.7369C61.6426 24.7369 59.2908 22.8514 58.9038 20.1583C58.8845 19.9639 59.003 19.7831 59.187 19.7222L59.2034 19.7171L61.1514 19.2593C61.1616 19.257 61.1718 19.2551 61.1821 19.2536C61.3959 19.2222 61.5946 19.3701 61.6259 19.584C61.8038 21.0946 63.1022 22.2216 64.6228 22.1854C66.9263 22.1854 68.01 21.0146 68.0315 18.5679L68.0318 18.4934V17.5236C67.1683 18.492 65.9196 19.0272 64.6228 18.9846C61.3096 18.9846 58.908 16.4123 58.908 12.8742C58.8776 11.2824 59.4381 9.73573 60.4813 8.53293C61.5408 7.36889 63.049 6.71566 64.6228 6.739ZM4.61904 20.1999L4.64374 20.1997L4.66854 20.1999C5.46383 20.209 6.10417 20.8521 6.11282 21.6445L6.11288 21.6693C6.11288 21.6775 6.11278 21.6858 6.11264 21.694C6.09879 22.5054 5.42993 23.152 4.61856 23.1382C3.8072 23.1243 3.16068 22.4555 3.17438 21.6441C3.18795 20.8493 3.83007 20.2126 4.61904 20.1999ZM99.135 6.585L99.2372 6.58576C102.799 6.63494 105.006 9.11416 105.006 13.0823C105.006 13.2923 104.994 13.5021 104.972 13.7109C104.954 13.9029 104.797 14.0509 104.606 14.06L104.59 14.0605H96.1232C96.1754 15.8386 97.6453 17.2455 99.4244 17.2197C100.803 17.3064 102.059 16.4296 102.454 15.1053C102.527 14.9152 102.731 14.8129 102.925 14.8674L102.941 14.8722L104.631 15.4674C104.724 15.4974 104.801 15.5636 104.844 15.6507L104.852 15.6672C104.898 15.7589 104.906 15.8654 104.873 15.9627C104.088 18.2867 101.876 19.8244 99.4244 19.7504C97.8167 19.7664 96.2696 19.1384 95.1288 18.0064C93.883 16.696 93.2183 14.9389 93.2847 13.1323C93.2847 9.07345 96.2018 6.63412 99.0504 6.58574L99.135 6.585ZM51.2284 6.58501H51.2325C54.858 6.58501 57.1098 9.07407 57.1098 13.0823C57.1095 13.2923 57.0984 13.5021 57.0765 13.7109C57.0597 13.9039 56.9016 14.053 56.7096 14.0602L56.6935 14.0605H48.2274C48.2796 15.8436 49.7571 17.2525 51.5406 17.2198C52.9202 17.3079 54.1775 16.4306 54.5708 15.1053C54.6413 14.9136 54.8478 14.8107 55.042 14.8673L55.0578 14.8722L56.7477 15.4674C56.8465 15.4993 56.9268 15.572 56.9683 15.6672C57.0078 15.7617 57.0078 15.8682 56.9683 15.9627C56.1839 18.2852 53.9742 19.8226 51.5239 19.7504C49.9137 19.7687 48.3634 19.1405 47.22 18.0064C45.9763 16.695 45.3118 14.9387 45.3761 13.1323C45.3761 9.03245 48.3522 6.58501 51.2284 6.58501ZM38.4084 6.5808C40.0359 6.5808 41.3512 6.97624 42.3252 7.75454C42.9837 8.27942 43.4718 8.98769 43.7279 9.78999L43.7286 9.7932C43.7621 9.93151 43.6808 10.0708 43.5459 10.1109L43.5322 10.1146L41.5135 10.7806C41.4239 10.8161 41.3242 10.8161 41.2347 10.7806C41.1582 10.7449 41.1007 10.6782 41.0765 10.5975L41.0657 10.5578C40.8818 9.90046 40.2807 8.84512 38.4084 8.84512C37.0765 8.84512 36.2773 9.61101 36.2773 10.3519L36.2776 10.3812C36.2876 10.863 36.5496 11.4677 37.6983 11.6976L37.7341 11.7046L39.9568 12.1208C42.4127 12.6154 43.8284 13.9502 43.8564 15.8104L43.8569 15.867L43.8486 15.8338L43.848 15.8902C43.8123 17.7549 42.0086 19.7171 38.6873 19.7171C34.7955 19.7171 33.2679 17.5153 32.9849 16.2166C32.9664 16.0808 33.0493 15.9524 33.1789 15.9125L33.193 15.9086L35.2742 15.2593C35.3114 15.2532 35.3494 15.2532 35.3866 15.2593C35.4395 15.2583 35.4918 15.2696 35.5395 15.292L35.5572 15.3009C35.6336 15.3375 35.69 15.4061 35.7112 15.4882C35.9735 16.7369 37.1015 17.482 38.7247 17.482C40.2357 17.482 40.9225 16.6911 40.9225 15.9752C40.9225 15.2672 40.3239 14.7423 39.2921 14.5255L39.2575 14.5184L36.9225 14.0647C34.7455 13.6526 33.3887 12.2998 33.3887 10.5392C33.3887 8.39557 35.6904 6.5808 38.4084 6.5808ZM122.355 3.1136H124.174C124.388 3.12649 124.556 3.30055 124.565 3.51375L124.565 3.52981V6.94711H126.754C126.967 6.96207 127.133 7.13537 127.141 7.34697L127.141 7.36332V9.1781L127.141 9.1939C127.135 9.39737 126.973 9.56263 126.77 9.57303L126.754 9.57353H124.565V15.6464C124.565 16.6536 124.964 17.0699 125.992 17.0699C126.2 17.0663 126.408 17.0505 126.614 17.0226L126.692 17.0116C126.805 16.9924 126.921 17.0244 127.008 17.099C127.087 17.1719 127.133 17.2722 127.141 17.3787L127.141 17.3987V19.1094C127.143 19.2838 127.029 19.4382 126.862 19.4882C126.383 19.6224 125.888 19.6898 125.39 19.6886L125.322 19.688C123.15 19.688 121.795 18.305 121.768 16.0682L121.768 16.0002V9.59851H119.874C119.667 9.58635 119.501 9.42433 119.484 9.21976L119.483 9.20308V7.37995C119.482 7.16487 119.646 6.98588 119.858 6.96501L119.874 6.96374L120.383 6.96368L120.437 6.96271C121.032 6.94564 121.944 6.70475 121.963 5.37803L121.963 5.33623V3.52981C121.963 3.31473 122.126 3.13574 122.339 3.11487L122.355 3.1136ZM87.0017 6.58316L87.0494 6.58501H87.0451C89.188 6.58501 91.3513 8.07805 91.3943 11.3388L91.395 11.4382V19.1469C91.3853 19.3537 91.2246 19.5208 91.0204 19.541L91.0038 19.5423H89.0098C88.8033 19.5301 88.6382 19.3682 88.6197 19.1636L88.6186 19.1469V11.688L88.6182 11.6305C88.6061 10.6802 88.2831 9.1531 86.3255 9.1531C84.8787 9.1531 83.8483 10.2791 83.8278 11.9171L83.8275 11.9669V19.1469C83.8178 19.3537 83.6578 19.5208 83.453 19.541L83.4363 19.5423H81.418C81.2109 19.5301 81.0457 19.3682 81.0279 19.1636L81.0268 19.1469V11.688L81.0264 11.6305C81.0143 10.6802 80.6913 9.1531 78.733 9.1531C77.229 9.1531 76.2106 10.2709 76.1903 11.9411L76.19 11.9918V19.1469C76.1796 19.3537 76.0196 19.5208 75.8155 19.541L75.7988 19.5423H73.8048C73.5998 19.5282 73.4367 19.3666 73.419 19.1635L73.4179 19.1469V7.33419C73.4277 7.12885 73.5856 6.96229 73.7883 6.94023L73.8048 6.93876H75.7239C75.9303 6.95092 76.0962 7.11294 76.114 7.31751L76.1151 7.33419V8.04597C76.9782 7.0996 78.2054 6.56788 79.4862 6.58501C80.9697 6.54153 82.354 7.32584 83.0786 8.62031C83.9416 7.30175 85.4294 6.53036 87.0017 6.58316ZM116.856 8.05425C117.62 9.06054 118.014 10.2982 117.973 11.5597L117.971 11.613V19.1469C117.961 19.3522 117.803 19.5188 117.601 19.5409L117.584 19.5423H115.566C115.359 19.5301 115.194 19.3682 115.175 19.1636L115.174 19.1469V12.0168C115.174 10.1521 114.296 9.20308 112.631 9.20308C111.896 9.1793 111.193 9.50692 110.737 10.0855C110.297 10.7205 110.069 11.4785 110.087 12.2503L110.088 12.2957V19.1469C110.078 19.3537 109.918 19.5208 109.714 19.541L109.697 19.5423H107.682C107.476 19.5301 107.31 19.3682 107.292 19.1636L107.291 19.1469V7.32584C107.301 7.11904 107.461 6.95197 107.666 6.93172L107.682 6.9304H109.651C109.856 6.94458 110.019 7.10611 110.037 7.30928L110.038 7.32584V8.15833C110.883 7.13515 112.15 6.55538 113.476 6.58501C114.769 6.52975 116.015 7.07154 116.856 8.05425ZM0.843312 14.406H15.1743C15.4376 14.4083 15.6504 14.6191 15.657 14.8804L15.6571 14.8972V16.6912C15.6593 16.9545 15.4521 17.1708 15.191 17.1819L15.1742 17.1823H0.843312C0.579913 17.18 0.367234 16.9691 0.360474 16.7079V16.6911V14.8971V14.8804C0.367093 14.6248 0.570831 14.4174 0.826212 14.4065L0.843312 14.406ZM64.9683 9.22806C63.0037 9.22806 61.755 10.6266 61.755 12.8742C61.755 15.1219 62.987 16.5163 64.9683 16.5163C66.858 16.5163 68.1317 15.0512 68.1317 12.8742C68.1317 10.6932 66.858 9.22806 64.9683 9.22806ZM48.316 11.66L48.3106 11.7046H54.2336C54.0894 10.1223 52.9743 9.13557 51.3042 9.11599L51.2534 9.11569C49.7817 9.09176 48.5285 10.1681 48.3219 11.616L48.316 11.66ZM96.2285 11.66L96.2232 11.7046H102.147C102.002 10.1223 100.887 9.13557 99.2167 9.11599L99.1659 9.11569C97.6945 9.09176 96.4411 10.1681 96.2345 11.616L96.2285 11.66ZM16.9682 0.716064C17.0923 0.760826 17.1929 0.85392 17.2471 0.974144C17.2968 1.09551 17.2968 1.23158 17.2471 1.35288L16.6227 3.01787C16.5362 3.26474 16.2663 3.39503 16.0192 3.30921C12.7483 2.16781 9.11893 2.81633 6.44583 5.0199C4.77991 6.41431 3.59702 8.2994 3.06601 10.406C3.01104 10.6187 2.8195 10.7675 2.59983 10.7681H2.4916L0.776704 10.356C0.648842 10.326 0.539042 10.2447 0.472862 10.1312H0.464509C0.395116 10.0179 0.375555 9.88087 0.410466 9.75251C1.09147 7.05591 2.61525 4.64702 4.76006 2.8763C8.17057 0.0685434 12.8013 -0.750888 16.9682 0.716064ZM10.6207 7.90861H24.9516C25.2084 7.9107 25.4184 8.11161 25.4337 8.36604L25.4344 8.38307V10.1771C25.4366 10.4405 25.2295 10.6568 24.9683 10.6678L24.9516 10.6682H10.6207C10.359 10.6638 10.1487 10.4537 10.1421 10.1941L10.1419 10.1771V8.39971C10.1397 8.13804 10.3443 7.92252 10.6037 7.90919L10.6207 7.90861ZM20.5691 2.43508L20.5938 2.43488L20.6186 2.4351C21.4139 2.44421 22.0542 3.08729 22.0629 3.8796L22.0629 3.9044C22.0629 3.91269 22.0628 3.92097 22.0627 3.92918C22.0489 4.74054 21.38 5.38706 20.5686 5.37328C19.7573 5.3595 19.1107 4.69057 19.1245 3.87928C19.138 3.0844 19.7802 2.44778 20.5691 2.43508Z" fill="#4FB58B"/>
</g>
<defs>
<clipPath id="clip0_670_19">
<rect width="126.781" height="26" fill="white" transform="translate(0.360474)"/>
</clipPath>
</defs>
</svg>
