<svg width="97" height="26" viewBox="0 0 97 26" fill="none" xmlns="http://www.w3.org/2000/svg">
<g clip-path="url(#clip0_670_30)">
<path d="M51.0184 6.4754C53.9473 6.4754 56.8229 8.79187 56.8229 12.9722V13.0254C56.8229 17.1791 53.9739 19.5222 51.0184 19.5222C48.9416 19.5222 47.6369 18.4838 46.7583 17.3122V21.7322C46.7583 22.5156 46.1436 23.1453 45.3663 23.1693L45.3204 23.17C44.5483 23.17 43.9093 22.5309 43.9093 21.7588V7.96646C43.8826 7.1943 44.5217 6.55528 45.2938 6.52865H45.3204C46.1039 6.52865 46.7336 7.14334 46.7575 7.92056L46.7583 7.96646V8.8185C47.6902 7.51382 48.9948 6.4754 51.0184 6.4754ZM88.934 6.44877C90.9255 6.44877 92.2207 7.45449 93.1495 8.72995L93.1942 8.79187V7.93984L93.1949 7.89393C93.2183 7.13226 93.8236 6.52668 94.5852 6.50276L94.632 6.50203H94.6586C95.442 6.52814 96.0718 7.14333 96.0706 7.92056L96.0698 7.96646V16.6998C96.0698 18.8033 95.5106 20.3742 94.4722 21.4126C93.3539 22.5576 91.5966 23.0901 89.3334 23.0901C87.6559 23.0901 86.0051 22.7173 84.4874 21.9718C84.0082 21.812 83.6886 21.3328 83.6886 20.8269C83.7153 20.1612 84.2478 19.6553 84.9135 19.6553C85.0998 19.6553 85.2596 19.6819 85.4193 19.7618C86.5909 20.4275 87.9222 20.747 89.2535 20.747C91.6765 20.747 93.061 19.5754 93.1942 17.3122C92.3155 18.4571 91.0108 19.4956 88.934 19.4956C86.0081 19.4956 83.1865 17.1991 83.1304 13.1229L83.1295 12.9988V12.9455C83.1295 8.76524 86.0051 6.44877 88.934 6.44877ZM77.5646 6.52865C80.387 6.52865 82.0112 8.41911 82.0112 11.3214V18.0578C82.0378 18.8299 81.4254 19.4423 80.6533 19.4689H80.6C79.8279 19.4956 79.1888 18.8565 79.1622 18.0844V12.2C79.1622 10.2563 78.2037 9.13801 76.473 9.13801C74.8222 9.13801 73.6506 10.3096 73.6506 12.2533V18.0844C73.6506 18.8832 73.0116 19.5222 72.2128 19.5222C71.414 19.5222 70.775 18.8832 70.775 18.0844L70.8016 7.99309C70.775 7.22093 71.414 6.58191 72.1862 6.55528H72.2128C72.9962 6.55528 73.626 7.16996 73.6499 7.94719L73.6506 7.99309V8.57886C74.5027 7.24756 75.9937 6.4754 77.5646 6.52865ZM37.945 6.50203C39.3296 6.52865 40.6609 6.87479 41.8857 7.51382C42.3117 7.72683 42.578 8.12622 42.578 8.60549C42.578 9.24452 42.0454 9.77704 41.4064 9.77704H41.3798C41.1934 9.77704 41.007 9.72378 40.8206 9.64391C39.9153 9.13801 38.9302 8.84512 37.8918 8.79187C36.7735 8.79187 36.1344 9.32439 36.1344 10.0167V10.0699C36.1344 11.0018 37.4924 11.3746 38.9568 11.8539C38.9967 11.866 39.0368 11.8783 39.0769 11.8908L39.1975 11.9286C39.3383 11.9732 39.4799 12.0198 39.6211 12.0689L39.742 12.1115C41.3325 12.6815 42.8442 13.5811 42.8442 15.5016V15.5549C42.8442 18.1909 40.794 19.4956 38.2113 19.4956C36.5072 19.4689 34.8298 18.963 33.4186 18.0045C33.0724 17.7915 32.8594 17.4187 32.8861 17.0193C32.8861 16.3803 33.392 15.8478 34.031 15.8478H34.0576C34.2706 15.8478 34.4836 15.901 34.67 16.0075C35.735 16.7531 36.9865 17.1525 38.2645 17.2057C39.4893 17.2057 40.2082 16.6732 40.2082 15.8478V15.7945C40.2082 14.8094 38.8769 14.4899 37.4125 14.0372C37.2594 13.9928 37.1046 13.947 36.9495 13.8988L36.8332 13.8622C35.1652 13.3315 33.4985 12.5095 33.4985 10.3628V10.3096C33.4985 7.93984 35.4688 6.50203 37.945 6.50203ZM67.8994 6.55528C68.6828 6.55528 69.3125 7.16996 69.3365 7.94719L69.3372 7.99309V18.0844C69.3372 18.8832 68.6982 19.4956 67.8994 19.4956C67.1006 19.4956 66.4882 18.8565 66.4882 18.0844V7.99309C66.4616 7.22093 67.1006 6.58191 67.8728 6.55528H67.8994ZM65.3433 7.72683V7.93984C65.3433 8.63211 64.864 9.21789 64.1984 9.32439C62.1481 9.67053 60.7636 11.4545 60.7636 13.9307V18.0578C60.7636 18.8565 60.1246 19.4689 59.3258 19.4689C58.5688 19.4689 57.9397 18.8803 57.9153 18.1296L57.9146 18.0843V18.0578L57.9412 7.96646C57.9146 7.1943 58.5536 6.55528 59.3258 6.52865H59.3524C60.1358 6.52865 60.7656 7.14334 60.7895 7.92056L60.7902 7.96646V8.65874C60.9233 7.5937 62.6807 6.52865 63.9321 6.52865C64.651 6.4754 65.29 7.00792 65.3433 7.72683ZM50.3794 8.97825C48.4357 8.97825 46.7316 10.6024 46.7316 12.9722V13.0254C46.7316 15.4218 48.4357 17.0193 50.3794 17.0193C52.3231 17.0193 53.9473 15.5016 53.9473 13.0254V12.9722C53.9473 10.5492 52.3231 8.97825 50.3794 8.97825ZM89.5996 8.95163C87.676 8.95163 86.0653 10.4903 86.0323 12.8709L86.0317 12.9455V12.9988C86.0317 15.475 87.6293 17.0193 89.5996 17.0193C91.5499 17.0193 93.2392 15.4281 93.2477 13.0719L93.2474 12.9988V12.9455C93.2474 10.5758 91.5434 8.95163 89.5996 8.95163ZM69.3638 3.04063V3.09389C69.3638 3.89267 68.7248 4.5317 67.926 4.5317C67.1272 4.5317 66.4882 3.89267 66.4882 3.09389C66.4882 2.31046 67.1029 1.68071 67.8801 1.65678L67.926 1.65608C68.6982 1.62945 69.3372 2.26848 69.3638 3.04063Z" fill="#6DB33F"/>
<path d="M4.23638 3.62638C9.34859 -1.32607 17.5228 -1.19294 22.4753 3.94589C23.0344 3.20036 23.5137 2.37495 23.8598 1.52292C25.484 6.47537 26.4692 10.629 26.0964 13.8508C25.91 16.5667 24.845 19.176 23.0877 21.2529C18.508 26.6846 10.3604 27.3769 4.92866 22.7972L4.82423 22.7044L4.80618 22.6919C4.79362 22.6829 4.78119 22.6736 4.7689 22.664C4.71974 22.6258 4.67507 22.5842 4.63488 22.5398L4.62035 22.5231L4.44939 22.3712C4.28963 22.2342 4.12987 22.0973 3.98688 21.9436L3.91686 21.8653C-1.03559 16.753 -0.875834 8.57884 4.23638 3.62638ZM6.15346 20.96C5.67419 20.5872 4.98191 20.6405 4.60914 21.1197C4.28417 21.5376 4.28298 22.1173 4.60557 22.506L4.62035 22.5231L4.82423 22.7044L4.84424 22.718C5.30552 23.0218 5.92502 22.9625 6.28392 22.5403L6.31321 22.5043C6.68598 22.025 6.6061 21.3327 6.15346 20.96ZM23.7267 2.85422C22.3954 5.64996 19.0937 7.78005 16.2447 8.44571C15.1471 8.70653 14.1071 8.77218 13.0922 8.82371L12.7885 8.83893C11.4247 8.90712 10.1006 8.98257 8.73619 9.51075C3.09145 11.6675 3.19796 18.3772 6.28659 19.8949L6.47297 20.0014C6.47297 20.0014 8.51684 19.595 10.6266 19.0466L10.8156 18.9971C10.8471 18.9887 10.8787 18.9804 10.9102 18.972L11.0992 18.9215C11.9804 18.684 12.8473 18.4252 13.5555 18.1642C17.2299 16.8063 21.2771 13.4514 22.6084 9.564C21.9161 13.6112 18.4281 17.5252 14.9401 19.3092C13.0762 20.2677 11.6384 20.4807 8.57643 21.5457C8.20367 21.6789 7.91078 21.812 7.91078 21.812C7.92833 21.8096 7.94588 21.8072 7.96342 21.8048L8.06848 21.791L8.17288 21.7778C8.84845 21.6941 9.45509 21.6523 9.45509 21.6523C13.7951 21.4392 20.6114 22.8771 23.7799 18.6435C27.0283 14.3301 25.2177 7.35403 23.7267 2.85422Z" fill="#6DB33F"/>
<path d="M6.15345 20.96C6.6061 21.3328 6.68597 22.025 6.31321 22.5043C5.94044 22.9836 5.24816 23.0368 4.76889 22.6641C4.28963 22.2913 4.23637 21.599 4.60914 21.1198C4.9819 20.6405 5.67418 20.5872 6.15345 20.96ZM23.7267 2.85425C25.2177 7.35406 27.0283 14.3301 23.7799 18.6435C20.6114 22.8771 13.7951 21.4393 9.45509 21.6523C9.45509 21.6523 8.68293 21.7055 7.91077 21.812C7.91077 21.812 8.20366 21.6789 8.57643 21.5458C11.6384 20.4807 13.0762 20.2677 14.9401 19.3092C18.4281 17.5252 21.9161 13.6112 22.6084 9.56403C21.2771 13.4514 17.2299 16.8063 13.5555 18.1643C12.8978 18.4066 12.1034 18.647 11.2877 18.8703L11.0992 18.9215C8.83327 19.5322 6.47297 20.0015 6.47297 20.0015L6.28658 19.895C3.19796 18.3773 3.09145 11.6675 8.73618 9.51077C11.2124 8.55223 13.5555 9.08476 16.2447 8.44573C19.0937 7.78008 22.3954 5.64999 23.7267 2.85425Z" fill="white"/>
</g>
<defs>
<clipPath id="clip0_670_30">
<rect width="95.7698" height="26" fill="white" transform="translate(0.300232)"/>
</clipPath>
</defs>
</svg>
