<svg width="1283" height="81" viewBox="0 0 1283 81" fill="none" xmlns="http://www.w3.org/2000/svg">
<g clip-path="url(#clip0_109_2702)">
<rect width="80" height="80" transform="translate(6.10352e-05 0.243164)" fill="#1C5540"/>
<path d="M28.6805 80.5719C28.4422 80.2659 28.2449 79.8487 28.1057 79.3563V76.0095C28.0095 75.8455 27.9209 75.6647 27.8409 75.4695C27.792 75.3327 27.7654 75.1695 27.765 75.0015C27.7646 74.8339 27.7903 74.6695 27.8386 74.5319C27.9271 74.2859 28.023 74.0507 28.1258 73.8279V72.6739C27.9907 72.1971 27.8734 71.7007 27.775 71.1895L28.1216 70.4259V69.7695C28.2031 69.6239 28.2928 69.4979 28.3889 69.3935C28.4882 69.3095 28.6156 69.3523 28.7073 69.2531C28.8013 69.1159 28.8853 68.9531 28.9568 68.7695C29.1821 68.6799 29.4123 68.6499 29.6416 68.6791C29.765 68.6839 29.8911 68.6891 30.0208 68.6791C30.2276 68.4503 30.3659 67.7859 30.7253 68.0063C30.8908 67.6915 31.0543 67.3775 31.2122 67.0751C31.332 66.6875 31.2122 66.1267 31.4736 65.8755H32.8516C32.982 66.1207 33.1074 66.3547 33.2365 66.5951H34.268C34.5642 67.1891 34.8485 67.7715 35.142 68.3347C35.2269 68.4711 35.3192 68.5879 35.417 68.6835H35.9713C36.0825 68.8719 36.2096 69.0899 36.3655 69.3539H37.0178C37.1518 69.5939 37.2785 69.8191 37.4175 70.0719H38.0915C38.2199 70.3147 38.3463 70.5511 38.4727 70.7875C38.8179 70.7875 39.1679 70.7763 39.5151 70.7987C39.5579 70.7987 39.6087 70.9387 39.6355 71.0351C39.6415 71.0747 39.6435 71.1171 39.6403 71.1583C39.6375 71.1999 39.6299 71.2391 39.6183 71.2739C39.5423 71.4519 39.4563 71.6079 39.3575 71.8071V73.1759C39.1743 73.6491 38.9471 74.0475 38.6883 74.3491H38.0875C37.8559 74.8115 37.6502 75.2259 37.4288 75.6695H36.4102C36.2762 75.9071 36.1501 76.1355 36.0068 76.3875H35.3356C35.2065 76.6307 35.0824 76.8643 34.9534 77.1059H34.6162C34.4878 77.3487 34.363 77.5851 34.2356 77.8211H32.5101C32.3721 78.0715 32.2453 78.3003 32.1146 78.5367H30.7409C30.3987 79.2207 30.0704 79.8791 29.721 80.5759L28.6805 80.5719ZM50.0187 71.4683C49.8455 71.1179 49.6799 70.7879 49.5095 70.4475V66.2455C49.6175 66.0091 49.7315 65.7563 49.8407 65.5191C49.7335 65.2735 49.6263 65.0327 49.5279 64.8067C49.6503 64.5183 49.7595 64.2631 49.8503 64.0479C49.8803 63.0575 49.8039 62.1275 49.8711 61.4547L50.3559 60.2631C50.8683 60.2279 50.8719 60.2231 50.9071 59.2647C50.8011 59.0283 50.6863 58.7755 50.5671 58.5071C50.5671 58.4003 50.5631 58.2939 50.5539 58.1887C50.5339 58.0771 50.5339 57.9547 50.5551 57.8435C50.5759 57.7319 50.6159 57.6395 50.6683 57.5823C50.7483 57.4847 50.8199 57.5923 50.9191 57.8151C51.0723 58.1659 51.2459 58.4799 51.4111 58.8131C51.4775 58.6635 51.5927 58.5235 51.5999 58.3591C51.6367 57.6771 51.6371 56.9847 51.6631 56.3031C51.6667 56.2099 51.7403 56.1343 51.7823 56.0487H52.1343C52.4627 56.7047 52.7915 57.3691 53.1251 58.0239C53.1463 58.0635 53.2051 58.0291 53.2475 58.0291C53.4531 57.6179 53.6591 57.2055 53.8763 56.7695H54.5583C54.6907 56.5255 54.8159 56.2915 54.9447 56.0487H55.3939C55.5615 56.4739 55.7751 57.0231 55.9595 57.4935H56.6875L57.0875 58.1471C57.2175 58.1615 57.3483 58.1627 57.4787 58.1511C57.7059 58.1099 57.9355 58.1519 58.1555 58.2759C58.2375 58.4415 58.3207 58.6059 58.4235 58.8131H59.5251C59.7079 59.2851 59.9223 59.8311 60.0899 60.2607C60.4287 60.2607 60.6627 60.2607 60.8895 60.2607C61.0179 60.5023 61.1339 60.9035 61.2651 60.9335C61.7339 61.0435 61.7395 61.0043 61.7727 61.9587C61.6659 62.1975 61.5511 62.4531 61.4263 62.7275V64.1315C61.1391 64.6803 60.8435 65.2399 60.5287 65.8399L60.2119 65.8795C60.0935 66.1019 59.9671 66.3375 59.8375 66.5791H59.5327C59.0839 67.2195 58.8175 68.1635 58.3743 68.6855C57.3627 68.6855 56.3699 68.6859 55.3783 68.6919C55.3251 68.7131 55.2743 68.7519 55.2279 68.8063C55.1447 68.9723 55.0623 69.1363 54.9803 69.3043C54.6791 69.4007 54.3731 69.4267 54.0687 69.3815C53.7583 69.3295 53.4459 69.3623 53.1399 69.4791L52.8463 70.0687H52.1659C52.0335 70.3123 51.9087 70.5479 51.7783 70.7887H51.4415C51.3119 71.0343 51.1863 71.2679 51.0775 71.4747L50.0187 71.4683ZM0.25541 62.3235C0.120058 62.0871 -0.00703812 61.8615 -0.13511 61.6379C-0.294762 61.5439 -0.46411 61.5367 -0.625538 61.6179C-0.742118 61.6979 -0.867458 61.7127 -0.987942 61.6603C-1.10843 61.6083 -1.21946 61.4915 -1.30894 61.3223V59.9563C-1.43172 59.6879 -1.54854 59.4347 -1.669 59.1743V57.8159C-1.78582 57.5519 -1.89305 57.3095 -1.99994 57.0679C-1.7802 56.6323 -1.57236 56.2199 -1.37115 55.7979C-1.35262 55.7611 -1.37844 55.6355 -1.38307 55.5451C-1.48752 55.4255 -1.56993 55.2419 -1.61818 55.0219C-1.66644 54.8015 -1.67798 54.5563 -1.65111 54.3219C-1.55911 54.1143 -1.44496 53.8599 -1.32781 53.5999C-1.43701 53.3635 -1.55019 53.1131 -1.65874 52.8735V50.7787C-1.36752 50.1951 -1.07829 49.6135 -0.78773 49.0327H2.36149C2.48561 49.2643 2.61297 49.4987 2.74337 49.7435H5.86809C6.00709 49.9939 6.13281 50.2227 6.26517 50.4615H11.1263C11.2789 50.7259 11.407 50.9435 11.5473 51.1823H12.2045L12.8468 52.4691C13.0458 52.5031 13.2319 52.6787 13.3714 52.9635C13.1653 53.3759 12.9593 53.7891 12.7532 54.2039C12.7115 54.5207 12.6702 54.8363 12.6208 55.2071C12.4633 55.4711 12.2876 55.7575 12.1138 56.0487C11.8451 55.9455 11.721 56.4203 11.5278 56.6087C11.2838 56.8447 10.9807 56.8447 10.8139 57.3819C10.6717 57.3707 10.5305 57.4347 10.4048 57.5675C10.279 57.7003 10.1732 57.8975 10.0981 58.1387H9.05137C8.92097 58.3835 8.79489 58.6199 8.66581 58.8591H8.33189L7.95561 59.5559C7.82721 59.5715 7.71369 59.5907 7.60117 59.6067C7.14681 60.5131 6.69309 61.4227 6.23177 62.3479H3.42545C3.31357 62.1375 3.18813 61.9047 3.05909 61.6643H0.96891C0.839846 61.9047 0.714418 62.1375 0.593298 62.3659C0.470186 62.3503 0.356346 62.3399 0.25541 62.3235ZM70.0247 58.1535C69.8099 57.7451 69.6419 57.4239 69.4823 57.1163V51.2955C69.6971 50.9503 69.9679 50.5203 70.1999 50.1515V48.0127C70.3323 47.6611 70.4803 47.4183 70.5207 47.1135C70.5631 46.7835 70.5499 46.4423 70.7115 46.2215C70.9983 46.2215 70.9983 46.2211 71.1787 45.9795C71.3195 45.4515 71.1371 44.8391 71.3047 44.3295C71.3423 44.2455 71.3855 44.1719 71.4331 44.1115L71.7623 44.1439C71.8907 44.3635 72.0103 44.5711 72.1295 44.7775C72.3067 44.4287 72.4367 44.0383 72.7143 44.1003C72.8735 44.1155 73.0335 44.0995 73.1915 44.0523C73.4211 43.5955 73.6267 43.1823 73.8323 42.7695C73.9451 42.7499 74.0563 42.7287 74.1847 42.7035L74.5687 43.3979H74.8899C75.0223 43.6423 75.1479 43.8759 75.2771 44.1147H75.9607C76.0931 44.3603 76.2195 44.5939 76.3483 44.8303H78.4155C78.5587 45.0871 78.6855 45.3099 78.8211 45.5487H79.8171C79.9767 45.8127 80.1055 46.0339 80.2127 46.2087C80.3259 46.2199 80.4367 46.2171 80.5483 46.2147C80.8343 46.1823 81.1207 46.2403 81.3975 46.3859C81.3975 47.2623 81.3975 47.9595 81.3975 48.6959C81.2427 49.0315 81.0771 49.3455 80.9011 49.6367C80.8243 49.7507 80.6843 49.7027 80.4639 49.7463C80.3023 50.1547 80.0867 50.6955 79.9151 51.1323H79.4747C79.3443 51.3739 79.2179 51.6055 79.1003 51.8279C78.9743 51.8419 78.8595 51.8579 78.7459 51.8739C78.6695 52.1127 78.5631 52.3063 78.4367 52.4359C78.3107 52.5655 78.1695 52.6255 78.0279 52.6103C77.8215 53.0247 77.6159 53.4359 77.4087 53.8479C77.2647 53.8375 77.1219 53.9023 76.9943 54.0363C76.8671 54.1707 76.7595 54.3695 76.6823 54.6123H74.9523C74.8219 54.8487 74.6947 55.0803 74.5575 55.3279H73.1819C73.0527 55.5695 72.9279 55.8059 72.7999 56.0459H72.1071C71.9419 56.3763 71.7763 56.7063 71.6107 57.0363C71.5939 57.1419 71.5851 57.2515 71.5839 57.3623C71.6119 57.7583 71.5219 58.1043 71.3475 58.1259C71.1487 58.1531 70.9503 58.1603 70.7579 58.1603C70.5043 58.1671 70.2551 58.1535 70.0247 58.1535ZM28.6725 46.8791C28.3304 46.3579 28.0284 45.7399 27.776 45.0443C27.776 43.9115 27.773 42.8587 27.776 41.8099C27.776 41.7107 27.8194 41.6119 27.8422 41.5247C27.9485 41.2607 28.1437 41.1023 28.1208 40.6987C28.0878 40.1231 28.3264 39.9187 28.4697 39.5551V38.1975C28.5925 37.9291 28.7093 37.6751 28.8298 37.4115V33.6707C28.9943 33.7235 29.163 33.6791 29.3151 33.5431C29.4672 33.4071 29.596 33.1855 29.6858 32.9055H30.4172L30.8908 31.7491C30.8885 31.5907 30.9036 31.4331 30.9348 31.2871C31.0389 30.9591 31.1538 30.6447 31.2786 30.3463C31.2852 30.0543 31.2845 29.7615 31.2764 29.4699C31.2655 29.3575 31.2684 29.2423 31.2847 29.1327C31.301 29.0231 31.3302 28.9231 31.37 28.8411C31.457 28.6759 31.5133 28.7683 31.6225 28.9947C32.2712 30.3223 32.931 31.6351 33.579 32.9255H34.2822C34.4593 33.2947 34.599 33.6799 34.8726 33.5855C35.0158 33.5195 35.1658 33.5471 35.3006 33.6643C35.4352 33.7815 35.5474 33.9823 35.6206 34.2363C35.787 34.3015 35.9571 34.3183 36.1259 34.2859C36.3517 34.2275 36.5812 34.2843 36.7931 34.4511C36.8781 34.6183 36.9585 34.7851 37.0525 34.9683H39.4859C39.6183 35.2119 39.7435 35.4467 39.8731 35.6887H42.4231C42.5883 36.1199 42.8043 36.6659 42.9723 37.0927C44.6211 37.0927 44.6211 37.0927 44.9675 37.4523C44.7863 37.7647 44.6131 38.0659 44.3863 38.4531H43.0443C42.6859 39.1687 42.3199 39.9007 41.9687 40.5991C41.8267 40.6191 41.7127 40.6303 41.5987 40.6435C41.5259 40.8271 41.4415 40.9919 41.3479 41.1327C41.1159 41.4015 40.7851 41.2935 40.6247 41.8803C40.6055 41.9531 40.5311 41.9879 40.4799 42.0047C40.4007 42.0167 40.3207 42.0167 40.2411 42.0047C40.0939 41.9627 39.9435 42.0039 39.8071 42.1235C39.5987 42.5395 39.3927 42.9543 39.1759 43.3903H37.7927C37.6604 43.6319 37.5356 43.8691 37.4059 44.1107H35.6672C35.5382 44.3539 35.412 44.5875 35.2823 44.8307H31.096C30.9111 45.2663 30.6484 45.5403 30.3636 45.5947C30.1575 46.0091 29.9516 46.4203 29.723 46.8787L28.6725 46.8791ZM51.1019 41.9563C50.8855 41.5675 50.7111 41.2619 50.5627 40.9991V36.0483C50.6867 35.7747 50.8015 35.5159 50.9227 35.2479V33.9059C51.1035 33.5415 51.2687 33.2107 51.4323 32.8803H51.7483V32.8855L53.0159 30.4275V29.7223C53.3107 29.1303 53.5995 28.5491 53.8827 27.9787C54.0055 28.2051 54.1279 28.4255 54.2383 28.6275C54.3831 28.3999 54.5155 28.1847 54.6475 27.9675C54.8459 28.0863 54.9783 27.8539 55.1087 27.6211C55.2391 27.3879 55.3631 27.1699 55.5523 27.2663C55.8807 26.9755 56.0579 26.3423 56.3295 25.8895C56.4507 26.1099 56.5727 26.3351 56.7003 26.5639H57.0355C57.1651 26.8095 57.2907 27.0395 57.4099 27.2659C57.5359 27.2795 57.6495 27.2895 57.7491 27.3043C57.8851 27.5431 58.0139 27.7663 58.1503 28.0083H59.1647C59.2683 28.2131 59.3503 28.3787 59.4455 28.5671C59.7515 28.6935 60.0655 28.7279 60.3767 28.6691C60.6843 28.6119 60.9943 28.6443 61.2971 28.7655L61.5767 29.3255H62.5879C62.7263 29.5683 62.8551 29.7875 63.0047 30.0515H63.6663L64.0571 30.7715H65.7931C65.9215 31.0107 66.0467 31.2475 66.1779 31.4895H67.9055C67.9803 31.5863 68.0371 31.7295 68.0671 31.8975C68.0971 32.0651 68.0983 32.2479 68.0707 32.4175C68.0547 32.5195 68.0271 32.6127 67.9895 32.6891C67.9523 32.7655 67.9063 32.8231 67.8555 32.8575C67.6407 32.8947 67.4251 32.9011 67.2099 32.8771C66.9119 33.3863 66.7311 34.0127 66.3971 34.2799H65.8699C65.5503 34.7703 65.2543 35.3183 64.9851 35.9171C64.6679 36.6175 64.3207 37.2623 63.9479 37.8443H63.3215C63.2123 38.0623 63.1295 38.2295 63.0447 38.3991C62.7435 38.5111 62.4359 38.5403 62.1307 38.4867C61.8179 38.4271 61.5023 38.4635 61.1947 38.5943C61.0903 38.8051 61.0075 38.9679 60.9103 39.1651H59.5375L59.1367 39.8855H56.7147C56.5823 40.1299 56.4555 40.3647 56.3271 40.6011H53.1831C52.9519 41.1183 52.6955 41.5887 52.4175 42.0051C52.2327 41.9839 52.0471 41.9951 51.8651 42.0051C51.7591 42.0111 51.6543 42.0171 51.5519 42.0171C51.4011 42.0231 51.2507 42.0027 51.1019 41.9563ZM14.2566 40.5523C14.091 40.2203 13.926 39.8903 13.7619 39.5619C13.774 39.3959 13.7695 39.2271 13.7484 39.0647C13.7274 38.9023 13.6904 38.7499 13.6394 38.6163C13.5127 38.4907 13.3693 38.4483 13.2298 38.4947C13.1314 38.5427 13.0283 38.5331 12.9326 38.4679C12.8369 38.4023 12.7526 38.2839 12.6897 38.1259C12.4871 37.5563 11.9947 37.9279 11.851 37.1355C11.7342 37.1199 11.6214 37.1035 11.4788 37.0915C11.1286 36.3919 10.7629 35.6603 10.4072 34.9507H9.70065C9.41573 34.0267 9.01365 34.2511 8.73233 34.3567C8.47521 34.7627 8.29485 35.0511 8.21209 35.1799C8.13201 35.7371 8.08669 36.0491 8.04665 36.3263C7.62501 35.4795 7.22225 34.6687 6.75597 33.7387V31.2099C6.44621 30.3711 6.00113 29.8155 5.73009 28.9887C5.85053 28.6975 5.95741 28.4387 6.04281 28.2295C6.01949 27.5131 6.03997 26.7943 6.10373 26.0879C6.27877 25.7935 6.44589 25.4751 6.39625 24.9423C6.62293 24.4259 6.85957 23.9271 7.08889 23.3335C7.15837 23.1547 7.01509 22.6471 7.21661 22.4883C7.39733 22.3495 7.45753 22.8135 7.59421 22.9827C7.82469 23.0739 8.06073 23.0963 8.29453 23.0487C8.56085 22.9843 8.83093 23.0275 9.08873 23.1759C9.19001 23.3799 9.27241 23.5435 9.36441 23.7303C9.48485 23.5087 9.60729 23.2863 9.73505 23.0543H11.1223C11.2471 23.2883 11.3732 23.5251 11.4887 23.7403H12.5265C12.6668 23.4903 12.7939 23.2623 12.912 23.0471C13.0404 23.0735 13.1523 23.0979 13.2652 23.1131C13.5233 23.5539 13.7046 24.1779 14.0356 24.4531C14.1513 24.4655 14.2673 24.4655 14.383 24.4531C14.6095 24.4047 14.8385 24.4527 15.0548 24.5943C15.261 25.0091 15.4665 25.4203 15.6793 25.8455H16.364C16.4938 26.0903 16.6192 26.3243 16.7476 26.5635H17.0822C17.2146 26.8111 17.3416 27.0427 17.4714 27.2843H18.8944C18.9459 27.5175 19.0324 27.7131 19.1419 27.8443C19.2514 27.9755 19.3786 28.0359 19.5059 28.0171C19.7286 28.3987 19.9031 28.6991 20.0758 28.9947C19.768 29.6139 19.4801 30.1895 19.1899 30.7703H18.8368C18.6766 31.1003 18.5142 31.4303 18.345 31.7755C18.3358 31.8619 18.3225 31.9703 18.312 32.0779C18.2481 32.8091 18.2295 32.8595 17.9085 32.8759C17.7397 32.8811 17.5696 32.8759 17.4416 32.8759C17.1401 33.3847 16.9617 34.0139 16.6271 34.2779H16.1032C16.0521 34.3143 16.004 34.3659 15.9606 34.4311C15.5876 35.1679 15.2177 35.9111 14.8066 36.7343V38.7191C14.8066 39.0683 14.8066 39.4187 14.8066 39.7679C14.8066 40.3747 14.7385 40.5603 14.4317 40.5603C14.3817 40.5667 14.3232 40.5615 14.2566 40.5523ZM35.9803 23.7403C35.7423 23.2123 35.4706 22.6075 35.1602 21.9163C35.1566 21.8411 35.146 21.6155 35.1341 21.3519C35.0298 21.1231 34.9157 20.8671 34.7902 20.5903V17.1123C34.9024 16.8693 35.0192 16.6146 35.141 16.3532V15.697C35.2652 15.4219 35.3798 15.1694 35.4849 14.9392C35.4968 14.6752 35.5074 14.4488 35.516 14.2237C35.7232 13.8091 35.9293 13.3947 36.1418 12.9696C36.2132 12.5795 36.1537 12.0657 36.3827 11.7812C36.5591 11.5634 36.5386 11.2031 36.5366 10.7027C36.8036 10.2459 37.1108 9.71253 37.5118 9.02733C37.4255 9.06961 37.4788 9.03453 37.531 9.01605C37.9283 8.86225 37.9247 8.86245 37.9419 8.22413C37.9539 7.78585 37.8583 7.28517 38.1103 6.93005H38.7871C38.9195 6.68253 39.0439 6.44845 39.1731 6.20421H39.5111C39.6407 6.44581 39.7663 6.67921 39.8979 6.93005H40.5775C40.8055 7.45985 41.0679 7.92617 41.3579 8.31633C41.4139 8.31633 41.4715 8.31633 41.5287 8.31633C41.8159 8.30377 42.1043 8.28985 42.2811 8.93741C42.4231 8.93209 42.5635 8.99949 42.6891 9.13305C42.8143 9.26665 42.9207 9.46209 42.9975 9.70065H44.4127C44.7771 10.4268 45.1411 11.153 45.4991 11.8685H46.1731C46.3387 12.1438 46.4711 12.359 46.5767 12.5287C46.7907 12.5287 46.9663 12.5173 47.1415 12.5338C47.1919 12.5371 47.2687 12.582 47.2855 12.6579C47.4895 13.4586 48.0775 13.0314 48.2655 13.8869C48.2775 13.9417 48.3731 13.9417 48.4259 13.9278C48.4671 13.9072 48.5099 13.9045 48.5519 13.9194C48.5939 13.9343 48.6335 13.9668 48.6687 14.0145C48.7039 14.0623 48.7335 14.1241 48.7559 14.1963C48.7783 14.2685 48.7927 14.3494 48.7983 14.4335C48.8207 14.6315 48.8095 14.982 48.7471 15.0685C48.4771 15.4315 48.4823 16.0258 48.3783 16.5308C48.3599 16.6199 48.2935 16.6719 48.2351 16.757H47.5679C47.2279 17.4409 46.8971 18.1017 46.5607 18.7764C46.2175 18.8617 45.8715 18.8839 45.5263 18.8424C45.1387 18.7868 44.7491 18.8261 44.3663 18.9598L44.0835 19.5241H43.0515L42.6659 20.2503H39.5251C39.3967 20.4919 39.2703 20.7255 39.1499 20.9487C39.0259 20.9659 38.9119 20.9759 38.7987 20.9915C38.5391 21.4411 38.3523 22.0579 38.0283 22.3475C37.9235 22.4191 37.8147 22.4631 37.7041 22.4795C37.4973 22.8927 37.2921 23.3079 37.0754 23.7435L35.9803 23.7403ZM15.7366 14.0367C15.534 13.6334 15.3325 13.2294 15.1409 12.8419V10.7382C14.7928 10.0385 14.4631 9.37997 14.121 8.69213V7.33617C13.9998 7.07213 13.8844 6.82001 13.7616 6.55133V3.55445C13.9589 3.54661 14.1522 3.44233 14.3246 3.25085C14.497 3.05937 14.6432 2.78645 14.7504 2.45601C14.8292 1.93453 14.8772 1.62753 14.9235 1.31793H16.3538C16.4842 1.07633 16.6102 0.842731 16.743 0.599812H17.7828C17.9056 0.831532 18.0316 1.06197 18.1646 1.31085H19.1856C19.3239 1.55837 19.4503 1.78869 19.5854 2.02897H20.2383C20.3948 2.29301 20.5219 2.51085 20.6338 2.70161C20.838 2.70161 21.0137 2.69569 21.1881 2.70161C21.2414 2.71949 21.2934 2.75125 21.3426 2.79605C21.3808 2.88457 21.4225 2.96673 21.4674 3.04165C21.5554 3.17037 21.6497 3.28321 21.7417 3.40137C22.3321 3.36969 22.3374 3.36973 22.6952 4.10113H23.1694C24.101 4.10113 25.0329 4.09241 25.9645 4.10561C26.0722 4.13389 26.178 4.18601 26.2799 4.26129C26.3629 4.42829 26.4454 4.59133 26.5274 4.75637C27.139 4.88841 27.2224 5.20745 26.9037 6.20421H26.2127C25.9059 6.48409 26.1465 7.34549 25.8156 7.62141H25.0984C25.0481 7.91581 24.9972 8.22329 24.9402 8.56257C25.0872 8.92597 25.2528 9.25781 25.4344 9.55273C25.6635 9.77525 25.9041 9.94805 26.1518 10.0678C25.811 10.6091 25.5399 11.0387 25.3053 11.407V12.8658C25.1173 13.2651 24.9578 13.605 24.8089 13.9278H22.0025C21.8722 14.1694 21.7467 14.4046 21.6385 14.6079H20.5994C20.4541 14.3524 20.327 14.1271 20.23 13.9575H16.7254C16.4703 14.4281 16.3303 14.6591 16.1976 14.6591C16.0672 14.6664 15.9451 14.454 15.7362 14.0355L15.7366 14.0367ZM59.1371 5.50961H58.6767V5.50381C58.6939 5.17561 58.6663 4.84421 58.5975 4.54429C58.5283 4.24437 58.4203 3.98693 58.2843 3.79877V2.36769C58.3719 2.17497 58.4831 1.92189 58.6111 1.63605V-1.14743C58.8911 -1.70983 59.1695 -2.30259 59.4715 -2.83991C59.5375 -2.96267 59.6891 -2.89803 59.8875 -2.93435C60.1071 -3.44395 60.3703 -4.06123 60.6927 -4.81375C60.6367 -5.23623 60.8231 -5.65067 61.0479 -6.01371C61.0555 -6.13715 61.0651 -6.24543 61.0731 -6.35763C61.1087 -6.88571 61.1751 -7.11091 61.3135 -7.12411C61.5403 -7.14655 61.7667 -7.14363 61.9167 -7.14891C62.1483 -7.56347 62.3195 -7.86999 62.4623 -8.12875C62.4955 -8.54195 62.4151 -8.92731 62.6363 -9.17947C62.7459 -8.99399 62.8659 -8.78927 62.9899 -8.57871C63.3127 -8.79651 63.0563 -9.66599 63.3507 -9.93595H63.6987C63.7571 -9.75311 63.8783 -9.54835 63.8643 -9.39123C63.7983 -8.62355 64.3483 -8.37023 64.2251 -7.58275C64.3367 -7.32399 64.4467 -7.06659 64.5595 -6.81047C64.5987 -6.72531 64.6347 -6.60375 64.6843 -6.56875C64.9411 -6.38523 65.2399 -6.38063 65.4067 -5.82615C65.4263 -5.78875 65.4499 -5.76095 65.4759 -5.74459C65.5015 -5.72823 65.5291 -5.72371 65.5559 -5.73171C65.8343 -5.81423 65.9591 -5.38531 66.1379 -5.05195H66.8095C66.9419 -4.81167 67.0699 -4.58403 67.2087 -4.33255H69.2843L69.6651 -3.61667H71.0523C71.1807 -3.37771 71.3059 -3.14147 71.4359 -2.89855H72.1663C72.2139 -2.59755 72.2639 -2.29187 72.2967 -2.08987C71.9767 -1.44563 71.6915 -0.876829 71.3179 -0.128908C71.1323 -0.0603485 70.9427 -0.0499477 70.7555 -0.0979881C70.4843 -0.168348 70.2091 -0.129108 69.9459 0.0170918C69.8547 0.199251 69.7723 0.363611 69.6895 0.52729C69.5775 0.54973 69.4655 0.583891 69.3535 0.58917C69.2515 0.593811 69.1495 0.593132 69.0475 0.58917C68.9751 0.58917 68.9023 0.58917 68.8295 0.58917C68.6007 0.593811 68.4243 0.800451 68.4711 1.01369C68.4923 1.12513 68.5343 1.21597 68.5883 1.26701C68.6423 1.31805 68.7043 1.32541 68.7607 1.28765C68.8167 1.24897 68.8771 1.24973 68.9327 1.28989C68.9879 1.33005 69.0347 1.40717 69.0651 1.50809C69.1175 1.67049 69.0719 1.81785 68.9551 2.00993C68.8211 2.22185 68.7035 2.47193 68.5751 2.71549H67.2091C67.0623 2.97225 66.9347 3.19881 66.8051 3.42521H61.5839C61.3647 3.86353 61.1587 4.27457 60.9475 4.69901C60.7575 4.87129 60.5111 4.74273 60.3519 5.17377C60.2011 5.52833 60.0379 5.86049 59.8631 6.16777C59.7491 6.18361 59.6355 6.19553 59.5127 6.20873C59.3903 5.98077 59.2651 5.74729 59.1367 5.50833L59.1371 5.50961ZM32.5395 -6.42823C32.1044 -7.27247 31.688 -8.07839 31.277 -8.87843V-10.2741C31.1529 -10.5467 31.0387 -10.802 30.9438 -11.0067V-12.4094C31.1052 -12.7724 31.2989 -13.0099 31.2896 -13.5716C31.2803 -14.1334 31.6758 -14.3337 31.6477 -15.0314C31.6298 -15.4809 31.9124 -15.7311 32.0666 -16.0651C32.2652 -16.4895 32.4998 -16.8569 32.6749 -17.3131C32.8404 -17.7428 33.0975 -17.5362 33.2782 -17.7943C33.3818 -17.9421 33.3818 -18.1463 33.3894 -18.4038C33.4049 -18.9813 33.4224 -18.9857 33.8811 -19.0597C33.9953 -19.2656 34.1214 -19.4908 34.2637 -19.7436H34.9527C35.0656 -19.5317 35.1903 -19.2981 35.3167 -19.0552H36.3539C36.4823 -19.2981 36.6091 -19.5344 36.7275 -19.7568H43.3643L43.7467 -19.0432H46.5195C46.6599 -18.7911 46.7871 -18.5654 46.9207 -18.3232H47.5731C47.7295 -18.0591 47.8571 -17.8392 47.9591 -17.6682C48.0591 -17.6391 48.1607 -17.6353 48.2615 -17.657C48.4643 -17.682 48.6555 -17.708 48.8015 -17.304V-16.3655C48.6339 -16.4003 48.4647 -16.3423 48.3127 -16.1979C48.1607 -16.0534 48.0315 -15.8281 47.9395 -15.5468C47.6203 -15.5468 47.2743 -15.5763 46.9319 -15.5255C46.8803 -15.4971 46.8331 -15.4434 46.7943 -15.3692C46.7555 -15.2949 46.7271 -15.2027 46.7111 -15.1007C46.6931 -14.6576 46.6899 -14.2125 46.7015 -13.7686C46.5835 -13.6273 46.4851 -13.4285 46.4155 -13.191C46.3463 -12.9535 46.3079 -12.6849 46.3047 -12.41C46.1243 -11.9902 45.9735 -11.6383 45.8471 -11.3399C45.6855 -11.3241 45.5715 -11.315 45.4687 -11.3077C45.3363 -11.0648 45.2083 -10.8395 45.0731 -10.5993H44.4251C44.2663 -10.3352 44.1379 -10.1189 44.0279 -9.93339C43.3551 -9.93339 42.7151 -9.93347 42.0755 -9.92951C42.0219 -9.91319 41.9699 -9.88135 41.9211 -9.83507C41.8387 -9.67135 41.7555 -9.50475 41.6231 -9.24071C41.4127 -9.21503 41.2015 -9.21235 40.9911 -9.23235C40.7251 -9.26279 40.4587 -9.24807 40.1943 -9.18819L39.8659 -8.52807C38.3983 -8.52807 36.8907 -8.53403 35.3833 -8.52807C35.3343 -8.52807 35.2863 -8.43751 35.2423 -8.39595C35.1099 -8.18271 35.0305 -7.79079 34.8303 -7.83899C34.5447 -7.90963 34.4424 -7.43291 34.2604 -7.14183H33.9294C33.7991 -6.90023 33.673 -6.66247 33.5489 -6.43207L32.5395 -6.42823Z" fill="#008060" fill-opacity="0.2"/>
<path d="M22.6414 33.2246C22.6414 34.3867 22.6551 35.4053 22.6824 36.2803C22.7235 37.1416 22.7645 37.8867 22.8055 38.5156C22.8602 39.1445 22.9217 39.6709 22.9901 40.0947C23.0721 40.5186 23.1541 40.874 23.2362 41.1611V41.2432H18.3143V41.1611C18.3963 40.874 18.4715 40.5186 18.5399 40.0947C18.6219 39.6709 18.6903 39.1445 18.7449 38.5156C18.7996 37.8867 18.8406 37.1416 18.868 36.2803C18.8953 35.4053 18.909 34.3867 18.909 33.2246V19.874C18.909 18.7119 18.8953 17.7002 18.868 16.8389C18.8406 15.9639 18.7996 15.2119 18.7449 14.583C18.6903 13.9404 18.6219 13.4072 18.5399 12.9834C18.4715 12.5596 18.3963 12.2041 18.3143 11.917V11.835C19.449 11.835 20.5975 11.835 21.7596 11.835C22.9217 11.8213 24.0496 11.8145 25.1434 11.8145C26.2371 11.8008 27.2762 11.7871 28.2606 11.7734C29.2449 11.7461 30.1336 11.7256 30.9266 11.7119C31.7196 11.6846 32.3895 11.6572 32.9363 11.6299C33.4832 11.5889 33.8729 11.5479 34.1053 11.5068L33.1004 14.2344C32.6492 14.1113 32.1229 14.002 31.5213 13.9062C31.0018 13.8242 30.366 13.749 29.6141 13.6807C28.8758 13.5986 28.0213 13.5576 27.0506 13.5576C26.7225 13.5576 26.3123 13.5713 25.8201 13.5986C25.328 13.6123 24.8426 13.6328 24.3641 13.6602C23.8172 13.6875 23.243 13.7148 22.6414 13.7422V24.0986C24.0496 24.085 25.3416 24.0439 26.5174 23.9756C27.6932 23.9072 28.7049 23.8389 29.5526 23.7705C30.5369 23.6885 31.4256 23.5928 32.2186 23.4834L31.6033 26.457C30.578 26.334 29.5389 26.2178 28.4862 26.1084C27.5838 26.0127 26.6131 25.9307 25.574 25.8623C24.535 25.7803 23.5574 25.7393 22.6414 25.7393V33.2246ZM40.3987 41.1611C40.4808 40.874 40.556 40.5186 40.6243 40.0947C40.7064 39.6709 40.7747 39.1445 40.8294 38.5156C40.8841 37.8867 40.9251 37.1416 40.9524 36.2803C40.9798 35.4053 40.9935 34.3867 40.9935 33.2246V19.874C40.9935 18.7119 40.9798 17.7002 40.9524 16.8389C40.9251 15.9639 40.8841 15.2119 40.8294 14.583C40.7747 13.9404 40.7064 13.4072 40.6243 12.9834C40.556 12.5596 40.4808 12.2041 40.3987 11.917V11.835H45.3206V11.917C45.2386 12.2041 45.1565 12.5596 45.0745 12.9834C45.0062 13.4072 44.9446 13.9404 44.8899 14.583C44.8489 15.2119 44.8079 15.9639 44.7669 16.8389C44.7396 17.7002 44.7259 18.7119 44.7259 19.874V24.4473L56.7024 14.665C58.0423 13.5713 58.7122 12.6279 58.7122 11.835H64.4749V11.917C63.6683 12.1084 62.848 12.4775 62.014 13.0244C61.1937 13.5576 60.3187 14.2139 59.389 14.9932L48.8069 23.8525L61.5423 37.8389C62.0755 38.3857 62.5267 38.8438 62.8958 39.2129C63.2786 39.5684 63.6136 39.8691 63.9007 40.1152C64.1878 40.3477 64.4476 40.5459 64.68 40.71C64.9261 40.8604 65.179 41.0107 65.4388 41.1611V41.2432H59.43C59.3753 41.1201 59.2796 40.9629 59.1429 40.7715C59.0198 40.5801 58.8694 40.3818 58.6917 40.1768C58.5276 39.9717 58.3431 39.7598 58.138 39.541C57.9466 39.3223 57.762 39.1172 57.5843 38.9258L44.7259 24.8164V33.2246C44.7259 34.3867 44.7396 35.4053 44.7669 36.2803C44.8079 37.1416 44.8489 37.8867 44.8899 38.5156C44.9446 39.1445 45.0062 39.6709 45.0745 40.0947C45.1565 40.5186 45.2386 40.874 45.3206 41.1611V41.2432H40.3987V41.1611Z" fill="white"/>
<path d="M28.6885 53.6436H28.4952C28.4483 53.5088 28.3721 53.3564 28.2667 53.1865C28.1671 53.0166 28.0323 52.8584 27.8624 52.7119C27.6983 52.5596 27.4962 52.4336 27.2559 52.334C27.0215 52.2344 26.7432 52.1846 26.421 52.1846C26.1339 52.1846 25.879 52.2285 25.6563 52.3164C25.4337 52.4043 25.2462 52.5273 25.0938 52.6855C24.9473 52.8438 24.836 53.0312 24.7598 53.248C24.6837 53.4648 24.6456 53.7051 24.6456 53.9688C24.6456 54.3906 24.7628 54.7949 24.9971 55.1816C25.2374 55.5625 25.5362 55.9404 25.8936 56.3154C26.251 56.6904 26.6378 57.0654 27.0538 57.4404C27.4698 57.8154 27.8565 58.2051 28.2139 58.6094C28.5714 59.0137 28.8672 59.4385 29.1016 59.8838C29.3419 60.3232 29.462 60.7979 29.462 61.3076C29.462 61.6885 29.3946 62.0723 29.2598 62.459C29.1309 62.8398 28.9288 63.1826 28.6534 63.4873C28.378 63.792 28.0235 64.041 27.5899 64.2344C27.1563 64.4219 26.6407 64.5156 26.043 64.5156C25.709 64.5156 25.3897 64.4834 25.085 64.4189C24.7862 64.3604 24.5079 64.2871 24.2501 64.1992C23.9981 64.1055 23.7696 64.0059 23.5645 63.9004C23.3653 63.7949 23.2012 63.6982 23.0723 63.6104L23.2745 61.668H23.4942C23.5587 61.9434 23.6641 62.207 23.8106 62.459C23.9571 62.7051 24.1358 62.9248 24.3467 63.1182C24.5635 63.3057 24.8096 63.458 25.085 63.5752C25.3604 63.6865 25.6622 63.7422 25.9903 63.7422C26.2891 63.7422 26.5557 63.6982 26.7901 63.6104C27.0303 63.5166 27.2354 63.3906 27.4053 63.2324C27.5753 63.0684 27.7042 62.875 27.7921 62.6523C27.8858 62.4297 27.9327 62.1865 27.9327 61.9229C27.9327 61.5537 27.8653 61.2139 27.7305 60.9033C27.5958 60.5869 27.4171 60.2881 27.1944 60.0068C26.9776 59.7256 26.7286 59.4531 26.4473 59.1895C26.1719 58.9258 25.8878 58.6621 25.5948 58.3984C25.3018 58.1289 25.0147 57.8535 24.7335 57.5723C24.4581 57.291 24.209 56.9922 23.9864 56.6758C23.7696 56.3535 23.5938 56.0107 23.459 55.6475C23.3243 55.2783 23.2569 54.874 23.2569 54.4346C23.2569 53.9717 23.3448 53.5557 23.5206 53.1865C23.7022 52.8115 23.9395 52.4922 24.2325 52.2285C24.5313 51.9648 24.8682 51.7627 25.2432 51.6221C25.6182 51.4814 26.0049 51.4111 26.4034 51.4111C26.6964 51.4111 26.9659 51.4346 27.212 51.4814C27.4581 51.5283 27.6778 51.584 27.8712 51.6484C28.0704 51.7129 28.2432 51.7773 28.3897 51.8418C28.5362 51.9062 28.6563 51.959 28.7501 52L28.6885 53.6436ZM31.2637 63.4697C31.2637 63.3408 31.2872 63.2207 31.334 63.1094C31.3868 62.9922 31.4542 62.8926 31.5362 62.8105C31.6241 62.7227 31.7237 62.6553 31.835 62.6084C31.9522 62.5557 32.0753 62.5293 32.2042 62.5293C32.3389 62.5293 32.462 62.5557 32.5733 62.6084C32.6905 62.6553 32.7901 62.7227 32.8721 62.8105C32.96 62.8926 33.0274 62.9922 33.0743 63.1094C33.127 63.2207 33.1534 63.3408 33.1534 63.4697C33.1534 63.7393 33.0626 63.9648 32.8809 64.1465C32.6993 64.3281 32.4737 64.4189 32.2042 64.4189C32.0753 64.4189 31.9522 64.3926 31.835 64.3398C31.7237 64.293 31.6241 64.2285 31.5362 64.1465C31.4542 64.0586 31.3868 63.959 31.334 63.8477C31.2872 63.7305 31.2637 63.6045 31.2637 63.4697ZM40.5714 53.6436H40.378C40.3311 53.5088 40.2549 53.3564 40.1495 53.1865C40.0499 53.0166 39.9151 52.8584 39.7452 52.7119C39.5811 52.5596 39.379 52.4336 39.1387 52.334C38.9044 52.2344 38.626 52.1846 38.3038 52.1846C38.0167 52.1846 37.7618 52.2285 37.5391 52.3164C37.3165 52.4043 37.129 52.5273 36.9766 52.6855C36.8301 52.8438 36.7188 53.0312 36.6426 53.248C36.5665 53.4648 36.5284 53.7051 36.5284 53.9688C36.5284 54.3906 36.6456 54.7949 36.8799 55.1816C37.1202 55.5625 37.419 55.9404 37.7764 56.3154C38.1339 56.6904 38.5206 57.0654 38.9366 57.4404C39.3526 57.8154 39.7393 58.2051 40.0967 58.6094C40.4542 59.0137 40.7501 59.4385 40.9844 59.8838C41.2247 60.3232 41.3448 60.7979 41.3448 61.3076C41.3448 61.6885 41.2774 62.0723 41.1426 62.459C41.0137 62.8398 40.8116 63.1826 40.5362 63.4873C40.2608 63.792 39.9063 64.041 39.4727 64.2344C39.0391 64.4219 38.5235 64.5156 37.9258 64.5156C37.5919 64.5156 37.2725 64.4834 36.9678 64.4189C36.669 64.3604 36.3907 64.2871 36.1329 64.1992C35.8809 64.1055 35.6524 64.0059 35.4473 63.9004C35.2481 63.7949 35.084 63.6982 34.9551 63.6104L35.1573 61.668H35.377C35.4415 61.9434 35.5469 62.207 35.6934 62.459C35.8399 62.7051 36.0186 62.9248 36.2296 63.1182C36.4464 63.3057 36.6924 63.458 36.9678 63.5752C37.2432 63.6865 37.545 63.7422 37.8731 63.7422C38.1719 63.7422 38.4385 63.6982 38.6729 63.6104C38.9131 63.5166 39.1182 63.3906 39.2881 63.2324C39.4581 63.0684 39.587 62.875 39.6749 62.6523C39.7686 62.4297 39.8155 62.1865 39.8155 61.9229C39.8155 61.5537 39.7481 61.2139 39.6133 60.9033C39.4786 60.5869 39.2999 60.2881 39.0772 60.0068C38.8604 59.7256 38.6114 59.4531 38.3301 59.1895C38.0547 58.9258 37.7706 58.6621 37.4776 58.3984C37.1846 58.1289 36.8975 57.8535 36.6163 57.5723C36.3409 57.291 36.0919 56.9922 35.8692 56.6758C35.6524 56.3535 35.4766 56.0107 35.3419 55.6475C35.2071 55.2783 35.1397 54.874 35.1397 54.4346C35.1397 53.9717 35.2276 53.5557 35.4034 53.1865C35.585 52.8115 35.8223 52.4922 36.1153 52.2285C36.4141 51.9648 36.751 51.7627 37.126 51.6221C37.501 51.4814 37.8878 51.4111 38.2862 51.4111C38.5792 51.4111 38.8487 51.4346 39.0948 51.4814C39.3409 51.5283 39.5606 51.584 39.754 51.6484C39.9532 51.7129 40.126 51.7773 40.2725 51.8418C40.419 51.9062 40.5391 51.959 40.6329 52L40.5714 53.6436ZM43.1465 63.4697C43.1465 63.3408 43.17 63.2207 43.2169 63.1094C43.2696 62.9922 43.337 62.8926 43.419 62.8105C43.5069 62.7227 43.6065 62.6553 43.7178 62.6084C43.835 62.5557 43.9581 62.5293 44.087 62.5293C44.2217 62.5293 44.3448 62.5557 44.4561 62.6084C44.5733 62.6553 44.6729 62.7227 44.7549 62.8105C44.8428 62.8926 44.9102 62.9922 44.9571 63.1094C45.0098 63.2207 45.0362 63.3408 45.0362 63.4697C45.0362 63.7393 44.9454 63.9648 44.7637 64.1465C44.5821 64.3281 44.3565 64.4189 44.087 64.4189C43.9581 64.4189 43.835 64.3926 43.7178 64.3398C43.6065 64.293 43.5069 64.2285 43.419 64.1465C43.337 64.0586 43.2696 63.959 43.2169 63.8477C43.17 63.7305 43.1465 63.6045 43.1465 63.4697ZM52.4542 53.6436H52.2608C52.2139 53.5088 52.1378 53.3564 52.0323 53.1865C51.9327 53.0166 51.7979 52.8584 51.628 52.7119C51.4639 52.5596 51.2618 52.4336 51.0215 52.334C50.7872 52.2344 50.5089 52.1846 50.1866 52.1846C49.8995 52.1846 49.6446 52.2285 49.4219 52.3164C49.1993 52.4043 49.0118 52.5273 48.8594 52.6855C48.713 52.8438 48.6016 53.0312 48.5255 53.248C48.4493 53.4648 48.4112 53.7051 48.4112 53.9688C48.4112 54.3906 48.5284 54.7949 48.7628 55.1816C49.003 55.5625 49.3018 55.9404 49.6592 56.3154C50.0167 56.6904 50.4034 57.0654 50.8194 57.4404C51.2354 57.8154 51.6221 58.2051 51.9796 58.6094C52.337 59.0137 52.6329 59.4385 52.8672 59.8838C53.1075 60.3232 53.2276 60.7979 53.2276 61.3076C53.2276 61.6885 53.1602 62.0723 53.0255 62.459C52.8965 62.8398 52.6944 63.1826 52.419 63.4873C52.1436 63.792 51.7891 64.041 51.3555 64.2344C50.9219 64.4219 50.4063 64.5156 49.8087 64.5156C49.4747 64.5156 49.1553 64.4834 48.8506 64.4189C48.5518 64.3604 48.2735 64.2871 48.0157 64.1992C47.7637 64.1055 47.5352 64.0059 47.3301 63.9004C47.1309 63.7949 46.9669 63.6982 46.838 63.6104L47.0401 61.668H47.2598C47.3243 61.9434 47.4297 62.207 47.5762 62.459C47.7227 62.7051 47.9014 62.9248 48.1124 63.1182C48.3292 63.3057 48.5753 63.458 48.8506 63.5752C49.126 63.6865 49.4278 63.7422 49.7559 63.7422C50.0547 63.7422 50.3214 63.6982 50.5557 63.6104C50.796 63.5166 51.001 63.3906 51.171 63.2324C51.3409 63.0684 51.4698 62.875 51.5577 62.6523C51.6514 62.4297 51.6983 62.1865 51.6983 61.9229C51.6983 61.5537 51.6309 61.2139 51.4962 60.9033C51.3614 60.5869 51.1827 60.2881 50.96 60.0068C50.7432 59.7256 50.4942 59.4531 50.213 59.1895C49.9376 58.9258 49.6534 58.6621 49.3604 58.3984C49.0674 58.1289 48.7803 57.8535 48.4991 57.5723C48.2237 57.291 47.9747 56.9922 47.752 56.6758C47.5352 56.3535 47.3594 56.0107 47.2247 55.6475C47.0899 55.2783 47.0225 54.874 47.0225 54.4346C47.0225 53.9717 47.1104 53.5557 47.2862 53.1865C47.4678 52.8115 47.7051 52.4922 47.9981 52.2285C48.2969 51.9648 48.6339 51.7627 49.0089 51.6221C49.3839 51.4814 49.7706 51.4111 50.169 51.4111C50.462 51.4111 50.7315 51.4346 50.9776 51.4814C51.2237 51.5283 51.4434 51.584 51.6368 51.6484C51.836 51.7129 52.0089 51.7773 52.1553 51.8418C52.3018 51.9062 52.4219 51.959 52.5157 52L52.4542 53.6436ZM55.0294 63.4697C55.0294 63.3408 55.0528 63.2207 55.0997 63.1094C55.1524 62.9922 55.2198 62.8926 55.3018 62.8105C55.3897 62.7227 55.4893 62.6553 55.6006 62.6084C55.7178 62.5557 55.8409 62.5293 55.9698 62.5293C56.1046 62.5293 56.2276 62.5557 56.3389 62.6084C56.4561 62.6553 56.5557 62.7227 56.6378 62.8105C56.7256 62.8926 56.793 62.9922 56.8399 63.1094C56.8926 63.2207 56.919 63.3408 56.919 63.4697C56.919 63.7393 56.8282 63.9648 56.6465 64.1465C56.4649 64.3281 56.2393 64.4189 55.9698 64.4189C55.8409 64.4189 55.7178 64.3926 55.6006 64.3398C55.4893 64.293 55.3897 64.2285 55.3018 64.1465C55.2198 64.0586 55.1524 63.959 55.0997 63.8477C55.0528 63.7305 55.0294 63.6045 55.0294 63.4697Z" fill="white"/>
</g>
<line x1="88.4999" y1="39.9644" x2="1240.5" y2="39.522" stroke="#1C5540" stroke-linecap="square"/>
<path d="M1266 1.1875L1252.78 20.0764H1258.44V23.8542H1273.56V20.0764H1279.22L1266 1.1875ZM1258.44 29.5208H1273.56V25.7431H1258.44V29.5208ZM1258.44 33.2986H1273.56V31.4097H1258.44V33.2986Z" fill="url(#paint0_linear_109_2702)"/>
<path d="M1266 79.2988L1279.22 60.4099H1273.56V56.6322H1258.44V60.4099H1252.78L1266 79.2988ZM1273.56 50.9655H1258.44V54.7433H1273.56V50.9655ZM1273.56 47.1877H1258.44V49.0766H1273.56V47.1877Z" fill="url(#paint1_linear_109_2702)"/>
<defs>
<linearGradient id="paint0_linear_109_2702" x1="1266" y1="1.1875" x2="1266" y2="33.2986" gradientUnits="userSpaceOnUse">
<stop stop-color="#CED4DA"/>
<stop offset="1" stop-color="#007356"/>
</linearGradient>
<linearGradient id="paint1_linear_109_2702" x1="1266" y1="79.2988" x2="1266" y2="47.1877" gradientUnits="userSpaceOnUse">
<stop stop-color="#CED4DA"/>
<stop offset="1" stop-color="#007356"/>
</linearGradient>
<clipPath id="clip0_109_2702">
<rect width="80" height="80" fill="white" transform="translate(6.10352e-05 0.243164)"/>
</clipPath>
</defs>
</svg>
