<svg width="32" height="33" viewBox="0 0 32 33" fill="none" xmlns="http://www.w3.org/2000/svg">
<path d="M1.25 31.2676L3.3375 23.6551C2.05 21.4301 1.375 18.8926 1.375 16.3176C1.375 8.23008 7.9625 1.64258 16.0625 1.64258C19.9875 1.64258 23.675 3.16758 26.45 5.94258C29.2125 8.69258 30.7625 12.4301 30.75 16.3301C30.75 24.4301 24.1625 31.0176 16.0625 31.0176C13.6 31.0176 11.1875 30.4051 9.0375 29.2301L1.25 31.2676Z" fill="#1C5540"/>
<path d="M12.3875 10.18C12.0875 9.46748 11.7875 9.56748 11.5625 9.55498C11.35 9.54248 11.1 9.54248 10.8625 9.54248C10.6125 9.54248 10.225 9.62998 9.88751 10.005C9.55001 10.3675 8.60001 11.255 8.60001 13.0675C8.60001 14.88 9.91251 16.6175 10.1 16.8675C10.2875 17.1175 12.6875 20.8175 16.375 22.405C17.25 22.78 17.9375 23.005 18.4625 23.18C19.3375 23.455 20.1375 23.4175 20.775 23.33C21.475 23.23 22.95 22.4425 23.25 21.58C23.55 20.7175 23.55 19.9925 23.4625 19.83C23.375 19.68 23.125 19.58 22.7625 19.405C22.4 19.2175 20.5875 18.33 20.25 18.2175C19.9125 18.0925 19.675 18.03 19.425 18.405C19.175 18.7675 18.475 19.605 18.2625 19.8425C18.05 20.0925 17.8375 20.1175 17.4625 19.93C17.1 19.7425 15.9125 19.355 14.5125 18.105C13.425 17.13 12.6875 15.93 12.475 15.5675C12.2625 15.205 12.45 15.005 12.6375 14.8175C12.8 14.655 13 14.3925 13.1875 14.18C13.375 13.9675 13.4375 13.8175 13.55 13.5675C13.675 13.3175 13.6125 13.105 13.525 12.93C13.425 12.73 12.7 10.9175 12.3875 10.18Z" fill="white"/>
</svg>
