<svg width="129" height="26" viewBox="0 0 129 26" fill="none" xmlns="http://www.w3.org/2000/svg">
<g clip-path="url(#clip0_670_36)">
<path fill-rule="evenodd" clip-rule="evenodd" d="M39.3866 0H4.09408C1.86059 0 0.0525379 1.82578 0.0701347 4.04154V17.5133C0.0701347 19.7468 1.87832 21.5549 4.11181 21.5549H20.8274L28.4674 25.8091L26.7303 21.5549H39.3866C41.6202 21.5549 43.4282 19.7468 43.4282 17.5133V4.04154C43.4282 1.80805 41.6202 0 39.3866 0ZM3.34966 3.11978C2.85333 3.15523 2.48108 3.3325 2.23292 3.66928C1.98475 3.98836 1.89613 4.39605 1.9493 4.85693C2.99514 11.5043 3.97007 15.9889 4.8741 18.311C5.22863 19.1618 5.63632 19.5696 6.11493 19.5342C6.85941 19.4809 7.74572 18.4528 8.79156 16.4498C9.34106 15.3153 10.1919 13.6136 11.3441 11.3447C12.3013 14.6949 13.613 17.212 15.2616 18.896C15.7225 19.3746 16.2011 19.5873 16.6619 19.5518C17.0697 19.5164 17.3886 19.3036 17.6014 18.9136C17.7787 18.5769 17.8496 18.1869 17.8141 17.7437C17.7077 16.1307 17.8673 13.8795 18.3105 10.9901C18.7713 8.01218 19.3386 5.86732 20.0299 4.59104C20.1717 4.32515 20.2248 4.05925 20.2071 3.74019C20.1717 3.33249 19.9944 2.9957 19.6576 2.72981C19.3209 2.46392 18.9485 2.33984 18.5409 2.37528C18.0268 2.41074 17.6368 2.6589 17.371 3.15523C16.272 5.15828 15.492 8.40215 15.0312 12.9046C14.3575 11.2029 13.7903 9.19981 13.3471 6.84225C13.1522 5.79642 12.6736 5.30008 11.8936 5.35327C11.3618 5.38871 10.9187 5.74324 10.5642 6.41682L6.68216 13.8086C6.04402 11.2383 5.44133 8.1008 4.89183 4.39605C4.76775 3.47431 4.25368 3.04887 3.34966 3.11978ZM37.5078 4.39611C38.7663 4.66201 39.7058 5.3356 40.3439 6.45233C40.9112 7.40955 41.1947 8.56174 41.1947 9.94437C41.1947 11.7701 40.7339 13.4364 39.8121 14.9608C38.7486 16.7335 37.3659 17.6197 35.6465 17.6197C35.3452 17.6197 35.0261 17.5843 34.6893 17.5133C33.4308 17.2475 32.4913 16.574 31.8531 15.4572C31.2859 14.4822 31.0023 13.3123 31.0023 11.9474C31.0023 10.1216 31.4632 8.45537 32.3849 6.94867C33.4662 5.17606 34.8489 4.28976 36.5506 4.28976C36.8519 4.28976 37.171 4.32521 37.5078 4.39611ZM36.7633 13.9859C37.4192 13.4009 37.8623 12.5323 38.1105 11.3624C38.1814 10.9548 38.2345 10.5116 38.2345 10.0507C38.2345 9.53667 38.1282 8.98716 37.9154 8.43765C37.6496 7.74633 37.295 7.37409 36.8696 7.28545C36.2315 7.16137 35.6111 7.5159 35.0261 8.38448C34.5476 9.05806 34.2461 9.7671 34.0866 10.4939C33.9979 10.9016 33.9625 11.3448 33.9625 11.7879C33.9625 12.3019 34.0689 12.8514 34.2816 13.4009C34.5476 14.0922 34.902 14.4645 35.3274 14.5531C35.7706 14.6417 36.2492 14.4468 36.7633 13.9859ZM29.2297 6.45233C28.5915 5.3356 27.6343 4.66201 26.3935 4.39611C26.0566 4.32521 25.7376 4.28976 25.4362 4.28976C23.7346 4.28976 22.352 5.17606 21.2707 6.94867C20.3488 8.45537 19.888 10.1216 19.888 11.9474C19.888 13.3123 20.1717 14.4822 20.7388 15.4572C21.377 16.574 22.3165 17.2475 23.575 17.5133C23.9118 17.5843 24.2309 17.6197 24.5323 17.6197C26.2517 17.6197 27.6343 16.7335 28.6978 14.9608C29.6197 13.4364 30.0805 11.7701 30.0805 9.94437C30.0805 8.56174 29.7968 7.40955 29.2297 6.45233ZM26.9961 11.3624C26.7481 12.5323 26.3048 13.4009 25.649 13.9859C25.1349 14.4468 24.6563 14.6417 24.2132 14.5531C23.7877 14.4645 23.4332 14.0922 23.1673 13.4009C22.9546 12.8514 22.8482 12.3019 22.8482 11.7879C22.8482 11.3448 22.8837 10.9016 22.9724 10.4939C23.1319 9.7671 23.4332 9.05806 23.9118 8.38448C24.4968 7.5159 25.1172 7.16137 25.7553 7.28545C26.1808 7.37409 26.5353 7.74633 26.8012 8.43765C27.0139 8.98716 27.1203 9.53667 27.1203 10.0507C27.1203 10.5116 27.0848 10.9548 26.9961 11.3624Z" fill="#7F54B3"/>
<path fill-rule="evenodd" clip-rule="evenodd" d="M47.9129 6.29273C46.7252 7.46265 46.1403 8.95163 46.1403 10.7597C46.1403 12.6918 46.7252 14.2694 47.8952 15.4571C49.0651 16.6448 50.5896 17.2474 52.4863 17.2474C53.0357 17.2474 53.6562 17.1588 54.3298 16.9638V14.0921C53.7094 14.2694 53.1776 14.3581 52.7167 14.3581C51.7772 14.3581 51.0327 14.039 50.4654 13.4186C49.8983 12.7804 49.6146 11.9296 49.6146 10.8483C49.6146 9.83794 49.8983 9.00482 50.4478 8.36667C51.0149 7.71081 51.7063 7.39174 52.5572 7.39174C53.1067 7.39174 53.6916 7.48037 54.3298 7.65763V4.78601C53.7448 4.62648 53.089 4.55557 52.3976 4.55557C50.5896 4.53784 49.1006 5.12281 47.9129 6.29273ZM60.2149 4.53784C58.584 4.53784 57.3078 5.08736 56.386 6.16864C55.4642 7.24994 55.0211 8.77438 55.0211 10.7242C55.0211 12.8337 55.4819 14.4467 56.386 15.5635C57.29 16.6802 58.6195 17.2474 60.3567 17.2474C62.0406 17.2474 63.3345 16.6802 64.2386 15.5635C65.1426 14.4467 65.6035 12.8691 65.6035 10.8483C65.6035 8.82755 65.1426 7.26766 64.2209 6.16864C63.2814 5.08736 61.9519 4.53784 60.2149 4.53784ZM61.6151 13.7554C61.2961 14.2518 60.8175 14.4999 60.2149 14.4999C59.6476 14.4999 59.2221 14.2518 58.9208 13.7554C58.6195 13.259 58.4777 12.2664 58.4777 10.7597C58.4777 8.43758 59.0626 7.28538 60.2503 7.28538C61.4911 7.28538 62.1292 8.45531 62.1292 10.8129C62.1115 12.2664 61.9342 13.259 61.6151 13.7554ZM74.3602 4.87464L73.722 7.58673C73.5625 8.27805 73.403 8.98709 73.2612 9.71386L72.9067 11.5929C72.5699 9.71386 72.109 7.48037 71.524 4.87464H67.4116L65.8694 16.9461H68.9537L69.7869 8.63256L71.8963 16.9461H74.0944L76.1151 8.65029L76.9836 16.9461H80.2098L78.579 4.87464H74.3602ZM89.126 4.87464L88.4879 7.58673C88.3283 8.27805 88.1688 8.98709 88.027 9.71386L87.6724 11.5929C87.3357 9.71386 86.8748 7.48037 86.2898 4.87464H82.1774L80.6353 16.9461H83.7195L84.5526 8.63256L86.662 16.9461H88.8601L90.8631 8.65029L91.7317 16.9461H94.9579L93.3271 4.87464H89.126ZM99.1589 12.1778H102.048V9.6784H99.1589V7.46264H102.491V4.89237H95.8974V16.9638H102.509V14.3936H99.1589V12.1778ZM111.691 10.2634C112.028 9.71386 112.205 9.14662 112.205 8.56166C112.205 7.4272 111.762 6.52317 110.876 5.8673C109.99 5.21144 108.766 4.87464 107.242 4.87464H103.449V16.9461H106.71V11.451H106.763L109.405 16.9461H112.843L110.238 11.5042C110.858 11.2206 111.354 10.8129 111.691 10.2634ZM106.693 10.0684V7.19675C107.472 7.21448 108.022 7.33856 108.359 7.58673C108.696 7.8349 108.855 8.22486 108.855 8.7921C108.855 9.62522 108.128 10.0507 106.693 10.0684ZM114.119 6.29273C112.932 7.46265 112.347 8.95163 112.347 10.7597C112.347 12.6918 112.932 14.2694 114.102 15.4571C115.272 16.6448 116.796 17.2474 118.693 17.2474C119.243 17.2474 119.863 17.1588 120.536 16.9638V14.0921C119.917 14.2694 119.384 14.3581 118.923 14.3581C117.984 14.3581 117.24 14.039 116.672 13.4186C116.105 12.7804 115.822 11.9296 115.822 10.8483C115.822 9.83794 116.105 9.00482 116.654 8.36667C117.222 7.71081 117.913 7.39174 118.764 7.39174C119.313 7.39174 119.899 7.48037 120.536 7.65763V4.78601C119.952 4.62648 119.296 4.55557 118.605 4.55557C116.814 4.53784 115.308 5.12281 114.119 6.29273ZM124.702 14.3581V12.16H127.591V9.66067H124.702V7.44493H128.052V4.87464H121.458V16.9461H128.07V14.3758H124.702V14.3581Z" fill="black"/>
</g>
<defs>
<clipPath id="clip0_670_36">
<rect width="128" height="26" fill="white" transform="translate(0.0700073)"/>
</clipPath>
</defs>
</svg>
