<svg width="32" height="32" viewBox="0 0 32 32" fill="none" xmlns="http://www.w3.org/2000/svg">
<rect width="32" height="32" rx="6" fill="#696A75"/>
<path d="M23.8952 12.6497C23.8952 11.2434 22.8608 10.1122 21.5827 10.1122C19.8514 10.0312 18.0858 10 16.2814 10H15.7189C13.9189 10 12.1502 10.0312 10.4189 10.1125C9.14394 10.1125 8.10957 11.25 8.10957 12.6562C8.03144 13.7684 7.99832 14.8809 8.00019 15.9934C7.99707 17.1059 8.03248 18.2195 8.10644 19.3341C8.10644 20.7403 9.14082 21.8809 10.4158 21.8809C12.2346 21.9653 14.1002 22.0028 15.9971 21.9997C17.8971 22.0059 19.7575 21.9664 21.5783 21.8809C22.8564 21.8809 23.8908 20.7403 23.8908 19.3341C23.9658 18.2184 24.0002 17.1059 23.9971 15.9903C24.0041 14.8778 23.9702 13.7643 23.8952 12.6497ZM14.4689 19.0591V12.9184L19.0002 15.9872L14.4689 19.0591Z" fill="white"/>
</svg>
