<svg width="42" height="42" viewBox="0 0 42 42" fill="none" xmlns="http://www.w3.org/2000/svg">
<path d="M12.25 29.0412V36.75C12.25 37.7169 11.4669 38.5 10.5 38.5H7.875C6.90812 38.5 6.125 37.7169 6.125 36.75V28.875H11.8737L12.25 29.0412Z" fill="#047857"/>
<path d="M36.75 18.8124C36.75 20.4837 36.085 21.9887 35 23.0912V14.5337C36.085 15.6362 36.75 17.1412 36.75 18.8124Z" fill="#047857"/>
<path d="M41.125 19.6875H39.375C38.8911 19.6875 38.5 19.2955 38.5 18.8125C38.5 18.3295 38.8911 17.9375 39.375 17.9375H41.125C41.6089 17.9375 42 18.3295 42 18.8125C42 19.2955 41.6089 19.6875 41.125 19.6875Z" fill="#047857"/>
<path d="M37.1259 13.5004C36.8757 13.5004 36.6281 13.3936 36.4548 13.188C36.1442 12.8179 36.1923 12.2658 36.5624 11.9551L37.9029 10.8299C38.2748 10.5193 38.8261 10.5691 39.1349 10.9384C39.4456 11.3085 39.3974 11.8606 39.0273 12.1713L37.6868 13.2965C37.5223 13.4339 37.3237 13.5013 37.1251 13.5013L37.1259 13.5004Z" fill="#047857"/>
<path d="M38.4653 26.9991C38.2667 26.9991 38.0681 26.9317 37.9036 26.7943L36.5631 25.6691C36.1921 25.3593 36.1439 24.8072 36.4554 24.4371C36.7652 24.0669 37.3165 24.0179 37.6875 24.3294L39.028 25.4547C39.399 25.7644 39.4471 26.3166 39.1356 26.6867C38.9632 26.8932 38.7165 26.9991 38.4653 26.9991Z" fill="#047857"/>
<path d="M10.5 27.125H4.375C1.95913 27.125 0 25.1659 0 22.75V14.875C0 12.4591 1.95913 10.5 4.375 10.5H10.5V27.125Z" fill="#047857"/>
<path d="M27.1215 3.87183L12.25 10.5V27.125L27.1215 33.7531C30.0116 35.0175 33.25 32.9 33.25 29.7447V7.87933C33.25 4.72408 30.0125 2.60658 27.1215 3.87095V3.87183Z" fill="#047857"/>
</svg>
