<svg width="30" height="30" viewBox="0 0 30 30" fill="none" xmlns="http://www.w3.org/2000/svg">
<rect width="30" height="30" rx="4" fill="#CED4DA"/>
<g clip-path="url(#clip0_111_3434)">
<path d="M15 23.5714C14.8065 23.5714 14.6429 23.5045 14.5089 23.3706L7.54464 16.6518C7.47024 16.5923 7.36793 16.4956 7.23772 16.3616C7.10751 16.2277 6.90104 15.984 6.6183 15.6306C6.33557 15.2772 6.08259 14.9145 5.85938 14.5424C5.63616 14.1704 5.43713 13.7203 5.26228 13.192C5.08743 12.6637 5 12.1503 5 11.6518C5 10.0149 5.47247 8.73514 6.41741 7.81252C7.36235 6.8899 8.66815 6.42859 10.3348 6.42859C10.7961 6.42859 11.2667 6.50857 11.7467 6.66854C12.2266 6.82851 12.673 7.04429 13.0859 7.31587C13.4989 7.58744 13.8542 7.84228 14.1518 8.08037C14.4494 8.31847 14.7321 8.57145 15 8.8393C15.2679 8.57145 15.5506 8.31847 15.8482 8.08037C16.1458 7.84228 16.5011 7.58744 16.9141 7.31587C17.327 7.04429 17.7734 6.82851 18.2533 6.66854C18.7333 6.50857 19.2039 6.42859 19.6652 6.42859C21.3318 6.42859 22.6376 6.8899 23.5826 7.81252C24.5275 8.73514 25 10.0149 25 11.6518C25 13.2961 24.1481 14.9703 22.4442 16.6741L15.4911 23.3706C15.3571 23.5045 15.1935 23.5714 15 23.5714Z" fill="white"/>
</g>
<defs>
<clipPath id="clip0_111_3434">
<rect width="20" height="20" fill="white" transform="translate(5 5)"/>
</clipPath>
</defs>
</svg>
