<svg width="24" height="18" viewBox="0 0 24 18" fill="none" xmlns="http://www.w3.org/2000/svg">
<path fill-rule="evenodd" clip-rule="evenodd" d="M18.6094 6.96415C21.5864 6.96415 24 9.32316 24 12.2323C24 15.141 21.5864 17.5 18.6094 17.5C15.6323 17.5 13.2178 15.141 13.2178 12.2323C13.2178 9.32316 15.6323 6.96415 18.6094 6.96415ZM1.35 0.5H19.5966C20.3339 0.5 20.9334 1.08998 20.9325 1.80685L20.9278 6.19278C20.5725 6.06269 20.2031 5.96191 19.822 5.89275L19.8253 2.36247L13.9275 6.89223L14.3573 7.30403C14.2148 7.42129 14.0789 7.54405 13.9472 7.67231L13.943 7.67689C13.7897 7.82668 13.6444 7.98471 13.5061 8.14824L12.9956 7.65857L11.0203 9.30163C10.8098 9.47432 10.4831 9.49493 10.2469 9.30713L8.17313 7.65353L1.84922 13.4489H12.1275C12.1998 13.8175 12.305 14.1793 12.442 14.5299H1.33547C0.597188 14.5299 0 13.9404 0 13.2231L0.01125 1.80639C0.0126563 1.08815 0.611719 0.5 1.35 0.5ZM1.10672 12.4966L7.22156 6.9046L1.11656 2.40965L1.10672 12.4966ZM1.99922 1.58102L10.6223 8.07953L18.7823 1.58102H1.99922ZM18.7809 9.82794L21.1228 12.1957L18.7078 14.638L17.9545 13.9308L19.1644 12.7073L16.0955 12.7105V11.6904L19.1672 11.6872L18.0281 10.5352L18.7809 9.82794Z" fill="white"/>
</svg>
