<svg width="18" height="20" viewBox="0 0 18 20" fill="none" xmlns="http://www.w3.org/2000/svg">
<path d="M3.1875 10.5234H4.85938V11.0938H3.1875V10.5234ZM9.19531 10C9.35156 10 9.5 10.0391 9.63281 10.1016C10.1484 9.47656 10.7188 8.92188 11.3672 8.4375C11.5234 8.58594 11.6797 8.74219 11.8438 8.89062C11.3594 9.63281 10.7969 10.2578 10.1797 10.8047C10.1953 10.8672 10.2031 10.9375 10.2031 11.0078C10.2031 11.5625 9.75 12.0156 9.19531 12.0156C8.64062 12.0156 8.1875 11.5625 8.1875 11.0078C8.1875 10.7969 8.25 10.5938 8.36719 10.4375C7.625 9.4375 6.99219 8.35938 6.46875 7.20312C6.63281 7.10937 6.80469 7.01562 6.97656 6.92969C7.71875 7.92969 8.36719 8.96875 8.90625 10.0547C9 10.0156 9.09375 10 9.19531 10ZM7.75781 4.53125V6.25L12.4922 3.53125L7.76562 0.78125V2.53906C5.99219 2.80469 4.35156 3.63281 3.07812 4.90625C1.5 6.48438 0.617188 8.60156 0.617188 10.8359C0.617188 13.0703 1.49219 15.1875 3.07812 16.7656C4.64844 18.3438 6.77344 19.2188 9 19.2188C11.2344 19.2188 13.3516 18.3438 14.9297 16.7578C15.8672 15.8203 16.5781 14.6641 16.9844 13.4062L17.0859 13.1016L15.2109 12.5469L15.1172 12.8359C14.8047 13.7969 14.2656 14.6641 13.5547 15.375C12.3438 16.5859 10.7188 17.2578 9.00781 17.2578C7.29688 17.2578 5.67188 16.5859 4.46875 15.375C3.25781 14.1641 2.58594 12.5391 2.58594 10.8281C2.58594 9.11719 3.25781 7.49219 4.46875 6.28906C5.35938 5.39062 6.50781 4.77344 7.75781 4.53125ZM15.3516 9.86719C15.2891 9.45312 15.1875 9.04688 15.0469 8.66406L14.9453 8.375L16.7812 7.6875L16.8906 7.98438C17.0938 8.54687 17.2344 9.14062 17.3125 9.73438L17.375 10.3438L15.4141 10.4141L15.3516 9.86719ZM15.3203 12.0078C15.3906 11.6172 15.4297 11.2266 15.4297 10.8281C15.4297 10.7891 15.4297 10.75 15.4297 10.7109L15.4219 10.4062L17.3828 10.3359L17.3906 10.6484C17.3906 10.7031 17.3906 10.7656 17.3906 10.8281C17.3906 11.3906 17.3359 11.9531 17.2266 12.5078L17.0859 13.1016L15.2109 12.5469L15.3203 12.0078ZM14.7109 7.88281C14.5391 7.54688 14.3359 7.23438 14.1094 6.9375L13.9219 6.69531L15.4609 5.48438L15.6484 5.73438C15.9844 6.17188 16.2734 6.64062 16.5234 7.13281L16.7812 7.6875L14.9453 8.375L14.7109 7.88281ZM13.9219 6.6875L13.5469 6.28906C13.2578 6 12.9453 5.74219 12.6172 5.51562L12.3438 5.32812L13.5703 3.78906L13.8125 3.95312C14.2188 4.23437 14.5938 4.55469 14.9453 4.89844C14.9844 4.9375 15.0234 4.98438 15.0625 5.02344L15.4766 5.47656L13.9219 6.6875ZM9.00781 16.5391V14.875H9.57812V16.5391H9.00781ZM13.2109 14.875L12.0312 13.6953L12.4375 13.2891L13.6172 14.4688L13.2109 14.875ZM4.85156 14.7344L6.03125 13.5547L6.4375 13.9609L5.25781 15.1406L4.85156 14.7344ZM4.99219 6.375L6.17188 7.55469L5.76562 7.96094L4.58594 6.78125L4.99219 6.375ZM13.3516 6.51562L12.9453 6.10938L11.7656 7.28906L12.1719 7.69531L13.3516 6.51562ZM15.0156 10.7188H13.3516V10.1484H15.0156V10.7188Z" fill="#232323"/>
</svg>
