<svg width="21" height="20" viewBox="0 0 21 20" fill="none" xmlns="http://www.w3.org/2000/svg">
<path d="M7.74186 2.72656C7.53873 2.8125 7.54655 2.67969 7.54655 5.6875V8.45312H6.55436C5.73405 8.45312 5.53874 8.46094 5.4528 8.50781C5.33561 8.5625 5.28874 8.69531 5.31999 8.82031C5.3278 8.86719 6.46842 10.0313 7.85123 11.4141C10.2106 13.7656 10.3747 13.9219 10.4919 13.9219C10.609 13.9219 10.7653 13.7656 13.1325 11.4062C14.5153 10.0234 15.6559 8.85938 15.6637 8.8125C15.7028 8.67969 15.6481 8.55469 15.5309 8.5C15.445 8.45313 15.2497 8.44531 14.4294 8.44531H13.4372V5.6875V2.91406L13.3512 2.8125L13.2653 2.71094L10.5309 2.70312C9.04655 2.70312 7.78092 2.71094 7.74186 2.72656Z" fill="white"/>
<path d="M1.375 11.5L1.28125 11.5859V14.3438V17.1016L1.36719 17.2031L1.45312 17.3047H10.5H19.5469L19.6328 17.2031L19.7188 17.1016V14.3438V11.5859L19.625 11.5L19.5391 11.4062H18.5625H17.5859L17.5 11.5L17.4062 11.5859V13.2969V15.0078H10.5H3.58594V13.2969V11.5859L3.49219 11.5L3.40625 11.4062H2.4375H1.46094L1.375 11.5Z" fill="white"/>
</svg>
