<svg width="20" height="20" viewBox="0 0 20 20" fill="none" xmlns="http://www.w3.org/2000/svg">
<path d="M1.70312 3.25781C1.52344 3.30469 1.1875 3.5 1.08594 3.61719C1.03125 3.67969 0.945313 3.82031 0.882813 3.92969L0.78125 4.13281V10V15.8672L0.921875 16.1172C1.00781 16.2813 1.125 16.4141 1.24219 16.5078C1.61719 16.7891 0.882813 16.7734 10.0781 16.7656L18.3359 16.7578L18.5312 16.6563C18.8203 16.5 18.9453 16.3906 19.0859 16.1172L19.2188 15.875V10V4.13281L19.0781 3.88281C18.9219 3.59375 18.6719 3.38281 18.3828 3.28906C18.2031 3.23438 17.4375 3.22656 10 3.23438C5.50781 3.23438 1.76562 3.24219 1.70312 3.25781ZM6.35156 7.58594C8.0625 9.11719 9.52344 10.4141 9.60156 10.4688C9.83594 10.6484 10.1484 10.6563 10.3672 10.4844C10.4297 10.4375 11.9141 9.125 13.6719 7.55469C15.4297 5.99219 16.8906 4.6875 16.9219 4.66406C16.9688 4.625 17.0391 4.67969 17.375 5.0625C17.5938 5.3125 17.7656 5.52344 17.7656 5.53125C17.7656 5.53907 16.7109 6.5 15.4141 7.64844L13.0625 9.74219L15.4297 12.1094L17.7969 14.4766L17.3594 14.9141L16.9297 15.3438L14.5469 12.9609C13.2344 11.6484 12.1562 10.5781 12.1406 10.5781C12.125 10.5781 11.8828 10.7891 11.6016 11.0391C10.8984 11.6641 10.5312 11.8438 9.98438 11.8438C9.4375 11.8438 9.07031 11.6563 8.36719 11.0391C8.08594 10.7813 7.83594 10.5781 7.82812 10.5781C7.82031 10.5781 6.73438 11.6484 5.42188 12.9609L3.03906 15.3438L2.60938 14.9141L2.17188 14.4766L4.55469 12.1094L6.92188 9.74219L4.57812 7.64844C3.28125 6.5 2.22656 5.54688 2.22656 5.53125C2.22656 5.52344 2.40625 5.30469 2.61719 5.0625L3.00781 4.61719L3.125 4.71094C3.1875 4.76563 4.64063 6.05469 6.35156 7.58594Z" fill="#232323"/>
</svg>
