<svg width="24" height="23" viewBox="0 0 24 23" fill="none" xmlns="http://www.w3.org/2000/svg">
<g clip-path="url(#clip0_525_547)">
<path fill-rule="evenodd" clip-rule="evenodd" d="M2.97852 19.6007V18.5794H3.58398C3.58398 18.4165 3.58398 18.2536 3.58398 18.0907H4.21875V12.0777H2.92188V10.6732H21.0781V12.0777H19.7812V18.0907H20.416V18.5794H21.0215V19.6007H2.97852ZM12.5723 0.417743C14.6758 -1.0079 14.832 1.81464 16.8984 0.0517513V2.92795C14.9277 4.66593 14.5039 1.85872 12.5723 3.28436V0.417743ZM12.2754 0.155225V3.51239L21.7305 8.25687V9.75341H2.32617V8.25878L11.752 3.50089V0.155225H12.2754ZM22.2266 21.5897H22.1309V20.1756C15.3789 20.1756 8.62109 20.1756 1.86914 20.1756V21.5897H1.77344V21.5935H0V23H24V21.5935H22.2266V21.5897ZM7.24219 18.5794H7.97461V18.0907H8.60938V12.0777H6.60742V18.0907H7.24219V18.5794ZM11.6348 18.5794H12.3691V18.0907H13.002V12.0777H11V18.0907H11.6348V18.5794ZM16.0254 18.5794H16.7598V18.0907H17.3945V12.0777H15.3906V18.0907H16.0254V18.5794Z" fill="#120A8F"/>
</g>
<defs>
<clipPath id="clip0_525_547">
<rect width="24" height="23" fill="white"/>
</clipPath>
</defs>
</svg>
