<svg width="20" height="20" viewBox="0 0 20 20" fill="none" xmlns="http://www.w3.org/2000/svg">
<path d="M9.46875 5.19531V6.21875H10.0078H10.5469V5.60938C10.5469 5.27344 10.5547 4.8125 10.5703 4.58594L10.5938 4.17188H10.0312H9.46094V5.19531H9.46875Z" fill="white"/>
<path d="M5.62507 4.92964C5.35163 5.02339 5.11726 5.10933 5.11726 5.10933C5.10944 5.12495 5.76569 7.0312 5.78132 7.06245C5.79694 7.07808 6.74226 6.74995 6.78132 6.7187C6.81257 6.69526 6.21101 4.85151 6.15632 4.78901C6.14069 4.77339 5.90632 4.83589 5.62507 4.92964Z" fill="white"/>
<path d="M13.5545 5.78906C13.2733 6.28906 13.0623 6.71094 13.078 6.71094C13.0936 6.71875 13.3123 6.83594 13.5545 6.96875C13.7967 7.10937 14.0077 7.20312 14.0233 7.19531C14.0936 7.125 15.0077 5.42969 14.9842 5.40625C14.9686 5.39062 14.7498 5.26562 14.5077 5.125L14.0545 4.875L13.5545 5.78906Z" fill="white"/>
<path d="M9.3125 7.05463C7.48437 7.21088 6.09375 7.67963 4.75 8.57806C3.80469 9.21088 2.82813 10.2265 2.28125 11.1328L2.09375 11.4374L2.19531 11.6171C2.625 12.3593 3.42969 13.2656 4.19531 13.8749C5.51562 14.9218 7.03125 15.5546 8.75 15.7656C9.33594 15.8359 10.4922 15.8437 11.0625 15.7812C13.7344 15.4843 16.1719 14.0078 17.6406 11.789L17.8672 11.4453L17.7422 11.2187C17.5781 10.914 17.1016 10.2734 16.7734 9.914C15.3672 8.37494 13.5937 7.44525 11.4766 7.13275C10.9766 7.07025 9.72656 7.01556 9.3125 7.05463ZM10.9297 7.99213C12.1484 8.34369 13.1172 9.32806 13.4453 10.539C13.5703 11.0078 13.5703 11.8906 13.4453 12.3281C13.2578 12.9843 12.9922 13.4609 12.5547 13.9062C12.1016 14.3828 11.5078 14.7343 10.875 14.8984C10.4297 15.0234 9.53906 15.0234 9.10156 14.9062C8.45312 14.7265 7.86719 14.3749 7.39844 13.8906C6.90625 13.3671 6.57031 12.6953 6.45312 11.9999C6.39062 11.6093 6.42188 10.9218 6.52344 10.5234C6.85938 9.24994 7.92969 8.23431 9.25 7.94525C9.64844 7.8515 10.5391 7.87494 10.9297 7.99213Z" fill="white"/>
<path d="M9.59375 9.59375C9.26563 9.66406 8.98438 9.82031 8.71875 10.0703C8.3125 10.4531 8.14062 10.8516 8.14062 11.4062C8.14062 12.1797 8.51563 12.7812 9.21875 13.1172C9.51563 13.2578 9.52344 13.2578 10 13.2578C10.4766 13.2578 10.4844 13.2578 10.7813 13.1172C11.3906 12.8281 11.75 12.3359 11.8516 11.6641C11.8906 11.4219 11.8594 10.9453 11.7891 10.8359C11.7812 10.8203 11.6953 10.8437 11.6094 10.8906C11.5078 10.9375 11.3438 10.9766 11.1719 10.9922L10.8984 11.0078V11.1875C10.8906 11.6719 10.5469 12.0156 10.0547 12.0156C9.49219 12.0156 9.125 11.5391 9.24219 10.9453C9.28906 10.6719 9.69531 10.3438 9.96875 10.3359C10.0625 10.3359 10.0703 10.3281 10.0469 10.25C10.0313 10.2031 10.0156 10.0234 10.0234 9.84375C10.0234 9.53125 10.0234 9.53125 9.92969 9.53125C9.875 9.53906 9.72656 9.5625 9.59375 9.59375Z" fill="white"/>
<path d="M1.15625 7.70312L0.78125 8.09375L1.52344 8.79687C1.92969 9.17969 2.27344 9.49219 2.28906 9.49219C2.32812 9.49219 3.02344 8.77344 3.02344 8.73438C3.02344 8.70313 1.91406 7.625 1.63281 7.39062L1.53906 7.3125L1.15625 7.70312Z" fill="white"/>
<path d="M17.6953 8.03906L16.9531 8.73438L17.3203 9.13281C17.5234 9.35156 17.7031 9.52344 17.7188 9.52344C17.7344 9.51562 18.0781 9.20312 18.4766 8.82031L19.2109 8.125L18.8594 7.74219C18.6641 7.53125 18.4844 7.35156 18.4687 7.34375C18.4531 7.34375 18.1016 7.65625 17.6953 8.03906Z" fill="white"/>
</svg>
