<svg width="24" height="24" viewBox="0 0 24 24" fill="none" xmlns="http://www.w3.org/2000/svg">
<path d="M12 23.0625C5.54063 20.5688 1.3875 15.4781 1.14375 9.72187C1.03125 7.18125 0.9375 4.07812 0.9375 3.09375C1.40625 3.21563 2.30625 3.39375 3.53438 3.39375C5.4 3.39375 8.67188 2.9625 12 0.9375C15.3281 2.9625 18.6 3.375 20.4656 3.375C21.6938 3.375 22.5938 3.19687 23.0625 3.075C23.0625 4.05937 23.1 7.1625 22.9875 9.69375C22.7344 15.4594 18.4594 20.5688 12 23.0625ZM3.1875 5.89688C3.20625 6.94688 3.3 8.48437 3.35625 9.62812C3.55313 14.1656 6.8625 18.4031 11.8969 20.625L12.0094 20.6719L12.1219 20.625C17.1563 18.3937 20.5875 14.1375 20.7844 9.6C20.8313 8.45625 20.8031 6.91875 20.8219 5.86875V5.57812L20.5313 5.5875C18.6375 5.5875 15.4125 5.25 12.1313 3.55313L12.0094 3.4875L11.8875 3.55313C8.60625 5.25938 5.37188 5.61563 3.54375 5.61563H3.2625L3.1875 5.89688Z" fill="#01A4BD"/>
<path d="M11.7564 13.4625L10.4064 14.8125L7.66895 12.075L9.01894 10.725L11.7564 13.4625Z" fill="#01A4BD"/>
<path d="M16.9033 9.63748L11.0814 15.4593L9.68457 14.0625L15.5064 8.2406L16.9033 9.63748Z" fill="#01A4BD"/>
</svg>
