<svg width="24" height="24" viewBox="0 0 24 24" fill="none" xmlns="http://www.w3.org/2000/svg">
<path d="M0.9375 1.34063C1.18125 1.06875 1.49062 0.984375 1.85625 0.984375C6.84375 0.99375 11.8219 0.99375 16.8094 0.99375C17.5406 0.99375 17.7 1.1625 17.7 1.88438C17.7 3.01875 17.7 4.15313 17.7 5.2875C17.4375 5.175 17.175 4.97812 16.9406 4.99687C16.7062 5.025 16.5094 5.2875 16.2562 5.46562C16.2469 5.33437 16.2281 5.2125 16.2281 5.09062C16.2281 4.41562 16.2281 3.74062 16.2281 3.05625C16.2281 2.67187 16.0406 2.46562 15.6469 2.46562C15.6 2.46562 15.5625 2.46562 15.5156 2.46562C11.3813 2.46562 7.24687 2.46562 3.1125 2.46562C2.54063 2.46562 2.40938 2.60625 2.40938 3.1875C2.40938 8.44687 2.40938 13.7063 2.40938 18.9656C2.40938 19.5375 2.54063 19.6688 3.13125 19.6688C5.40938 19.6688 7.67812 19.6688 9.95625 19.6688C10.1156 19.6688 10.2656 19.6688 10.5094 19.6688C10.3125 20.1469 10.1438 20.5875 9.9375 21C9.9 21.075 9.73125 21.1312 9.62812 21.1312C6.96562 21.1406 4.29375 21.1406 1.63125 21.1219C1.39687 21.1219 1.1625 20.9062 0.9375 20.7938C0.9375 14.3156 0.9375 7.82812 0.9375 1.34063Z" fill="#120A8F"/>
<path d="M21.0652 16.4626C21.7309 18.1032 22.3965 19.7344 23.0621 21.3751C23.0715 21.3938 23.0434 21.4219 22.9965 21.4969C22.8746 21.4501 22.7527 21.4126 22.6309 21.3657C22.0121 21.0938 21.3934 20.8313 20.784 20.5407C20.484 20.4001 20.3246 20.4282 20.2027 20.7657C19.9777 21.3844 19.7059 21.9938 19.4527 22.6032C19.3965 22.7251 19.3309 22.8469 19.2652 22.9688C19.2184 22.9688 19.1809 22.9782 19.1434 22.9876C18.459 21.3469 17.7652 19.7063 17.0152 17.9251C16.284 19.6594 15.609 21.2813 14.8871 23.0157C14.7559 22.7907 14.6621 22.6782 14.6152 22.5469C14.3527 21.9282 14.0809 21.3001 13.8465 20.6719C13.734 20.3813 13.6027 20.3344 13.3309 20.4657C12.7215 20.7563 12.1027 21.0188 11.4746 21.2907C11.3434 21.3469 11.1934 21.3938 11.0527 21.4407C11.0246 21.4126 10.9871 21.3844 10.959 21.3563C11.634 19.7344 12.309 18.1126 12.9746 16.4907C12.9371 16.4907 12.8996 16.5001 12.8527 16.5001C12.7965 16.2001 12.6934 15.9001 12.7027 15.6001C12.7215 15.1876 12.5996 14.9344 12.1871 14.8501C12.0652 14.8219 11.9434 14.7563 11.8215 14.7094C11.5402 14.6063 11.409 14.4094 11.5777 14.1469C12.0184 13.4251 11.8871 12.8438 11.1934 12.3657C10.959 12.2063 10.9777 11.9813 11.1746 11.7657C11.2027 11.7376 11.2402 11.7001 11.2684 11.6719C11.9059 11.0157 11.9152 11.2219 11.5027 10.3313C11.334 9.97506 11.4184 9.78756 11.7746 9.62818C12.8715 9.13131 12.6746 9.43131 12.684 8.22193C12.684 7.85631 12.8246 7.67818 13.1902 7.70631C13.2465 7.70631 13.3121 7.69693 13.359 7.70631C13.8652 7.79068 14.1465 7.58443 14.2965 7.07818C14.484 6.45006 14.5965 6.39381 15.159 6.67506C15.7402 6.97506 16.1434 6.90006 16.5652 6.38443C16.9777 5.88756 17.0621 5.91568 17.5215 6.37506C18.0652 6.90943 17.9152 6.90006 18.6559 6.57193C19.2184 6.32818 19.2652 6.34693 19.5277 6.91881C19.5652 6.99381 19.6121 7.07818 19.6309 7.15318C19.7434 7.58443 20.0152 7.77193 20.4559 7.69693C20.5027 7.68756 20.5402 7.69693 20.5871 7.69693C21.384 7.69693 21.4121 7.69693 21.3746 8.47506C21.3559 8.93443 21.5246 9.15006 21.9465 9.29068C22.6684 9.53443 22.7059 9.58131 22.3777 10.2657C22.1246 10.8001 22.1996 11.1469 22.6496 11.5313C23.2121 12.0188 23.2121 12.0844 22.659 12.5719C22.2934 12.9001 22.2559 13.1907 22.4809 13.6219C22.7996 14.2407 22.7809 14.3344 22.1152 14.5594C21.5152 14.7563 21.309 15.1032 21.3746 15.7126C21.4027 15.9657 21.2715 16.2376 21.2152 16.5001C21.1496 16.4719 21.1121 16.4719 21.0652 16.4626ZM17.0434 8.14693C14.8965 8.13756 13.134 9.88131 13.1246 12.0282C13.1152 14.1751 14.8684 15.9376 17.0059 15.9469C19.1527 15.9563 20.9152 14.2126 20.9246 12.0657C20.934 9.90943 19.1996 8.15631 17.0434 8.14693Z" fill="#120A8F"/>
<path d="M11.5596 7.83752C11.5596 8.13752 11.5596 8.3719 11.5596 8.64377C11.4283 8.65315 11.3064 8.6719 11.1846 8.6719C9.0377 8.6719 6.89082 8.6719 4.74395 8.6719C4.6877 8.6719 4.63145 8.6719 4.56582 8.6719C4.3127 8.66252 4.15332 8.54065 4.14395 8.27815C4.13457 7.9969 4.29395 7.8469 4.56582 7.8469C5.1752 7.83752 5.7752 7.8469 6.3752 7.8469C7.93145 7.8469 9.4877 7.8469 11.0439 7.8469C11.2033 7.83752 11.3627 7.83752 11.5596 7.83752Z" fill="#120A8F"/>
<path d="M11.5597 15.6C11.6159 15.8719 11.6628 16.1062 11.7097 16.3687C11.6159 16.3781 11.5503 16.3969 11.4847 16.3969C9.23469 16.3969 6.99407 16.3969 4.74407 16.3969C4.60344 16.3969 4.40657 16.3594 4.32219 16.2656C4.23782 16.1719 4.21907 15.9469 4.27532 15.8344C4.33157 15.7219 4.50969 15.6187 4.64094 15.6187C5.34407 15.6 6.05657 15.6094 6.75969 15.6094C8.34407 15.6 9.92844 15.6 11.5597 15.6Z" fill="#120A8F"/>
<path d="M10.6971 12.9563C10.6127 13.725 10.5471 13.7907 9.88145 13.7907C8.22207 13.7907 6.57207 13.7907 4.9127 13.7907C4.8002 13.7907 4.65957 13.8282 4.5752 13.7813C4.44395 13.6969 4.24707 13.5375 4.24707 13.425C4.24707 13.275 4.40645 13.0407 4.5377 13.0032C4.80957 12.9282 5.10957 12.9657 5.4002 12.9657C7.0127 12.9657 8.6252 12.9657 10.2377 12.9657C10.3877 12.9563 10.5377 12.9563 10.6971 12.9563Z" fill="#120A8F"/>
<path d="M7.32173 11.2031C6.45923 11.2031 5.59673 11.1937 4.72485 11.2031C4.41548 11.2031 4.15298 11.1656 4.16235 10.7906C4.17173 10.4344 4.42485 10.4062 4.7061 10.4062C6.47798 10.4062 8.24985 10.4062 10.0217 10.4156C10.2374 10.4156 10.5467 10.275 10.603 10.6594C10.6405 10.9031 10.2655 11.2031 9.94673 11.2031C9.1686 11.2031 8.39048 11.2031 7.61235 11.2031C7.5186 11.2031 7.41548 11.2031 7.32173 11.2031Z" fill="#120A8F"/>
<path d="M6.7127 5.81252C6.0377 5.81252 5.3627 5.81252 4.6877 5.81252C4.39707 5.81252 4.15332 5.7469 4.15332 5.40002C4.15332 5.05315 4.3877 4.97815 4.67832 4.97815C6.04707 4.97815 7.41582 4.97815 8.78457 4.97815C9.0752 4.97815 9.30957 5.04377 9.30957 5.39065C9.30957 5.7469 9.0752 5.81252 8.78457 5.81252C8.09082 5.81252 7.39707 5.81252 6.7127 5.81252Z" fill="#120A8F"/>
</svg>
