<svg width="24" height="24" viewBox="0 0 24 24" fill="none" xmlns="http://www.w3.org/2000/svg">
<path fill-rule="evenodd" clip-rule="evenodd" d="M3.41009 9.69342L1.6054 6.56646C1.44915 6.29498 1.5429 5.94928 1.81439 5.79303C1.90423 5.74224 1.99994 5.71685 2.09759 5.71685V5.7149H5.71478V2.08209C5.71478 1.76764 5.97064 1.51178 6.28509 1.51178C6.40423 1.51178 6.51361 1.54889 6.6054 1.60943L9.69525 3.40631L11.5097 0.281307C11.6679 0.00982305 12.0156 -0.0819738 12.2851 0.0742762C12.3749 0.127011 12.4452 0.199276 12.4941 0.285214L14.3066 3.40631L17.4316 1.58795C17.7031 1.42974 18.0507 1.52349 18.207 1.79498C18.2597 1.88482 18.2831 1.98248 18.2831 2.08014L18.2851 5.71295H21.9179C22.2324 5.71295 22.4882 5.96881 22.4882 6.28326C22.4882 6.4024 22.4511 6.51178 22.3906 6.60357L20.5937 9.69342L23.7187 11.5079C23.9902 11.6661 24.082 12.0137 23.9257 12.2833C23.873 12.3731 23.8007 12.4434 23.7148 12.4922L20.5937 14.3047L22.412 17.4297C22.5702 17.7012 22.4765 18.0489 22.205 18.2051C22.1152 18.2579 22.0175 18.2813 21.9199 18.2813L18.287 18.2833V21.9004C18.287 22.2149 18.0312 22.4708 17.7167 22.4708C17.5937 22.4708 17.4804 22.4317 17.3867 22.3653L14.3066 20.5879L12.4921 23.7149C12.3339 23.9864 11.9863 24.0782 11.7167 23.9219C11.6269 23.8692 11.5566 23.7969 11.5077 23.711L9.69525 20.5879L6.56829 22.3926C6.29681 22.5489 5.95111 22.4551 5.79486 22.1837C5.74408 22.0938 5.71869 21.9981 5.71869 21.9004H5.71673V18.2852H2.09759C1.78314 18.2852 1.52728 18.0294 1.52728 17.7149C1.52728 17.5919 1.56634 17.4786 1.63275 17.3848L3.41009 14.3047L0.283138 12.4922C0.0116541 12.334 -0.0801428 11.9864 0.0761072 11.7169C0.128842 11.627 0.201107 11.5567 0.287045 11.5079L3.41009 9.69342ZM8.72454 7.9024C9.42572 7.9024 9.99017 8.10162 10.4179 8.50201C10.8437 8.9024 11.0566 9.43365 11.0566 10.0958C11.0566 10.7598 10.8437 11.2911 10.4179 11.6915C9.99017 12.0919 9.42572 12.2911 8.72454 12.2911C8.02337 12.2911 7.46087 12.0899 7.03314 11.6915C6.60736 11.2911 6.39251 10.7598 6.39251 10.0958C6.39251 9.43365 6.60736 8.90045 7.03314 8.50201C7.46087 8.10162 8.02337 7.9024 8.72454 7.9024ZM13.8417 8.2149H15.7402L10.1816 15.7754H8.28314L13.8417 8.2149ZM8.72454 9.59576C8.5722 9.59576 8.45697 9.64068 8.37689 9.72662C8.29681 9.81451 8.25579 9.93756 8.25579 10.0977C8.25579 10.2579 8.29681 10.3829 8.37689 10.4708C8.45697 10.5567 8.5722 10.6016 8.72454 10.6016C8.87689 10.6016 8.99408 10.5567 9.07415 10.4708C9.15423 10.3809 9.19329 10.2579 9.19329 10.0977C9.19329 9.93756 9.15423 9.81451 9.07415 9.72662C8.99603 9.64068 8.87884 9.59576 8.72454 9.59576ZM15.2734 11.7051C15.9745 11.7051 16.537 11.9063 16.9648 12.3047C17.3906 12.7051 17.6054 13.2364 17.6054 13.9004C17.6054 14.5626 17.3906 15.0958 16.9648 15.4942C16.537 15.8946 15.9745 16.0938 15.2734 16.0938C14.5722 16.0938 14.0077 15.8946 13.58 15.4942C13.1542 15.0938 12.9413 14.5626 12.9413 13.9004C12.9413 13.2364 13.1542 12.7051 13.58 12.3047C14.0077 11.9063 14.5722 11.7051 15.2734 11.7051ZM15.2734 13.3985C15.121 13.3985 15.0038 13.4434 14.9238 13.5294C14.8437 13.6192 14.8027 13.7403 14.8027 13.9024C14.8027 14.0626 14.8437 14.1856 14.9238 14.2735C15.0038 14.3614 15.121 14.4044 15.2734 14.4044C15.4238 14.4044 15.541 14.3594 15.621 14.2735C15.7011 14.1856 15.7421 14.0626 15.7421 13.9024C15.7421 13.7403 15.7011 13.6172 15.621 13.5294C15.5429 13.4415 15.4257 13.3985 15.2734 13.3985Z" fill="#01A4BD"/>
</svg>
