<svg width="76" height="76" viewBox="0 0 76 76" fill="none" xmlns="http://www.w3.org/2000/svg">
<path d="M33.2087 13.8182L21.9739 0H9.25217L20.487 13.8182H33.2087ZM66.2522 13.8182L55.0174 0H42.2957L53.5304 13.8182H66.2522ZM49.7304 13.8182L38.4957 0H25.7739L37.0087 13.8182H49.7304ZM71.0435 0H58.8174L70.0522 13.8182H76V5.18182C76 2.24545 73.8522 0 71.0435 0ZM5.45217 0H4.95652C2.14783 0 0 2.24545 0 5.18182V13.8182H16.687L5.45217 0ZM0 70.8182C0 73.7545 2.14783 76 4.95652 76H71.0435C73.8522 76 76 73.7545 76 70.8182V17.2727H0V70.8182ZM26.4348 32.8182C26.4348 29.8818 28.7478 28.5 31.3913 28.5C32.2174 28.5 33.2087 28.6727 34.0348 29.1909L52.8696 40.5909C56.1739 42.4909 56.1739 47.3273 52.8696 49.2273L34.0348 60.6273C33.2087 61.1455 32.3826 61.3182 31.3913 61.3182C28.7478 61.3182 26.4348 59.9364 26.4348 57V32.8182Z" fill="#71A1C1"/>
</svg>
