<svg width="118" height="118" viewBox="0 0 118 118" fill="none" xmlns="http://www.w3.org/2000/svg">
<path d="M104.89 118H13.1098C5.9 118 0 112.1 0 104.89V13.1098C0 5.9 5.9 0 13.1098 0H104.89C112.1 0 118 5.9 118 13.1098V104.89C118 112.1 112.1 118 104.89 118ZM91.45 26.55H26.55C23.2962 26.55 20.65 29.1962 20.65 32.45V85.55C20.65 88.8039 23.2962 91.45 26.55 91.45H91.45C94.7038 91.45 97.35 88.8039 97.35 85.55V32.45C97.35 29.1962 94.7038 26.55 91.45 26.55ZM91.45 32.45L91.4529 80.4967L73.75 50.15L59 76.7L44.25 61.95L26.55 82.1782V32.45H91.45ZM39.3324 52.4451C40.1935 52.4449 41.0463 52.2751 41.8418 51.9453C42.6374 51.6156 43.3602 51.1324 43.969 50.5233C44.5778 49.9142 45.0607 49.1912 45.3901 48.3955C45.7195 47.5998 45.8889 46.747 45.8887 45.8858C45.8885 45.0246 45.7187 44.1719 45.389 43.3763C45.0592 42.5807 44.576 41.8579 43.9669 41.2491C43.3578 40.6403 42.6348 40.1574 41.8391 39.828C41.0434 39.4986 40.1906 39.3292 39.3294 39.3294C37.5901 39.3298 35.9223 40.0211 34.6927 41.2512C33.4632 42.4813 32.7726 44.1495 32.773 45.8887C32.7734 47.628 33.4647 49.2958 34.6948 50.5254C35.9249 51.755 37.5931 52.4455 39.3324 52.4451Z" fill="#9DA0A6"/>
</svg>
