<svg width="24" height="24" viewBox="0 0 24 24" fill="none" xmlns="http://www.w3.org/2000/svg">
<path d="M11.9048 9.14286H14.2857V5.71429H17.8571V3.42857H14.2857V0H11.9048V3.42857H8.33333V5.71429H11.9048M7.14286 19.4286C5.83333 19.4286 4.7619 20.4571 4.7619 21.7143C4.7619 22.9714 5.83333 24 7.14286 24C8.45238 24 9.52381 22.9714 9.52381 21.7143C9.52381 20.4571 8.45238 19.4286 7.14286 19.4286ZM19.0476 19.4286C17.7381 19.4286 16.6667 20.4571 16.6667 21.7143C16.6667 22.9714 17.7381 24 19.0476 24C20.3571 24 21.4286 22.9714 21.4286 21.7143C21.4286 20.4571 20.3571 19.4286 19.0476 19.4286ZM7.34524 15.7143L7.38095 15.5771L8.45238 13.7143H17.3214C18.2143 13.7143 19 13.2457 19.4048 12.5371L24 4.52571L21.9286 3.42857H21.9167L20.6071 5.71429L17.3214 11.4286H8.96429L8.80952 11.12L6.14286 5.71429L5.0119 3.42857L3.89286 1.14286H0V3.42857H2.38095L6.66667 12.1029L5.05952 14.9029C4.86905 15.2229 4.7619 15.6 4.7619 16C4.7619 17.2571 5.83333 18.2857 7.14286 18.2857H21.4286V16H7.64286C7.4881 16 7.34524 15.8743 7.34524 15.7143Z" fill="#120A8F"/>
</svg>
