<svg width="24" height="24" viewBox="0 0 24 24" fill="none" xmlns="http://www.w3.org/2000/svg">
<path d="M6.49697 0.431249C6.15009 0.590624 6.01884 0.815624 6.01884 1.28437C6.01884 1.44375 6.00947 1.575 6.00009 1.575C5.99072 1.575 5.85009 1.52812 5.70947 1.4625C4.72509 1.05 3.64697 1.04062 2.76572 1.44375C1.95009 1.80937 1.43447 2.39062 1.12509 3.32812C0.900094 3.98437 0.881344 4.79062 1.05947 5.53125C1.18134 6.01875 1.54697 6.73125 1.86572 7.10625C2.01572 7.275 3.34697 8.52187 4.82822 9.8625C6.30947 11.2031 7.70634 12.4781 7.93134 12.6937C8.53134 13.2656 9.26259 13.725 10.022 13.9875L10.2563 14.0719V14.7375V15.4125L10.0688 15.6562C9.60009 16.2281 9.40322 17.0156 9.54384 17.7094C9.63759 18.15 9.82509 18.5531 10.0782 18.8344L10.2563 19.0406V19.8V20.5594H9.70322C8.73759 20.5594 8.17509 20.775 7.59384 21.3563C7.05947 21.8906 6.79697 22.5094 6.79697 23.2594V23.6531H12.0376H17.2782L17.2501 23.2406C17.1845 22.3781 16.9688 21.8906 16.4251 21.3563C15.8157 20.7469 15.3095 20.5594 14.3438 20.5594H13.7626V19.8281V19.0969L13.9595 18.8438C14.7282 17.8594 14.7095 16.4906 13.9126 15.6L13.7532 15.4313V14.7469V14.0625L13.9407 14.0062C14.5501 13.8281 15.4032 13.3125 15.9845 12.7875C18.3563 10.6687 21.9938 7.33125 22.1626 7.11562C22.4626 6.74062 22.772 6.15 22.922 5.64375C23.0345 5.27812 23.0532 5.16562 23.0532 4.55625C23.0532 3.77812 23.0063 3.525 22.7157 2.91562C22.5095 2.49375 22.2376 2.11875 21.9563 1.89375C21.0001 1.11562 19.6595 0.956249 18.4032 1.45312L18.0282 1.60312V1.36875C18.0282 1.04062 17.9532 0.815624 17.7845 0.628124C17.5126 0.318749 17.8782 0.337499 12.0095 0.337499C6.92822 0.346874 6.67509 0.356249 6.49697 0.431249ZM4.97822 2.03437C5.16572 2.08125 5.47509 2.20312 5.66259 2.29687L6.00009 2.46562L6.02822 5.85937C6.04697 8.82187 6.06572 9.28125 6.13134 9.54375C6.16884 9.70312 6.22509 9.9 6.23447 9.975L6.26259 10.1156L6.10322 9.975C6.01884 9.9 5.19384 9.15 4.27509 8.31562C3.25322 7.3875 2.51259 6.69375 2.39072 6.525C1.65009 5.53125 1.50009 4.26562 1.98759 3.24375C2.26884 2.65312 2.60634 2.325 3.18759 2.10937C3.75947 1.88437 4.31259 1.86562 4.97822 2.03437ZM20.6907 2.07187C21.3376 2.29687 21.7407 2.65312 22.022 3.23437C22.3126 3.83437 22.3876 4.55625 22.247 5.23125C22.1532 5.6625 21.8345 6.30937 21.5626 6.64687C21.3751 6.87187 17.8126 10.1344 17.7845 10.1062C17.7845 10.1062 17.8126 9.92812 17.8595 9.7125C18.0188 9.02812 18.047 8.475 18.047 5.4375V2.48437L18.3563 2.33437C18.6845 2.16562 19.0032 2.05312 19.322 1.9875C19.6407 1.92187 20.3907 1.96875 20.6907 2.07187ZM12.2907 2.2125C12.347 2.25937 12.6845 2.90625 13.0501 3.64687C13.4157 4.3875 13.7345 4.99687 13.7626 4.99687C13.922 4.99687 16.6313 5.41875 16.7345 5.45625C16.8751 5.5125 16.9782 5.71875 16.9313 5.87812C16.922 5.93437 16.4157 6.46875 15.8157 7.05937L14.7188 8.12812L14.9626 9.55312C15.1032 10.3312 15.2157 11.0344 15.2157 11.1C15.2157 11.1656 15.1782 11.2687 15.122 11.3437C14.9438 11.5687 14.822 11.5219 13.397 10.7719C12.6845 10.3969 12.0845 10.0875 12.0751 10.0781C12.0657 10.0781 11.4563 10.3875 10.7251 10.7625C9.81572 11.2406 9.35634 11.4562 9.25322 11.4562C9.08447 11.4562 8.88759 11.2875 8.88759 11.1281C8.88759 11.0719 9.00009 10.3687 9.14072 9.57187L9.39384 8.11875L8.29697 7.05C7.66884 6.43125 7.19072 5.93437 7.18134 5.86875C7.14384 5.72812 7.21884 5.55937 7.35009 5.475C7.43447 5.42812 10.1063 4.99687 10.3501 4.99687C10.3688 4.99687 10.697 4.37812 11.072 3.6375C11.4751 2.83125 11.7938 2.24062 11.8501 2.20312C11.9907 2.1 12.1782 2.10937 12.2907 2.2125Z" fill="#120A8F"/>
</svg>
