<svg width="24" height="24" viewBox="0 0 24 24" fill="none" xmlns="http://www.w3.org/2000/svg">
<path d="M21.3336 24H2.6664C1.2 24 0 22.8 0 21.3336V2.6664C0 1.2 1.2 0 2.6664 0H21.3336C22.8 0 24 1.2 24 2.6664V21.3336C24 22.8 22.8 24 21.3336 24ZM18.6 5.4H5.4C4.7382 5.4 4.2 5.9382 4.2 6.6V17.4C4.2 18.0618 4.7382 18.6 5.4 18.6H18.6C19.2618 18.6 19.8 18.0618 19.8 17.4V6.6C19.8 5.9382 19.2618 5.4 18.6 5.4ZM18.6 6.6L18.6006 16.3722L15 10.2L12 15.6L9 12.6L5.4 16.7142V6.6H18.6ZM7.9998 10.6668C8.17496 10.6668 8.34839 10.6322 8.5102 10.5652C8.67201 10.4981 8.81902 10.3998 8.94285 10.2759C9.06668 10.152 9.16489 10.005 9.23188 9.84315C9.29888 9.68131 9.33334 9.50786 9.3333 9.3327C9.33326 9.15754 9.29872 8.98411 9.23166 8.8223C9.16459 8.66049 9.06631 8.51348 8.94243 8.38965C8.81854 8.26582 8.67148 8.16761 8.50965 8.10061C8.34781 8.03362 8.17436 7.99916 7.9992 7.9992C7.64545 7.99928 7.30623 8.13988 7.05615 8.39007C6.80607 8.64027 6.66562 8.97955 6.6657 9.3333C6.66578 9.68705 6.80638 10.0263 7.05657 10.2764C7.30677 10.5264 7.64605 10.6669 7.9998 10.6668Z" fill="#01A4BD"/>
</svg>
