<svg width="24" height="24" viewBox="0 0 24 24" fill="none" xmlns="http://www.w3.org/2000/svg">
<path d="M17.9741 1.45033V8.48898C17.9741 8.88825 17.8215 9.2511 17.5757 9.51366C17.3299 9.77626 16.9903 9.93931 16.6165 9.93931H12.479V11.7409H20.8403C21.2141 11.7409 21.5537 11.9039 21.7995 12.1665C22.0453 12.429 22.1979 12.7919 22.1979 13.1912V16.7064C22.1979 16.9831 21.9879 17.2075 21.7288 17.2075C21.4697 17.2075 21.2597 16.9831 21.2597 16.7064V13.1912C21.2596 13.1324 21.2487 13.0742 21.2275 13.02C21.2063 12.9658 21.1753 12.9165 21.1362 12.8751C21.0975 12.8334 21.0514 12.8003 21.0006 12.7776C20.9498 12.755 20.8953 12.7433 20.8403 12.7432H12.479V16.71C12.479 16.9867 12.269 17.2111 12.0099 17.2111C11.7509 17.2111 11.5408 16.9867 11.5408 16.71V12.7432H3.17953C3.12451 12.7433 3.07005 12.755 3.01928 12.7776C2.9685 12.8003 2.92241 12.8334 2.88366 12.8751L2.88277 12.8741C2.8042 12.9583 2.7601 13.0723 2.76014 13.1912V16.71C2.76014 16.9867 2.55009 17.2111 2.29102 17.2111C2.03194 17.2111 1.82194 16.9867 1.82194 16.71V13.1912C1.82194 12.7932 1.97456 12.4311 2.22038 12.1684L2.22131 12.1675L2.22038 12.1665C2.46614 11.9039 2.80575 11.7409 3.17953 11.7409H11.5408V9.93931H7.40334C7.02956 9.93931 6.68995 9.77626 6.44419 9.51366C6.19837 9.2511 6.04575 8.88825 6.04575 8.48898V1.45033C6.04575 1.05101 6.19837 0.688207 6.44419 0.425603C6.68995 0.16305 7.02956 0 7.40334 0H16.6165C16.9903 0 17.3299 0.16305 17.5757 0.425603C17.8215 0.688207 17.9741 1.05101 17.9741 1.45033ZM4.56764 18.4266V23.4061C4.56764 23.7327 4.31738 24 4.01175 24H0.555937C0.250266 24 0 23.7326 0 23.4061V18.4266C0 18.1 0.250172 17.8327 0.555937 17.8327H4.01175C4.31747 17.8327 4.56764 18.0999 4.56764 18.4266ZM14.2984 18.4266V23.4061C14.2984 23.7327 14.0482 24 13.7425 24H10.2867C9.98105 24 9.73078 23.7326 9.73078 23.4061V18.4266C9.73078 18.1 9.98095 17.8327 10.2867 17.8327H13.7425C14.0483 17.8327 14.2984 18.0999 14.2984 18.4266ZM24 18.4266V23.4061C24 23.7327 23.7497 24 23.4441 24H19.9882C19.6826 24 19.4324 23.7326 19.4324 23.4061V18.4266C19.4324 18.1 19.6825 17.8327 19.9882 17.8327H23.4441C23.7498 17.8327 24 18.0999 24 18.4266ZM11.9626 8.93702C11.9941 8.93358 12.0258 8.93358 12.0573 8.93702H16.6165C16.6715 8.93691 16.726 8.9252 16.7768 8.90256C16.8275 8.87991 16.8736 8.84678 16.9124 8.80507C16.9514 8.76366 16.9825 8.71442 17.0037 8.66018C17.0248 8.60594 17.0358 8.54776 17.0359 8.48898V1.45033C17.0359 1.32759 16.9886 1.21562 16.9124 1.13424C16.8736 1.09253 16.8275 1.0594 16.7768 1.03675C16.726 1.01411 16.6715 1.0024 16.6165 1.00229H7.40334C7.28845 1.00229 7.18364 1.05287 7.10747 1.13424C7.0313 1.21562 6.98395 1.32759 6.98395 1.45033V8.48898C6.98406 8.54776 6.99503 8.60594 7.01622 8.66018C7.03742 8.71442 7.06843 8.76366 7.10747 8.80507C7.18364 8.88644 7.28845 8.93702 7.40334 8.93702H11.9626Z" fill="#01A4BD"/>
</svg>
