<svg width="20" height="20" viewBox="0 0 20 20" fill="none" xmlns="http://www.w3.org/2000/svg">
<path d="M4.8597 9.74065C5.45294 10.8015 6.13593 11.8209 7.02401 12.7501C7.91407 13.6855 9.02024 14.5358 10.4543 15.2615C10.5606 15.313 10.6618 15.313 10.7515 15.2779C10.8877 15.2259 11.0267 15.1146 11.1637 14.9783C11.27 14.8733 11.4015 14.7053 11.54 14.5213C12.0907 13.8011 12.7737 12.9086 13.737 13.3551C13.7583 13.3648 13.7744 13.3758 13.7957 13.3855L17.0102 15.2197C17.0189 15.2244 17.0311 15.2361 17.0406 15.2404C17.4649 15.5298 17.6389 15.9762 17.6436 16.4809C17.6436 16.9957 17.4527 17.5737 17.1728 18.0627C16.8028 18.7072 16.2568 19.1341 15.6277 19.4176C15.0294 19.691 14.3629 19.8375 13.7224 19.9313C12.7167 20.0785 11.775 19.9848 10.8118 19.6907C9.86935 19.4008 8.92103 18.9239 7.88415 18.2889L7.80739 18.24C7.33224 17.9463 6.81853 17.6303 6.31504 17.2585C4.46841 15.8759 2.5891 13.8808 1.36523 11.6846C0.338576 9.84103 -0.221988 7.85103 0.0846693 5.95359C0.253941 4.91348 0.703494 3.96789 1.48726 3.34374C2.17025 2.79771 3.09101 2.49853 4.2826 2.6032C4.41959 2.61219 4.54163 2.69187 4.60501 2.80787L6.665 6.26449C6.96693 6.65234 7.00394 7.03589 6.83978 7.41983C6.7024 7.73581 6.42763 8.02522 6.0509 8.29707C5.93989 8.39081 5.80762 8.48611 5.66945 8.5861C5.20848 8.91809 4.68531 9.30086 4.86442 9.75198L4.8597 9.74065ZM8.69823 8.09045C8.38015 8.00921 8.18884 7.6862 8.27111 7.37061C8.35338 7.05503 8.67854 6.8652 8.99662 6.94684C9.96146 7.19642 10.8688 7.71471 11.603 8.39471C12.3415 9.07901 12.9143 9.93399 13.2036 10.8507C13.3012 11.1627 13.1257 11.4947 12.8115 11.5916C12.4974 11.6889 12.1624 11.5147 12.0648 11.203C11.8384 10.4855 11.3826 9.809 10.7909 9.26063C10.1945 8.70796 9.46507 8.28887 8.69823 8.09045ZM8.77735 4.46822C8.45259 4.41354 8.2345 4.10732 8.28961 3.7851C8.34433 3.46326 8.65335 3.24649 8.97772 3.30117C10.7968 3.61363 12.5238 4.52993 13.9082 5.81572C15.2935 7.1015 16.3418 8.76108 16.8028 10.5597C16.8839 10.8768 16.6906 11.1995 16.3709 11.2799C16.0513 11.3604 15.7261 11.1686 15.645 10.8515C15.2396 9.27039 14.3165 7.80923 13.0961 6.67655C11.8786 5.54583 10.365 4.74123 8.77735 4.46822ZM9.16077 1.17993C8.83364 1.14283 8.59863 0.849113 8.63603 0.524541C8.67343 0.19997 8.96906 -0.0335964 9.29619 0.00350862C11.8412 0.299177 14.2326 1.45724 16.1257 3.15978C18.0235 4.86622 19.4257 7.12455 19.9843 9.61293C20.0552 9.93086 19.8524 10.2464 19.5316 10.3168C19.2112 10.3871 18.8931 10.1859 18.8222 9.86759C18.3184 7.62371 17.0488 5.58176 15.3278 4.03468C13.6142 2.49384 11.4542 1.44592 9.16077 1.17993Z" fill="#232323"/>
</svg>
