<svg width="24" height="24" viewBox="0 0 24 24" fill="none" xmlns="http://www.w3.org/2000/svg">
<path d="M10.487 4.36364L6.93913 0H2.92174L6.46956 4.36364H10.487ZM20.9217 4.36364L17.3739 0H13.3565L16.9043 4.36364H20.9217ZM15.7043 4.36364L12.1565 0H8.13913L11.687 4.36364H15.7043ZM22.4348 0H18.5739L22.1217 4.36364H24V1.63636C24 0.709091 23.3217 0 22.4348 0ZM1.72174 0H1.56522C0.678261 0 0 0.709091 0 1.63636V4.36364H5.26957L1.72174 0ZM0 22.3636C0 23.2909 0.678261 24 1.56522 24H22.4348C23.3217 24 24 23.2909 24 22.3636V5.45455H0V22.3636ZM8.34783 10.3636C8.34783 9.43636 9.07826 9 9.91304 9C10.1739 9 10.487 9.05455 10.7478 9.21818L16.6957 12.8182C17.7391 13.4182 17.7391 14.9455 16.6957 15.5455L10.7478 19.1455C10.487 19.3091 10.2261 19.3636 9.91304 19.3636C9.07826 19.3636 8.34783 18.9273 8.34783 18V10.3636Z" fill="#01A4BD"/>
</svg>
