<svg width="30" height="30" viewBox="0 0 30 30" fill="none" xmlns="http://www.w3.org/2000/svg">
<path d="M14.625 1.27734C14.4727 1.34766 12.1406 3.64453 7.83984 7.94531C2.08594 13.7109 1.27734 14.5312 1.21875 14.7422C1.10156 15.1641 1.20703 15.375 1.89844 16.1016C2.71875 16.9453 2.88281 17.0625 3.25781 17.0625C3.43359 17.0625 3.60937 17.0273 3.69141 16.9688C3.77344 16.9219 6.33984 14.3672 9.41016 11.3086L15 5.74219L20.5781 11.3086C23.6484 14.3789 26.2148 16.9219 26.2969 16.9688C26.4727 17.0859 26.8828 17.0859 27.1289 16.9688C27.2344 16.9219 27.6328 16.5703 28.0078 16.1719C28.8047 15.3633 28.9102 15.1523 28.7578 14.7539C28.6992 14.5781 27.2461 13.0781 22.1367 7.95703C17.6602 3.45703 15.5273 1.34766 15.3633 1.27734C15.0703 1.13672 14.918 1.13672 14.625 1.27734Z" fill="#1C5540"/>
<path d="M5.55469 4.13672C5.4375 4.28906 5.4375 4.34766 5.4375 6.86719V9.43359L7.05469 7.81641L8.66016 6.21094V5.21484C8.66016 4.28906 8.64844 4.20703 8.54297 4.10156C8.4375 3.99609 8.35547 3.98438 7.05469 3.98438H5.67188L5.55469 4.13672Z" fill="#1C5540"/>
<path d="M9.79688 11.8828L4.62891 17.0742V21.7383V26.4023H8.02734H11.4258V21.7734V17.1445L11.5547 16.8867C11.6484 16.6992 11.7539 16.5938 11.9414 16.5C12.1992 16.3711 12.2109 16.3711 15 16.3711C17.7891 16.3711 17.8008 16.3711 18.0586 16.5C18.2461 16.5938 18.3516 16.6992 18.4453 16.8867L18.5742 17.1445V21.7734V26.4023H21.9727H25.3711V21.7148V17.0273L20.2148 11.8711C17.3789 9.03516 15.0352 6.71484 15.0117 6.70313C14.9883 6.70312 12.6328 9.03516 9.79688 11.8828Z" fill="#1C5540"/>
<path d="M1.42969 27.0469C1.23047 27.1406 1.17188 27.3398 1.17188 27.9023C1.17188 28.4766 1.23047 28.6641 1.44141 28.7578C1.64063 28.8516 28.3594 28.8516 28.5586 28.7578C28.7695 28.6641 28.8281 28.4648 28.8281 27.9023C28.8281 27.3281 28.7695 27.1406 28.5586 27.0469C28.3711 26.9531 1.60547 26.9648 1.42969 27.0469Z" fill="#1C5540"/>
</svg>
