<svg width="33" height="30" viewBox="0 0 33 30" fill="none" xmlns="http://www.w3.org/2000/svg">
<path d="M23.0024 0.608575C22.4353 0.940524 21.9651 1.24481 21.9374 1.28631C21.9098 1.38312 22.2417 2.37897 22.5598 3.11203L22.7949 3.63762L22.546 4.05255C22.4077 4.28768 22.2417 4.49515 22.1864 4.52282C22.131 4.53665 21.8544 4.57814 21.5778 4.6058C20.8586 4.67496 20.0564 4.84093 19.8904 4.95158C19.7521 5.0484 19.7383 5.07607 19.7383 6.25172V7.45504L19.9181 7.55186C20.1117 7.64868 20.9139 7.81465 21.564 7.88381C22.2555 7.96679 22.2555 7.96679 22.5183 8.39556C22.6428 8.61686 22.7673 8.83816 22.7673 8.86582C22.7673 8.90732 22.6151 9.29459 22.4353 9.72336C22.2555 10.1521 22.0619 10.6639 22.0066 10.8575C21.9098 11.1895 21.9098 11.2171 22.0342 11.314C22.2002 11.4523 24.0674 12.5034 24.1504 12.5034C24.2195 12.5034 24.9802 11.6321 25.4505 11.0235L25.7548 10.6224L26.2804 10.5947L26.7921 10.5809L27.2347 11.1756C27.7464 11.8534 28.355 12.5173 28.4518 12.5173C28.5348 12.5173 30.3467 11.4938 30.5403 11.3416L30.6786 11.231L30.5403 10.7607C30.4573 10.4979 30.2637 9.97232 30.0977 9.58505L29.7934 8.89349L29.9317 8.65836C30.0147 8.53387 30.1115 8.32641 30.1669 8.21576C30.2637 7.99446 30.3328 7.96679 30.9829 7.89764C31.633 7.82848 32.4352 7.66251 32.6288 7.56569L32.8086 7.46887V6.23789V5.00691L32.6288 4.93775C32.3245 4.81327 31.9511 4.74411 31.301 4.66113C30.1807 4.53665 30.2914 4.57814 30.0286 4.08022L29.7934 3.63762L30.1115 2.84924C30.568 1.75657 30.6786 1.3278 30.568 1.20332C30.3882 1.03734 28.5071 -0.0138312 28.4103 0.0138313C28.2859 0.0414938 27.6773 0.705393 27.1932 1.38312L26.8198 1.89488H26.2527C25.8516 1.89488 25.6718 1.86722 25.6441 1.81189C25.6026 1.71507 24.6345 0.484093 24.3717 0.207469C24.261 0.0968187 24.1227 0 24.0812 0C24.0812 0.0138312 23.5695 0.276625 23.0024 0.608575ZM27.1517 4.27385C27.8156 4.57814 28.2444 5.0899 28.4242 5.76763C28.6178 6.52834 28.4103 7.23374 27.8156 7.78699C27.3315 8.24342 26.9719 8.39556 26.3218 8.39556C25.8516 8.39556 25.7409 8.38173 25.3537 8.1881C24.8696 7.95296 24.5515 7.62101 24.3025 7.13692C24.178 6.88796 24.1504 6.73581 24.1504 6.21023C24.1504 5.491 24.261 5.21438 24.7451 4.74412C25.4228 4.08022 26.3357 3.90041 27.1517 4.27385Z" fill="#1C5540"/>
<path d="M9.15834 4.17703C8.99236 4.31534 8.81256 5.11755 8.68808 6.19639C8.57743 7.12308 8.57743 7.12308 8.3838 7.17841C8.28698 7.19224 7.99653 7.31672 7.73374 7.4412L7.26349 7.64867L6.23999 6.83263C5.03669 5.8921 4.98137 5.86444 4.45579 6.25172C4.04086 6.556 2.67159 7.9253 2.33964 8.34023C2.1875 8.53387 2.07685 8.74134 2.07685 8.83816C2.07685 8.94881 2.21516 9.18394 2.49178 9.51589C2.72691 9.79251 3.08652 10.2628 3.32164 10.5671L3.73657 11.1065L3.45995 11.7565C3.30781 12.1162 3.1695 12.4066 3.14184 12.4066C3.12801 12.4066 2.50561 12.5173 1.77257 12.6279C0.610763 12.8216 0.417129 12.863 0.30648 12.9875C0.195832 13.1258 0.182001 13.2642 0.195832 14.9377L0.209663 16.7358L0.375636 16.8603C0.486284 16.9433 0.942707 17.0401 1.84172 17.1646C2.56094 17.2752 3.14184 17.372 3.15567 17.3859C3.1695 17.3997 3.26632 17.6487 3.3908 17.9391C3.51528 18.2296 3.63976 18.5477 3.68125 18.6445C3.75041 18.7966 3.72274 18.8658 3.36314 19.3222C3.15567 19.5989 2.79607 20.0691 2.57477 20.3596C2.33964 20.65 2.15984 20.9543 2.15984 21.0235C2.15984 21.2448 2.65775 21.8672 3.65359 22.8492C4.58027 23.7759 4.82923 23.9557 5.06435 23.8865C5.13351 23.8727 5.67292 23.4993 6.23999 23.0567C7.20816 22.3236 7.29115 22.2683 7.45712 22.3374C7.55394 22.3651 7.81673 22.4758 8.05186 22.5864C8.28698 22.6971 8.50828 22.7939 8.54977 22.8215C8.59126 22.8492 8.70191 23.4716 8.81256 24.2047C8.9647 25.3388 9.02003 25.5463 9.1445 25.6846C9.28281 25.8229 9.31048 25.8229 11.0532 25.8229C13.2108 25.8229 13.0863 25.8782 13.28 24.8686C13.3491 24.5089 13.446 23.8865 13.4874 23.4993L13.5704 22.78L14.0407 22.6141C14.2896 22.5173 14.5939 22.4066 14.7046 22.3651C14.912 22.2821 14.912 22.2821 15.9217 23.0705C16.4749 23.4993 16.9867 23.8727 17.042 23.9004C17.1112 23.928 17.2771 23.9004 17.4016 23.8312C17.6644 23.7067 19.0337 22.4066 19.6423 21.7012C20.154 21.1203 20.154 21.0235 19.6146 20.3596C19.3933 20.083 19.0199 19.6127 18.7986 19.3222L18.3975 18.7966L18.6741 18.1327L18.9507 17.4827L20.2785 17.2614C21.2467 17.1092 21.6478 17.0124 21.7722 16.9294L21.9244 16.805V14.9931V13.1673L21.7722 13.029C21.6478 12.9045 21.4126 12.863 20.32 12.7109C18.8401 12.5034 19.0337 12.6279 18.6326 11.6597C18.4528 11.2448 18.4113 11.0788 18.4666 10.9958C18.4943 10.9267 18.8262 10.5117 19.172 10.0691C20.0848 8.92114 20.071 8.94881 19.9465 8.69984C19.8082 8.39556 18.8539 7.35821 18.0793 6.63899C17.1942 5.82295 17.2495 5.82295 15.9632 6.7773C15.41 7.17841 14.9259 7.53802 14.8844 7.56568C14.8291 7.59335 13.6673 7.17841 13.5843 7.08159C13.5704 7.06776 13.4736 6.54217 13.3906 5.90593C13.2938 5.28353 13.1832 4.64729 13.1417 4.52281C13.0172 4.08021 13.0034 4.08021 11.0532 4.08021C9.47645 4.06638 9.28282 4.06638 9.15834 4.17703ZM11.9937 10.7054C13.4321 11.0097 14.7461 12.213 15.2025 13.6376C15.3408 14.0802 15.3823 14.2877 15.3823 14.9239C15.3961 16.224 15.0365 17.0816 14.1237 17.9944C13.2662 18.8658 12.464 19.2254 11.3021 19.2807C9.72541 19.3637 8.3838 18.7137 7.47095 17.4274C6.47512 16.0166 6.44746 14.0249 7.41563 12.5726C8.02419 11.6597 9.07535 10.9128 10.0712 10.7054C10.6244 10.5809 11.4266 10.5809 11.9937 10.7054Z" fill="#1C5540"/>
<path d="M23.0574 17.9945C22.4765 18.3264 21.9924 18.6169 21.9648 18.6584C21.8956 18.7829 22.1861 19.6266 22.6425 20.6777L22.7946 21.0374L22.5318 21.48C22.3659 21.7566 22.2137 21.9364 22.1307 21.9502C22.0477 21.964 21.6466 22.0194 21.2179 22.0747C20.7891 22.13 20.2912 22.2268 20.1114 22.296L19.7656 22.4066V23.6515V24.8963L20.0008 25.0069C20.1944 25.1037 20.7476 25.2006 22.0063 25.3665C22.2552 25.3942 22.2967 25.4357 22.435 25.6708C22.518 25.823 22.6425 26.0166 22.6978 26.1134C22.7946 26.2656 22.7946 26.2932 22.5457 26.8603C22.4074 27.1784 22.1861 27.7178 22.0754 28.036C21.9233 28.5201 21.8956 28.6307 21.9648 28.6999C22.0063 28.7414 22.518 29.0595 23.0851 29.3914L24.1224 30L24.4129 29.6819C24.565 29.5021 24.9384 29.0595 25.2289 28.686L25.7683 28.0221H26.28H26.778L27.1514 28.4924C27.9536 29.5159 28.244 29.8617 28.3547 29.917C28.4377 29.9585 28.7005 29.834 29.4612 29.3914C30.0144 29.0733 30.5123 28.769 30.5538 28.7137C30.6506 28.6169 30.6368 28.5615 30.4847 28.0913C30.3879 27.8008 30.1942 27.2752 30.0421 26.9295L29.7793 26.2932L29.9176 26.0581C29.9868 25.9336 30.0974 25.7261 30.1527 25.6155C30.2357 25.4219 30.2772 25.408 30.623 25.3665C31.273 25.2974 32.4348 25.0899 32.6285 25.0069L32.8083 24.9378L32.7945 23.6791L32.7806 22.4205L32.4487 22.3098C32.2689 22.2545 31.7571 22.1577 31.3422 22.0885C30.9134 22.0332 30.4985 21.964 30.4155 21.9502C30.3187 21.9364 30.1942 21.7842 30.0421 21.4938L29.807 21.0512L30.1389 20.2628C30.5953 19.1701 30.706 18.7275 30.5953 18.6169C30.457 18.4924 28.5483 17.3997 28.4653 17.3997C28.3547 17.3997 27.6493 18.1881 27.1929 18.8105L26.8056 19.3361H26.2939H25.7821L25.2842 18.686C24.8001 18.0636 24.2192 17.4136 24.1362 17.4136C24.1086 17.4136 23.6245 17.6764 23.0574 17.9945ZM27.1929 21.6736C27.6216 21.8672 28.1057 22.3652 28.2994 22.8216C28.5345 23.3333 28.5483 24.0249 28.327 24.5228C28.1472 24.9378 27.594 25.4772 27.1652 25.6708C26.7088 25.8783 25.8651 25.8645 25.4087 25.657C24.9938 25.4495 24.5373 24.9931 24.3299 24.5781C24.1086 24.1079 24.0809 23.3887 24.2607 22.8907C24.4958 22.2683 25.1459 21.7151 25.8789 21.5353C26.2385 21.4385 26.8333 21.5076 27.1929 21.6736Z" fill="#1C5540"/>
</svg>
