<svg width="27" height="30" viewBox="0 0 27 30" fill="none" xmlns="http://www.w3.org/2000/svg">
<path d="M13.5 30C15.5696 30 17.2483 28.3213 17.2483 26.25H9.7518C9.7518 28.3213 11.4305 30 13.5 30ZM26.1206 21.2279C24.9885 20.0115 22.8704 18.1816 22.8704 12.1875C22.8704 7.63477 19.6782 3.99023 15.3739 3.09609V1.875C15.3739 0.839648 14.5348 0 13.5 0C12.4653 0 11.6262 0.839648 11.6262 1.875V3.09609C7.32192 3.99023 4.12973 7.63477 4.12973 12.1875C4.12973 18.1816 2.01156 20.0115 0.879533 21.2279C0.52797 21.6059 0.372111 22.0576 0.375041 22.5C0.381486 23.4609 1.13559 24.375 2.2559 24.375H24.7442C25.8645 24.375 26.6192 23.4609 26.625 22.5C26.628 22.0576 26.4721 21.6053 26.1206 21.2279Z" fill="#1C5540"/>
</svg>
