<svg width="31" height="30" viewBox="0 0 31 30" fill="none" xmlns="http://www.w3.org/2000/svg">
<path d="M28.0088 10.5486H26.9264C26.6303 10.5486 26.6204 10.3548 26.6102 10.2583C26.0426 4.91067 21.505 0.73053 16.0094 0.73053H14.9906C9.53563 0.73053 5.02459 4.84893 4.40301 10.1398C4.38713 10.2753 4.37882 10.5486 4.12953 10.5486H2.99115C2.244 10.5486 0.5 11.3348 0.5 15.3052V17.3889C0.5 20.3336 2.244 21.0128 2.99115 21.0128H6.61295C7.36009 21.0128 7.97137 20.4015 7.97137 19.6544V11.907C7.97137 11.1599 7.36009 10.5486 6.61295 10.5486C6.61295 10.5486 6.44243 10.5337 6.48589 10.2299C7.08354 6.04847 10.6516 2.80809 14.9906 2.80809H16.0094C20.3189 2.80809 23.8965 6.0006 24.5021 10.1448C24.5217 10.2784 24.5945 10.5486 24.3871 10.5486C23.6399 10.5486 23.0286 11.1599 23.0286 11.907V19.6544C23.0286 20.4015 23.6399 21.0128 24.3871 21.0128H25.0671C25.2541 21.0128 25.2224 21.1622 25.2057 21.2375C24.6516 23.7391 23.4076 26.5771 20.6154 26.5771H18.5472C18.3361 26.5771 18.284 26.4225 18.2439 26.3492C17.9088 25.737 17.259 25.3218 16.512 25.3218H14.6063C13.5162 25.3218 12.6324 26.2054 12.6324 27.2956C12.6324 28.3858 13.5162 29.2694 14.6063 29.2694H16.512C17.2692 29.2694 17.9266 28.8429 18.2575 28.2172C18.2864 28.1625 18.3101 28.0488 18.5335 28.0488H20.6154C22.512 28.0488 25.05 27.1064 26.3708 22.6164C26.5116 22.1379 26.6257 21.6611 26.7187 21.2015C26.7315 21.1383 26.7395 21.0129 26.9369 21.0129H28.0089C28.756 21.0129 30.5 20.3336 30.5 17.389V15.3053C30.4999 11.3914 28.7559 10.5486 28.0088 10.5486Z" fill="#1C5540"/>
</svg>
