<svg width="31" height="30" viewBox="0 0 31 30" fill="none" xmlns="http://www.w3.org/2000/svg">
<path d="M27.3348 21.4211C27.2643 21.1273 27.0292 21.096 26.9313 21.096C26.7668 21.096 26.6061 21.1704 26.5121 21.2919C26.4299 21.3976 26.4024 21.5308 26.4377 21.6797C26.6414 22.5141 26.3045 23.4112 25.4388 24.3396C24.9491 24.8645 24.3889 25.2994 23.8209 25.601L23.5937 25.7224V22.5376L25.4779 20.8296C25.6425 20.6807 25.6542 20.43 25.5054 20.2655C25.3565 20.101 25.1058 20.0892 24.9412 20.2381L23.5937 21.4603V20.5201L25.3957 18.8905C25.5602 18.7416 25.5719 18.4909 25.4231 18.3264C25.2742 18.1618 25.0235 18.1501 24.859 18.299L23.5937 19.4468V18.0482C23.5937 17.7388 23.3586 17.6017 23.1275 17.6017C22.8964 17.6017 22.6613 17.7388 22.6613 18.0482V20.2851L21.1766 21.6288C21.0121 21.7776 21.0003 22.0283 21.1492 22.1929C21.2275 22.279 21.3372 22.3221 21.4469 22.3221C21.5409 22.3221 21.6389 22.2869 21.7133 22.2203L22.6574 21.3624V22.3025L21.2589 23.5679C21.0943 23.7167 21.0826 23.9674 21.2315 24.132C21.3098 24.2182 21.4195 24.2612 21.5292 24.2612C21.6232 24.2612 21.7211 24.226 21.7956 24.1594L22.6613 23.3759V26.3649C22.6613 26.5843 22.7788 26.6979 22.8768 26.7488L22.8964 26.7606C22.9669 26.8154 23.0452 26.8428 23.1353 26.8428C23.1784 26.8428 23.2254 26.835 23.2763 26.8232C24.2674 26.5373 25.2938 25.8635 26.1674 24.9272C26.7628 24.2848 27.7148 22.9763 27.3348 21.4211Z" fill="#1C5540"/>
<path d="M11.0049 2.41602L8.60156 4.81933L8.61428 16.3654L8.62699 27.9114L8.83045 28.331C9.21193 29.1449 10.013 29.7807 10.8396 29.9332C11.2973 30.0223 27.828 30.0223 28.2858 29.9332C29.1123 29.7807 29.9007 29.1449 30.2949 28.331L30.4984 27.9114V15.0048V2.08541L30.2949 1.66578C29.9134 0.851966 29.1123 0.21617 28.2858 0.0635795C28.0569 0.0254318 25.2848 0 20.6817 0H13.4209L11.0049 2.41602ZM28.2222 1.32245C28.5783 1.42418 29.0487 1.86924 29.1886 2.22528C29.2903 2.50503 29.3031 3.07725 29.3031 15.0048C29.3031 26.9323 29.3031 27.5045 29.1886 27.7843C29.0487 28.1403 28.5783 28.5854 28.2222 28.6871C27.8662 28.7888 11.2465 28.7888 10.8904 28.6871C10.5598 28.5854 10.0766 28.1403 9.93673 27.8097C9.82229 27.5554 9.82229 27.1103 9.79686 16.1873L9.78414 4.84476H11.6152H13.4463V3.05182V1.24616H20.7071C26.1368 1.24616 28.0315 1.25887 28.2222 1.32245Z" fill="#1C5540"/>
<path d="M20.7052 3.11441C20.6162 3.21614 20.6035 3.55947 20.6035 6.71301C20.6035 9.8157 20.6162 10.2099 20.7052 10.2862C20.7815 10.3498 21.5063 10.3625 24.2911 10.3625C27.5973 10.3625 27.788 10.3625 27.877 10.248C27.9406 10.159 27.9533 9.45965 27.9533 6.66215V3.19071L27.8134 3.1017C27.6863 3.01269 27.2412 2.99997 24.2403 2.99997C20.985 2.99997 20.7943 2.99997 20.7052 3.11441Z" fill="#1C5540"/>
<path d="M11.8185 11.9402C11.6786 12.0928 11.6659 13.021 11.8058 13.1355C11.9457 13.2499 27.2938 13.2499 27.4336 13.1355C27.5862 13.0083 27.5608 12.0674 27.4209 11.9402C27.3192 11.8385 26.6834 11.8385 19.6134 11.8385C12.2254 11.8257 11.9075 11.8385 11.8185 11.9402Z" fill="#1C5540"/>
<path d="M11.845 15.3481C11.7178 15.4372 11.7051 15.5007 11.7051 15.9585C11.7051 16.429 11.7178 16.4926 11.845 16.5689C11.9721 16.6579 12.8114 16.6706 19.6144 16.6706C26.4174 16.6706 27.2566 16.6579 27.3838 16.5689C27.511 16.4799 27.5237 16.4163 27.5237 15.9585C27.5237 15.488 27.511 15.4244 27.3838 15.3481C27.2566 15.2591 26.4174 15.2464 19.6144 15.2464C12.8114 15.2464 11.9721 15.2591 11.845 15.3481Z" fill="#1C5540"/>
<path d="M11.6723 19.0714C11.608 19.1339 11.6016 19.1786 11.6016 19.5C11.6016 19.8304 11.608 19.875 11.6723 19.9286C11.7366 19.9911 12.161 20 15.6016 20C19.0421 20 19.4665 19.9911 19.5308 19.9286C19.5951 19.8661 19.6016 19.8214 19.6016 19.5C19.6016 19.1696 19.5951 19.125 19.5308 19.0714C19.4665 19.0089 19.0421 19 15.6016 19C12.161 19 11.7366 19.0089 11.6723 19.0714Z" fill="#1C5540"/>
<path d="M11.6412 22.1239C11.5834 22.2891 11.5898 23.6839 11.654 23.849C11.699 23.9775 12.0971 23.9959 15.5906 23.9959C20.0858 23.9959 19.5849 24.1243 19.5849 22.9498C19.5849 22.5093 19.5721 22.1789 19.5464 22.1239C19.5014 21.9587 11.699 21.9587 11.6412 22.1239Z" fill="#1C5540"/>
<path d="M12.1041 8.2008C12.0463 8.36598 12.0527 9.76078 12.1169 9.92596C12.1619 10.0544 12.56 10.0728 16.0535 10.0728C20.5487 10.0728 20.0478 10.2012 20.0478 9.02667C20.0478 8.58621 20.035 8.25586 20.0093 8.2008C19.9643 8.03563 12.1619 8.03563 12.1041 8.2008Z" fill="#1C5540"/>
<path d="M11.6412 26.0555C11.5834 26.1389 11.5898 26.8426 11.6541 26.9259C11.6991 26.9907 12.0977 27 15.6016 27C19.1054 27 19.504 26.9907 19.549 26.9259C19.6133 26.8426 19.6198 26.1389 19.5619 26.0555C19.5105 25.9815 11.6991 25.9815 11.6412 26.0555Z" fill="#1C5540"/>
<g clip-path="url(#clip0_1092_192)">
<rect x="0.5" y="9.20737" width="15.0563" height="20.7926" rx="1.5" fill="white"/>
<path d="M1.91773 9.28001C1.77684 9.31524 1.59192 9.38568 1.49505 9.42971C1.17804 9.59702 0.799396 10.0021 0.649698 10.3367L0.5 10.6537V19.6004V28.547L0.640893 28.8376C0.89626 29.3924 1.38058 29.7887 1.94415 29.9207C2.36682 30.0264 13.691 30.0264 14.1137 29.9207C14.6773 29.7887 15.1616 29.3924 15.417 28.8376L15.5579 28.547V19.6004V10.6537L15.417 10.3631C15.1704 9.82597 14.6949 9.42971 14.1489 9.28001C13.7703 9.18315 2.30518 9.18315 1.91773 9.28001ZM13.1715 11.1997C13.3916 11.323 13.5854 11.5607 13.647 11.7985C13.6822 11.9217 13.6999 12.4149 13.691 13.0753C13.6734 14.3081 13.6382 14.4314 13.2508 14.7044L13.0306 14.8541H8.02013H3.00964L2.7895 14.7044C2.40205 14.4314 2.36682 14.3081 2.34921 13.0753C2.3316 11.9129 2.36682 11.6928 2.56936 11.4374C2.71905 11.2613 2.85114 11.1821 3.07129 11.1292C3.15934 11.1116 5.42243 11.1028 8.11699 11.1028C12.6344 11.1116 13.0218 11.1204 13.1715 11.1997ZM6.64643 16.9322C7.05149 17.1964 7.0603 17.2404 7.0603 19.1337C7.0603 21.0005 7.0603 20.9917 6.68165 21.2999L6.48793 21.4496H4.72677H2.96562L2.78069 21.3263C2.67503 21.2647 2.55174 21.1062 2.4813 21.0005C2.36682 20.8068 2.36682 20.7539 2.34921 19.2393C2.3316 17.5662 2.35802 17.3813 2.57816 17.1172C2.86875 16.7737 2.9392 16.7649 4.7796 16.7737L6.43509 16.7825L6.64643 16.9322ZM13.1099 16.853C13.3652 16.9675 13.5678 17.2052 13.6382 17.4694C13.6734 17.6015 13.691 18.2267 13.6822 19.2305C13.6646 20.7451 13.6646 20.7892 13.5502 20.9917C13.4885 21.1062 13.3564 21.2559 13.2508 21.3175L13.0658 21.4408H11.3047H9.54353L9.3498 21.2823C8.97996 20.9917 8.97996 20.9829 8.97996 19.1161C8.97996 17.5574 8.98876 17.443 9.08563 17.258C9.1913 17.0467 9.41144 16.8706 9.63159 16.8001C9.71084 16.7737 10.4769 16.7561 11.3399 16.7561C12.7576 16.7649 12.9338 16.7737 13.1099 16.853ZM6.52315 23.4573C6.72568 23.5718 6.93702 23.7919 6.99866 23.968C7.03388 24.0561 7.05149 24.7165 7.05149 25.7556C7.05149 27.0941 7.03388 27.4287 6.98105 27.5432C6.87538 27.7281 6.58479 27.9923 6.39987 28.0363C6.32062 28.0627 5.54571 28.0803 4.66513 28.0803C3.14173 28.0803 3.06248 28.0715 2.86875 27.9747C2.75428 27.9218 2.60458 27.7721 2.51652 27.6577L2.36682 27.4375L2.34921 25.8525C2.34041 24.8046 2.35802 24.1882 2.39324 24.0561C2.47249 23.7743 2.78069 23.4661 3.06248 23.4045C3.18576 23.3781 3.94306 23.3604 4.82363 23.3604C6.16211 23.3692 6.39106 23.3869 6.52315 23.4573ZM12.9426 23.4045C13.2596 23.4749 13.5413 23.7303 13.6382 24.0385C13.7263 24.3291 13.7263 27.1381 13.6382 27.4199C13.5502 27.7281 13.2596 27.9835 12.9426 28.0539C12.6255 28.1156 10.0102 28.1332 9.72845 28.0627C9.46428 28.0011 9.20891 27.8162 9.08563 27.596C8.97996 27.4199 8.97996 27.3318 8.97996 25.7292C8.97996 24.3643 8.99757 24.0209 9.0504 23.9064C9.15607 23.7127 9.45547 23.4573 9.63159 23.4133C9.71084 23.3957 9.79009 23.3781 9.81651 23.3692C9.9574 23.3252 12.7048 23.3516 12.9426 23.4045Z" fill="#1C5540"/>
<path d="M4.26157 18.1826L4.27918 18.6405H3.79486H3.31055V19.1248V19.6091H3.78606C4.20874 19.6091 4.26157 19.6179 4.26157 19.6972C4.25276 19.75 4.26157 19.9613 4.27038 20.1815L4.27918 20.5777H4.73708H5.19498V20.0934V19.6003H5.6793H6.16362L6.14601 19.1248L6.12839 18.6581L5.66169 18.6405L5.18618 18.6229V18.1738V17.7159H4.71947H4.24396L4.26157 18.1826Z" fill="#1C5540"/>
<path d="M9.93171 18.667C9.9141 18.6846 9.89648 18.896 9.89648 19.1513V19.6004H11.3142H12.7319V19.1161V18.6318H11.3494C10.5833 18.6318 9.94932 18.6494 9.93171 18.667Z" fill="#1C5540"/>
<path d="M5.05293 24.6812L4.72712 25.0422L4.4013 24.69L4.07549 24.3378L3.89057 24.5139C3.7849 24.6107 3.6352 24.7692 3.55595 24.8749L3.41506 25.0598L3.74087 25.3856L4.06668 25.7115L3.74087 26.0285C3.55595 26.2046 3.40625 26.3631 3.40625 26.3807C3.40625 26.3983 3.55595 26.5392 3.74087 26.7065L4.07549 27.0059L4.4013 26.6801L4.72712 26.3631L5.05293 26.6801L5.37874 27.0059L5.6253 26.8034C5.75739 26.6889 5.91589 26.548 5.96873 26.4864L6.0744 26.3719L5.74859 26.0461L5.42277 25.7203L5.73978 25.3945C5.91589 25.2183 6.05679 25.051 6.04798 25.0158C6.03918 24.9894 5.88948 24.8221 5.71336 24.6284L5.39635 24.3025L5.05293 24.6812Z" fill="#1C5540"/>
<path d="M9.89648 24.7957V25.2801H11.3142H12.7319V24.7957V24.3114H11.3142H9.89648V24.7957Z" fill="#1C5540"/>
<path d="M9.89648 26.6715V27.1558H11.3142H12.7319V26.6715V26.1871H11.3142H9.89648V26.6715Z" fill="#1C5540"/>
<path d="M4.43262 12.7552V12.1615L4.05469 12.7552H4.43262ZM4.67676 13.2074H4.43262V12.9915H3.80859V12.7552L4.42285 11.7855H4.67676V12.7552H4.79688V12.9915H4.67676V13.2074ZM4.99707 12.7513H5.2627V12.7611C5.2627 12.8275 5.2806 12.8809 5.31641 12.9212C5.35221 12.9616 5.39909 12.9818 5.45703 12.9818C5.52083 12.9818 5.57259 12.9593 5.6123 12.9144C5.65267 12.8688 5.67285 12.8099 5.67285 12.7376C5.67285 12.6641 5.65072 12.6087 5.60645 12.5716C5.56217 12.5339 5.49642 12.515 5.40918 12.515C5.40527 12.515 5.39876 12.5153 5.38965 12.516C5.38053 12.5166 5.3737 12.5169 5.36914 12.5169V12.2816C5.3737 12.2816 5.38021 12.2819 5.38867 12.2826C5.39714 12.2832 5.40332 12.2835 5.40723 12.2835C5.46647 12.2835 5.50977 12.2718 5.53711 12.2484C5.5651 12.2249 5.5791 12.1878 5.5791 12.1371C5.5791 12.0954 5.56836 12.0632 5.54688 12.0404C5.52539 12.0169 5.49544 12.0052 5.45703 12.0052C5.42253 12.0052 5.39551 12.0173 5.37598 12.0414C5.3571 12.0648 5.34668 12.098 5.34473 12.141H5.09863C5.09863 12.0257 5.13281 11.933 5.20117 11.8626C5.27018 11.7923 5.36068 11.7572 5.47266 11.7572C5.57227 11.7572 5.6569 11.792 5.72656 11.8617C5.79622 11.9313 5.83105 12.0147 5.83105 12.1117C5.83105 12.1696 5.81966 12.2201 5.79688 12.263C5.77409 12.306 5.73861 12.3441 5.69043 12.3773C5.77181 12.4137 5.83236 12.4639 5.87207 12.5277C5.91243 12.5908 5.93262 12.6686 5.93262 12.7611C5.93262 12.8229 5.92285 12.8799 5.90332 12.932C5.88379 12.9834 5.85352 13.0326 5.8125 13.0794C5.76367 13.1354 5.71257 13.1755 5.65918 13.1996C5.60579 13.2236 5.54102 13.2357 5.46484 13.2357C5.31836 13.2357 5.20378 13.1934 5.12109 13.1087C5.03841 13.0241 4.99707 12.9069 4.99707 12.7572V12.7513ZM6.15918 12.7513H6.4248V12.7611C6.4248 12.8275 6.44271 12.8809 6.47852 12.9212C6.51432 12.9616 6.5612 12.9818 6.61914 12.9818C6.68294 12.9818 6.7347 12.9593 6.77441 12.9144C6.81478 12.8688 6.83496 12.8099 6.83496 12.7376C6.83496 12.6641 6.81283 12.6087 6.76855 12.5716C6.72428 12.5339 6.65853 12.515 6.57129 12.515C6.56738 12.515 6.56087 12.5153 6.55176 12.516C6.54264 12.5166 6.53581 12.5169 6.53125 12.5169V12.2816C6.53581 12.2816 6.54232 12.2819 6.55078 12.2826C6.55924 12.2832 6.56543 12.2835 6.56934 12.2835C6.62858 12.2835 6.67188 12.2718 6.69922 12.2484C6.72721 12.2249 6.74121 12.1878 6.74121 12.1371C6.74121 12.0954 6.73047 12.0632 6.70898 12.0404C6.6875 12.0169 6.65755 12.0052 6.61914 12.0052C6.58464 12.0052 6.55762 12.0173 6.53809 12.0414C6.51921 12.0648 6.50879 12.098 6.50684 12.141H6.26074C6.26074 12.0257 6.29492 11.933 6.36328 11.8626C6.43229 11.7923 6.52279 11.7572 6.63477 11.7572C6.73438 11.7572 6.81901 11.792 6.88867 11.8617C6.95833 11.9313 6.99316 12.0147 6.99316 12.1117C6.99316 12.1696 6.98177 12.2201 6.95898 12.263C6.9362 12.306 6.90072 12.3441 6.85254 12.3773C6.93392 12.4137 6.99447 12.4639 7.03418 12.5277C7.07454 12.5908 7.09473 12.6686 7.09473 12.7611C7.09473 12.8229 7.08496 12.8799 7.06543 12.932C7.0459 12.9834 7.01562 13.0326 6.97461 13.0794C6.92578 13.1354 6.87467 13.1755 6.82129 13.1996C6.7679 13.2236 6.70312 13.2357 6.62695 13.2357C6.48047 13.2357 6.36589 13.1934 6.2832 13.1087C6.20052 13.0241 6.15918 12.9069 6.15918 12.7572V12.7513ZM8.25293 13.2074H7.31543V12.9417L7.83105 12.4593C7.87988 12.4137 7.91667 12.3688 7.94141 12.3246C7.96615 12.2803 7.97852 12.238 7.97852 12.1976C7.97852 12.1442 7.96126 12.1003 7.92676 12.0658C7.8929 12.0306 7.84896 12.013 7.79492 12.013C7.73763 12.013 7.69336 12.0316 7.66211 12.0687C7.63086 12.1058 7.61523 12.1579 7.61523 12.2249V12.2494H7.33496V12.2455C7.33496 12.099 7.3776 11.9815 7.46289 11.8929C7.54818 11.8037 7.66081 11.7591 7.80078 11.7591C7.93034 11.7591 8.03906 11.8018 8.12695 11.8871C8.21484 11.9723 8.25879 12.0765 8.25879 12.1996C8.25879 12.2673 8.24154 12.3333 8.20703 12.3978C8.17253 12.4622 8.11914 12.5267 8.04688 12.5912L7.64941 12.9515H8.25293V13.2074ZM8.78711 12.9398V13.1937C8.78711 13.2855 8.76693 13.3529 8.72656 13.3958C8.68685 13.4388 8.6237 13.4613 8.53711 13.4632V13.3197C8.56706 13.3158 8.58822 13.306 8.60059 13.2904C8.61296 13.2754 8.61914 13.251 8.61914 13.2171V13.2074H8.53711V12.9398H8.78711ZM9.31543 12.2816V12.7093C9.31543 12.8018 9.33301 12.8705 9.36816 12.9154C9.40397 12.9596 9.45898 12.9818 9.5332 12.9818C9.60807 12.9818 9.66341 12.959 9.69922 12.9134C9.73503 12.8678 9.75293 12.7972 9.75293 12.7015V12.2611C9.75293 12.2207 9.75098 12.1904 9.74707 12.1703C9.74382 12.1501 9.73796 12.1325 9.72949 12.1175C9.70931 12.0837 9.68229 12.0576 9.64844 12.0394C9.61523 12.0205 9.57747 12.0111 9.53516 12.0111C9.46224 12.0111 9.40723 12.0339 9.37012 12.0794C9.33366 12.1244 9.31543 12.1917 9.31543 12.2816ZM9.03711 12.2835C9.03711 12.195 9.04395 12.127 9.05762 12.0794C9.07129 12.0313 9.09375 11.9873 9.125 11.9476C9.17383 11.8831 9.2321 11.8353 9.2998 11.804C9.36751 11.7728 9.44596 11.7572 9.53516 11.7572C9.61849 11.7572 9.69499 11.7738 9.76465 11.807C9.83496 11.8395 9.89583 11.8877 9.94727 11.9515C9.97656 11.988 9.99772 12.0322 10.0107 12.0843C10.0244 12.1364 10.0312 12.2041 10.0312 12.2874V12.7093C10.0312 12.7979 10.0244 12.8665 10.0107 12.9154C9.99707 12.9636 9.97461 13.0075 9.94336 13.0472C9.89453 13.111 9.83626 13.1585 9.76855 13.1898C9.7015 13.2204 9.62305 13.2357 9.5332 13.2357C9.44987 13.2357 9.37305 13.2194 9.30273 13.1869C9.23307 13.1537 9.17253 13.1052 9.12109 13.0414C9.0918 13.0049 9.07031 12.9609 9.05664 12.9095C9.04362 12.8574 9.03711 12.79 9.03711 12.7074V12.2835ZM11.0537 11.7855V12.0316H10.5654L10.5215 12.2757C10.5508 12.2588 10.5817 12.2461 10.6143 12.2376C10.6468 12.2292 10.681 12.2249 10.7168 12.2249C10.8477 12.2249 10.959 12.2738 11.0508 12.3714C11.1432 12.4691 11.1895 12.5869 11.1895 12.7249C11.1895 12.7874 11.1784 12.8473 11.1562 12.9046C11.1348 12.9613 11.1032 13.0134 11.0615 13.0609C11.0114 13.1195 10.9541 13.1637 10.8896 13.1937C10.8258 13.223 10.7565 13.2376 10.6816 13.2376C10.5469 13.2376 10.4329 13.194 10.3398 13.1068C10.2474 13.0189 10.1953 12.905 10.1836 12.765H10.4512C10.459 12.8288 10.484 12.8805 10.5264 12.9203C10.5687 12.96 10.6198 12.9798 10.6797 12.9798C10.7448 12.9798 10.7988 12.9557 10.8418 12.9076C10.8854 12.8587 10.9072 12.7972 10.9072 12.723C10.9072 12.6494 10.8854 12.5902 10.8418 12.5453C10.7982 12.4997 10.7406 12.4769 10.6689 12.4769C10.626 12.4769 10.5889 12.4857 10.5576 12.5033C10.527 12.5202 10.5023 12.5456 10.4834 12.5794L10.2471 12.5257L10.3828 11.7855H11.0537Z" fill="#1C5540"/>
</g>
<defs>
<clipPath id="clip0_1092_192">
<rect x="0.5" y="9.20737" width="15.0563" height="20.7926" rx="1.5" fill="white"/>
</clipPath>
</defs>
</svg>
