<svg width="31" height="30" viewBox="0 0 31 30" fill="none" xmlns="http://www.w3.org/2000/svg">
<path d="M14.1705 1.23031L14.1959 2.47331L13.2034 3.17091C12.6563 3.55141 12.2109 3.86851 12.2109 3.88119C12.2109 3.89387 12.7326 4.07144 13.3688 4.27438L14.5268 4.62952L14.8703 5.74568C15.0612 6.3545 15.2393 6.87452 15.252 6.89989C15.2775 6.92526 15.5956 6.5067 15.9773 5.97399L16.6644 4.99735L17.9114 5.01003H19.1584L18.4586 4.08413C18.0768 3.57678 17.746 3.13285 17.7206 3.0948C17.7078 3.05675 17.8605 2.52404 18.0641 1.90254C18.2804 1.26836 18.4331 0.761017 18.4204 0.748334C18.4077 0.73565 17.8987 0.900537 17.2752 1.11616C16.6517 1.33178 16.1173 1.48398 16.0791 1.45862C16.041 1.43325 15.5829 1.09079 15.0739 0.710283L14.1323 0L14.1705 1.23031Z" fill="#1C5540"/>
<path d="M6.87812 10.1342C6.89084 11.5548 6.91629 13.3432 6.92901 14.1042L6.94174 15.5121L3.79884 17.7444C2.06833 18.9747 0.605037 19.9894 0.566864 20.0274C0.515967 20.0528 0.490518 20.0909 0.503243 20.1035C0.515967 20.1162 2.23375 20.6616 4.29508 21.2958L8.06148 22.4627L9.23211 26.2171C9.86833 28.2718 10.4155 29.9841 10.4282 29.9968C10.4409 30.0095 10.4791 29.9841 10.5045 29.9334C10.53 29.8826 11.5607 28.4367 12.7949 26.7117L15.0217 23.5662L16.4086 23.5789C17.1721 23.5789 18.9535 23.6042 20.3913 23.6296L22.9998 23.6676L21.9691 22.2978C21.4093 21.5368 20.3277 20.1035 19.5897 19.1015L18.2282 17.2878L19.4879 13.5715C20.1877 11.5294 20.7349 9.8425 20.7222 9.82981C20.7094 9.81713 20.4168 9.89323 20.0859 10.0074C19.7551 10.1215 18.0755 10.6923 16.3577 11.2631L13.2275 12.3158L10.67 10.4133C9.27028 9.36052 7.83244 8.29509 7.47616 8.04142L6.83994 7.57213L6.87812 10.1342Z" fill="#1C5540"/>
<path d="M27.4284 12.3665L26.4232 13.1022L25.2398 12.709C24.5909 12.4933 24.0438 12.3158 24.0183 12.3158C23.9929 12.3158 24.1583 12.8612 24.3873 13.5207L24.7945 14.7257L24.031 15.7277L23.2676 16.7424L24.5527 16.755L25.8379 16.7677L26.5632 17.7951C26.9576 18.3532 27.3012 18.8098 27.3139 18.7971C27.3266 18.7844 27.5048 18.239 27.7084 17.5922C27.9119 16.9453 28.0901 16.4126 28.1028 16.3999C28.1155 16.3999 28.65 16.2223 29.2989 16.0194C29.9351 15.8165 30.4823 15.6389 30.495 15.6262C30.5077 15.6135 30.495 15.5755 30.4441 15.5501C30.3932 15.5247 29.9351 15.195 29.4134 14.8398L28.4718 14.1676V12.8992C28.4718 12.2016 28.4591 11.6309 28.4464 11.6309C28.4336 11.6309 27.9883 11.9606 27.4284 12.3665Z" fill="#1C5540"/>
</svg>
