<svg width="133" height="66" viewBox="0 0 133 66" fill="none" xmlns="http://www.w3.org/2000/svg">
<rect width="133" height="66" fill="#1C5540"/>
<path d="M13.4656 36.3344C13.4656 36.8656 13.4719 37.3312 13.4844 37.7312C13.5031 38.125 13.5219 38.4656 13.5406 38.7531C13.5656 39.0406 13.5937 39.2812 13.625 39.475C13.6625 39.6687 13.7 39.8312 13.7375 39.9625V40H11.4875V39.9625C11.525 39.8312 11.5594 39.6687 11.5906 39.475C11.6281 39.2812 11.6594 39.0406 11.6844 38.7531C11.7094 38.4656 11.7281 38.125 11.7406 37.7312C11.7531 37.3312 11.7594 36.8656 11.7594 36.3344V30.2312C11.7594 29.7 11.7531 29.2375 11.7406 28.8437C11.7281 28.4437 11.7094 28.1 11.6844 27.8125C11.6594 27.5187 11.6281 27.275 11.5906 27.0812C11.5594 26.8875 11.525 26.725 11.4875 26.5937V26.5562C12.0062 26.5562 12.5312 26.5562 13.0625 26.5562C13.5937 26.55 14.1094 26.5469 14.6094 26.5469C15.1094 26.5406 15.5844 26.5344 16.0344 26.5281C16.4844 26.5156 16.8906 26.5062 17.2531 26.5C17.6156 26.4875 17.9219 26.475 18.1719 26.4625C18.4219 26.4437 18.6 26.425 18.7062 26.4062L18.2469 27.6531C18.0406 27.5969 17.8 27.5469 17.525 27.5031C17.2875 27.4656 16.9969 27.4312 16.6531 27.4C16.3156 27.3625 15.925 27.3437 15.4812 27.3437C15.3312 27.3437 15.1437 27.35 14.9187 27.3625C14.6937 27.3687 14.4719 27.3781 14.2531 27.3906C14.0031 27.4031 13.7406 27.4156 13.4656 27.4281V32.1625C14.1094 32.1562 14.7 32.1375 15.2375 32.1062C15.775 32.075 16.2375 32.0437 16.625 32.0125C17.075 31.975 17.4812 31.9312 17.8437 31.8812L17.5625 33.2406C17.0937 33.1844 16.6187 33.1312 16.1375 33.0812C15.725 33.0375 15.2812 33 14.8062 32.9687C14.3312 32.9312 13.8844 32.9125 13.4656 32.9125V36.3344ZM20.5906 34.0656C20.5906 33.5344 20.5812 33.0719 20.5625 32.6781C20.55 32.2781 20.5312 31.9344 20.5062 31.6469C20.4875 31.3594 20.4594 31.1187 20.4219 30.925C20.3906 30.7312 20.3562 30.5687 20.3187 30.4375V30.4H22.4844V30.4375C22.4469 30.5687 22.4125 30.7312 22.3812 30.925C22.35 31.1187 22.3219 31.3594 22.2969 31.6469C22.2719 31.9344 22.2531 32.2781 22.2406 32.6781C22.2281 33.0719 22.2219 33.5344 22.2219 34.0656V36.3344C22.2219 36.8656 22.2281 37.3312 22.2406 37.7312C22.2531 38.125 22.2719 38.4656 22.2969 38.7531C22.3219 39.0406 22.35 39.2812 22.3812 39.475C22.4125 39.6687 22.4469 39.8312 22.4844 39.9625V40H20.3187V39.9625C20.3562 39.8312 20.3906 39.6687 20.4219 39.475C20.4594 39.2812 20.4875 39.0406 20.5062 38.7531C20.5312 38.4656 20.55 38.125 20.5625 37.7312C20.5812 37.3312 20.5906 36.8656 20.5906 36.3344V34.0656ZM20.3937 27.5594C20.3937 27.4219 20.4187 27.2937 20.4687 27.175C20.525 27.05 20.5969 26.9437 20.6844 26.8562C20.7719 26.7625 20.875 26.6906 20.9937 26.6406C21.1187 26.5844 21.2531 26.5562 21.3969 26.5562C21.5406 26.5562 21.6719 26.5844 21.7906 26.6406C21.9156 26.6906 22.0219 26.7625 22.1094 26.8562C22.2031 26.9437 22.275 27.05 22.325 27.175C22.3812 27.2937 22.4094 27.4219 22.4094 27.5594C22.4094 27.8469 22.3125 28.0875 22.1187 28.2812C21.925 28.475 21.6844 28.5719 21.3969 28.5719C21.2531 28.5719 21.1187 28.5469 20.9937 28.4969C20.875 28.4406 20.7719 28.3687 20.6844 28.2812C20.5969 28.1875 20.525 28.0812 20.4687 27.9625C20.4187 27.8375 20.3937 27.7031 20.3937 27.5594ZM25.1656 34.0656C25.1656 33.5344 25.1562 33.0719 25.1375 32.6781C25.125 32.2781 25.1062 31.9344 25.0812 31.6469C25.0625 31.3594 25.0344 31.1187 24.9969 30.925C24.9656 30.7312 24.9312 30.5687 24.8937 30.4375V30.4H27.0594V30.4375C27.0094 30.5812 26.9656 30.7562 26.9281 30.9625C26.8969 31.1687 26.8719 31.4344 26.8531 31.7594C27.0844 31.5656 27.325 31.375 27.575 31.1875C27.825 31 28.0812 30.8344 28.3437 30.6906C28.6062 30.5469 28.8719 30.4312 29.1406 30.3437C29.4156 30.2562 29.6906 30.2125 29.9656 30.2125C30.1344 30.2125 30.2812 30.2219 30.4062 30.2406C30.5312 30.2531 30.6437 30.275 30.7437 30.3062C30.8437 30.3312 30.9344 30.3625 31.0156 30.4C31.0969 30.4312 31.175 30.4625 31.25 30.4937L30.7906 32.2844L30.6312 32.2469C30.5562 31.9719 30.4156 31.7531 30.2094 31.5906C30.0031 31.4219 29.7219 31.3375 29.3656 31.3375C29.1719 31.3375 28.9687 31.3719 28.7562 31.4406C28.5437 31.5094 28.3281 31.6062 28.1094 31.7312C27.8906 31.85 27.6719 31.9906 27.4531 32.1531C27.2344 32.3094 27.0219 32.475 26.8156 32.65C26.8031 32.8312 26.7969 33.0281 26.7969 33.2406C26.7969 33.4531 26.7969 33.6781 26.7969 33.9156V36.3344C26.7969 36.8656 26.8031 37.3312 26.8156 37.7312C26.8281 38.125 26.8469 38.4656 26.8719 38.7531C26.8969 39.0406 26.925 39.2812 26.9562 39.475C26.9875 39.6687 27.0219 39.8312 27.0594 39.9625V40H24.8937V39.9625C24.9312 39.8312 24.9656 39.6687 24.9969 39.475C25.0344 39.2812 25.0625 39.0406 25.0812 38.7531C25.1062 38.4656 25.125 38.125 25.1375 37.7312C25.1562 37.3312 25.1656 36.8656 25.1656 36.3344V34.0656ZM38.9562 33.6812C38.9562 33.2687 38.9125 32.9125 38.825 32.6125C38.7437 32.3125 38.6219 32.0656 38.4594 31.8719C38.3031 31.6719 38.1125 31.525 37.8875 31.4312C37.6625 31.3312 37.4125 31.2812 37.1375 31.2812C36.95 31.2812 36.7406 31.3187 36.5094 31.3937C36.2781 31.4687 36.0375 31.5719 35.7875 31.7031C35.5437 31.8281 35.2969 31.975 35.0469 32.1437C34.8031 32.3125 34.5719 32.4937 34.3531 32.6875C34.3406 32.8875 34.3344 33.1031 34.3344 33.3344C34.3344 33.5594 34.3344 33.8031 34.3344 34.0656V36.3344C34.3344 36.8656 34.3406 37.3312 34.3531 37.7312C34.3656 38.125 34.3844 38.4656 34.4094 38.7531C34.4344 39.0406 34.4625 39.2812 34.4937 39.475C34.525 39.6687 34.5594 39.8312 34.5969 39.9625V40H32.4312V39.9625C32.4687 39.8312 32.5031 39.6687 32.5344 39.475C32.5719 39.2812 32.6 39.0406 32.6187 38.7531C32.6437 38.4656 32.6625 38.125 32.675 37.7312C32.6937 37.3312 32.7031 36.8656 32.7031 36.3344V34.0656C32.7031 33.5344 32.6937 33.0719 32.675 32.6781C32.6625 32.2781 32.6437 31.9344 32.6187 31.6469C32.6 31.3594 32.5719 31.1187 32.5344 30.925C32.5031 30.7312 32.4687 30.5687 32.4312 30.4375V30.4H34.5969V30.4375C34.5469 30.5812 34.5062 30.7656 34.475 30.9906C34.45 31.2094 34.4219 31.4875 34.3906 31.825C34.6406 31.625 34.9094 31.4281 35.1969 31.2344C35.4844 31.0406 35.7781 30.8687 36.0781 30.7187C36.3844 30.5687 36.6906 30.4469 36.9969 30.3531C37.3031 30.2594 37.6062 30.2125 37.9062 30.2125C38.2625 30.2125 38.5781 30.2594 38.8531 30.3531C39.1281 30.4469 39.3687 30.575 39.575 30.7375C39.7812 30.9 39.9531 31.0906 40.0906 31.3094C40.2344 31.5281 40.3437 31.7625 40.4187 32.0125C40.675 31.7937 40.9531 31.5781 41.2531 31.3656C41.5594 31.1469 41.8719 30.9531 42.1906 30.7844C42.5156 30.6156 42.8438 30.4781 43.175 30.3719C43.5125 30.2656 43.8406 30.2125 44.1594 30.2125C44.6469 30.2125 45.0594 30.2969 45.3969 30.4656C45.7406 30.6344 46.0188 30.8562 46.2313 31.1312C46.45 31.4062 46.6063 31.7219 46.7 32.0781C46.8 32.4281 46.85 32.7844 46.85 33.1469V36.3344C46.85 36.8656 46.8563 37.3312 46.8688 37.7312C46.8813 38.125 46.9 38.4656 46.925 38.7531C46.95 39.0406 46.9781 39.2812 47.0094 39.475C47.0469 39.6687 47.0844 39.8312 47.1219 39.9625V40H44.9469V39.9625C44.9844 39.8312 45.0188 39.6687 45.05 39.475C45.0875 39.2812 45.1188 39.0406 45.1438 38.7531C45.1688 38.4656 45.1875 38.125 45.2 37.7312C45.2125 37.3312 45.2188 36.8656 45.2188 36.3344V33.6812C45.2188 32.8562 45.0531 32.25 44.7219 31.8625C44.3906 31.475 43.9469 31.2812 43.3906 31.2812C43.1969 31.2812 42.9813 31.3187 42.7438 31.3937C42.5125 31.4687 42.2719 31.5719 42.0219 31.7031C41.7719 31.8344 41.5219 31.9875 41.2719 32.1625C41.0219 32.3312 40.7875 32.5125 40.5687 32.7062C40.5812 32.7812 40.5875 32.8562 40.5875 32.9312C40.5875 33.0062 40.5875 33.0781 40.5875 33.1469V36.3344C40.5875 36.8656 40.5937 37.3312 40.6062 37.7312C40.625 38.125 40.6437 38.4656 40.6625 38.7531C40.6875 39.0406 40.7156 39.2812 40.7469 39.475C40.7844 39.6687 40.8219 39.8312 40.8594 39.9625V40H38.6937V39.9625C38.7312 39.8312 38.7656 39.6687 38.7969 39.475C38.8281 39.2812 38.8562 39.0406 38.8812 38.7531C38.9062 38.4656 38.925 38.125 38.9375 37.7312C38.95 37.3312 38.9562 36.8656 38.9562 36.3344V33.6812ZM48.9219 37.2344C48.9219 36.7406 49.0219 36.3125 49.2219 35.95C49.4281 35.5875 49.7 35.2781 50.0375 35.0219C50.375 34.7656 50.7594 34.5594 51.1906 34.4031C51.6219 34.2406 52.0688 34.1156 52.5313 34.0281C52.9938 33.9344 53.45 33.8719 53.9 33.8406C54.35 33.8031 54.7625 33.7812 55.1375 33.775V33.2969C55.1375 32.8844 55.0844 32.5281 54.9781 32.2281C54.8719 31.9281 54.7219 31.6812 54.5281 31.4875C54.3344 31.2875 54.1 31.1406 53.825 31.0469C53.5563 30.9469 53.2594 30.8969 52.9344 30.8969C52.7094 30.8969 52.4875 30.9156 52.2688 30.9531C52.05 30.9906 51.8219 31.0531 51.5844 31.1406C51.3531 31.2281 51.1063 31.3469 50.8438 31.4969C50.5875 31.6469 50.3094 31.8375 50.0094 32.0687L49.9156 32.0125L50.5531 30.6906C50.7594 30.5969 50.9625 30.5219 51.1625 30.4656C51.3625 30.4031 51.5656 30.3531 51.7719 30.3156C51.9781 30.2781 52.1875 30.2531 52.4 30.2406C52.6188 30.2219 52.8469 30.2125 53.0844 30.2125C53.7406 30.2125 54.3 30.2937 54.7625 30.4562C55.2313 30.6125 55.6125 30.8312 55.9063 31.1125C56.2063 31.3875 56.425 31.7125 56.5625 32.0875C56.7 32.4562 56.7688 32.8531 56.7688 33.2781V36.3344C56.7688 36.8656 56.775 37.3312 56.7875 37.7312C56.8063 38.125 56.825 38.4656 56.8438 38.7531C56.8688 39.0406 56.8969 39.2812 56.9281 39.475C56.9656 39.6687 57.0031 39.8312 57.0406 39.9625V40H54.9688V39.9625C55 39.8625 55.0219 39.75 55.0344 39.625C55.0531 39.5 55.0688 39.35 55.0813 39.175C54.95 39.2875 54.7938 39.4031 54.6125 39.5219C54.4375 39.6406 54.2344 39.75 54.0031 39.85C53.7781 39.9437 53.525 40.0188 53.2438 40.075C52.9688 40.1375 52.6656 40.1688 52.3344 40.1688C51.2469 40.1688 50.4063 39.9156 49.8125 39.4094C49.2188 38.8969 48.9219 38.1719 48.9219 37.2344ZM55.1375 34.5062C54.5688 34.5125 54.0219 34.5469 53.4969 34.6094C52.9719 34.6656 52.5063 34.7875 52.1 34.975C51.7 35.1625 51.3781 35.4312 51.1344 35.7812C50.8969 36.125 50.7781 36.5844 50.7781 37.1594C50.7781 37.8969 50.9625 38.4594 51.3313 38.8469C51.7 39.2344 52.2094 39.4281 52.8594 39.4281C53.1594 39.4281 53.4313 39.3875 53.675 39.3062C53.925 39.2187 54.1438 39.1125 54.3313 38.9875C54.525 38.8562 54.6875 38.7156 54.8188 38.5656C54.95 38.4094 55.05 38.2594 55.1188 38.1156C55.1313 37.8781 55.1375 37.6156 55.1375 37.3281C55.1375 37.0344 55.1375 36.7031 55.1375 36.3344V34.5062ZM65.2625 39.9625C65.3 39.8312 65.3344 39.6687 65.3656 39.475C65.4031 39.2812 65.4344 39.0406 65.4594 38.7531C65.4844 38.4656 65.5031 38.125 65.5156 37.7312C65.5281 37.3312 65.5344 36.8656 65.5344 36.3344V30.2312C65.5344 29.7 65.5281 29.2375 65.5156 28.8437C65.5031 28.4437 65.4844 28.1 65.4594 27.8125C65.4344 27.5187 65.4031 27.275 65.3656 27.0812C65.3344 26.8875 65.3 26.725 65.2625 26.5937V26.5562H67.5125V26.5937C67.475 26.725 67.4375 26.8875 67.4 27.0812C67.3688 27.275 67.3406 27.5187 67.3156 27.8125C67.2969 28.1 67.2781 28.4437 67.2594 28.8437C67.2469 29.2375 67.2406 29.7 67.2406 30.2312V32.3219L72.7156 27.85C73.3281 27.35 73.6344 26.9187 73.6344 26.5562H76.2688V26.5937C75.9 26.6812 75.525 26.85 75.1438 27.1C74.7688 27.3437 74.3688 27.6437 73.9438 28L69.1063 32.05L74.9281 38.4437C75.1719 38.6937 75.3781 38.9031 75.5469 39.0719C75.7219 39.2344 75.875 39.3719 76.0063 39.4844C76.1375 39.5906 76.2563 39.6812 76.3625 39.7562C76.475 39.825 76.5906 39.8937 76.7094 39.9625V40H73.9625C73.9375 39.9437 73.8938 39.8719 73.8313 39.7844C73.775 39.6969 73.7063 39.6062 73.625 39.5125C73.55 39.4187 73.4656 39.3219 73.3719 39.2219C73.2844 39.1219 73.2 39.0281 73.1188 38.9406L67.2406 32.4906V36.3344C67.2406 36.8656 67.2469 37.3312 67.2594 37.7312C67.2781 38.125 67.2969 38.4656 67.3156 38.7531C67.3406 39.0406 67.3688 39.2812 67.4 39.475C67.4375 39.6687 67.475 39.8312 67.5125 39.9625V40H65.2625V39.9625ZM78.9594 36.7187C78.9594 37.5437 79.1219 38.15 79.4469 38.5375C79.7781 38.925 80.2219 39.1187 80.7781 39.1187C80.9781 39.1187 81.2031 39.0781 81.4531 38.9969C81.7031 38.9094 81.9594 38.7969 82.2219 38.6594C82.4906 38.5156 82.7563 38.35 83.0188 38.1625C83.2875 37.975 83.5344 37.775 83.7594 37.5625C83.7719 37.3812 83.7781 37.1906 83.7781 36.9906C83.7781 36.7844 83.7781 36.5656 83.7781 36.3344V34.0656C83.7781 33.5344 83.7688 33.0719 83.75 32.6781C83.7375 32.2781 83.7188 31.9344 83.6938 31.6469C83.675 31.3594 83.6469 31.1187 83.6094 30.925C83.5781 30.7312 83.5438 30.5687 83.5063 30.4375V30.4H85.6719V30.4375C85.6344 30.5687 85.6 30.7312 85.5688 30.925C85.5375 31.1187 85.5094 31.3594 85.4844 31.6469C85.4594 31.9344 85.4406 32.2781 85.4281 32.6781C85.4156 33.0719 85.4094 33.5344 85.4094 34.0656V36.3344C85.4094 36.8656 85.4156 37.3312 85.4281 37.7312C85.4406 38.125 85.4594 38.4656 85.4844 38.7531C85.5094 39.0406 85.5375 39.2812 85.5688 39.475C85.6 39.6687 85.6344 39.8312 85.6719 39.9625V40H83.5063V39.9625C83.5438 39.8062 83.5813 39.6062 83.6188 39.3625C83.6625 39.1187 83.6938 38.8 83.7125 38.4062C83.4563 38.625 83.1781 38.8406 82.8781 39.0531C82.5844 39.2656 82.275 39.4562 81.95 39.625C81.6313 39.7937 81.3063 39.9281 80.975 40.0281C80.65 40.1344 80.3281 40.1875 80.0094 40.1875C79.5219 40.1875 79.1063 40.1031 78.7625 39.9344C78.425 39.7656 78.1469 39.5437 77.9281 39.2687C77.7156 38.9937 77.5594 38.6812 77.4594 38.3312C77.3656 37.9812 77.3188 37.6219 77.3188 37.2531V34.0656C77.3188 33.5344 77.3125 33.0719 77.3 32.6781C77.2875 32.2781 77.2688 31.9344 77.2438 31.6469C77.2188 31.3594 77.1906 31.1187 77.1594 30.925C77.1281 30.7312 77.0938 30.5687 77.0563 30.4375V30.4H79.2219V30.4375C79.1844 30.5687 79.15 30.7312 79.1188 30.925C79.0875 31.1187 79.0594 31.3594 79.0344 31.6469C79.0094 31.9344 78.9906 32.2781 78.9781 32.6781C78.9656 33.0719 78.9594 33.5344 78.9594 34.0656V36.7187ZM91.6906 39.4469C91.8781 39.4469 92.0625 39.4125 92.2438 39.3437C92.4313 39.275 92.6094 39.1812 92.7781 39.0625C92.9531 38.9437 93.1188 38.8094 93.275 38.6594C93.4375 38.5031 93.5875 38.3406 93.725 38.1719L93.8188 38.2187L93.2094 39.7281C93.1344 39.7656 93.0406 39.8125 92.9281 39.8687C92.8219 39.9187 92.6906 39.9656 92.5344 40.0094C92.3844 40.0594 92.2063 40.1 92 40.1313C91.7938 40.1688 91.55 40.1875 91.2688 40.1875C90.4313 40.1875 89.7781 39.9625 89.3094 39.5125C88.8469 39.0562 88.6156 38.3469 88.6156 37.3844V31.1312L87.0406 31.1875V30.3625C87.2344 30.375 87.4656 30.3844 87.7344 30.3906C88.0031 30.3969 88.2969 30.4 88.6156 30.4C88.6094 29.9562 88.5969 29.5656 88.5781 29.2281C88.5656 28.8844 88.5469 28.5875 88.5219 28.3375C88.5031 28.0812 88.4781 27.8656 88.4469 27.6906C88.4156 27.5156 88.3844 27.3687 88.3531 27.25V27.2125H90.5188V27.25C90.4813 27.3687 90.4469 27.5156 90.4156 27.6906C90.3844 27.8656 90.3563 28.0781 90.3313 28.3281C90.3125 28.5781 90.2938 28.875 90.275 29.2187C90.2625 29.5562 90.2531 29.95 90.2469 30.4C90.6406 30.3937 91.025 30.3875 91.4 30.3812C91.7813 30.3687 92.125 30.3562 92.4313 30.3437C92.7438 30.325 93.0063 30.3094 93.2188 30.2969C93.4375 30.2781 93.5813 30.2625 93.65 30.25L93.4813 31.2062C93.1625 31.2 92.8281 31.1906 92.4781 31.1781C92.1781 31.1656 91.8344 31.1562 91.4469 31.15C91.0594 31.1437 90.6594 31.1375 90.2469 31.1312V37.5812C90.2469 37.9687 90.2875 38.2844 90.3688 38.5281C90.4563 38.7656 90.5656 38.9531 90.6969 39.0906C90.8344 39.2281 90.9875 39.3219 91.1563 39.3719C91.3313 39.4219 91.5094 39.4469 91.6906 39.4469ZM97.2406 36.7187C97.2406 37.5437 97.4031 38.15 97.7281 38.5375C98.0594 38.925 98.5031 39.1187 99.0594 39.1187C99.2594 39.1187 99.4844 39.0781 99.7344 38.9969C99.9844 38.9094 100.241 38.7969 100.503 38.6594C100.772 38.5156 101.038 38.35 101.3 38.1625C101.569 37.975 101.816 37.775 102.041 37.5625C102.053 37.3812 102.059 37.1906 102.059 36.9906C102.059 36.7844 102.059 36.5656 102.059 36.3344V34.0656C102.059 33.5344 102.05 33.0719 102.031 32.6781C102.019 32.2781 102 31.9344 101.975 31.6469C101.956 31.3594 101.928 31.1187 101.891 30.925C101.859 30.7312 101.825 30.5687 101.788 30.4375V30.4H103.953V30.4375C103.916 30.5687 103.881 30.7312 103.85 30.925C103.819 31.1187 103.791 31.3594 103.766 31.6469C103.741 31.9344 103.722 32.2781 103.709 32.6781C103.697 33.0719 103.691 33.5344 103.691 34.0656V36.3344C103.691 36.8656 103.697 37.3312 103.709 37.7312C103.722 38.125 103.741 38.4656 103.766 38.7531C103.791 39.0406 103.819 39.2812 103.85 39.475C103.881 39.6687 103.916 39.8312 103.953 39.9625V40H101.788V39.9625C101.825 39.8062 101.863 39.6062 101.9 39.3625C101.944 39.1187 101.975 38.8 101.994 38.4062C101.738 38.625 101.459 38.8406 101.159 39.0531C100.866 39.2656 100.556 39.4562 100.231 39.625C99.9125 39.7937 99.5875 39.9281 99.2563 40.0281C98.9313 40.1344 98.6094 40.1875 98.2906 40.1875C97.8031 40.1875 97.3875 40.1031 97.0438 39.9344C96.7063 39.7656 96.4281 39.5437 96.2094 39.2687C95.9969 38.9937 95.8406 38.6812 95.7406 38.3312C95.6469 37.9812 95.6 37.6219 95.6 37.2531V34.0656C95.6 33.5344 95.5938 33.0719 95.5813 32.6781C95.5688 32.2781 95.55 31.9344 95.525 31.6469C95.5 31.3594 95.4719 31.1187 95.4406 30.925C95.4094 30.7312 95.375 30.5687 95.3375 30.4375V30.4H97.5031V30.4375C97.4656 30.5687 97.4313 30.7312 97.4 30.925C97.3688 31.1187 97.3406 31.3594 97.3156 31.6469C97.2906 31.9344 97.2719 32.2781 97.2594 32.6781C97.2469 33.0719 97.2406 33.5344 97.2406 34.0656V36.7187ZM110.816 32.2844L110.684 32.3031C110.641 32.1594 110.569 32.0062 110.469 31.8437C110.375 31.6812 110.25 31.5312 110.094 31.3937C109.944 31.2562 109.759 31.1437 109.541 31.0562C109.328 30.9625 109.081 30.9156 108.8 30.9156C108.606 30.9156 108.422 30.9437 108.247 31C108.078 31.0562 107.928 31.1406 107.797 31.2531C107.672 31.3594 107.572 31.4937 107.497 31.6562C107.422 31.8187 107.384 32.0094 107.384 32.2281C107.384 32.5344 107.478 32.8281 107.666 33.1094C107.859 33.3844 108.1 33.6594 108.388 33.9344C108.675 34.2031 108.984 34.475 109.316 34.75C109.653 35.025 109.966 35.3125 110.253 35.6125C110.541 35.9125 110.778 36.2344 110.966 36.5781C111.159 36.9156 111.256 37.2812 111.256 37.675C111.256 37.9937 111.2 38.3062 111.088 38.6125C110.975 38.9125 110.8 39.1812 110.563 39.4187C110.331 39.6562 110.031 39.85 109.663 40C109.3 40.1438 108.866 40.2156 108.359 40.2156C108.059 40.2156 107.778 40.1875 107.516 40.1313C107.259 40.075 107.022 40.0063 106.803 39.925C106.591 39.8375 106.397 39.7437 106.222 39.6437C106.053 39.5375 105.903 39.4375 105.772 39.3437L105.866 37.5625H106.016C106.078 37.8562 106.172 38.125 106.297 38.3687C106.422 38.6125 106.575 38.8219 106.756 38.9969C106.944 39.1656 107.156 39.3 107.394 39.4C107.631 39.4937 107.891 39.5406 108.172 39.5406C108.634 39.5406 109 39.4125 109.269 39.1562C109.544 38.9 109.681 38.5656 109.681 38.1531C109.681 37.8219 109.588 37.5187 109.4 37.2437C109.219 36.9625 108.988 36.6937 108.706 36.4375C108.425 36.1812 108.122 35.925 107.797 35.6687C107.478 35.4125 107.178 35.1406 106.897 34.8531C106.616 34.5594 106.381 34.2406 106.194 33.8969C106.013 33.5469 105.922 33.15 105.922 32.7062C105.922 32.3437 105.988 32.0125 106.119 31.7125C106.256 31.4062 106.444 31.1469 106.681 30.9344C106.925 30.7156 107.213 30.5469 107.544 30.4281C107.875 30.3094 108.238 30.25 108.631 30.25C109.15 30.25 109.581 30.3062 109.925 30.4187C110.275 30.525 110.541 30.6281 110.722 30.7281L110.816 32.2844ZM114.959 36.7187C114.959 37.5437 115.122 38.15 115.447 38.5375C115.778 38.925 116.222 39.1187 116.778 39.1187C116.978 39.1187 117.203 39.0781 117.453 38.9969C117.703 38.9094 117.959 38.7969 118.222 38.6594C118.491 38.5156 118.756 38.35 119.019 38.1625C119.288 37.975 119.534 37.775 119.759 37.5625C119.772 37.3812 119.778 37.1906 119.778 36.9906C119.778 36.7844 119.778 36.5656 119.778 36.3344V34.0656C119.778 33.5344 119.769 33.0719 119.75 32.6781C119.738 32.2781 119.719 31.9344 119.694 31.6469C119.675 31.3594 119.647 31.1187 119.609 30.925C119.578 30.7312 119.544 30.5687 119.506 30.4375V30.4H121.672V30.4375C121.634 30.5687 121.6 30.7312 121.569 30.925C121.538 31.1187 121.509 31.3594 121.484 31.6469C121.459 31.9344 121.441 32.2781 121.428 32.6781C121.416 33.0719 121.409 33.5344 121.409 34.0656V36.3344C121.409 36.8656 121.416 37.3312 121.428 37.7312C121.441 38.125 121.459 38.4656 121.484 38.7531C121.509 39.0406 121.538 39.2812 121.569 39.475C121.6 39.6687 121.634 39.8312 121.672 39.9625V40H119.506V39.9625C119.544 39.8062 119.581 39.6062 119.619 39.3625C119.663 39.1187 119.694 38.8 119.713 38.4062C119.456 38.625 119.178 38.8406 118.878 39.0531C118.584 39.2656 118.275 39.4562 117.95 39.625C117.631 39.7937 117.306 39.9281 116.975 40.0281C116.65 40.1344 116.328 40.1875 116.009 40.1875C115.522 40.1875 115.106 40.1031 114.763 39.9344C114.425 39.7656 114.147 39.5437 113.928 39.2687C113.716 38.9937 113.559 38.6812 113.459 38.3312C113.366 37.9812 113.319 37.6219 113.319 37.2531V34.0656C113.319 33.5344 113.313 33.0719 113.3 32.6781C113.288 32.2781 113.269 31.9344 113.244 31.6469C113.219 31.3594 113.191 31.1187 113.159 30.925C113.128 30.7312 113.094 30.5687 113.056 30.4375V30.4H115.222V30.4375C115.184 30.5687 115.15 30.7312 115.119 30.925C115.088 31.1187 115.059 31.3594 115.034 31.6469C115.009 31.9344 114.991 32.2781 114.978 32.6781C114.966 33.0719 114.959 33.5344 114.959 34.0656V36.7187Z" fill="white"/>
</svg>
