<svg width="31" height="30" viewBox="0 0 31 30" fill="none" xmlns="http://www.w3.org/2000/svg">
<path d="M16.1931 0.228911C15.7861 -0.0763035 15.2266 -0.0763035 14.8196 0.228911C0.5 10.8478 0.5 12.0432 0.5 12.6918V26.5409C0.5 28.4485 2.0515 30 3.95909 30H27.0409C28.9485 30 30.5 28.4485 30.5 26.5409V12.6918C30.5127 12.0432 30.5127 10.8478 16.1931 0.228911ZM20.6696 19.4955L28.071 27.0623L19.0545 20.6147L15.5064 22.9292L11.971 20.6274L2.95443 27.075L10.3559 19.5083L1.41564 12.5392L6.28635 14.4722V8.08817H24.7518V14.4595L29.6225 12.5265L20.6696 19.4955Z" fill="#1C5540"/>
</svg>
