<svg width="24" height="24" viewBox="0 0 24 24" fill="none" xmlns="http://www.w3.org/2000/svg">
<g clip-path="url(#clip0_943_1345)">
<path d="M16.7438 2.79375V6.46875C18.6656 7.9125 19.9031 10.2 19.9031 12.7875C19.9031 17.1562 16.3687 20.6906 12 20.6906C7.63125 20.6906 4.09688 17.1469 4.09688 12.7875C4.09688 10.2 5.33438 7.9125 7.25625 6.46875V2.79375C3.525 4.56562 0.9375 8.38125 0.9375 12.7875C0.9375 18.9 5.8875 23.85 12 23.85C18.1125 23.85 23.0625 18.9 23.0625 12.7875C23.0625 8.38125 20.475 4.56562 16.7438 2.79375Z" fill="#A42E2D"/>
<path d="M13.5758 11.2125V1.72499C13.5758 0.853119 12.8727 0.149994 12.0008 0.149994C11.1289 0.149994 10.4258 0.862494 10.4258 1.72499V11.2219C10.4258 12.0937 11.1289 12.7969 12.0008 12.7969C12.8727 12.7875 13.5758 12.075 13.5758 11.2125Z" fill="#A42E2D"/>
</g>
<defs>
<clipPath id="clip0_943_1345">
<rect width="24" height="24" fill="white"/>
</clipPath>
</defs>
</svg>
