<svg width="31" height="30" viewBox="0 0 31 30" fill="none" xmlns="http://www.w3.org/2000/svg">
<path d="M15.5006 -4.91499e-07C18.9723 -0.000992848 22.3369 1.20187 25.021 3.4036C27.7052 5.60534 29.5429 8.66971 30.2209 12.0745C30.8989 15.4793 30.3752 19.0139 28.7392 22.0759C27.1032 25.1379 24.456 27.5379 21.2488 28.8668C18.0416 30.1958 14.4728 30.3715 11.1505 29.3641C7.82824 28.3566 4.95812 26.2283 3.02922 23.3418C1.10033 20.4553 0.232016 16.9893 0.57226 13.5343C0.912503 10.0794 2.44025 6.8493 4.89515 4.39453C6.28595 2.99909 7.93896 1.89244 9.75907 1.13826C11.5792 0.384068 13.5304 -0.0027701 15.5006 -4.91499e-07ZM12.5319 17.4194C12.5953 16.8872 11.0109 14.8462 10.7228 13.8696C10.1027 12.8931 9.88294 11.3159 10.5568 10.2734C10.8278 9.86084 10.7106 9.50195 10.7106 8.92822C10.7106 3.25439 20.6471 3.25439 20.6471 8.92822C20.6471 9.646 20.4835 9.81445 20.8717 10.3931C21.5211 11.3354 21.1867 13.0103 20.6276 13.8843C20.276 14.8926 18.6256 16.8457 18.7404 17.4243C18.8429 20.3345 12.5148 20.2393 12.5319 17.4243V17.4194ZM4.96351 22.3193C5.75697 21.4404 7.18275 21.4014 8.91126 20.5225C9.56356 20.1921 10.1954 19.8228 10.8034 19.4165C12.8102 21.8774 14.4655 24.5825 13.9235 27.7295C14.4451 27.7942 14.9701 27.8268 15.4957 27.8271C15.63 27.8271 15.7618 27.8271 15.8961 27.8271C15.7741 24.1309 17.942 21.4282 20.2394 19.1284C21.4154 19.9078 22.6852 20.5353 24.0187 20.9961C25.1466 21.3721 25.8229 21.6138 26.216 22.0459C27.4982 20.1009 28.2265 17.8434 28.3227 15.5158C28.419 13.1882 27.8796 10.8783 26.7623 8.83411C25.6451 6.78989 23.9922 5.08853 21.9811 3.91264C19.9701 2.73676 17.6768 2.13075 15.3473 2.15967C13.0179 2.18859 10.7403 2.85134 8.75908 4.07678C6.77783 5.30222 5.16771 7.04409 4.10156 9.11541C3.0354 11.1867 2.55346 13.5093 2.70747 15.8338C2.86147 18.1583 3.64561 20.397 4.97572 22.3096L4.96351 22.3193Z" fill="#1C5540"/>
</svg>
